<svg xmlns="http://www.w3.org/2000/svg" width="770" height="562" fill="none"><g clip-path="url(#a)"><path fill="#D9D9D9" d="M0-20h770v562H0z"/><path fill="#fff" d="M770-81H0v685h770V-81Z"/><path fill="#fff" fill-rule="evenodd" d="M0 0h770v562H0V0Z" clip-rule="evenodd"/><path fill="#BA5DE5" fill-rule="evenodd" d="M421 353.7a72.4 72.4 0 0 1-36 9.4v77.1h7l6.6 31c6.1-.6 12.2-1.3 18.4-2.5l-1.5-31.5c5-1.1 10-2.4 15-4l14.2 28.2c5.8-2 11.5-4.4 17.1-7l-9.5-30.1a150.8 150.8 0 0 0 13.4-7.7l21 23.5c5.2-3.5 10-7.2 14.8-11.2l-17-26.6c2-1.9 4.1-3.7 6-5.8-18-18.1-36.1-36.4-54.3-54.5a71.1 71.1 0 0 1-15.2 11.6Z" clip-rule="evenodd"/><path fill="#DE58A9" fill-rule="evenodd" d="M385 363c-18.8 0-37-7.4-50.6-21-18.2 18.3-36.6 36.3-54.9 54.5l5.1 5-17.3 26.4c4.7 4 9.6 8 14.6 11.4l21.3-23.4c4.4 2.8 8.8 5.4 13.4 7.7l-9.9 30c5.6 2.7 11.3 5 17.1 7.2l14.5-28c5 1.5 9.9 2.9 14.9 4l-1.8 31.5c6.1 1.2 12.2 2 18.3 2.6l6.8-31c2.8.2 5.5.3 8.4.3V363h.1Z" clip-rule="evenodd"/><path fill="#E55753" fill-rule="evenodd" d="M436 342.2Zm21-51.2c0 19-7.4 37.5-21 51.2 18.1 18.2 36.4 36.2 54.5 54.3l5-5 26.4 17.3c4-4.7 7.9-9.6 11.4-14.6l-23.5-21.4c2.9-4.3 5.5-8.7 7.8-13.3l30 9.8c2.7-5.5 5-11.2 7.2-17l-28.1-14.5c1.6-5 3-10 4-15l31.6 1.8c1.1-6 2-12.1 2.5-18.3l-30.9-6.7c.2-2.8.2-5.6.2-8.4l-77-.2Z" clip-rule="evenodd"/><path fill="#DE8431" fill-rule="evenodd" d="M313 291a71.2 71.2 0 0 0 21 51.2c-18 18.2-36.3 36.3-54.5 54.4l-5.8-6-26.6 17c-3.9-4.8-7.6-9.7-11.1-14.8l23.5-21a151.2 151.2 0 0 1-7.7-13.5l-30 9.6c-2.7-5.7-5.1-11.4-7.1-17.2l28.2-14.2c-1.6-5-3-10-4-15l-31.5 1.5c-1.2-6.2-2-12.3-2.4-18.4l31-6.5-.1-7.1h77Z" clip-rule="evenodd"/><path fill="#E0CB15" fill-rule="evenodd" d="m490.5 185.4 5.8 6.1 26.6-17c3.9 4.7 7.6 9.6 11.1 14.8l-23.5 21a151.2 151.2 0 0 1 7.7 13.5l30-9.6a177 177 0 0 1 7.1 17.1l-28.2 14.3c1.6 5 2.9 10 4 15l31.5-1.5c1.2 6.1 2 12.2 2.4 18.4l-31 6.5.1 7h-77a71.1 71.1 0 0 0-21-51.2c18-18.2 36.2-36.2 54.4-54.4Z" clip-rule="evenodd"/><path fill="#92BD39" fill-rule="evenodd" d="m279.5 185.5-4.9 5-26.4-17.2c-4 4.7-8 9.5-11.4 14.6l23.4 21.3c-2.8 4.3-5.4 8.8-7.7 13.4l-30-9.9c-2.7 5.6-5 11.3-7.2 17l28 14.6c-1.5 4.9-2.9 9.9-4 14.9l-31.5-1.8c-1.1 6.1-2 12.2-2.6 18.3l31 6.8a131 131 0 0 0-.3 8.4l77 .1c0-18.8 7.5-37 21-50.6h.1c-18.3-18.2-36.2-36.6-54.5-54.9Z" clip-rule="evenodd"/><path fill="#3CC583" fill-rule="evenodd" d="M385 219c18.8 0 37 7.4 50.6 21l54.7-54.4-5.1-5 17.3-26.4c-4.7-4-9.6-7.9-14.6-11.4l-21.3 23.4c-4.4-2.8-8.8-5.4-13.4-7.7l9.9-30c-5.6-2.7-11.3-5-17.1-7.2l-14.5 28c-4.9-1.5-9.9-2.9-14.9-4l1.8-31.5c-6.1-1.1-12.2-2-18.3-2.5l-6.8 30.9a131 131 0 0 0-8.4-.3l.1 77Z" clip-rule="evenodd"/><path fill="#1EABDA" fill-rule="evenodd" d="M385 219a71.2 71.2 0 0 0-51.2 21l-54.3-54.4 6-5.8-17-26.6c4.8-4 9.7-7.7 14.8-11.2l21 23.5a152.1 152.1 0 0 1 13.5-7.7l-9.6-30a177 177 0 0 1 17.2-7.1l14.2 28.2c5-1.6 10-2.9 15-4l-1.5-31.5c6.1-1.2 12.2-2 18.4-2.4l6.5 31 7-.1v77Z" clip-rule="evenodd"/><path fill="#424736" d="m30.1 219 6.2-14.1h1.5L44 219h-1.7l-1.8-4 .8.4h-8.7l.8-.4-1.7 4h-1.7Zm7-12.2-3.3 7.6-.5-.4h7.5l-.4.4-3.3-7.6Zm9 12.2v-7.7L46 210l-.1-1.1h1.5l.2 2.2h-.2c.3-.8.8-1.4 1.4-1.8.7-.4 1.4-.6 2.3-.6 1.1 0 2 .3 2.6 1 .7.6 1 1.6 1 3v6.2H53v-6.2c0-1-.2-1.6-.5-2-.4-.5-1-.7-1.8-.7a3 3 0 0 0-2.2.9c-.6.5-.8 1.3-.8 2.3v5.7H46Zm11.7 0v-7.7l-.1-1.2-.1-1.1h1.6l.2 2.2H59c.3-.8.8-1.4 1.4-1.8.7-.4 1.4-.6 2.3-.6 1.2 0 2 .3 2.7 1 .6.6.9 1.6.9 3v6.2h-1.6v-6.2c0-1-.2-1.6-.6-2-.4-.5-1-.7-1.8-.7a3 3 0 0 0-2.2.9c-.6.5-.8 1.3-.8 2.3v5.7h-1.6Zm16.1.2a5 5 0 0 1-3.7-1.4c-.9-.9-1.3-2.2-1.3-3.8 0-1 .2-2 .6-2.7.4-.8 1-1.4 1.6-1.9.8-.4 1.6-.6 2.5-.6 1 0 1.7.2 2.3.6.7.3 1.1.9 1.5 1.6.3.7.5 1.6.5 2.5v.6H70v-1h6.7l-.3.3c0-1-.3-2-.7-2.5-.5-.6-1.2-1-2.2-1-1 0-1.8.4-2.3 1.1-.6.7-.9 1.7-.9 2.9v.1c0 1.3.3 2.2 1 2.9.6.6 1.5 1 2.6 1a4.7 4.7 0 0 0 3.2-1.2l.5 1.1c-.4.5-1 .8-1.6 1-.7.3-1.4.4-2.2.4Zm5-.2 4.5-5.6v.8l-4.2-5.2h2l3.1 4h-.5l3.2-4h1.9l-4.2 5.2v-.7l4.5 5.5h-2l-3.5-4.4h.6L81 219h-2Zm17.5 0v-14.1H98V219h-1.6Zm5.1 0v-14.1h1.7V219h-1.7Zm13.9 0v-12.7h-5v-1.4H122v1.4h-5V219h-1.6Zm11.4.2a5 5 0 0 1-3.8-1.4c-.9-.9-1.3-2.2-1.3-3.8 0-1 .2-2 .6-2.7.4-.8 1-1.4 1.7-1.9.7-.4 1.5-.6 2.4-.6 1 0 1.7.2 2.4.6.6.3 1 .9 1.4 1.6.3.7.5 1.6.5 2.5v.6H123v-1h6.7l-.3.3c0-1-.2-2-.7-2.5-.5-.6-1.2-1-2.2-1-1 0-1.7.4-2.3 1.1-.6.7-.8 1.7-.8 2.9v.1c0 1.3.3 2.2.9 2.9.6.6 1.5 1 2.6 1a4.7 4.7 0 0 0 3.2-1.2l.6 1.1c-.5.5-1 .8-1.7 1-.7.3-1.4.4-2.1.4Zm10.6 0a5 5 0 0 1-2.6-.7c-.7-.4-1.3-1-1.7-1.8-.3-.8-.5-1.7-.5-2.8 0-1 .2-2 .6-2.8.4-.7 1-1.3 1.6-1.7.8-.4 1.6-.6 2.6-.6.6 0 1.3 0 1.9.3a4 4 0 0 1 1.5 1l-.6 1.1a4 4 0 0 0-2.7-1.1 3 3 0 0 0-2.4 1c-.6.6-.9 1.6-.9 2.8 0 1.3.3 2.2.9 3a3 3 0 0 0 2.4 1 3.9 3.9 0 0 0 2.7-1.2l.6 1.2a4 4 0 0 1-1.6 1l-1.8.3Zm5.7-.2v-14.7h1.6v6.9h-.3c.3-.8.8-1.4 1.4-1.8.7-.4 1.5-.6 2.3-.6 1.2 0 2.1.3 2.7 1 .6.6 1 1.6 1 2.9v6.3H150v-6.2c0-1-.2-1.6-.6-2-.3-.5-1-.7-1.7-.7a3 3 0 0 0-2.3.9c-.5.5-.8 1.3-.8 2.2v5.8h-1.6Zm11.7 0v-8.9l-.2-1.1h1.6l.2 2.2h-.2c.3-.8.7-1.4 1.4-1.8.6-.4 1.4-.6 2.2-.6 1.2 0 2.1.3 2.7 1 .6.6 1 1.6 1 3v6.2h-1.7v-6.2c0-1-.2-1.6-.6-2-.3-.5-1-.7-1.7-.7a3 3 0 0 0-2.3.9c-.5.5-.8 1.3-.8 2.3v5.7h-1.6Zm11.7 0v-10h1.6v10h-1.6Zm-.2-12.3v-1.8h2v1.8h-2Zm9.2 12.5a5 5 0 0 1-2.6-.7c-.7-.4-1.2-1-1.6-1.8-.4-.8-.6-1.7-.6-2.8 0-1 .2-2 .6-2.8.4-.7 1-1.3 1.7-1.7.7-.4 1.5-.6 2.5-.6.7 0 1.3 0 1.9.3a4 4 0 0 1 1.5 1l-.6 1.1a4 4 0 0 0-2.7-1.1 3 3 0 0 0-2.4 1c-.6.6-.9 1.6-.9 2.8 0 1.3.3 2.2.9 3a3 3 0 0 0 2.4 1 3.9 3.9 0 0 0 2.7-1.2l.6 1.2a4 4 0 0 1-1.5 1l-1.9.3Zm9.4 0c-.9 0-1.6-.2-2.3-.6-.7-.5-1.2-1-1.6-1.8-.3-.8-.5-1.7-.5-2.8 0-1.1.2-2 .5-2.8.4-.8 1-1.4 1.6-1.8.7-.4 1.4-.6 2.3-.6 1 0 1.7.2 2.4.7.6.4 1 1 1.3 1.8h-.2l.2-2.3h1.5a356.5 356.5 0 0 0-.1 2.3v7.7h-1.6v-2.4h.2c-.2.8-.7 1.4-1.3 1.9a4 4 0 0 1-2.4.7Zm.4-1.3c1 0 1.7-.4 2.2-1 .6-.7.9-1.7.9-3 0-1.2-.3-2.2-.9-2.8-.5-.7-1.3-1-2.2-1-1 0-1.8.3-2.3 1-.6.6-.9 1.6-.9 2.9 0 1.2.3 2.2.9 2.9.5.6 1.3 1 2.3 1Zm7.8 1.1v-14.7h1.6V219h-1.6ZM90.7 243v-14.1h4.7c1.5 0 2.8.3 4 .8 1 .6 1.8 1.3 2.4 2.4a8 8 0 0 1 .8 3.8 8 8 0 0 1-.8 3.9c-.6 1-1.4 1.8-2.5 2.4-1 .5-2.4.8-4 .8h-4.6Zm1.6-1.4h3c1.9 0 3.3-.5 4.2-1.4 1-1 1.4-2.4 1.4-4.3s-.5-3.3-1.4-4.2c-1-1-2.3-1.4-4.3-1.4h-2.9v11.3Zm17.3 1.6a5 5 0 0 1-2.6-.6c-.7-.5-1.2-1-1.6-1.8-.4-.8-.6-1.8-.6-2.8 0-1.1.2-2 .6-2.8.4-.8 1-1.4 1.6-1.8.8-.4 1.6-.6 2.6-.6s1.8.2 2.5.6c.7.4 1.2 1 1.6 1.8.4.8.6 1.7.6 2.8 0 1-.2 2-.6 2.8-.4.7-1 1.3-1.6 1.8a5 5 0 0 1-2.5.6Zm0-1.3c1 0 1.7-.4 2.2-1 .6-.7.9-1.7.9-3 0-1.2-.3-2.2-.9-2.8-.5-.7-1.3-1-2.2-1-1 0-1.7.3-2.3 1-.6.6-.8 1.6-.8 2.9 0 1.2.2 2.2.8 2.9.6.6 1.3 1 2.3 1Zm11.5 1.3a5 5 0 0 1-2.6-.7c-.7-.4-1.3-1-1.7-1.8-.4-.8-.6-1.7-.6-2.8 0-1 .2-2 .6-2.8.4-.7 1-1.3 1.7-1.7.8-.4 1.6-.6 2.6-.6.6 0 1.2 0 1.8.3a4 4 0 0 1 1.6 1l-.6 1.1a4 4 0 0 0-2.7-1.1 3 3 0 0 0-2.4 1c-.6.6-.9 1.6-.9 2.8 0 1.3.3 2.2.9 3a3 3 0 0 0 2.4 1 3.9 3.9 0 0 0 2.7-1.2l.6 1.2a4 4 0 0 1-1.6 1l-1.8.3Zm9.2 0c-1.2 0-2-.3-2.7-1-.6-.7-.9-1.7-.9-3V233h1.6v6.2c0 .9.2 1.6.6 2 .4.4 1 .6 1.7.6.9 0 1.6-.2 2.1-.8.6-.6.8-1.4.8-2.3V233h1.7v10h-1.6v-2.3h.2a3.6 3.6 0 0 1-3.5 2.5Zm8-.2v-8.9l-.2-1.1h1.6l.2 2.2h-.2c.2-.8.6-1.4 1.2-1.8.6-.4 1.3-.6 2.1-.6.9 0 1.6.2 2 .6.6.4 1 1 1.2 1.8h-.3c.2-.7.7-1.3 1.3-1.8.6-.4 1.4-.6 2.2-.6 1.1 0 2 .3 2.5 1 .6.6.9 1.6.9 3v6.2h-1.6v-6.2c0-1-.2-1.6-.5-2-.4-.5-.9-.7-1.6-.7-.9 0-1.5.3-2 .9-.5.6-.8 1.3-.8 2.3v5.7h-1.6v-6.2c0-1-.1-1.6-.5-2-.3-.5-.8-.7-1.6-.7s-1.5.3-2 .9c-.4.6-.7 1.3-.7 2.3v5.7h-1.6Zm22 .2a5 5 0 0 1-3.7-1.4c-1-.9-1.4-2.2-1.4-3.8 0-1 .2-2 .6-2.7.4-.8 1-1.4 1.7-1.9.7-.4 1.6-.6 2.5-.6 1 0 1.7.2 2.3.6.6.3 1.1.9 1.5 1.6.3.7.5 1.6.5 2.5v.6h-7.8v-1h6.7l-.3.3c0-1-.3-2-.8-2.5-.4-.6-1.2-1-2.1-1-1 0-1.8.4-2.3 1.1-.6.7-.9 1.7-.9 2.9v.1c0 1.3.3 2.2 1 2.9.6.6 1.4 1 2.6 1a4.7 4.7 0 0 0 3.2-1.2l.5 1.1c-.4.5-1 .8-1.7 1-.6.3-1.3.4-2 .4Zm6.4-.2v-8.9l-.1-1.1h1.5l.2 2.2h-.2c.3-.8.8-1.4 1.4-1.8.7-.4 1.4-.6 2.3-.6 1.1 0 2 .3 2.6 1 .7.6 1 1.6 1 3v6.2h-1.7v-6.2c0-1-.2-1.6-.5-2-.4-.5-1-.7-1.8-.7a3 3 0 0 0-2.2.9c-.6.5-.8 1.3-.8 2.3v5.7h-1.7Zm15.3.2c-1 0-1.7-.3-2.2-.9-.6-.5-.8-1.4-.8-2.5v-5.6h-2V233h2v-2.8l1.6-.4v3.2h2.9v1.2h-2.9v5.4c0 .8.1 1.4.4 1.7.3.3.7.5 1.2.5h.7l.6-.2v1.3l-.7.2h-.8Zm6.8 0c-.8 0-1.6-.1-2.2-.3-.7-.3-1.3-.6-1.8-1l.6-1.1c.5.4 1 .7 1.6.8a6 6 0 0 0 1.8.3c.8 0 1.4-.1 1.8-.4.4-.3.6-.7.6-1.2 0-.4-.1-.7-.4-1-.2-.2-.6-.3-1.2-.5l-1.9-.4c-.8-.1-1.5-.5-2-.9-.3-.5-.5-1-.5-1.7 0-.6.1-1.1.4-1.6a3 3 0 0 1 1.4-1 5.8 5.8 0 0 1 4 0 4 4 0 0 1 1.6.9l-.6 1c-.4-.3-.8-.6-1.4-.8l-1.5-.3c-.8 0-1.4.2-1.8.5-.4.3-.6.7-.6 1.2 0 .4.1.7.4 1 .2.2.6.4 1.1.5l1.9.4c.9.2 1.6.5 2 1 .4.4.7 1 .7 1.6 0 .6-.2 1.1-.5 1.6-.4.4-.8.8-1.4 1-.6.3-1.3.4-2.1.4Z"/><path fill="#46432D" d="M580.8 219v-14.1h5.7c1.5 0 2.6.4 3.4 1 .8.8 1.2 1.8 1.2 3 0 1.3-.4 2.3-1.2 3-.8.7-2 1-3.4 1h-4v6.1h-1.7Zm1.6-7.4h4c1 0 1.7-.2 2.3-.7.5-.5.8-1.1.8-2 0-.8-.3-1.5-.8-2-.6-.4-1.3-.6-2.4-.6h-3.9v5.3Zm14.9 7.6a5 5 0 0 1-2.5-.6c-.7-.5-1.3-1-1.7-1.8-.3-.8-.5-1.8-.5-2.8 0-1.1.2-2 .5-2.8.4-.8 1-1.4 1.7-1.8.7-.4 1.5-.6 2.5-.6s1.8.2 2.5.6c.7.4 1.3 1 1.7 1.8.4.8.6 1.7.6 2.8 0 1-.2 2-.6 2.8-.4.7-1 1.3-1.7 1.8a5 5 0 0 1-2.5.6Zm0-1.3c1 0 1.7-.4 2.3-1 .5-.7.8-1.7.8-3 0-1.2-.3-2.2-.8-2.8-.6-.7-1.4-1-2.3-1-1 0-1.7.3-2.3 1-.5.6-.8 1.6-.8 2.9 0 1.2.3 2.2.8 2.9.6.6 1.4 1 2.3 1Zm10.6 1.3c-.8 0-1.5-.1-2.2-.3-.7-.3-1.3-.6-1.7-1l.5-1.1a5.2 5.2 0 0 0 3.5 1.1c.8 0 1.4-.1 1.8-.4.4-.3.6-.7.6-1.2 0-.4-.1-.7-.4-1l-1.3-.5-1.8-.4c-.9-.1-1.5-.5-2-.9-.4-.5-.6-1-.6-1.7 0-.6.2-1.1.5-1.6a3 3 0 0 1 1.3-1 5.8 5.8 0 0 1 4 0 4 4 0 0 1 1.6.9l-.5 1-1.4-.8c-.5-.2-1-.3-1.6-.3-.8 0-1.4.2-1.8.5-.4.3-.6.7-.6 1.2 0 .4.2.7.4 1 .3.2.6.4 1.2.5l1.8.4c1 .2 1.6.5 2 1 .5.4.7 1 .7 1.6 0 .6-.1 1.1-.5 1.6-.3.4-.8.8-1.4 1-.6.3-1.3.4-2 .4Zm10 0c-.9 0-1.7-.3-2.2-.9-.5-.5-.8-1.4-.8-2.5v-5.6h-2V209h2v-2.8l1.7-.4v3.2h2.8v1.2h-2.8v5.4c0 .8.1 1.4.4 1.7.2.3.7.5 1.2.5h.7l.5-.2v1.3l-.7.2h-.7Zm3.2-5v-1.4h5.7v1.4H621Zm8.9 4.8v-14.1h1.4l5.7 12.8h-.6l5.7-12.8h1.4V219h-1.5v-12h.6l-5.4 12h-1l-5.4-12h.6v12H630Zm20.8.2c-1 0-1.7-.2-2.4-.6-.6-.5-1.2-1-1.5-1.8-.4-.8-.6-1.7-.6-2.8 0-1.1.2-2 .6-2.8.3-.8.9-1.4 1.5-1.8.7-.4 1.5-.6 2.4-.6.9 0 1.7.2 2.3.7.7.4 1.1 1 1.3 1.8h-.2l.2-2.3h1.6a356.5 356.5 0 0 0-.2 2.3v7.7h-1.6v-2.4h.2c-.2.8-.6 1.4-1.3 1.9a4 4 0 0 1-2.3.7Zm.3-1.3c1 0 1.7-.4 2.3-1 .5-.7.8-1.7.8-3 0-1.2-.3-2.2-.8-2.8-.6-.7-1.4-1-2.3-1-1 0-1.7.3-2.3 1-.6.6-.8 1.6-.8 2.9 0 1.2.2 2.2.8 2.9.6.6 1.3 1 2.3 1Zm7.8 1.1v-7.6a18.7 18.7 0 0 0-.1-2.4h1.5l.2 2.4h-.2c0-.6.3-1 .7-1.5l1.1-.8 1.5-.3h.5l.4.1v1.4h-.6l-.5-.1c-.6 0-1.1.1-1.6.4a2.8 2.8 0 0 0-1.3 2.5v5.9H659Zm7.3 0v-14.7h1.6v9.1l4.7-4.4h2l-5.4 5.2v-.8l6 5.6H673l-5.1-4.7v4.7h-1.7Zm14.5.2a5 5 0 0 1-3.7-1.4c-1-.9-1.4-2.2-1.4-3.8 0-1 .2-2 .6-2.7.4-.8 1-1.4 1.7-1.9.7-.4 1.6-.6 2.5-.6.9 0 1.7.2 2.3.6.6.3 1.1.9 1.4 1.6.4.7.5 1.6.5 2.5v.6H677v-1h6.7l-.4.3c0-1-.2-2-.7-2.5-.5-.6-1.2-1-2.1-1-1 0-1.8.4-2.4 1.1-.5.7-.8 1.7-.8 2.9v.1c0 1.3.3 2.2 1 2.9.6.6 1.4 1 2.5 1a4.7 4.7 0 0 0 3.2-1.2l.6 1.1c-.4.5-1 .8-1.7 1-.6.3-1.3.4-2.1.4Zm10 0c-1 0-1.8-.3-2.3-.9-.5-.5-.8-1.4-.8-2.5v-5.6h-2V209h2v-2.8l1.7-.4v3.2h2.8v1.2h-2.8v5.4c0 .8.1 1.4.4 1.7.2.3.7.5 1.2.5h.7l.5-.2v1.3l-.7.2h-.7ZM585.4 243.2c-1.2 0-2.2-.2-3-.5-1-.3-1.8-.7-2.4-1.2l.6-1.3 1.4.8a7.2 7.2 0 0 0 3.4.7c1.1 0 2-.2 2.6-.6.6-.5.9-1 .9-1.8 0-.6-.2-1.1-.6-1.4-.4-.4-1.1-.6-2.1-.8l-2.1-.5a6 6 0 0 1-3-1.3c-.6-.6-.9-1.4-.9-2.4 0-.8.2-1.6.7-2.2.4-.6 1-1.1 1.8-1.5a7.8 7.8 0 0 1 5.5 0c.8.3 1.5.7 2.1 1.3l-.6 1.3c-.6-.6-1.3-1-2-1.2-.6-.3-1.4-.4-2.3-.4-1 0-2 .2-2.6.7-.6.5-1 1.1-1 2 0 .6.3 1 .7 1.5.4.3 1 .6 2 .8l2 .4c1.4.3 2.4.7 3 1.3a3 3 0 0 1 1 2.3c0 .8-.2 1.5-.6 2-.4.7-1 1.1-1.8 1.5a7 7 0 0 1-2.7.5Zm11.2 0c-1.2 0-2.1-.3-2.7-1-.6-.7-1-1.7-1-3V233h1.7v6.2c0 .9.2 1.6.6 2 .3.4 1 .6 1.7.6.9 0 1.6-.2 2.1-.8.6-.6.8-1.4.8-2.3V233h1.6v10H600v-2.3h.2a3.6 3.6 0 0 1-3.5 2.5Zm8-.2v-7.6a18.7 18.7 0 0 0-.2-2.4h1.6l.2 2.4h-.3c.1-.6.4-1 .7-1.5.3-.3.7-.6 1.2-.8.4-.2 1-.3 1.4-.3h.5l.5.1v1.4h-.6l-.6-.1c-.6 0-1 .1-1.5.4a2.8 2.8 0 0 0-1.3 2.5v5.9h-1.7Zm10.8 0-4.3-10h1.8l3.6 8.8h-.6l3.7-8.8h1.7l-4.3 10h-1.6Zm12 .2a5 5 0 0 1-3.7-1.4c-1-.9-1.4-2.2-1.4-3.8 0-1 .2-2 .6-2.7.4-.8 1-1.4 1.7-1.9.7-.4 1.5-.6 2.5-.6.9 0 1.7.2 2.3.6.6.3 1.1.9 1.4 1.6.4.7.5 1.6.5 2.5v.6h-7.7v-1h6.7l-.4.3c0-1-.2-2-.7-2.5-.5-.6-1.2-1-2.1-1-1 0-1.8.4-2.4 1.1-.5.7-.8 1.7-.8 2.9v.1c0 1.3.3 2.2 1 2.9.6.6 1.4 1 2.5 1a4.7 4.7 0 0 0 3.2-1.2l.6 1.1c-.4.5-1 .8-1.7 1-.6.3-1.4.4-2.1.4Zm6.4-.2v-10h1.6v10h-1.6Zm-.2-12.3v-1.8h2v1.8h-2Zm5 12.3v-14.7h1.6V243h-1.6Zm4.8 0v-14.7h1.6V243h-1.6Zm8.5.2c-.9 0-1.6-.2-2.3-.6-.7-.5-1.2-1-1.6-1.8-.3-.8-.5-1.7-.5-2.8 0-1.1.2-2 .5-2.8.4-.8 1-1.4 1.6-1.8.7-.4 1.4-.6 2.3-.6 1 0 1.7.2 2.4.7.6.4 1 1 1.3 1.8h-.2l.2-2.3h1.5a356.5 356.5 0 0 0-.1 2.3v7.7h-1.6v-2.4h.2c-.2.8-.7 1.4-1.3 1.9a4 4 0 0 1-2.4.7Zm.4-1.3c1 0 1.7-.4 2.2-1 .6-.7.9-1.7.9-3 0-1.2-.3-2.2-.9-2.8-.5-.7-1.3-1-2.2-1-1 0-1.7.3-2.3 1-.6.6-.9 1.6-.9 2.9 0 1.2.3 2.2.9 2.9.6.6 1.3 1 2.3 1Zm7.8 1.1v-8.9l-.1-1.1h1.5l.2 2.2h-.2c.3-.8.7-1.4 1.4-1.8.6-.4 1.4-.6 2.2-.6 1.2 0 2.1.3 2.7 1 .6.6 1 1.6 1 3v6.2H667v-6.2c0-1-.2-1.6-.6-2-.3-.5-1-.7-1.7-.7a3 3 0 0 0-2.2.9c-.6.5-.9 1.3-.9 2.3v5.7h-1.6Zm16 .2a5 5 0 0 1-2.6-.7c-.8-.4-1.3-1-1.7-1.8-.4-.8-.6-1.7-.6-2.8 0-1 .2-2 .6-2.8.4-.7 1-1.3 1.7-1.7.7-.4 1.6-.6 2.5-.6.7 0 1.3 0 2 .3a4 4 0 0 1 1.4 1l-.5 1.1a4 4 0 0 0-2.8-1.1 3 3 0 0 0-2.4 1c-.5.6-.8 1.6-.8 2.8 0 1.3.3 2.2.8 3a3 3 0 0 0 2.4 1 3.9 3.9 0 0 0 2.8-1.2l.5 1.2a4 4 0 0 1-1.5 1c-.6.2-1.2.3-1.9.3Zm9.9 0a5 5 0 0 1-3.7-1.4c-1-.9-1.4-2.2-1.4-3.8 0-1 .2-2 .6-2.7.4-.8 1-1.4 1.7-1.9.7-.4 1.5-.6 2.5-.6.9 0 1.7.2 2.3.6.6.3 1.1.9 1.4 1.6.4.7.5 1.6.5 2.5v.6h-7.7v-1h6.7l-.4.3c0-1-.2-2-.7-2.5-.5-.6-1.2-1-2.1-1-1 0-1.8.4-2.4 1.1-.5.7-.8 1.7-.8 2.9v.1c0 1.3.3 2.2 1 2.9.5.6 1.4 1 2.5 1a4.7 4.7 0 0 0 3.2-1.2l.6 1.1c-.4.5-1 .8-1.7 1-.6.3-1.4.4-2.1.4Z"/><path fill="#4C4034" d="M32.3 375v-14.1h5.8a5 5 0 0 1 3.4 1c.8.8 1.2 1.7 1.2 3 0 .8-.2 1.5-.5 2.1-.4.6-.9 1-1.6 1.3-.6.3-1.4.5-2.3.5l.4-.3h.4c.5 0 1 .2 1.4.4.5.3.8.7 1 1.4l2 4.7h-1.7l-2-4.7c-.2-.6-.5-1-1-1.1-.4-.2-1-.3-1.7-.3H34v6.1h-1.7Zm1.7-7.4h3.8c1.1 0 1.9-.2 2.4-.7.6-.4.9-1.1.9-2 0-.8-.3-1.5-.9-2-.5-.4-1.3-.6-2.4-.6H34v5.3Zm12 7.4v-10h1.6v10H46Zm-.2-12.3v-1.8h2v1.8h-2Zm8.3 12.5c-.8 0-1.6-.1-2.3-.3l-1.7-1 .6-1.1c.5.4 1 .7 1.6.8a6 6 0 0 0 1.8.3c.8 0 1.4-.1 1.8-.4.4-.3.6-.7.6-1.2 0-.4-.1-.7-.4-1-.2-.2-.7-.3-1.2-.5l-1.9-.4c-.9-.1-1.5-.5-2-.9-.3-.5-.6-1-.6-1.7 0-.6.2-1.1.5-1.6a3 3 0 0 1 1.3-1 5.8 5.8 0 0 1 4 0 4 4 0 0 1 1.7.9l-.6 1-1.4-.8c-.5-.2-1-.3-1.6-.3-.7 0-1.3.2-1.7.5-.4.3-.6.7-.6 1.2 0 .4.1.7.3 1l1.2.5 1.9.4c.9.2 1.5.5 2 1 .4.4.7 1 .7 1.6 0 .6-.2 1.1-.5 1.6-.4.4-.8.8-1.4 1-.6.3-1.3.4-2.1.4Zm6.6-.2v-14.7h1.6v9.1L67 365h2l-5.5 5.2v-.8l6 5.6h-2l-5.2-4.7v4.7h-1.6Zm15.7 0v-14.1h1.4l5.7 12.8h-.6l5.7-12.8H90V375h-1.5v-12h.6l-5.4 12h-1l-5.4-12h.6v12h-1.5Zm20.8.2c-1 0-1.7-.2-2.4-.6-.6-.5-1.2-1-1.5-1.8-.4-.8-.6-1.7-.6-2.8 0-1.1.2-2 .6-2.8.3-.8.9-1.4 1.5-1.8.7-.4 1.5-.6 2.4-.6.9 0 1.6.2 2.3.7.7.4 1.1 1 1.3 1.8h-.2l.2-2.3h1.6a356.5 356.5 0 0 0-.2 2.3v7.7h-1.6v-2.4h.2c-.2.8-.7 1.4-1.3 1.9a4 4 0 0 1-2.3.7Zm.3-1.3c1 0 1.7-.4 2.3-1 .5-.7.8-1.7.8-3 0-1.2-.3-2.2-.8-2.8-.6-.7-1.4-1-2.3-1-1 0-1.7.3-2.3 1-.6.6-.8 1.6-.8 2.9 0 1.2.2 2.2.8 2.9.6.6 1.3 1 2.3 1Zm7.8 1.1v-8.9l-.1-1.1h1.5l.2 2.2h-.2c.3-.8.8-1.4 1.4-1.8.6-.4 1.4-.6 2.3-.6 1.1 0 2 .3 2.6 1 .6.6 1 1.6 1 3v6.2h-1.7v-6.2c0-1-.2-1.6-.5-2-.4-.5-1-.7-1.8-.7a3 3 0 0 0-2.2.9c-.6.5-.8 1.3-.8 2.3v5.7h-1.7Zm15.6.2c-1 0-1.7-.2-2.4-.6-.6-.5-1.2-1-1.5-1.8-.4-.8-.6-1.7-.6-2.8 0-1.1.2-2 .6-2.8.3-.8.9-1.4 1.5-1.8.7-.4 1.5-.6 2.4-.6.9 0 1.7.2 2.3.7.7.4 1.1 1 1.3 1.8h-.2l.2-2.3h1.6a356.5 356.5 0 0 0-.2 2.3v7.7h-1.6v-2.4h.2c-.2.8-.6 1.4-1.3 1.9a4 4 0 0 1-2.3.7Zm.3-1.3c1 0 1.7-.4 2.3-1 .5-.7.8-1.7.8-3 0-1.2-.3-2.2-.8-2.8-.6-.7-1.3-1-2.3-1-1 0-1.7.3-2.3 1-.5.6-.8 1.6-.8 2.9 0 1.2.3 2.2.8 2.9.6.6 1.3 1 2.3 1Zm12.3 5.6c-.9 0-1.7-.1-2.4-.4-.8-.2-1.4-.5-2-1l.5-1.2a6.8 6.8 0 0 0 2.4 1.1l1.4.2c1 0 1.7-.3 2.2-.8.5-.5.8-1.3.8-2.2v-3h.2c-.2.8-.7 1.4-1.3 1.9a4 4 0 0 1-2.4.7c-.9 0-1.7-.2-2.4-.6-.6-.4-1.2-1-1.5-1.8-.4-.7-.6-1.6-.6-2.6s.2-2 .6-2.7a4 4 0 0 1 1.5-1.7c.7-.4 1.5-.6 2.4-.6 1 0 1.7.2 2.4.7.6.4 1 1 1.3 1.8l-.2-.2.2-2.1h1.5a17.3 17.3 0 0 0-.1 2.3v7.6c0 1.5-.4 2.7-1.2 3.4-.7.8-1.9 1.2-3.3 1.2Zm-.3-6c1 0 1.8-.4 2.3-1a4 4 0 0 0 .9-2.7 4 4 0 0 0-.9-2.8c-.5-.6-1.3-1-2.3-1a3 3 0 0 0-2.3 1 4 4 0 0 0-.8 2.8c0 1.1.3 2 .8 2.7a3 3 0 0 0 2.3 1Zm12.4 1.7a5 5 0 0 1-3.8-1.4c-.9-.9-1.3-2.2-1.3-3.8 0-1 .2-2 .6-2.7.4-.8 1-1.4 1.7-1.9.7-.4 1.5-.6 2.4-.6 1 0 1.7.2 2.4.6.6.3 1 .9 1.4 1.6.3.7.5 1.6.5 2.5v.6h-7.8v-1h6.7l-.3.3c0-1-.2-2-.7-2.5-.5-.6-1.2-1-2.2-1-1 0-1.7.4-2.3 1.1-.6.7-.8 1.7-.8 2.9v.1c0 1.3.3 2.2.9 2.9.6.6 1.5 1 2.6 1a4.7 4.7 0 0 0 3.2-1.2l.6 1.1c-.5.5-1 .8-1.7 1-.7.3-1.4.4-2.1.4Zm6.4-.2v-8.9l-.2-1.1h1.6l.2 2.2h-.3c.3-.8.7-1.4 1.3-1.8.6-.4 1.3-.6 2.1-.6.9 0 1.5.2 2 .6.6.4 1 1 1.1 1.8h-.3c.3-.7.7-1.3 1.4-1.8.6-.4 1.4-.6 2.2-.6 1.1 0 2 .3 2.5 1 .6.6.9 1.6.9 3v6.2h-1.7v-6.2c0-1-.1-1.6-.5-2-.3-.5-.8-.7-1.6-.7s-1.5.3-2 .9c-.4.6-.7 1.3-.7 2.3v5.7h-1.6v-6.2c0-1-.2-1.6-.5-2-.3-.5-.9-.7-1.6-.7-.8 0-1.5.3-2 .9-.5.6-.7 1.3-.7 2.3v5.7H152Zm22 .2a5 5 0 0 1-3.7-1.4c-1-.9-1.4-2.2-1.4-3.8 0-1 .2-2 .6-2.7.4-.8 1-1.4 1.7-1.9.7-.4 1.5-.6 2.5-.6.9 0 1.7.2 2.3.6.6.3 1.1.9 1.4 1.6.4.7.5 1.6.5 2.5v.6h-7.7v-1h6.7l-.4.3c0-1-.2-2-.7-2.5-.5-.6-1.2-1-2.1-1-1 0-1.8.4-2.4 1.1-.5.7-.8 1.7-.8 2.9v.1c0 1.3.3 2.2 1 2.9.5.6 1.4 1 2.5 1a4.7 4.7 0 0 0 3.2-1.2l.6 1.1c-.4.5-1 .8-1.7 1-.7.3-1.4.4-2.1.4Zm6.4-.2v-8.9l-.1-1.1h1.5l.2 2.2h-.2c.3-.8.7-1.4 1.4-1.8.6-.4 1.4-.6 2.2-.6 1.2 0 2.1.3 2.7 1 .6.6 1 1.6 1 3v6.2h-1.7v-6.2c0-1-.2-1.6-.6-2-.3-.5-1-.7-1.7-.7a3 3 0 0 0-2.2.9c-.6.5-.9 1.3-.9 2.3v5.7h-1.6Zm15.3.2c-1 0-1.8-.3-2.3-.9-.5-.5-.8-1.4-.8-2.5v-5.6h-2V365h2v-2.8l1.7-.4v3.2h2.8v1.2h-2.8v5.4c0 .8.1 1.4.4 1.7.3.3.7.5 1.2.5h.7l.5-.2v1.3l-.7.2h-.7Z"/><path fill="#374840" d="M455.2 99.2a8 8 0 0 1-3.8-.9c-1-.6-1.9-1.4-2.4-2.5-.5-1-.8-2.3-.8-3.8s.3-2.8.9-3.9c.5-1 1.3-2 2.3-2.5 1-.6 2.3-.9 3.7-.9 1 0 2 .2 2.7.5a6 6 0 0 1 2 1.3l-.6 1.3-1.3-1-1.2-.4-1.6-.2c-1.6 0-3 .5-3.8 1.5-.9 1-1.3 2.4-1.3 4.3 0 1.8.4 3.3 1.3 4.2.8 1 2.2 1.5 4 1.5a9.7 9.7 0 0 0 3.7-.7l-.4.9v-5H455v-1.3h5v6.6a12.3 12.3 0 0 1-4.8 1Zm12.8 0c-1.1 0-2.2-.2-3-.5-1-.3-1.7-.7-2.4-1.2l.6-1.3 1.4.8a7.2 7.2 0 0 0 3.4.7c1.2 0 2-.2 2.6-.6.6-.5.9-1 .9-1.8 0-.6-.2-1.1-.6-1.4-.4-.4-1.1-.6-2.1-.8l-2.1-.5a6 6 0 0 1-3-1.3 3.8 3.8 0 0 1-.3-4.6c.5-.6 1.1-1.1 2-1.5a7.8 7.8 0 0 1 5.5 0c.7.3 1.4.7 2 1.3l-.6 1.3c-.6-.6-1.2-1-2-1.2-.6-.3-1.4-.4-2.3-.4-1 0-2 .2-2.6.7-.6.5-.9 1.1-.9 2 0 .6.2 1 .6 1.5.4.3 1 .6 2 .8l2.1.4c1.4.3 2.4.7 3 1.3a3 3 0 0 1 1 2.3c0 .8-.2 1.5-.7 2-.4.7-1 1.1-1.8 1.5a7 7 0 0 1-2.7.5Zm7.9-.2V84.9h5.7c1.5 0 2.6.4 3.4 1 .8.8 1.2 1.8 1.2 3 0 1.3-.4 2.3-1.2 3-.8.7-2 1-3.4 1h-4V99h-1.8Zm1.6-7.4h4c1 0 1.7-.2 2.3-.7.5-.5.8-1.1.8-2 0-.8-.3-1.5-.9-2-.5-.4-1.2-.6-2.3-.6h-3.9v5.3ZM489 99V84.9h5.7a5 5 0 0 1 3.5 1c.8.8 1.2 1.7 1.2 3 0 .8-.2 1.5-.6 2.1-.3.6-.8 1-1.5 1.3-.7.3-1.4.5-2.3.5l.4-.3h.4c.5 0 1 .2 1.4.4.5.3.8.7 1 1.4l2 4.7h-1.8l-1.9-4.7c-.2-.6-.5-1-1-1.1-.5-.2-1-.3-1.7-.3h-3.2V99H489Zm1.6-7.4h3.9c1 0 1.9-.2 2.4-.7.6-.4.9-1.1.9-2 0-.8-.3-1.5-.9-2-.5-.4-1.3-.6-2.4-.6h-3.9v5.3Zm23.6 7.6a7 7 0 0 1-3.6-.9c-1-.6-1.8-1.4-2.3-2.5-.5-1-.8-2.4-.8-3.9s.3-2.7.8-3.8c.5-1 1.3-2 2.3-2.5a7 7 0 0 1 3.6-.9c1 0 1.9.2 2.7.5a6 6 0 0 1 2 1.3l-.6 1.3c-.6-.5-1.3-1-1.9-1.2-.6-.2-1.4-.4-2.2-.4-1.6 0-2.8.5-3.7 1.5-.8 1-1.2 2.4-1.2 4.2 0 1.9.4 3.3 1.2 4.3.9 1 2 1.5 3.7 1.5.8 0 1.6-.1 2.2-.4a7 7 0 0 0 1.9-1.3l.6 1.4a6.3 6.3 0 0 1-4.7 1.8Zm7.3-.2V84.3h1.7v6.9h-.3c.3-.8.7-1.4 1.4-1.8.7-.4 1.4-.6 2.3-.6 1.2 0 2 .3 2.7 1 .6.6.9 1.6.9 2.9V99h-1.7v-6.2c0-1-.2-1.6-.5-2-.4-.5-1-.7-1.8-.7a3 3 0 0 0-2.2.9c-.6.5-.8 1.3-.8 2.2V99h-1.7Zm16.2.2a5 5 0 0 1-3.7-1.4c-1-.9-1.4-2.2-1.4-3.8 0-1 .2-2 .6-2.7.4-.8 1-1.4 1.7-1.9.7-.4 1.6-.6 2.5-.6 1 0 1.7.2 2.3.6.6.3 1.1.9 1.4 1.6.4.7.5 1.6.5 2.5v.6h-7.7v-1h6.7l-.4.3c0-1-.2-2-.7-2.5-.4-.6-1.2-1-2.1-1-1 0-1.8.4-2.3 1.1-.6.7-.9 1.7-.9 2.9v.1c0 1.3.3 2.2 1 2.9.6.6 1.4 1 2.5 1a4.7 4.7 0 0 0 3.2-1.2l.6 1.1c-.4.5-1 .8-1.7 1-.6.3-1.3.4-2 .4Zm10.6 0a5 5 0 0 1-2.5-.7c-.8-.4-1.3-1-1.7-1.8-.4-.8-.6-1.7-.6-2.8 0-1 .2-2 .6-2.8.4-.7 1-1.3 1.7-1.7.7-.4 1.6-.6 2.5-.6.7 0 1.3 0 2 .3a4 4 0 0 1 1.4 1l-.6 1.1a4 4 0 0 0-2.7-1.1 3 3 0 0 0-2.4 1c-.5.6-.8 1.6-.8 2.8 0 1.3.3 2.2.8 3a3 3 0 0 0 2.4 1 3.9 3.9 0 0 0 2.7-1.2l.6 1.2a4 4 0 0 1-1.5 1c-.6.2-1.2.3-1.9.3Zm5.7-.2V84.3h1.7v9.1l4.7-4.4h2l-5.5 5.2v-.8l6 5.6h-2l-5.2-4.7V99h-1.7Zm10.3 0V84.3h1.6V99h-1.6Zm4.8 0V89h1.6v10H569Zm-.2-12.3v-1.8h2v1.8h-2Zm8.3 12.5c-.8 0-1.6-.1-2.2-.3-.7-.3-1.3-.6-1.8-1l.6-1.1c.5.4 1 .7 1.6.8a6 6 0 0 0 1.8.3c.8 0 1.4-.1 1.8-.4.4-.3.6-.7.6-1.2 0-.4-.1-.7-.4-1-.2-.2-.6-.3-1.2-.5l-1.9-.4c-.8-.1-1.5-.5-1.9-.9-.4-.5-.6-1-.6-1.7 0-.6.1-1.1.4-1.6a3 3 0 0 1 1.4-1 5.8 5.8 0 0 1 4 0 4 4 0 0 1 1.6.9l-.6 1c-.4-.3-.8-.6-1.4-.8l-1.5-.3c-.8 0-1.4.2-1.8.5-.4.3-.6.7-.6 1.2 0 .4.1.7.4 1 .2.2.6.4 1.1.5l1.9.4c.9.2 1.6.5 2 1 .4.4.7 1 .7 1.6 0 .6-.2 1.1-.5 1.6-.4.4-.8.8-1.4 1-.6.3-1.3.4-2.1.4Zm10 0c-1 0-1.7-.3-2.2-.9-.5-.5-.8-1.4-.8-2.5v-5.6h-2V89h2v-2.8l1.6-.4V89h2.9v1.2h-2.9v5.4c0 .8.2 1.4.4 1.7.3.3.7.5 1.3.5h.6l.6-.2v1.3l-.7.2h-.8Z"/><path fill="#32444A" d="M263.2 75.2a8 8 0 0 1-3.9-.9c-1-.6-1.8-1.4-2.3-2.5-.5-1-.8-2.3-.8-3.8s.3-2.8.8-3.9c.6-1 1.4-2 2.4-2.5 1-.6 2.3-.9 3.7-.9 1 0 2 .2 2.7.5a6 6 0 0 1 2 1.3l-.6 1.3-1.3-1-1.2-.4-1.6-.2c-1.6 0-3 .5-3.8 1.5-.9 1-1.3 2.4-1.3 4.3 0 1.8.4 3.3 1.2 4.2 1 1 2.2 1.5 4 1.5a9.7 9.7 0 0 0 3.7-.7l-.3.9v-5H263v-1.3h5v6.6a12.3 12.3 0 0 1-4.8 1Zm12.4 0a5 5 0 0 1-3.7-1.4c-.9-.9-1.3-2.2-1.3-3.8 0-1 .2-2 .6-2.7.4-.8 1-1.4 1.6-1.9.8-.4 1.6-.6 2.5-.6 1 0 1.7.2 2.3.6.7.3 1.2.9 1.5 1.6.3.7.5 1.6.5 2.5v.6h-7.8v-1h6.7l-.3.3c0-1-.3-2-.7-2.5-.5-.6-1.2-1-2.2-1-1 0-1.8.4-2.3 1.1-.6.7-.9 1.7-.9 2.9v.1c0 1.3.4 2.2 1 2.9.6.6 1.5 1 2.6 1a4.7 4.7 0 0 0 3.2-1.2l.5 1.1c-.4.5-1 .8-1.6 1-.7.3-1.4.4-2.2.4Zm6.5-.2v-8.9l-.2-1.1h1.6l.2 2.2h-.3c.3-.8.8-1.4 1.4-1.8.7-.4 1.4-.6 2.3-.6 1.2 0 2 .3 2.7 1 .6.6.9 1.6.9 3V75H289v-6.2c0-1-.2-1.6-.6-2-.4-.5-1-.7-1.8-.7a3 3 0 0 0-2.2.9c-.5.5-.8 1.3-.8 2.3V75H282Zm16.1.2a5 5 0 0 1-3.7-1.4c-.9-.9-1.3-2.2-1.3-3.8 0-1 .2-2 .6-2.7.4-.8 1-1.4 1.6-1.9.8-.4 1.6-.6 2.5-.6 1 0 1.7.2 2.3.6.7.3 1.2.9 1.5 1.6.3.7.5 1.6.5 2.5v.6h-7.8v-1h6.7l-.3.3c0-1-.3-2-.7-2.5-.5-.6-1.2-1-2.2-1-1 0-1.8.4-2.3 1.1-.6.7-.9 1.7-.9 2.9v.1c0 1.3.4 2.2 1 2.9.6.6 1.5 1 2.6 1a4.7 4.7 0 0 0 3.2-1.2l.5 1.1c-.4.5-1 .8-1.6 1-.7.3-1.4.4-2.2.4Zm6.4-.2v-7.6a18.7 18.7 0 0 0 0-2.4h1.5l.2 2.4h-.3c.1-.6.4-1 .7-1.5.3-.3.7-.6 1.2-.8.4-.2.9-.3 1.4-.3h.5l.4.1v1.4h-.5l-.6-.1c-.6 0-1 .1-1.5.4a2.8 2.8 0 0 0-1.3 2.5V75h-1.7Zm11 .2c-.8 0-1.6-.2-2.3-.6-.7-.5-1.2-1-1.5-1.8-.4-.8-.6-1.7-.6-2.8 0-1.1.2-2 .6-2.8.3-.8.8-1.4 1.5-1.8.7-.4 1.5-.6 2.4-.6.9 0 1.6.2 2.3.7.7.4 1.1 1 1.3 1.8h-.2l.2-2.3h1.6a348.5 348.5 0 0 0-.2 2.3V75H319v-2.4h.2c-.2.8-.7 1.4-1.3 1.9a4 4 0 0 1-2.3.7Zm.4-1.3c1 0 1.7-.4 2.3-1 .5-.7.8-1.7.8-3 0-1.2-.3-2.2-.8-2.8-.6-.7-1.4-1-2.3-1-1 0-1.7.3-2.3 1-.6.6-.8 1.6-.8 2.9 0 1.2.2 2.2.8 2.9.6.6 1.3 1 2.3 1Zm7.8 1.1V60.3h1.6V75h-1.6ZM223.2 92c0-1.6.3-2.8.8-3.9.5-1 1.2-2 2.2-2.5 1-.6 2.1-.9 3.5-.9 1.3 0 2.5.3 3.4.9 1 .6 1.8 1.4 2.3 2.5.5 1 .8 2.3.8 3.8s-.3 2.8-.8 3.9a6 6 0 0 1-2.3 2.5c-1 .6-2 .9-3.4.9s-2.5-.3-3.5-.9a6 6 0 0 1-2.2-2.5c-.5-1.1-.8-2.4-.8-3.9Zm1.8 0c0 1.8.4 3.2 1.2 4.2.8 1 2 1.5 3.5 1.5s2.7-.5 3.5-1.5c.8-1 1.2-2.4 1.2-4.3 0-1.8-.4-3.2-1.2-4.2-.8-1-2-1.5-3.5-1.5-1.6 0-2.7.5-3.5 1.5-.8 1-1.2 2.4-1.2 4.2Zm19 7.2a4 4 0 0 1-2.3-.7c-.6-.5-1-1.1-1.3-1.9h.2V99H239V84.3h1.6v7h-.2c.2-.8.7-1.4 1.3-1.8a4 4 0 0 1 2.4-.7c.9 0 1.6.2 2.3.6a4 4 0 0 1 1.5 1.8c.4.8.6 1.7.6 2.8 0 1-.2 2-.6 2.8-.3.7-.9 1.3-1.5 1.8-.7.4-1.5.6-2.3.6Zm-.3-1.3c1 0 1.7-.4 2.3-1 .6-.7.8-1.6.8-3 0-1.2-.2-2.2-.8-2.8-.6-.7-1.3-1-2.3-1-1 0-1.7.3-2.3 1-.5.6-.8 1.6-.8 2.9 0 1.2.3 2.2.8 2.9.6.6 1.4 1 2.3 1ZM251 99V84.3h1.6V99H251Zm4.8 0V89h1.6v10h-1.6Zm-.2-12.3v-1.8h2v1.8h-2Zm9.4 16.8c-1 0-1.7-.1-2.4-.4-.8-.2-1.4-.5-2-1l.5-1.2a6.8 6.8 0 0 0 2.4 1.1l1.4.2c1 0 1.7-.3 2.2-.8.5-.5.8-1.3.8-2.2v-3h.2c-.2.8-.7 1.4-1.3 1.9a4 4 0 0 1-2.4.7c-1 0-1.7-.2-2.4-.6-.7-.4-1.2-1-1.5-1.8-.4-.7-.6-1.6-.6-2.6s.2-2 .6-2.7a4 4 0 0 1 1.5-1.7c.7-.4 1.5-.6 2.4-.6 1 0 1.7.2 2.4.7.6.4 1 1 1.3 1.8l-.2-.2.2-2.1h1.5a17.2 17.2 0 0 0-.1 2.3v7.6c0 1.5-.4 2.7-1.2 3.4-.7.8-1.9 1.2-3.3 1.2Zm-.3-6c1 0 1.8-.4 2.3-1a4 4 0 0 0 .9-2.7 4 4 0 0 0-.9-2.8c-.5-.6-1.3-1-2.3-1a3 3 0 0 0-2.3 1 4 4 0 0 0-.8 2.8c0 1.1.2 2 .8 2.7a3 3 0 0 0 2.3 1Zm11.7 1.7c-.9 0-1.7-.2-2.3-.6-.7-.5-1.2-1-1.6-1.8-.4-.8-.5-1.7-.5-2.8 0-1.1.1-2 .5-2.8.4-.8.9-1.4 1.6-1.8.6-.4 1.4-.6 2.3-.6 1 0 1.7.2 2.3.7.7.4 1.2 1 1.4 1.8h-.3l.2-2.3h1.6a348.5 348.5 0 0 0-.2 2.3V99h-1.6v-2.4h.2c-.2.8-.6 1.4-1.3 1.9a4 4 0 0 1-2.3.7Zm.3-1.3c1 0 1.7-.4 2.3-1 .6-.7.8-1.7.8-3 0-1.2-.2-2.2-.8-2.8-.6-.7-1.3-1-2.3-1-1 0-1.7.3-2.3 1-.5.6-.8 1.6-.8 2.9 0 1.2.3 2.2.8 2.9.6.6 1.4 1 2.3 1Zm11.4 1.3c-1 0-1.7-.3-2.2-.9-.5-.5-.8-1.4-.8-2.5v-5.6h-2V89h2v-2.8l1.6-.4V89h2.9v1.2h-2.9v5.4c0 .8.1 1.4.4 1.7.3.3.7.5 1.3.5h.6l.6-.2v1.3l-.7.2h-.8Zm3.5-.2V89h1.6v10h-1.6Zm-.2-12.3v-1.8h2v1.8h-2Zm9 12.5a5 5 0 0 1-2.5-.6c-.7-.5-1.2-1-1.6-1.8-.4-.8-.6-1.8-.6-2.8 0-1.1.2-2 .6-2.8.4-.8 1-1.4 1.6-1.8.8-.4 1.6-.6 2.6-.6s1.8.2 2.5.6c.7.4 1.2 1 1.6 1.8.4.8.6 1.7.6 2.8 0 1-.2 2-.6 2.8-.4.7-1 1.3-1.6 1.8a5 5 0 0 1-2.5.6Zm0-1.3c1 0 1.8-.4 2.3-1 .6-.7.9-1.7.9-3 0-1.2-.3-2.2-.9-2.8-.5-.7-1.3-1-2.2-1-1 0-1.7.3-2.3 1-.6.6-.8 1.6-.8 2.9 0 1.2.2 2.2.8 2.9.6.6 1.3 1 2.3 1Zm7.4 1.1v-7.7l-.1-1.2-.1-1.1h1.6l.2 2.2h-.3c.3-.8.8-1.4 1.4-1.8.7-.4 1.4-.6 2.3-.6 1.2 0 2 .3 2.7 1 .6.6.9 1.6.9 3V99h-1.6v-6.2c0-1-.2-1.6-.6-2-.4-.5-1-.7-1.8-.7a3 3 0 0 0-2.2.9c-.5.5-.8 1.3-.8 2.3V99h-1.6Zm15 .2c-.8 0-1.5-.1-2.2-.3-.7-.3-1.3-.6-1.7-1l.5-1.1a5.2 5.2 0 0 0 3.4 1.1c.8 0 1.4-.1 1.8-.4.5-.3.7-.7.7-1.2 0-.4-.2-.7-.4-1l-1.3-.5-1.9-.4c-.8-.1-1.5-.5-1.9-.9-.4-.5-.6-1-.6-1.7 0-.6.1-1.1.4-1.6a3 3 0 0 1 1.4-1 5.8 5.8 0 0 1 4 0 4 4 0 0 1 1.6.9l-.6 1-1.3-.8c-.5-.2-1-.3-1.6-.3-.8 0-1.4.2-1.8.5-.4.3-.6.7-.6 1.2 0 .4.1.7.4 1 .2.2.6.4 1.1.5l1.9.4c.9.2 1.6.5 2 1 .5.4.7 1 .7 1.6 0 .6-.2 1.1-.5 1.6-.3.4-.8.8-1.4 1-.6.3-1.3.4-2 .4Z"/><path fill="#4F3D58" d="M458.5 510.8a11.6 11.6 0 0 1-3.3-3.8l1.5-.5c.3.7.8 1.3 1.3 1.9l1.7 1.4-1.2 1ZM448.2 500c0-1.5.3-2.7.8-3.8.5-1 1.3-2 2.2-2.5 1-.6 2.2-.9 3.5-.9 1.3 0 2.5.3 3.5.9 1 .6 1.7 1.4 2.2 2.5.5 1 .8 2.3.8 3.8s-.3 2.8-.8 3.9a6 6 0 0 1-2.3 2.5c-1 .6-2 .9-3.4.9-1.3 0-2.5-.3-3.5-.9a6 6 0 0 1-2.2-2.5c-.5-1.1-.8-2.4-.8-3.9Zm1.8 0c0 1.9.4 3.3 1.2 4.3.8 1 2 1.5 3.5 1.5s2.7-.5 3.5-1.5c.8-1 1.3-2.4 1.3-4.3 0-1.8-.5-3.2-1.3-4.2s-2-1.5-3.5-1.5-2.7.5-3.5 1.5c-.8 1-1.2 2.4-1.2 4.2Zm17.6 7.3c-1.2 0-2.1-.3-2.7-1-.6-.7-1-1.7-1-3V497h1.7v6.2c0 .9.2 1.6.5 2 .4.4 1 .6 1.8.6.9 0 1.6-.2 2.1-.8.5-.6.8-1.4.8-2.3V497h1.6v10h-1.6v-2.3h.3a3.6 3.6 0 0 1-3.5 2.5Zm11.8 0c-.9 0-1.7-.2-2.3-.6-.7-.5-1.2-1-1.6-1.8-.4-.8-.5-1.7-.5-2.8 0-1.1.1-2 .5-2.8.4-.8.9-1.4 1.6-1.8.6-.4 1.4-.6 2.3-.6.9 0 1.7.2 2.3.7.7.4 1.1 1 1.4 1.8h-.3l.2-2.3h1.6a356.5 356.5 0 0 0-.2 2.3v7.7h-1.6v-2.4h.2c-.2.8-.6 1.4-1.3 1.9a4 4 0 0 1-2.3.7Zm.3-1.3c1 0 1.7-.4 2.3-1 .6-.7.8-1.7.8-3 0-1.2-.2-2.2-.8-2.8-.6-.7-1.3-1-2.3-1-1 0-1.7.3-2.3 1-.5.6-.8 1.6-.8 2.9 0 1.2.3 2.2.8 2.9.6.6 1.4 1 2.3 1Zm7.9 1.1v-14.7h1.6V507h-1.6Zm4.7 0v-10h1.6v10h-1.6Zm-.2-12.3v-1.8h2v1.8h-2Zm8.6 12.5c-1 0-1.8-.3-2.3-.9-.5-.5-.8-1.4-.8-2.5v-5.6h-2V497h2v-2.8l1.6-.4v3.2h3v1.2h-3v5.4c0 .8.2 1.4.4 1.7.3.3.7.5 1.3.5h.7l.5-.2v1.3l-.7.2h-.7Zm3.1 4.3-.4-1.3c.7-.1 1.2-.3 1.6-.5a3 3 0 0 0 1-.8c.3-.3.6-.7.8-1.2l.5-1.2v.7l-4.4-10.2h1.7l3.6 8.8h-.5l3.6-8.8h1.7l-4.6 10.8c-.3.7-.6 1.2-1 1.6a4.6 4.6 0 0 1-2.2 1.8l-1.4.3Zm16.4-4.5v-14.1h1.5l5.6 12.8h-.5l5.6-12.8h1.5V507h-1.6v-12h.6l-5.3 12h-1.1l-5.4-12h.6v12h-1.5Zm20.8.2c-.9 0-1.6-.2-2.3-.6-.7-.5-1.2-1-1.6-1.8-.3-.8-.5-1.7-.5-2.8 0-1.1.2-2 .5-2.8.4-.8 1-1.4 1.6-1.8.7-.4 1.4-.6 2.3-.6 1 0 1.7.2 2.4.7.6.4 1 1 1.3 1.8h-.2l.2-2.3h1.5a356.5 356.5 0 0 0-.1 2.3v7.7h-1.6v-2.4h.2c-.2.8-.7 1.4-1.3 1.9a4 4 0 0 1-2.4.7Zm.4-1.3c1 0 1.7-.4 2.2-1 .6-.7.9-1.7.9-3 0-1.2-.3-2.2-.9-2.8-.5-.7-1.3-1-2.2-1-1 0-1.8.3-2.3 1-.6.6-.9 1.6-.9 2.9 0 1.2.3 2.2.9 2.9.5.6 1.3 1 2.3 1Zm7.8 1.1v-8.9l-.2-1.1h1.6l.2 2.2h-.2c.3-.8.7-1.4 1.4-1.8.6-.4 1.4-.6 2.2-.6 1.2 0 2.1.3 2.7 1 .6.6 1 1.6 1 3v6.2h-1.7v-6.2c0-1-.2-1.6-.6-2-.3-.5-1-.7-1.7-.7a3 3 0 0 0-2.3.9c-.5.5-.8 1.3-.8 2.3v5.7h-1.6Zm15.5.2c-.9 0-1.6-.2-2.3-.6-.7-.5-1.2-1-1.6-1.8-.3-.8-.5-1.7-.5-2.8 0-1.1.2-2 .5-2.8.4-.8 1-1.4 1.6-1.8.7-.4 1.5-.6 2.3-.6 1 0 1.7.2 2.4.7.6.4 1 1 1.3 1.8h-.2l.2-2.3h1.5a356.5 356.5 0 0 0-.1 2.3v7.7h-1.6v-2.4h.2c-.2.8-.7 1.4-1.3 1.9a4 4 0 0 1-2.4.7Zm.4-1.3c1 0 1.7-.4 2.2-1 .6-.7.9-1.7.9-3 0-1.2-.3-2.2-.9-2.8-.5-.7-1.3-1-2.2-1-1 0-1.7.3-2.3 1-.6.6-.9 1.6-.9 2.9 0 1.2.3 2.2.9 2.9.6.6 1.3 1 2.3 1Zm12.2 5.6c-.8 0-1.6-.1-2.4-.4-.7-.2-1.4-.5-2-1l.5-1.2a6.8 6.8 0 0 0 2.5 1.1l1.4.2c1 0 1.7-.3 2.2-.8.5-.5.8-1.3.8-2.2v-3h.2c-.3.8-.7 1.4-1.4 1.9a4 4 0 0 1-2.3.7c-1 0-1.7-.2-2.4-.6-.7-.4-1.2-1-1.6-1.8-.3-.7-.5-1.6-.5-2.6s.2-2 .5-2.7a4 4 0 0 1 1.6-1.7c.7-.4 1.5-.6 2.4-.6.9 0 1.7.2 2.3.7.7.4 1.1 1 1.4 1.8l-.2-.2.1-2.1h1.6a17.3 17.3 0 0 0-.1 2.3v7.6c0 1.5-.4 2.7-1.2 3.4-.8.8-1.9 1.2-3.4 1.2Zm-.2-6c1 0 1.7-.4 2.3-1a4 4 0 0 0 .8-2.7 4 4 0 0 0-.8-2.8c-.6-.6-1.3-1-2.3-1a3 3 0 0 0-2.3 1 4 4 0 0 0-.9 2.8c0 1.1.3 2 .9 2.7a3 3 0 0 0 2.3 1Zm12.3 1.7a5 5 0 0 1-3.7-1.4c-.9-.9-1.4-2.2-1.4-3.8 0-1 .2-2 .6-2.7.4-.8 1-1.4 1.7-1.9.7-.4 1.6-.6 2.5-.6 1 0 1.7.2 2.3.6.7.3 1.1.9 1.5 1.6.3.7.5 1.6.5 2.5v.6h-7.8v-1h6.7l-.3.3c0-1-.3-2-.8-2.5-.4-.6-1.1-1-2-1-1 0-1.9.4-2.4 1.1-.6.7-.9 1.7-.9 2.9v.1c0 1.3.3 2.2 1 2.9.6.6 1.4 1 2.6 1a4.7 4.7 0 0 0 3.2-1.2l.5 1.1c-.4.5-1 .8-1.7 1-.6.3-1.3.4-2 .4Zm6.4-.2v-8.9l-.1-1.1h1.5l.2 2.2h-.2c.3-.8.7-1.4 1.3-1.8.6-.4 1.3-.6 2-.6 1 0 1.6.2 2.1.6.6.4 1 1 1.1 1.8h-.3c.3-.7.7-1.3 1.3-1.8.7-.4 1.4-.6 2.3-.6 1 0 2 .3 2.5 1 .5.6.8 1.6.8 3v6.2h-1.6v-6.2c0-1-.2-1.6-.5-2-.3-.5-.9-.7-1.6-.7-.8 0-1.5.3-2 .9-.5.6-.7 1.3-.7 2.3v5.7h-1.6v-6.2c0-1-.2-1.6-.5-2-.4-.5-.9-.7-1.6-.7-.9 0-1.5.3-2 .9-.5.6-.7 1.3-.7 2.3v5.7h-1.7Zm22 .2a5 5 0 0 1-3.7-1.4c-.9-.9-1.3-2.2-1.3-3.8 0-1 .2-2 .6-2.7.4-.8 1-1.4 1.7-1.9.7-.4 1.5-.6 2.4-.6 1 0 1.7.2 2.4.6.6.3 1 .9 1.4 1.6.3.7.5 1.6.5 2.5v.6H614v-1h6.7l-.3.3c0-1-.2-2-.7-2.5-.5-.6-1.2-1-2.2-1-1 0-1.7.4-2.3 1.1-.6.7-.8 1.7-.8 2.9v.1c0 1.3.3 2.2.9 2.9.6.6 1.5 1 2.6 1a4.7 4.7 0 0 0 3.2-1.2l.6 1.1c-.5.5-1 .8-1.7 1-.7.3-1.4.4-2.1.4Zm6.5-.2v-8.9l-.2-1.1h1.6l.2 2.2h-.3c.3-.8.8-1.4 1.4-1.8.7-.4 1.5-.6 2.3-.6 1.2 0 2 .3 2.7 1 .6.6.9 1.6.9 3v6.2h-1.6v-6.2c0-1-.2-1.6-.6-2-.4-.5-1-.7-1.8-.7a3 3 0 0 0-2.2.9c-.5.5-.8 1.3-.8 2.3v5.7h-1.6Zm15.3.2c-1 0-1.8-.3-2.3-.9-.5-.5-.8-1.4-.8-2.5v-5.6h-2V497h2v-2.8l1.6-.4v3.2h3v1.2h-3v5.4c0 .8.2 1.4.4 1.7.3.3.7.5 1.3.5h.7l.5-.2v1.3l-.7.2h-.7Z"/><path fill="#573E4D" d="M169 507.2a7 7 0 0 1-3.7-.9c-1-.6-1.7-1.4-2.3-2.5-.5-1-.7-2.4-.7-3.9s.2-2.7.7-3.8c.6-1 1.3-2 2.3-2.5a7 7 0 0 1 3.6-.9c1 0 2 .2 2.7.5a6 6 0 0 1 2 1.3l-.6 1.3c-.6-.5-1.2-1-1.9-1.2-.6-.2-1.3-.4-2.2-.4-1.6 0-2.8.5-3.6 1.5-.9 1-1.3 2.4-1.3 4.2 0 1.9.4 3.3 1.3 4.3.8 1 2 1.5 3.6 1.5.9 0 1.6-.1 2.2-.4a7 7 0 0 0 2-1.3l.6 1.4a6.3 6.3 0 0 1-4.8 1.8Zm7.3-.2v-14.7h1.6V507h-1.6Zm4.7 0v-10h1.7v10H181Zm-.2-12.3v-1.8h2v1.8h-2Zm5 12.3v-8.9l-.2-1.1h1.6l.2 2.2h-.2c.3-.8.7-1.4 1.4-1.8.6-.4 1.4-.6 2.2-.6 1.2 0 2.1.3 2.7 1 .6.6 1 1.6 1 3v6.2h-1.7v-6.2c0-1-.2-1.6-.6-2-.4-.5-1-.7-1.7-.7a3 3 0 0 0-2.3.9c-.5.5-.8 1.3-.8 2.3v5.7h-1.6Zm11.7 0v-10h1.6v10h-1.6Zm-.2-12.3v-1.8h2v1.8h-2Zm9.2 12.5a5 5 0 0 1-2.6-.7c-.7-.4-1.3-1-1.7-1.8-.3-.8-.5-1.7-.5-2.8 0-1 .2-2 .6-2.8.4-.7 1-1.3 1.6-1.7.8-.4 1.6-.6 2.6-.6.6 0 1.3 0 1.9.3a4 4 0 0 1 1.5 1l-.6 1.1a4 4 0 0 0-2.7-1.1 3 3 0 0 0-2.4 1c-.6.6-.9 1.6-.9 2.8 0 1.3.3 2.2.9 3a3 3 0 0 0 2.4 1 3.9 3.9 0 0 0 2.7-1.2l.6 1.2a4 4 0 0 1-1.6 1l-1.8.3Zm9.4 0c-.9 0-1.6-.2-2.3-.6-.7-.5-1.2-1-1.6-1.8-.3-.8-.5-1.7-.5-2.8 0-1.1.2-2 .5-2.8.4-.8 1-1.4 1.6-1.8.7-.4 1.4-.6 2.3-.6 1 0 1.7.2 2.4.7.6.4 1 1 1.3 1.8h-.2l.2-2.3h1.5a356.5 356.5 0 0 0-.1 2.3v7.7h-1.6v-2.4h.2c-.2.8-.7 1.4-1.3 1.9a4 4 0 0 1-2.4.7Zm.4-1.3c1 0 1.7-.4 2.2-1 .6-.7.9-1.7.9-3 0-1.2-.3-2.2-.9-2.8-.5-.7-1.3-1-2.2-1-1 0-1.8.3-2.3 1-.6.6-.9 1.6-.9 2.9 0 1.2.3 2.2.9 2.9.5.6 1.3 1 2.3 1Zm7.8 1.1v-14.7h1.6V507h-1.6Zm10.2 0v-14.1h9v1.4h-7.4v4.9h7v1.3h-7v5.1h7.4v1.4h-9Zm14.3 0-4.3-10h1.8l3.6 8.8h-.6l3.7-8.8h1.7l-4.3 10h-1.6Zm11.3.2c-.9 0-1.7-.2-2.3-.6-.7-.5-1.2-1-1.6-1.8-.3-.8-.5-1.7-.5-2.8 0-1.1.2-2 .5-2.8.4-.8 1-1.4 1.6-1.8.6-.4 1.4-.6 2.3-.6 1 0 1.7.2 2.4.7.6.4 1 1 1.3 1.8h-.3l.3-2.3h1.5a356.5 356.5 0 0 0-.1 2.3v7.7h-1.7v-2.4h.3c-.3.8-.7 1.4-1.4 1.9a4 4 0 0 1-2.3.7Zm.3-1.3c1 0 1.8-.4 2.3-1 .6-.7.9-1.7.9-3 0-1.2-.3-2.2-.9-2.8-.5-.7-1.3-1-2.3-1-1 0-1.7.3-2.2 1-.6.6-.9 1.6-.9 2.9 0 1.2.3 2.2.9 2.9.5.6 1.3 1 2.2 1Zm7.9 1.1v-14.7h1.6V507h-1.6Zm8.3.2c-1.2 0-2-.3-2.7-1-.6-.7-1-1.7-1-3V497h1.7v6.2c0 .9.2 1.6.6 2 .3.4 1 .6 1.7.6.9 0 1.6-.2 2.1-.8.6-.6.8-1.4.8-2.3V497h1.7v10h-1.6v-2.3h.2a3.6 3.6 0 0 1-3.5 2.5Zm11.8 0c-.9 0-1.7-.2-2.3-.6-.7-.5-1.2-1-1.6-1.8-.3-.8-.5-1.7-.5-2.8 0-1.1.2-2 .5-2.8.4-.8 1-1.4 1.6-1.8.6-.4 1.4-.6 2.3-.6 1 0 1.7.2 2.4.7.6.4 1 1 1.3 1.8h-.3l.3-2.3h1.5a356.5 356.5 0 0 0-.1 2.3v7.7h-1.7v-2.4h.3c-.3.8-.7 1.4-1.4 1.9a4 4 0 0 1-2.3.7Zm.3-1.3c1 0 1.8-.4 2.3-1 .6-.7.9-1.7.9-3 0-1.2-.3-2.2-.9-2.8-.5-.7-1.3-1-2.3-1-1 0-1.7.3-2.2 1-.6.6-.9 1.6-.9 2.9 0 1.2.3 2.2.9 2.9.5.6 1.3 1 2.2 1Zm11.4 1.3c-1 0-1.7-.3-2.2-.9-.5-.5-.8-1.4-.8-2.5v-5.6h-2V497h2v-2.8l1.6-.4v3.2h3v1.2h-3v5.4c0 .8.2 1.4.4 1.7.3.3.7.5 1.3.5h.6l.6-.2v1.3l-.7.2h-.8Zm3.5-.2v-10h1.6v10h-1.6Zm-.2-12.3v-1.8h2v1.8h-2Zm9 12.5a5 5 0 0 1-2.5-.6c-.7-.5-1.2-1-1.6-1.8-.4-.8-.6-1.8-.6-2.8 0-1.1.2-2 .6-2.8.4-.8 1-1.4 1.6-1.8.8-.4 1.6-.6 2.6-.6s1.8.2 2.5.6c.7.4 1.3 1 1.6 1.8.4.8.6 1.7.6 2.8 0 1-.2 2-.6 2.8-.3.7-.9 1.3-1.6 1.8-.7.4-1.6.6-2.5.6Zm0-1.3c1 0 1.8-.4 2.3-1 .6-.7.9-1.7.9-3 0-1.2-.3-2.2-.9-2.8-.5-.7-1.3-1-2.2-1-1 0-1.7.3-2.3 1-.6.6-.8 1.6-.8 2.9 0 1.2.2 2.2.8 2.9.6.6 1.3 1 2.3 1Zm7.4 1.1v-8.9l-.2-1.1h1.6l.2 2.2h-.3c.3-.8.8-1.4 1.4-1.8.7-.4 1.4-.6 2.3-.6 1.2 0 2 .3 2.7 1 .6.6.9 1.6.9 3v6.2h-1.6v-6.2c0-1-.2-1.6-.6-2-.4-.5-1-.7-1.8-.7a3 3 0 0 0-2.2.9c-.5.5-.8 1.3-.8 2.3v5.7h-1.6Z"/><path fill="#543A3A" d="M580.8 375v-14.1h5.7c1.5 0 2.6.4 3.4 1 .8.8 1.2 1.8 1.2 3 0 1.3-.4 2.3-1.2 3-.8.7-2 1-3.4 1h-4v6.1h-1.7Zm1.6-7.4h4c1 0 1.7-.2 2.3-.7.5-.5.8-1.1.8-2 0-.8-.3-1.5-.8-2-.6-.4-1.3-.6-2.4-.6h-3.9v5.3Zm11.4 7.4v-14.1h1.4l5.7 12.8h-.6l5.7-12.8h1.4V375H606v-12h.6l-5.3 12H600l-5.4-12h.6v12h-1.5Zm23.3.2a7 7 0 0 1-3.6-.9c-1-.6-1.8-1.4-2.3-2.5-.5-1-.8-2.4-.8-3.9s.3-2.7.8-3.8c.5-1 1.3-2 2.3-2.5a7 7 0 0 1 3.6-.9c1 0 1.9.2 2.7.5a6 6 0 0 1 2 1.3l-.6 1.3c-.6-.5-1.3-1-1.9-1.2-.6-.2-1.3-.4-2.2-.4-1.6 0-2.8.5-3.7 1.5-.8 1-1.2 2.4-1.2 4.2 0 1.9.4 3.3 1.2 4.3.9 1 2.1 1.5 3.7 1.5.9 0 1.6-.1 2.2-.4a7 7 0 0 0 2-1.3l.5 1.4a6.3 6.3 0 0 1-4.7 1.8Zm7.5-.2v-14.1h8.8v1.4h-7.1v4.9h6.7v1.4h-6.7v6.4h-1.7Z"/><path stroke="#fff" stroke-linecap="round" stroke-linejoin="round" stroke-width="2" d="M421 353.7a72.4 72.4 0 0 1-36 9.4v77.1h7l6.6 31c6.1-.6 12.2-1.3 18.4-2.5l-1.5-31.5c5-1.1 10-2.4 15-4l14.2 28.2c5.8-2 11.5-4.4 17.1-7l-9.5-30.1a150.3 150.3 0 0 0 13.4-7.7l21 23.5c5.2-3.5 10-7.2 14.8-11.2l-17-26.6c2-1.9 4.1-3.7 6-5.8-18-18.1-36.1-36.4-54.3-54.5a71.1 71.1 0 0 1-15.2 11.6h0ZM385 363c-18.8 0-37-7.4-50.6-21-18.2 18.3-36.6 36.3-54.9 54.5l5.1 5-17.3 26.4c4.7 4 9.6 8 14.6 11.4l21.3-23.4c4.4 2.8 8.8 5.4 13.4 7.7l-9.9 30c5.6 2.7 11.3 5 17.1 7.2l14.5-28c5 1.5 9.9 2.9 14.9 4l-1.8 31.5c6.1 1.2 12.2 2 18.3 2.6l6.8-31c2.8.2 5.5.3 8.4.3V363h.1Z" clip-rule="evenodd"/><path stroke="#fff" stroke-linecap="round" stroke-linejoin="round" stroke-width="2" d="M436 342.2h0v0h0Zm0 0a72.9 72.9 0 0 0 21-51.2l77.1.2c0 2.8 0 5.6-.2 8.4l31 6.7c-.6 6.2-1.5 12.3-2.6 18.3l-31.5-1.7c-1.1 5-2.5 10-4.1 14.9l28 14.5c-2 5.8-4.4 11.5-7 17l-30.1-9.8c-2.3 4.6-5 9-7.8 13.3l23.5 21.4c-3.5 5-7.4 9.9-11.4 14.6l-26.5-17.3-4.9 5c-18.1-18-36.4-36-54.5-54.3Z"/><path stroke="#fff" stroke-linecap="round" stroke-linejoin="round" stroke-width="2" d="M313 291c0 12.2 2.9 24.6 9.3 36h0a71.1 71.1 0 0 0 11.7 15.2c-18 18.2-36.3 36.3-54.5 54.4l-5.8-6-26.6 17c-3.9-4.8-7.6-9.7-11.1-14.8l23.5-21a151.2 151.2 0 0 1-7.7-13.5l-30 9.6c-2.7-5.7-5.1-11.4-7.1-17.2l28.2-14.2c-1.6-5-3-10-4-15l-31.5 1.5c-1.2-6.2-2-12.3-2.4-18.4l31-6.5-.1-7.1h77ZM490.5 185.4l5.8 6.1 26.6-17c3.9 4.7 7.6 9.6 11.1 14.8l-23.5 21a151.2 151.2 0 0 1 7.7 13.5l30-9.6a177 177 0 0 1 7.1 17.1l-28.2 14.3c1.6 5 2.9 10 4 15l31.5-1.5c1.2 6.1 2 12.2 2.4 18.4l-31 6.5.1 7v0h-77c0-12.2-3-24.6-9.4-36h0a71.1 71.1 0 0 0-11.7-15.2c18-18.2 36.3-36.2 54.5-54.4Z" clip-rule="evenodd"/><path stroke="#fff" stroke-linecap="round" stroke-linejoin="round" stroke-width="2" d="M334 240.4a71.5 71.5 0 0 0-21 50.6l-77-.1c0-2.9 0-5.6.2-8.4l-31-6.8c.6-6.1 1.5-12.2 2.6-18.3l31.5 1.8c1.1-5 2.5-10 4-15l-28-14.4c2.1-5.8 4.5-11.5 7.1-17l30 9.8c2.4-4.6 5-9 7.8-13.4L236.8 188c3.5-5 7.3-9.9 11.4-14.6l26.4 17.3 5-5c18.2 18.2 36 36.6 54.4 54.8Zm0 0h0v0h0Z"/><path stroke="#fff" stroke-linecap="round" stroke-linejoin="round" stroke-width="2" d="M435.6 240a71.5 71.5 0 0 0-50.6-21v-77c2.8 0 5.5 0 8.3.2l6.8-31a192 192 0 0 1 18.3 2.6l-1.8 31.5c5 1.1 10 2.5 15 4l14.4-28c5.8 2.1 11.5 4.5 17 7.2l-9.8 30c4.6 2.3 9 5 13.4 7.7l21.3-23.4c5 3.5 9.9 7.4 14.6 11.4l-17.3 26.5 5 4.9-54.6 54.4ZM385 219c-12.2 0-24.6 2.9-36 9.3h0a71.1 71.1 0 0 0-15.2 11.7l-54.3-54.4 6-5.8-17-26.6c4.8-4 9.7-7.7 14.8-11.2l21 23.5a152.1 152.1 0 0 1 13.5-7.7l-9.6-30a177 177 0 0 1 17.2-7.1l14.2 28.2c5-1.6 10-2.9 15-4l-1.5-31.5c6.1-1.2 12.2-2 18.4-2.4l6.5 31 7-.1v77Z" clip-rule="evenodd"/><path stroke="#fff" stroke-linecap="round" stroke-linejoin="round" stroke-width="2" d="m288.3 239.3 1.7 1.9a.8.8 0 0 0 1.1 0l4.6-4.2m-7.4 11.3 1.7 1.9a.8.8 0 0 0 1.1 0l4.6-4.2m4.4 11.3h-7.4c-.8 0-1.4.6-1.4 1.4v7.4m-21-10.4h12m-12 4.6h12m-4.6-9H271a.8.8 0 0 1-.8-.8v-13a.8.8 0 0 1 1.1-.7l6.4 3.2m0 11.3V240m0 11.3h5.3c.4 0 .8-.4.8-.8V243c0-.4-.4-.8-.8-.8h-5.3m0-2.2v-3.8m-7.4 6h3.7m-3.8 3h3.8m8.3-3v-3.7m-4.6 6.8h2.3m-2.3 3h2.3m20.3 8.3c0 .4-.2.8-.5 1l-8.1 8.2c-.3.3-.7.4-1 .4h-23.4c-.9 0-1.6-.6-1.6-1.4v-31.6c0-.8.7-1.4 1.6-1.4h31.4c.9 0 1.6.6 1.6 1.4v23.4ZM472 253.8l5.5-6a4.3 4.3 0 0 1 4.7-1l2 1c1.8.7 3.7.5 5.1-.6l2.9-2.2c1.5-1.2 3.3-2.1 5.2-2.7l4.6-1.3m-22.5 5.6v19.2M487 248v17.7m7.5-22.3v22.3m-22.5-12h30m-13.5-6H502m-30 12h30m-27-25.6h24s3 0 3 3v25.6s0 3-3 3h-24s-3 0-3-3v-25.6s0-3 3-3ZM356.2 204.9l-4.5-2.7a2.6 2.6 0 0 1-1-2.5v-2.8l-1.8-1.7a2 2 0 0 1 2.9-2.9l2.4 2.4m-2.4-10.3 5.6 5a6.9 6.9 0 0 1 1.2 4v3.3c0 1 .4 1.9 1 2.5l.5.5m-28.3-5 2.4-2.4a2 2 0 0 1 2.9 2.9l-1.7 1.7v2.8c.1 1-.3 2-1 2.5l-4.6 2.7m-4-5.2.5-.5c.7-.6 1-1.6 1-2.5v-3.3c0-1.5.5-2.9 1.3-4l5.6-5m17.6 8v-15.1c0-.6-.5-1.1-1.1-1.1H346a3 3 0 0 0-6.1 0h-4.6c-.6 0-1.1.5-1.1 1.1v15m1.1 7.3h15.3m-13.4-18.7h4.8m5.4 0h1.4m-11.6 3.5h4.8m5.4 0h1.4m-11.6 4.4h4.8m5.4 0h1.4M266.1 328.4v-4.8c0-.9.6-1.5 1.5-1.5h4.8m-6.3 14.6v4.8c0 .9.6 1.5 1.5 1.5h4.8m21.5-6.3v4.8c0 .9-.6 1.5-1.5 1.5h-5m-.3-6.3a7.8 7.8 0 0 1-14.9-3.4 8 8 0 0 1 7.9-7.9h.1m10.2 24.5a14.5 14.5 0 0 0-20.7 0m10.5-24.5V341m-8-8h10m10.3-8.9v-2.4m7.2 7.2-6-12c-.6-1-2.1-1-2.7 0l-6 12c-.6 1 .1 2.3 1.3 2.3h12c1.2 0 2-1.2 1.4-2.3ZM470.6 317.3v32h32m-27.2-9.4 5.9 4.8 9.5-11.4 7.6 6.6m-17.1-20h-5m7.5 4.8h-7.5m23.1-8H495v4h-4v4.5h4v4h4.5v-4h4v-4.6h-4v-3.9ZM337 399.8h-3.2v-7.3h-7.3V384h7.3v-7.3h8.6v7.3h7.4v3.1m6 18.9 4 4m-18.7-9.7h3.6l2.1-2.9 2.9 5 2.1-2.8h2.2m-4.3 9a8.6 8.6 0 1 0 0-17.3 8.6 8.6 0 0 0 0 17.2ZM421.3 410.1l1.1-6.9m-4.6 7h10.7m-6-7h-8.1c-2.5 0-4.6-2-4.6-4.5v-18.4c0-2.5 2-4.5 4.6-4.6h25.2c2.5 0 4.6 2.1 4.6 4.6v8.8m-22.4-7-3.2 4.3a1.1 1.1 0 0 1-1.7.2l-1.8-1.8m6.7 6-3.2 4.4a1.1 1.1 0 0 1-1.7.1l-1.8-1.7m13.4-9.8h8.4m-4.3 16.1a2.3 2.3 0 1 0 4.5 0 2.3 2.3 0 0 0-4.5 0Zm4.2-8.8.7 2.2c.2.8 1 1.2 1.8 1l2.2-.5a2 2 0 0 1 2 3.4l-1.6 1.7c-.5.6-.5 1.5 0 2l1.6 1.8a2 2 0 0 1-2 3.4l-2.2-.6c-.8-.1-1.6.3-1.8 1l-.7 2.3a2 2 0 0 1-3.9 0l-.7-2.2c-.2-.8-1-1.2-1.8-1l-2.2.5a2 2 0 0 1-2-3.4l1.6-1.7c.6-.6.6-1.5 0-2.1l-1.6-1.7a2 2 0 0 1 2-3.4l2.3.5c.7.2 1.5-.2 1.7-1l.7-2.2a2 2 0 0 1 3.9 0Z"/><g clip-path="url(#b)"><path fill="#fff" d="M424.6 197.9a1 1 0 0 1-.9-1c0-.4.4-.9 1-.9h5c.5 0 1 .5 1 1s-.5.9-1 .9h-5Zm-7.7-1a.7.7 0 0 1 .2-.9c.3-.2.7 0 1 .2l.3.6 1.5-1.8c.2-.3.6-.3.9-.1.3.2.3.7 0 1l-2 2.4v.2c-.4.2-.8.1-1-.2l-.9-1.3Zm0-6.4a.7.7 0 0 1 .2-1c.3-.2.7 0 1 .2l.3.6 1.5-1.8c.2-.3.6-.3.9-.1.3.2.3.7 0 1l-2 2.4v.2c-.4.2-.8.1-1-.2l-.9-1.3Zm0-6.5a.7.7 0 0 1 .2-1c.3-.1.7 0 1 .3l.3.5 1.5-1.8c.2-.3.6-.3.9 0 .3.2.3.6 0 .9l-2 2.5v.1c-.4.2-.8.1-1-.2l-.9-1.3Zm7.7.2a1 1 0 0 1-.9-1c0-.5.4-.9 1-.9h9.2c.5 0 1 .4 1 1 0 .4-.5.9-1 .9h-9.3ZM413.1 174h25.8a2 2 0 0 1 1.5.6c.4.4.6 1 .6 1.5V204c0 .5-.2 1-.6 1.5a2 2 0 0 1-1.5.6h-25.8a2.1 2.1 0 0 1-2.1-2.1V176c0-.6.2-1 .6-1.5a2 2 0 0 1 1.5-.6Zm25.8 1.8h-25.8a.3.3 0 0 0-.3.3v28h26.3l.1-.2v-28h-.3ZM424.6 191a1 1 0 0 1-.9-.9c0-.5.4-1 1-1h9.2c.5 0 1 .5 1 1s-.5 1-1 1h-9.3Z"/></g></g><defs><clipPath id="a"><path fill="#fff" d="M0-81h770v685H0z"/></clipPath><clipPath id="b"><path fill="#fff" d="M411 174h30v32h-30z"/></clipPath></defs></svg>