<svg xmlns="http://www.w3.org/2000/svg" width="924" height="537" fill="none"><g clip-path="url(#a)"><path fill="#fff" d="M925-97H-1v638h926V-97Z"/><path fill="#fff" fill-rule="evenodd" d="M0-96h924v636H0V-96Z" clip-rule="evenodd"/><path fill="#E55753" fill-rule="evenodd" d="M659.97 420h-12L612 303.11 623.97 264 612 224.89 647.97 108h12l48 156-48 156Z" clip-rule="evenodd"/><path fill="#DE8431" fill-rule="evenodd" d="M575.97 420h-12L528 303.11 539.97 264 528 224.89 563.97 108h12l48 156-48 156Z" clip-rule="evenodd"/><path fill="#E0CB15" fill-rule="evenodd" d="M491.96 420h-12L444 303.11 455.96 264 444 224.89 479.96 108h12l48 156-48 156Z" clip-rule="evenodd"/><path fill="#92BD39" fill-rule="evenodd" d="M407.96 420h-12L360 303.11 371.96 264 360 224.89 395.96 108h12l48 156-48 156Z" clip-rule="evenodd"/><path fill="#3CC583" fill-rule="evenodd" d="M323.96 420h-12L276 303.11 287.96 264 276 224.89 311.96 108h12l48 156-48 156Z" clip-rule="evenodd"/><path fill="#1EABDA" fill-rule="evenodd" d="M240 420h-12l-48-156 48-156h12l48 156-48 156Z" clip-rule="evenodd"/><path fill="#32444A" d="M169.8 84V69.9h1.66V84h-1.66Zm8.8.18c-.88 0-1.66-.2-2.32-.62a4.3 4.3 0 0 1-1.56-1.8 6.54 6.54 0 0 1-.54-2.78c0-1.1.17-2.03.53-2.8.38-.77.9-1.37 1.56-1.78a4.31 4.31 0 0 1 2.32-.62 4 4 0 0 1 2.34.68 3.28 3.28 0 0 1 1.34 1.84h-.24v-7.02h1.63V84h-1.6v-2.4h.22c-.22.8-.66 1.43-1.32 1.9a4.1 4.1 0 0 1-2.37.68Zm.34-1.32c.94 0 1.7-.33 2.28-.98.57-.67.85-1.63.85-2.9 0-1.28-.28-2.25-.85-2.9-.58-.67-1.34-1-2.28-1-.95 0-1.71.33-2.28 1-.56.65-.84 1.62-.84 2.9 0 1.27.28 2.23.84 2.9.57.65 1.33.98 2.28.98Zm12.3 1.32a5.03 5.03 0 0 1-3.71-1.36 5.2 5.2 0 0 1-1.36-3.82c0-1.05.2-1.97.6-2.74.4-.79.96-1.4 1.68-1.82a4.66 4.66 0 0 1 2.48-.66c.92 0 1.69.2 2.32.58.62.39 1.1.94 1.44 1.66.33.7.5 1.55.5 2.52v.6h-7.78v-1.02h6.72l-.34.26a3.9 3.9 0 0 0-.72-2.5c-.48-.6-1.2-.9-2.14-.9-1 0-1.78.35-2.34 1.06-.56.7-.84 1.63-.84 2.82v.18c0 1.25.3 2.2.92 2.86.62.64 1.5.96 2.62.96a4.72 4.72 0 0 0 3.2-1.16l.56 1.14c-.44.43-1 .76-1.68 1-.67.23-1.38.34-2.12.34Zm6.43-.18v-7.72a33.2 33.2 0 0 0-.16-2.32h1.56l.2 2.2h-.24c.29-.77.76-1.36 1.4-1.76.65-.41 1.4-.62 2.26-.62 1.18 0 2.08.32 2.68.96.6.63.92 1.62.92 2.98V84h-1.62v-6.18c0-.95-.2-1.63-.58-2.06-.38-.44-.96-.66-1.76-.66-.94 0-1.68.29-2.22.86a3.2 3.2 0 0 0-.82 2.3V84h-1.62Zm15.28.18c-1 0-1.74-.28-2.26-.84-.53-.57-.78-1.43-.78-2.58v-5.54h-1.97v-1.26h1.97v-2.74l1.62-.46v3.2h2.88v1.26h-2.88v5.36c0 .8.13 1.37.4 1.72.28.33.69.5 1.23.5.26 0 .49-.02.69-.06.2-.05.38-.11.53-.18v1.36a2.8 2.8 0 0 1-.67.18c-.26.05-.51.08-.77.08Zm3.43-.18V73.96H218V84h-1.62Zm-.2-12.32v-1.82h2v1.82h-2ZM221.66 84v-8.78h-1.96v-1.26h2.4l-.44.42V72.7c0-1.13.29-2 .86-2.6.58-.6 1.4-.9 2.46-.9.27 0 .54.03.82.08.3.04.54.1.72.18v1.34a2.76 2.76 0 0 0-.6-.16 3.05 3.05 0 0 0-.7-.08c-.41 0-.76.09-1.06.26-.3.16-.51.4-.66.74a3.2 3.2 0 0 0-.22 1.28v1.46l-.26-.34h3.06v1.26h-2.8V84h-1.62Zm5.7 4.54-.38-1.34a7.63 7.63 0 0 0 1.56-.52c.43-.19.78-.44 1.06-.76s.52-.72.72-1.2l.52-1.18-.04.68-4.38-10.26h1.76l3.62 8.82h-.52l3.58-8.82h1.7l-4.64 10.88a7.44 7.44 0 0 1-.88 1.6 4.64 4.64 0 0 1-2.24 1.72c-.44.16-.92.29-1.44.38Zm22.9-4.36a7.96 7.96 0 0 1-3.88-.86 5.47 5.47 0 0 1-2.34-2.48 8.87 8.87 0 0 1-.78-3.88c0-1.5.28-2.78.82-3.86a5.86 5.86 0 0 1 2.36-2.5 7.39 7.39 0 0 1 3.72-.88c1.03 0 1.92.15 2.66.46.76.3 1.44.73 2.04 1.32l-.62 1.3c-.44-.39-.86-.7-1.28-.92a5.88 5.88 0 0 0-2.8-.68c-1.66 0-2.94.5-3.84 1.52-.88 1-1.32 2.42-1.32 4.26 0 1.85.43 3.27 1.28 4.26.87.99 2.21 1.48 4.02 1.48.67 0 1.3-.06 1.9-.18.62-.13 1.21-.32 1.78-.56l-.36.9v-4.96h-3.6v-1.3h5.02v6.54c-.57.3-1.3.55-2.18.74-.86.19-1.73.28-2.6.28Zm12.75 0a9.73 9.73 0 0 1-3.04-.44c-.9-.3-1.67-.71-2.34-1.26l.6-1.32a7.23 7.23 0 0 0 4.78 1.56c1.19 0 2.07-.22 2.64-.66a2.1 2.1 0 0 0 .86-1.76c0-.63-.2-1.1-.6-1.44a4.9 4.9 0 0 0-2.1-.8l-2.1-.42a5.93 5.93 0 0 1-2.9-1.3 3.22 3.22 0 0 1-.94-2.44c0-.84.22-1.57.64-2.2a4.31 4.31 0 0 1 1.84-1.46c.79-.35 1.7-.52 2.74-.52 1 0 1.92.15 2.74.46.83.3 1.54.73 2.12 1.3l-.58 1.28a5.84 5.84 0 0 0-1.98-1.2 6.61 6.61 0 0 0-2.32-.38c-1.1 0-1.96.24-2.6.72-.62.47-.94 1.1-.94 1.92a2 2 0 0 0 .6 1.54c.4.36 1.06.63 1.98.82l2.12.42c1.36.28 2.36.7 3 1.26.64.56.96 1.35.96 2.36 0 .77-.21 1.46-.64 2.06-.41.6-1 1.07-1.78 1.4-.77.33-1.7.5-2.76.5Zm7.86-.18V69.9h5.74c1.48 0 2.62.36 3.42 1.08.8.7 1.2 1.7 1.2 2.96 0 1.24-.4 2.23-1.2 2.96-.8.72-1.94 1.08-3.42 1.08h-4.08V84h-1.66Zm1.66-7.4h3.92c1.03 0 1.8-.23 2.32-.7.54-.47.8-1.12.8-1.96 0-.85-.26-1.51-.8-1.98-.52-.47-1.29-.7-2.32-.7h-3.92v5.34ZM283.9 84V69.9h5.76c1.48 0 2.63.35 3.44 1.06.81.7 1.22 1.67 1.22 2.92 0 .83-.19 1.53-.56 2.12a3.49 3.49 0 0 1-1.54 1.32c-.65.3-1.42.46-2.3.46l.36-.26h.4c.55 0 1.03.13 1.46.4.44.27.79.71 1.04 1.34l2 4.74h-1.82l-1.92-4.66c-.23-.6-.57-.99-1.02-1.16a4.49 4.49 0 0 0-1.7-.28h-3.16V84h-1.66Zm1.66-7.4h3.86c1.07 0 1.87-.23 2.42-.68.56-.47.84-1.13.84-2 0-.87-.28-1.53-.84-1.98-.55-.45-1.35-.68-2.42-.68h-3.86v5.34Zm15.15 7.58c-.8 0-1.54-.1-2.24-.32a4.83 4.83 0 0 1-1.72-.94l.56-1.14c.5.39 1.03.67 1.6.86.59.19 1.2.28 1.82.28.8 0 1.4-.14 1.8-.42.42-.3.62-.7.62-1.2 0-.39-.13-.7-.4-.92a2.7 2.7 0 0 0-1.26-.56l-1.86-.38c-.85-.19-1.49-.5-1.92-.94a2.4 2.4 0 0 1-.64-1.72c0-.59.16-1.1.46-1.54a3 3 0 0 1 1.34-1.06 5.79 5.79 0 0 1 4.08-.06c.63.21 1.15.53 1.56.94l-.58 1.12c-.4-.39-.86-.67-1.38-.86-.5-.2-1.03-.3-1.58-.3-.78 0-1.38.16-1.78.48-.38.3-.58.71-.58 1.22 0 .39.12.7.36.96.26.24.64.42 1.16.54l1.86.38c.91.2 1.58.51 2.02.94.46.41.68.97.68 1.68 0 .6-.16 1.13-.5 1.58-.33.44-.8.78-1.4 1.02-.58.24-1.28.36-2.08.36Z"/><path fill="#4C4034" d="M536.8 60V45.9h5.74c1.48 0 2.62.36 3.42 1.08.8.7 1.2 1.7 1.2 2.96 0 1.24-.4 2.23-1.2 2.96-.8.72-1.94 1.08-3.42 1.08h-4.08V60h-1.66Zm1.66-7.4h3.92c1.03 0 1.8-.23 2.32-.7.53-.47.8-1.12.8-1.96a2.5 2.5 0 0 0-.8-1.98c-.52-.47-1.3-.7-2.32-.7h-3.92v5.34ZM549.4 60v-7.62c0-.4-.01-.8-.04-1.22a16.8 16.8 0 0 0-.08-1.2h1.56l.2 2.44-.28.02a3.1 3.1 0 0 1 1.88-2.34c.45-.2.93-.3 1.42-.3.2 0 .37 0 .52.02.16.01.3.05.44.1l-.02 1.44a3.44 3.44 0 0 0-1.12-.16c-.59 0-1.1.14-1.54.42a2.82 2.82 0 0 0-1.3 2.48V60h-1.64Zm11.31.18a4.29 4.29 0 0 1-4.16-2.42 6.23 6.23 0 0 1-.58-2.78c0-1.08.2-2 .58-2.78.39-.77.93-1.37 1.64-1.78a4.85 4.85 0 0 1 2.52-.64c.97 0 1.81.21 2.52.64.72.41 1.27 1 1.66 1.78.4.77.6 1.7.6 2.78 0 1.07-.2 2-.6 2.78a4.26 4.26 0 0 1-1.66 1.8 4.9 4.9 0 0 1-2.52.62Zm0-1.32c.96 0 1.72-.33 2.28-.98.56-.67.84-1.63.84-2.9 0-1.28-.29-2.25-.86-2.9a2.8 2.8 0 0 0-2.26-1c-.95 0-1.7.33-2.26 1-.56.65-.84 1.62-.84 2.9 0 1.27.28 2.23.84 2.9.56.65 1.31.98 2.26.98Zm11.1 1.32c-.88 0-1.65-.2-2.32-.62a4.3 4.3 0 0 1-1.55-1.8 6.54 6.54 0 0 1-.55-2.78c0-1.1.19-2.03.55-2.8.37-.77.89-1.37 1.55-1.78a4.31 4.31 0 0 1 2.33-.62 4 4 0 0 1 2.33.68 3.27 3.27 0 0 1 1.35 1.84h-.25v-7.02h1.63V60h-1.6v-2.4h.22c-.22.8-.66 1.43-1.33 1.9a4.1 4.1 0 0 1-2.35.68Zm.34-1.32c.95 0 1.71-.33 2.29-.98.57-.67.85-1.63.85-2.9 0-1.28-.28-2.25-.85-2.9-.58-.67-1.34-1-2.29-1-.94 0-1.7.33-2.27 1-.56.65-.85 1.62-.85 2.9 0 1.27.29 2.23.85 2.9.57.65 1.33.98 2.27.98Zm11.4 1.32c-1.19 0-2.09-.33-2.7-.98-.6-.65-.9-1.65-.9-3v-6.24h1.62v6.2c0 .92.18 1.6.56 2.04.37.43.95.64 1.74.64.88 0 1.58-.29 2.12-.86.53-.57.8-1.34.8-2.3v-5.72h1.62V60h-1.58v-2.26h.26a3.59 3.59 0 0 1-3.54 2.44Zm12.22 0c-.99 0-1.85-.21-2.58-.64a4.36 4.36 0 0 1-1.68-1.82 6.3 6.3 0 0 1-.58-2.8c0-1.1.2-2.02.6-2.78.4-.77.96-1.36 1.68-1.76.73-.4 1.59-.6 2.56-.6.64 0 1.26.11 1.86.34a4 4 0 0 1 1.52.96l-.58 1.16a3.95 3.95 0 0 0-2.7-1.14c-1.04 0-1.85.33-2.42.98-.57.65-.86 1.6-.86 2.86 0 1.24.29 2.2.86 2.88a3 3 0 0 0 2.42 1.02 3.9 3.9 0 0 0 2.7-1.12l.58 1.14c-.41.43-.93.75-1.54.98-.61.23-1.23.34-1.84.34Zm9.24 0c-.98 0-1.74-.28-2.26-.84-.52-.57-.78-1.43-.78-2.58v-5.54h-1.96v-1.26h1.96v-2.74l1.62-.46v3.2h2.88v1.26h-2.88v5.36c0 .8.14 1.37.4 1.72.28.33.7.5 1.24.5.26 0 .48-.02.68-.06.2-.05.38-.11.54-.18v1.36a2.8 2.8 0 0 1-.68.18c-.25.05-.5.08-.76.08ZM522.66 84V69.9h5.76c1.48 0 2.63.35 3.44 1.06.81.7 1.22 1.67 1.22 2.92 0 .83-.19 1.53-.56 2.12a3.48 3.48 0 0 1-1.54 1.32c-.65.3-1.42.46-2.3.46l.36-.26h.4c.54 0 1.03.13 1.46.4.44.27.78.71 1.04 1.34l2 4.74h-1.82l-1.92-4.66c-.23-.6-.57-.99-1.02-1.16a4.49 4.49 0 0 0-1.7-.28h-3.16V84h-1.66Zm1.66-7.4h3.86c1.07 0 1.87-.23 2.42-.68.56-.47.84-1.13.84-2 0-.87-.28-1.53-.84-1.98-.55-.45-1.36-.68-2.42-.68h-3.86v5.34Zm16.25 7.58a5.03 5.03 0 0 1-3.72-1.36A5.2 5.2 0 0 1 535.5 79c0-1.05.2-1.97.6-2.74.4-.79.96-1.4 1.68-1.82a4.66 4.66 0 0 1 2.48-.66c.92 0 1.7.2 2.32.58.63.39 1.1.94 1.44 1.66.34.7.5 1.55.5 2.52v.6h-7.78v-1.02h6.72l-.34.26a3.9 3.9 0 0 0-.72-2.5c-.48-.6-1.2-.9-2.14-.9-1 0-1.78.35-2.34 1.06-.56.7-.84 1.63-.84 2.82v.18c0 1.25.3 2.2.92 2.86.63.64 1.5.96 2.62.96a4.71 4.71 0 0 0 3.2-1.16l.56 1.14c-.44.43-1 .76-1.68 1-.67.23-1.37.34-2.12.34Zm10.24 0c-.9 0-1.67-.2-2.34-.62a4.3 4.3 0 0 1-1.56-1.8 6.54 6.54 0 0 1-.54-2.78c0-1.1.18-2.03.54-2.8.37-.77.9-1.37 1.56-1.78a4.35 4.35 0 0 1 2.34-.62c.9 0 1.69.23 2.34.7.67.45 1.1 1.07 1.32 1.86h-.24l.22-2.38h1.56l-.12 1.18c-.03.39-.04.77-.04 1.14V84h-1.62v-2.36h.22c-.21.79-.65 1.4-1.32 1.86-.67.45-1.44.68-2.32.68Zm.32-1.32c.96 0 1.72-.33 2.28-.98.56-.67.84-1.63.84-2.9 0-1.28-.28-2.25-.84-2.9-.56-.67-1.32-1-2.28-1-.95 0-1.7.33-2.28 1-.56.65-.84 1.62-.84 2.9 0 1.27.28 2.23.84 2.9.57.65 1.33.98 2.28.98Zm7.85 1.14V69.28h1.62V84h-1.62Zm4.77 0V73.96h1.62V84h-1.62Zm-.2-12.32v-1.82h2v1.82h-2ZM567.93 84v-1.08l6.76-8.12.02.42h-6.78v-1.26h8.28v1.08l-6.84 8.16-.02-.46h7.08V84h-8.5Zm14.68.18c-.9 0-1.68-.2-2.34-.62a4.3 4.3 0 0 1-1.56-1.8 6.54 6.54 0 0 1-.54-2.78c0-1.1.18-2.03.54-2.8.37-.77.89-1.37 1.56-1.78a4.35 4.35 0 0 1 2.34-.62c.9 0 1.68.23 2.34.7.66.45 1.1 1.07 1.32 1.86h-.24l.22-2.38h1.56l-.12 1.18c-.03.39-.04.77-.04 1.14V84h-1.62v-2.36h.22c-.22.79-.66 1.4-1.32 1.86-.67.45-1.44.68-2.32.68Zm.32-1.32c.96 0 1.72-.33 2.28-.98.56-.67.84-1.63.84-2.9 0-1.28-.28-2.25-.84-2.9-.56-.67-1.32-1-2.28-1-.95 0-1.71.33-2.28 1-.56.65-.84 1.62-.84 2.9 0 1.27.28 2.23.84 2.9.57.65 1.33.98 2.28.98Zm11.4 1.32c-.98 0-1.73-.28-2.25-.84-.52-.57-.78-1.43-.78-2.58v-5.54h-1.96v-1.26h1.96v-2.74l1.62-.46v3.2h2.88v1.26h-2.88v5.36c0 .8.13 1.37.4 1.72.28.33.7.5 1.24.5.25 0 .48-.02.68-.06.2-.05.38-.11.54-.18v1.36c-.19.08-.41.14-.68.18-.25.05-.5.08-.76.08Zm3.44-.18V73.96h1.62V84h-1.62Zm-.2-12.32v-1.82h2v1.82h-2Zm9.09 12.5a4.3 4.3 0 0 1-4.16-2.42 6.23 6.23 0 0 1-.58-2.78c0-1.08.19-2 .58-2.78.38-.77.93-1.37 1.64-1.78a4.85 4.85 0 0 1 2.52-.64c.97 0 1.81.21 2.52.64.72.41 1.27 1 1.66 1.78.4.77.6 1.7.6 2.78 0 1.07-.2 2-.6 2.78a4.26 4.26 0 0 1-1.66 1.8 4.9 4.9 0 0 1-2.52.62Zm0-1.32c.96 0 1.72-.33 2.28-.98.56-.67.84-1.63.84-2.9 0-1.28-.29-2.25-.86-2.9a2.8 2.8 0 0 0-2.26-1c-.95 0-1.7.33-2.26 1-.56.65-.84 1.62-.84 2.9 0 1.27.28 2.23.84 2.9.56.65 1.31.98 2.26.98Zm7.3 1.14v-7.72a33.2 33.2 0 0 0-.16-2.32h1.56l.2 2.2h-.24c.3-.77.76-1.36 1.4-1.76.66-.41 1.4-.62 2.26-.62 1.19 0 2.08.32 2.68.96.62.63.92 1.62.92 2.98V84h-1.62v-6.18c0-.95-.2-1.63-.58-2.06-.37-.44-.96-.66-1.76-.66-.93 0-1.67.29-2.22.86a3.2 3.2 0 0 0-.82 2.3V84h-1.62Z"/><path fill="#424736" d="M384.93 60V45.9h5.76c1.48 0 2.63.35 3.44 1.06.81.7 1.22 1.67 1.22 2.92 0 .83-.19 1.53-.56 2.12a3.48 3.48 0 0 1-1.54 1.32c-.65.3-1.42.46-2.3.46l.36-.26h.4c.55 0 1.03.13 1.46.4.44.27.78.71 1.04 1.34l2 4.74h-1.82l-1.92-4.66c-.23-.6-.57-.99-1.02-1.16a4.49 4.49 0 0 0-1.7-.28h-3.16V60h-1.66Zm1.66-7.4h3.86c1.06 0 1.87-.23 2.42-.68.56-.47.84-1.13.84-2 0-.87-.28-1.53-.84-1.98-.55-.45-1.36-.68-2.42-.68h-3.86v5.34Zm12 7.4V49.96h1.63V60h-1.62Zm-.2-12.32v-1.82h2v1.82h-2Zm8.31 12.5c-.8 0-1.55-.1-2.24-.32a4.84 4.84 0 0 1-1.72-.94l.56-1.14a5.19 5.19 0 0 0 3.42 1.14c.8 0 1.4-.14 1.8-.42.42-.3.62-.7.62-1.2 0-.39-.13-.7-.4-.92a2.7 2.7 0 0 0-1.26-.56l-1.86-.38c-.85-.19-1.5-.5-1.92-.94a2.41 2.41 0 0 1-.64-1.72c0-.59.15-1.1.46-1.54a3 3 0 0 1 1.34-1.06 5.78 5.78 0 0 1 4.08-.06c.63.21 1.15.53 1.56.94l-.58 1.12c-.4-.39-.86-.67-1.38-.86-.5-.2-1.03-.3-1.58-.3-.78 0-1.38.16-1.78.48-.38.3-.58.71-.58 1.22 0 .39.12.7.36.96.25.24.64.42 1.16.54l1.86.38c.9.2 1.58.51 2.02.94.45.41.68.97.68 1.68 0 .6-.17 1.13-.5 1.58-.33.44-.8.78-1.4 1.02-.58.24-1.28.36-2.08.36Zm6.58-.18V45.28h1.62v9.14h.04l4.66-4.46h2.04l-5.5 5.24.04-.82 5.98 5.62h-2.1l-5.12-4.72h-.04V60h-1.62ZM344.86 84V69.9h1.44l5.66 12.78h-.58l5.66-12.78h1.44V84h-1.52V72.04h.6L352.22 84h-1.1l-5.36-11.96h.6V84h-1.5Zm20.79.18c-.9 0-1.68-.2-2.34-.62a4.3 4.3 0 0 1-1.56-1.8 6.54 6.54 0 0 1-.54-2.78c0-1.1.18-2.03.54-2.8.37-.77.89-1.37 1.56-1.78a4.35 4.35 0 0 1 2.34-.62c.9 0 1.68.23 2.34.7.66.45 1.1 1.07 1.32 1.86h-.24l.22-2.38h1.56l-.12 1.18c-.03.39-.04.77-.04 1.14V84h-1.62v-2.36h.22c-.22.79-.66 1.4-1.32 1.86-.67.45-1.44.68-2.32.68Zm.32-1.32c.96 0 1.72-.33 2.28-.98.56-.67.84-1.63.84-2.9 0-1.28-.28-2.25-.84-2.9-.56-.67-1.32-1-2.28-1-.95 0-1.71.33-2.28 1-.56.65-.84 1.62-.84 2.9 0 1.27.28 2.23.84 2.9.57.65 1.33.98 2.28.98Zm7.85 1.14v-7.72a31.01 31.01 0 0 0-.16-2.32h1.56l.2 2.2h-.24c.3-.77.76-1.36 1.4-1.76.65-.41 1.4-.62 2.26-.62 1.19 0 2.08.32 2.68.96.61.63.92 1.62.92 2.98V84h-1.62v-6.18c0-.95-.2-1.63-.58-2.06-.38-.44-.96-.66-1.76-.66-.94 0-1.68.29-2.22.86a3.2 3.2 0 0 0-.82 2.3V84h-1.62Zm15.54.18c-.9 0-1.68-.2-2.34-.62a4.3 4.3 0 0 1-1.56-1.8 6.54 6.54 0 0 1-.54-2.78c0-1.1.18-2.03.54-2.8.37-.77.89-1.37 1.56-1.78a4.35 4.35 0 0 1 2.34-.62c.9 0 1.68.23 2.34.7.66.45 1.1 1.07 1.32 1.86h-.24l.22-2.38h1.56l-.12 1.18c-.03.39-.04.77-.04 1.14V84h-1.62v-2.36h.22c-.22.79-.66 1.4-1.32 1.86-.67.45-1.44.68-2.32.68Zm.32-1.32c.96 0 1.72-.33 2.28-.98.56-.67.84-1.63.84-2.9 0-1.28-.28-2.25-.84-2.9-.56-.67-1.32-1-2.28-1-.95 0-1.71.33-2.28 1-.56.65-.84 1.62-.84 2.9 0 1.27.28 2.23.84 2.9.57.65 1.33.98 2.28.98Zm12.27 5.6c-.87 0-1.67-.1-2.4-.32a6.12 6.12 0 0 1-1.98-.98l.48-1.22a5.8 5.8 0 0 0 2.46 1.08c.43.1.88.14 1.36.14.99 0 1.73-.26 2.24-.78.5-.52.76-1.26.76-2.22v-2.94h.2a3.27 3.27 0 0 1-1.32 1.88c-.67.45-1.45.68-2.34.68-.92 0-1.72-.2-2.4-.6-.67-.41-1.19-1-1.56-1.74a6.2 6.2 0 0 1-.54-2.68c0-1.01.18-1.9.54-2.64.37-.75.9-1.32 1.56-1.72a4.53 4.53 0 0 1 2.4-.62 4 4 0 0 1 2.34.68c.67.45 1.1 1.08 1.32 1.88l-.2-.2.18-2.18h1.58a17.24 17.24 0 0 0-.16 2.32v7.66c0 1.5-.39 2.62-1.16 3.38-.76.76-1.88 1.14-3.36 1.14Zm-.24-6a2.9 2.9 0 0 0 2.3-.96c.56-.65.84-1.57.84-2.74a4 4 0 0 0-.84-2.72 2.9 2.9 0 0 0-2.3-.96c-.96 0-1.73.32-2.3.96a3.94 3.94 0 0 0-.86 2.72c0 1.17.29 2.09.86 2.74.57.64 1.34.96 2.3.96Zm12.33 1.72a5.03 5.03 0 0 1-3.72-1.36 5.2 5.2 0 0 1-1.36-3.82c0-1.05.2-1.97.6-2.74.4-.79.96-1.4 1.68-1.82a4.66 4.66 0 0 1 2.48-.66c.92 0 1.7.2 2.32.58.63.39 1.1.94 1.44 1.66.33.7.5 1.55.5 2.52v.6h-7.78v-1.02h6.72l-.34.26a3.9 3.9 0 0 0-.72-2.5c-.48-.6-1.2-.9-2.14-.9-1 0-1.78.35-2.34 1.06-.56.7-.84 1.63-.84 2.82v.18c0 1.25.3 2.2.92 2.86.63.64 1.5.96 2.62.96a4.72 4.72 0 0 0 3.2-1.16l.56 1.14c-.44.43-1 .76-1.68 1-.67.23-1.37.34-2.12.34Zm6.42-.18v-7.72a33.2 33.2 0 0 0-.16-2.32h1.56l.2 2.2h-.24c.27-.76.69-1.35 1.26-1.76.59-.41 1.3-.62 2.12-.62.84 0 1.52.2 2.04.6.53.4.9 1.02 1.08 1.86h-.3c.25-.76.7-1.36 1.34-1.8a3.86 3.86 0 0 1 2.24-.66c1.1 0 1.94.32 2.5.96.56.63.84 1.62.84 2.98V84h-1.62v-6.18c0-.95-.17-1.63-.5-2.06-.33-.44-.87-.66-1.6-.66-.84 0-1.5.3-2 .88a3.5 3.5 0 0 0-.72 2.32V84h-1.62v-6.18c0-.95-.17-1.63-.5-2.06-.33-.44-.87-.66-1.6-.66-.84 0-1.5.3-1.98.88a3.5 3.5 0 0 0-.72 2.32V84h-1.62Zm22.02.18a5.02 5.02 0 0 1-3.72-1.36A5.2 5.2 0 0 1 437.4 79c0-1.05.2-1.97.6-2.74.4-.79.96-1.4 1.68-1.82a4.66 4.66 0 0 1 2.48-.66c.92 0 1.7.2 2.32.58.62.39 1.1.94 1.44 1.66.33.7.5 1.55.5 2.52v.6h-7.78v-1.02h6.72l-.34.26a3.9 3.9 0 0 0-.72-2.5c-.48-.6-1.2-.9-2.14-.9-1 0-1.78.35-2.34 1.06-.56.7-.84 1.63-.84 2.82v.18c0 1.25.3 2.2.92 2.86.62.64 1.5.96 2.62.96a4.72 4.72 0 0 0 3.2-1.16l.56 1.14c-.44.43-1 .76-1.68 1-.67.23-1.38.34-2.12.34Zm6.42-.18v-7.72a31.01 31.01 0 0 0-.16-2.32h1.56l.2 2.2h-.24c.29-.77.76-1.36 1.4-1.76.65-.41 1.4-.62 2.26-.62 1.18 0 2.08.32 2.68.96.61.63.92 1.62.92 2.98V84h-1.62v-6.18c0-.95-.2-1.63-.58-2.06-.38-.44-.96-.66-1.76-.66-.94 0-1.68.29-2.22.86a3.2 3.2 0 0 0-.82 2.3V84h-1.62Zm15.28.18c-1 0-1.75-.28-2.26-.84-.53-.57-.79-1.43-.79-2.58v-5.54h-1.95v-1.26h1.95v-2.74l1.63-.46v3.2h2.88v1.26h-2.88v5.36c0 .8.13 1.37.4 1.72.27.33.69.5 1.23.5.26 0 .49-.02.69-.06.2-.05.38-.11.54-.18v1.36c-.2.08-.42.14-.69.18-.25.05-.5.08-.75.08Z"/><path fill="#484848" d="M48.65 252v-14.1h5.76c1.48 0 2.62.35 3.44 1.06.81.7 1.22 1.67 1.22 2.92 0 .83-.19 1.53-.56 2.12a3.49 3.49 0 0 1-1.54 1.32c-.66.3-1.42.46-2.3.46l.36-.26h.4c.54 0 1.03.13 1.46.4.44.27.78.71 1.04 1.34l2 4.74H58.1l-1.92-4.66c-.23-.6-.57-.99-1.02-1.16a4.48 4.48 0 0 0-1.7-.28H50.3v6.1h-1.66Zm1.66-7.4h3.86c1.06 0 1.87-.23 2.42-.68.56-.47.84-1.13.84-2 0-.87-.28-1.53-.84-1.98-.55-.45-1.36-.68-2.42-.68H50.3v5.34Zm16.25 7.58a5.03 5.03 0 0 1-3.72-1.36 5.2 5.2 0 0 1-1.36-3.82c0-1.05.2-1.97.6-2.74.4-.79.96-1.4 1.68-1.82a4.66 4.66 0 0 1 2.48-.66c.92 0 1.7.2 2.32.58.63.39 1.1.94 1.44 1.66.33.7.5 1.55.5 2.52v.6h-7.78v-1.02h6.72l-.34.26a3.9 3.9 0 0 0-.72-2.5c-.48-.6-1.2-.9-2.14-.9-1 0-1.78.35-2.34 1.06-.56.7-.84 1.63-.84 2.82v.18c0 1.25.3 2.2.92 2.86.63.64 1.5.96 2.62.96.6 0 1.16-.09 1.68-.26a4.73 4.73 0 0 0 1.52-.9l.56 1.14c-.44.43-1 .76-1.68 1-.67.23-1.37.34-2.12.34Zm10.84 4.28c-.87 0-1.67-.1-2.4-.32a6.11 6.11 0 0 1-1.98-.98l.48-1.22a5.82 5.82 0 0 0 2.46 1.08c.43.1.88.14 1.36.14.99 0 1.73-.26 2.24-.78.5-.52.76-1.26.76-2.22v-2.94h.2a3.27 3.27 0 0 1-1.32 1.88c-.67.45-1.45.68-2.34.68-.92 0-1.72-.2-2.4-.6a4.2 4.2 0 0 1-1.56-1.74 6.2 6.2 0 0 1-.54-2.68c0-1.01.18-1.9.54-2.64.37-.75.9-1.32 1.56-1.72a4.53 4.53 0 0 1 2.4-.62 4 4 0 0 1 2.34.68c.67.45 1.1 1.08 1.32 1.88l-.2-.2.18-2.18h1.58a16.89 16.89 0 0 0-.16 2.32v7.66c0 1.5-.39 2.62-1.16 3.38-.76.76-1.88 1.14-3.36 1.14Zm-.24-6a2.9 2.9 0 0 0 2.3-.96c.56-.65.84-1.57.84-2.74a4 4 0 0 0-.84-2.72 2.9 2.9 0 0 0-2.3-.96c-.96 0-1.73.32-2.3.96a3.94 3.94 0 0 0-.86 2.72c0 1.17.29 2.09.86 2.74.57.64 1.34.96 2.3.96Zm11.4 1.72c-1.18 0-2.08-.33-2.7-.98-.6-.65-.9-1.65-.9-3v-6.24h1.63v6.2c0 .92.19 1.6.56 2.04.37.43.95.64 1.74.64.88 0 1.59-.29 2.12-.86.53-.57.8-1.34.8-2.3v-5.72h1.62V252h-1.58v-2.26h.26a3.59 3.59 0 0 1-3.54 2.44Zm8.01-.18v-14.72h1.62V252h-1.62Zm8.59.18c-.9 0-1.68-.2-2.34-.62a4.3 4.3 0 0 1-1.56-1.8 6.54 6.54 0 0 1-.54-2.78c0-1.1.18-2.03.54-2.8.37-.77.9-1.37 1.56-1.78a4.35 4.35 0 0 1 2.34-.62c.9 0 1.68.23 2.34.7a3.2 3.2 0 0 1 1.32 1.86h-.24l.22-2.38h1.56l-.12 1.18c-.03.39-.04.77-.04 1.14V252h-1.62v-2.36h.22a3.2 3.2 0 0 1-1.32 1.86c-.67.45-1.44.68-2.32.68Zm.32-1.32c.96 0 1.72-.33 2.28-.98.56-.67.84-1.63.84-2.9 0-1.28-.28-2.25-.84-2.9-.56-.67-1.32-1-2.28-1-.95 0-1.7.33-2.28 1-.56.65-.84 1.62-.84 2.9 0 1.27.28 2.23.84 2.9.57.65 1.33.98 2.28.98Zm11.41 1.32c-.99 0-1.74-.28-2.26-.84-.52-.57-.78-1.43-.78-2.58v-5.54h-1.96v-1.26h1.96v-2.74l1.62-.46v3.2h2.88v1.26h-2.88v5.36c0 .8.13 1.37.4 1.72.28.33.7.5 1.24.5.25 0 .48-.02.68-.06.2-.05.38-.11.54-.18v1.36c-.19.08-.41.14-.68.18-.25.05-.5.08-.76.08Zm7.45 0c-.95 0-1.8-.2-2.52-.62a4.29 4.29 0 0 1-1.63-1.8 6.23 6.23 0 0 1-.58-2.78c0-1.08.19-2 .58-2.78.38-.77.93-1.37 1.64-1.78a4.85 4.85 0 0 1 2.52-.64c.97 0 1.8.21 2.52.64.71.41 1.27 1 1.66 1.78.4.77.6 1.7.6 2.78 0 1.07-.2 2-.6 2.78a4.26 4.26 0 0 1-1.67 1.8 4.9 4.9 0 0 1-2.52.62Zm0-1.32c.97 0 1.72-.33 2.28-.98.56-.67.84-1.63.84-2.9 0-1.28-.28-2.25-.85-2.9a2.8 2.8 0 0 0-2.27-1c-.94 0-1.7.33-2.26 1-.55.65-.83 1.62-.83 2.9 0 1.27.28 2.23.83 2.9.56.65 1.32.98 2.27.98Zm7.27 1.14v-7.62c0-.4-.01-.8-.04-1.22-.01-.41-.04-.81-.08-1.2h1.56l.2 2.44-.28.02a3.11 3.11 0 0 1 1.88-2.34c.45-.2.93-.3 1.42-.3.2 0 .37 0 .52.02.16.01.3.05.44.1l-.02 1.44a3.4 3.4 0 0 0-1.12-.16c-.59 0-1.1.14-1.54.42a2.83 2.83 0 0 0-1.3 2.48V252h-1.64Zm7.51 4.54-.38-1.34a7.6 7.6 0 0 0 1.56-.52c.43-.19.78-.44 1.06-.76s.52-.72.72-1.2l.52-1.18-.04.68-4.38-10.26h1.76l3.62 8.82h-.52l3.58-8.82h1.7l-4.64 10.88a7.4 7.4 0 0 1-.88 1.6c-.32.44-.67.8-1.04 1.06-.36.28-.76.5-1.2.66-.44.16-.92.29-1.44.38ZM43.98 276.18c-1.42 0-2.62-.3-3.6-.88a5.84 5.84 0 0 1-2.28-2.5 8.82 8.82 0 0 1-.78-3.86c0-1.5.26-2.77.78-3.84a5.84 5.84 0 0 1 2.28-2.5 6.92 6.92 0 0 1 3.6-.88c1 0 1.9.15 2.68.46.78.3 1.47.75 2.06 1.34l-.62 1.32a6.8 6.8 0 0 0-1.9-1.22 5.58 5.58 0 0 0-2.2-.4c-1.62 0-2.84.5-3.68 1.5-.84 1-1.26 2.4-1.26 4.22 0 1.81.42 3.23 1.26 4.24.84 1 2.06 1.5 3.68 1.5.84 0 1.57-.13 2.2-.38a7.02 7.02 0 0 0 1.9-1.26l.62 1.34a6.33 6.33 0 0 1-4.74 1.8Zm10.77 0c-.96 0-1.8-.2-2.52-.62a4.3 4.3 0 0 1-1.64-1.8 6.24 6.24 0 0 1-.58-2.78c0-1.08.19-2 .58-2.78.38-.77.93-1.37 1.64-1.78a4.85 4.85 0 0 1 2.52-.64c.97 0 1.81.21 2.52.64.72.41 1.27 1 1.66 1.78.4.77.6 1.7.6 2.78 0 1.07-.2 2-.6 2.78a4.26 4.26 0 0 1-1.66 1.8 4.9 4.9 0 0 1-2.52.62Zm0-1.32c.96 0 1.72-.33 2.28-.98.56-.67.84-1.63.84-2.9 0-1.28-.29-2.25-.86-2.9a2.8 2.8 0 0 0-2.26-1c-.95 0-1.7.33-2.26 1-.56.65-.84 1.62-.84 2.9 0 1.27.28 2.23.84 2.9.56.65 1.31.98 2.26.98Zm7.3 1.14v-7.72a32.58 32.58 0 0 0-.16-2.32h1.56l.2 2.2h-.24c.27-.76.69-1.35 1.26-1.76.59-.41 1.3-.62 2.12-.62.84 0 1.52.2 2.04.6.54.4.9 1.02 1.08 1.86h-.3c.26-.76.7-1.36 1.34-1.8a3.86 3.86 0 0 1 2.24-.66c1.1 0 1.94.32 2.5.96.56.63.84 1.62.84 2.98V276h-1.62v-6.18c0-.95-.16-1.63-.5-2.06-.33-.44-.86-.66-1.6-.66-.84 0-1.5.3-2 .88a3.5 3.5 0 0 0-.72 2.32v5.7h-1.62v-6.18c0-.95-.16-1.63-.5-2.06-.33-.44-.86-.66-1.6-.66-.84 0-1.5.3-1.98.88a3.5 3.5 0 0 0-.72 2.32v5.7h-1.62Zm17.56 4.32v-12.04a32.58 32.58 0 0 0-.16-2.32h1.56l.22 2.38H81c.21-.79.65-1.4 1.3-1.86.65-.47 1.43-.7 2.34-.7.9 0 1.69.2 2.34.62.67.41 1.19 1 1.56 1.78.37.77.56 1.7.56 2.8 0 1.08-.19 2-.56 2.78a4.17 4.17 0 0 1-1.54 1.8 4.4 4.4 0 0 1-2.36.62c-.9 0-1.67-.23-2.32-.68a3.21 3.21 0 0 1-1.3-1.86h.22v6.68h-1.62Zm4.7-5.46c.96 0 1.72-.33 2.28-.98.57-.67.86-1.63.86-2.9 0-1.28-.29-2.25-.86-2.9-.56-.67-1.32-1-2.28-1-.95 0-1.7.33-2.28 1-.56.65-.84 1.62-.84 2.9 0 1.27.28 2.23.84 2.9.57.65 1.33.98 2.28.98Zm7.3 1.14v-14.72h1.61V276H91.6Zm4.76 0v-10.04h1.62V276h-1.62Zm-.2-12.32v-1.82h2v1.82h-2Zm8.78 12.5c-.89 0-1.67-.2-2.34-.62a4.3 4.3 0 0 1-1.55-1.8 6.54 6.54 0 0 1-.55-2.78c0-1.1.18-2.03.55-2.8.37-.77.89-1.37 1.55-1.78a4.35 4.35 0 0 1 2.34-.62c.91 0 1.7.23 2.34.7a3.2 3.2 0 0 1 1.32 1.86h-.23l.22-2.38h1.56l-.13 1.18-.03 1.14V276h-1.63v-2.36h.22a3.2 3.2 0 0 1-1.31 1.86c-.67.45-1.45.68-2.33.68Zm.33-1.32c.95 0 1.72-.33 2.28-.98.55-.67.83-1.63.83-2.9 0-1.28-.28-2.25-.83-2.9-.56-.67-1.33-1-2.28-1-.95 0-1.71.33-2.28 1-.56.65-.84 1.62-.84 2.9 0 1.27.28 2.23.84 2.9.57.65 1.33.98 2.28.98Zm7.85 1.14v-7.72a33.27 33.27 0 0 0-.16-2.32h1.56l.2 2.2h-.24c.29-.77.76-1.36 1.4-1.76.65-.41 1.4-.62 2.26-.62 1.18 0 2.08.32 2.68.96.61.63.92 1.62.92 2.98V276h-1.62v-6.18c0-.95-.2-1.63-.58-2.06-.38-.44-.96-.66-1.76-.66-.94 0-1.68.29-2.22.86a3.2 3.2 0 0 0-.82 2.3V276h-1.62Zm15.94.18c-1 0-1.85-.21-2.58-.64a4.36 4.36 0 0 1-1.68-1.82 6.28 6.28 0 0 1-.58-2.8c0-1.1.2-2.02.6-2.78.4-.77.96-1.36 1.68-1.76.73-.4 1.58-.6 2.56-.6.64 0 1.26.11 1.86.34.6.23 1.12.55 1.52.96l-.58 1.16a3.95 3.95 0 0 0-2.7-1.14c-1.04 0-1.85.33-2.42.98-.58.65-.86 1.6-.86 2.86 0 1.24.28 2.2.86 2.88a3 3 0 0 0 2.42 1.02 3.9 3.9 0 0 0 2.7-1.12l.58 1.14c-.42.43-.93.75-1.54.98-.62.23-1.23.34-1.84.34Zm9.94 0a5.02 5.02 0 0 1-3.72-1.36 5.2 5.2 0 0 1-1.36-3.82c0-1.05.2-1.97.6-2.74.4-.79.96-1.4 1.68-1.82a4.66 4.66 0 0 1 2.48-.66c.92 0 1.7.2 2.32.58.63.39 1.1.94 1.44 1.66.34.7.5 1.55.5 2.52v.6h-7.78v-1.02h6.72l-.34.26a3.9 3.9 0 0 0-.72-2.5c-.48-.6-1.2-.9-2.14-.9-1 0-1.78.35-2.34 1.06-.56.7-.84 1.63-.84 2.82v.18c0 1.25.3 2.2.92 2.86.63.64 1.5.96 2.62.96.6 0 1.16-.09 1.68-.26a4.73 4.73 0 0 0 1.52-.9l.56 1.14c-.44.43-1 .76-1.68 1-.66.23-1.37.34-2.12.34ZM74.83 300.18a9.73 9.73 0 0 1-3.04-.44c-.9-.3-1.67-.71-2.34-1.26l.6-1.32a7.2 7.2 0 0 0 4.78 1.56c1.19 0 2.07-.22 2.64-.66a2.1 2.1 0 0 0 .86-1.76c0-.63-.2-1.1-.6-1.44a4.9 4.9 0 0 0-2.1-.8l-2.1-.42a5.93 5.93 0 0 1-2.9-1.3 3.22 3.22 0 0 1-.94-2.44c0-.84.21-1.57.64-2.2a4.3 4.3 0 0 1 1.84-1.46c.79-.35 1.7-.52 2.74-.52 1 0 1.91.15 2.74.46.83.3 1.53.73 2.12 1.3l-.58 1.28a5.85 5.85 0 0 0-1.98-1.2 6.62 6.62 0 0 0-2.32-.38c-1.1 0-1.96.24-2.6.72-.63.47-.94 1.1-.94 1.92a2 2 0 0 0 .6 1.54c.4.36 1.06.63 1.98.82l2.12.42c1.36.28 2.36.7 3 1.26.64.56.96 1.35.96 2.36 0 .77-.21 1.46-.64 2.06-.41.6-1 1.07-1.78 1.4-.77.33-1.7.5-2.76.5Zm11.2 0c-.99 0-1.74-.28-2.26-.84-.52-.57-.78-1.43-.78-2.58v-5.54h-1.96v-1.26H83v-2.74l1.62-.46v3.2h2.88v1.26h-2.88v5.36c0 .8.13 1.37.4 1.72.28.33.7.5 1.24.5.25 0 .48-.02.68-.06.2-.05.38-.11.54-.18v1.36c-.19.08-.41.14-.68.18-.25.05-.5.08-.76.08Zm3.4-.18v-7.62c0-.4-.02-.8-.05-1.22a17 17 0 0 0-.08-1.2h1.56l.2 2.44-.28.02a3.1 3.1 0 0 1 1.88-2.34c.46-.2.93-.3 1.42-.3.2 0 .38 0 .52.02.16.01.3.05.44.1l-.02 1.44a3.4 3.4 0 0 0-1.12-.16c-.58 0-1.1.14-1.54.42a2.82 2.82 0 0 0-1.3 2.48V300h-1.64Zm11.02.18c-.9 0-1.67-.2-2.34-.62a4.3 4.3 0 0 1-1.56-1.8 6.54 6.54 0 0 1-.54-2.78c0-1.1.18-2.03.54-2.8.37-.77.9-1.37 1.56-1.78a4.35 4.35 0 0 1 2.34-.62c.9 0 1.69.23 2.34.7a3.2 3.2 0 0 1 1.32 1.86h-.24l.22-2.38h1.56l-.12 1.18c-.03.39-.04.77-.04 1.14V300h-1.62v-2.36h.22a3.2 3.2 0 0 1-1.32 1.86c-.67.45-1.44.68-2.32.68Zm.32-1.32c.96 0 1.72-.33 2.28-.98.56-.67.84-1.63.84-2.9 0-1.28-.28-2.25-.84-2.9-.56-.67-1.32-1-2.28-1-.95 0-1.7.33-2.28 1-.56.65-.84 1.62-.84 2.9 0 1.27.28 2.23.84 2.9.57.65 1.33.98 2.28.98Zm11.41 1.32c-.98 0-1.74-.28-2.26-.84-.52-.57-.78-1.43-.78-2.58v-5.54h-1.96v-1.26h1.96v-2.74l1.62-.46v3.2h2.88v1.26h-2.88v5.36c0 .8.14 1.37.4 1.72.28.33.7.5 1.24.5.26 0 .48-.02.68-.06.2-.05.38-.11.54-.18v1.36c-.18.08-.41.14-.68.18-.25.05-.5.08-.76.08Zm7.8 0a5.02 5.02 0 0 1-3.72-1.36 5.2 5.2 0 0 1-1.36-3.82c0-1.05.2-1.97.6-2.74.4-.79.96-1.4 1.68-1.82a4.66 4.66 0 0 1 2.48-.66c.92 0 1.7.2 2.32.58.62.39 1.1.94 1.44 1.66.33.7.5 1.55.5 2.52v.6h-7.78v-1.02h6.72l-.34.26a3.9 3.9 0 0 0-.72-2.5c-.48-.6-1.2-.9-2.14-.9-1 0-1.78.35-2.34 1.06-.56.7-.84 1.63-.84 2.82v.18c0 1.25.3 2.2.92 2.86.62.64 1.5.96 2.62.96.6 0 1.16-.09 1.68-.26a4.73 4.73 0 0 0 1.52-.9l.56 1.14c-.44.43-1 .76-1.68 1-.67.23-1.38.34-2.12.34Zm10.84 4.28c-.87 0-1.67-.1-2.4-.32a6.12 6.12 0 0 1-1.98-.98l.48-1.22a5.83 5.83 0 0 0 2.46 1.08c.42.1.88.14 1.36.14.98 0 1.73-.26 2.24-.78.5-.52.76-1.26.76-2.22v-2.94h.2a3.27 3.27 0 0 1-1.32 1.88c-.67.45-1.45.68-2.34.68-.92 0-1.72-.2-2.4-.6-.67-.41-1.19-1-1.56-1.74a6.2 6.2 0 0 1-.54-2.68c0-1.01.18-1.9.54-2.64.37-.75.89-1.32 1.56-1.72a4.53 4.53 0 0 1 2.4-.62 4 4 0 0 1 2.34.68c.66.45 1.1 1.08 1.32 1.88l-.2-.2.18-2.18h1.58a17.26 17.26 0 0 0-.16 2.32v7.66c0 1.5-.39 2.62-1.16 3.38-.76.76-1.88 1.14-3.36 1.14Zm-.24-6a2.9 2.9 0 0 0 2.3-.96c.56-.65.84-1.57.84-2.74a4 4 0 0 0-.84-2.72 2.9 2.9 0 0 0-2.3-.96c-.96 0-1.73.32-2.3.96a3.94 3.94 0 0 0-.86 2.72c0 1.17.28 2.09.86 2.74.57.64 1.34.96 2.3.96Zm7.47 6.08-.38-1.34a7.6 7.6 0 0 0 1.56-.52c.42-.19.78-.44 1.06-.76s.52-.72.72-1.2l.52-1.18-.04.68-4.38-10.26h1.76l3.62 8.82h-.52l3.58-8.82h1.7l-4.64 10.88a7.4 7.4 0 0 1-.88 1.6c-.32.44-.67.8-1.04 1.06-.36.28-.76.5-1.2.66-.44.16-.92.29-1.44.38ZM777.9 252.18c-1.41 0-2.61-.3-3.6-.88a5.84 5.84 0 0 1-2.28-2.5 8.82 8.82 0 0 1-.78-3.86c0-1.5.26-2.77.78-3.84a5.84 5.84 0 0 1 2.28-2.5 6.92 6.92 0 0 1 3.6-.88c1 0 1.9.15 2.68.46.79.3 1.47.75 2.06 1.34l-.62 1.32a6.79 6.79 0 0 0-1.9-1.22 5.58 5.58 0 0 0-2.2-.4c-1.61 0-2.84.5-3.68 1.5-.84 1-1.26 2.4-1.26 4.22 0 1.81.42 3.23 1.26 4.24.84 1 2.07 1.5 3.68 1.5.84 0 1.57-.13 2.2-.38a7.01 7.01 0 0 0 1.9-1.26l.62 1.34a6.33 6.33 0 0 1-4.74 1.8Zm10.77 0a4.29 4.29 0 0 1-4.16-2.42 6.23 6.23 0 0 1-.58-2.78c0-1.08.2-2 .58-2.78.38-.77.93-1.37 1.64-1.78a4.85 4.85 0 0 1 2.52-.64c.97 0 1.81.21 2.52.64.72.41 1.27 1 1.66 1.78.4.77.6 1.7.6 2.78 0 1.07-.2 2-.6 2.78a4.26 4.26 0 0 1-1.66 1.8 4.9 4.9 0 0 1-2.52.62Zm0-1.32c.96 0 1.72-.33 2.28-.98.56-.67.84-1.63.84-2.9 0-1.28-.29-2.25-.86-2.9a2.8 2.8 0 0 0-2.26-1c-.95 0-1.7.33-2.26 1-.56.65-.84 1.62-.84 2.9 0 1.27.28 2.23.84 2.9.56.65 1.31.98 2.26.98Zm7.3 1.14v-7.72a33.27 33.27 0 0 0-.16-2.32h1.57l.2 2.2h-.25c.3-.77.76-1.36 1.4-1.76.66-.41 1.41-.62 2.26-.62 1.2 0 2.09.32 2.68.96.62.63.93 1.62.93 2.98V252h-1.63v-6.18c0-.95-.19-1.63-.58-2.06-.37-.44-.96-.66-1.75-.66-.94 0-1.68.29-2.23.86a3.2 3.2 0 0 0-.81 2.3V252h-1.63Zm15.28.18c-.98 0-1.74-.28-2.26-.84-.52-.57-.78-1.43-.78-2.58v-5.54h-1.96v-1.26h1.96v-2.74l1.62-.46v3.2h2.88v1.26h-2.88v5.36c0 .8.14 1.37.4 1.72.28.33.7.5 1.24.5.26 0 .48-.02.68-.06.2-.05.38-.11.54-.18v1.36c-.18.08-.41.14-.68.18-.25.05-.5.08-.76.08Zm3.43-.18v-10.04h1.63V252h-1.63Zm-.2-12.32v-1.82h2v1.82h-2Zm4.97 12.32v-7.72a33.27 33.27 0 0 0-.16-2.32h1.56l.2 2.2h-.24c.3-.77.76-1.36 1.4-1.76.65-.41 1.4-.62 2.26-.62 1.19 0 2.08.32 2.68.96.61.63.92 1.62.92 2.98V252h-1.62v-6.18c0-.95-.2-1.63-.58-2.06-.37-.44-.96-.66-1.76-.66-.93 0-1.67.29-2.22.86a3.2 3.2 0 0 0-.82 2.3V252h-1.62Zm15.26.18c-1.19 0-2.09-.33-2.7-.98-.6-.65-.9-1.65-.9-3v-6.24h1.62v6.2c0 .92.19 1.6.56 2.04.37.43.95.64 1.74.64.88 0 1.59-.29 2.12-.86.53-.57.8-1.34.8-2.3v-5.72h1.62V252h-1.58v-2.26h.26a3.58 3.58 0 0 1-3.54 2.44Zm12.12 0a4.29 4.29 0 0 1-4.16-2.42 6.23 6.23 0 0 1-.58-2.78c0-1.08.2-2 .58-2.78.39-.77.94-1.37 1.64-1.78a4.85 4.85 0 0 1 2.52-.64c.98 0 1.82.21 2.52.64.72.41 1.28 1 1.66 1.78.4.77.6 1.7.6 2.78 0 1.07-.2 2-.6 2.78a4.26 4.26 0 0 1-1.66 1.8 4.9 4.9 0 0 1-2.52.62Zm0-1.32c.96 0 1.72-.33 2.28-.98.56-.67.84-1.63.84-2.9 0-1.28-.28-2.25-.86-2.9a2.8 2.8 0 0 0-2.26-1c-.94 0-1.7.33-2.26 1-.56.65-.84 1.62-.84 2.9 0 1.27.28 2.23.84 2.9.56.65 1.32.98 2.26.98Zm10.85 1.32c-1.19 0-2.09-.33-2.7-.98-.6-.65-.9-1.65-.9-3v-6.24h1.62v6.2c0 .92.18 1.6.56 2.04.37.43.95.64 1.74.64.88 0 1.59-.29 2.12-.86.53-.57.8-1.34.8-2.3v-5.72h1.62V252h-1.58v-2.26h.26a3.59 3.59 0 0 1-3.54 2.44Zm11.34 0c-.8 0-1.54-.1-2.24-.32a4.83 4.83 0 0 1-1.72-.94l.56-1.14c.5.39 1.03.67 1.6.86.59.19 1.2.28 1.82.28.8 0 1.4-.14 1.8-.42.41-.3.62-.7.62-1.2 0-.39-.13-.7-.4-.92a2.72 2.72 0 0 0-1.26-.56l-1.86-.38c-.85-.19-1.5-.5-1.92-.94a2.4 2.4 0 0 1-.64-1.72c0-.59.15-1.1.46-1.54a3 3 0 0 1 1.34-1.06 5.78 5.78 0 0 1 4.08-.06c.63.21 1.15.53 1.56.94l-.58 1.12a4.27 4.27 0 0 0-2.96-1.16c-.78 0-1.38.16-1.78.48-.38.3-.58.71-.58 1.22 0 .39.12.7.36.96.25.24.64.42 1.16.54l1.86.38c.9.2 1.58.51 2.02.94.45.41.68.97.68 1.68 0 .6-.16 1.13-.5 1.58-.33.44-.8.78-1.4 1.02-.59.24-1.28.36-2.08.36ZM771.76 276v-14.1h5.74c1.48 0 2.62.36 3.42 1.08.8.7 1.2 1.7 1.2 2.96 0 1.24-.4 2.23-1.2 2.96-.8.72-1.94 1.08-3.42 1.08h-4.08V276h-1.66Zm1.66-7.4h3.92c1.03 0 1.8-.23 2.32-.7.53-.47.8-1.12.8-1.96a2.5 2.5 0 0 0-.8-1.98c-.52-.47-1.3-.7-2.32-.7h-3.92v5.34Zm10.95 7.4v-7.62c0-.4-.01-.8-.04-1.22-.01-.41-.04-.81-.08-1.2h1.56l.2 2.44-.28.02a3.1 3.1 0 0 1 1.88-2.34c.46-.2.93-.3 1.42-.3.2 0 .38 0 .52.02.16.01.3.05.44.1l-.02 1.44a3.41 3.41 0 0 0-1.12-.16c-.59 0-1.1.14-1.54.42a2.82 2.82 0 0 0-1.3 2.48V276h-1.64Zm11.31.18c-.96 0-1.8-.2-2.52-.62a4.3 4.3 0 0 1-1.64-1.8 6.24 6.24 0 0 1-.58-2.78c0-1.08.2-2 .58-2.78.39-.77.93-1.37 1.64-1.78a4.85 4.85 0 0 1 2.52-.64c.97 0 1.81.21 2.52.64.72.41 1.27 1 1.66 1.78.4.77.6 1.7.6 2.78 0 1.07-.2 2-.6 2.78a4.25 4.25 0 0 1-1.66 1.8 4.9 4.9 0 0 1-2.52.62Zm0-1.32c.96 0 1.72-.33 2.28-.98.56-.67.84-1.63.84-2.9 0-1.28-.29-2.25-.86-2.9a2.8 2.8 0 0 0-2.26-1c-.95 0-1.7.33-2.26 1-.56.65-.84 1.62-.84 2.9 0 1.27.28 2.23.84 2.9.56.65 1.31.98 2.26.98Zm11.1 1.32c-.87 0-1.65-.2-2.31-.62a4.31 4.31 0 0 1-1.56-1.8 6.54 6.54 0 0 1-.54-2.78c0-1.1.18-2.03.54-2.8.37-.77.89-1.37 1.56-1.78a4.32 4.32 0 0 1 2.32-.62 4 4 0 0 1 2.34.68 3.27 3.27 0 0 1 1.34 1.84h-.24v-7.02h1.62V276h-1.6v-2.4h.22c-.22.8-.66 1.43-1.32 1.9a4.1 4.1 0 0 1-2.36.68Zm.35-1.32c.94 0 1.7-.33 2.28-.98.57-.67.86-1.63.86-2.9 0-1.28-.29-2.25-.86-2.9-.58-.67-1.34-1-2.28-1-.95 0-1.71.33-2.28 1-.56.65-.84 1.62-.84 2.9 0 1.27.28 2.23.84 2.9.57.65 1.33.98 2.28.98Zm11.39 1.32c-1.19 0-2.09-.33-2.7-.98-.6-.65-.9-1.65-.9-3v-6.24h1.62v6.2c0 .92.19 1.6.56 2.04.37.43.95.64 1.74.64.88 0 1.58-.29 2.12-.86.53-.57.8-1.34.8-2.3v-5.72h1.62V276h-1.58v-2.26h.26a3.58 3.58 0 0 1-3.54 2.44Zm12.22 0c-.99 0-1.85-.21-2.58-.64a4.36 4.36 0 0 1-1.68-1.82 6.3 6.3 0 0 1-.58-2.8c0-1.1.2-2.02.6-2.78.4-.77.96-1.36 1.68-1.76.74-.4 1.59-.6 2.56-.6.64 0 1.26.11 1.86.34.62.23 1.12.55 1.52.96l-.58 1.16a3.95 3.95 0 0 0-2.7-1.14c-1.04 0-1.85.33-2.42.98-.57.65-.86 1.6-.86 2.86 0 1.24.29 2.2.86 2.88a3 3 0 0 0 2.42 1.02 3.9 3.9 0 0 0 2.7-1.12l.58 1.14c-.41.43-.92.75-1.54.98-.61.23-1.23.34-1.84.34Zm9.24 0c-.98 0-1.74-.28-2.26-.84-.52-.57-.78-1.43-.78-2.58v-5.54h-1.96v-1.26h1.96v-2.74l1.62-.46v3.2h2.88v1.26h-2.88v5.36c0 .8.14 1.37.4 1.72.28.33.7.5 1.24.5.26 0 .48-.02.68-.06.2-.05.38-.11.54-.18v1.36a2.8 2.8 0 0 1-.68.18c-.25.05-.5.08-.76.08ZM771.76 300v-14.1h1.66V300h-1.66Zm5 0v-7.72a33.27 33.27 0 0 0-.16-2.32h1.56l.2 2.2h-.24c.26-.76.68-1.35 1.26-1.76.58-.41 1.29-.62 2.12-.62.84 0 1.52.2 2.04.6.53.4.89 1.02 1.08 1.86h-.3c.25-.76.7-1.36 1.34-1.8a3.86 3.86 0 0 1 2.24-.66c1.1 0 1.94.32 2.5.96.56.63.84 1.62.84 2.98V300h-1.62v-6.18c0-.95-.17-1.63-.5-2.06-.34-.44-.87-.66-1.6-.66-.84 0-1.51.3-2 .88a3.5 3.5 0 0 0-.72 2.32v5.7h-1.62v-6.18c0-.95-.17-1.63-.5-2.06-.34-.44-.87-.66-1.6-.66-.84 0-1.5.3-1.98.88a3.5 3.5 0 0 0-.72 2.32v5.7h-1.62Zm17.55 4.32v-12.04a31.07 31.07 0 0 0-.16-2.32h1.56l.22 2.38h-.24c.22-.79.65-1.4 1.3-1.86.66-.47 1.44-.7 2.34-.7.91 0 1.7.2 2.34.62.67.41 1.2 1 1.56 1.78.38.77.56 1.7.56 2.8 0 1.08-.18 2-.56 2.78a4.17 4.17 0 0 1-1.54 1.8c-.66.41-1.45.62-2.36.62-.89 0-1.66-.23-2.32-.68a3.22 3.22 0 0 1-1.3-1.86h.22v6.68h-1.62Zm4.7-5.46c.96 0 1.72-.33 2.28-.98.58-.67.86-1.63.86-2.9 0-1.28-.28-2.25-.86-2.9-.56-.67-1.32-1-2.28-1-.94 0-1.7.33-2.28 1-.56.65-.84 1.62-.84 2.9 0 1.27.28 2.23.84 2.9.58.65 1.34.98 2.28.98Zm7.26 1.14v-7.62c0-.4-.02-.8-.04-1.22-.02-.41-.04-.81-.08-1.2h1.56l.2 2.44-.28.02a3.1 3.1 0 0 1 1.88-2.34c.45-.2.92-.3 1.42-.3.2 0 .37 0 .52.02.16.01.3.05.44.1l-.02 1.44a3.41 3.41 0 0 0-1.12-.16c-.59 0-1.1.14-1.54.42a2.81 2.81 0 0 0-1.3 2.48V300h-1.64Zm11.3.18c-.96 0-1.8-.2-2.52-.62a4.3 4.3 0 0 1-1.63-1.8 6.23 6.23 0 0 1-.58-2.78c0-1.08.19-2 .57-2.78.4-.77.94-1.37 1.64-1.78a4.85 4.85 0 0 1 2.53-.64c.97 0 1.8.21 2.51.64.73.41 1.28 1 1.66 1.78.4.77.6 1.7.6 2.78 0 1.07-.2 2-.6 2.78a4.26 4.26 0 0 1-1.65 1.8 4.9 4.9 0 0 1-2.52.62Zm0-1.32c.96 0 1.72-.33 2.28-.98.56-.67.85-1.63.85-2.9 0-1.28-.3-2.25-.87-2.9a2.8 2.8 0 0 0-2.25-1c-.95 0-1.7.33-2.26 1-.57.65-.85 1.62-.85 2.9 0 1.27.28 2.23.85 2.9.55.65 1.3.98 2.25.98ZM827.7 300l-4.3-10.04h1.76l3.6 8.84h-.54l3.64-8.84h1.68l-4.3 10.04h-1.54Zm12 .18a5.03 5.03 0 0 1-3.73-1.36 5.2 5.2 0 0 1-1.36-3.82c0-1.05.2-1.97.6-2.74.4-.79.96-1.4 1.68-1.82a4.66 4.66 0 0 1 2.48-.66c.92 0 1.7.2 2.32.58.63.39 1.1.94 1.44 1.66.34.7.5 1.55.5 2.52v.6h-7.78v-1.02h6.72l-.34.26a3.9 3.9 0 0 0-.72-2.5c-.48-.6-1.2-.9-2.14-.9-1 0-1.78.35-2.34 1.06-.56.7-.84 1.63-.84 2.82v.18c0 1.25.3 2.2.92 2.86.63.64 1.5.96 2.62.96a4.72 4.72 0 0 0 3.2-1.16l.56 1.14c-.44.43-1 .76-1.68 1-.66.23-1.37.34-2.12.34Zm6.41-.18v-7.72a31.07 31.07 0 0 0-.16-2.32h1.56l.2 2.2h-.24c.27-.76.69-1.35 1.26-1.76a3.6 3.6 0 0 1 2.12-.62c.84 0 1.52.2 2.04.6.53.4.9 1.02 1.08 1.86h-.3c.25-.76.7-1.36 1.34-1.8a3.86 3.86 0 0 1 2.24-.66c1.1 0 1.94.32 2.5.96.56.63.84 1.62.84 2.98V300h-1.62v-6.18c0-.95-.17-1.63-.5-2.06-.33-.44-.87-.66-1.6-.66-.84 0-1.5.3-2 .88a3.5 3.5 0 0 0-.72 2.32v5.7h-1.62v-6.18c0-.95-.16-1.63-.5-2.06-.33-.44-.87-.66-1.6-.66-.84 0-1.5.3-1.98.88a3.5 3.5 0 0 0-.72 2.32v5.7h-1.62Zm22.02.18a5.03 5.03 0 0 1-3.72-1.36 5.2 5.2 0 0 1-1.36-3.82c0-1.05.2-1.97.6-2.74.4-.79.96-1.4 1.68-1.82a4.66 4.66 0 0 1 2.48-.66c.92 0 1.7.2 2.32.58.63.39 1.1.94 1.44 1.66.33.7.5 1.55.5 2.52v.6h-7.78v-1.02h6.72l-.34.26a3.9 3.9 0 0 0-.72-2.5c-.48-.6-1.2-.9-2.14-.9-1 0-1.78.35-2.34 1.06-.56.7-.84 1.63-.84 2.82v.18c0 1.25.3 2.2.92 2.86.63.64 1.5.96 2.62.96.6 0 1.16-.09 1.68-.26a4.73 4.73 0 0 0 1.52-.9l.56 1.14c-.44.43-1 .76-1.68 1-.67.23-1.37.34-2.12.34Zm6.42-.18v-7.72a33.27 33.27 0 0 0-.16-2.32h1.56l.2 2.2h-.24c.3-.77.76-1.36 1.4-1.76.65-.41 1.4-.62 2.26-.62 1.18 0 2.08.32 2.68.96.61.63.92 1.62.92 2.98V300h-1.62v-6.18c0-.95-.2-1.63-.58-2.06-.38-.44-.96-.66-1.76-.66-.94 0-1.68.29-2.22.86a3.2 3.2 0 0 0-.82 2.3V300h-1.62Zm15.28.18c-.99 0-1.74-.28-2.26-.84-.52-.57-.78-1.43-.78-2.58v-5.54h-1.96v-1.26h1.96v-2.74l1.62-.46v3.2h2.88v1.26h-2.88v5.36c0 .8.13 1.37.4 1.72.28.33.7.5 1.24.5.25 0 .48-.02.68-.06.2-.05.38-.11.54-.18v1.36a2.8 2.8 0 0 1-.68.18c-.26.05-.5.08-.76.08Z"/><path fill="#374840" d="M283.73 468v-14.1h1.44l5.66 12.78h-.58l5.66-12.78h1.44V468h-1.52v-11.96h.6L291.09 468h-1.1l-5.36-11.96h.6V468h-1.5Zm20.79.18c-.9 0-1.68-.2-2.34-.62a4.31 4.31 0 0 1-1.56-1.8 6.54 6.54 0 0 1-.54-2.78c0-1.1.18-2.03.54-2.8.37-.77.9-1.37 1.56-1.78a4.35 4.35 0 0 1 2.34-.62c.9 0 1.68.23 2.34.7.66.45 1.1 1.07 1.32 1.86h-.24l.22-2.38h1.56l-.12 1.18c-.03.39-.04.77-.04 1.14V468h-1.62v-2.36h.22c-.22.79-.66 1.4-1.32 1.86-.67.45-1.44.68-2.32.68Zm.32-1.32c.96 0 1.72-.33 2.28-.98.56-.67.84-1.63.84-2.9 0-1.28-.28-2.25-.84-2.9-.56-.67-1.32-1-2.28-1-.95 0-1.7.33-2.28 1-.56.65-.84 1.62-.84 2.9 0 1.27.28 2.23.84 2.9.57.65 1.33.98 2.28.98Zm7.85 1.14v-7.72a31.07 31.07 0 0 0-.16-2.32h1.56l.2 2.2h-.24c.3-.77.76-1.36 1.4-1.76.65-.41 1.4-.62 2.26-.62 1.19 0 2.08.32 2.68.96.61.63.92 1.62.92 2.98V468h-1.62v-6.18c0-.95-.2-1.63-.58-2.06-.37-.44-.96-.66-1.76-.66-.93 0-1.67.29-2.22.86a3.2 3.2 0 0 0-.82 2.3V468h-1.62Zm15.54.18c-.9 0-1.68-.2-2.34-.62a4.3 4.3 0 0 1-1.56-1.8 6.54 6.54 0 0 1-.54-2.78c0-1.1.18-2.03.54-2.8.37-.77.9-1.37 1.56-1.78a4.35 4.35 0 0 1 2.34-.62c.9 0 1.69.23 2.34.7.67.45 1.1 1.07 1.32 1.86h-.24l.22-2.38h1.56l-.12 1.18c-.03.39-.04.77-.04 1.14V468h-1.62v-2.36h.22c-.22.79-.66 1.4-1.32 1.86-.67.45-1.44.68-2.32.68Zm.32-1.32c.96 0 1.72-.33 2.28-.98.56-.67.84-1.63.84-2.9 0-1.28-.28-2.25-.84-2.9-.56-.67-1.32-1-2.28-1-.95 0-1.7.33-2.28 1-.56.65-.84 1.62-.84 2.9 0 1.27.28 2.23.84 2.9.57.65 1.33.98 2.28.98Zm12.27 5.6c-.87 0-1.67-.1-2.4-.32a6.12 6.12 0 0 1-1.98-.98l.48-1.22a5.83 5.83 0 0 0 2.46 1.08c.43.1.88.14 1.36.14.99 0 1.73-.26 2.24-.78.5-.52.76-1.26.76-2.22v-2.94h.2a3.27 3.27 0 0 1-1.32 1.88c-.67.45-1.45.68-2.34.68-.92 0-1.72-.2-2.4-.6-.67-.41-1.19-1-1.56-1.74a6.2 6.2 0 0 1-.54-2.68c0-1.01.18-1.9.54-2.64.37-.75.9-1.32 1.56-1.72a4.53 4.53 0 0 1 2.4-.62 4 4 0 0 1 2.34.68c.67.45 1.1 1.08 1.32 1.88l-.2-.2.18-2.18h1.58a17.26 17.26 0 0 0-.16 2.32v7.66c0 1.5-.39 2.62-1.16 3.38-.76.76-1.88 1.14-3.36 1.14Zm-.24-6a2.9 2.9 0 0 0 2.3-.96c.56-.65.84-1.57.84-2.74a4 4 0 0 0-.84-2.72 2.9 2.9 0 0 0-2.3-.96c-.96 0-1.73.32-2.3.96a3.94 3.94 0 0 0-.86 2.72c0 1.17.29 2.09.86 2.74.57.64 1.34.96 2.3.96Zm12.33 1.72a5.03 5.03 0 0 1-3.72-1.36 5.2 5.2 0 0 1-1.36-3.82c0-1.05.2-1.97.6-2.74.4-.79.96-1.4 1.68-1.82a4.66 4.66 0 0 1 2.48-.66c.92 0 1.7.2 2.32.58.63.39 1.1.94 1.44 1.66.33.7.5 1.55.5 2.52v.6h-7.78v-1.02h6.72l-.34.26a3.9 3.9 0 0 0-.72-2.5c-.48-.6-1.2-.9-2.14-.9-1 0-1.78.35-2.34 1.06-.56.7-.84 1.63-.84 2.82v.18c0 1.25.3 2.2.92 2.86.63.64 1.5.96 2.62.96.6 0 1.16-.09 1.68-.26a4.73 4.73 0 0 0 1.52-.9l.56 1.14c-.44.43-1 .76-1.68 1-.67.23-1.37.34-2.12.34ZM272.92 492v-14.1h5.76c1.48 0 2.63.35 3.44 1.06.81.7 1.22 1.67 1.22 2.92 0 .83-.19 1.53-.56 2.12a3.49 3.49 0 0 1-1.54 1.32c-.65.3-1.42.46-2.3.46l.36-.26h.4c.55 0 1.03.13 1.46.4.44.27.79.71 1.04 1.34l2 4.74h-1.82l-1.92-4.66c-.23-.6-.57-.99-1.02-1.16a4.48 4.48 0 0 0-1.7-.28h-3.16v6.1h-1.66Zm1.66-7.4h3.86c1.07 0 1.87-.23 2.42-.68.56-.47.84-1.13.84-2 0-.87-.28-1.53-.84-1.98-.55-.45-1.35-.68-2.42-.68h-3.86v5.34Zm16.25 7.58a5.03 5.03 0 0 1-3.72-1.36 5.2 5.2 0 0 1-1.36-3.82c0-1.05.2-1.97.6-2.74.4-.79.96-1.4 1.68-1.82a4.66 4.66 0 0 1 2.48-.66c.92 0 1.7.2 2.32.58.63.39 1.11.94 1.44 1.66.34.7.5 1.55.5 2.52v.6H287v-1.02h6.72l-.34.26a3.9 3.9 0 0 0-.72-2.5c-.48-.6-1.19-.9-2.14-.9-1 0-1.78.35-2.34 1.06-.56.7-.84 1.63-.84 2.82v.18c0 1.25.31 2.2.92 2.86.63.64 1.5.96 2.62.96.6 0 1.16-.09 1.68-.26a4.73 4.73 0 0 0 1.52-.9l.56 1.14c-.44.43-1 .76-1.68 1-.66.23-1.37.34-2.12.34Zm9.76 0c-.8 0-1.54-.1-2.24-.32a4.84 4.84 0 0 1-1.72-.94l.56-1.14c.5.39 1.03.67 1.6.86.59.19 1.2.28 1.82.28.8 0 1.4-.14 1.8-.42.41-.3.62-.7.62-1.2 0-.39-.13-.7-.4-.92a2.7 2.7 0 0 0-1.26-.56l-1.86-.38c-.85-.19-1.5-.5-1.92-.94a2.4 2.4 0 0 1-.64-1.72c0-.59.16-1.1.46-1.54a3 3 0 0 1 1.34-1.06 5.78 5.78 0 0 1 4.08-.06c.63.21 1.15.53 1.56.94l-.58 1.12c-.4-.39-.86-.67-1.38-.86-.5-.2-1.03-.3-1.58-.3-.79 0-1.38.16-1.78.48-.38.3-.58.71-.58 1.22 0 .39.12.7.36.96.25.24.64.42 1.16.54l1.86.38c.9.2 1.58.51 2.02.94.46.41.68.97.68 1.68 0 .6-.17 1.13-.5 1.58-.33.44-.8.78-1.4 1.02-.59.24-1.28.36-2.08.36Zm10.7 0a4.29 4.29 0 0 1-4.16-2.42 6.23 6.23 0 0 1-.58-2.78c0-1.08.2-2 .58-2.78.39-.77.94-1.37 1.64-1.78a4.85 4.85 0 0 1 2.52-.64c.98 0 1.82.21 2.52.64.72.41 1.28 1 1.66 1.78.4.77.6 1.7.6 2.78 0 1.07-.2 2-.6 2.78a4.26 4.26 0 0 1-1.66 1.8 4.9 4.9 0 0 1-2.52.62Zm0-1.32c.96 0 1.72-.33 2.28-.98.56-.67.84-1.63.84-2.9 0-1.28-.28-2.25-.86-2.9a2.8 2.8 0 0 0-2.26-1c-.94 0-1.7.33-2.26 1-.56.65-.84 1.62-.84 2.9 0 1.27.28 2.23.84 2.9.56.65 1.32.98 2.26.98Zm10.85 1.32c-1.19 0-2.09-.33-2.7-.98-.6-.65-.9-1.65-.9-3v-6.24h1.62v6.2c0 .92.19 1.6.56 2.04.37.43.95.64 1.74.64.88 0 1.59-.29 2.12-.86.53-.57.8-1.34.8-2.3v-5.72H327V492h-1.58v-2.26h.26a3.59 3.59 0 0 1-3.54 2.44Zm7.96-.18v-7.62c0-.4-.01-.8-.04-1.22-.01-.41-.04-.81-.08-1.2h1.56l.2 2.44-.28.02a3.1 3.1 0 0 1 1.88-2.34c.46-.2.93-.3 1.42-.3.2 0 .38 0 .52.02.16.01.3.05.44.1l-.02 1.44a3.41 3.41 0 0 0-1.12-.16c-.58 0-1.1.14-1.54.42a2.81 2.81 0 0 0-1.3 2.48V492h-1.64Zm11.41.18c-.99 0-1.85-.21-2.58-.64a4.36 4.36 0 0 1-1.68-1.82 6.28 6.28 0 0 1-.58-2.8c0-1.1.2-2.02.6-2.78.4-.77.96-1.36 1.68-1.76.73-.4 1.59-.6 2.56-.6.64 0 1.26.11 1.86.34.61.23 1.12.55 1.52.96l-.58 1.16a3.95 3.95 0 0 0-2.7-1.14c-1.04 0-1.85.33-2.42.98-.57.65-.86 1.6-.86 2.86 0 1.24.29 2.2.86 2.88a3 3 0 0 0 2.42 1.02 3.9 3.9 0 0 0 2.7-1.12l.58 1.14c-.41.43-.93.75-1.54.98-.61.23-1.23.34-1.84.34Zm9.95 0a5.03 5.03 0 0 1-3.72-1.36 5.2 5.2 0 0 1-1.36-3.82c0-1.05.2-1.97.6-2.74.4-.79.96-1.4 1.68-1.82a4.66 4.66 0 0 1 2.48-.66c.92 0 1.7.2 2.32.58.63.39 1.1.94 1.44 1.66.33.7.5 1.55.5 2.52v.6h-7.78v-1.02h6.72l-.34.26a3.9 3.9 0 0 0-.72-2.5c-.48-.6-1.2-.9-2.14-.9-1 0-1.78.35-2.34 1.06-.56.7-.84 1.63-.84 2.82v.18c0 1.25.3 2.2.92 2.86.63.64 1.5.96 2.62.96.6 0 1.16-.09 1.68-.26a4.73 4.73 0 0 0 1.52-.9l.56 1.14c-.44.43-1 .76-1.68 1-.67.23-1.38.34-2.12.34Zm9.76 0c-.8 0-1.55-.1-2.24-.32a4.84 4.84 0 0 1-1.72-.94l.56-1.14c.49.39 1.02.67 1.6.86.58.19 1.19.28 1.82.28.8 0 1.4-.14 1.8-.42.41-.3.62-.7.62-1.2 0-.39-.14-.7-.4-.92a2.7 2.7 0 0 0-1.26-.56l-1.86-.38c-.86-.19-1.5-.5-1.92-.94a2.4 2.4 0 0 1-.64-1.72c0-.59.15-1.1.46-1.54a3 3 0 0 1 1.34-1.06 5.78 5.78 0 0 1 4.08-.06c.62.21 1.14.53 1.56.94l-.58 1.12c-.4-.39-.86-.67-1.38-.86-.51-.2-1.04-.3-1.58-.3-.79 0-1.38.16-1.78.48-.39.3-.58.71-.58 1.22 0 .39.12.7.36.96.25.24.64.42 1.16.54l1.86.38c.9.2 1.58.51 2.02.94.45.41.68.97.68 1.68 0 .6-.17 1.13-.5 1.58-.34.44-.8.78-1.4 1.02-.59.24-1.28.36-2.08.36Z"/><path fill="#46432D" d="M461.47 468.18c-1.41 0-2.61-.3-3.6-.88a5.85 5.85 0 0 1-2.28-2.5 8.82 8.82 0 0 1-.78-3.86c0-1.5.26-2.77.78-3.84a5.85 5.85 0 0 1 2.28-2.5 6.92 6.92 0 0 1 3.6-.88c1 0 1.9.15 2.68.46.79.3 1.47.75 2.06 1.34l-.62 1.32a6.79 6.79 0 0 0-1.9-1.22 5.58 5.58 0 0 0-2.2-.4c-1.61 0-2.84.5-3.68 1.5-.84 1-1.26 2.4-1.26 4.22 0 1.81.42 3.23 1.26 4.24.84 1 2.07 1.5 3.68 1.5.84 0 1.57-.13 2.2-.38a7.01 7.01 0 0 0 1.9-1.26l.62 1.34a6.32 6.32 0 0 1-4.74 1.8Zm7.35-.18v-14.72h1.62V468h-1.62Zm4.77 0v-10.04h1.62V468h-1.62Zm-.2-12.32v-1.82h2v1.82h-2Zm4.96 12.32v-7.72a31.07 31.07 0 0 0-.16-2.32h1.56l.2 2.2h-.24c.3-.77.76-1.36 1.4-1.76.66-.41 1.41-.62 2.26-.62 1.19 0 2.08.32 2.68.96.62.63.92 1.62.92 2.98V468h-1.62v-6.18c0-.95-.19-1.63-.58-2.06-.37-.44-.96-.66-1.76-.66-.93 0-1.67.29-2.22.86a3.2 3.2 0 0 0-.82 2.3V468h-1.62Zm11.72 0v-10.04h1.62V468h-1.62Zm-.2-12.32v-1.82h2v1.82h-2Zm9.19 12.5c-.99 0-1.85-.21-2.58-.64a4.36 4.36 0 0 1-1.68-1.82 6.28 6.28 0 0 1-.58-2.8c0-1.1.2-2.02.6-2.78.4-.77.96-1.36 1.68-1.76.73-.4 1.58-.6 2.56-.6.64 0 1.26.11 1.86.34.61.23 1.12.55 1.52.96l-.58 1.16a3.95 3.95 0 0 0-2.7-1.14c-1.04 0-1.85.33-2.42.98-.58.65-.86 1.6-.86 2.86 0 1.24.28 2.2.86 2.88a3 3 0 0 0 2.42 1.02 3.9 3.9 0 0 0 2.7-1.12l.58 1.14c-.42.43-.93.75-1.54.98-.62.23-1.23.34-1.84.34Zm9.42 0c-.9 0-1.67-.2-2.34-.62a4.3 4.3 0 0 1-1.56-1.8 6.54 6.54 0 0 1-.54-2.78c0-1.1.18-2.03.54-2.8.38-.77.9-1.37 1.56-1.78a4.35 4.35 0 0 1 2.34-.62c.9 0 1.69.23 2.34.7.67.45 1.1 1.07 1.32 1.86h-.24l.22-2.38h1.56l-.12 1.18c-.02.39-.04.77-.04 1.14V468h-1.62v-2.36h.22c-.21.79-.65 1.4-1.32 1.86-.67.45-1.44.68-2.32.68Zm.32-1.32c.96 0 1.72-.33 2.28-.98.56-.67.84-1.63.84-2.9 0-1.28-.28-2.25-.84-2.9-.56-.67-1.32-1-2.28-1-.94 0-1.7.33-2.28 1-.56.65-.84 1.62-.84 2.9 0 1.27.28 2.23.84 2.9.58.65 1.34.98 2.28.98Zm7.85 1.14v-14.72h1.62V468h-1.62ZM441.67 492v-14.1h9v1.36h-7.38v4.9h6.94v1.38h-6.94v5.08h7.38V492h-9Zm14.36 0-4.3-10.04h1.76l3.6 8.84h-.54l3.64-8.84h1.68l-4.3 10.04h-1.54Zm11.3.18c-.9 0-1.68-.2-2.35-.62a4.3 4.3 0 0 1-1.56-1.8 6.54 6.54 0 0 1-.54-2.78c0-1.1.18-2.03.54-2.8.38-.77.9-1.37 1.56-1.78a4.35 4.35 0 0 1 2.34-.62c.9 0 1.69.23 2.34.7.67.45 1.1 1.07 1.32 1.86h-.24l.22-2.38h1.56l-.12 1.18c-.02.39-.04.77-.04 1.14V492h-1.62v-2.36h.22c-.21.79-.65 1.4-1.32 1.86-.66.45-1.44.68-2.32.68Zm.31-1.32c.96 0 1.72-.33 2.28-.98.56-.67.84-1.63.84-2.9 0-1.28-.28-2.25-.84-2.9-.56-.67-1.32-1-2.28-1-.94 0-1.7.33-2.28 1-.56.65-.84 1.62-.84 2.9 0 1.27.28 2.23.84 2.9.57.65 1.33.98 2.28.98Zm7.85 1.14v-14.72h1.62V492h-1.62Zm8.31.18c-1.19 0-2.09-.33-2.7-.98-.6-.65-.9-1.65-.9-3v-6.24h1.62v6.2c0 .92.19 1.6.56 2.04.37.43.95.64 1.74.64.88 0 1.59-.29 2.12-.86.53-.57.8-1.34.8-2.3v-5.72h1.62V492h-1.58v-2.26h.26a3.59 3.59 0 0 1-3.54 2.44Zm11.82 0c-.9 0-1.67-.2-2.34-.62a4.3 4.3 0 0 1-1.56-1.8 6.54 6.54 0 0 1-.54-2.78c0-1.1.18-2.03.54-2.8.38-.77.9-1.37 1.56-1.78a4.35 4.35 0 0 1 2.34-.62c.9 0 1.69.23 2.34.7a3.2 3.2 0 0 1 1.32 1.86h-.24l.22-2.38h1.56l-.12 1.18c-.02.39-.04.77-.04 1.14V492h-1.62v-2.36h.22a3.2 3.2 0 0 1-1.32 1.86c-.66.45-1.44.68-2.32.68Zm.32-1.32c.96 0 1.72-.33 2.28-.98.56-.67.84-1.63.84-2.9 0-1.28-.28-2.25-.84-2.9-.56-.67-1.32-1-2.28-1-.94 0-1.7.33-2.28 1-.56.65-.84 1.62-.84 2.9 0 1.27.28 2.23.84 2.9.58.65 1.34.98 2.28.98Zm11.42 1.32c-1 0-1.75-.28-2.26-.84-.53-.57-.79-1.43-.79-2.58v-5.54h-1.95v-1.26h1.95v-2.74l1.63-.46v3.2h2.88v1.26h-2.88v5.36c0 .8.13 1.37.4 1.72.28.33.69.5 1.24.5.25 0 .48-.02.68-.06.2-.05.38-.11.54-.18v1.36c-.2.08-.42.14-.69.18-.25.05-.5.08-.75.08Zm3.43-.18v-10.04h1.62V492h-1.62Zm-.2-12.32v-1.82h2v1.82h-2Zm9.08 12.5a4.29 4.29 0 0 1-4.16-2.42 6.23 6.23 0 0 1-.58-2.78c0-1.08.2-2 .58-2.78.39-.77.94-1.37 1.64-1.78a4.85 4.85 0 0 1 2.52-.64c.98 0 1.82.21 2.52.64.72.41 1.28 1 1.66 1.78.4.77.6 1.7.6 2.78 0 1.07-.2 2-.6 2.78a4.26 4.26 0 0 1-1.66 1.8 4.9 4.9 0 0 1-2.52.62Zm0-1.32c.96 0 1.72-.33 2.28-.98.56-.67.84-1.63.84-2.9 0-1.28-.28-2.25-.86-2.9a2.8 2.8 0 0 0-2.26-1c-.94 0-1.7.33-2.26 1-.56.65-.84 1.62-.84 2.9 0 1.27.28 2.23.84 2.9.56.65 1.32.98 2.26.98Zm7.3 1.14v-7.72a31.07 31.07 0 0 0-.16-2.32h1.57l.2 2.2h-.24c.3-.77.76-1.36 1.4-1.76.65-.41 1.4-.62 2.26-.62 1.18 0 2.08.32 2.68.96.61.63.92 1.62.92 2.98V492h-1.62v-6.18c0-.95-.2-1.63-.58-2.06-.38-.44-.96-.66-1.76-.66-.93 0-1.67.29-2.22.86a3.2 3.2 0 0 0-.82 2.3V492h-1.62Z"/><path fill="#543A3A" d="M599.03 468v-14.1h5.74c1.48 0 2.62.36 3.42 1.08.8.7 1.2 1.7 1.2 2.96 0 1.24-.4 2.23-1.2 2.96-.8.72-1.94 1.08-3.42 1.08h-4.08V468h-1.66Zm1.66-7.4h3.92c1.03 0 1.8-.23 2.32-.7.53-.47.8-1.12.8-1.96a2.5 2.5 0 0 0-.8-1.98c-.52-.47-1.3-.7-2.32-.7h-3.92v5.34Zm14.88 7.58c-.96 0-1.8-.2-2.52-.62a4.3 4.3 0 0 1-1.64-1.8 6.24 6.24 0 0 1-.58-2.78c0-1.08.2-2 .58-2.78.38-.77.93-1.37 1.64-1.78a4.85 4.85 0 0 1 2.52-.64c.97 0 1.81.21 2.52.64.72.41 1.27 1 1.66 1.78.4.77.6 1.7.6 2.78 0 1.07-.2 2-.6 2.78a4.25 4.25 0 0 1-1.66 1.8 4.9 4.9 0 0 1-2.52.62Zm0-1.32c.96 0 1.72-.33 2.28-.98.56-.67.84-1.63.84-2.9 0-1.28-.29-2.25-.86-2.9a2.8 2.8 0 0 0-2.26-1c-.95 0-1.7.33-2.26 1-.56.65-.84 1.62-.84 2.9 0 1.27.28 2.23.84 2.9.56.65 1.31.98 2.26.98Zm10.64 1.32c-.8 0-1.54-.1-2.24-.32a4.84 4.84 0 0 1-1.72-.94l.56-1.14c.5.39 1.03.67 1.6.86.59.19 1.2.28 1.82.28.8 0 1.4-.14 1.8-.42.42-.3.62-.7.62-1.2 0-.39-.13-.7-.4-.92a2.7 2.7 0 0 0-1.26-.56l-1.86-.38c-.85-.19-1.49-.5-1.92-.94a2.4 2.4 0 0 1-.64-1.72c0-.59.16-1.1.46-1.54a3 3 0 0 1 1.34-1.06 5.78 5.78 0 0 1 4.08-.06c.63.21 1.15.53 1.56.94l-.58 1.12c-.4-.39-.86-.67-1.38-.86-.5-.2-1.03-.3-1.58-.3-.78 0-1.38.16-1.78.48-.38.3-.58.71-.58 1.22 0 .39.12.7.36.96.26.24.64.42 1.16.54l1.86.38c.91.2 1.58.51 2.02.94.46.41.68.97.68 1.68 0 .6-.16 1.13-.5 1.58-.33.44-.8.78-1.4 1.02-.58.24-1.28.36-2.08.36Zm10.05 0c-.99 0-1.74-.28-2.26-.84-.52-.57-.78-1.43-.78-2.58v-5.54h-1.96v-1.26h1.96v-2.74l1.62-.46v3.2h2.88v1.26h-2.88v5.36c0 .8.13 1.37.4 1.72.28.33.7.5 1.24.5.25 0 .48-.02.68-.06.2-.05.38-.11.54-.18v1.36c-.19.08-.42.14-.68.18-.26.05-.5.08-.76.08Zm3.1-5v-1.34h5.7v1.34h-5.7Zm8.89 4.82v-14.1h1.44l5.66 12.78h-.58l5.66-12.78h1.44V468h-1.52v-11.96h.6L655.6 468h-1.1l-5.36-11.96h.6V468h-1.5Zm20.79.18c-.9 0-1.68-.2-2.34-.62a4.3 4.3 0 0 1-1.56-1.8 6.54 6.54 0 0 1-.54-2.78c0-1.1.18-2.03.54-2.8.37-.77.89-1.37 1.56-1.78a4.35 4.35 0 0 1 2.34-.62c.9 0 1.68.23 2.34.7a3.2 3.2 0 0 1 1.32 1.86h-.24l.22-2.38h1.56l-.12 1.18c-.03.39-.04.77-.04 1.14V468h-1.62v-2.36h.22a3.2 3.2 0 0 1-1.32 1.86c-.67.45-1.44.68-2.32.68Zm.32-1.32c.96 0 1.72-.33 2.28-.98.56-.67.84-1.63.84-2.9 0-1.28-.28-2.25-.84-2.9-.56-.67-1.32-1-2.28-1-.95 0-1.71.33-2.28 1-.56.65-.84 1.62-.84 2.9 0 1.27.28 2.23.84 2.9.57.65 1.33.98 2.28.98Zm7.8 1.14v-7.62c0-.4 0-.8-.03-1.22-.01-.41-.04-.81-.08-1.2h1.56l.2 2.44-.28.02a3.1 3.1 0 0 1 1.88-2.34c.45-.2.93-.3 1.42-.3.2 0 .37 0 .52.02.16.01.3.05.44.1l-.02 1.44a3.41 3.41 0 0 0-1.12-.16c-.59 0-1.1.14-1.54.42a2.82 2.82 0 0 0-1.3 2.48V468h-1.64Zm7.32 0v-14.72h1.62v9.14h.03l4.66-4.46h2.05l-5.5 5.24.03-.82 5.99 5.62h-2.1l-5.13-4.72h-.03V468h-1.63Zm14.5.18a5.02 5.02 0 0 1-3.73-1.36 5.2 5.2 0 0 1-1.36-3.82c0-1.05.2-1.97.6-2.74.4-.79.96-1.4 1.68-1.82a4.66 4.66 0 0 1 2.48-.66c.92 0 1.7.2 2.32.58.63.39 1.11.94 1.44 1.66.34.7.5 1.55.5 2.52v.6h-7.78v-1.02h6.72l-.34.26a3.9 3.9 0 0 0-.72-2.5c-.48-.6-1.19-.9-2.14-.9-1 0-1.78.35-2.34 1.06-.56.7-.84 1.63-.84 2.82v.18c0 1.25.31 2.2.92 2.86.63.64 1.5.96 2.62.96.6 0 1.16-.09 1.68-.26a4.73 4.73 0 0 0 1.52-.9l.56 1.14c-.44.43-1 .76-1.68 1-.66.23-1.37.34-2.12.34Zm9.97 0c-.98 0-1.74-.28-2.26-.84-.52-.57-.78-1.43-.78-2.58v-5.54h-1.96v-1.26h1.96v-2.74l1.62-.46v3.2h2.88v1.26h-2.88v5.36c0 .8.14 1.37.4 1.72.28.33.7.5 1.24.5.26 0 .48-.02.68-.06.2-.05.38-.11.54-.18v1.36a2.8 2.8 0 0 1-.68.18c-.25.05-.5.08-.76.08ZM604.06 492.18a9.74 9.74 0 0 1-3.04-.44c-.9-.3-1.67-.71-2.34-1.26l.6-1.32a7.21 7.21 0 0 0 4.78 1.56c1.19 0 2.07-.22 2.64-.66a2.1 2.1 0 0 0 .86-1.76c0-.63-.2-1.1-.6-1.44a4.9 4.9 0 0 0-2.1-.8l-2.1-.42a5.94 5.94 0 0 1-2.9-1.3 3.22 3.22 0 0 1-.94-2.44c0-.84.21-1.57.64-2.2a4.31 4.31 0 0 1 1.84-1.46c.79-.35 1.7-.52 2.74-.52 1 0 1.91.15 2.74.46.83.3 1.53.73 2.12 1.3l-.58 1.28a5.84 5.84 0 0 0-1.98-1.2 6.62 6.62 0 0 0-2.32-.38c-1.1 0-1.96.24-2.6.72-.63.47-.94 1.1-.94 1.92a2 2 0 0 0 .6 1.54c.4.36 1.06.63 1.98.82l2.12.42c1.36.28 2.36.7 3 1.26.64.56.96 1.35.96 2.36 0 .77-.21 1.46-.64 2.06-.41.6-1 1.07-1.78 1.4-.77.33-1.7.5-2.76.5Zm11.22 0c-1.19 0-2.09-.33-2.7-.98-.6-.65-.9-1.65-.9-3v-6.24h1.62v6.2c0 .92.19 1.6.56 2.04.37.43.95.64 1.74.64.88 0 1.59-.29 2.12-.86.53-.57.8-1.34.8-2.3v-5.72h1.62V492h-1.58v-2.26h.26a3.58 3.58 0 0 1-3.54 2.44Zm7.96-.18v-7.62c0-.4-.01-.8-.04-1.22-.01-.41-.04-.81-.08-1.2h1.56l.2 2.44-.28.02a3.1 3.1 0 0 1 1.88-2.34c.46-.2.93-.3 1.42-.3.2 0 .38 0 .52.02.16.01.31.05.44.1l-.02 1.44a3.41 3.41 0 0 0-1.12-.16c-.58 0-1.1.14-1.54.42a2.82 2.82 0 0 0-1.3 2.48V492h-1.64Zm10.87 0-4.3-10.04h1.76l3.6 8.84h-.54l3.64-8.84h1.68l-4.3 10.04h-1.54Zm12 .18a5.02 5.02 0 0 1-3.73-1.36 5.2 5.2 0 0 1-1.36-3.82c0-1.05.2-1.97.6-2.74.4-.79.96-1.4 1.68-1.82a4.66 4.66 0 0 1 2.48-.66c.92 0 1.7.2 2.32.58.63.39 1.1.94 1.44 1.66.34.7.5 1.55.5 2.52v.6h-7.78v-1.02h6.72l-.34.26a3.9 3.9 0 0 0-.72-2.5c-.48-.6-1.2-.9-2.14-.9-1 0-1.78.35-2.34 1.06-.56.7-.84 1.63-.84 2.82v.18c0 1.25.3 2.2.92 2.86.63.64 1.5.96 2.62.96.6 0 1.16-.09 1.68-.26a4.73 4.73 0 0 0 1.52-.9l.56 1.14c-.44.43-1 .76-1.68 1-.66.23-1.37.34-2.12.34Zm6.41-.18v-10.04h1.62V492h-1.62Zm-.2-12.32v-1.82h2v1.82h-2ZM657.3 492v-14.72h1.62V492h-1.62Zm4.76 0v-14.72h1.62V492h-1.62Zm8.59.18c-.9 0-1.67-.2-2.34-.62a4.31 4.31 0 0 1-1.56-1.8 6.54 6.54 0 0 1-.54-2.78c0-1.1.18-2.03.54-2.8.37-.77.9-1.37 1.56-1.78a4.35 4.35 0 0 1 2.34-.62c.9 0 1.69.23 2.34.7.66.45 1.1 1.07 1.32 1.86h-.24l.22-2.38h1.56l-.12 1.18c-.03.39-.04.77-.04 1.14V492h-1.62v-2.36h.22c-.21.79-.65 1.4-1.32 1.86-.67.45-1.44.68-2.32.68Zm.32-1.32c.96 0 1.72-.33 2.28-.98.56-.67.84-1.63.84-2.9 0-1.28-.28-2.25-.84-2.9-.56-.67-1.32-1-2.28-1-.95 0-1.7.33-2.28 1-.56.65-.84 1.62-.84 2.9 0 1.27.28 2.23.84 2.9.57.65 1.33.98 2.28.98Zm7.85 1.14v-7.72a31.07 31.07 0 0 0-.16-2.32h1.56l.2 2.2h-.24c.3-.77.76-1.36 1.4-1.76.65-.41 1.4-.62 2.26-.62 1.19 0 2.08.32 2.68.96.61.63.92 1.62.92 2.98V492h-1.62v-6.18c0-.95-.2-1.63-.58-2.06-.37-.44-.96-.66-1.76-.66-.93 0-1.67.29-2.22.86a3.2 3.2 0 0 0-.82 2.3V492h-1.62Zm15.94.18c-.99 0-1.85-.21-2.58-.64a4.36 4.36 0 0 1-1.68-1.82 6.3 6.3 0 0 1-.58-2.8c0-1.1.2-2.02.6-2.78.4-.77.96-1.36 1.68-1.76.73-.4 1.59-.6 2.56-.6.64 0 1.26.11 1.86.34.61.23 1.12.55 1.52.96l-.58 1.16a3.95 3.95 0 0 0-2.7-1.14c-1.04 0-1.85.33-2.42.98-.57.65-.86 1.6-.86 2.86 0 1.24.29 2.2.86 2.88a3 3 0 0 0 2.42 1.02 3.9 3.9 0 0 0 2.7-1.12l.58 1.14c-.41.43-.93.75-1.54.98-.61.23-1.23.34-1.84.34Zm9.95 0a5.03 5.03 0 0 1-3.72-1.36 5.2 5.2 0 0 1-1.36-3.82c0-1.05.2-1.97.6-2.74.4-.79.96-1.4 1.68-1.82a4.66 4.66 0 0 1 2.48-.66c.92 0 1.69.2 2.32.58.62.39 1.1.94 1.44 1.66.33.7.5 1.55.5 2.52v.6h-7.78v-1.02h6.72l-.34.26a3.9 3.9 0 0 0-.72-2.5c-.48-.6-1.2-.9-2.14-.9-1 0-1.78.35-2.34 1.06-.56.7-.84 1.63-.84 2.82v.18c0 1.25.3 2.2.92 2.86.62.64 1.5.96 2.62.96a4.72 4.72 0 0 0 3.2-1.16l.56 1.14c-.44.43-1 .76-1.68 1-.67.23-1.38.34-2.12.34Z"/><path stroke="#484848" stroke-linecap="round" stroke-linejoin="round" stroke-width="2" d="M708 264h43M745 270.5l6.5-6.5-6.5-6.5"/><path stroke="#fff" stroke-linecap="round" stroke-linejoin="round" stroke-width="2" d="M647.97 420h12l48-156-48-156h-12m0 312 48-155.97-48-156.03m0 312L612 303.11 623.97 264 612 224.89 647.97 108"/><path stroke="#484848" stroke-linecap="round" stroke-linejoin="round" stroke-width="2" d="M616.62 240h43M653.6 246.5l6.5-6.5-6.5-6.5M624 264h43M661 270.5l6.5-6.5-6.5-6.5M616.62 288h43M653.6 294.5l6.5-6.5-6.5-6.5"/><path stroke="#fff" stroke-linecap="round" stroke-linejoin="round" stroke-width="2" d="M563.97 420h12l48-156-48-156h-12m0 312 48-155.97-48-156.03m0 312L528 303.11 539.97 264 528 224.89 563.97 108"/><path stroke="#484848" stroke-linecap="round" stroke-linejoin="round" stroke-width="2" d="M525.23 216h43M562.2 222.5l6.5-6.5-6.5-6.5M532.62 240h43M569.6 246.5l6.5-6.5-6.5-6.5M540 264h43M577 270.5l6.5-6.5-6.5-6.5M532.62 288h43M569.6 294.5l6.5-6.5-6.5-6.5M525.24 312h43M562.2 318.5l6.5-6.5-6.5-6.5"/><path stroke="#fff" stroke-linecap="round" stroke-linejoin="round" stroke-width="2" d="M479.96 420h12l48-156-48-156h-12m0 312 48-155.97-48-156.03m0 312L444 303.11 455.96 264 444 224.89 479.96 108"/><path stroke="#484848" stroke-linecap="round" stroke-linejoin="round" stroke-width="2" d="M433.82 192h43M470.8 198.5l6.5-6.5-6.5-6.5M441.21 216h43M478.2 222.5l6.5-6.5-6.5-6.5M448.6 240h43M485.6 246.5l6.5-6.5-6.5-6.5M456 264h43M493 270.5l6.5-6.5-6.5-6.5M448.6 288h43M485.6 294.5l6.5-6.5-6.5-6.5M441.22 312h43M478.2 318.5l6.5-6.5-6.5-6.5M433.83 336h43M470.8 342.5l6.5-6.5-6.5-6.5"/><path stroke="#fff" stroke-linecap="round" stroke-linejoin="round" stroke-width="2" d="M395.96 420h12l48-156-48-156h-12m0 312 48-155.97-48-156.03m0 312L360 303.11 371.96 264 360 224.89 395.96 108"/><path stroke="#484848" stroke-linecap="round" stroke-linejoin="round" stroke-width="2" d="M342.43 168h43M379.4 174.5l6.5-6.5-6.5-6.5M349.82 192h43M386.8 198.5l6.5-6.5-6.5-6.5M357.21 216h43M394.2 222.5l6.5-6.5-6.5-6.5M364.6 240h43M401.6 246.5l6.5-6.5-6.5-6.5M372 264h43M409 270.5l6.5-6.5-6.5-6.5M364.6 288h43M401.6 294.5l6.5-6.5-6.5-6.5M357.22 312h43M394.2 318.5l6.5-6.5-6.5-6.5M349.83 336h43M386.8 342.5l6.5-6.5-6.5-6.5M342.44 360h43M379.4 366.5l6.5-6.5-6.5-6.5"/><path stroke="#fff" stroke-linecap="round" stroke-linejoin="round" stroke-width="2" d="M311.96 420h12l48-156-48-156h-12m0 312 48-155.97-48-156.03m0 312L276 303.11 287.96 264 276 224.89 311.96 108"/><path stroke="#484848" stroke-linecap="round" stroke-linejoin="round" stroke-width="2" d="M258.48 168h43M295.5 174.5l6.5-6.5-6.5-6.5M251.1 144h43M288.1 150.5l6.5-6.5-6.5-6.5M265.86 192h43M302.9 198.5l6.5-6.5-6.5-6.5M273.24 216h43M310.2 222.5l6.5-6.5-6.5-6.5M280.62 240h43M317.6 246.5l6.5-6.5-6.5-6.5M288 264h43M325 270.5l6.5-6.5-6.5-6.5M280.6 288h43M317.6 294.5l6.5-6.5-6.5-6.5M273.23 312h43M310.2 318.5l6.5-6.5-6.5-6.5M265.84 336h43M302.8 342.5l6.5-6.5-6.5-6.5M258.45 360h43M295.5 366.5l6.5-6.5-6.5-6.5M251.07 384h43M288.1 390.5l6.5-6.5-6.5-6.5"/><path stroke="#fff" stroke-linecap="round" stroke-linejoin="round" stroke-width="2" d="M228 420h12l48-156-48-156h-12m0 312-48-156 48-156m0 312 48-156-48-156"/><path stroke="#484848" stroke-linecap="round" stroke-linejoin="round" stroke-width="2" d="M156 168h61.4M211.4 174.5l6.5-6.5-6.5-6.5M168 144h42.11M204.1 150.5l6.5-6.5-6.5-6.5M156 120h46.7M196.7 126.5l6.5-6.5-6.5-6.5M168 192h56.79M218.8 198.5l6.5-6.5-6.5-6.5M156 216h76.21M226.2 222.5l6.5-6.5-6.5-6.5M168 240h71.61M233.6 246.5l6.5-6.5-6.5-6.5M156 264h91M241 270.5l6.5-6.5-6.5-6.5M168 288h71.61M233.6 294.5l6.5-6.5-6.5-6.5M156 312h76.21M226.2 318.5l6.5-6.5-6.5-6.5M168 336h56.79M218.8 342.5l6.5-6.5-6.5-6.5M156 360h61.4M211.4 366.5l6.5-6.5-6.5-6.5M168 384h42.11M204.1 390.5l6.5-6.5-6.5-6.5M155.32 408h47.35M196.7 414.5l6.5-6.5-6.5-6.5"/></g><defs><clipPath id="a"><path fill="#fff" d="M-1-97h926v638H-1z"/></clipPath></defs></svg>