<?xml version="1.0" standalone="no"?>
<!DOCTYPE svg PUBLIC "-//W3C//DTD SVG 20010904//EN"
 "http://www.w3.org/TR/2001/REC-SVG-20010904/DTD/svg10.dtd">
<svg version="1.0" xmlns="http://www.w3.org/2000/svg"
 width="700.000000pt" height="700.000000pt" viewBox="0 0 700.000000 700.000000"
 preserveAspectRatio="xMidYMid meet">
<metadata>
Created by potrace 1.11, written by Peter Selinger 2001-2013
</metadata>
<g transform="translate(0.000000,700.000000) scale(0.100000,-0.100000)"
fill="#000000" stroke="none">
<path d="M0 5204 l0 -1796 133 124 c139 130 389 362 822 763 143 132 362 335
487 452 425 395 675 602 938 778 305 204 541 306 745 321 151 12 265 -28 375
-132 129 -122 180 -274 159 -480 -34 -338 -275 -813 -716 -1414 -55 -74 -156
-211 -224 -305 -138 -187 -151 -206 -128 -189 8 6 133 100 279 209 408 306
632 479 1705 1319 380 297 713 556 740 575 80 54 224 119 315 141 317 75 542
-55 617 -356 26 -107 24 -306 -5 -408 -74 -258 -206 -441 -686 -952 -176 -188
-260 -290 -334 -410 -223 -359 -283 -706 -146 -836 70 -66 191 -79 345 -37
192 51 659 318 1297 741 l282 188 0 1750 0 1750 -3500 0 -3500 0 0 -1796z"/>
<path d="M1765 4012 c-182 -180 -1292 -1264 -1586 -1550 l-179 -174 0 -1144 0
-1144 3500 0 3500 0 0 1381 c0 1101 -3 1379 -12 1373 -7 -5 -78 -56 -158 -114
-910 -664 -1523 -1059 -2045 -1315 -277 -137 -412 -177 -595 -178 -163 -1
-269 41 -366 145 -216 234 -239 746 -60 1365 99 342 271 703 446 933 32 42 65
82 74 89 10 8 22 23 28 34 17 32 -399 -333 -732 -642 -74 -69 -364 -342 -645
-607 -997 -941 -1102 -1030 -1296 -1107 -97 -39 -161 -50 -258 -45 -71 3 -99
10 -155 36 -90 42 -170 123 -218 223 -61 124 -72 182 -73 369 0 149 3 176 28
273 36 136 80 247 166 411 38 72 236 450 441 839 205 390 370 710 368 712 -2
2 -80 -71 -173 -163z"/>
</g>
</svg>
