<?xml version="1.0" encoding="UTF-8"?>
<svg width="229px" height="352px" viewBox="0 0 229 352" version="1.1" xmlns="http://www.w3.org/2000/svg" xmlns:xlink="http://www.w3.org/1999/xlink">
    <title>post-market-clinical-follow-up copy</title>
    <g id="Page-1" stroke="none" stroke-width="1" fill="none" fill-rule="evenodd">
        <g id="flattened" transform="translate(-36.000000, -129.000000)">
            <g id="post-market-clinical-follow-up-copy" transform="translate(36.000000, 129.000000)">
                <line x1="115" y1="98.5" x2="115" y2="339.363281" id="Line" stroke="#E74B00" stroke-width="3" stroke-linecap="square"></line>
                <g id="loop" transform="translate(14.000000, 28.000000)" stroke="#E74B00" stroke-dasharray="3" stroke-width="3">
                    <path d="M25,0 L176,0 C187.045695,-2.02906125e-15 196,8.954305 196,20 L196,55 C196,66.045695 187.045695,75 176,75 L25,75 C13.954305,75 5,66.045695 5,55 L5,20 C5,8.954305 13.954305,2.02906125e-15 25,0 Z" id="Rectangle"></path>
                </g>
                <g id="1" transform="translate(52.000000, 0.000000)">
                    <g id="consultation">
                        <rect id="Rectangle" stroke="#2C2E32" stroke-width="2" fill="#FFFFFF" x="1" y="1" width="125" height="53" rx="16"></rect>
                        <path d="M23.496,34.128 C24.2853333,34.128 25.008,34.008 25.664,33.768 C26.32,33.528 26.888,33.168 27.368,32.688 L27.368,32.688 L26.872,31.68 C26.328,32.1493333 25.792,32.4853333 25.264,32.688 C24.736,32.8906667 24.152,32.992 23.512,32.992 C22.2533333,32.992 21.2826667,32.584 20.6,31.768 C19.9173333,30.952 19.576,29.792 19.576,28.288 C19.576,26.7946667 19.92,25.6426667 20.608,24.832 C21.296,24.0213333 22.264,23.616 23.512,23.616 C24.152,23.616 24.736,23.7173333 25.264,23.92 C25.792,24.1226667 26.328,24.4586667 26.872,24.928 L26.872,24.928 L27.368,23.92 C26.888,23.44 26.32,23.08 25.664,22.84 C25.008,22.6 24.2853333,22.48 23.496,22.48 C22.4186667,22.48 21.4826667,22.7146667 20.688,23.184 C19.8933333,23.6533333 19.2826667,24.3226667 18.856,25.192 C18.4293333,26.0613333 18.216,27.0933333 18.216,28.288 C18.216,29.4826667 18.4293333,30.52 18.856,31.4 C19.2826667,32.28 19.8933333,32.9546667 20.688,33.424 C21.4826667,33.8933333 22.4186667,34.128 23.496,34.128 Z M32.744,34.112 C33.5013333,34.112 34.168,33.9413333 34.744,33.6 C35.32,33.2586667 35.7653333,32.7733333 36.08,32.144 C36.3946667,31.5146667 36.552,30.7786667 36.552,29.936 C36.552,29.0933333 36.3946667,28.3573333 36.08,27.728 C35.7653333,27.0986667 35.32,26.6133333 34.744,26.272 C34.168,25.9306667 33.5013333,25.76 32.744,25.76 C31.9866667,25.76 31.32,25.9306667 30.744,26.272 C30.168,26.6133333 29.7226667,27.0986667 29.408,27.728 C29.0933333,28.3573333 28.936,29.0933333 28.936,29.936 C28.936,30.7786667 29.0933333,31.5146667 29.408,32.144 C29.7226667,32.7733333 30.168,33.2586667 30.744,33.6 C31.32,33.9413333 31.9866667,34.112 32.744,34.112 Z M32.744,33.04 C31.944,33.04 31.328,32.776 30.896,32.248 C30.464,31.72 30.248,30.9493333 30.248,29.936 C30.248,28.9546667 30.4666667,28.1946667 30.904,27.656 C31.3413333,27.1173333 31.9546667,26.848 32.744,26.848 C33.5226667,26.848 34.1306667,27.1173333 34.568,27.656 C35.0053333,28.1946667 35.224,28.9546667 35.224,29.936 C35.224,30.9493333 35.0106667,31.72 34.584,32.248 C34.1573333,32.776 33.544,33.04 32.744,33.04 Z M39.864,34 L39.864,29.392 C39.864,28.6133333 40.088,27.9946667 40.536,27.536 C40.984,27.0773333 41.5813333,26.848 42.328,26.848 C42.968,26.848 43.4373333,27.0213333 43.736,27.368 C44.0346667,27.7146667 44.184,28.2613333 44.184,29.008 L44.184,29.008 L44.184,34 L45.48,34 L45.48,28.944 C45.48,26.8213333 44.5146667,25.76 42.584,25.76 C41.9546667,25.76 41.3946667,25.9013333 40.904,26.184 C40.4133333,26.4666667 40.0453333,26.8693333 39.8,27.392 L39.8,27.392 L39.672,25.952 L38.44,25.952 C38.5253333,26.624 38.568,27.376 38.568,28.208 L38.568,28.208 L38.568,34 L39.864,34 Z M50.648,34.112 C51.6186667,34.112 52.3866667,33.904 52.952,33.488 C53.5173333,33.072 53.8,32.5173333 53.8,31.824 C53.8,31.248 53.6186667,30.7813333 53.256,30.424 C52.8933333,30.0666667 52.3386667,29.8026667 51.592,29.632 L51.592,29.632 L50.232,29.296 C49.7946667,29.1893333 49.4773333,29.04 49.28,28.848 C49.0826667,28.656 48.984,28.3946667 48.984,28.064 C48.984,27.6693333 49.1413333,27.3626667 49.456,27.144 C49.7706667,26.9253333 50.216,26.816 50.792,26.816 C51.656,26.816 52.4666667,27.1306667 53.224,27.76 L53.224,27.76 L53.656,26.816 C53.3146667,26.4746667 52.8933333,26.2133333 52.392,26.032 C51.8906667,25.8506667 51.3573333,25.76 50.792,25.76 C49.864,25.76 49.1173333,25.9813333 48.552,26.424 C47.9866667,26.8666667 47.704,27.44 47.704,28.144 C47.704,28.6773333 47.888,29.136 48.256,29.52 C48.624,29.904 49.144,30.1706667 49.816,30.32 L49.816,30.32 L51.176,30.64 C51.6666667,30.7466667 52.0186667,30.896 52.232,31.088 C52.4453333,31.28 52.552,31.536 52.552,31.856 C52.552,32.2506667 52.3946667,32.552 52.08,32.76 C51.7653333,32.968 51.304,33.072 50.696,33.072 C50.1413333,33.072 49.64,32.9973333 49.192,32.848 C48.744,32.6986667 48.3013333,32.4533333 47.864,32.112 L47.864,32.112 L47.432,33.072 C48.2213333,33.7653333 49.2933333,34.112 50.648,34.112 Z M58.712,34.112 C59.288,34.112 59.8053333,33.984 60.264,33.728 C60.7226667,33.472 61.08,33.0986667 61.336,32.608 L61.336,32.608 L61.336,34 L62.6,34 L62.6,25.952 L61.304,25.952 L61.304,30.496 C61.304,31.2533333 61.0853333,31.864 60.648,32.328 C60.2106667,32.792 59.6346667,33.024 58.92,33.024 C58.312,33.024 57.8586667,32.8533333 57.56,32.512 C57.2613333,32.1706667 57.112,31.6373333 57.112,30.912 L57.112,30.912 L57.112,25.952 L55.816,25.952 L55.816,30.944 C55.816,31.9893333 56.0613333,32.7786667 56.552,33.312 C57.0426667,33.8453333 57.7626667,34.112 58.712,34.112 Z M66.392,34 L66.392,22.224 L65.096,22.224 L65.096,34 L66.392,34 Z M71.784,34.112 C72.2,34.112 72.5733333,34.0586667 72.904,33.952 L72.904,33.952 L72.904,32.848 C72.6266667,32.944 72.3386667,32.992 72.04,32.992 C71.592,32.992 71.2453333,32.872 71,32.632 C70.7546667,32.392 70.632,31.9733333 70.632,31.376 L70.632,31.376 L70.632,26.976 L72.936,26.976 L72.936,25.952 L70.632,25.952 L70.632,23.424 L69.336,23.888 L69.336,25.952 L67.768,25.952 L67.768,26.976 L69.336,26.976 L69.336,31.552 C69.336,32.3946667 69.552,33.032 69.984,33.464 C70.416,33.896 71.016,34.112 71.784,34.112 Z M77.592,34.112 C78.2213333,34.112 78.7733333,33.976 79.248,33.704 C79.7226667,33.432 80.0773333,33.0453333 80.312,32.544 L80.312,32.544 L80.312,34 L81.592,34 L81.592,25.952 L80.312,25.952 L80.312,27.344 C80.0666667,26.8426667 79.7093333,26.4533333 79.24,26.176 C78.7706667,25.8986667 78.2213333,25.76 77.592,25.76 C76.888,25.76 76.2666667,25.936 75.728,26.288 C75.1893333,26.64 74.7706667,27.1333333 74.472,27.768 C74.1733333,28.4026667 74.024,29.136 74.024,29.968 C74.024,30.8 74.1706667,31.528 74.464,32.152 C74.7573333,32.776 75.1733333,33.2586667 75.712,33.6 C76.2506667,33.9413333 76.8773333,34.112 77.592,34.112 Z M77.848,33.04 C77.048,33.04 76.4293333,32.7733333 75.992,32.24 C75.5546667,31.7066667 75.336,30.9493333 75.336,29.968 C75.336,28.9866667 75.5573333,28.2213333 76,27.672 C76.4426667,27.1226667 77.0586667,26.848 77.848,26.848 C78.6373333,26.848 79.2453333,27.1146667 79.672,27.648 C80.0986667,28.1813333 80.312,28.944 80.312,29.936 C80.312,30.928 80.0986667,31.6933333 79.672,32.232 C79.2453333,32.7706667 78.6373333,33.04 77.848,33.04 Z M86.984,34.112 C87.4,34.112 87.7733333,34.0586667 88.104,33.952 L88.104,33.952 L88.104,32.848 C87.8266667,32.944 87.5386667,32.992 87.24,32.992 C86.792,32.992 86.4453333,32.872 86.2,32.632 C85.9546667,32.392 85.832,31.9733333 85.832,31.376 L85.832,31.376 L85.832,26.976 L88.136,26.976 L88.136,25.952 L85.832,25.952 L85.832,23.424 L84.536,23.888 L84.536,25.952 L82.968,25.952 L82.968,26.976 L84.536,26.976 L84.536,31.552 C84.536,32.3946667 84.752,33.032 85.184,33.464 C85.616,33.896 86.216,34.112 86.984,34.112 Z M91.16,24.016 L91.16,22.544 L89.576,22.544 L89.576,24.016 L91.16,24.016 Z M91,34 L91,25.952 L89.704,25.952 L89.704,34 L91,34 Z M96.84,34.112 C97.5973333,34.112 98.264,33.9413333 98.84,33.6 C99.416,33.2586667 99.8613333,32.7733333 100.176,32.144 C100.490667,31.5146667 100.648,30.7786667 100.648,29.936 C100.648,29.0933333 100.490667,28.3573333 100.176,27.728 C99.8613333,27.0986667 99.416,26.6133333 98.84,26.272 C98.264,25.9306667 97.5973333,25.76 96.84,25.76 C96.0826667,25.76 95.416,25.9306667 94.84,26.272 C94.264,26.6133333 93.8186667,27.0986667 93.504,27.728 C93.1893333,28.3573333 93.032,29.0933333 93.032,29.936 C93.032,30.7786667 93.1893333,31.5146667 93.504,32.144 C93.8186667,32.7733333 94.264,33.2586667 94.84,33.6 C95.416,33.9413333 96.0826667,34.112 96.84,34.112 Z M96.84,33.04 C96.04,33.04 95.424,32.776 94.992,32.248 C94.56,31.72 94.344,30.9493333 94.344,29.936 C94.344,28.9546667 94.5626667,28.1946667 95,27.656 C95.4373333,27.1173333 96.0506667,26.848 96.84,26.848 C97.6186667,26.848 98.2266667,27.1173333 98.664,27.656 C99.1013333,28.1946667 99.32,28.9546667 99.32,29.936 C99.32,30.9493333 99.1066667,31.72 98.68,32.248 C98.2533333,32.776 97.64,33.04 96.84,33.04 Z M103.96,34 L103.96,29.392 C103.96,28.6133333 104.184,27.9946667 104.632,27.536 C105.08,27.0773333 105.677333,26.848 106.424,26.848 C107.064,26.848 107.533333,27.0213333 107.832,27.368 C108.130667,27.7146667 108.28,28.2613333 108.28,29.008 L108.28,29.008 L108.28,34 L109.576,34 L109.576,28.944 C109.576,26.8213333 108.610667,25.76 106.68,25.76 C106.050667,25.76 105.490667,25.9013333 105,26.184 C104.509333,26.4666667 104.141333,26.8693333 103.896,27.392 L103.896,27.392 L103.768,25.952 L102.536,25.952 C102.621333,26.624 102.664,27.376 102.664,28.208 L102.664,28.208 L102.664,34 L103.96,34 Z" id="Consultation" fill="#2C2E32" fill-rule="nonzero"></path>
                    </g>
                    <g id="proposal" transform="translate(0.000000, 75.000000)">
                        <rect id="Rectangle" stroke="#2C2E32" stroke-width="2" fill="#FFFFFF" x="1" y="1" width="125" height="53" rx="16"></rect>
                        <path d="M32.992,34 L32.992,28.992 L36.224,28.992 C37.3866667,28.992 38.2986667,28.7066667 38.96,28.136 C39.6213333,27.5653333 39.952,26.784 39.952,25.792 C39.952,24.8 39.624,24.0213333 38.968,23.456 C38.312,22.8906667 37.3973333,22.608 36.224,22.608 L36.224,22.608 L31.68,22.608 L31.68,34 L32.992,34 Z M36.112,27.904 L32.992,27.904 L32.992,23.696 L36.112,23.696 C36.9546667,23.696 37.5893333,23.8746667 38.016,24.232 C38.4426667,24.5893333 38.656,25.1093333 38.656,25.792 C38.656,26.4746667 38.4426667,26.9973333 38.016,27.36 C37.5893333,27.7226667 36.9546667,27.904 36.112,27.904 L36.112,27.904 Z M43.232,34 L43.232,29.408 C43.232,28.7146667 43.4213333,28.1253333 43.8,27.64 C44.1786667,27.1546667 44.7573333,26.912 45.536,26.912 C45.856,26.912 46.1386667,26.9546667 46.384,27.04 L46.384,27.04 L46.416,25.856 C46.192,25.792 45.9466667,25.76 45.68,25.76 C45.104,25.76 44.592,25.904 44.144,26.192 C43.696,26.48 43.3706667,26.896 43.168,27.44 L43.168,27.44 L43.04,25.952 L41.808,25.952 C41.8933333,26.624 41.936,27.376 41.936,28.208 L41.936,28.208 L41.936,34 L43.232,34 Z M51.056,34.112 C51.8133333,34.112 52.48,33.9413333 53.056,33.6 C53.632,33.2586667 54.0773333,32.7733333 54.392,32.144 C54.7066667,31.5146667 54.864,30.7786667 54.864,29.936 C54.864,29.0933333 54.7066667,28.3573333 54.392,27.728 C54.0773333,27.0986667 53.632,26.6133333 53.056,26.272 C52.48,25.9306667 51.8133333,25.76 51.056,25.76 C50.2986667,25.76 49.632,25.9306667 49.056,26.272 C48.48,26.6133333 48.0346667,27.0986667 47.72,27.728 C47.4053333,28.3573333 47.248,29.0933333 47.248,29.936 C47.248,30.7786667 47.4053333,31.5146667 47.72,32.144 C48.0346667,32.7733333 48.48,33.2586667 49.056,33.6 C49.632,33.9413333 50.2986667,34.112 51.056,34.112 Z M51.056,33.04 C50.256,33.04 49.64,32.776 49.208,32.248 C48.776,31.72 48.56,30.9493333 48.56,29.936 C48.56,28.9546667 48.7786667,28.1946667 49.216,27.656 C49.6533333,27.1173333 50.2666667,26.848 51.056,26.848 C51.8346667,26.848 52.4426667,27.1173333 52.88,27.656 C53.3173333,28.1946667 53.536,28.9546667 53.536,29.936 C53.536,30.9493333 53.3226667,31.72 52.896,32.248 C52.4693333,32.776 51.856,33.04 51.056,33.04 Z M58.176,37.456 L58.176,32.512 C58.4213333,33.024 58.7786667,33.4186667 59.248,33.696 C59.7173333,33.9733333 60.2666667,34.112 60.896,34.112 C61.6106667,34.112 62.2373333,33.9413333 62.776,33.6 C63.3146667,33.2586667 63.7333333,32.776 64.032,32.152 C64.3306667,31.528 64.48,30.8 64.48,29.968 C64.48,29.136 64.3306667,28.4026667 64.032,27.768 C63.7333333,27.1333333 63.312,26.64 62.768,26.288 C62.224,25.936 61.6,25.76 60.896,25.76 C60.2346667,25.76 59.6613333,25.912 59.176,26.216 C58.6906667,26.52 58.336,26.9493333 58.112,27.504 L58.112,27.504 L57.984,25.952 L56.752,25.952 C56.8373333,26.624 56.88,27.376 56.88,28.208 L56.88,28.208 L56.88,37.456 L58.176,37.456 Z M60.656,33.04 C59.856,33.04 59.2426667,32.7706667 58.816,32.232 C58.3893333,31.6933333 58.176,30.928 58.176,29.936 C58.176,28.944 58.3893333,28.1813333 58.816,27.648 C59.2426667,27.1146667 59.856,26.848 60.656,26.848 C61.4346667,26.848 62.0426667,27.1226667 62.48,27.672 C62.9173333,28.2213333 63.136,28.9866667 63.136,29.968 C63.136,30.9493333 62.92,31.7066667 62.488,32.24 C62.056,32.7733333 61.4453333,33.04 60.656,33.04 Z M69.808,34.112 C70.5653333,34.112 71.232,33.9413333 71.808,33.6 C72.384,33.2586667 72.8293333,32.7733333 73.144,32.144 C73.4586667,31.5146667 73.616,30.7786667 73.616,29.936 C73.616,29.0933333 73.4586667,28.3573333 73.144,27.728 C72.8293333,27.0986667 72.384,26.6133333 71.808,26.272 C71.232,25.9306667 70.5653333,25.76 69.808,25.76 C69.0506667,25.76 68.384,25.9306667 67.808,26.272 C67.232,26.6133333 66.7866667,27.0986667 66.472,27.728 C66.1573333,28.3573333 66,29.0933333 66,29.936 C66,30.7786667 66.1573333,31.5146667 66.472,32.144 C66.7866667,32.7733333 67.232,33.2586667 67.808,33.6 C68.384,33.9413333 69.0506667,34.112 69.808,34.112 Z M69.808,33.04 C69.008,33.04 68.392,32.776 67.96,32.248 C67.528,31.72 67.312,30.9493333 67.312,29.936 C67.312,28.9546667 67.5306667,28.1946667 67.968,27.656 C68.4053333,27.1173333 69.0186667,26.848 69.808,26.848 C70.5866667,26.848 71.1946667,27.1173333 71.632,27.656 C72.0693333,28.1946667 72.288,28.9546667 72.288,29.936 C72.288,30.9493333 72.0746667,31.72 71.648,32.248 C71.2213333,32.776 70.608,33.04 69.808,33.04 Z M78.352,34.112 C79.3226667,34.112 80.0906667,33.904 80.656,33.488 C81.2213333,33.072 81.504,32.5173333 81.504,31.824 C81.504,31.248 81.3226667,30.7813333 80.96,30.424 C80.5973333,30.0666667 80.0426667,29.8026667 79.296,29.632 L79.296,29.632 L77.936,29.296 C77.4986667,29.1893333 77.1813333,29.04 76.984,28.848 C76.7866667,28.656 76.688,28.3946667 76.688,28.064 C76.688,27.6693333 76.8453333,27.3626667 77.16,27.144 C77.4746667,26.9253333 77.92,26.816 78.496,26.816 C79.36,26.816 80.1706667,27.1306667 80.928,27.76 L80.928,27.76 L81.36,26.816 C81.0186667,26.4746667 80.5973333,26.2133333 80.096,26.032 C79.5946667,25.8506667 79.0613333,25.76 78.496,25.76 C77.568,25.76 76.8213333,25.9813333 76.256,26.424 C75.6906667,26.8666667 75.408,27.44 75.408,28.144 C75.408,28.6773333 75.592,29.136 75.96,29.52 C76.328,29.904 76.848,30.1706667 77.52,30.32 L77.52,30.32 L78.88,30.64 C79.3706667,30.7466667 79.7226667,30.896 79.936,31.088 C80.1493333,31.28 80.256,31.536 80.256,31.856 C80.256,32.2506667 80.0986667,32.552 79.784,32.76 C79.4693333,32.968 79.008,33.072 78.4,33.072 C77.8453333,33.072 77.344,32.9973333 76.896,32.848 C76.448,32.6986667 76.0053333,32.4533333 75.568,32.112 L75.568,32.112 L75.136,33.072 C75.9253333,33.7653333 76.9973333,34.112 78.352,34.112 Z M86.656,34.112 C87.2853333,34.112 87.8373333,33.976 88.312,33.704 C88.7866667,33.432 89.1413333,33.0453333 89.376,32.544 L89.376,32.544 L89.376,34 L90.656,34 L90.656,25.952 L89.376,25.952 L89.376,27.344 C89.1306667,26.8426667 88.7733333,26.4533333 88.304,26.176 C87.8346667,25.8986667 87.2853333,25.76 86.656,25.76 C85.952,25.76 85.3306667,25.936 84.792,26.288 C84.2533333,26.64 83.8346667,27.1333333 83.536,27.768 C83.2373333,28.4026667 83.088,29.136 83.088,29.968 C83.088,30.8 83.2346667,31.528 83.528,32.152 C83.8213333,32.776 84.2373333,33.2586667 84.776,33.6 C85.3146667,33.9413333 85.9413333,34.112 86.656,34.112 Z M86.912,33.04 C86.112,33.04 85.4933333,32.7733333 85.056,32.24 C84.6186667,31.7066667 84.4,30.9493333 84.4,29.968 C84.4,28.9866667 84.6213333,28.2213333 85.064,27.672 C85.5066667,27.1226667 86.1226667,26.848 86.912,26.848 C87.7013333,26.848 88.3093333,27.1146667 88.736,27.648 C89.1626667,28.1813333 89.376,28.944 89.376,29.936 C89.376,30.928 89.1626667,31.6933333 88.736,32.232 C88.3093333,32.7706667 87.7013333,33.04 86.912,33.04 Z M94.464,34 L94.464,22.224 L93.168,22.224 L93.168,34 L94.464,34 Z" id="Proposal" fill="#2C2E32" fill-rule="nonzero"></path>
                    </g>
                </g>
                <g id="2" transform="translate(0.000000, 149.000000)">
                    <rect id="Rectangle" stroke="#2C2E32" stroke-width="2" fill="#FFFFFF" x="1" y="1" width="227" height="53" rx="16"></rect>
                    <path d="M23.892,34.112 C24.468,34.112 25.0306667,34.016 25.58,33.824 C26.1293333,33.632 26.58,33.3706667 26.932,33.04 L26.932,33.04 L26.5,32.096 C25.7106667,32.7253333 24.8466667,33.04 23.908,33.04 C23.0226667,33.04 22.348,32.7786667 21.884,32.256 C21.42,31.7333333 21.1826667,30.96 21.172,29.936 L21.172,29.936 L27.076,29.936 L27.076,29.696 C27.076,28.4693333 26.772,27.5066667 26.164,26.808 C25.556,26.1093333 24.7186667,25.76 23.652,25.76 C22.916,25.76 22.26,25.936 21.684,26.288 C21.108,26.64 20.66,27.1333333 20.34,27.768 C20.02,28.4026667 19.86,29.1306667 19.86,29.952 C19.86,31.2426667 20.2173333,32.2586667 20.932,33 C21.6466667,33.7413333 22.6333333,34.112 23.892,34.112 Z M25.908,29.088 L21.22,29.088 C21.3373333,28.352 21.6066667,27.7813333 22.028,27.376 C22.4493333,26.9706667 22.996,26.768 23.668,26.768 C24.34,26.768 24.8653333,26.9653333 25.244,27.36 C25.6226667,27.7546667 25.844,28.3306667 25.908,29.088 L25.908,29.088 Z M34.068,34.128 C34.8573333,34.128 35.58,34.008 36.236,33.768 C36.892,33.528 37.46,33.168 37.94,32.688 L37.94,32.688 L37.444,31.68 C36.9,32.1493333 36.364,32.4853333 35.836,32.688 C35.308,32.8906667 34.724,32.992 34.084,32.992 C32.8253333,32.992 31.8546667,32.584 31.172,31.768 C30.4893333,30.952 30.148,29.792 30.148,28.288 C30.148,26.7946667 30.492,25.6426667 31.18,24.832 C31.868,24.0213333 32.836,23.616 34.084,23.616 C34.724,23.616 35.308,23.7173333 35.836,23.92 C36.364,24.1226667 36.9,24.4586667 37.444,24.928 L37.444,24.928 L37.94,23.92 C37.46,23.44 36.892,23.08 36.236,22.84 C35.58,22.6 34.8573333,22.48 34.068,22.48 C32.9906667,22.48 32.0546667,22.7146667 31.26,23.184 C30.4653333,23.6533333 29.8546667,24.3226667 29.428,25.192 C29.0013333,26.0613333 28.788,27.0933333 28.788,28.288 C28.788,29.4826667 29.0013333,30.52 29.428,31.4 C29.8546667,32.28 30.4653333,32.9546667 31.26,33.424 C32.0546667,33.8933333 32.9906667,34.128 34.068,34.128 Z M41.444,34 L41.444,29.024 L44.292,29.024 C44.8466667,29.024 45.276,29.104 45.58,29.264 C45.884,29.424 46.1213333,29.7386667 46.292,30.208 L46.292,30.208 L47.7,34 L49.092,34 L47.652,30.144 C47.492,29.7173333 47.2946667,29.3893333 47.06,29.16 C46.8253333,28.9306667 46.5426667,28.7893333 46.212,28.736 C46.948,28.5226667 47.5106667,28.1626667 47.9,27.656 C48.2893333,27.1493333 48.484,26.5226667 48.484,25.776 C48.484,24.752 48.156,23.968 47.5,23.424 C46.844,22.88 45.9026667,22.608 44.676,22.608 L44.676,22.608 L40.148,22.608 L40.148,34 L41.444,34 Z M44.564,27.936 L41.444,27.936 L41.444,23.696 L44.564,23.696 C45.46,23.696 46.1213333,23.8693333 46.548,24.216 C46.9746667,24.5626667 47.188,25.088 47.188,25.792 C47.188,27.2213333 46.3133333,27.936 44.564,27.936 L44.564,27.936 Z M52.532,34 L52.532,28.768 L57.956,28.768 L57.956,27.664 L52.532,27.664 L52.532,23.712 L58.276,23.712 L58.276,22.608 L51.236,22.608 L51.236,34 L52.532,34 Z M60.532,35.84 C60.884,35.488 61.1346667,35.1253333 61.284,34.752 C61.4333333,34.3786667 61.508,33.968 61.508,33.52 L61.508,33.52 L61.508,32.352 L59.86,32.352 L59.86,34 L60.628,34 C60.5746667,34.4373333 60.34,34.896 59.924,35.376 L59.924,35.376 L60.532,35.84 Z M71.508,34.112 C72.084,34.112 72.6466667,34.016 73.196,33.824 C73.7453333,33.632 74.196,33.3706667 74.548,33.04 L74.548,33.04 L74.116,32.096 C73.3266667,32.7253333 72.4626667,33.04 71.524,33.04 C70.6386667,33.04 69.964,32.7786667 69.5,32.256 C69.036,31.7333333 68.7986667,30.96 68.788,29.936 L68.788,29.936 L74.692,29.936 L74.692,29.696 C74.692,28.4693333 74.388,27.5066667 73.78,26.808 C73.172,26.1093333 72.3346667,25.76 71.268,25.76 C70.532,25.76 69.876,25.936 69.3,26.288 C68.724,26.64 68.276,27.1333333 67.956,27.768 C67.636,28.4026667 67.476,29.1306667 67.476,29.952 C67.476,31.2426667 67.8333333,32.2586667 68.548,33 C69.2626667,33.7413333 70.2493333,34.112 71.508,34.112 Z M73.524,29.088 L68.836,29.088 C68.9533333,28.352 69.2226667,27.7813333 69.644,27.376 C70.0653333,26.9706667 70.612,26.768 71.284,26.768 C71.956,26.768 72.4813333,26.9653333 72.86,27.36 C73.2386667,27.7546667 73.46,28.3306667 73.524,29.088 L73.524,29.088 Z M78.132,34 L78.132,28.992 L81.364,28.992 C82.5266667,28.992 83.4386667,28.7066667 84.1,28.136 C84.7613333,27.5653333 85.092,26.784 85.092,25.792 C85.092,24.8 84.764,24.0213333 84.108,23.456 C83.452,22.8906667 82.5373333,22.608 81.364,22.608 L81.364,22.608 L76.82,22.608 L76.82,34 L78.132,34 Z M81.252,27.904 L78.132,27.904 L78.132,23.696 L81.252,23.696 C82.0946667,23.696 82.7293333,23.8746667 83.156,24.232 C83.5826667,24.5893333 83.796,25.1093333 83.796,25.792 C83.796,26.4746667 83.5826667,26.9973333 83.156,27.36 C82.7293333,27.7226667 82.0946667,27.904 81.252,27.904 L81.252,27.904 Z M88.532,34 L88.532,29.024 L91.38,29.024 C91.9346667,29.024 92.364,29.104 92.668,29.264 C92.972,29.424 93.2093333,29.7386667 93.38,30.208 L93.38,30.208 L94.788,34 L96.18,34 L94.74,30.144 C94.58,29.7173333 94.3826667,29.3893333 94.148,29.16 C93.9133333,28.9306667 93.6306667,28.7893333 93.3,28.736 C94.036,28.5226667 94.5986667,28.1626667 94.988,27.656 C95.3773333,27.1493333 95.572,26.5226667 95.572,25.776 C95.572,24.752 95.244,23.968 94.588,23.424 C93.932,22.88 92.9906667,22.608 91.764,22.608 L91.764,22.608 L87.236,22.608 L87.236,34 L88.532,34 Z M91.652,27.936 L88.532,27.936 L88.532,23.696 L91.652,23.696 C92.548,23.696 93.2093333,23.8693333 93.636,24.216 C94.0626667,24.5626667 94.276,25.088 94.276,25.792 C94.276,27.2213333 93.4013333,27.936 91.652,27.936 L91.652,27.936 Z M103.092,34.128 C104.148,34.128 105.065333,33.8906667 105.844,33.416 C106.622667,32.9413333 107.222667,32.2666667 107.644,31.392 C108.065333,30.5173333 108.276,29.4826667 108.276,28.288 C108.276,27.104 108.068,26.0746667 107.652,25.2 C107.236,24.3253333 106.638667,23.6533333 105.86,23.184 C105.081333,22.7146667 104.158667,22.48 103.092,22.48 C102.025333,22.48 101.102667,22.7146667 100.324,23.184 C99.5453333,23.6533333 98.948,24.3253333 98.532,25.2 C98.116,26.0746667 97.908,27.1093333 97.908,28.304 C97.908,29.488 98.1186667,30.52 98.54,31.4 C98.9613333,32.28 99.5613333,32.9546667 100.34,33.424 C101.118667,33.8933333 102.036,34.128 103.092,34.128 Z M103.092,33.008 C101.876,33.008 100.932,32.5973333 100.26,31.776 C99.588,30.9546667 99.252,29.792 99.252,28.288 C99.252,26.7946667 99.588,25.64 100.26,24.824 C100.932,24.008 101.876,23.6 103.092,23.6 C104.308,23.6 105.249333,24.0053333 105.916,24.816 C106.582667,25.6266667 106.916,26.784 106.916,28.288 C106.916,29.792 106.58,30.9546667 105.908,31.776 C105.236,32.5973333 104.297333,33.008 103.092,33.008 Z M123.62,34.144 L124.324,33.248 C123.385333,32.8213333 122.638667,32.304 122.084,31.696 C122.446667,31.12 122.729333,30.4613333 122.932,29.72 C123.134667,28.9786667 123.246667,28.176 123.268,27.312 L123.268,27.312 L122.116,27.312 C122.084,28.688 121.817333,29.8613333 121.316,30.832 L121.316,30.832 L118.628,27.808 C119.492,27.2533333 120.094667,26.752 120.436,26.304 C120.777333,25.856 120.948,25.3493333 120.948,24.784 C120.948,24.08 120.718667,23.5226667 120.26,23.112 C119.801333,22.7013333 119.177333,22.496 118.388,22.496 C117.545333,22.496 116.868,22.7226667 116.356,23.176 C115.844,23.6293333 115.588,24.2293333 115.588,24.976 C115.588,25.392 115.686667,25.7946667 115.884,26.184 C116.081333,26.5733333 116.430667,27.056 116.932,27.632 C116.004,28.1866667 115.332,28.7386667 114.916,29.288 C114.5,29.8373333 114.292,30.4533333 114.292,31.136 C114.292,31.7226667 114.444,32.24 114.748,32.688 C115.052,33.136 115.481333,33.4853333 116.036,33.736 C116.590667,33.9866667 117.230667,34.112 117.956,34.112 C118.628,34.112 119.252,33.984 119.828,33.728 C120.404,33.472 120.921333,33.104 121.38,32.624 C121.988,33.232 122.734667,33.7386667 123.62,34.144 L123.62,34.144 Z M117.94,27.024 C117.502667,26.5226667 117.209333,26.1333333 117.06,25.856 C116.910667,25.5786667 116.836,25.2853333 116.836,24.976 C116.836,24.528 116.98,24.168 117.268,23.896 C117.556,23.624 117.934667,23.488 118.404,23.488 C118.82,23.488 119.156,23.6133333 119.412,23.864 C119.668,24.1146667 119.796,24.4426667 119.796,24.848 C119.796,25.2213333 119.662667,25.568 119.396,25.888 C119.129333,26.208 118.644,26.5866667 117.94,27.024 Z M117.988,33.056 C117.252,33.056 116.665333,32.88 116.228,32.528 C115.790667,32.176 115.572,31.7013333 115.572,31.104 C115.572,30.592 115.726667,30.1306667 116.036,29.72 C116.345333,29.3093333 116.873333,28.8746667 117.62,28.416 L117.62,28.416 L120.66,31.824 C119.924,32.6453333 119.033333,33.056 117.988,33.056 Z M132.676,34.112 C133.305333,34.112 133.857333,33.976 134.332,33.704 C134.806667,33.432 135.161333,33.0453333 135.396,32.544 L135.396,32.544 L135.396,34 L136.676,34 L136.676,22.224 L135.38,22.224 L135.38,27.312 C135.145333,26.8213333 134.793333,26.44 134.324,26.168 C133.854667,25.896 133.305333,25.76 132.676,25.76 C131.972,25.76 131.348,25.9306667 130.804,26.272 C130.26,26.6133333 129.841333,27.096 129.548,27.72 C129.254667,28.344 129.108,29.072 129.108,29.904 C129.108,30.736 129.257333,31.4693333 129.556,32.104 C129.854667,32.7386667 130.273333,33.232 130.812,33.584 C131.350667,33.936 131.972,34.112 132.676,34.112 Z M132.932,33.04 C132.142667,33.04 131.526667,32.7653333 131.084,32.216 C130.641333,31.6666667 130.42,30.896 130.42,29.904 C130.42,28.9333333 130.641333,28.1813333 131.084,27.648 C131.526667,27.1146667 132.142667,26.848 132.932,26.848 C133.721333,26.848 134.329333,27.1173333 134.756,27.656 C135.182667,28.1946667 135.396,28.9546667 135.396,29.936 C135.396,30.928 135.182667,31.6933333 134.756,32.232 C134.329333,32.7706667 133.721333,33.04 132.932,33.04 Z M142.516,34.112 C143.273333,34.112 143.94,33.9413333 144.516,33.6 C145.092,33.2586667 145.537333,32.7733333 145.852,32.144 C146.166667,31.5146667 146.324,30.7786667 146.324,29.936 C146.324,29.0933333 146.166667,28.3573333 145.852,27.728 C145.537333,27.0986667 145.092,26.6133333 144.516,26.272 C143.94,25.9306667 143.273333,25.76 142.516,25.76 C141.758667,25.76 141.092,25.9306667 140.516,26.272 C139.94,26.6133333 139.494667,27.0986667 139.18,27.728 C138.865333,28.3573333 138.708,29.0933333 138.708,29.936 C138.708,30.7786667 138.865333,31.5146667 139.18,32.144 C139.494667,32.7733333 139.94,33.2586667 140.516,33.6 C141.092,33.9413333 141.758667,34.112 142.516,34.112 Z M142.516,33.04 C141.716,33.04 141.1,32.776 140.668,32.248 C140.236,31.72 140.02,30.9493333 140.02,29.936 C140.02,28.9546667 140.238667,28.1946667 140.676,27.656 C141.113333,27.1173333 141.726667,26.848 142.516,26.848 C143.294667,26.848 143.902667,27.1173333 144.34,27.656 C144.777333,28.1946667 144.996,28.9546667 144.996,29.936 C144.996,30.9493333 144.782667,31.72 144.356,32.248 C143.929333,32.776 143.316,33.04 142.516,33.04 Z M151.716,34.112 C152.270667,34.112 152.806667,34.0186667 153.324,33.832 C153.841333,33.6453333 154.270667,33.392 154.612,33.072 L154.612,33.072 L154.18,32.112 C153.774667,32.432 153.382667,32.6666667 153.004,32.816 C152.625333,32.9653333 152.238667,33.04 151.844,33.04 C151.012,33.04 150.364,32.7706667 149.9,32.232 C149.436,31.6933333 149.204,30.9386667 149.204,29.968 C149.204,28.9866667 149.438667,28.2213333 149.908,27.672 C150.377333,27.1226667 151.022667,26.848 151.844,26.848 C152.238667,26.848 152.625333,26.9226667 153.004,27.072 C153.382667,27.2213333 153.774667,27.456 154.18,27.776 L154.18,27.776 L154.612,26.816 C154.281333,26.4853333 153.862667,26.2266667 153.356,26.04 C152.849333,25.8533333 152.324,25.76 151.78,25.76 C150.990667,25.76 150.3,25.936 149.708,26.288 C149.116,26.64 148.66,27.1333333 148.34,27.768 C148.02,28.4026667 147.86,29.136 147.86,29.968 C147.86,30.8 148.017333,31.528 148.332,32.152 C148.646667,32.776 149.094667,33.2586667 149.676,33.6 C150.257333,33.9413333 150.937333,34.112 151.716,34.112 Z M159.108,34.112 C159.684,34.112 160.201333,33.984 160.66,33.728 C161.118667,33.472 161.476,33.0986667 161.732,32.608 L161.732,32.608 L161.732,34 L162.996,34 L162.996,25.952 L161.7,25.952 L161.7,30.496 C161.7,31.2533333 161.481333,31.864 161.044,32.328 C160.606667,32.792 160.030667,33.024 159.316,33.024 C158.708,33.024 158.254667,32.8533333 157.956,32.512 C157.657333,32.1706667 157.508,31.6373333 157.508,30.912 L157.508,30.912 L157.508,25.952 L156.212,25.952 L156.212,30.944 C156.212,31.9893333 156.457333,32.7786667 156.948,33.312 C157.438667,33.8453333 158.158667,34.112 159.108,34.112 Z M166.788,34 L166.788,29.408 C166.788,28.6186667 166.982667,27.9946667 167.372,27.536 C167.761333,27.0773333 168.297333,26.848 168.98,26.848 C169.566667,26.848 169.993333,27.0213333 170.26,27.368 C170.526667,27.7146667 170.66,28.2613333 170.66,29.008 L170.66,29.008 L170.66,34 L171.956,34 L171.956,29.408 C171.956,28.6186667 172.148,27.9946667 172.532,27.536 C172.916,27.0773333 173.449333,26.848 174.132,26.848 C174.718667,26.848 175.142667,27.0186667 175.404,27.36 C175.665333,27.7013333 175.796,28.2506667 175.796,29.008 L175.796,29.008 L175.796,34 L177.092,34 L177.092,28.944 C177.092,26.8213333 176.201333,25.76 174.42,25.76 C173.822667,25.76 173.286667,25.9013333 172.812,26.184 C172.337333,26.4666667 171.977333,26.848 171.732,27.328 C171.54,26.7946667 171.241333,26.4 170.836,26.144 C170.430667,25.888 169.908,25.76 169.268,25.76 C168.681333,25.76 168.166667,25.8986667 167.724,26.176 C167.281333,26.4533333 166.948,26.848 166.724,27.36 L166.724,27.36 L166.596,25.952 L165.364,25.952 C165.449333,26.624 165.492,27.376 165.492,28.208 L165.492,28.208 L165.492,34 L166.788,34 Z M183.108,34.112 C183.684,34.112 184.246667,34.016 184.796,33.824 C185.345333,33.632 185.796,33.3706667 186.148,33.04 L186.148,33.04 L185.716,32.096 C184.926667,32.7253333 184.062667,33.04 183.124,33.04 C182.238667,33.04 181.564,32.7786667 181.1,32.256 C180.636,31.7333333 180.398667,30.96 180.388,29.936 L180.388,29.936 L186.292,29.936 L186.292,29.696 C186.292,28.4693333 185.988,27.5066667 185.38,26.808 C184.772,26.1093333 183.934667,25.76 182.868,25.76 C182.132,25.76 181.476,25.936 180.9,26.288 C180.324,26.64 179.876,27.1333333 179.556,27.768 C179.236,28.4026667 179.076,29.1306667 179.076,29.952 C179.076,31.2426667 179.433333,32.2586667 180.148,33 C180.862667,33.7413333 181.849333,34.112 183.108,34.112 Z M185.124,29.088 L180.436,29.088 C180.553333,28.352 180.822667,27.7813333 181.244,27.376 C181.665333,26.9706667 182.212,26.768 182.884,26.768 C183.556,26.768 184.081333,26.9653333 184.46,27.36 C184.838667,27.7546667 185.06,28.3306667 185.124,29.088 L185.124,29.088 Z M189.556,34 L189.556,29.392 C189.556,28.6133333 189.78,27.9946667 190.228,27.536 C190.676,27.0773333 191.273333,26.848 192.02,26.848 C192.66,26.848 193.129333,27.0213333 193.428,27.368 C193.726667,27.7146667 193.876,28.2613333 193.876,29.008 L193.876,29.008 L193.876,34 L195.172,34 L195.172,28.944 C195.172,26.8213333 194.206667,25.76 192.276,25.76 C191.646667,25.76 191.086667,25.9013333 190.596,26.184 C190.105333,26.4666667 189.737333,26.8693333 189.492,27.392 L189.492,27.392 L189.364,25.952 L188.132,25.952 C188.217333,26.624 188.26,27.376 188.26,28.208 L188.26,28.208 L188.26,34 L189.556,34 Z M200.5,34.112 C200.916,34.112 201.289333,34.0586667 201.62,33.952 L201.62,33.952 L201.62,32.848 C201.342667,32.944 201.054667,32.992 200.756,32.992 C200.308,32.992 199.961333,32.872 199.716,32.632 C199.470667,32.392 199.348,31.9733333 199.348,31.376 L199.348,31.376 L199.348,26.976 L201.652,26.976 L201.652,25.952 L199.348,25.952 L199.348,23.424 L198.052,23.888 L198.052,25.952 L196.484,25.952 L196.484,26.976 L198.052,26.976 L198.052,31.552 C198.052,32.3946667 198.268,33.032 198.7,33.464 C199.132,33.896 199.732,34.112 200.5,34.112 Z M205.94,34.112 C206.910667,34.112 207.678667,33.904 208.244,33.488 C208.809333,33.072 209.092,32.5173333 209.092,31.824 C209.092,31.248 208.910667,30.7813333 208.548,30.424 C208.185333,30.0666667 207.630667,29.8026667 206.884,29.632 L206.884,29.632 L205.524,29.296 C205.086667,29.1893333 204.769333,29.04 204.572,28.848 C204.374667,28.656 204.276,28.3946667 204.276,28.064 C204.276,27.6693333 204.433333,27.3626667 204.748,27.144 C205.062667,26.9253333 205.508,26.816 206.084,26.816 C206.948,26.816 207.758667,27.1306667 208.516,27.76 L208.516,27.76 L208.948,26.816 C208.606667,26.4746667 208.185333,26.2133333 207.684,26.032 C207.182667,25.8506667 206.649333,25.76 206.084,25.76 C205.156,25.76 204.409333,25.9813333 203.844,26.424 C203.278667,26.8666667 202.996,27.44 202.996,28.144 C202.996,28.6773333 203.18,29.136 203.548,29.52 C203.916,29.904 204.436,30.1706667 205.108,30.32 L205.108,30.32 L206.468,30.64 C206.958667,30.7466667 207.310667,30.896 207.524,31.088 C207.737333,31.28 207.844,31.536 207.844,31.856 C207.844,32.2506667 207.686667,32.552 207.372,32.76 C207.057333,32.968 206.596,33.072 205.988,33.072 C205.433333,33.072 204.932,32.9973333 204.484,32.848 C204.036,32.6986667 203.593333,32.4533333 203.156,32.112 L203.156,32.112 L202.724,33.072 C203.513333,33.7653333 204.585333,34.112 205.94,34.112 Z" id="eCRF,ePRO&amp;documents" fill="#2C2E32" fill-rule="nonzero"></path>
                </g>
                <g id="3" transform="translate(35.000000, 223.000000)">
                    <rect id="Rectangle" stroke="#2C2E32" stroke-width="2" fill="#FFFFFF" x="1" y="1" width="157" height="53" rx="16"></rect>
                    <path d="M22.92,34.128 C23.7733333,34.128 24.5173333,33.9946667 25.152,33.728 C25.7866667,33.4613333 26.2746667,33.0853333 26.616,32.6 C26.9573333,32.1146667 27.128,31.552 27.128,30.912 C27.128,30.2506667 26.9413333,29.72 26.568,29.32 C26.1946667,28.92 25.728,28.6213333 25.168,28.424 C24.608,28.2266667 23.8373333,28.0106667 22.856,27.776 C21.9493333,27.5626667 21.2773333,27.312 20.84,27.024 C20.4026667,26.736 20.184,26.304 20.184,25.728 C20.184,25.0666667 20.4346667,24.5466667 20.936,24.168 C21.4373333,23.7893333 22.1306667,23.6 23.016,23.6 C23.6666667,23.6 24.2666667,23.7066667 24.816,23.92 C25.3653333,24.1333333 25.9066667,24.4693333 26.44,24.928 L26.44,24.928 L26.952,23.92 C26.4826667,23.4506667 25.9066667,23.0933333 25.224,22.848 C24.5413333,22.6026667 23.8053333,22.48 23.016,22.48 C22.184,22.48 21.456,22.6186667 20.832,22.896 C20.208,23.1733333 19.7253333,23.56 19.384,24.056 C19.0426667,24.552 18.872,25.1253333 18.872,25.776 C18.872,26.4586667 19.048,27.0106667 19.4,27.432 C19.752,27.8533333 20.2106667,28.176 20.776,28.4 C21.3413333,28.624 22.0613333,28.832 22.936,29.024 C23.5866667,29.1733333 24.1066667,29.3173333 24.496,29.456 C24.8853333,29.5946667 25.2,29.784 25.44,30.024 C25.68,30.264 25.8,30.576 25.8,30.96 C25.8,31.6106667 25.552,32.1146667 25.056,32.472 C24.56,32.8293333 23.8533333,33.008 22.936,33.008 C22.1573333,33.008 21.4746667,32.9066667 20.888,32.704 C20.3013333,32.5013333 19.7253333,32.16 19.16,31.68 L19.16,31.68 L18.664,32.688 C19.72,33.648 21.1386667,34.128 22.92,34.128 Z M30.568,24.016 L30.568,22.544 L28.984,22.544 L28.984,24.016 L30.568,24.016 Z M30.408,34 L30.408,25.952 L29.112,25.952 L29.112,34 L30.408,34 Z M35.8,34.112 C36.216,34.112 36.5893333,34.0586667 36.92,33.952 L36.92,33.952 L36.92,32.848 C36.6426667,32.944 36.3546667,32.992 36.056,32.992 C35.608,32.992 35.2613333,32.872 35.016,32.632 C34.7706667,32.392 34.648,31.9733333 34.648,31.376 L34.648,31.376 L34.648,26.976 L36.952,26.976 L36.952,25.952 L34.648,25.952 L34.648,23.424 L33.352,23.888 L33.352,25.952 L31.784,25.952 L31.784,26.976 L33.352,26.976 L33.352,31.552 C33.352,32.3946667 33.568,33.032 34,33.464 C34.432,33.896 35.032,34.112 35.8,34.112 Z M42.072,34.112 C42.648,34.112 43.2106667,34.016 43.76,33.824 C44.3093333,33.632 44.76,33.3706667 45.112,33.04 L45.112,33.04 L44.68,32.096 C43.8906667,32.7253333 43.0266667,33.04 42.088,33.04 C41.2026667,33.04 40.528,32.7786667 40.064,32.256 C39.6,31.7333333 39.3626667,30.96 39.352,29.936 L39.352,29.936 L45.256,29.936 L45.256,29.696 C45.256,28.4693333 44.952,27.5066667 44.344,26.808 C43.736,26.1093333 42.8986667,25.76 41.832,25.76 C41.096,25.76 40.44,25.936 39.864,26.288 C39.288,26.64 38.84,27.1333333 38.52,27.768 C38.2,28.4026667 38.04,29.1306667 38.04,29.952 C38.04,31.2426667 38.3973333,32.2586667 39.112,33 C39.8266667,33.7413333 40.8133333,34.112 42.072,34.112 Z M44.088,29.088 L39.4,29.088 C39.5173333,28.352 39.7866667,27.7813333 40.208,27.376 C40.6293333,26.9706667 41.176,26.768 41.848,26.768 C42.52,26.768 43.0453333,26.9653333 43.424,27.36 C43.8026667,27.7546667 44.024,28.3306667 44.088,29.088 L44.088,29.088 Z M54.728,34.112 C55.4853333,34.112 56.152,33.9413333 56.728,33.6 C57.304,33.2586667 57.7493333,32.7733333 58.064,32.144 C58.3786667,31.5146667 58.536,30.7786667 58.536,29.936 C58.536,29.0933333 58.3786667,28.3573333 58.064,27.728 C57.7493333,27.0986667 57.304,26.6133333 56.728,26.272 C56.152,25.9306667 55.4853333,25.76 54.728,25.76 C53.9706667,25.76 53.304,25.9306667 52.728,26.272 C52.152,26.6133333 51.7066667,27.0986667 51.392,27.728 C51.0773333,28.3573333 50.92,29.0933333 50.92,29.936 C50.92,30.7786667 51.0773333,31.5146667 51.392,32.144 C51.7066667,32.7733333 52.152,33.2586667 52.728,33.6 C53.304,33.9413333 53.9706667,34.112 54.728,34.112 Z M54.728,33.04 C53.928,33.04 53.312,32.776 52.88,32.248 C52.448,31.72 52.232,30.9493333 52.232,29.936 C52.232,28.9546667 52.4506667,28.1946667 52.888,27.656 C53.3253333,27.1173333 53.9386667,26.848 54.728,26.848 C55.5066667,26.848 56.1146667,27.1173333 56.552,27.656 C56.9893333,28.1946667 57.208,28.9546667 57.208,29.936 C57.208,30.9493333 56.9946667,31.72 56.568,32.248 C56.1413333,32.776 55.528,33.04 54.728,33.04 Z M61.848,34 L61.848,29.392 C61.848,28.6133333 62.072,27.9946667 62.52,27.536 C62.968,27.0773333 63.5653333,26.848 64.312,26.848 C64.952,26.848 65.4213333,27.0213333 65.72,27.368 C66.0186667,27.7146667 66.168,28.2613333 66.168,29.008 L66.168,29.008 L66.168,34 L67.464,34 L67.464,28.944 C67.464,26.8213333 66.4986667,25.76 64.568,25.76 C63.9386667,25.76 63.3786667,25.9013333 62.888,26.184 C62.3973333,26.4666667 62.0293333,26.8693333 61.784,27.392 L61.784,27.392 L61.656,25.952 L60.424,25.952 C60.5093333,26.624 60.552,27.376 60.552,28.208 L60.552,28.208 L60.552,34 L61.848,34 Z M74.36,30.24 L74.36,29.168 L69.832,29.168 L69.832,30.24 L74.36,30.24 Z M80.792,34.112 C81.496,34.112 82.12,33.936 82.664,33.584 C83.208,33.232 83.6293333,32.7386667 83.928,32.104 C84.2266667,31.4693333 84.376,30.736 84.376,29.904 C84.376,29.072 84.2266667,28.344 83.928,27.72 C83.6293333,27.096 83.208,26.6133333 82.664,26.272 C82.12,25.9306667 81.496,25.76 80.792,25.76 C80.1626667,25.76 79.6106667,25.8986667 79.136,26.176 C78.6613333,26.4533333 78.3066667,26.8533333 78.072,27.376 L78.072,27.376 L78.072,22.224 L76.776,22.224 L76.776,34 L78.072,34 L78.072,32.512 C78.3173333,33.024 78.6746667,33.4186667 79.144,33.696 C79.6133333,33.9733333 80.1626667,34.112 80.792,34.112 Z M80.552,33.04 C79.752,33.04 79.1386667,32.7706667 78.712,32.232 C78.2853333,31.6933333 78.072,30.928 78.072,29.936 C78.072,28.944 78.2853333,28.1813333 78.712,27.648 C79.1386667,27.1146667 79.752,26.848 80.552,26.848 C81.3413333,26.848 81.952,27.1146667 82.384,27.648 C82.816,28.1813333 83.032,28.9333333 83.032,29.904 C83.032,30.896 82.8133333,31.6666667 82.376,32.216 C81.9386667,32.7653333 81.3306667,33.04 80.552,33.04 Z M89.704,34.112 C90.4613333,34.112 91.128,33.9413333 91.704,33.6 C92.28,33.2586667 92.7253333,32.7733333 93.04,32.144 C93.3546667,31.5146667 93.512,30.7786667 93.512,29.936 C93.512,29.0933333 93.3546667,28.3573333 93.04,27.728 C92.7253333,27.0986667 92.28,26.6133333 91.704,26.272 C91.128,25.9306667 90.4613333,25.76 89.704,25.76 C88.9466667,25.76 88.28,25.9306667 87.704,26.272 C87.128,26.6133333 86.6826667,27.0986667 86.368,27.728 C86.0533333,28.3573333 85.896,29.0933333 85.896,29.936 C85.896,30.7786667 86.0533333,31.5146667 86.368,32.144 C86.6826667,32.7733333 87.128,33.2586667 87.704,33.6 C88.28,33.9413333 88.9466667,34.112 89.704,34.112 Z M89.704,33.04 C88.904,33.04 88.288,32.776 87.856,32.248 C87.424,31.72 87.208,30.9493333 87.208,29.936 C87.208,28.9546667 87.4266667,28.1946667 87.864,27.656 C88.3013333,27.1173333 88.9146667,26.848 89.704,26.848 C90.4826667,26.848 91.0906667,27.1173333 91.528,27.656 C91.9653333,28.1946667 92.184,28.9546667 92.184,29.936 C92.184,30.9493333 91.9706667,31.72 91.544,32.248 C91.1173333,32.776 90.504,33.04 89.704,33.04 Z M98.616,34.112 C99.2453333,34.112 99.7973333,33.976 100.272,33.704 C100.746667,33.432 101.101333,33.0453333 101.336,32.544 L101.336,32.544 L101.336,34 L102.616,34 L102.616,25.952 L101.336,25.952 L101.336,27.344 C101.090667,26.8426667 100.733333,26.4533333 100.264,26.176 C99.7946667,25.8986667 99.2453333,25.76 98.616,25.76 C97.912,25.76 97.2906667,25.936 96.752,26.288 C96.2133333,26.64 95.7946667,27.1333333 95.496,27.768 C95.1973333,28.4026667 95.048,29.136 95.048,29.968 C95.048,30.8 95.1946667,31.528 95.488,32.152 C95.7813333,32.776 96.1973333,33.2586667 96.736,33.6 C97.2746667,33.9413333 97.9013333,34.112 98.616,34.112 Z M98.872,33.04 C98.072,33.04 97.4533333,32.7733333 97.016,32.24 C96.5786667,31.7066667 96.36,30.9493333 96.36,29.968 C96.36,28.9866667 96.5813333,28.2213333 97.024,27.672 C97.4666667,27.1226667 98.0826667,26.848 98.872,26.848 C99.6613333,26.848 100.269333,27.1146667 100.696,27.648 C101.122667,28.1813333 101.336,28.944 101.336,29.936 C101.336,30.928 101.122667,31.6933333 100.696,32.232 C100.269333,32.7706667 99.6613333,33.04 98.872,33.04 Z M106.424,34 L106.424,29.408 C106.424,28.7146667 106.613333,28.1253333 106.992,27.64 C107.370667,27.1546667 107.949333,26.912 108.728,26.912 C109.048,26.912 109.330667,26.9546667 109.576,27.04 L109.576,27.04 L109.608,25.856 C109.384,25.792 109.138667,25.76 108.872,25.76 C108.296,25.76 107.784,25.904 107.336,26.192 C106.888,26.48 106.562667,26.896 106.36,27.44 L106.36,27.44 L106.232,25.952 L105,25.952 C105.085333,26.624 105.128,27.376 105.128,28.208 L105.128,28.208 L105.128,34 L106.424,34 Z M114.008,34.112 C114.637333,34.112 115.189333,33.976 115.664,33.704 C116.138667,33.432 116.493333,33.0453333 116.728,32.544 L116.728,32.544 L116.728,34 L118.008,34 L118.008,22.224 L116.712,22.224 L116.712,27.312 C116.477333,26.8213333 116.125333,26.44 115.656,26.168 C115.186667,25.896 114.637333,25.76 114.008,25.76 C113.304,25.76 112.68,25.9306667 112.136,26.272 C111.592,26.6133333 111.173333,27.096 110.88,27.72 C110.586667,28.344 110.44,29.072 110.44,29.904 C110.44,30.736 110.589333,31.4693333 110.888,32.104 C111.186667,32.7386667 111.605333,33.232 112.144,33.584 C112.682667,33.936 113.304,34.112 114.008,34.112 Z M114.264,33.04 C113.474667,33.04 112.858667,32.7653333 112.416,32.216 C111.973333,31.6666667 111.752,30.896 111.752,29.904 C111.752,28.9333333 111.973333,28.1813333 112.416,27.648 C112.858667,27.1146667 113.474667,26.848 114.264,26.848 C115.053333,26.848 115.661333,27.1173333 116.088,27.656 C116.514667,28.1946667 116.728,28.9546667 116.728,29.936 C116.728,30.928 116.514667,31.6933333 116.088,32.232 C115.661333,32.7706667 115.053333,33.04 114.264,33.04 Z M121.976,24.016 L121.976,22.544 L120.392,22.544 L120.392,24.016 L121.976,24.016 Z M121.816,34 L121.816,25.952 L120.52,25.952 L120.52,34 L121.816,34 Z M125.624,34 L125.624,29.392 C125.624,28.6133333 125.848,27.9946667 126.296,27.536 C126.744,27.0773333 127.341333,26.848 128.088,26.848 C128.728,26.848 129.197333,27.0213333 129.496,27.368 C129.794667,27.7146667 129.944,28.2613333 129.944,29.008 L129.944,29.008 L129.944,34 L131.24,34 L131.24,28.944 C131.24,26.8213333 130.274667,25.76 128.344,25.76 C127.714667,25.76 127.154667,25.9013333 126.664,26.184 C126.173333,26.4666667 125.805333,26.8693333 125.56,27.392 L125.56,27.392 L125.432,25.952 L124.2,25.952 C124.285333,26.624 124.328,27.376 124.328,28.208 L124.328,28.208 L124.328,34 L125.624,34 Z M137.224,37.568 C138.418667,37.568 139.322667,37.2613333 139.936,36.648 C140.549333,36.0346667 140.856,35.1306667 140.856,33.936 L140.856,33.936 L140.856,25.952 L139.56,25.952 L139.56,27.344 C139.314667,26.8426667 138.954667,26.4533333 138.48,26.176 C138.005333,25.8986667 137.448,25.76 136.808,25.76 C136.104,25.76 135.477333,25.9253333 134.928,26.256 C134.378667,26.5866667 133.954667,27.056 133.656,27.664 C133.357333,28.272 133.208,28.9706667 133.208,29.76 C133.208,30.5493333 133.357333,31.248 133.656,31.856 C133.954667,32.464 134.378667,32.9333333 134.928,33.264 C135.477333,33.5946667 136.104,33.76 136.808,33.76 C137.458667,33.76 138.021333,33.6186667 138.496,33.336 C138.970667,33.0533333 139.330667,32.656 139.576,32.144 L139.576,32.144 L139.576,34.048 C139.576,34.8586667 139.378667,35.4693333 138.984,35.88 C138.589333,36.2906667 138.002667,36.496 137.224,36.496 C136.68,36.496 136.181333,36.432 135.728,36.304 C135.274667,36.176 134.792,35.968 134.28,35.68 L134.28,35.68 L134.056,36.736 C134.941333,37.2906667 135.997333,37.568 137.224,37.568 Z M137.064,32.672 C136.274667,32.672 135.653333,32.4133333 135.2,31.896 C134.746667,31.3786667 134.52,30.6666667 134.52,29.76 C134.52,28.8533333 134.746667,28.1413333 135.2,27.624 C135.653333,27.1066667 136.274667,26.848 137.064,26.848 C137.842667,26.848 138.453333,27.1066667 138.896,27.624 C139.338667,28.1413333 139.56,28.8533333 139.56,29.76 C139.56,30.6666667 139.338667,31.3786667 138.896,31.896 C138.453333,32.4133333 137.842667,32.672 137.064,32.672 Z" id="Siteon-boarding" fill="#2C2E32" fill-rule="nonzero"></path>
                </g>
                <g id="4" transform="translate(35.000000, 297.000000)">
                    <rect id="Rectangle" fill="#E74B00" x="0" y="0" width="159" height="55" rx="16"></rect>
                    <path d="M56.52,34 L56.52,29.264 L58.584,29.264 C59.0106667,29.264 59.3573333,29.3333333 59.624,29.472 C59.8906667,29.6106667 60.088,29.856 60.216,30.208 L60.216,30.208 L61.672,34 L63.848,34 L62.456,30.352 C62.1573333,29.552 61.672,29.0826667 61,28.944 C61.736,28.72 62.304,28.344 62.704,27.816 C63.104,27.288 63.304,26.6453333 63.304,25.888 C63.304,24.832 62.968,24.0213333 62.296,23.456 C61.624,22.8906667 60.6426667,22.608 59.352,22.608 L59.352,22.608 L54.472,22.608 L54.472,34 L56.52,34 Z M59.064,27.664 L56.488,27.664 L56.488,24.208 L59.064,24.208 C59.8533333,24.208 60.432,24.3493333 60.8,24.632 C61.168,24.9146667 61.352,25.344 61.352,25.92 C61.352,26.5066667 61.1653333,26.944 60.792,27.232 C60.4186667,27.52 59.8426667,27.664 59.064,27.664 L59.064,27.664 Z M69.368,34.128 C69.944,34.128 70.512,34.0346667 71.072,33.848 C71.632,33.6613333 72.104,33.4133333 72.488,33.104 L72.488,33.104 L71.912,31.728 C71.1546667,32.304 70.3333333,32.592 69.448,32.592 C68.68,32.592 68.1013333,32.3866667 67.712,31.976 C67.3226667,31.5653333 67.1066667,30.928 67.064,30.064 L67.064,30.064 L72.632,30.064 L72.632,29.76 C72.632,28.5013333 72.3093333,27.512 71.664,26.792 C71.0186667,26.072 70.1413333,25.712 69.032,25.712 C68.2746667,25.712 67.5973333,25.8906667 67,26.248 C66.4026667,26.6053333 65.9386667,27.104 65.608,27.744 C65.2773333,28.384 65.112,29.1146667 65.112,29.936 C65.112,31.2373333 65.4906667,32.2613333 66.248,33.008 C67.0053333,33.7546667 68.0453333,34.128 69.368,34.128 Z M70.888,28.992 L67.128,28.992 C67.224,28.3946667 67.44,27.9386667 67.776,27.624 C68.112,27.3093333 68.5466667,27.152 69.08,27.152 C69.6133333,27.152 70.032,27.3066667 70.336,27.616 C70.64,27.9253333 70.824,28.384 70.888,28.992 L70.888,28.992 Z M76.312,37.456 L76.312,32.704 C76.5573333,33.152 76.9093333,33.5013333 77.368,33.752 C77.8266667,34.0026667 78.3493333,34.128 78.936,34.128 C79.64,34.128 80.2613333,33.9573333 80.8,33.616 C81.3386667,33.2746667 81.7573333,32.7893333 82.056,32.16 C82.3546667,31.5306667 82.504,30.8 82.504,29.968 C82.504,29.136 82.352,28.3973333 82.048,27.752 C81.744,27.1066667 81.3226667,26.6053333 80.784,26.248 C80.2453333,25.8906667 79.6293333,25.712 78.936,25.712 C78.3066667,25.712 77.752,25.8533333 77.272,26.136 C76.792,26.4186667 76.4453333,26.8106667 76.232,27.312 L76.232,27.312 L76.072,25.92 L74.2,25.92 C74.2853333,26.592 74.328,27.3546667 74.328,28.208 L74.328,28.208 L74.328,37.456 L76.312,37.456 Z M78.392,32.56 C77.72,32.56 77.2026667,32.3333333 76.84,31.88 C76.4773333,31.4266667 76.296,30.7786667 76.296,29.936 C76.296,29.0826667 76.4773333,28.4266667 76.84,27.968 C77.2026667,27.5093333 77.7253333,27.28 78.408,27.28 C79.0693333,27.28 79.5813333,27.5173333 79.944,27.992 C80.3066667,28.4666667 80.488,29.1253333 80.488,29.968 C80.488,30.8 80.3066667,31.44 79.944,31.888 C79.5813333,32.336 79.064,32.56 78.392,32.56 Z M87.912,34.128 C88.7226667,34.128 89.4373333,33.9573333 90.056,33.616 C90.6746667,33.2746667 91.152,32.7866667 91.488,32.152 C91.824,31.5173333 91.992,30.7733333 91.992,29.92 C91.992,29.0666667 91.824,28.3226667 91.488,27.688 C91.152,27.0533333 90.6746667,26.5653333 90.056,26.224 C89.4373333,25.8826667 88.7226667,25.712 87.912,25.712 C87.0906667,25.712 86.368,25.8826667 85.744,26.224 C85.12,26.5653333 84.64,27.0533333 84.304,27.688 C83.968,28.3226667 83.8,29.0666667 83.8,29.92 C83.8,30.7733333 83.968,31.5173333 84.304,32.152 C84.64,32.7866667 85.12,33.2746667 85.744,33.616 C86.368,33.9573333 87.0906667,34.128 87.912,34.128 Z M87.896,32.56 C87.224,32.56 86.7093333,32.3386667 86.352,31.896 C85.9946667,31.4533333 85.816,30.7946667 85.816,29.92 C85.816,29.056 85.9973333,28.3973333 86.36,27.944 C86.7226667,27.4906667 87.24,27.264 87.912,27.264 C88.5733333,27.264 89.0853333,27.4906667 89.448,27.944 C89.8106667,28.3973333 89.992,29.056 89.992,29.92 C89.992,30.7946667 89.8133333,31.4533333 89.456,31.896 C89.0986667,32.3386667 88.5786667,32.56 87.896,32.56 Z M95.704,34 L95.704,29.632 C95.704,28.9813333 95.8826667,28.4586667 96.24,28.064 C96.5973333,27.6693333 97.1173333,27.472 97.8,27.472 C98.1626667,27.472 98.5146667,27.5413333 98.856,27.68 L98.856,27.68 L98.872,25.856 C98.648,25.7706667 98.3813333,25.728 98.072,25.728 C97.5173333,25.728 97.0213333,25.8666667 96.584,26.144 C96.1466667,26.4213333 95.8266667,26.8213333 95.624,27.344 L95.624,27.344 L95.464,25.92 L93.592,25.92 C93.6773333,26.592 93.72,27.3546667 93.72,28.208 L93.72,28.208 L93.72,34 L95.704,34 Z M103.384,34.112 C103.885333,34.112 104.312,34.048 104.664,33.92 L104.664,33.92 L104.664,32.336 C104.376,32.4213333 104.109333,32.464 103.864,32.464 C102.978667,32.464 102.536,31.9893333 102.536,31.04 L102.536,31.04 L102.536,27.424 L104.68,27.424 L104.68,25.92 L102.536,25.92 L102.536,23.28 L100.536,23.952 L100.536,25.92 L98.984,25.92 L98.984,27.424 L100.536,27.424 L100.536,31.136 C100.536,32.096 100.781333,32.832 101.272,33.344 C101.762667,33.856 102.466667,34.112 103.384,34.112 Z M108.152,24.224 L108.152,22.256 L105.928,22.256 L105.928,24.224 L108.152,24.224 Z M108.04,34 L108.04,25.92 L106.056,25.92 L106.056,34 L108.04,34 Z M112.216,34 L112.216,29.424 C112.216,28.784 112.402667,28.2693333 112.776,27.88 C113.149333,27.4906667 113.64,27.296 114.248,27.296 C114.76,27.296 115.138667,27.4426667 115.384,27.736 C115.629333,28.0293333 115.752,28.496 115.752,29.136 L115.752,29.136 L115.752,34 L117.752,34 L117.752,29.04 C117.752,26.8213333 116.786667,25.712 114.856,25.712 C114.258667,25.712 113.722667,25.8453333 113.248,26.112 C112.773333,26.3786667 112.397333,26.7573333 112.12,27.248 L112.12,27.248 L111.976,25.92 L110.104,25.92 C110.189333,26.592 110.232,27.3546667 110.232,28.208 L110.232,28.208 L110.232,34 L112.216,34 Z M123.592,37.584 C124.936,37.584 125.954667,37.2586667 126.648,36.608 C127.341333,35.9573333 127.688,35.0026667 127.688,33.744 L127.688,33.744 L127.688,25.92 L125.704,25.92 L125.704,27.136 C125.458667,26.688 125.104,26.3386667 124.64,26.088 C124.176,25.8373333 123.645333,25.712 123.048,25.712 C122.344,25.712 121.717333,25.88 121.168,26.216 C120.618667,26.552 120.192,27.0266667 119.888,27.64 C119.584,28.2533333 119.432,28.9546667 119.432,29.744 C119.432,30.5333333 119.584,31.2346667 119.888,31.848 C120.192,32.4613333 120.618667,32.936 121.168,33.272 C121.717333,33.608 122.344,33.776 123.048,33.776 C123.634667,33.776 124.162667,33.64 124.632,33.368 C125.101333,33.096 125.458667,32.7413333 125.704,32.304 L125.704,32.304 L125.704,33.904 C125.704,35.3333333 124.984,36.048 123.544,36.048 C122.573333,36.048 121.597333,35.792 120.616,35.28 L120.616,35.28 L120.296,36.8 C121.245333,37.3226667 122.344,37.584 123.592,37.584 Z M123.576,32.208 C122.914667,32.208 122.394667,31.9893333 122.016,31.552 C121.637333,31.1146667 121.448,30.512 121.448,29.744 C121.448,28.976 121.637333,28.3733333 122.016,27.936 C122.394667,27.4986667 122.914667,27.28 123.576,27.28 C124.248,27.28 124.770667,27.4986667 125.144,27.936 C125.517333,28.3733333 125.704,28.976 125.704,29.744 C125.704,30.512 125.514667,31.1146667 125.136,31.552 C124.757333,31.9893333 124.237333,32.208 123.576,32.208 Z" id="Reporting" fill="#FFFFFF" fill-rule="nonzero"></path>
                    <path d="M27,17 L27,26.3076923 L28.1621098,26.3076923 L28.7,24.9707015 L28.7,18.6923077 L37.2,18.6923077 L37.2,23.7692308 L42.3,23.7692308 L42.3,37.3076923 L28.7,37.3076923 L28.7,32.4389992 L28.6551761,32.3943815 L27.6424802,31.3846154 L27,31.3846154 L27,39 L44,39 L44,22.5793269 L43.7609375,22.3149038 L38.6609375,17.2379808 L38.3953125,17 L27,17 Z M39,20 L41,22 L39,22 L39,20 Z M31.6234375,23 L29.6378902,27.7699676 L29.4519527,27.5910539 L24,27.5910539 L24,29.2268368 L28.7480473,29.2268368 L30.2587888,30.683706 L31.6765625,27.2747589 L34.2265625,33 L35.986326,28.7667728 L36.2253885,29.2268368 L37.8291005,29.2268368 C38.1342505,29.7314758 38.6931,30.0447283 39.3,30.0447283 C40.23925,30.0447283 41,29.3127154 41,28.4089453 C41,27.5051752 40.23925,26.7731624 39.3,26.7731624 C38.69225,26.7731624 38.1308505,27.0864148 37.8291005,27.5910539 L37.2746115,27.5910539 L35.813674,24.7795519 L34.1734375,28.7252403 L31.6234375,23 Z" id="Fill-1" fill="#FFFFFF"></path>
                </g>
            </g>
        </g>
    </g>
</svg>