<?xml version="1.0" encoding="UTF-8"?>
<svg width="315px" height="352px" viewBox="0 0 315 352" version="1.1" xmlns="http://www.w3.org/2000/svg" xmlns:xlink="http://www.w3.org/1999/xlink">
    <title>software-as-a-medical-device</title>
    <g id="Page-1" stroke="none" stroke-width="1" fill="none" fill-rule="evenodd">
        <g id="flattened" transform="translate(-593.000000, -129.000000)">
            <g id="software-as-a-medical-device" transform="translate(593.000000, 129.000000)">
                <line x1="158" y1="98.5" x2="158" y2="339.363281" id="Line" stroke="#E74B00" stroke-width="3" stroke-linecap="square"></line>
                <g id="loop" transform="translate(30.000000, 28.000000)" stroke="#E74B00" stroke-dasharray="3" stroke-width="3">
                    <path d="M20,0 L235,0 C246.045695,-2.02906125e-15 255,8.954305 255,20 L255,55 C255,66.045695 246.045695,75 235,75 L20,75 C8.954305,75 1.3527075e-15,66.045695 0,55 L0,20 C-1.3527075e-15,8.954305 8.954305,2.02906125e-15 20,0 Z" id="Rectangle"></path>
                </g>
                <g id="1" transform="translate(53.000000, 0.000000)">
                    <g id="consultation" transform="translate(42.000000, 0.000000)">
                        <rect id="Rectangle" stroke="#2C2E32" stroke-width="2" fill="#FFFFFF" x="1" y="1" width="125" height="53" rx="16"></rect>
                        <path d="M23.496,34.128 C24.2853333,34.128 25.008,34.008 25.664,33.768 C26.32,33.528 26.888,33.168 27.368,32.688 L27.368,32.688 L26.872,31.68 C26.328,32.1493333 25.792,32.4853333 25.264,32.688 C24.736,32.8906667 24.152,32.992 23.512,32.992 C22.2533333,32.992 21.2826667,32.584 20.6,31.768 C19.9173333,30.952 19.576,29.792 19.576,28.288 C19.576,26.7946667 19.92,25.6426667 20.608,24.832 C21.296,24.0213333 22.264,23.616 23.512,23.616 C24.152,23.616 24.736,23.7173333 25.264,23.92 C25.792,24.1226667 26.328,24.4586667 26.872,24.928 L26.872,24.928 L27.368,23.92 C26.888,23.44 26.32,23.08 25.664,22.84 C25.008,22.6 24.2853333,22.48 23.496,22.48 C22.4186667,22.48 21.4826667,22.7146667 20.688,23.184 C19.8933333,23.6533333 19.2826667,24.3226667 18.856,25.192 C18.4293333,26.0613333 18.216,27.0933333 18.216,28.288 C18.216,29.4826667 18.4293333,30.52 18.856,31.4 C19.2826667,32.28 19.8933333,32.9546667 20.688,33.424 C21.4826667,33.8933333 22.4186667,34.128 23.496,34.128 Z M32.744,34.112 C33.5013333,34.112 34.168,33.9413333 34.744,33.6 C35.32,33.2586667 35.7653333,32.7733333 36.08,32.144 C36.3946667,31.5146667 36.552,30.7786667 36.552,29.936 C36.552,29.0933333 36.3946667,28.3573333 36.08,27.728 C35.7653333,27.0986667 35.32,26.6133333 34.744,26.272 C34.168,25.9306667 33.5013333,25.76 32.744,25.76 C31.9866667,25.76 31.32,25.9306667 30.744,26.272 C30.168,26.6133333 29.7226667,27.0986667 29.408,27.728 C29.0933333,28.3573333 28.936,29.0933333 28.936,29.936 C28.936,30.7786667 29.0933333,31.5146667 29.408,32.144 C29.7226667,32.7733333 30.168,33.2586667 30.744,33.6 C31.32,33.9413333 31.9866667,34.112 32.744,34.112 Z M32.744,33.04 C31.944,33.04 31.328,32.776 30.896,32.248 C30.464,31.72 30.248,30.9493333 30.248,29.936 C30.248,28.9546667 30.4666667,28.1946667 30.904,27.656 C31.3413333,27.1173333 31.9546667,26.848 32.744,26.848 C33.5226667,26.848 34.1306667,27.1173333 34.568,27.656 C35.0053333,28.1946667 35.224,28.9546667 35.224,29.936 C35.224,30.9493333 35.0106667,31.72 34.584,32.248 C34.1573333,32.776 33.544,33.04 32.744,33.04 Z M39.864,34 L39.864,29.392 C39.864,28.6133333 40.088,27.9946667 40.536,27.536 C40.984,27.0773333 41.5813333,26.848 42.328,26.848 C42.968,26.848 43.4373333,27.0213333 43.736,27.368 C44.0346667,27.7146667 44.184,28.2613333 44.184,29.008 L44.184,29.008 L44.184,34 L45.48,34 L45.48,28.944 C45.48,26.8213333 44.5146667,25.76 42.584,25.76 C41.9546667,25.76 41.3946667,25.9013333 40.904,26.184 C40.4133333,26.4666667 40.0453333,26.8693333 39.8,27.392 L39.8,27.392 L39.672,25.952 L38.44,25.952 C38.5253333,26.624 38.568,27.376 38.568,28.208 L38.568,28.208 L38.568,34 L39.864,34 Z M50.648,34.112 C51.6186667,34.112 52.3866667,33.904 52.952,33.488 C53.5173333,33.072 53.8,32.5173333 53.8,31.824 C53.8,31.248 53.6186667,30.7813333 53.256,30.424 C52.8933333,30.0666667 52.3386667,29.8026667 51.592,29.632 L51.592,29.632 L50.232,29.296 C49.7946667,29.1893333 49.4773333,29.04 49.28,28.848 C49.0826667,28.656 48.984,28.3946667 48.984,28.064 C48.984,27.6693333 49.1413333,27.3626667 49.456,27.144 C49.7706667,26.9253333 50.216,26.816 50.792,26.816 C51.656,26.816 52.4666667,27.1306667 53.224,27.76 L53.224,27.76 L53.656,26.816 C53.3146667,26.4746667 52.8933333,26.2133333 52.392,26.032 C51.8906667,25.8506667 51.3573333,25.76 50.792,25.76 C49.864,25.76 49.1173333,25.9813333 48.552,26.424 C47.9866667,26.8666667 47.704,27.44 47.704,28.144 C47.704,28.6773333 47.888,29.136 48.256,29.52 C48.624,29.904 49.144,30.1706667 49.816,30.32 L49.816,30.32 L51.176,30.64 C51.6666667,30.7466667 52.0186667,30.896 52.232,31.088 C52.4453333,31.28 52.552,31.536 52.552,31.856 C52.552,32.2506667 52.3946667,32.552 52.08,32.76 C51.7653333,32.968 51.304,33.072 50.696,33.072 C50.1413333,33.072 49.64,32.9973333 49.192,32.848 C48.744,32.6986667 48.3013333,32.4533333 47.864,32.112 L47.864,32.112 L47.432,33.072 C48.2213333,33.7653333 49.2933333,34.112 50.648,34.112 Z M58.712,34.112 C59.288,34.112 59.8053333,33.984 60.264,33.728 C60.7226667,33.472 61.08,33.0986667 61.336,32.608 L61.336,32.608 L61.336,34 L62.6,34 L62.6,25.952 L61.304,25.952 L61.304,30.496 C61.304,31.2533333 61.0853333,31.864 60.648,32.328 C60.2106667,32.792 59.6346667,33.024 58.92,33.024 C58.312,33.024 57.8586667,32.8533333 57.56,32.512 C57.2613333,32.1706667 57.112,31.6373333 57.112,30.912 L57.112,30.912 L57.112,25.952 L55.816,25.952 L55.816,30.944 C55.816,31.9893333 56.0613333,32.7786667 56.552,33.312 C57.0426667,33.8453333 57.7626667,34.112 58.712,34.112 Z M66.392,34 L66.392,22.224 L65.096,22.224 L65.096,34 L66.392,34 Z M71.784,34.112 C72.2,34.112 72.5733333,34.0586667 72.904,33.952 L72.904,33.952 L72.904,32.848 C72.6266667,32.944 72.3386667,32.992 72.04,32.992 C71.592,32.992 71.2453333,32.872 71,32.632 C70.7546667,32.392 70.632,31.9733333 70.632,31.376 L70.632,31.376 L70.632,26.976 L72.936,26.976 L72.936,25.952 L70.632,25.952 L70.632,23.424 L69.336,23.888 L69.336,25.952 L67.768,25.952 L67.768,26.976 L69.336,26.976 L69.336,31.552 C69.336,32.3946667 69.552,33.032 69.984,33.464 C70.416,33.896 71.016,34.112 71.784,34.112 Z M77.592,34.112 C78.2213333,34.112 78.7733333,33.976 79.248,33.704 C79.7226667,33.432 80.0773333,33.0453333 80.312,32.544 L80.312,32.544 L80.312,34 L81.592,34 L81.592,25.952 L80.312,25.952 L80.312,27.344 C80.0666667,26.8426667 79.7093333,26.4533333 79.24,26.176 C78.7706667,25.8986667 78.2213333,25.76 77.592,25.76 C76.888,25.76 76.2666667,25.936 75.728,26.288 C75.1893333,26.64 74.7706667,27.1333333 74.472,27.768 C74.1733333,28.4026667 74.024,29.136 74.024,29.968 C74.024,30.8 74.1706667,31.528 74.464,32.152 C74.7573333,32.776 75.1733333,33.2586667 75.712,33.6 C76.2506667,33.9413333 76.8773333,34.112 77.592,34.112 Z M77.848,33.04 C77.048,33.04 76.4293333,32.7733333 75.992,32.24 C75.5546667,31.7066667 75.336,30.9493333 75.336,29.968 C75.336,28.9866667 75.5573333,28.2213333 76,27.672 C76.4426667,27.1226667 77.0586667,26.848 77.848,26.848 C78.6373333,26.848 79.2453333,27.1146667 79.672,27.648 C80.0986667,28.1813333 80.312,28.944 80.312,29.936 C80.312,30.928 80.0986667,31.6933333 79.672,32.232 C79.2453333,32.7706667 78.6373333,33.04 77.848,33.04 Z M86.984,34.112 C87.4,34.112 87.7733333,34.0586667 88.104,33.952 L88.104,33.952 L88.104,32.848 C87.8266667,32.944 87.5386667,32.992 87.24,32.992 C86.792,32.992 86.4453333,32.872 86.2,32.632 C85.9546667,32.392 85.832,31.9733333 85.832,31.376 L85.832,31.376 L85.832,26.976 L88.136,26.976 L88.136,25.952 L85.832,25.952 L85.832,23.424 L84.536,23.888 L84.536,25.952 L82.968,25.952 L82.968,26.976 L84.536,26.976 L84.536,31.552 C84.536,32.3946667 84.752,33.032 85.184,33.464 C85.616,33.896 86.216,34.112 86.984,34.112 Z M91.16,24.016 L91.16,22.544 L89.576,22.544 L89.576,24.016 L91.16,24.016 Z M91,34 L91,25.952 L89.704,25.952 L89.704,34 L91,34 Z M96.84,34.112 C97.5973333,34.112 98.264,33.9413333 98.84,33.6 C99.416,33.2586667 99.8613333,32.7733333 100.176,32.144 C100.490667,31.5146667 100.648,30.7786667 100.648,29.936 C100.648,29.0933333 100.490667,28.3573333 100.176,27.728 C99.8613333,27.0986667 99.416,26.6133333 98.84,26.272 C98.264,25.9306667 97.5973333,25.76 96.84,25.76 C96.0826667,25.76 95.416,25.9306667 94.84,26.272 C94.264,26.6133333 93.8186667,27.0986667 93.504,27.728 C93.1893333,28.3573333 93.032,29.0933333 93.032,29.936 C93.032,30.7786667 93.1893333,31.5146667 93.504,32.144 C93.8186667,32.7733333 94.264,33.2586667 94.84,33.6 C95.416,33.9413333 96.0826667,34.112 96.84,34.112 Z M96.84,33.04 C96.04,33.04 95.424,32.776 94.992,32.248 C94.56,31.72 94.344,30.9493333 94.344,29.936 C94.344,28.9546667 94.5626667,28.1946667 95,27.656 C95.4373333,27.1173333 96.0506667,26.848 96.84,26.848 C97.6186667,26.848 98.2266667,27.1173333 98.664,27.656 C99.1013333,28.1946667 99.32,28.9546667 99.32,29.936 C99.32,30.9493333 99.1066667,31.72 98.68,32.248 C98.2533333,32.776 97.64,33.04 96.84,33.04 Z M103.96,34 L103.96,29.392 C103.96,28.6133333 104.184,27.9946667 104.632,27.536 C105.08,27.0773333 105.677333,26.848 106.424,26.848 C107.064,26.848 107.533333,27.0213333 107.832,27.368 C108.130667,27.7146667 108.28,28.2613333 108.28,29.008 L108.28,29.008 L108.28,34 L109.576,34 L109.576,28.944 C109.576,26.8213333 108.610667,25.76 106.68,25.76 C106.050667,25.76 105.490667,25.9013333 105,26.184 C104.509333,26.4666667 104.141333,26.8693333 103.896,27.392 L103.896,27.392 L103.768,25.952 L102.536,25.952 C102.621333,26.624 102.664,27.376 102.664,28.208 L102.664,28.208 L102.664,34 L103.96,34 Z" id="Consultation" fill="#2C2E32" fill-rule="nonzero"></path>
                    </g>
                    <g id="proposal" transform="translate(0.000000, 75.000000)">
                        <rect id="Rectangle" stroke="#2C2E32" stroke-width="2" fill="#FFFFFF" x="1" y="1" width="209" height="53" rx="16"></rect>
                        <path d="M20.712,34.128 C21.4586667,34.128 22.1946667,34.056 22.92,33.912 C23.6453333,33.768 24.232,33.5786667 24.68,33.344 L24.68,33.344 L24.68,28.064 L20.648,28.064 L20.648,29.104 L23.48,29.104 L23.48,32.576 C22.6053333,32.8746667 21.6933333,33.024 20.744,33.024 C19.4,33.024 18.376,32.6213333 17.672,31.816 C16.968,31.0106667 16.616,29.8346667 16.616,28.288 C16.616,26.7733333 16.96,25.6133333 17.648,24.808 C18.336,24.0026667 19.3253333,23.6 20.616,23.6 C21.2773333,23.6 21.872,23.704 22.4,23.912 C22.928,24.12 23.4693333,24.4586667 24.024,24.928 L24.024,24.928 L24.536,23.92 C24.056,23.44 23.4826667,23.08 22.816,22.84 C22.1493333,22.6 21.416,22.48 20.616,22.48 C19.5173333,22.48 18.5653333,22.712 17.76,23.176 C16.9546667,23.64 16.336,24.3066667 15.904,25.176 C15.472,26.0453333 15.256,27.0826667 15.256,28.288 C15.256,29.504 15.472,30.5493333 15.904,31.424 C16.336,32.2986667 16.9626667,32.968 17.784,33.432 C18.6053333,33.896 19.5813333,34.128 20.712,34.128 Z M30.296,34.112 C30.9253333,34.112 31.4773333,33.976 31.952,33.704 C32.4266667,33.432 32.7813333,33.0453333 33.016,32.544 L33.016,32.544 L33.016,34 L34.296,34 L34.296,25.952 L33.016,25.952 L33.016,27.344 C32.7706667,26.8426667 32.4133333,26.4533333 31.944,26.176 C31.4746667,25.8986667 30.9253333,25.76 30.296,25.76 C29.592,25.76 28.9706667,25.936 28.432,26.288 C27.8933333,26.64 27.4746667,27.1333333 27.176,27.768 C26.8773333,28.4026667 26.728,29.136 26.728,29.968 C26.728,30.8 26.8746667,31.528 27.168,32.152 C27.4613333,32.776 27.8773333,33.2586667 28.416,33.6 C28.9546667,33.9413333 29.5813333,34.112 30.296,34.112 Z M30.552,33.04 C29.752,33.04 29.1333333,32.7733333 28.696,32.24 C28.2586667,31.7066667 28.04,30.9493333 28.04,29.968 C28.04,28.9866667 28.2613333,28.2213333 28.704,27.672 C29.1466667,27.1226667 29.7626667,26.848 30.552,26.848 C31.3413333,26.848 31.9493333,27.1146667 32.376,27.648 C32.8026667,28.1813333 33.016,28.944 33.016,29.936 C33.016,30.928 32.8026667,31.6933333 32.376,32.232 C31.9493333,32.7706667 31.3413333,33.04 30.552,33.04 Z M38.104,37.456 L38.104,32.512 C38.3493333,33.024 38.7066667,33.4186667 39.176,33.696 C39.6453333,33.9733333 40.1946667,34.112 40.824,34.112 C41.5386667,34.112 42.1653333,33.9413333 42.704,33.6 C43.2426667,33.2586667 43.6613333,32.776 43.96,32.152 C44.2586667,31.528 44.408,30.8 44.408,29.968 C44.408,29.136 44.2586667,28.4026667 43.96,27.768 C43.6613333,27.1333333 43.24,26.64 42.696,26.288 C42.152,25.936 41.528,25.76 40.824,25.76 C40.1626667,25.76 39.5893333,25.912 39.104,26.216 C38.6186667,26.52 38.264,26.9493333 38.04,27.504 L38.04,27.504 L37.912,25.952 L36.68,25.952 C36.7653333,26.624 36.808,27.376 36.808,28.208 L36.808,28.208 L36.808,37.456 L38.104,37.456 Z M40.584,33.04 C39.784,33.04 39.1706667,32.7706667 38.744,32.232 C38.3173333,31.6933333 38.104,30.928 38.104,29.936 C38.104,28.944 38.3173333,28.1813333 38.744,27.648 C39.1706667,27.1146667 39.784,26.848 40.584,26.848 C41.3626667,26.848 41.9706667,27.1226667 42.408,27.672 C42.8453333,28.2213333 43.064,28.9866667 43.064,29.968 C43.064,30.9493333 42.848,31.7066667 42.416,32.24 C41.984,32.7733333 41.3733333,33.04 40.584,33.04 Z M50.984,34 L52.248,31.072 L58.2,31.072 L59.448,34 L60.792,34 L55.784,22.608 L54.632,22.608 L49.624,34 L50.984,34 Z M57.736,29.984 L52.712,29.984 L55.224,24.128 L57.736,29.984 Z M63.624,34 L63.624,29.392 C63.624,28.6133333 63.848,27.9946667 64.296,27.536 C64.744,27.0773333 65.3413333,26.848 66.088,26.848 C66.728,26.848 67.1973333,27.0213333 67.496,27.368 C67.7946667,27.7146667 67.944,28.2613333 67.944,29.008 L67.944,29.008 L67.944,34 L69.24,34 L69.24,28.944 C69.24,26.8213333 68.2746667,25.76 66.344,25.76 C65.7146667,25.76 65.1546667,25.9013333 64.664,26.184 C64.1733333,26.4666667 63.8053333,26.8693333 63.56,27.392 L63.56,27.392 L63.432,25.952 L62.2,25.952 C62.2853333,26.624 62.328,27.376 62.328,28.208 L62.328,28.208 L62.328,34 L63.624,34 Z M74.776,34.112 C75.4053333,34.112 75.9573333,33.976 76.432,33.704 C76.9066667,33.432 77.2613333,33.0453333 77.496,32.544 L77.496,32.544 L77.496,34 L78.776,34 L78.776,25.952 L77.496,25.952 L77.496,27.344 C77.2506667,26.8426667 76.8933333,26.4533333 76.424,26.176 C75.9546667,25.8986667 75.4053333,25.76 74.776,25.76 C74.072,25.76 73.4506667,25.936 72.912,26.288 C72.3733333,26.64 71.9546667,27.1333333 71.656,27.768 C71.3573333,28.4026667 71.208,29.136 71.208,29.968 C71.208,30.8 71.3546667,31.528 71.648,32.152 C71.9413333,32.776 72.3573333,33.2586667 72.896,33.6 C73.4346667,33.9413333 74.0613333,34.112 74.776,34.112 Z M75.032,33.04 C74.232,33.04 73.6133333,32.7733333 73.176,32.24 C72.7386667,31.7066667 72.52,30.9493333 72.52,29.968 C72.52,28.9866667 72.7413333,28.2213333 73.184,27.672 C73.6266667,27.1226667 74.2426667,26.848 75.032,26.848 C75.8213333,26.848 76.4293333,27.1146667 76.856,27.648 C77.2826667,28.1813333 77.496,28.944 77.496,29.936 C77.496,30.928 77.2826667,31.6933333 76.856,32.232 C76.4293333,32.7706667 75.8213333,33.04 75.032,33.04 Z M82.584,34 L82.584,22.224 L81.288,22.224 L81.288,34 L82.584,34 Z M84.712,37.632 C85.5866667,37.472 86.3226667,37.1786667 86.92,36.752 C87.5173333,36.3253333 88.0133333,35.6533333 88.408,34.736 L88.408,34.736 L92.168,25.952 L90.872,25.952 L88.12,32.592 L85.4,25.952 L84.04,25.952 L87.448,33.92 L87.128,34.64 C86.872,35.2266667 86.5493333,35.6613333 86.16,35.944 C85.7706667,36.2266667 85.1973333,36.4533333 84.44,36.624 L84.44,36.624 L84.712,37.632 Z M96.312,34.112 C97.2826667,34.112 98.0506667,33.904 98.616,33.488 C99.1813333,33.072 99.464,32.5173333 99.464,31.824 C99.464,31.248 99.2826667,30.7813333 98.92,30.424 C98.5573333,30.0666667 98.0026667,29.8026667 97.256,29.632 L97.256,29.632 L95.896,29.296 C95.4586667,29.1893333 95.1413333,29.04 94.944,28.848 C94.7466667,28.656 94.648,28.3946667 94.648,28.064 C94.648,27.6693333 94.8053333,27.3626667 95.12,27.144 C95.4346667,26.9253333 95.88,26.816 96.456,26.816 C97.32,26.816 98.1306667,27.1306667 98.888,27.76 L98.888,27.76 L99.32,26.816 C98.9786667,26.4746667 98.5573333,26.2133333 98.056,26.032 C97.5546667,25.8506667 97.0213333,25.76 96.456,25.76 C95.528,25.76 94.7813333,25.9813333 94.216,26.424 C93.6506667,26.8666667 93.368,27.44 93.368,28.144 C93.368,28.6773333 93.552,29.136 93.92,29.52 C94.288,29.904 94.808,30.1706667 95.48,30.32 L95.48,30.32 L96.84,30.64 C97.3306667,30.7466667 97.6826667,30.896 97.896,31.088 C98.1093333,31.28 98.216,31.536 98.216,31.856 C98.216,32.2506667 98.0586667,32.552 97.744,32.76 C97.4293333,32.968 96.968,33.072 96.36,33.072 C95.8053333,33.072 95.304,32.9973333 94.856,32.848 C94.408,32.6986667 93.9653333,32.4533333 93.528,32.112 L93.528,32.112 L93.096,33.072 C93.8853333,33.7653333 94.9573333,34.112 96.312,34.112 Z M102.984,24.016 L102.984,22.544 L101.4,22.544 L101.4,24.016 L102.984,24.016 Z M102.824,34 L102.824,25.952 L101.528,25.952 L101.528,34 L102.824,34 Z M108.056,34.112 C109.026667,34.112 109.794667,33.904 110.36,33.488 C110.925333,33.072 111.208,32.5173333 111.208,31.824 C111.208,31.248 111.026667,30.7813333 110.664,30.424 C110.301333,30.0666667 109.746667,29.8026667 109,29.632 L109,29.632 L107.64,29.296 C107.202667,29.1893333 106.885333,29.04 106.688,28.848 C106.490667,28.656 106.392,28.3946667 106.392,28.064 C106.392,27.6693333 106.549333,27.3626667 106.864,27.144 C107.178667,26.9253333 107.624,26.816 108.2,26.816 C109.064,26.816 109.874667,27.1306667 110.632,27.76 L110.632,27.76 L111.064,26.816 C110.722667,26.4746667 110.301333,26.2133333 109.8,26.032 C109.298667,25.8506667 108.765333,25.76 108.2,25.76 C107.272,25.76 106.525333,25.9813333 105.96,26.424 C105.394667,26.8666667 105.112,27.44 105.112,28.144 C105.112,28.6773333 105.296,29.136 105.664,29.52 C106.032,29.904 106.552,30.1706667 107.224,30.32 L107.224,30.32 L108.584,30.64 C109.074667,30.7466667 109.426667,30.896 109.64,31.088 C109.853333,31.28 109.96,31.536 109.96,31.856 C109.96,32.2506667 109.802667,32.552 109.488,32.76 C109.173333,32.968 108.712,33.072 108.104,33.072 C107.549333,33.072 107.048,32.9973333 106.6,32.848 C106.152,32.6986667 105.709333,32.4533333 105.272,32.112 L105.272,32.112 L104.84,33.072 C105.629333,33.7653333 106.701333,34.112 108.056,34.112 Z M126.376,34.144 L127.08,33.248 C126.141333,32.8213333 125.394667,32.304 124.84,31.696 C125.202667,31.12 125.485333,30.4613333 125.688,29.72 C125.890667,28.9786667 126.002667,28.176 126.024,27.312 L126.024,27.312 L124.872,27.312 C124.84,28.688 124.573333,29.8613333 124.072,30.832 L124.072,30.832 L121.384,27.808 C122.248,27.2533333 122.850667,26.752 123.192,26.304 C123.533333,25.856 123.704,25.3493333 123.704,24.784 C123.704,24.08 123.474667,23.5226667 123.016,23.112 C122.557333,22.7013333 121.933333,22.496 121.144,22.496 C120.301333,22.496 119.624,22.7226667 119.112,23.176 C118.6,23.6293333 118.344,24.2293333 118.344,24.976 C118.344,25.392 118.442667,25.7946667 118.64,26.184 C118.837333,26.5733333 119.186667,27.056 119.688,27.632 C118.76,28.1866667 118.088,28.7386667 117.672,29.288 C117.256,29.8373333 117.048,30.4533333 117.048,31.136 C117.048,31.7226667 117.2,32.24 117.504,32.688 C117.808,33.136 118.237333,33.4853333 118.792,33.736 C119.346667,33.9866667 119.986667,34.112 120.712,34.112 C121.384,34.112 122.008,33.984 122.584,33.728 C123.16,33.472 123.677333,33.104 124.136,32.624 C124.744,33.232 125.490667,33.7386667 126.376,34.144 L126.376,34.144 Z M120.696,27.024 C120.258667,26.5226667 119.965333,26.1333333 119.816,25.856 C119.666667,25.5786667 119.592,25.2853333 119.592,24.976 C119.592,24.528 119.736,24.168 120.024,23.896 C120.312,23.624 120.690667,23.488 121.16,23.488 C121.576,23.488 121.912,23.6133333 122.168,23.864 C122.424,24.1146667 122.552,24.4426667 122.552,24.848 C122.552,25.2213333 122.418667,25.568 122.152,25.888 C121.885333,26.208 121.4,26.5866667 120.696,27.024 Z M120.744,33.056 C120.008,33.056 119.421333,32.88 118.984,32.528 C118.546667,32.176 118.328,31.7013333 118.328,31.104 C118.328,30.592 118.482667,30.1306667 118.792,29.72 C119.101333,29.3093333 119.629333,28.8746667 120.376,28.416 L120.376,28.416 L123.416,31.824 C122.68,32.6453333 121.789333,33.056 120.744,33.056 Z M133.64,37.456 L133.64,32.512 C133.885333,33.024 134.242667,33.4186667 134.712,33.696 C135.181333,33.9733333 135.730667,34.112 136.36,34.112 C137.074667,34.112 137.701333,33.9413333 138.24,33.6 C138.778667,33.2586667 139.197333,32.776 139.496,32.152 C139.794667,31.528 139.944,30.8 139.944,29.968 C139.944,29.136 139.794667,28.4026667 139.496,27.768 C139.197333,27.1333333 138.776,26.64 138.232,26.288 C137.688,25.936 137.064,25.76 136.36,25.76 C135.698667,25.76 135.125333,25.912 134.64,26.216 C134.154667,26.52 133.8,26.9493333 133.576,27.504 L133.576,27.504 L133.448,25.952 L132.216,25.952 C132.301333,26.624 132.344,27.376 132.344,28.208 L132.344,28.208 L132.344,37.456 L133.64,37.456 Z M136.12,33.04 C135.32,33.04 134.706667,32.7706667 134.28,32.232 C133.853333,31.6933333 133.64,30.928 133.64,29.936 C133.64,28.944 133.853333,28.1813333 134.28,27.648 C134.706667,27.1146667 135.32,26.848 136.12,26.848 C136.898667,26.848 137.506667,27.1226667 137.944,27.672 C138.381333,28.2213333 138.6,28.9866667 138.6,29.968 C138.6,30.9493333 138.384,31.7066667 137.952,32.24 C137.52,32.7733333 136.909333,33.04 136.12,33.04 Z M143.24,34 L143.24,29.408 C143.24,28.7146667 143.429333,28.1253333 143.808,27.64 C144.186667,27.1546667 144.765333,26.912 145.544,26.912 C145.864,26.912 146.146667,26.9546667 146.392,27.04 L146.392,27.04 L146.424,25.856 C146.2,25.792 145.954667,25.76 145.688,25.76 C145.112,25.76 144.6,25.904 144.152,26.192 C143.704,26.48 143.378667,26.896 143.176,27.44 L143.176,27.44 L143.048,25.952 L141.816,25.952 C141.901333,26.624 141.944,27.376 141.944,28.208 L141.944,28.208 L141.944,34 L143.24,34 Z M151.064,34.112 C151.821333,34.112 152.488,33.9413333 153.064,33.6 C153.64,33.2586667 154.085333,32.7733333 154.4,32.144 C154.714667,31.5146667 154.872,30.7786667 154.872,29.936 C154.872,29.0933333 154.714667,28.3573333 154.4,27.728 C154.085333,27.0986667 153.64,26.6133333 153.064,26.272 C152.488,25.9306667 151.821333,25.76 151.064,25.76 C150.306667,25.76 149.64,25.9306667 149.064,26.272 C148.488,26.6133333 148.042667,27.0986667 147.728,27.728 C147.413333,28.3573333 147.256,29.0933333 147.256,29.936 C147.256,30.7786667 147.413333,31.5146667 147.728,32.144 C148.042667,32.7733333 148.488,33.2586667 149.064,33.6 C149.64,33.9413333 150.306667,34.112 151.064,34.112 Z M151.064,33.04 C150.264,33.04 149.648,32.776 149.216,32.248 C148.784,31.72 148.568,30.9493333 148.568,29.936 C148.568,28.9546667 148.786667,28.1946667 149.224,27.656 C149.661333,27.1173333 150.274667,26.848 151.064,26.848 C151.842667,26.848 152.450667,27.1173333 152.888,27.656 C153.325333,28.1946667 153.544,28.9546667 153.544,29.936 C153.544,30.9493333 153.330667,31.72 152.904,32.248 C152.477333,32.776 151.864,33.04 151.064,33.04 Z M158.184,37.456 L158.184,32.512 C158.429333,33.024 158.786667,33.4186667 159.256,33.696 C159.725333,33.9733333 160.274667,34.112 160.904,34.112 C161.618667,34.112 162.245333,33.9413333 162.784,33.6 C163.322667,33.2586667 163.741333,32.776 164.04,32.152 C164.338667,31.528 164.488,30.8 164.488,29.968 C164.488,29.136 164.338667,28.4026667 164.04,27.768 C163.741333,27.1333333 163.32,26.64 162.776,26.288 C162.232,25.936 161.608,25.76 160.904,25.76 C160.242667,25.76 159.669333,25.912 159.184,26.216 C158.698667,26.52 158.344,26.9493333 158.12,27.504 L158.12,27.504 L157.992,25.952 L156.76,25.952 C156.845333,26.624 156.888,27.376 156.888,28.208 L156.888,28.208 L156.888,37.456 L158.184,37.456 Z M160.664,33.04 C159.864,33.04 159.250667,32.7706667 158.824,32.232 C158.397333,31.6933333 158.184,30.928 158.184,29.936 C158.184,28.944 158.397333,28.1813333 158.824,27.648 C159.250667,27.1146667 159.864,26.848 160.664,26.848 C161.442667,26.848 162.050667,27.1226667 162.488,27.672 C162.925333,28.2213333 163.144,28.9866667 163.144,29.968 C163.144,30.9493333 162.928,31.7066667 162.496,32.24 C162.064,32.7733333 161.453333,33.04 160.664,33.04 Z M169.816,34.112 C170.573333,34.112 171.24,33.9413333 171.816,33.6 C172.392,33.2586667 172.837333,32.7733333 173.152,32.144 C173.466667,31.5146667 173.624,30.7786667 173.624,29.936 C173.624,29.0933333 173.466667,28.3573333 173.152,27.728 C172.837333,27.0986667 172.392,26.6133333 171.816,26.272 C171.24,25.9306667 170.573333,25.76 169.816,25.76 C169.058667,25.76 168.392,25.9306667 167.816,26.272 C167.24,26.6133333 166.794667,27.0986667 166.48,27.728 C166.165333,28.3573333 166.008,29.0933333 166.008,29.936 C166.008,30.7786667 166.165333,31.5146667 166.48,32.144 C166.794667,32.7733333 167.24,33.2586667 167.816,33.6 C168.392,33.9413333 169.058667,34.112 169.816,34.112 Z M169.816,33.04 C169.016,33.04 168.4,32.776 167.968,32.248 C167.536,31.72 167.32,30.9493333 167.32,29.936 C167.32,28.9546667 167.538667,28.1946667 167.976,27.656 C168.413333,27.1173333 169.026667,26.848 169.816,26.848 C170.594667,26.848 171.202667,27.1173333 171.64,27.656 C172.077333,28.1946667 172.296,28.9546667 172.296,29.936 C172.296,30.9493333 172.082667,31.72 171.656,32.248 C171.229333,32.776 170.616,33.04 169.816,33.04 Z M178.36,34.112 C179.330667,34.112 180.098667,33.904 180.664,33.488 C181.229333,33.072 181.512,32.5173333 181.512,31.824 C181.512,31.248 181.330667,30.7813333 180.968,30.424 C180.605333,30.0666667 180.050667,29.8026667 179.304,29.632 L179.304,29.632 L177.944,29.296 C177.506667,29.1893333 177.189333,29.04 176.992,28.848 C176.794667,28.656 176.696,28.3946667 176.696,28.064 C176.696,27.6693333 176.853333,27.3626667 177.168,27.144 C177.482667,26.9253333 177.928,26.816 178.504,26.816 C179.368,26.816 180.178667,27.1306667 180.936,27.76 L180.936,27.76 L181.368,26.816 C181.026667,26.4746667 180.605333,26.2133333 180.104,26.032 C179.602667,25.8506667 179.069333,25.76 178.504,25.76 C177.576,25.76 176.829333,25.9813333 176.264,26.424 C175.698667,26.8666667 175.416,27.44 175.416,28.144 C175.416,28.6773333 175.6,29.136 175.968,29.52 C176.336,29.904 176.856,30.1706667 177.528,30.32 L177.528,30.32 L178.888,30.64 C179.378667,30.7466667 179.730667,30.896 179.944,31.088 C180.157333,31.28 180.264,31.536 180.264,31.856 C180.264,32.2506667 180.106667,32.552 179.792,32.76 C179.477333,32.968 179.016,33.072 178.408,33.072 C177.853333,33.072 177.352,32.9973333 176.904,32.848 C176.456,32.6986667 176.013333,32.4533333 175.576,32.112 L175.576,32.112 L175.144,33.072 C175.933333,33.7653333 177.005333,34.112 178.36,34.112 Z M186.664,34.112 C187.293333,34.112 187.845333,33.976 188.32,33.704 C188.794667,33.432 189.149333,33.0453333 189.384,32.544 L189.384,32.544 L189.384,34 L190.664,34 L190.664,25.952 L189.384,25.952 L189.384,27.344 C189.138667,26.8426667 188.781333,26.4533333 188.312,26.176 C187.842667,25.8986667 187.293333,25.76 186.664,25.76 C185.96,25.76 185.338667,25.936 184.8,26.288 C184.261333,26.64 183.842667,27.1333333 183.544,27.768 C183.245333,28.4026667 183.096,29.136 183.096,29.968 C183.096,30.8 183.242667,31.528 183.536,32.152 C183.829333,32.776 184.245333,33.2586667 184.784,33.6 C185.322667,33.9413333 185.949333,34.112 186.664,34.112 Z M186.92,33.04 C186.12,33.04 185.501333,32.7733333 185.064,32.24 C184.626667,31.7066667 184.408,30.9493333 184.408,29.968 C184.408,28.9866667 184.629333,28.2213333 185.072,27.672 C185.514667,27.1226667 186.130667,26.848 186.92,26.848 C187.709333,26.848 188.317333,27.1146667 188.744,27.648 C189.170667,28.1813333 189.384,28.944 189.384,29.936 C189.384,30.928 189.170667,31.6933333 188.744,32.232 C188.317333,32.7706667 187.709333,33.04 186.92,33.04 Z M194.472,34 L194.472,22.224 L193.176,22.224 L193.176,34 L194.472,34 Z" id="GapAnalysis&amp;proposal" fill="#2C2E32" fill-rule="nonzero"></path>
                    </g>
                </g>
                <g id="2" transform="translate(0.000000, 149.000000)">
                    <rect id="Rectangle" stroke="#2C2E32" stroke-width="2" fill="#FFFFFF" x="1" y="1" width="313" height="53" rx="16"></rect>
                    <path d="M23.068,34.128 C23.9213333,34.128 24.6653333,33.9946667 25.3,33.728 C25.9346667,33.4613333 26.4226667,33.0853333 26.764,32.6 C27.1053333,32.1146667 27.276,31.552 27.276,30.912 C27.276,30.2506667 27.0893333,29.72 26.716,29.32 C26.3426667,28.92 25.876,28.6213333 25.316,28.424 C24.756,28.2266667 23.9853333,28.0106667 23.004,27.776 C22.0973333,27.5626667 21.4253333,27.312 20.988,27.024 C20.5506667,26.736 20.332,26.304 20.332,25.728 C20.332,25.0666667 20.5826667,24.5466667 21.084,24.168 C21.5853333,23.7893333 22.2786667,23.6 23.164,23.6 C23.8146667,23.6 24.4146667,23.7066667 24.964,23.92 C25.5133333,24.1333333 26.0546667,24.4693333 26.588,24.928 L26.588,24.928 L27.1,23.92 C26.6306667,23.4506667 26.0546667,23.0933333 25.372,22.848 C24.6893333,22.6026667 23.9533333,22.48 23.164,22.48 C22.332,22.48 21.604,22.6186667 20.98,22.896 C20.356,23.1733333 19.8733333,23.56 19.532,24.056 C19.1906667,24.552 19.02,25.1253333 19.02,25.776 C19.02,26.4586667 19.196,27.0106667 19.548,27.432 C19.9,27.8533333 20.3586667,28.176 20.924,28.4 C21.4893333,28.624 22.2093333,28.832 23.084,29.024 C23.7346667,29.1733333 24.2546667,29.3173333 24.644,29.456 C25.0333333,29.5946667 25.348,29.784 25.588,30.024 C25.828,30.264 25.948,30.576 25.948,30.96 C25.948,31.6106667 25.7,32.1146667 25.204,32.472 C24.708,32.8293333 24.0013333,33.008 23.084,33.008 C22.3053333,33.008 21.6226667,32.9066667 21.036,32.704 C20.4493333,32.5013333 19.8733333,32.16 19.308,31.68 L19.308,31.68 L18.812,32.688 C19.868,33.648 21.2866667,34.128 23.068,34.128 Z M28.876,37.632 C29.7506667,37.472 30.4866667,37.1786667 31.084,36.752 C31.6813333,36.3253333 32.1773333,35.6533333 32.572,34.736 L32.572,34.736 L36.332,25.952 L35.036,25.952 L32.284,32.592 L29.564,25.952 L28.204,25.952 L31.612,33.92 L31.292,34.64 C31.036,35.2266667 30.7133333,35.6613333 30.324,35.944 C29.9346667,36.2266667 29.3613333,36.4533333 28.604,36.624 L28.604,36.624 L28.876,37.632 Z M40.476,34.112 C41.4466667,34.112 42.2146667,33.904 42.78,33.488 C43.3453333,33.072 43.628,32.5173333 43.628,31.824 C43.628,31.248 43.4466667,30.7813333 43.084,30.424 C42.7213333,30.0666667 42.1666667,29.8026667 41.42,29.632 L41.42,29.632 L40.06,29.296 C39.6226667,29.1893333 39.3053333,29.04 39.108,28.848 C38.9106667,28.656 38.812,28.3946667 38.812,28.064 C38.812,27.6693333 38.9693333,27.3626667 39.284,27.144 C39.5986667,26.9253333 40.044,26.816 40.62,26.816 C41.484,26.816 42.2946667,27.1306667 43.052,27.76 L43.052,27.76 L43.484,26.816 C43.1426667,26.4746667 42.7213333,26.2133333 42.22,26.032 C41.7186667,25.8506667 41.1853333,25.76 40.62,25.76 C39.692,25.76 38.9453333,25.9813333 38.38,26.424 C37.8146667,26.8666667 37.532,27.44 37.532,28.144 C37.532,28.6773333 37.716,29.136 38.084,29.52 C38.452,29.904 38.972,30.1706667 39.644,30.32 L39.644,30.32 L41.004,30.64 C41.4946667,30.7466667 41.8466667,30.896 42.06,31.088 C42.2733333,31.28 42.38,31.536 42.38,31.856 C42.38,32.2506667 42.2226667,32.552 41.908,32.76 C41.5933333,32.968 41.132,33.072 40.524,33.072 C39.9693333,33.072 39.468,32.9973333 39.02,32.848 C38.572,32.6986667 38.1293333,32.4533333 37.692,32.112 L37.692,32.112 L37.26,33.072 C38.0493333,33.7653333 39.1213333,34.112 40.476,34.112 Z M48.572,34.112 C48.988,34.112 49.3613333,34.0586667 49.692,33.952 L49.692,33.952 L49.692,32.848 C49.4146667,32.944 49.1266667,32.992 48.828,32.992 C48.38,32.992 48.0333333,32.872 47.788,32.632 C47.5426667,32.392 47.42,31.9733333 47.42,31.376 L47.42,31.376 L47.42,26.976 L49.724,26.976 L49.724,25.952 L47.42,25.952 L47.42,23.424 L46.124,23.888 L46.124,25.952 L44.556,25.952 L44.556,26.976 L46.124,26.976 L46.124,31.552 C46.124,32.3946667 46.34,33.032 46.772,33.464 C47.204,33.896 47.804,34.112 48.572,34.112 Z M54.844,34.112 C55.42,34.112 55.9826667,34.016 56.532,33.824 C57.0813333,33.632 57.532,33.3706667 57.884,33.04 L57.884,33.04 L57.452,32.096 C56.6626667,32.7253333 55.7986667,33.04 54.86,33.04 C53.9746667,33.04 53.3,32.7786667 52.836,32.256 C52.372,31.7333333 52.1346667,30.96 52.124,29.936 L52.124,29.936 L58.028,29.936 L58.028,29.696 C58.028,28.4693333 57.724,27.5066667 57.116,26.808 C56.508,26.1093333 55.6706667,25.76 54.604,25.76 C53.868,25.76 53.212,25.936 52.636,26.288 C52.06,26.64 51.612,27.1333333 51.292,27.768 C50.972,28.4026667 50.812,29.1306667 50.812,29.952 C50.812,31.2426667 51.1693333,32.2586667 51.884,33 C52.5986667,33.7413333 53.5853333,34.112 54.844,34.112 Z M56.86,29.088 L52.172,29.088 C52.2893333,28.352 52.5586667,27.7813333 52.98,27.376 C53.4013333,26.9706667 53.948,26.768 54.62,26.768 C55.292,26.768 55.8173333,26.9653333 56.196,27.36 C56.5746667,27.7546667 56.796,28.3306667 56.86,29.088 L56.86,29.088 Z M61.292,34 L61.292,29.408 C61.292,28.6186667 61.4866667,27.9946667 61.876,27.536 C62.2653333,27.0773333 62.8013333,26.848 63.484,26.848 C64.0706667,26.848 64.4973333,27.0213333 64.764,27.368 C65.0306667,27.7146667 65.164,28.2613333 65.164,29.008 L65.164,29.008 L65.164,34 L66.46,34 L66.46,29.408 C66.46,28.6186667 66.652,27.9946667 67.036,27.536 C67.42,27.0773333 67.9533333,26.848 68.636,26.848 C69.2226667,26.848 69.6466667,27.0186667 69.908,27.36 C70.1693333,27.7013333 70.3,28.2506667 70.3,29.008 L70.3,29.008 L70.3,34 L71.596,34 L71.596,28.944 C71.596,26.8213333 70.7053333,25.76 68.924,25.76 C68.3266667,25.76 67.7906667,25.9013333 67.316,26.184 C66.8413333,26.4666667 66.4813333,26.848 66.236,27.328 C66.044,26.7946667 65.7453333,26.4 65.34,26.144 C64.9346667,25.888 64.412,25.76 63.772,25.76 C63.1853333,25.76 62.6706667,25.8986667 62.228,26.176 C61.7853333,26.4533333 61.452,26.848 61.228,27.36 L61.228,27.36 L61.1,25.952 L59.868,25.952 C59.9533333,26.624 59.996,27.376 59.996,28.208 L59.996,28.208 L59.996,34 L61.292,34 Z M81.324,34.112 C81.9533333,34.112 82.5053333,33.976 82.98,33.704 C83.4546667,33.432 83.8093333,33.0453333 84.044,32.544 L84.044,32.544 L84.044,34 L85.324,34 L85.324,22.224 L84.028,22.224 L84.028,27.312 C83.7933333,26.8213333 83.4413333,26.44 82.972,26.168 C82.5026667,25.896 81.9533333,25.76 81.324,25.76 C80.62,25.76 79.996,25.9306667 79.452,26.272 C78.908,26.6133333 78.4893333,27.096 78.196,27.72 C77.9026667,28.344 77.756,29.072 77.756,29.904 C77.756,30.736 77.9053333,31.4693333 78.204,32.104 C78.5026667,32.7386667 78.9213333,33.232 79.46,33.584 C79.9986667,33.936 80.62,34.112 81.324,34.112 Z M81.58,33.04 C80.7906667,33.04 80.1746667,32.7653333 79.732,32.216 C79.2893333,31.6666667 79.068,30.896 79.068,29.904 C79.068,28.9333333 79.2893333,28.1813333 79.732,27.648 C80.1746667,27.1146667 80.7906667,26.848 81.58,26.848 C82.3693333,26.848 82.9773333,27.1173333 83.404,27.656 C83.8306667,28.1946667 84.044,28.9546667 84.044,29.936 C84.044,30.928 83.8306667,31.6933333 83.404,32.232 C82.9773333,32.7706667 82.3693333,33.04 81.58,33.04 Z M91.388,34.112 C91.964,34.112 92.5266667,34.016 93.076,33.824 C93.6253333,33.632 94.076,33.3706667 94.428,33.04 L94.428,33.04 L93.996,32.096 C93.2066667,32.7253333 92.3426667,33.04 91.404,33.04 C90.5186667,33.04 89.844,32.7786667 89.38,32.256 C88.916,31.7333333 88.6786667,30.96 88.668,29.936 L88.668,29.936 L94.572,29.936 L94.572,29.696 C94.572,28.4693333 94.268,27.5066667 93.66,26.808 C93.052,26.1093333 92.2146667,25.76 91.148,25.76 C90.412,25.76 89.756,25.936 89.18,26.288 C88.604,26.64 88.156,27.1333333 87.836,27.768 C87.516,28.4026667 87.356,29.1306667 87.356,29.952 C87.356,31.2426667 87.7133333,32.2586667 88.428,33 C89.1426667,33.7413333 90.1293333,34.112 91.388,34.112 Z M93.404,29.088 L88.716,29.088 C88.8333333,28.352 89.1026667,27.7813333 89.524,27.376 C89.9453333,26.9706667 90.492,26.768 91.164,26.768 C91.836,26.768 92.3613333,26.9653333 92.74,27.36 C93.1186667,27.7546667 93.34,28.3306667 93.404,29.088 L93.404,29.088 Z M99.26,34.112 C100.230667,34.112 100.998667,33.904 101.564,33.488 C102.129333,33.072 102.412,32.5173333 102.412,31.824 C102.412,31.248 102.230667,30.7813333 101.868,30.424 C101.505333,30.0666667 100.950667,29.8026667 100.204,29.632 L100.204,29.632 L98.844,29.296 C98.4066667,29.1893333 98.0893333,29.04 97.892,28.848 C97.6946667,28.656 97.596,28.3946667 97.596,28.064 C97.596,27.6693333 97.7533333,27.3626667 98.068,27.144 C98.3826667,26.9253333 98.828,26.816 99.404,26.816 C100.268,26.816 101.078667,27.1306667 101.836,27.76 L101.836,27.76 L102.268,26.816 C101.926667,26.4746667 101.505333,26.2133333 101.004,26.032 C100.502667,25.8506667 99.9693333,25.76 99.404,25.76 C98.476,25.76 97.7293333,25.9813333 97.164,26.424 C96.5986667,26.8666667 96.316,27.44 96.316,28.144 C96.316,28.6773333 96.5,29.136 96.868,29.52 C97.236,29.904 97.756,30.1706667 98.428,30.32 L98.428,30.32 L99.788,30.64 C100.278667,30.7466667 100.630667,30.896 100.844,31.088 C101.057333,31.28 101.164,31.536 101.164,31.856 C101.164,32.2506667 101.006667,32.552 100.692,32.76 C100.377333,32.968 99.916,33.072 99.308,33.072 C98.7533333,33.072 98.252,32.9973333 97.804,32.848 C97.356,32.6986667 96.9133333,32.4533333 96.476,32.112 L96.476,32.112 L96.044,33.072 C96.8333333,33.7653333 97.9053333,34.112 99.26,34.112 Z M105.932,24.016 L105.932,22.544 L104.348,22.544 L104.348,24.016 L105.932,24.016 Z M105.772,34 L105.772,25.952 L104.476,25.952 L104.476,34 L105.772,34 Z M111.82,37.568 C113.014667,37.568 113.918667,37.2613333 114.532,36.648 C115.145333,36.0346667 115.452,35.1306667 115.452,33.936 L115.452,33.936 L115.452,25.952 L114.156,25.952 L114.156,27.344 C113.910667,26.8426667 113.550667,26.4533333 113.076,26.176 C112.601333,25.8986667 112.044,25.76 111.404,25.76 C110.7,25.76 110.073333,25.9253333 109.524,26.256 C108.974667,26.5866667 108.550667,27.056 108.252,27.664 C107.953333,28.272 107.804,28.9706667 107.804,29.76 C107.804,30.5493333 107.953333,31.248 108.252,31.856 C108.550667,32.464 108.974667,32.9333333 109.524,33.264 C110.073333,33.5946667 110.7,33.76 111.404,33.76 C112.054667,33.76 112.617333,33.6186667 113.092,33.336 C113.566667,33.0533333 113.926667,32.656 114.172,32.144 L114.172,32.144 L114.172,34.048 C114.172,34.8586667 113.974667,35.4693333 113.58,35.88 C113.185333,36.2906667 112.598667,36.496 111.82,36.496 C111.276,36.496 110.777333,36.432 110.324,36.304 C109.870667,36.176 109.388,35.968 108.876,35.68 L108.876,35.68 L108.652,36.736 C109.537333,37.2906667 110.593333,37.568 111.82,37.568 Z M111.66,32.672 C110.870667,32.672 110.249333,32.4133333 109.796,31.896 C109.342667,31.3786667 109.116,30.6666667 109.116,29.76 C109.116,28.8533333 109.342667,28.1413333 109.796,27.624 C110.249333,27.1066667 110.870667,26.848 111.66,26.848 C112.438667,26.848 113.049333,27.1066667 113.492,27.624 C113.934667,28.1413333 114.156,28.8533333 114.156,29.76 C114.156,30.6666667 113.934667,31.3786667 113.492,31.896 C113.049333,32.4133333 112.438667,32.672 111.66,32.672 Z M119.244,34 L119.244,29.392 C119.244,28.6133333 119.468,27.9946667 119.916,27.536 C120.364,27.0773333 120.961333,26.848 121.708,26.848 C122.348,26.848 122.817333,27.0213333 123.116,27.368 C123.414667,27.7146667 123.564,28.2613333 123.564,29.008 L123.564,29.008 L123.564,34 L124.86,34 L124.86,28.944 C124.86,26.8213333 123.894667,25.76 121.964,25.76 C121.334667,25.76 120.774667,25.9013333 120.284,26.184 C119.793333,26.4666667 119.425333,26.8693333 119.18,27.392 L119.18,27.392 L119.052,25.952 L117.82,25.952 C117.905333,26.624 117.948,27.376 117.948,28.208 L117.948,28.208 L117.948,34 L119.244,34 Z M140.412,34.144 L141.116,33.248 C140.177333,32.8213333 139.430667,32.304 138.876,31.696 C139.238667,31.12 139.521333,30.4613333 139.724,29.72 C139.926667,28.9786667 140.038667,28.176 140.06,27.312 L140.06,27.312 L138.908,27.312 C138.876,28.688 138.609333,29.8613333 138.108,30.832 L138.108,30.832 L135.42,27.808 C136.284,27.2533333 136.886667,26.752 137.228,26.304 C137.569333,25.856 137.74,25.3493333 137.74,24.784 C137.74,24.08 137.510667,23.5226667 137.052,23.112 C136.593333,22.7013333 135.969333,22.496 135.18,22.496 C134.337333,22.496 133.66,22.7226667 133.148,23.176 C132.636,23.6293333 132.38,24.2293333 132.38,24.976 C132.38,25.392 132.478667,25.7946667 132.676,26.184 C132.873333,26.5733333 133.222667,27.056 133.724,27.632 C132.796,28.1866667 132.124,28.7386667 131.708,29.288 C131.292,29.8373333 131.084,30.4533333 131.084,31.136 C131.084,31.7226667 131.236,32.24 131.54,32.688 C131.844,33.136 132.273333,33.4853333 132.828,33.736 C133.382667,33.9866667 134.022667,34.112 134.748,34.112 C135.42,34.112 136.044,33.984 136.62,33.728 C137.196,33.472 137.713333,33.104 138.172,32.624 C138.78,33.232 139.526667,33.7386667 140.412,34.144 L140.412,34.144 Z M134.732,27.024 C134.294667,26.5226667 134.001333,26.1333333 133.852,25.856 C133.702667,25.5786667 133.628,25.2853333 133.628,24.976 C133.628,24.528 133.772,24.168 134.06,23.896 C134.348,23.624 134.726667,23.488 135.196,23.488 C135.612,23.488 135.948,23.6133333 136.204,23.864 C136.46,24.1146667 136.588,24.4426667 136.588,24.848 C136.588,25.2213333 136.454667,25.568 136.188,25.888 C135.921333,26.208 135.436,26.5866667 134.732,27.024 Z M134.78,33.056 C134.044,33.056 133.457333,32.88 133.02,32.528 C132.582667,32.176 132.364,31.7013333 132.364,31.104 C132.364,30.592 132.518667,30.1306667 132.828,29.72 C133.137333,29.3093333 133.665333,28.8746667 134.412,28.416 L134.412,28.416 L137.452,31.824 C136.716,32.6453333 135.825333,33.056 134.78,33.056 Z M149.26,34.112 C149.676,34.112 150.049333,34.0586667 150.38,33.952 L150.38,33.952 L150.38,32.848 C150.102667,32.944 149.814667,32.992 149.516,32.992 C149.068,32.992 148.721333,32.872 148.476,32.632 C148.230667,32.392 148.108,31.9733333 148.108,31.376 L148.108,31.376 L148.108,26.976 L150.412,26.976 L150.412,25.952 L148.108,25.952 L148.108,23.424 L146.812,23.888 L146.812,25.952 L145.244,25.952 L145.244,26.976 L146.812,26.976 L146.812,31.552 C146.812,32.3946667 147.028,33.032 147.46,33.464 C147.892,33.896 148.492,34.112 149.26,34.112 Z M155.532,34.112 C156.108,34.112 156.670667,34.016 157.22,33.824 C157.769333,33.632 158.22,33.3706667 158.572,33.04 L158.572,33.04 L158.14,32.096 C157.350667,32.7253333 156.486667,33.04 155.548,33.04 C154.662667,33.04 153.988,32.7786667 153.524,32.256 C153.06,31.7333333 152.822667,30.96 152.812,29.936 L152.812,29.936 L158.716,29.936 L158.716,29.696 C158.716,28.4693333 158.412,27.5066667 157.804,26.808 C157.196,26.1093333 156.358667,25.76 155.292,25.76 C154.556,25.76 153.9,25.936 153.324,26.288 C152.748,26.64 152.3,27.1333333 151.98,27.768 C151.66,28.4026667 151.5,29.1306667 151.5,29.952 C151.5,31.2426667 151.857333,32.2586667 152.572,33 C153.286667,33.7413333 154.273333,34.112 155.532,34.112 Z M157.548,29.088 L152.86,29.088 C152.977333,28.352 153.246667,27.7813333 153.668,27.376 C154.089333,26.9706667 154.636,26.768 155.308,26.768 C155.98,26.768 156.505333,26.9653333 156.884,27.36 C157.262667,27.7546667 157.484,28.3306667 157.548,29.088 L157.548,29.088 Z M164.06,34.112 C164.614667,34.112 165.150667,34.0186667 165.668,33.832 C166.185333,33.6453333 166.614667,33.392 166.956,33.072 L166.956,33.072 L166.524,32.112 C166.118667,32.432 165.726667,32.6666667 165.348,32.816 C164.969333,32.9653333 164.582667,33.04 164.188,33.04 C163.356,33.04 162.708,32.7706667 162.244,32.232 C161.78,31.6933333 161.548,30.9386667 161.548,29.968 C161.548,28.9866667 161.782667,28.2213333 162.252,27.672 C162.721333,27.1226667 163.366667,26.848 164.188,26.848 C164.582667,26.848 164.969333,26.9226667 165.348,27.072 C165.726667,27.2213333 166.118667,27.456 166.524,27.776 L166.524,27.776 L166.956,26.816 C166.625333,26.4853333 166.206667,26.2266667 165.7,26.04 C165.193333,25.8533333 164.668,25.76 164.124,25.76 C163.334667,25.76 162.644,25.936 162.052,26.288 C161.46,26.64 161.004,27.1333333 160.684,27.768 C160.364,28.4026667 160.204,29.136 160.204,29.968 C160.204,30.8 160.361333,31.528 160.676,32.152 C160.990667,32.776 161.438667,33.2586667 162.02,33.6 C162.601333,33.9413333 163.281333,34.112 164.06,34.112 Z M169.9,34 L169.9,29.392 C169.9,28.6133333 170.124,27.9946667 170.572,27.536 C171.02,27.0773333 171.617333,26.848 172.364,26.848 C173.004,26.848 173.473333,27.0213333 173.772,27.368 C174.070667,27.7146667 174.22,28.2613333 174.22,29.008 L174.22,29.008 L174.22,34 L175.516,34 L175.516,28.944 C175.516,26.8213333 174.550667,25.76 172.62,25.76 C172.012,25.76 171.470667,25.888 170.996,26.144 C170.521333,26.4 170.156,26.7733333 169.9,27.264 L169.9,27.264 L169.9,22.224 L168.604,22.224 L168.604,34 L169.9,34 Z M179.26,34 L179.26,29.392 C179.26,28.6133333 179.484,27.9946667 179.932,27.536 C180.38,27.0773333 180.977333,26.848 181.724,26.848 C182.364,26.848 182.833333,27.0213333 183.132,27.368 C183.430667,27.7146667 183.58,28.2613333 183.58,29.008 L183.58,29.008 L183.58,34 L184.876,34 L184.876,28.944 C184.876,26.8213333 183.910667,25.76 181.98,25.76 C181.350667,25.76 180.790667,25.9013333 180.3,26.184 C179.809333,26.4666667 179.441333,26.8693333 179.196,27.392 L179.196,27.392 L179.068,25.952 L177.836,25.952 C177.921333,26.624 177.964,27.376 177.964,28.208 L177.964,28.208 L177.964,34 L179.26,34 Z M188.78,24.016 L188.78,22.544 L187.196,22.544 L187.196,24.016 L188.78,24.016 Z M188.62,34 L188.62,25.952 L187.324,25.952 L187.324,34 L188.62,34 Z M194.508,34.112 C195.062667,34.112 195.598667,34.0186667 196.116,33.832 C196.633333,33.6453333 197.062667,33.392 197.404,33.072 L197.404,33.072 L196.972,32.112 C196.566667,32.432 196.174667,32.6666667 195.796,32.816 C195.417333,32.9653333 195.030667,33.04 194.636,33.04 C193.804,33.04 193.156,32.7706667 192.692,32.232 C192.228,31.6933333 191.996,30.9386667 191.996,29.968 C191.996,28.9866667 192.230667,28.2213333 192.7,27.672 C193.169333,27.1226667 193.814667,26.848 194.636,26.848 C195.030667,26.848 195.417333,26.9226667 195.796,27.072 C196.174667,27.2213333 196.566667,27.456 196.972,27.776 L196.972,27.776 L197.404,26.816 C197.073333,26.4853333 196.654667,26.2266667 196.148,26.04 C195.641333,25.8533333 195.116,25.76 194.572,25.76 C193.782667,25.76 193.092,25.936 192.5,26.288 C191.908,26.64 191.452,27.1333333 191.132,27.768 C190.812,28.4026667 190.652,29.136 190.652,29.968 C190.652,30.8 190.809333,31.528 191.124,32.152 C191.438667,32.776 191.886667,33.2586667 192.468,33.6 C193.049333,33.9413333 193.729333,34.112 194.508,34.112 Z M202.14,34.112 C202.769333,34.112 203.321333,33.976 203.796,33.704 C204.270667,33.432 204.625333,33.0453333 204.86,32.544 L204.86,32.544 L204.86,34 L206.14,34 L206.14,25.952 L204.86,25.952 L204.86,27.344 C204.614667,26.8426667 204.257333,26.4533333 203.788,26.176 C203.318667,25.8986667 202.769333,25.76 202.14,25.76 C201.436,25.76 200.814667,25.936 200.276,26.288 C199.737333,26.64 199.318667,27.1333333 199.02,27.768 C198.721333,28.4026667 198.572,29.136 198.572,29.968 C198.572,30.8 198.718667,31.528 199.012,32.152 C199.305333,32.776 199.721333,33.2586667 200.26,33.6 C200.798667,33.9413333 201.425333,34.112 202.14,34.112 Z M202.396,33.04 C201.596,33.04 200.977333,32.7733333 200.54,32.24 C200.102667,31.7066667 199.884,30.9493333 199.884,29.968 C199.884,28.9866667 200.105333,28.2213333 200.548,27.672 C200.990667,27.1226667 201.606667,26.848 202.396,26.848 C203.185333,26.848 203.793333,27.1146667 204.22,27.648 C204.646667,28.1813333 204.86,28.944 204.86,29.936 C204.86,30.928 204.646667,31.6933333 204.22,32.232 C203.793333,32.7706667 203.185333,33.04 202.396,33.04 Z M209.948,34 L209.948,22.224 L208.652,22.224 L208.652,34 L209.948,34 Z M219.724,34.112 C220.353333,34.112 220.905333,33.976 221.38,33.704 C221.854667,33.432 222.209333,33.0453333 222.444,32.544 L222.444,32.544 L222.444,34 L223.724,34 L223.724,22.224 L222.428,22.224 L222.428,27.312 C222.193333,26.8213333 221.841333,26.44 221.372,26.168 C220.902667,25.896 220.353333,25.76 219.724,25.76 C219.02,25.76 218.396,25.9306667 217.852,26.272 C217.308,26.6133333 216.889333,27.096 216.596,27.72 C216.302667,28.344 216.156,29.072 216.156,29.904 C216.156,30.736 216.305333,31.4693333 216.604,32.104 C216.902667,32.7386667 217.321333,33.232 217.86,33.584 C218.398667,33.936 219.02,34.112 219.724,34.112 Z M219.98,33.04 C219.190667,33.04 218.574667,32.7653333 218.132,32.216 C217.689333,31.6666667 217.468,30.896 217.468,29.904 C217.468,28.9333333 217.689333,28.1813333 218.132,27.648 C218.574667,27.1146667 219.190667,26.848 219.98,26.848 C220.769333,26.848 221.377333,27.1173333 221.804,27.656 C222.230667,28.1946667 222.444,28.9546667 222.444,29.936 C222.444,30.928 222.230667,31.6933333 221.804,32.232 C221.377333,32.7706667 220.769333,33.04 219.98,33.04 Z M229.564,34.112 C230.321333,34.112 230.988,33.9413333 231.564,33.6 C232.14,33.2586667 232.585333,32.7733333 232.9,32.144 C233.214667,31.5146667 233.372,30.7786667 233.372,29.936 C233.372,29.0933333 233.214667,28.3573333 232.9,27.728 C232.585333,27.0986667 232.14,26.6133333 231.564,26.272 C230.988,25.9306667 230.321333,25.76 229.564,25.76 C228.806667,25.76 228.14,25.9306667 227.564,26.272 C226.988,26.6133333 226.542667,27.0986667 226.228,27.728 C225.913333,28.3573333 225.756,29.0933333 225.756,29.936 C225.756,30.7786667 225.913333,31.5146667 226.228,32.144 C226.542667,32.7733333 226.988,33.2586667 227.564,33.6 C228.14,33.9413333 228.806667,34.112 229.564,34.112 Z M229.564,33.04 C228.764,33.04 228.148,32.776 227.716,32.248 C227.284,31.72 227.068,30.9493333 227.068,29.936 C227.068,28.9546667 227.286667,28.1946667 227.724,27.656 C228.161333,27.1173333 228.774667,26.848 229.564,26.848 C230.342667,26.848 230.950667,27.1173333 231.388,27.656 C231.825333,28.1946667 232.044,28.9546667 232.044,29.936 C232.044,30.9493333 231.830667,31.72 231.404,32.248 C230.977333,32.776 230.364,33.04 229.564,33.04 Z M238.764,34.112 C239.318667,34.112 239.854667,34.0186667 240.372,33.832 C240.889333,33.6453333 241.318667,33.392 241.66,33.072 L241.66,33.072 L241.228,32.112 C240.822667,32.432 240.430667,32.6666667 240.052,32.816 C239.673333,32.9653333 239.286667,33.04 238.892,33.04 C238.06,33.04 237.412,32.7706667 236.948,32.232 C236.484,31.6933333 236.252,30.9386667 236.252,29.968 C236.252,28.9866667 236.486667,28.2213333 236.956,27.672 C237.425333,27.1226667 238.070667,26.848 238.892,26.848 C239.286667,26.848 239.673333,26.9226667 240.052,27.072 C240.430667,27.2213333 240.822667,27.456 241.228,27.776 L241.228,27.776 L241.66,26.816 C241.329333,26.4853333 240.910667,26.2266667 240.404,26.04 C239.897333,25.8533333 239.372,25.76 238.828,25.76 C238.038667,25.76 237.348,25.936 236.756,26.288 C236.164,26.64 235.708,27.1333333 235.388,27.768 C235.068,28.4026667 234.908,29.136 234.908,29.968 C234.908,30.8 235.065333,31.528 235.38,32.152 C235.694667,32.776 236.142667,33.2586667 236.724,33.6 C237.305333,33.9413333 237.985333,34.112 238.764,34.112 Z M246.156,34.112 C246.732,34.112 247.249333,33.984 247.708,33.728 C248.166667,33.472 248.524,33.0986667 248.78,32.608 L248.78,32.608 L248.78,34 L250.044,34 L250.044,25.952 L248.748,25.952 L248.748,30.496 C248.748,31.2533333 248.529333,31.864 248.092,32.328 C247.654667,32.792 247.078667,33.024 246.364,33.024 C245.756,33.024 245.302667,32.8533333 245.004,32.512 C244.705333,32.1706667 244.556,31.6373333 244.556,30.912 L244.556,30.912 L244.556,25.952 L243.26,25.952 L243.26,30.944 C243.26,31.9893333 243.505333,32.7786667 243.996,33.312 C244.486667,33.8453333 245.206667,34.112 246.156,34.112 Z M253.836,34 L253.836,29.408 C253.836,28.6186667 254.030667,27.9946667 254.42,27.536 C254.809333,27.0773333 255.345333,26.848 256.028,26.848 C256.614667,26.848 257.041333,27.0213333 257.308,27.368 C257.574667,27.7146667 257.708,28.2613333 257.708,29.008 L257.708,29.008 L257.708,34 L259.004,34 L259.004,29.408 C259.004,28.6186667 259.196,27.9946667 259.58,27.536 C259.964,27.0773333 260.497333,26.848 261.18,26.848 C261.766667,26.848 262.190667,27.0186667 262.452,27.36 C262.713333,27.7013333 262.844,28.2506667 262.844,29.008 L262.844,29.008 L262.844,34 L264.14,34 L264.14,28.944 C264.14,26.8213333 263.249333,25.76 261.468,25.76 C260.870667,25.76 260.334667,25.9013333 259.86,26.184 C259.385333,26.4666667 259.025333,26.848 258.78,27.328 C258.588,26.7946667 258.289333,26.4 257.884,26.144 C257.478667,25.888 256.956,25.76 256.316,25.76 C255.729333,25.76 255.214667,25.8986667 254.772,26.176 C254.329333,26.4533333 253.996,26.848 253.772,27.36 L253.772,27.36 L253.644,25.952 L252.412,25.952 C252.497333,26.624 252.54,27.376 252.54,28.208 L252.54,28.208 L252.54,34 L253.836,34 Z M270.156,34.112 C270.732,34.112 271.294667,34.016 271.844,33.824 C272.393333,33.632 272.844,33.3706667 273.196,33.04 L273.196,33.04 L272.764,32.096 C271.974667,32.7253333 271.110667,33.04 270.172,33.04 C269.286667,33.04 268.612,32.7786667 268.148,32.256 C267.684,31.7333333 267.446667,30.96 267.436,29.936 L267.436,29.936 L273.34,29.936 L273.34,29.696 C273.34,28.4693333 273.036,27.5066667 272.428,26.808 C271.82,26.1093333 270.982667,25.76 269.916,25.76 C269.18,25.76 268.524,25.936 267.948,26.288 C267.372,26.64 266.924,27.1333333 266.604,27.768 C266.284,28.4026667 266.124,29.1306667 266.124,29.952 C266.124,31.2426667 266.481333,32.2586667 267.196,33 C267.910667,33.7413333 268.897333,34.112 270.156,34.112 Z M272.172,29.088 L267.484,29.088 C267.601333,28.352 267.870667,27.7813333 268.292,27.376 C268.713333,26.9706667 269.26,26.768 269.932,26.768 C270.604,26.768 271.129333,26.9653333 271.508,27.36 C271.886667,27.7546667 272.108,28.3306667 272.172,29.088 L272.172,29.088 Z M276.604,34 L276.604,29.392 C276.604,28.6133333 276.828,27.9946667 277.276,27.536 C277.724,27.0773333 278.321333,26.848 279.068,26.848 C279.708,26.848 280.177333,27.0213333 280.476,27.368 C280.774667,27.7146667 280.924,28.2613333 280.924,29.008 L280.924,29.008 L280.924,34 L282.22,34 L282.22,28.944 C282.22,26.8213333 281.254667,25.76 279.324,25.76 C278.694667,25.76 278.134667,25.9013333 277.644,26.184 C277.153333,26.4666667 276.785333,26.8693333 276.54,27.392 L276.54,27.392 L276.412,25.952 L275.18,25.952 C275.265333,26.624 275.308,27.376 275.308,28.208 L275.308,28.208 L275.308,34 L276.604,34 Z M287.548,34.112 C287.964,34.112 288.337333,34.0586667 288.668,33.952 L288.668,33.952 L288.668,32.848 C288.390667,32.944 288.102667,32.992 287.804,32.992 C287.356,32.992 287.009333,32.872 286.764,32.632 C286.518667,32.392 286.396,31.9733333 286.396,31.376 L286.396,31.376 L286.396,26.976 L288.7,26.976 L288.7,25.952 L286.396,25.952 L286.396,23.424 L285.1,23.888 L285.1,25.952 L283.532,25.952 L283.532,26.976 L285.1,26.976 L285.1,31.552 C285.1,32.3946667 285.316,33.032 285.748,33.464 C286.18,33.896 286.78,34.112 287.548,34.112 Z M292.988,34.112 C293.958667,34.112 294.726667,33.904 295.292,33.488 C295.857333,33.072 296.14,32.5173333 296.14,31.824 C296.14,31.248 295.958667,30.7813333 295.596,30.424 C295.233333,30.0666667 294.678667,29.8026667 293.932,29.632 L293.932,29.632 L292.572,29.296 C292.134667,29.1893333 291.817333,29.04 291.62,28.848 C291.422667,28.656 291.324,28.3946667 291.324,28.064 C291.324,27.6693333 291.481333,27.3626667 291.796,27.144 C292.110667,26.9253333 292.556,26.816 293.132,26.816 C293.996,26.816 294.806667,27.1306667 295.564,27.76 L295.564,27.76 L295.996,26.816 C295.654667,26.4746667 295.233333,26.2133333 294.732,26.032 C294.230667,25.8506667 293.697333,25.76 293.132,25.76 C292.204,25.76 291.457333,25.9813333 290.892,26.424 C290.326667,26.8666667 290.044,27.44 290.044,28.144 C290.044,28.6773333 290.228,29.136 290.596,29.52 C290.964,29.904 291.484,30.1706667 292.156,30.32 L292.156,30.32 L293.516,30.64 C294.006667,30.7466667 294.358667,30.896 294.572,31.088 C294.785333,31.28 294.892,31.536 294.892,31.856 C294.892,32.2506667 294.734667,32.552 294.42,32.76 C294.105333,32.968 293.644,33.072 293.036,33.072 C292.481333,33.072 291.98,32.9973333 291.532,32.848 C291.084,32.6986667 290.641333,32.4533333 290.204,32.112 L290.204,32.112 L289.772,33.072 C290.561333,33.7653333 291.633333,34.112 292.988,34.112 Z" id="Systemdesign&amp;technicaldocuments" fill="#2C2E32" fill-rule="nonzero"></path>
                </g>
                <g id="3" transform="translate(59.000000, 223.000000)">
                    <rect id="Rectangle" stroke="#2C2E32" stroke-width="2" fill="#FFFFFF" x="1" y="1" width="195" height="53" rx="16"></rect>
                    <path d="M20.068,34 L20.068,22.608 L18.756,22.608 L18.756,34 L20.068,34 Z M24.02,34 L24.02,29.408 C24.02,28.6186667 24.2146667,27.9946667 24.604,27.536 C24.9933333,27.0773333 25.5293333,26.848 26.212,26.848 C26.7986667,26.848 27.2253333,27.0213333 27.492,27.368 C27.7586667,27.7146667 27.892,28.2613333 27.892,29.008 L27.892,29.008 L27.892,34 L29.188,34 L29.188,29.408 C29.188,28.6186667 29.38,27.9946667 29.764,27.536 C30.148,27.0773333 30.6813333,26.848 31.364,26.848 C31.9506667,26.848 32.3746667,27.0186667 32.636,27.36 C32.8973333,27.7013333 33.028,28.2506667 33.028,29.008 L33.028,29.008 L33.028,34 L34.324,34 L34.324,28.944 C34.324,26.8213333 33.4333333,25.76 31.652,25.76 C31.0546667,25.76 30.5186667,25.9013333 30.044,26.184 C29.5693333,26.4666667 29.2093333,26.848 28.964,27.328 C28.772,26.7946667 28.4733333,26.4 28.068,26.144 C27.6626667,25.888 27.14,25.76 26.5,25.76 C25.9133333,25.76 25.3986667,25.8986667 24.956,26.176 C24.5133333,26.4533333 24.18,26.848 23.956,27.36 L23.956,27.36 L23.828,25.952 L22.596,25.952 C22.6813333,26.624 22.724,27.376 22.724,28.208 L22.724,28.208 L22.724,34 L24.02,34 Z M38.084,37.456 L38.084,32.512 C38.3293333,33.024 38.6866667,33.4186667 39.156,33.696 C39.6253333,33.9733333 40.1746667,34.112 40.804,34.112 C41.5186667,34.112 42.1453333,33.9413333 42.684,33.6 C43.2226667,33.2586667 43.6413333,32.776 43.94,32.152 C44.2386667,31.528 44.388,30.8 44.388,29.968 C44.388,29.136 44.2386667,28.4026667 43.94,27.768 C43.6413333,27.1333333 43.22,26.64 42.676,26.288 C42.132,25.936 41.508,25.76 40.804,25.76 C40.1426667,25.76 39.5693333,25.912 39.084,26.216 C38.5986667,26.52 38.244,26.9493333 38.02,27.504 L38.02,27.504 L37.892,25.952 L36.66,25.952 C36.7453333,26.624 36.788,27.376 36.788,28.208 L36.788,28.208 L36.788,37.456 L38.084,37.456 Z M40.564,33.04 C39.764,33.04 39.1506667,32.7706667 38.724,32.232 C38.2973333,31.6933333 38.084,30.928 38.084,29.936 C38.084,28.944 38.2973333,28.1813333 38.724,27.648 C39.1506667,27.1146667 39.764,26.848 40.564,26.848 C41.3426667,26.848 41.9506667,27.1226667 42.388,27.672 C42.8253333,28.2213333 43.044,28.9866667 43.044,29.968 C43.044,30.9493333 42.828,31.7066667 42.396,32.24 C41.964,32.7733333 41.3533333,33.04 40.564,33.04 Z M47.684,34 L47.684,22.224 L46.388,22.224 L46.388,34 L47.684,34 Z M53.748,34.112 C54.324,34.112 54.8866667,34.016 55.436,33.824 C55.9853333,33.632 56.436,33.3706667 56.788,33.04 L56.788,33.04 L56.356,32.096 C55.5666667,32.7253333 54.7026667,33.04 53.764,33.04 C52.8786667,33.04 52.204,32.7786667 51.74,32.256 C51.276,31.7333333 51.0386667,30.96 51.028,29.936 L51.028,29.936 L56.932,29.936 L56.932,29.696 C56.932,28.4693333 56.628,27.5066667 56.02,26.808 C55.412,26.1093333 54.5746667,25.76 53.508,25.76 C52.772,25.76 52.116,25.936 51.54,26.288 C50.964,26.64 50.516,27.1333333 50.196,27.768 C49.876,28.4026667 49.716,29.1306667 49.716,29.952 C49.716,31.2426667 50.0733333,32.2586667 50.788,33 C51.5026667,33.7413333 52.4893333,34.112 53.748,34.112 Z M55.764,29.088 L51.076,29.088 C51.1933333,28.352 51.4626667,27.7813333 51.884,27.376 C52.3053333,26.9706667 52.852,26.768 53.524,26.768 C54.196,26.768 54.7213333,26.9653333 55.1,27.36 C55.4786667,27.7546667 55.7,28.3306667 55.764,29.088 L55.764,29.088 Z M60.196,34 L60.196,29.408 C60.196,28.6186667 60.3906667,27.9946667 60.78,27.536 C61.1693333,27.0773333 61.7053333,26.848 62.388,26.848 C62.9746667,26.848 63.4013333,27.0213333 63.668,27.368 C63.9346667,27.7146667 64.068,28.2613333 64.068,29.008 L64.068,29.008 L64.068,34 L65.364,34 L65.364,29.408 C65.364,28.6186667 65.556,27.9946667 65.94,27.536 C66.324,27.0773333 66.8573333,26.848 67.54,26.848 C68.1266667,26.848 68.5506667,27.0186667 68.812,27.36 C69.0733333,27.7013333 69.204,28.2506667 69.204,29.008 L69.204,29.008 L69.204,34 L70.5,34 L70.5,28.944 C70.5,26.8213333 69.6093333,25.76 67.828,25.76 C67.2306667,25.76 66.6946667,25.9013333 66.22,26.184 C65.7453333,26.4666667 65.3853333,26.848 65.14,27.328 C64.948,26.7946667 64.6493333,26.4 64.244,26.144 C63.8386667,25.888 63.316,25.76 62.676,25.76 C62.0893333,25.76 61.5746667,25.8986667 61.132,26.176 C60.6893333,26.4533333 60.356,26.848 60.132,27.36 L60.132,27.36 L60.004,25.952 L58.772,25.952 C58.8573333,26.624 58.9,27.376 58.9,28.208 L58.9,28.208 L58.9,34 L60.196,34 Z M76.516,34.112 C77.092,34.112 77.6546667,34.016 78.204,33.824 C78.7533333,33.632 79.204,33.3706667 79.556,33.04 L79.556,33.04 L79.124,32.096 C78.3346667,32.7253333 77.4706667,33.04 76.532,33.04 C75.6466667,33.04 74.972,32.7786667 74.508,32.256 C74.044,31.7333333 73.8066667,30.96 73.796,29.936 L73.796,29.936 L79.7,29.936 L79.7,29.696 C79.7,28.4693333 79.396,27.5066667 78.788,26.808 C78.18,26.1093333 77.3426667,25.76 76.276,25.76 C75.54,25.76 74.884,25.936 74.308,26.288 C73.732,26.64 73.284,27.1333333 72.964,27.768 C72.644,28.4026667 72.484,29.1306667 72.484,29.952 C72.484,31.2426667 72.8413333,32.2586667 73.556,33 C74.2706667,33.7413333 75.2573333,34.112 76.516,34.112 Z M78.532,29.088 L73.844,29.088 C73.9613333,28.352 74.2306667,27.7813333 74.652,27.376 C75.0733333,26.9706667 75.62,26.768 76.292,26.768 C76.964,26.768 77.4893333,26.9653333 77.868,27.36 C78.2466667,27.7546667 78.468,28.3306667 78.532,29.088 L78.532,29.088 Z M82.964,34 L82.964,29.392 C82.964,28.6133333 83.188,27.9946667 83.636,27.536 C84.084,27.0773333 84.6813333,26.848 85.428,26.848 C86.068,26.848 86.5373333,27.0213333 86.836,27.368 C87.1346667,27.7146667 87.284,28.2613333 87.284,29.008 L87.284,29.008 L87.284,34 L88.58,34 L88.58,28.944 C88.58,26.8213333 87.6146667,25.76 85.684,25.76 C85.0546667,25.76 84.4946667,25.9013333 84.004,26.184 C83.5133333,26.4666667 83.1453333,26.8693333 82.9,27.392 L82.9,27.392 L82.772,25.952 L81.54,25.952 C81.6253333,26.624 81.668,27.376 81.668,28.208 L81.668,28.208 L81.668,34 L82.964,34 Z M93.908,34.112 C94.324,34.112 94.6973333,34.0586667 95.028,33.952 L95.028,33.952 L95.028,32.848 C94.7506667,32.944 94.4626667,32.992 94.164,32.992 C93.716,32.992 93.3693333,32.872 93.124,32.632 C92.8786667,32.392 92.756,31.9733333 92.756,31.376 L92.756,31.376 L92.756,26.976 L95.06,26.976 L95.06,25.952 L92.756,25.952 L92.756,23.424 L91.46,23.888 L91.46,25.952 L89.892,25.952 L89.892,26.976 L91.46,26.976 L91.46,31.552 C91.46,32.3946667 91.676,33.032 92.108,33.464 C92.54,33.896 93.14,34.112 93.908,34.112 Z M109.732,34.144 L110.436,33.248 C109.497333,32.8213333 108.750667,32.304 108.196,31.696 C108.558667,31.12 108.841333,30.4613333 109.044,29.72 C109.246667,28.9786667 109.358667,28.176 109.38,27.312 L109.38,27.312 L108.228,27.312 C108.196,28.688 107.929333,29.8613333 107.428,30.832 L107.428,30.832 L104.74,27.808 C105.604,27.2533333 106.206667,26.752 106.548,26.304 C106.889333,25.856 107.06,25.3493333 107.06,24.784 C107.06,24.08 106.830667,23.5226667 106.372,23.112 C105.913333,22.7013333 105.289333,22.496 104.5,22.496 C103.657333,22.496 102.98,22.7226667 102.468,23.176 C101.956,23.6293333 101.7,24.2293333 101.7,24.976 C101.7,25.392 101.798667,25.7946667 101.996,26.184 C102.193333,26.5733333 102.542667,27.056 103.044,27.632 C102.116,28.1866667 101.444,28.7386667 101.028,29.288 C100.612,29.8373333 100.404,30.4533333 100.404,31.136 C100.404,31.7226667 100.556,32.24 100.86,32.688 C101.164,33.136 101.593333,33.4853333 102.148,33.736 C102.702667,33.9866667 103.342667,34.112 104.068,34.112 C104.74,34.112 105.364,33.984 105.94,33.728 C106.516,33.472 107.033333,33.104 107.492,32.624 C108.1,33.232 108.846667,33.7386667 109.732,34.144 L109.732,34.144 Z M104.052,27.024 C103.614667,26.5226667 103.321333,26.1333333 103.172,25.856 C103.022667,25.5786667 102.948,25.2853333 102.948,24.976 C102.948,24.528 103.092,24.168 103.38,23.896 C103.668,23.624 104.046667,23.488 104.516,23.488 C104.932,23.488 105.268,23.6133333 105.524,23.864 C105.78,24.1146667 105.908,24.4426667 105.908,24.848 C105.908,25.2213333 105.774667,25.568 105.508,25.888 C105.241333,26.208 104.756,26.5866667 104.052,27.024 Z M104.1,33.056 C103.364,33.056 102.777333,32.88 102.34,32.528 C101.902667,32.176 101.684,31.7013333 101.684,31.104 C101.684,30.592 101.838667,30.1306667 102.148,29.72 C102.457333,29.3093333 102.985333,28.8746667 103.732,28.416 L103.732,28.416 L106.772,31.824 C106.036,32.6453333 105.145333,33.056 104.1,33.056 Z M116.996,34 L116.996,29.408 C116.996,28.6186667 117.190667,27.9946667 117.58,27.536 C117.969333,27.0773333 118.505333,26.848 119.188,26.848 C119.774667,26.848 120.201333,27.0213333 120.468,27.368 C120.734667,27.7146667 120.868,28.2613333 120.868,29.008 L120.868,29.008 L120.868,34 L122.164,34 L122.164,29.408 C122.164,28.6186667 122.356,27.9946667 122.74,27.536 C123.124,27.0773333 123.657333,26.848 124.34,26.848 C124.926667,26.848 125.350667,27.0186667 125.612,27.36 C125.873333,27.7013333 126.004,28.2506667 126.004,29.008 L126.004,29.008 L126.004,34 L127.3,34 L127.3,28.944 C127.3,26.8213333 126.409333,25.76 124.628,25.76 C124.030667,25.76 123.494667,25.9013333 123.02,26.184 C122.545333,26.4666667 122.185333,26.848 121.94,27.328 C121.748,26.7946667 121.449333,26.4 121.044,26.144 C120.638667,25.888 120.116,25.76 119.476,25.76 C118.889333,25.76 118.374667,25.8986667 117.932,26.176 C117.489333,26.4533333 117.156,26.848 116.932,27.36 L116.932,27.36 L116.804,25.952 L115.572,25.952 C115.657333,26.624 115.7,27.376 115.7,28.208 L115.7,28.208 L115.7,34 L116.996,34 Z M132.852,34.112 C133.481333,34.112 134.033333,33.976 134.508,33.704 C134.982667,33.432 135.337333,33.0453333 135.572,32.544 L135.572,32.544 L135.572,34 L136.852,34 L136.852,25.952 L135.572,25.952 L135.572,27.344 C135.326667,26.8426667 134.969333,26.4533333 134.5,26.176 C134.030667,25.8986667 133.481333,25.76 132.852,25.76 C132.148,25.76 131.526667,25.936 130.988,26.288 C130.449333,26.64 130.030667,27.1333333 129.732,27.768 C129.433333,28.4026667 129.284,29.136 129.284,29.968 C129.284,30.8 129.430667,31.528 129.724,32.152 C130.017333,32.776 130.433333,33.2586667 130.972,33.6 C131.510667,33.9413333 132.137333,34.112 132.852,34.112 Z M133.108,33.04 C132.308,33.04 131.689333,32.7733333 131.252,32.24 C130.814667,31.7066667 130.596,30.9493333 130.596,29.968 C130.596,28.9866667 130.817333,28.2213333 131.26,27.672 C131.702667,27.1226667 132.318667,26.848 133.108,26.848 C133.897333,26.848 134.505333,27.1146667 134.932,27.648 C135.358667,28.1813333 135.572,28.944 135.572,29.936 C135.572,30.928 135.358667,31.6933333 134.932,32.232 C134.505333,32.7706667 133.897333,33.04 133.108,33.04 Z M140.82,24.016 L140.82,22.544 L139.236,22.544 L139.236,24.016 L140.82,24.016 Z M140.66,34 L140.66,25.952 L139.364,25.952 L139.364,34 L140.66,34 Z M144.468,34 L144.468,29.392 C144.468,28.6133333 144.692,27.9946667 145.14,27.536 C145.588,27.0773333 146.185333,26.848 146.932,26.848 C147.572,26.848 148.041333,27.0213333 148.34,27.368 C148.638667,27.7146667 148.788,28.2613333 148.788,29.008 L148.788,29.008 L148.788,34 L150.084,34 L150.084,28.944 C150.084,26.8213333 149.118667,25.76 147.188,25.76 C146.558667,25.76 145.998667,25.9013333 145.508,26.184 C145.017333,26.4666667 144.649333,26.8693333 144.404,27.392 L144.404,27.392 L144.276,25.952 L143.044,25.952 C143.129333,26.624 143.172,27.376 143.172,28.208 L143.172,28.208 L143.172,34 L144.468,34 Z M155.412,34.112 C155.828,34.112 156.201333,34.0586667 156.532,33.952 L156.532,33.952 L156.532,32.848 C156.254667,32.944 155.966667,32.992 155.668,32.992 C155.22,32.992 154.873333,32.872 154.628,32.632 C154.382667,32.392 154.26,31.9733333 154.26,31.376 L154.26,31.376 L154.26,26.976 L156.564,26.976 L156.564,25.952 L154.26,25.952 L154.26,23.424 L152.964,23.888 L152.964,25.952 L151.396,25.952 L151.396,26.976 L152.964,26.976 L152.964,31.552 C152.964,32.3946667 153.18,33.032 153.612,33.464 C154.044,33.896 154.644,34.112 155.412,34.112 Z M161.22,34.112 C161.849333,34.112 162.401333,33.976 162.876,33.704 C163.350667,33.432 163.705333,33.0453333 163.94,32.544 L163.94,32.544 L163.94,34 L165.22,34 L165.22,25.952 L163.94,25.952 L163.94,27.344 C163.694667,26.8426667 163.337333,26.4533333 162.868,26.176 C162.398667,25.8986667 161.849333,25.76 161.22,25.76 C160.516,25.76 159.894667,25.936 159.356,26.288 C158.817333,26.64 158.398667,27.1333333 158.1,27.768 C157.801333,28.4026667 157.652,29.136 157.652,29.968 C157.652,30.8 157.798667,31.528 158.092,32.152 C158.385333,32.776 158.801333,33.2586667 159.34,33.6 C159.878667,33.9413333 160.505333,34.112 161.22,34.112 Z M161.476,33.04 C160.676,33.04 160.057333,32.7733333 159.62,32.24 C159.182667,31.7066667 158.964,30.9493333 158.964,29.968 C158.964,28.9866667 159.185333,28.2213333 159.628,27.672 C160.070667,27.1226667 160.686667,26.848 161.476,26.848 C162.265333,26.848 162.873333,27.1146667 163.3,27.648 C163.726667,28.1813333 163.94,28.944 163.94,29.936 C163.94,30.928 163.726667,31.6933333 163.3,32.232 C162.873333,32.7706667 162.265333,33.04 161.476,33.04 Z M169.188,24.016 L169.188,22.544 L167.604,22.544 L167.604,24.016 L169.188,24.016 Z M169.028,34 L169.028,25.952 L167.732,25.952 L167.732,34 L169.028,34 Z M172.836,34 L172.836,29.392 C172.836,28.6133333 173.06,27.9946667 173.508,27.536 C173.956,27.0773333 174.553333,26.848 175.3,26.848 C175.94,26.848 176.409333,27.0213333 176.708,27.368 C177.006667,27.7146667 177.156,28.2613333 177.156,29.008 L177.156,29.008 L177.156,34 L178.452,34 L178.452,28.944 C178.452,26.8213333 177.486667,25.76 175.556,25.76 C174.926667,25.76 174.366667,25.9013333 173.876,26.184 C173.385333,26.4666667 173.017333,26.8693333 172.772,27.392 L172.772,27.392 L172.644,25.952 L171.412,25.952 C171.497333,26.624 171.54,27.376 171.54,28.208 L171.54,28.208 L171.54,34 L172.836,34 Z" id="Implement&amp;maintain" fill="#2C2E32" fill-rule="nonzero"></path>
                </g>
                <g id="4" transform="translate(78.000000, 297.000000)">
                    <rect id="Rectangle" fill="#E74B00" x="0" y="0" width="159" height="55" rx="16"></rect>
                    <path d="M56.52,34 L56.52,29.264 L58.584,29.264 C59.0106667,29.264 59.3573333,29.3333333 59.624,29.472 C59.8906667,29.6106667 60.088,29.856 60.216,30.208 L60.216,30.208 L61.672,34 L63.848,34 L62.456,30.352 C62.1573333,29.552 61.672,29.0826667 61,28.944 C61.736,28.72 62.304,28.344 62.704,27.816 C63.104,27.288 63.304,26.6453333 63.304,25.888 C63.304,24.832 62.968,24.0213333 62.296,23.456 C61.624,22.8906667 60.6426667,22.608 59.352,22.608 L59.352,22.608 L54.472,22.608 L54.472,34 L56.52,34 Z M59.064,27.664 L56.488,27.664 L56.488,24.208 L59.064,24.208 C59.8533333,24.208 60.432,24.3493333 60.8,24.632 C61.168,24.9146667 61.352,25.344 61.352,25.92 C61.352,26.5066667 61.1653333,26.944 60.792,27.232 C60.4186667,27.52 59.8426667,27.664 59.064,27.664 L59.064,27.664 Z M69.368,34.128 C69.944,34.128 70.512,34.0346667 71.072,33.848 C71.632,33.6613333 72.104,33.4133333 72.488,33.104 L72.488,33.104 L71.912,31.728 C71.1546667,32.304 70.3333333,32.592 69.448,32.592 C68.68,32.592 68.1013333,32.3866667 67.712,31.976 C67.3226667,31.5653333 67.1066667,30.928 67.064,30.064 L67.064,30.064 L72.632,30.064 L72.632,29.76 C72.632,28.5013333 72.3093333,27.512 71.664,26.792 C71.0186667,26.072 70.1413333,25.712 69.032,25.712 C68.2746667,25.712 67.5973333,25.8906667 67,26.248 C66.4026667,26.6053333 65.9386667,27.104 65.608,27.744 C65.2773333,28.384 65.112,29.1146667 65.112,29.936 C65.112,31.2373333 65.4906667,32.2613333 66.248,33.008 C67.0053333,33.7546667 68.0453333,34.128 69.368,34.128 Z M70.888,28.992 L67.128,28.992 C67.224,28.3946667 67.44,27.9386667 67.776,27.624 C68.112,27.3093333 68.5466667,27.152 69.08,27.152 C69.6133333,27.152 70.032,27.3066667 70.336,27.616 C70.64,27.9253333 70.824,28.384 70.888,28.992 L70.888,28.992 Z M76.312,37.456 L76.312,32.704 C76.5573333,33.152 76.9093333,33.5013333 77.368,33.752 C77.8266667,34.0026667 78.3493333,34.128 78.936,34.128 C79.64,34.128 80.2613333,33.9573333 80.8,33.616 C81.3386667,33.2746667 81.7573333,32.7893333 82.056,32.16 C82.3546667,31.5306667 82.504,30.8 82.504,29.968 C82.504,29.136 82.352,28.3973333 82.048,27.752 C81.744,27.1066667 81.3226667,26.6053333 80.784,26.248 C80.2453333,25.8906667 79.6293333,25.712 78.936,25.712 C78.3066667,25.712 77.752,25.8533333 77.272,26.136 C76.792,26.4186667 76.4453333,26.8106667 76.232,27.312 L76.232,27.312 L76.072,25.92 L74.2,25.92 C74.2853333,26.592 74.328,27.3546667 74.328,28.208 L74.328,28.208 L74.328,37.456 L76.312,37.456 Z M78.392,32.56 C77.72,32.56 77.2026667,32.3333333 76.84,31.88 C76.4773333,31.4266667 76.296,30.7786667 76.296,29.936 C76.296,29.0826667 76.4773333,28.4266667 76.84,27.968 C77.2026667,27.5093333 77.7253333,27.28 78.408,27.28 C79.0693333,27.28 79.5813333,27.5173333 79.944,27.992 C80.3066667,28.4666667 80.488,29.1253333 80.488,29.968 C80.488,30.8 80.3066667,31.44 79.944,31.888 C79.5813333,32.336 79.064,32.56 78.392,32.56 Z M87.912,34.128 C88.7226667,34.128 89.4373333,33.9573333 90.056,33.616 C90.6746667,33.2746667 91.152,32.7866667 91.488,32.152 C91.824,31.5173333 91.992,30.7733333 91.992,29.92 C91.992,29.0666667 91.824,28.3226667 91.488,27.688 C91.152,27.0533333 90.6746667,26.5653333 90.056,26.224 C89.4373333,25.8826667 88.7226667,25.712 87.912,25.712 C87.0906667,25.712 86.368,25.8826667 85.744,26.224 C85.12,26.5653333 84.64,27.0533333 84.304,27.688 C83.968,28.3226667 83.8,29.0666667 83.8,29.92 C83.8,30.7733333 83.968,31.5173333 84.304,32.152 C84.64,32.7866667 85.12,33.2746667 85.744,33.616 C86.368,33.9573333 87.0906667,34.128 87.912,34.128 Z M87.896,32.56 C87.224,32.56 86.7093333,32.3386667 86.352,31.896 C85.9946667,31.4533333 85.816,30.7946667 85.816,29.92 C85.816,29.056 85.9973333,28.3973333 86.36,27.944 C86.7226667,27.4906667 87.24,27.264 87.912,27.264 C88.5733333,27.264 89.0853333,27.4906667 89.448,27.944 C89.8106667,28.3973333 89.992,29.056 89.992,29.92 C89.992,30.7946667 89.8133333,31.4533333 89.456,31.896 C89.0986667,32.3386667 88.5786667,32.56 87.896,32.56 Z M95.704,34 L95.704,29.632 C95.704,28.9813333 95.8826667,28.4586667 96.24,28.064 C96.5973333,27.6693333 97.1173333,27.472 97.8,27.472 C98.1626667,27.472 98.5146667,27.5413333 98.856,27.68 L98.856,27.68 L98.872,25.856 C98.648,25.7706667 98.3813333,25.728 98.072,25.728 C97.5173333,25.728 97.0213333,25.8666667 96.584,26.144 C96.1466667,26.4213333 95.8266667,26.8213333 95.624,27.344 L95.624,27.344 L95.464,25.92 L93.592,25.92 C93.6773333,26.592 93.72,27.3546667 93.72,28.208 L93.72,28.208 L93.72,34 L95.704,34 Z M103.384,34.112 C103.885333,34.112 104.312,34.048 104.664,33.92 L104.664,33.92 L104.664,32.336 C104.376,32.4213333 104.109333,32.464 103.864,32.464 C102.978667,32.464 102.536,31.9893333 102.536,31.04 L102.536,31.04 L102.536,27.424 L104.68,27.424 L104.68,25.92 L102.536,25.92 L102.536,23.28 L100.536,23.952 L100.536,25.92 L98.984,25.92 L98.984,27.424 L100.536,27.424 L100.536,31.136 C100.536,32.096 100.781333,32.832 101.272,33.344 C101.762667,33.856 102.466667,34.112 103.384,34.112 Z M108.152,24.224 L108.152,22.256 L105.928,22.256 L105.928,24.224 L108.152,24.224 Z M108.04,34 L108.04,25.92 L106.056,25.92 L106.056,34 L108.04,34 Z M112.216,34 L112.216,29.424 C112.216,28.784 112.402667,28.2693333 112.776,27.88 C113.149333,27.4906667 113.64,27.296 114.248,27.296 C114.76,27.296 115.138667,27.4426667 115.384,27.736 C115.629333,28.0293333 115.752,28.496 115.752,29.136 L115.752,29.136 L115.752,34 L117.752,34 L117.752,29.04 C117.752,26.8213333 116.786667,25.712 114.856,25.712 C114.258667,25.712 113.722667,25.8453333 113.248,26.112 C112.773333,26.3786667 112.397333,26.7573333 112.12,27.248 L112.12,27.248 L111.976,25.92 L110.104,25.92 C110.189333,26.592 110.232,27.3546667 110.232,28.208 L110.232,28.208 L110.232,34 L112.216,34 Z M123.592,37.584 C124.936,37.584 125.954667,37.2586667 126.648,36.608 C127.341333,35.9573333 127.688,35.0026667 127.688,33.744 L127.688,33.744 L127.688,25.92 L125.704,25.92 L125.704,27.136 C125.458667,26.688 125.104,26.3386667 124.64,26.088 C124.176,25.8373333 123.645333,25.712 123.048,25.712 C122.344,25.712 121.717333,25.88 121.168,26.216 C120.618667,26.552 120.192,27.0266667 119.888,27.64 C119.584,28.2533333 119.432,28.9546667 119.432,29.744 C119.432,30.5333333 119.584,31.2346667 119.888,31.848 C120.192,32.4613333 120.618667,32.936 121.168,33.272 C121.717333,33.608 122.344,33.776 123.048,33.776 C123.634667,33.776 124.162667,33.64 124.632,33.368 C125.101333,33.096 125.458667,32.7413333 125.704,32.304 L125.704,32.304 L125.704,33.904 C125.704,35.3333333 124.984,36.048 123.544,36.048 C122.573333,36.048 121.597333,35.792 120.616,35.28 L120.616,35.28 L120.296,36.8 C121.245333,37.3226667 122.344,37.584 123.592,37.584 Z M123.576,32.208 C122.914667,32.208 122.394667,31.9893333 122.016,31.552 C121.637333,31.1146667 121.448,30.512 121.448,29.744 C121.448,28.976 121.637333,28.3733333 122.016,27.936 C122.394667,27.4986667 122.914667,27.28 123.576,27.28 C124.248,27.28 124.770667,27.4986667 125.144,27.936 C125.517333,28.3733333 125.704,28.976 125.704,29.744 C125.704,30.512 125.514667,31.1146667 125.136,31.552 C124.757333,31.9893333 124.237333,32.208 123.576,32.208 Z" id="Reporting" fill="#FFFFFF" fill-rule="nonzero"></path>
                    <path d="M27,17 L27,26.3076923 L28.1621098,26.3076923 L28.7,24.9707015 L28.7,18.6923077 L37.2,18.6923077 L37.2,23.7692308 L42.3,23.7692308 L42.3,37.3076923 L28.7,37.3076923 L28.7,32.4389992 L28.6551761,32.3943815 L27.6424802,31.3846154 L27,31.3846154 L27,39 L44,39 L44,22.5793269 L43.7609375,22.3149038 L38.6609375,17.2379808 L38.3953125,17 L27,17 Z M39,20 L41,22 L39,22 L39,20 Z M31.6234375,23 L29.6378902,27.7699676 L29.4519527,27.5910539 L24,27.5910539 L24,29.2268368 L28.7480473,29.2268368 L30.2587888,30.683706 L31.6765625,27.2747589 L34.2265625,33 L35.986326,28.7667728 L36.2253885,29.2268368 L37.8291005,29.2268368 C38.1342505,29.7314758 38.6931,30.0447283 39.3,30.0447283 C40.23925,30.0447283 41,29.3127154 41,28.4089453 C41,27.5051752 40.23925,26.7731624 39.3,26.7731624 C38.69225,26.7731624 38.1308505,27.0864148 37.8291005,27.5910539 L37.2746115,27.5910539 L35.813674,24.7795519 L34.1734375,28.7252403 L31.6234375,23 Z" id="Fill-1" fill="#FFFFFF"></path>
                </g>
            </g>
        </g>
    </g>
</svg>