<?xml version="1.0" encoding="UTF-8"?>
<svg width="108px" height="206px" viewBox="0 0 108 206" version="1.1" xmlns="http://www.w3.org/2000/svg" xmlns:xlink="http://www.w3.org/1999/xlink">
    <title>Group</title>
    <defs>
        <polygon id="path-1" points="0 205.359 106.787 205.359 106.787 0 0 0"></polygon>
    </defs>
    <g id="Page-2" stroke="none" stroke-width="1" fill="none" fill-rule="evenodd">
        <g id="Brand-Guidelines-Document" transform="translate(-655.000000, -245.000000)">
            <g id="Group" transform="translate(655.887000, 245.643000)">
                <polygon id="Fill-108" fill="#86878C" points="0 205.359 106.787 205.359 106.787 0 0 0"></polygon>
                <g id="Group-160">
                    <path d="M10.6771,180.3737 C12.2861,180.3737 12.7161,178.8377 12.7161,177.5047 C12.7161,176.2037 12.2551,174.5957 10.7381,174.5957 C10.0321,174.5957 9.3861,175.0157 9.0891,175.7327 C8.8641,176.2657 8.7611,176.9727 8.7611,177.5567 C8.7611,178.7757 9.1611,180.3737 10.6771,180.3737 M8.4741,175.0877 C9.0271,174.2877 9.7551,173.8687 10.7381,173.8687 C12.7771,173.8687 13.6581,175.7017 13.6581,177.4847 C13.6581,178.9607 13.0331,180.5897 11.4661,180.9887 L11.4661,181.1427 C11.4661,181.7157 11.8651,181.9107 12.3671,181.9107 C12.6441,181.9107 12.9211,181.8907 13.1971,181.8397 L13.1971,182.5357 C12.9511,182.6177 12.6951,182.6687 12.4391,182.6687 C11.3941,182.6687 10.7691,182.1567 10.7491,181.1017 C8.7201,181.0507 7.8191,179.3707 7.8191,177.5357 C7.8191,176.6957 7.9821,175.7947 8.4741,175.0877" id="Fill-109" fill="#FFFFFF"></path>
                    <path d="M21.8706,178.4171 C21.8706,179.1141 21.8296,179.7591 21.3586,180.3231 C20.8866,180.8861 20.1796,181.1011 19.4626,181.1011 C18.7766,181.1011 18.0486,180.9581 17.5776,180.4251 C17.0656,179.8511 17.0246,179.1451 17.0246,178.4171 L17.0246,173.9711 L17.9056,173.9711 L17.9056,178.4171 C17.9056,178.8371 17.9156,179.4111 18.1716,179.7801 C18.4586,180.2001 19.0526,180.3231 19.5346,180.3231 C19.9856,180.3231 20.4976,180.1801 20.7946,179.8211 C21.1326,179.4211 21.1326,178.8991 21.1326,178.4171 L21.1326,173.9711 L21.8706,173.9711 L21.8706,178.4171 Z" id="Fill-111" fill="#FFFFFF"></path>
                    <path d="M27.5421,174.913 L26.4561,178.284 L28.6181,178.284 L27.5421,174.913 Z M30.4211,180.999 L29.5191,180.999 L28.8121,178.95 L26.2101,178.95 L25.5851,180.999 L24.8471,180.999 L27.1221,173.971 L28.1361,173.971 L30.4211,180.999 Z" id="Fill-113" fill="#FFFFFF"></path>
                    <polygon id="Fill-115" fill="#FFFFFF" points="37.5581 180.9987 33.4091 180.9987 33.4091 173.9707 34.2901 173.9707 34.2901 180.2197 37.5581 180.2197"></polygon>
                    <mask id="mask-2" fill="white">
                        <use xlink:href="#path-1"></use>
                    </mask>
                    <g id="Clip-118"></g>
                    <polygon id="Fill-117" fill="#FFFFFF" mask="url(#mask-2)" points="40.608 180.999 41.489 180.999 41.489 173.971 40.608 173.971"></polygon>
                    <polygon id="Fill-119" fill="#FFFFFF" mask="url(#mask-2)" points="47.4287 180.9987 46.5477 180.9987 46.5477 174.7387 44.5497 174.7387 44.5497 173.9707 49.4267 173.9707 49.4267 174.7387 47.4287 174.7387"></polygon>
                    <polygon id="Fill-120" fill="#FFFFFF" mask="url(#mask-2)" points="54.9041 178.0379 54.9041 180.9989 54.0231 180.9989 54.0231 178.0379 51.6771 173.9709 52.7011 173.9709 54.5661 177.2079 56.4511 173.9709 57.2501 173.9709"></polygon>
                    <polygon id="Fill-121" fill="#FFFFFF" mask="url(#mask-2)" points="14.9597 194.39 14.0787 194.39 14.0787 188.253 14.0377 188.253 11.8147 194.39 11.2197 194.39 8.9457 188.253 8.9047 188.253 8.9047 194.39 8.1667 194.39 8.1667 187.362 9.4787 187.362 11.5997 192.986 13.6687 187.362 14.9597 187.362"></polygon>
                    <path d="M20.5789,188.3043 L19.4929,191.6753 L21.6549,191.6753 L20.5789,188.3043 Z M23.4579,194.3903 L22.5559,194.3903 L21.8489,192.3403 L19.2469,192.3403 L18.6219,194.3903 L17.8839,194.3903 L20.1589,187.3613 L21.1729,187.3613 L23.4579,194.3903 Z" id="Fill-122" fill="#FFFFFF" mask="url(#mask-2)"></path>
                    <polygon id="Fill-123" fill="#FFFFFF" mask="url(#mask-2)" points="31.5579 194.39 30.6969 194.39 27.1219 188.263 27.1219 194.39 26.3839 194.39 26.3839 187.362 27.4909 187.362 30.8199 193.088 30.8199 187.362 31.5579 187.362"></polygon>
                    <path d="M37.1676,188.3043 L36.0816,191.6753 L38.2436,191.6753 L37.1676,188.3043 Z M40.0466,194.3903 L39.1446,194.3903 L38.4376,192.3403 L35.8356,192.3403 L35.2106,194.3903 L34.4726,194.3903 L36.7476,187.3613 L37.7616,187.3613 L40.0466,194.3903 Z" id="Fill-124" fill="#FFFFFF" mask="url(#mask-2)"></path>
                    <path d="M48.1671,194.441 L47.6241,194.441 L47.3881,193.57 C46.9481,194.215 46.2101,194.492 45.4421,194.492 C44.4991,194.492 43.8131,194.154 43.2491,193.406 C42.7161,192.678 42.5121,191.838 42.5121,190.947 C42.5121,189.103 43.4751,187.259 45.5541,187.259 C46.8971,187.259 47.7671,188.017 48.0951,189.277 L47.2651,189.482 C47.0911,188.601 46.4151,187.996 45.4931,187.996 C43.9051,187.996 43.4641,189.616 43.4641,190.906 C43.4641,191.511 43.5771,192.228 43.8641,192.771 C44.1811,193.365 44.8061,193.775 45.5031,193.775 C46.5891,193.775 47.2651,193.037 47.2651,191.972 L47.2651,191.583 L45.5131,191.583 L45.5131,190.845 L48.1671,190.845 L48.1671,194.441 Z" id="Fill-125" fill="#FFFFFF" mask="url(#mask-2)"></path>
                    <polygon id="Fill-126" fill="#FFFFFF" mask="url(#mask-2)" points="56.246 194.39 51.697 194.39 51.697 187.362 56.144 187.362 56.144 188.119 52.578 188.119 52.578 190.353 55.406 190.353 55.406 191.06 52.578 191.06 52.578 193.632 56.246 193.632"></polygon>
                    <polygon id="Fill-127" fill="#FFFFFF" mask="url(#mask-2)" points="66.211 194.39 65.33 194.39 65.33 188.253 65.289 188.253 63.066 194.39 62.471 194.39 60.197 188.253 60.156 188.253 60.156 194.39 59.418 194.39 59.418 187.362 60.73 187.362 62.85 192.986 64.92 187.362 66.211 187.362"></polygon>
                    <polygon id="Fill-128" fill="#FFFFFF" mask="url(#mask-2)" points="74.4739 194.39 69.9249 194.39 69.9249 187.362 74.3719 187.362 74.3719 188.119 70.8059 188.119 70.8059 190.353 73.6339 190.353 73.6339 191.06 70.8059 191.06 70.8059 193.632 74.4739 193.632"></polygon>
                    <polygon id="Fill-129" fill="#FFFFFF" mask="url(#mask-2)" points="82.8093 194.39 81.9483 194.39 78.3733 188.263 78.3733 194.39 77.6353 194.39 77.6353 187.362 78.7413 187.362 82.0723 193.088 82.0723 187.362 82.8093 187.362"></polygon>
                    <polygon id="Fill-130" fill="#FFFFFF" mask="url(#mask-2)" points="88.6447 194.39 87.7637 194.39 87.7637 188.13 85.7657 188.13 85.7657 187.362 90.6427 187.362 90.6427 188.13 88.6447 188.13"></polygon>
                    <path d="M99.2918,53.3937 C99.2918,78.7437 78.7418,99.2937 53.3918,99.2937 C28.0428,99.2937 7.4918,78.7437 7.4918,53.3937 C7.4918,28.0437 28.0428,7.4937 53.3918,7.4937 C78.7418,7.4937 99.2918,28.0437 99.2918,53.3937" id="Fill-131" fill="#67B9E8" mask="url(#mask-2)"></path>
                    <path d="M11.2633,145.3449 C11.8793,145.3449 12.3883,145.3049 12.8433,144.8369 C13.1643,144.5149 13.3123,144.0729 13.3123,143.6309 C13.3123,143.0949 13.1113,142.6539 12.6693,142.3589 C12.2673,142.0779 11.8793,142.0639 11.3973,142.0639 L9.1073,142.0639 L9.1073,145.3449 L11.2633,145.3449 Z M13.3523,150.2589 L11.6513,146.2819 L9.1073,146.2819 L9.1073,150.2589 L7.9563,150.2589 L7.9563,141.0739 L11.3973,141.0739 C12.1473,141.0739 12.8703,141.1669 13.4853,141.6359 C14.1023,142.1049 14.4633,142.8679 14.4633,143.6449 C14.4633,144.7289 13.8203,145.7069 12.7493,146.0009 L14.5573,150.2589 L13.3523,150.2589 Z" id="Fill-132" fill="#FFFFFF" mask="url(#mask-2)"></path>
                    <polygon id="Fill-133" fill="#FFFFFF" mask="url(#mask-2)" points="24.0781 150.2593 18.1331 150.2593 18.1331 141.0733 23.9441 141.0733 23.9441 142.0643 19.2851 142.0643 19.2851 144.9833 22.9801 144.9833 22.9801 145.9073 19.2851 145.9073 19.2851 149.2683 24.0781 149.2683"></polygon>
                    <path d="M34.3487,150.326 L33.6387,150.326 L33.3307,149.188 C32.7557,150.032 31.7917,150.393 30.7867,150.393 C29.5557,150.393 28.6577,149.951 27.9217,148.974 C27.2257,148.023 26.9577,146.925 26.9577,145.76 C26.9577,143.35 28.2157,140.939 30.9347,140.939 C32.6887,140.939 33.8267,141.931 34.2547,143.578 L33.1707,143.845 C32.9427,142.694 32.0587,141.905 30.8537,141.905 C28.7787,141.905 28.2027,144.02 28.2027,145.707 C28.2027,146.497 28.3497,147.433 28.7247,148.144 C29.1397,148.92 29.9567,149.456 30.8677,149.456 C32.2867,149.456 33.1707,148.492 33.1707,147.099 L33.1707,146.59 L30.8807,146.59 L30.8807,145.626 L34.3487,145.626 L34.3487,150.326 Z" id="Fill-134" fill="#FFFFFF" mask="url(#mask-2)"></path>
                    <polygon id="Fill-135" fill="#FFFFFF" mask="url(#mask-2)" points="38.139 150.259 39.29 150.259 39.29 141.073 38.139 141.073"></polygon>
                    <path d="M43.8834,147.5548 C44.2584,148.8268 45.3164,149.4158 46.6014,149.4158 C47.1504,149.4158 47.8204,149.2958 48.2484,148.9608 C48.5964,148.6928 48.8114,148.2238 48.8114,147.7818 C48.8114,146.8588 48.0474,146.4828 47.2444,146.2828 L45.7184,145.9078 C45.1024,145.7598 44.5394,145.6128 44.0574,145.1708 C43.5754,144.7428 43.3074,144.1138 43.3074,143.4698 C43.3074,141.7028 44.8344,140.9398 46.4274,140.9398 C47.9674,140.9398 49.1994,141.7028 49.6944,143.1888 L48.6504,143.4698 C48.4494,142.4668 47.3784,141.8508 46.4004,141.8508 C45.5304,141.8508 44.4324,142.3058 44.4324,143.3108 C44.4324,144.3408 45.2354,144.5688 46.0924,144.7698 L47.4714,145.1048 C48.0744,145.2388 48.6774,145.4128 49.1464,145.8128 C49.7214,146.2828 50.0024,146.9118 50.0024,147.6348 C50.0024,148.4648 49.6414,149.2148 48.9714,149.7238 C48.3024,150.2328 47.4044,150.3938 46.5754,150.3938 C44.7004,150.3938 43.4684,149.5628 42.8524,147.7818 L43.8834,147.5548 Z" id="Fill-136" fill="#FFFFFF" mask="url(#mask-2)"></path>
                    <polygon id="Fill-137" fill="#FFFFFF" mask="url(#mask-2)" points="56.3235 150.2593 55.1715 150.2593 55.1715 142.0783 52.5605 142.0783 52.5605 141.0733 58.9345 141.0733 58.9345 142.0783 56.3235 142.0783"></polygon>
                    <polygon id="Fill-138" fill="#FFFFFF" mask="url(#mask-2)" points="67.9995 150.2593 62.0545 150.2593 62.0545 141.0733 67.8655 141.0733 67.8655 142.0643 63.2065 142.0643 63.2065 144.9833 66.9015 144.9833 66.9015 145.9073 63.2065 145.9073 63.2065 149.2683 67.9995 149.2683"></polygon>
                    <path d="M74.6283,145.3449 C75.2443,145.3449 75.7533,145.3049 76.2083,144.8369 C76.5293,144.5149 76.6773,144.0729 76.6773,143.6309 C76.6773,143.0949 76.4763,142.6539 76.0343,142.3589 C75.6323,142.0779 75.2443,142.0639 74.7623,142.0639 L72.4723,142.0639 L72.4723,145.3449 L74.6283,145.3449 Z M76.7173,150.2589 L75.0163,146.2819 L72.4723,146.2819 L72.4723,150.2589 L71.3213,150.2589 L71.3213,141.0739 L74.7623,141.0739 C75.5123,141.0739 76.2353,141.1669 76.8513,141.6359 C77.4673,142.1049 77.8283,142.8679 77.8283,143.6449 C77.8283,144.7289 77.1863,145.7069 76.1143,146.0009 L77.9223,150.2589 L76.7173,150.2589 Z" id="Fill-139" fill="#FFFFFF" mask="url(#mask-2)"></path>
                    <polygon id="Fill-140" fill="#FFFFFF" mask="url(#mask-2)" points="87.4434 150.2593 81.4974 150.2593 81.4974 141.0733 87.3094 141.0733 87.3094 142.0643 82.6494 142.0643 82.6494 144.9833 86.3454 144.9833 86.3454 145.9073 82.6494 145.9073 82.6494 149.2683 87.4434 149.2683"></polygon>
                    <path d="M93.6573,149.2814 C94.7143,149.2814 95.5583,149.0404 96.1603,148.1164 C96.6163,147.4204 96.8303,146.4694 96.8303,145.6404 C96.8303,144.7024 96.5893,143.7244 95.9873,142.9744 C95.3573,142.1854 94.6213,142.0384 93.6573,142.0384 L91.9703,142.0384 L91.9703,149.2814 L93.6573,149.2814 Z M90.8183,141.0734 L93.7233,141.0734 C95.0363,141.0734 96.0133,141.3414 96.8833,142.3724 C97.6743,143.2964 97.9953,144.4484 97.9953,145.6404 C97.9953,146.7654 97.7013,147.8754 97.0443,148.8004 C96.3083,149.8304 95.3573,150.2594 94.0983,150.2594 L90.8183,150.2594 L90.8183,141.0734 Z" id="Fill-141" fill="#FFFFFF" mask="url(#mask-2)"></path>
                    <polygon id="Fill-142" fill="#FFFFFF" mask="url(#mask-2)" points="7.601 117.151 10.215 117.151 10.215 105.942 7.601 105.942"></polygon>
                    <path d="M18.1219,109.1448 C17.7949,108.1968 17.1909,107.8218 16.1939,107.8218 C15.4909,107.8218 14.6419,108.0008 14.6419,108.8678 C14.6419,109.6838 15.6219,109.8798 16.2589,109.9948 C17.1739,110.1898 18.3999,110.4198 19.1839,110.9418 C20.0989,111.5468 20.6549,112.4778 20.6549,113.5888 C20.6549,114.6838 20.1319,115.7298 19.2659,116.3998 C18.3669,117.1028 17.1419,117.3148 16.0139,117.3148 C13.9059,117.3148 11.9939,116.3998 11.4879,114.2098 L13.9059,113.6548 C14.2329,114.8308 15.0829,115.2398 16.2429,115.2398 C16.9949,115.2398 17.9909,114.9618 17.9909,114.0298 C17.9909,113.0988 16.7169,112.9198 16.0299,112.7728 C14.0369,112.3638 12.0759,111.7748 12.0759,109.3248 C12.0759,108.2788 12.4849,107.3638 13.2849,106.6938 C14.1019,106.0068 15.0669,105.7798 16.0959,105.7798 C18.0569,105.7798 19.6579,106.4648 20.3439,108.4088 L18.1219,109.1448 Z" id="Fill-143" fill="#FFFFFF" mask="url(#mask-2)"></path>
                    <path d="M24.8842,109.1935 C24.6232,109.8645 24.5252,110.8275 24.5252,111.5305 C24.5252,112.9355 24.7372,115.1745 26.5842,115.1745 C27.4822,115.1745 27.9722,114.7325 28.2662,113.8995 C28.5282,113.2135 28.6102,112.2815 28.6102,111.5465 C28.6102,110.7295 28.5282,109.7665 28.2012,109.0145 C27.8742,108.2625 27.4002,107.9195 26.5842,107.9195 C25.6852,107.9195 25.1952,108.3765 24.8842,109.1935 M22.9562,115.5505 C22.1392,114.3905 21.7802,112.9355 21.7802,111.5305 C21.7802,108.5565 23.2662,105.7795 26.5842,105.7795 C28.0702,105.7795 29.2472,106.2685 30.1462,107.4945 C30.9462,108.5895 31.3552,110.1745 31.3552,111.5305 C31.3552,112.8045 31.0112,114.3575 30.2932,115.4195 C29.4272,116.6945 28.1032,117.3145 26.5842,117.3145 C25.0642,117.3145 23.8382,116.7925 22.9562,115.5505" id="Fill-144" fill="#FFFFFF" mask="url(#mask-2)"></path>
                    <path d="M9.6591,126.1062 C9.6591,127.0862 10.3621,127.7892 11.3261,127.7892 C12.2571,127.7892 13.0091,127.0212 13.0091,126.1062 C13.0091,125.1582 12.2731,124.3902 11.3261,124.3902 C10.3941,124.3902 9.6591,125.1742 9.6591,126.1062 L9.6591,126.1062 Z M9.7411,130.9262 C9.9371,131.6622 10.4601,132.1032 11.2281,132.1032 C11.8651,132.1032 12.4041,131.7762 12.7151,131.2202 C13.0421,130.6482 13.1401,129.5372 13.1401,128.5242 C12.4701,129.3572 11.6691,129.6842 10.6231,129.6842 C8.5971,129.6842 7.1761,128.2792 7.1761,126.2532 C7.1761,123.8182 9.0221,122.5442 11.3101,122.5442 C14.5941,122.5442 15.7211,125.2722 15.7211,128.1322 C15.7211,129.5042 15.4441,130.9592 14.7251,132.1352 C13.8911,133.4912 12.6981,134.0792 11.1301,134.0792 C9.2511,134.0792 7.8941,133.1972 7.4371,131.3672 L9.7411,130.9262 Z" id="Fill-145" fill="#FFFFFF" mask="url(#mask-2)"></path>
                    <path d="M19.5917,128.2794 C19.5917,129.0964 19.6077,129.9294 19.7877,130.7144 C19.9507,131.4814 20.3267,132.1524 21.2097,132.1524 C22.1567,132.1524 22.5327,131.4984 22.7127,130.6644 C22.8597,129.9624 22.9087,129.1294 22.9087,128.4094 C22.9087,127.6254 22.8597,126.5794 22.6957,125.7954 C22.5327,124.9944 22.0917,124.4224 21.2097,124.4224 C19.4767,124.4224 19.5917,127.1024 19.5917,128.2794 M16.8627,128.2954 C16.8627,125.5994 18.0387,122.5444 21.1927,122.5444 C24.3957,122.5444 25.6207,125.5174 25.6207,128.2954 C25.6207,131.0734 24.4287,134.0794 21.1927,134.0794 C18.0387,134.0794 16.8627,130.9914 16.8627,128.2954" id="Fill-146" fill="#FFFFFF" mask="url(#mask-2)"></path>
                    <path d="M29.3933,128.2794 C29.3933,129.0964 29.4093,129.9294 29.5893,130.7144 C29.7523,131.4814 30.1283,132.1524 31.0113,132.1524 C31.9583,132.1524 32.3343,131.4984 32.5143,130.6644 C32.6613,129.9624 32.7103,129.1294 32.7103,128.4094 C32.7103,127.6254 32.6613,126.5794 32.4973,125.7954 C32.3343,124.9944 31.8933,124.4224 31.0113,124.4224 C29.2783,124.4224 29.3933,127.1024 29.3933,128.2794 M26.6643,128.2954 C26.6643,125.5994 27.8403,122.5444 30.9943,122.5444 C34.1973,122.5444 35.4223,125.5174 35.4223,128.2954 C35.4223,131.0734 34.2293,134.0794 30.9943,134.0794 C27.8403,134.0794 26.6643,130.9914 26.6643,128.2954" id="Fill-147" fill="#FFFFFF" mask="url(#mask-2)"></path>
                    <path d="M36.8252,124.9462 C38.2302,124.5202 39.7832,123.9492 40.6162,122.7072 L42.5122,122.7072 L42.5122,131.8902 L45.6162,131.8902 L45.6162,133.9162 L36.5472,133.9162 L36.5472,131.8902 L39.9462,131.8902 L39.9462,125.5662 L36.8252,127.2332 L36.8252,124.9462 Z" id="Fill-148" fill="#FFFFFF" mask="url(#mask-2)"></path>
                    <path d="M51.87,133.916 L54.435,133.916 L54.435,131.383 L51.87,131.383 L51.87,133.916 Z M51.87,128.148 L54.435,128.148 L54.435,125.615 L51.87,125.615 L51.87,128.148 Z" id="Fill-149" fill="#FFFFFF" mask="url(#mask-2)"></path>
                    <path d="M69.4983,133.9162 L61.0833,133.9162 L61.0833,131.7432 L61.9163,131.1222 L65.2503,128.5732 C66.0013,127.9032 66.8513,127.1682 66.8513,126.0732 C66.8513,125.2072 66.1813,124.6032 65.3313,124.6032 C64.0403,124.6032 63.5183,125.6152 63.4033,126.7592 L61.0833,126.2362 C61.5573,123.8672 63.0113,122.5442 65.4623,122.5442 C66.5243,122.5442 67.4063,122.7232 68.2403,123.3932 C69.0743,124.0472 69.5313,124.9622 69.5313,126.0242 C69.5313,127.4462 68.8943,128.3772 67.8483,129.2762 C66.8843,130.1092 65.7723,130.7952 64.6783,131.4662 L64.3183,131.6782 L69.6943,131.6782 L69.4983,133.9162 Z" id="Fill-150" fill="#FFFFFF" mask="url(#mask-2)"></path>
                    <path d="M73.4992,128.2794 C73.4992,129.0964 73.5152,129.9294 73.6952,130.7144 C73.8582,131.4814 74.2342,132.1524 75.1172,132.1524 C76.0652,132.1524 76.4402,131.4984 76.6202,130.6644 C76.7672,129.9624 76.8162,129.1294 76.8162,128.4094 C76.8162,127.6254 76.7672,126.5794 76.6042,125.7954 C76.4402,124.9944 75.9992,124.4224 75.1172,124.4224 C73.3852,124.4224 73.4992,127.1024 73.4992,128.2794 M70.7702,128.2954 C70.7702,125.5994 71.9472,122.5444 75.1002,122.5444 C78.3032,122.5444 79.5282,125.5174 79.5282,128.2954 C79.5282,131.0734 78.3352,134.0794 75.1002,134.0794 C71.9472,134.0794 70.7702,130.9914 70.7702,128.2954" id="Fill-151" fill="#FFFFFF" mask="url(#mask-2)"></path>
                    <path d="M80.9314,124.9462 C82.3364,124.5202 83.8884,123.9492 84.7224,122.7072 L86.6174,122.7072 L86.6174,131.8902 L89.7234,131.8902 L89.7234,133.9162 L80.6534,133.9162 L80.6534,131.8902 L84.0524,131.8902 L84.0524,125.5662 L80.9314,127.2332 L80.9314,124.9462 Z" id="Fill-152" fill="#FFFFFF" mask="url(#mask-2)"></path>
                    <path d="M93.0038,127.4948 C93.6568,126.7928 94.4908,126.5308 95.4228,126.5308 C96.3868,126.5308 97.2688,126.8748 97.9718,127.5278 C98.7228,128.2618 99.0178,129.1128 99.0178,130.1588 C99.0178,131.2038 98.6418,132.2328 97.8898,132.9688 C97.0238,133.8018 95.8468,134.0798 94.6708,134.0798 C92.5308,134.0798 90.7498,133.0998 90.2588,130.8928 L92.7098,130.5338 C92.9068,131.4978 93.6258,132.0048 94.5898,132.0048 C95.5858,132.0048 96.3868,131.3348 96.3868,130.3218 C96.3868,129.3078 95.6018,128.5568 94.5898,128.5568 C94.0008,128.5568 93.2978,128.8838 93.0038,129.4228 L90.8638,129.0638 L91.3048,122.7068 L98.3638,122.7068 L98.0858,125.0118 L93.1848,125.0118 L93.0038,127.4948 Z" id="Fill-153" fill="#FFFFFF" mask="url(#mask-2)"></path>
                    <line x1="7.5131" y1="161.9916" x2="98.1871" y2="161.9926" id="Stroke-154" stroke="#67B9E8" stroke-width="0.311" mask="url(#mask-2)"></line>
                    <polygon id="Fill-155" fill="#FFFFFF" mask="url(#mask-2)" points="54.0505 64.2312 50.9995 64.2312 46.3685 48.7292 46.3135 48.7292 46.3135 64.2312 42.5695 64.2312 42.5695 45.2072 49.5305 45.2072 52.8585 56.6052 56.3525 45.2072 63.3135 45.2072 63.3135 64.2312 58.8765 64.2312 58.8765 48.7292 58.7645 48.7292"></polygon>
                    <path d="M75.3343,50.6428 C74.7793,49.0348 73.7543,48.3968 72.0623,48.3968 C70.8693,48.3968 69.4273,48.7018 69.4273,50.1708 C69.4273,51.5578 71.0913,51.8908 72.1733,52.0848 C73.7263,52.4178 75.8053,52.8058 77.1373,53.6928 C78.6903,54.7198 79.6333,56.2998 79.6333,58.1858 C79.6333,60.0438 78.7453,61.8188 77.2763,62.9558 C75.7503,64.1478 73.6703,64.5088 71.7573,64.5088 C68.1793,64.5088 64.9343,62.9558 64.0753,59.2398 L68.1793,58.2968 C68.7343,60.2928 70.1763,60.9868 72.1453,60.9868 C73.4213,60.9868 75.1123,60.5148 75.1123,58.9348 C75.1123,57.3538 72.9493,57.0488 71.7843,56.7988 C68.4013,56.1058 65.0733,55.1078 65.0733,50.9478 C65.0733,49.1728 65.7663,47.6198 67.1253,46.4828 C68.5123,45.3178 70.1493,44.9298 71.8953,44.9298 C75.2233,44.9298 77.9413,46.0948 79.1063,49.3948 L75.3343,50.6428 Z" id="Fill-156" fill="#FFFFFF" mask="url(#mask-2)"></path>
                    <path d="M31.289,60.2449 C28.137,60.2449 25.572,57.6809 25.572,54.5289 C25.572,51.3769 28.137,48.8119 31.289,48.8119 C34.441,48.8119 37.005,51.3769 37.005,54.5289 C37.005,55.5349 36.743,56.4809 36.284,57.3029 L34.652,55.4209 L32.064,57.6709 L33.85,59.6369 C33.079,60.0249 32.209,60.2449 31.289,60.2449 L31.289,60.2449 Z M42.292,64.2309 L39.067,60.5119 C40.343,58.8559 41.104,56.7819 41.104,54.5289 C41.104,49.1079 36.71,44.7129 31.289,44.7129 C25.868,44.7129 21.474,49.1079 21.474,54.5289 C21.474,59.9489 25.868,64.3439 31.289,64.3439 C33.275,64.3439 35.122,63.7519 36.667,62.7379 L38.023,64.2309 L42.292,64.2309 Z" id="Fill-157" fill="#FFFFFF" mask="url(#mask-2)"></path>
                    <path d="M79.1943,44.2596 C79.1943,42.0886 80.9543,40.3286 83.1243,40.3286 C85.2953,40.3286 87.0553,42.0886 87.0553,44.2596 C87.0553,46.4306 85.2953,48.1896 83.1243,48.1896 C80.9543,48.1896 79.1943,46.4306 79.1943,44.2596" id="Fill-158" fill="#FFFFFF" mask="url(#mask-2)"></path>
                    <path d="M82.4856,44.9586 L81.3576,44.0606 L80.8686,44.4686 L82.8126,46.4946 C83.1386,45.6126 84.2006,43.9136 85.4916,42.6886 L85.3766,42.4106 C83.9726,43.2926 82.9436,44.4036 82.4856,44.9586" id="Fill-159" fill="#79BDE9" mask="url(#mask-2)"></path>
                </g>
            </g>
        </g>
    </g>
</svg>