<?xml version="1.0" encoding="UTF-8"?>
<svg width="258px" height="101px" viewBox="0 0 258 101" version="1.1" xmlns="http://www.w3.org/2000/svg" xmlns:xlink="http://www.w3.org/1999/xlink">
    <title>Group</title>
    <defs>
        <polygon id="path-1" points="5.68434189e-14 5.68434189e-14 99.3557 5.68434189e-14 99.3557 99.3558 5.68434189e-14 99.3558"></polygon>
        <polygon id="path-3" points="-5.68434189e-14 100 256.91 100 256.91 0 -5.68434189e-14 0"></polygon>
    </defs>
    <g id="Page-2" stroke="none" stroke-width="1" fill="none" fill-rule="evenodd">
        <g id="Brand-Guidelines-Document" transform="translate(-505.000000, -115.000000)">
            <g id="Group" transform="translate(505.763000, 115.082000)">
                <polygon id="Fill-161" fill="#F9F9FA" points="44.077 99.028 256.911 99.028 256.911 0.388 44.077 0.388"></polygon>
                <g id="Group-164" transform="translate(-0.000000, 0.000000)">
                    <mask id="mask-2" fill="white">
                        <use xlink:href="#path-1"></use>
                    </mask>
                    <g id="Clip-163"></g>
                    <path d="M99.3557,49.6778 C99.3557,77.1148 77.1137,99.3558 49.6777,99.3558 C22.2417,99.3558 -0.0003,77.1148 -0.0003,49.6778 C-0.0003,22.2418 22.2417,-0.0002 49.6777,-0.0002 C77.1137,-0.0002 99.3557,22.2418 99.3557,49.6778" id="Fill-162" fill="#67B9E8" mask="url(#mask-2)"></path>
                </g>
                <polygon id="Fill-165" fill="#FFFFFF" points="48.9683 60.8928 45.3573 60.8928 39.8763 42.5448 39.8103 42.5448 39.8103 60.8928 35.3793 60.8928 35.3793 38.3758 43.6183 38.3758 47.5563 51.8668 51.6923 38.3758 59.9313 38.3758 59.9313 60.8928 54.6793 60.8928 54.6793 42.5448 54.5483 42.5448"></polygon>
                <g id="Group-201" transform="translate(0.000000, 0.000000)">
                    <path d="M74.1601,44.8095 C73.5031,42.9055 72.2891,42.1505 70.2871,42.1505 C68.8761,42.1505 67.1681,42.5115 67.1681,44.2515 C67.1681,45.8925 69.1381,46.2865 70.4181,46.5165 C72.2561,46.9105 74.7181,47.3695 76.2931,48.4205 C78.1311,49.6345 79.2471,51.5055 79.2471,53.7375 C79.2471,55.9365 78.1971,58.0375 76.4581,59.3835 C74.6521,60.7945 72.1901,61.2215 69.9251,61.2215 C65.6911,61.2215 61.8511,59.3835 60.8341,54.9845 L65.6911,53.8685 C66.3481,56.2325 68.0551,57.0525 70.3851,57.0525 C71.8951,57.0525 73.8971,56.4945 73.8971,54.6235 C73.8971,52.7525 71.3371,52.3915 69.9581,52.0965 C65.9541,51.2755 62.0151,50.0935 62.0151,45.1705 C62.0151,43.0695 62.8361,41.2325 64.4441,39.8855 C66.0851,38.5075 68.0221,38.0475 70.0901,38.0475 C74.0291,38.0475 77.2451,39.4265 78.6241,43.3325 L74.1601,44.8095 Z" id="Fill-166" fill="#FFFFFF"></path>
                    <path d="M22.0278,56.1746 C18.2968,56.1746 15.2618,53.1396 15.2618,49.4086 C15.2618,45.6786 18.2968,42.6426 22.0278,42.6426 C25.7588,42.6426 28.7938,45.6786 28.7938,49.4086 C28.7938,50.6006 28.4828,51.7196 27.9398,52.6926 L26.0078,50.4646 L22.9458,53.1276 L25.0588,55.4546 C24.1468,55.9146 23.1178,56.1746 22.0278,56.1746 L22.0278,56.1746 Z M35.0508,60.8926 L31.2338,56.4906 C32.7448,54.5306 33.6448,52.0756 33.6448,49.4086 C33.6448,42.9926 28.4438,37.7916 22.0278,37.7916 C15.6118,37.7916 10.4098,42.9926 10.4098,49.4086 C10.4098,55.8256 15.6118,61.0266 22.0278,61.0266 C24.3788,61.0266 26.5648,60.3256 28.3928,59.1256 L29.9978,60.8926 L35.0508,60.8926 Z" id="Fill-168" fill="#FFFFFF"></path>
                    <path d="M78.7286,37.2544 C78.7286,34.6854 80.8116,32.6024 83.3806,32.6024 C85.9506,32.6024 88.0326,34.6854 88.0326,37.2544 C88.0326,39.8234 85.9506,41.9064 83.3806,41.9064 C80.8116,41.9064 78.7286,39.8234 78.7286,37.2544" id="Fill-170" fill="#FFFFFF"></path>
                    <path d="M82.6233,38.082 L81.2903,37.019 L80.7093,37.502 L83.0103,39.9 C83.3973,38.855 84.6543,36.845 86.1813,35.394 L86.0453,35.066 C84.3833,36.11 83.1653,37.425 82.6233,38.082" id="Fill-172" fill="#79BDE9"></path>
                    <path d="M114.8934,70.7906 C115.6974,70.7906 116.3624,70.7386 116.9564,70.1256 C117.3764,69.7066 117.5694,69.1296 117.5694,68.5526 C117.5694,67.8526 117.3064,67.2766 116.7294,66.8916 C116.2054,66.5246 115.6974,66.5066 115.0684,66.5066 L112.0784,66.5066 L112.0784,70.7906 L114.8934,70.7906 Z M117.6214,77.2076 L115.4004,72.0146 L112.0784,72.0146 L112.0784,77.2076 L110.5754,77.2076 L110.5754,65.2126 L115.0684,65.2126 C116.0474,65.2126 116.9914,65.3356 117.7954,65.9476 C118.6004,66.5596 119.0724,67.5556 119.0724,68.5706 C119.0724,69.9866 118.2334,71.2626 116.8344,71.6476 L119.1944,77.2076 L117.6214,77.2076 Z" id="Fill-174" fill="#86878C"></path>
                    <polygon id="Fill-176" fill="#86878C" points="133.4451 77.2075 125.6821 77.2075 125.6821 65.2135 133.2701 65.2135 133.2701 66.5065 127.1851 66.5065 127.1851 70.3185 132.0111 70.3185 132.0111 71.5255 127.1851 71.5255 127.1851 75.9135 133.4451 75.9135"></polygon>
                    <path d="M148.6738,77.295 L147.7468,77.295 L147.3448,75.808 C146.5928,76.91 145.3338,77.382 144.0228,77.382 C142.4138,77.382 141.2428,76.805 140.2808,75.529 C139.3718,74.287 139.0228,72.854 139.0228,71.332 C139.0228,68.186 140.6658,65.038 144.2148,65.038 C146.5058,65.038 147.9928,66.332 148.5508,68.483 L147.1348,68.832 C146.8378,67.329 145.6838,66.297 144.1098,66.297 C141.3998,66.297 140.6488,69.059 140.6488,71.262 C140.6488,72.294 140.8408,73.518 141.3298,74.445 C141.8718,75.459 142.9388,76.158 144.1278,76.158 C145.9808,76.158 147.1348,74.9 147.1348,73.081 L147.1348,72.416 L144.1448,72.416 L144.1448,71.158 L148.6738,71.158 L148.6738,77.295 Z" id="Fill-178" fill="#86878C"></path>
                    <mask id="mask-4" fill="white">
                        <use xlink:href="#path-3"></use>
                    </mask>
                    <g id="Clip-181"></g>
                    <polygon id="Fill-180" fill="#86878C" mask="url(#mask-4)" points="155.441 77.207 156.945 77.207 156.945 65.213 155.441 65.213"></polygon>
                    <path d="M164.7596,73.6759 C165.2496,75.3369 166.6306,76.1059 168.3086,76.1059 C169.0256,76.1059 169.9006,75.9489 170.4596,75.5109 C170.9146,75.1619 171.1936,74.5499 171.1936,73.9729 C171.1936,72.7669 170.1966,72.2769 169.1476,72.0149 L167.1546,71.5249 C166.3506,71.3319 165.6166,71.1399 164.9866,70.5639 C164.3576,70.0039 164.0076,69.1829 164.0076,68.3429 C164.0076,66.0349 166.0006,65.0379 168.0816,65.0379 C170.0926,65.0379 171.7006,66.0349 172.3476,67.9749 L170.9846,68.3429 C170.7216,67.0319 169.3226,66.2269 168.0466,66.2269 C166.9106,66.2269 165.4766,66.8209 165.4766,68.1329 C165.4766,69.4799 166.5256,69.7769 167.6446,70.0389 L169.4456,70.4759 C170.2316,70.6509 171.0196,70.8779 171.6306,71.4029 C172.3826,72.0149 172.7496,72.8359 172.7496,73.7809 C172.7496,74.8649 172.2776,75.8439 171.4036,76.5079 C170.5296,77.1729 169.3576,77.3819 168.2736,77.3819 C165.8256,77.3819 164.2176,76.2979 163.4136,73.9729 L164.7596,73.6759 Z" id="Fill-182" fill="#86878C" mask="url(#mask-4)"></path>
                    <polygon id="Fill-183" fill="#86878C" mask="url(#mask-4)" points="182.8209 77.2075 181.3169 77.2075 181.3169 66.5245 177.9079 66.5245 177.9079 65.2135 186.2299 65.2135 186.2299 66.5245 182.8209 66.5245"></polygon>
                    <polygon id="Fill-184" fill="#86878C" mask="url(#mask-4)" points="199.8859 77.2075 192.1229 77.2075 192.1229 65.2135 199.7109 65.2135 199.7109 66.5065 193.6269 66.5065 193.6269 70.3185 198.4529 70.3185 198.4529 71.5255 193.6269 71.5255 193.6269 75.9135 199.8859 75.9135"></polygon>
                    <path d="M210.3596,70.7906 C211.1636,70.7906 211.8286,70.7386 212.4226,70.1256 C212.8426,69.7066 213.0346,69.1296 213.0346,68.5526 C213.0346,67.8526 212.7726,67.2766 212.1956,66.8916 C211.6716,66.5246 211.1636,66.5066 210.5346,66.5066 L207.5446,66.5066 L207.5446,70.7906 L210.3596,70.7906 Z M213.0876,77.2076 L210.8666,72.0146 L207.5446,72.0146 L207.5446,77.2076 L206.0416,77.2076 L206.0416,65.2126 L210.5346,65.2126 C211.5136,65.2126 212.4576,65.3356 213.2616,65.9476 C214.0666,66.5596 214.5386,67.5556 214.5386,68.5706 C214.5386,69.9866 213.6996,71.2626 212.3006,71.6476 L214.6606,77.2076 L213.0876,77.2076 Z" id="Fill-185" fill="#86878C" mask="url(#mask-4)"></path>
                    <polygon id="Fill-186" fill="#86878C" mask="url(#mask-4)" points="228.9112 77.2075 221.1482 77.2075 221.1482 65.2135 228.7352 65.2135 228.7352 66.5065 222.6512 66.5065 222.6512 70.3185 227.4762 70.3185 227.4762 71.5255 222.6512 71.5255 222.6512 75.9135 228.9112 75.9135"></polygon>
                    <path d="M238.8425,75.9314 C240.2235,75.9314 241.3245,75.6164 242.1115,74.4094 C242.7065,73.5004 242.9855,72.2594 242.9855,71.1754 C242.9855,69.9514 242.6715,68.6754 241.8845,67.6954 C241.0625,66.6644 240.1015,66.4724 238.8425,66.4724 L236.6395,66.4724 L236.6395,75.9314 L238.8425,75.9314 Z M235.1355,65.2134 L238.9295,65.2134 C240.6435,65.2134 241.9195,65.5624 243.0555,66.9094 C244.0875,68.1164 244.5065,69.6194 244.5065,71.1754 C244.5065,72.6444 244.1225,74.0954 243.2655,75.3014 C242.3035,76.6474 241.0625,77.2074 239.4195,77.2074 L235.1355,77.2074 L235.1355,65.2134 Z" id="Fill-187" fill="#86878C" mask="url(#mask-4)"></path>
                    <polygon id="Fill-188" fill="#86878C" mask="url(#mask-4)" points="110.523 37.197 114.009 37.197 114.009 22.249 110.523 22.249"></polygon>
                    <path d="M125.189,26.5199 C124.753,25.2559 123.946,24.7549 122.618,24.7549 C121.681,24.7549 120.548,24.9949 120.548,26.1499 C120.548,27.2389 121.855,27.5009 122.705,27.6529 C123.925,27.9149 125.559,28.2199 126.605,28.9169 C127.826,29.7229 128.566,30.9649 128.566,32.4469 C128.566,33.9069 127.869,35.3019 126.714,36.1949 C125.516,37.1319 123.881,37.4149 122.378,37.4149 C119.567,37.4149 117.018,36.1949 116.342,33.2749 L119.567,32.5339 C120.003,34.1029 121.136,34.6479 122.683,34.6479 C123.685,34.6479 125.014,34.2779 125.014,33.0349 C125.014,31.7929 123.315,31.5539 122.4,31.3569 C119.741,30.8129 117.127,30.0279 117.127,26.7599 C117.127,25.3649 117.671,24.1449 118.739,23.2519 C119.828,22.3359 121.114,22.0309 122.487,22.0309 C125.101,22.0309 127.237,22.9469 128.152,25.5399 L125.189,26.5199 Z" id="Fill-189" fill="#86878C" mask="url(#mask-4)"></path>
                    <path d="M134.8438,26.5854 C134.4958,27.4784 134.3648,28.7644 134.3648,29.7014 C134.3648,31.5754 134.6478,34.5604 137.1108,34.5604 C138.3088,34.5604 138.9618,33.9724 139.3548,32.8614 C139.7028,31.9454 139.8128,30.7034 139.8128,29.7234 C139.8128,28.6334 139.7028,27.3484 139.2678,26.3454 C138.8318,25.3434 138.1998,24.8854 137.1108,24.8854 C135.9118,24.8854 135.2588,25.4954 134.8438,26.5854 M132.2728,35.0614 C131.1838,33.5144 130.7048,31.5754 130.7048,29.7014 C130.7048,25.7354 132.6868,22.0314 137.1108,22.0314 C139.0928,22.0314 140.6628,22.6844 141.8608,24.3194 C142.9278,25.7794 143.4728,27.8924 143.4728,29.7014 C143.4728,31.4014 143.0158,33.4714 142.0568,34.8874 C140.9018,36.5864 139.1368,37.4154 137.1108,37.4154 C135.0838,37.4154 133.4488,36.7184 132.2728,35.0614" id="Fill-190" fill="#86878C" mask="url(#mask-4)"></path>
                    <path d="M113.9224,47.1126 C113.9224,48.4196 114.8594,49.3566 116.1454,49.3566 C117.3864,49.3566 118.3884,48.3326 118.3884,47.1126 C118.3884,45.8486 117.4084,44.8246 116.1454,44.8246 C114.9024,44.8246 113.9224,45.8706 113.9224,47.1126 L113.9224,47.1126 Z M114.0314,53.5406 C114.2924,54.5216 114.9904,55.1096 116.0144,55.1096 C116.8634,55.1096 117.5824,54.6736 117.9974,53.9326 C118.4324,53.1706 118.5634,51.6886 118.5634,50.3376 C117.6704,51.4486 116.6024,51.8846 115.2084,51.8846 C112.5054,51.8846 110.6104,50.0106 110.6104,47.3086 C110.6104,44.0616 113.0724,42.3626 116.1234,42.3626 C120.5034,42.3626 122.0064,46.0016 122.0064,49.8146 C122.0064,51.6446 121.6364,53.5846 120.6774,55.1536 C119.5664,56.9616 117.9754,57.7466 115.8834,57.7466 C113.3774,57.7466 111.5684,56.5696 110.9594,54.1286 L114.0314,53.5406 Z" id="Fill-191" fill="#86878C" mask="url(#mask-4)"></path>
                    <path d="M127.8052,50.0106 C127.8052,51.1006 127.8272,52.2116 128.0672,53.2576 C128.2842,54.2816 128.7862,55.1746 129.9632,55.1746 C131.2262,55.1746 131.7272,54.3036 131.9672,53.1916 C132.1632,52.2546 132.2292,51.1436 132.2292,50.1846 C132.2292,49.1386 132.1632,47.7446 131.9452,46.6986 C131.7272,45.6306 131.1392,44.8686 129.9632,44.8686 C127.6532,44.8686 127.8052,48.4416 127.8052,50.0106 M124.1662,50.0326 C124.1662,46.4376 125.7352,42.3626 129.9412,42.3626 C134.2112,42.3626 135.8462,46.3276 135.8462,50.0326 C135.8462,53.7366 134.2552,57.7466 129.9412,57.7466 C125.7352,57.7466 124.1662,53.6276 124.1662,50.0326" id="Fill-192" fill="#86878C" mask="url(#mask-4)"></path>
                    <path d="M141.514,50.0106 C141.514,51.1006 141.535,52.2116 141.775,53.2576 C141.993,54.2816 142.494,55.1746 143.671,55.1746 C144.935,55.1746 145.436,54.3036 145.675,53.1916 C145.871,52.2546 145.937,51.1436 145.937,50.1846 C145.937,49.1386 145.871,47.7446 145.654,46.6986 C145.436,45.6306 144.848,44.8686 143.671,44.8686 C141.361,44.8686 141.514,48.4416 141.514,50.0106 M137.875,50.0326 C137.875,46.4376 139.444,42.3626 143.65,42.3626 C147.92,42.3626 149.555,46.3276 149.555,50.0326 C149.555,53.7366 147.964,57.7466 143.65,57.7466 C139.444,57.7466 137.875,53.6276 137.875,50.0326" id="Fill-193" fill="#86878C" mask="url(#mask-4)"></path>
                    <path d="M152.0634,45.5656 C153.9364,44.9986 156.0064,44.2366 157.1174,42.5806 L159.6464,42.5806 L159.6464,54.8266 L163.7864,54.8266 L163.7864,57.5286 L151.6924,57.5286 L151.6924,54.8266 L156.2244,54.8266 L156.2244,46.3936 L152.0634,48.6156 L152.0634,45.5656 Z" id="Fill-194" fill="#86878C" mask="url(#mask-4)"></path>
                    <path d="M173.923,57.528 L176.342,57.528 L176.342,55.066 L173.923,55.066 L173.923,57.528 Z M173.923,48.921 L176.342,48.921 L176.342,46.459 L173.923,46.459 L173.923,48.921 Z" id="Fill-195" fill="#86878C" mask="url(#mask-4)"></path>
                    <path d="M198.1781,57.5282 L186.9561,57.5282 L186.9561,54.6302 L188.0671,53.8022 L192.5121,50.4032 C193.5141,49.5092 194.6481,48.5292 194.6481,47.0692 C194.6481,45.9142 193.7541,45.1072 192.6221,45.1072 C190.9001,45.1072 190.2031,46.4582 190.0501,47.9842 L186.9561,47.2872 C187.5871,44.1272 189.5271,42.3622 192.7961,42.3622 C194.2121,42.3622 195.3891,42.6022 196.4991,43.4952 C197.6111,44.3662 198.2211,45.5872 198.2211,47.0032 C198.2211,48.8992 197.3721,50.1412 195.9771,51.3392 C194.6921,52.4512 193.2091,53.3662 191.7491,54.2602 L191.2701,54.5432 L198.4391,54.5432 L198.1781,57.5282 Z" id="Fill-196" fill="#86878C" mask="url(#mask-4)"></path>
                    <path d="M204.1505,50.0106 C204.1505,51.1006 204.1725,52.2116 204.4125,53.2576 C204.6295,54.2816 205.1315,55.1746 206.3085,55.1746 C207.5715,55.1746 208.0735,54.3036 208.3125,53.1916 C208.5085,52.2546 208.5745,51.1436 208.5745,50.1846 C208.5745,49.1386 208.5085,47.7446 208.2905,46.6986 C208.0735,45.6306 207.4845,44.8686 206.3085,44.8686 C203.9985,44.8686 204.1505,48.4416 204.1505,50.0106 M200.5125,50.0326 C200.5125,46.4376 202.0805,42.3626 206.2865,42.3626 C210.5565,42.3626 212.1905,46.3276 212.1905,50.0326 C212.1905,53.7366 210.6005,57.7466 206.2865,57.7466 C202.0805,57.7466 200.5125,53.6276 200.5125,50.0326" id="Fill-197" fill="#86878C" mask="url(#mask-4)"></path>
                    <path d="M214.6999,45.5656 C216.5739,44.9986 218.6439,44.2366 219.7549,42.5806 L222.2829,42.5806 L222.2829,54.8266 L226.4229,54.8266 L226.4229,57.5286 L214.3289,57.5286 L214.3289,54.8266 L218.8609,54.8266 L218.8609,46.3936 L214.6999,48.6156 L214.6999,45.5656 Z" id="Fill-198" fill="#86878C" mask="url(#mask-4)"></path>
                    <path d="M231.4371,48.9646 C232.3091,48.0276 233.4211,47.6796 234.6621,47.6796 C235.9481,47.6796 237.1241,48.1366 238.0621,49.0086 C239.0641,49.9886 239.4561,51.1216 239.4561,52.5166 C239.4561,53.9116 238.9551,55.2836 237.9531,56.2646 C236.7981,57.3756 235.2281,57.7466 233.6601,57.7466 C230.8051,57.7466 228.4301,56.4386 227.7771,53.4966 L231.0451,53.0176 C231.3071,54.3036 232.2661,54.9786 233.5511,54.9786 C234.8801,54.9786 235.9481,54.0856 235.9481,52.7346 C235.9481,51.3836 234.9021,50.3806 233.5511,50.3806 C232.7671,50.3806 231.8301,50.8166 231.4371,51.5356 L228.5831,51.0566 L229.1711,42.5806 L238.5851,42.5806 L238.2141,45.6526 L231.6771,45.6526 L231.4371,48.9646 Z" id="Fill-199" fill="#86878C" mask="url(#mask-4)"></path>
                    <path d="M108.2957,87.9763 L246.9517,87.9763 M108.2957,11.4073 L246.9517,11.4073" id="Stroke-200" stroke="#67B9E8" stroke-width="0.432" mask="url(#mask-4)"></path>
                </g>
            </g>
        </g>
    </g>
</svg>