<?xml version="1.0" standalone="no"?>
<!DOCTYPE svg PUBLIC "-//W3C//DTD SVG 20010904//EN"
 "http://www.w3.org/TR/2001/REC-SVG-20010904/DTD/svg10.dtd">
<svg version="1.0" xmlns="http://www.w3.org/2000/svg"
 width="700.000000pt" height="700.000000pt" viewBox="0 0 700.000000 700.000000"
 preserveAspectRatio="xMidYMid meet">
<metadata>
Created by potrace 1.14, written by Peter Selinger 2001-2017
</metadata>
<g transform="translate(0.000000,700.000000) scale(0.100000,-0.100000)"
fill="#000000" stroke="none">
<path d="M3105 6759 c-1677 -131 -3062 -238 -3077 -238 l-28 -1 0 -3020 c0
-2611 2 -3020 14 -3020 23 0 6063 -469 6132 -476 l62 -6 11 48 c6 27 75 317
155 644 342 1406 577 2447 617 2726 11 80 10 104 -5 200 -58 358 -322 1513
-686 2999 -49 203 -90 373 -90 377 0 5 -12 7 -27 7 -16 -1 -1400 -109 -3078
-240z m955 -803 c438 -65 736 -196 975 -427 222 -215 327 -455 342 -779 19
-418 -151 -784 -467 -1006 -70 -49 -253 -144 -279 -144 -28 0 3 -16 84 -44
298 -103 540 -313 674 -583 172 -348 174 -806 6 -1149 -209 -427 -639 -691
-1270 -780 -107 -15 -269 -18 -1477 -21 l-1358 -4 0 2481 0 2481 1328 -4
c1190 -3 1339 -5 1442 -21z"/>
<path d="M2580 4510 l0 -470 523 0 c556 0 646 6 779 50 149 51 238 139 274
275 16 59 18 202 3 264 -44 194 -202 306 -483 341 -45 6 -306 10 -588 10
l-508 0 0 -470z"/>
<path d="M2530 2529 l0 -510 638 4 c682 4 697 5 837 58 81 30 124 58 173 114
89 102 124 289 88 478 -42 217 -178 320 -470 357 -46 6 -334 10 -673 10 l-593
0 0 -511z"/>
</g>
</svg>
