<?xml version="1.0" standalone="no"?>
<!DOCTYPE svg PUBLIC "-//W3C//DTD SVG 20010904//EN"
 "http://www.w3.org/TR/2001/REC-SVG-20010904/DTD/svg10.dtd">
<svg version="1.0" xmlns="http://www.w3.org/2000/svg"
 width="260.000000pt" height="260.000000pt" viewBox="0 0 260.000000 260.000000"
 preserveAspectRatio="xMidYMid meet">
<metadata>
Created by potrace 1.14, written by Peter Selinger 2001-2017
</metadata>
<g transform="translate(0.000000,260.000000) scale(0.100000,-0.100000)"
fill="#000000" stroke="none">
<path d="M967 2374 c-26 -8 -82 -38 -125 -67 -186 -127 -690 -501 -721 -535
-46 -51 -90 -147 -102 -224 -5 -34 -8 -144 -7 -242 l3 -179 340 334 c360 354
462 446 588 527 89 58 162 86 230 86 53 0 88 -21 125 -75 21 -30 23 -43 20
-114 -7 -128 -80 -273 -266 -530 -44 -60 -78 -112 -76 -114 5 -5 108 75 537
416 267 213 393 307 425 317 132 45 217 -8 229 -143 10 -110 -35 -197 -192
-371 -121 -135 -168 -204 -196 -288 -39 -116 -12 -192 67 -192 84 0 261 101
618 354 l128 91 -5 60 c-3 33 -13 78 -23 100 -31 75 -316 546 -360 594 -51 56
-141 107 -216 121 -87 17 -832 90 -905 89 -38 0 -89 -7 -116 -15z"/>
<path d="M403 1167 l-372 -372 21 -40 c46 -88 118 -141 434 -322 373 -214 376
-216 484 -220 83 -4 96 -1 550 122 494 134 545 153 618 228 23 23 96 136 163
252 66 116 133 230 147 254 31 53 34 54 -128 -64 -321 -234 -478 -336 -640
-414 -87 -42 -101 -46 -172 -46 -68 0 -79 3 -103 25 -46 43 -67 97 -72 185
-11 180 71 439 188 594 l41 55 -38 -32 c-45 -36 -210 -190 -533 -497 -238
-226 -295 -270 -368 -281 -125 -19 -202 126 -159 296 10 39 74 176 166 354 82
160 148 291 147 293 -2 1 -170 -165 -374 -370z"/>
</g>
</svg>
