<?xml version="1.0" encoding="UTF-8"?>
<svg width="259px" height="352px" viewBox="0 0 259 352" version="1.1" xmlns="http://www.w3.org/2000/svg" xmlns:xlink="http://www.w3.org/1999/xlink">
    <title>gap-analysis</title>
    <g id="Page-1" stroke="none" stroke-width="1" fill="none" fill-rule="evenodd">
        <g id="flattened" transform="translate(-960.000000, -129.000000)">
            <g id="gap-analysis" transform="translate(962.000000, 129.000000)">
                <line x1="128" y1="98.5" x2="128" y2="339.363281" id="Line" stroke="#E74B00" stroke-width="3" stroke-linecap="square"></line>
                <g id="loop" transform="translate(0.000000, 28.000000)" stroke="#E74B00" stroke-dasharray="3" stroke-width="3">
                    <path d="M20,0 L235,0 C246.045695,-2.02906125e-15 255,8.954305 255,20 L255,55 C255,66.045695 246.045695,75 235,75 L20,75 C8.954305,75 1.3527075e-15,66.045695 0,55 L0,20 C-1.3527075e-15,8.954305 8.954305,2.02906125e-15 20,0 Z" id="Rectangle"></path>
                </g>
                <g id="1" transform="translate(23.000000, 0.000000)">
                    <g id="consultation" transform="translate(42.000000, 0.000000)">
                        <rect id="Rectangle" stroke="#2C2E32" stroke-width="2" fill="#FFFFFF" x="1" y="1" width="125" height="53" rx="16"></rect>
                        <path d="M23.496,34.128 C24.2853333,34.128 25.008,34.008 25.664,33.768 C26.32,33.528 26.888,33.168 27.368,32.688 L27.368,32.688 L26.872,31.68 C26.328,32.1493333 25.792,32.4853333 25.264,32.688 C24.736,32.8906667 24.152,32.992 23.512,32.992 C22.2533333,32.992 21.2826667,32.584 20.6,31.768 C19.9173333,30.952 19.576,29.792 19.576,28.288 C19.576,26.7946667 19.92,25.6426667 20.608,24.832 C21.296,24.0213333 22.264,23.616 23.512,23.616 C24.152,23.616 24.736,23.7173333 25.264,23.92 C25.792,24.1226667 26.328,24.4586667 26.872,24.928 L26.872,24.928 L27.368,23.92 C26.888,23.44 26.32,23.08 25.664,22.84 C25.008,22.6 24.2853333,22.48 23.496,22.48 C22.4186667,22.48 21.4826667,22.7146667 20.688,23.184 C19.8933333,23.6533333 19.2826667,24.3226667 18.856,25.192 C18.4293333,26.0613333 18.216,27.0933333 18.216,28.288 C18.216,29.4826667 18.4293333,30.52 18.856,31.4 C19.2826667,32.28 19.8933333,32.9546667 20.688,33.424 C21.4826667,33.8933333 22.4186667,34.128 23.496,34.128 Z M32.744,34.112 C33.5013333,34.112 34.168,33.9413333 34.744,33.6 C35.32,33.2586667 35.7653333,32.7733333 36.08,32.144 C36.3946667,31.5146667 36.552,30.7786667 36.552,29.936 C36.552,29.0933333 36.3946667,28.3573333 36.08,27.728 C35.7653333,27.0986667 35.32,26.6133333 34.744,26.272 C34.168,25.9306667 33.5013333,25.76 32.744,25.76 C31.9866667,25.76 31.32,25.9306667 30.744,26.272 C30.168,26.6133333 29.7226667,27.0986667 29.408,27.728 C29.0933333,28.3573333 28.936,29.0933333 28.936,29.936 C28.936,30.7786667 29.0933333,31.5146667 29.408,32.144 C29.7226667,32.7733333 30.168,33.2586667 30.744,33.6 C31.32,33.9413333 31.9866667,34.112 32.744,34.112 Z M32.744,33.04 C31.944,33.04 31.328,32.776 30.896,32.248 C30.464,31.72 30.248,30.9493333 30.248,29.936 C30.248,28.9546667 30.4666667,28.1946667 30.904,27.656 C31.3413333,27.1173333 31.9546667,26.848 32.744,26.848 C33.5226667,26.848 34.1306667,27.1173333 34.568,27.656 C35.0053333,28.1946667 35.224,28.9546667 35.224,29.936 C35.224,30.9493333 35.0106667,31.72 34.584,32.248 C34.1573333,32.776 33.544,33.04 32.744,33.04 Z M39.864,34 L39.864,29.392 C39.864,28.6133333 40.088,27.9946667 40.536,27.536 C40.984,27.0773333 41.5813333,26.848 42.328,26.848 C42.968,26.848 43.4373333,27.0213333 43.736,27.368 C44.0346667,27.7146667 44.184,28.2613333 44.184,29.008 L44.184,29.008 L44.184,34 L45.48,34 L45.48,28.944 C45.48,26.8213333 44.5146667,25.76 42.584,25.76 C41.9546667,25.76 41.3946667,25.9013333 40.904,26.184 C40.4133333,26.4666667 40.0453333,26.8693333 39.8,27.392 L39.8,27.392 L39.672,25.952 L38.44,25.952 C38.5253333,26.624 38.568,27.376 38.568,28.208 L38.568,28.208 L38.568,34 L39.864,34 Z M50.648,34.112 C51.6186667,34.112 52.3866667,33.904 52.952,33.488 C53.5173333,33.072 53.8,32.5173333 53.8,31.824 C53.8,31.248 53.6186667,30.7813333 53.256,30.424 C52.8933333,30.0666667 52.3386667,29.8026667 51.592,29.632 L51.592,29.632 L50.232,29.296 C49.7946667,29.1893333 49.4773333,29.04 49.28,28.848 C49.0826667,28.656 48.984,28.3946667 48.984,28.064 C48.984,27.6693333 49.1413333,27.3626667 49.456,27.144 C49.7706667,26.9253333 50.216,26.816 50.792,26.816 C51.656,26.816 52.4666667,27.1306667 53.224,27.76 L53.224,27.76 L53.656,26.816 C53.3146667,26.4746667 52.8933333,26.2133333 52.392,26.032 C51.8906667,25.8506667 51.3573333,25.76 50.792,25.76 C49.864,25.76 49.1173333,25.9813333 48.552,26.424 C47.9866667,26.8666667 47.704,27.44 47.704,28.144 C47.704,28.6773333 47.888,29.136 48.256,29.52 C48.624,29.904 49.144,30.1706667 49.816,30.32 L49.816,30.32 L51.176,30.64 C51.6666667,30.7466667 52.0186667,30.896 52.232,31.088 C52.4453333,31.28 52.552,31.536 52.552,31.856 C52.552,32.2506667 52.3946667,32.552 52.08,32.76 C51.7653333,32.968 51.304,33.072 50.696,33.072 C50.1413333,33.072 49.64,32.9973333 49.192,32.848 C48.744,32.6986667 48.3013333,32.4533333 47.864,32.112 L47.864,32.112 L47.432,33.072 C48.2213333,33.7653333 49.2933333,34.112 50.648,34.112 Z M58.712,34.112 C59.288,34.112 59.8053333,33.984 60.264,33.728 C60.7226667,33.472 61.08,33.0986667 61.336,32.608 L61.336,32.608 L61.336,34 L62.6,34 L62.6,25.952 L61.304,25.952 L61.304,30.496 C61.304,31.2533333 61.0853333,31.864 60.648,32.328 C60.2106667,32.792 59.6346667,33.024 58.92,33.024 C58.312,33.024 57.8586667,32.8533333 57.56,32.512 C57.2613333,32.1706667 57.112,31.6373333 57.112,30.912 L57.112,30.912 L57.112,25.952 L55.816,25.952 L55.816,30.944 C55.816,31.9893333 56.0613333,32.7786667 56.552,33.312 C57.0426667,33.8453333 57.7626667,34.112 58.712,34.112 Z M66.392,34 L66.392,22.224 L65.096,22.224 L65.096,34 L66.392,34 Z M71.784,34.112 C72.2,34.112 72.5733333,34.0586667 72.904,33.952 L72.904,33.952 L72.904,32.848 C72.6266667,32.944 72.3386667,32.992 72.04,32.992 C71.592,32.992 71.2453333,32.872 71,32.632 C70.7546667,32.392 70.632,31.9733333 70.632,31.376 L70.632,31.376 L70.632,26.976 L72.936,26.976 L72.936,25.952 L70.632,25.952 L70.632,23.424 L69.336,23.888 L69.336,25.952 L67.768,25.952 L67.768,26.976 L69.336,26.976 L69.336,31.552 C69.336,32.3946667 69.552,33.032 69.984,33.464 C70.416,33.896 71.016,34.112 71.784,34.112 Z M77.592,34.112 C78.2213333,34.112 78.7733333,33.976 79.248,33.704 C79.7226667,33.432 80.0773333,33.0453333 80.312,32.544 L80.312,32.544 L80.312,34 L81.592,34 L81.592,25.952 L80.312,25.952 L80.312,27.344 C80.0666667,26.8426667 79.7093333,26.4533333 79.24,26.176 C78.7706667,25.8986667 78.2213333,25.76 77.592,25.76 C76.888,25.76 76.2666667,25.936 75.728,26.288 C75.1893333,26.64 74.7706667,27.1333333 74.472,27.768 C74.1733333,28.4026667 74.024,29.136 74.024,29.968 C74.024,30.8 74.1706667,31.528 74.464,32.152 C74.7573333,32.776 75.1733333,33.2586667 75.712,33.6 C76.2506667,33.9413333 76.8773333,34.112 77.592,34.112 Z M77.848,33.04 C77.048,33.04 76.4293333,32.7733333 75.992,32.24 C75.5546667,31.7066667 75.336,30.9493333 75.336,29.968 C75.336,28.9866667 75.5573333,28.2213333 76,27.672 C76.4426667,27.1226667 77.0586667,26.848 77.848,26.848 C78.6373333,26.848 79.2453333,27.1146667 79.672,27.648 C80.0986667,28.1813333 80.312,28.944 80.312,29.936 C80.312,30.928 80.0986667,31.6933333 79.672,32.232 C79.2453333,32.7706667 78.6373333,33.04 77.848,33.04 Z M86.984,34.112 C87.4,34.112 87.7733333,34.0586667 88.104,33.952 L88.104,33.952 L88.104,32.848 C87.8266667,32.944 87.5386667,32.992 87.24,32.992 C86.792,32.992 86.4453333,32.872 86.2,32.632 C85.9546667,32.392 85.832,31.9733333 85.832,31.376 L85.832,31.376 L85.832,26.976 L88.136,26.976 L88.136,25.952 L85.832,25.952 L85.832,23.424 L84.536,23.888 L84.536,25.952 L82.968,25.952 L82.968,26.976 L84.536,26.976 L84.536,31.552 C84.536,32.3946667 84.752,33.032 85.184,33.464 C85.616,33.896 86.216,34.112 86.984,34.112 Z M91.16,24.016 L91.16,22.544 L89.576,22.544 L89.576,24.016 L91.16,24.016 Z M91,34 L91,25.952 L89.704,25.952 L89.704,34 L91,34 Z M96.84,34.112 C97.5973333,34.112 98.264,33.9413333 98.84,33.6 C99.416,33.2586667 99.8613333,32.7733333 100.176,32.144 C100.490667,31.5146667 100.648,30.7786667 100.648,29.936 C100.648,29.0933333 100.490667,28.3573333 100.176,27.728 C99.8613333,27.0986667 99.416,26.6133333 98.84,26.272 C98.264,25.9306667 97.5973333,25.76 96.84,25.76 C96.0826667,25.76 95.416,25.9306667 94.84,26.272 C94.264,26.6133333 93.8186667,27.0986667 93.504,27.728 C93.1893333,28.3573333 93.032,29.0933333 93.032,29.936 C93.032,30.7786667 93.1893333,31.5146667 93.504,32.144 C93.8186667,32.7733333 94.264,33.2586667 94.84,33.6 C95.416,33.9413333 96.0826667,34.112 96.84,34.112 Z M96.84,33.04 C96.04,33.04 95.424,32.776 94.992,32.248 C94.56,31.72 94.344,30.9493333 94.344,29.936 C94.344,28.9546667 94.5626667,28.1946667 95,27.656 C95.4373333,27.1173333 96.0506667,26.848 96.84,26.848 C97.6186667,26.848 98.2266667,27.1173333 98.664,27.656 C99.1013333,28.1946667 99.32,28.9546667 99.32,29.936 C99.32,30.9493333 99.1066667,31.72 98.68,32.248 C98.2533333,32.776 97.64,33.04 96.84,33.04 Z M103.96,34 L103.96,29.392 C103.96,28.6133333 104.184,27.9946667 104.632,27.536 C105.08,27.0773333 105.677333,26.848 106.424,26.848 C107.064,26.848 107.533333,27.0213333 107.832,27.368 C108.130667,27.7146667 108.28,28.2613333 108.28,29.008 L108.28,29.008 L108.28,34 L109.576,34 L109.576,28.944 C109.576,26.8213333 108.610667,25.76 106.68,25.76 C106.050667,25.76 105.490667,25.9013333 105,26.184 C104.509333,26.4666667 104.141333,26.8693333 103.896,27.392 L103.896,27.392 L103.768,25.952 L102.536,25.952 C102.621333,26.624 102.664,27.376 102.664,28.208 L102.664,28.208 L102.664,34 L103.96,34 Z" id="Consultation" fill="#2C2E32" fill-rule="nonzero"></path>
                    </g>
                    <g id="proposal" transform="translate(0.000000, 75.000000)">
                        <rect id="Rectangle" stroke="#2C2E32" stroke-width="2" fill="#FFFFFF" x="1" y="1" width="209" height="53" rx="16"></rect>
                        <path d="M19.976,34.128 C20.7226667,34.128 21.4586667,34.056 22.184,33.912 C22.9093333,33.768 23.496,33.5786667 23.944,33.344 L23.944,33.344 L23.944,28.064 L19.912,28.064 L19.912,29.104 L22.744,29.104 L22.744,32.576 C21.8693333,32.8746667 20.9573333,33.024 20.008,33.024 C18.664,33.024 17.64,32.6213333 16.936,31.816 C16.232,31.0106667 15.88,29.8346667 15.88,28.288 C15.88,26.7733333 16.224,25.6133333 16.912,24.808 C17.6,24.0026667 18.5893333,23.6 19.88,23.6 C20.5413333,23.6 21.136,23.704 21.664,23.912 C22.192,24.12 22.7333333,24.4586667 23.288,24.928 L23.288,24.928 L23.8,23.92 C23.32,23.44 22.7466667,23.08 22.08,22.84 C21.4133333,22.6 20.68,22.48 19.88,22.48 C18.7813333,22.48 17.8293333,22.712 17.024,23.176 C16.2186667,23.64 15.6,24.3066667 15.168,25.176 C14.736,26.0453333 14.52,27.0826667 14.52,28.288 C14.52,29.504 14.736,30.5493333 15.168,31.424 C15.6,32.2986667 16.2266667,32.968 17.048,33.432 C17.8693333,33.896 18.8453333,34.128 19.976,34.128 Z M30.248,34.128 C31.1013333,34.128 31.8453333,33.9946667 32.48,33.728 C33.1146667,33.4613333 33.6026667,33.0853333 33.944,32.6 C34.2853333,32.1146667 34.456,31.552 34.456,30.912 C34.456,30.2506667 34.2693333,29.72 33.896,29.32 C33.5226667,28.92 33.056,28.6213333 32.496,28.424 C31.936,28.2266667 31.1653333,28.0106667 30.184,27.776 C29.2773333,27.5626667 28.6053333,27.312 28.168,27.024 C27.7306667,26.736 27.512,26.304 27.512,25.728 C27.512,25.0666667 27.7626667,24.5466667 28.264,24.168 C28.7653333,23.7893333 29.4586667,23.6 30.344,23.6 C30.9946667,23.6 31.5946667,23.7066667 32.144,23.92 C32.6933333,24.1333333 33.2346667,24.4693333 33.768,24.928 L33.768,24.928 L34.28,23.92 C33.8106667,23.4506667 33.2346667,23.0933333 32.552,22.848 C31.8693333,22.6026667 31.1333333,22.48 30.344,22.48 C29.512,22.48 28.784,22.6186667 28.16,22.896 C27.536,23.1733333 27.0533333,23.56 26.712,24.056 C26.3706667,24.552 26.2,25.1253333 26.2,25.776 C26.2,26.4586667 26.376,27.0106667 26.728,27.432 C27.08,27.8533333 27.5386667,28.176 28.104,28.4 C28.6693333,28.624 29.3893333,28.832 30.264,29.024 C30.9146667,29.1733333 31.4346667,29.3173333 31.824,29.456 C32.2133333,29.5946667 32.528,29.784 32.768,30.024 C33.008,30.264 33.128,30.576 33.128,30.96 C33.128,31.6106667 32.88,32.1146667 32.384,32.472 C31.888,32.8293333 31.1813333,33.008 30.264,33.008 C29.4853333,33.008 28.8026667,32.9066667 28.216,32.704 C27.6293333,32.5013333 27.0533333,32.16 26.488,31.68 L26.488,31.68 L25.992,32.688 C27.048,33.648 28.4666667,34.128 30.248,34.128 Z M37.912,34 L37.912,28.992 L41.144,28.992 C42.3066667,28.992 43.2186667,28.7066667 43.88,28.136 C44.5413333,27.5653333 44.872,26.784 44.872,25.792 C44.872,24.8 44.544,24.0213333 43.888,23.456 C43.232,22.8906667 42.3173333,22.608 41.144,22.608 L41.144,22.608 L36.6,22.608 L36.6,34 L37.912,34 Z M41.032,27.904 L37.912,27.904 L37.912,23.696 L41.032,23.696 C41.8746667,23.696 42.5093333,23.8746667 42.936,24.232 C43.3626667,24.5893333 43.576,25.1093333 43.576,25.792 C43.576,26.4746667 43.3626667,26.9973333 42.936,27.36 C42.5093333,27.7226667 41.8746667,27.904 41.032,27.904 L41.032,27.904 Z M48.312,34 L48.312,29.024 L51.16,29.024 C51.7146667,29.024 52.144,29.104 52.448,29.264 C52.752,29.424 52.9893333,29.7386667 53.16,30.208 L53.16,30.208 L54.568,34 L55.96,34 L54.52,30.144 C54.36,29.7173333 54.1626667,29.3893333 53.928,29.16 C53.6933333,28.9306667 53.4106667,28.7893333 53.08,28.736 C53.816,28.5226667 54.3786667,28.1626667 54.768,27.656 C55.1573333,27.1493333 55.352,26.5226667 55.352,25.776 C55.352,24.752 55.024,23.968 54.368,23.424 C53.712,22.88 52.7706667,22.608 51.544,22.608 L51.544,22.608 L47.016,22.608 L47.016,34 L48.312,34 Z M51.432,27.936 L48.312,27.936 L48.312,23.696 L51.432,23.696 C52.328,23.696 52.9893333,23.8693333 53.416,24.216 C53.8426667,24.5626667 54.056,25.088 54.056,25.792 C54.056,27.2213333 53.1813333,27.936 51.432,27.936 L51.432,27.936 Z M63.416,34 L63.416,29.408 C63.416,28.7146667 63.6053333,28.1253333 63.984,27.64 C64.3626667,27.1546667 64.9413333,26.912 65.72,26.912 C66.04,26.912 66.3226667,26.9546667 66.568,27.04 L66.568,27.04 L66.6,25.856 C66.376,25.792 66.1306667,25.76 65.864,25.76 C65.288,25.76 64.776,25.904 64.328,26.192 C63.88,26.48 63.5546667,26.896 63.352,27.44 L63.352,27.44 L63.224,25.952 L61.992,25.952 C62.0773333,26.624 62.12,27.376 62.12,28.208 L62.12,28.208 L62.12,34 L63.416,34 Z M71.464,34.112 C72.04,34.112 72.6026667,34.016 73.152,33.824 C73.7013333,33.632 74.152,33.3706667 74.504,33.04 L74.504,33.04 L74.072,32.096 C73.2826667,32.7253333 72.4186667,33.04 71.48,33.04 C70.5946667,33.04 69.92,32.7786667 69.456,32.256 C68.992,31.7333333 68.7546667,30.96 68.744,29.936 L68.744,29.936 L74.648,29.936 L74.648,29.696 C74.648,28.4693333 74.344,27.5066667 73.736,26.808 C73.128,26.1093333 72.2906667,25.76 71.224,25.76 C70.488,25.76 69.832,25.936 69.256,26.288 C68.68,26.64 68.232,27.1333333 67.912,27.768 C67.592,28.4026667 67.432,29.1306667 67.432,29.952 C67.432,31.2426667 67.7893333,32.2586667 68.504,33 C69.2186667,33.7413333 70.2053333,34.112 71.464,34.112 Z M73.48,29.088 L68.792,29.088 C68.9093333,28.352 69.1786667,27.7813333 69.6,27.376 C70.0213333,26.9706667 70.568,26.768 71.24,26.768 C71.912,26.768 72.4373333,26.9653333 72.816,27.36 C73.1946667,27.7546667 73.416,28.3306667 73.48,29.088 L73.48,29.088 Z M80.216,34 L83.688,25.968 L82.392,25.968 L79.64,32.592 L76.92,25.968 L75.56,25.968 L78.984,34 L80.216,34 Z M88.664,34.112 C89.24,34.112 89.8026667,34.016 90.352,33.824 C90.9013333,33.632 91.352,33.3706667 91.704,33.04 L91.704,33.04 L91.272,32.096 C90.4826667,32.7253333 89.6186667,33.04 88.68,33.04 C87.7946667,33.04 87.12,32.7786667 86.656,32.256 C86.192,31.7333333 85.9546667,30.96 85.944,29.936 L85.944,29.936 L91.848,29.936 L91.848,29.696 C91.848,28.4693333 91.544,27.5066667 90.936,26.808 C90.328,26.1093333 89.4906667,25.76 88.424,25.76 C87.688,25.76 87.032,25.936 86.456,26.288 C85.88,26.64 85.432,27.1333333 85.112,27.768 C84.792,28.4026667 84.632,29.1306667 84.632,29.952 C84.632,31.2426667 84.9893333,32.2586667 85.704,33 C86.4186667,33.7413333 87.4053333,34.112 88.664,34.112 Z M90.68,29.088 L85.992,29.088 C86.1093333,28.352 86.3786667,27.7813333 86.8,27.376 C87.2213333,26.9706667 87.768,26.768 88.44,26.768 C89.112,26.768 89.6373333,26.9653333 90.016,27.36 C90.3946667,27.7546667 90.616,28.3306667 90.68,29.088 L90.68,29.088 Z M95.112,34 L95.112,22.224 L93.816,22.224 L93.816,34 L95.112,34 Z M100.712,34.112 C101.341333,34.112 101.893333,33.976 102.368,33.704 C102.842667,33.432 103.197333,33.0453333 103.432,32.544 L103.432,32.544 L103.432,34 L104.712,34 L104.712,25.952 L103.432,25.952 L103.432,27.344 C103.186667,26.8426667 102.829333,26.4533333 102.36,26.176 C101.890667,25.8986667 101.341333,25.76 100.712,25.76 C100.008,25.76 99.3866667,25.936 98.848,26.288 C98.3093333,26.64 97.8906667,27.1333333 97.592,27.768 C97.2933333,28.4026667 97.144,29.136 97.144,29.968 C97.144,30.8 97.2906667,31.528 97.584,32.152 C97.8773333,32.776 98.2933333,33.2586667 98.832,33.6 C99.3706667,33.9413333 99.9973333,34.112 100.712,34.112 Z M100.968,33.04 C100.168,33.04 99.5493333,32.7733333 99.112,32.24 C98.6746667,31.7066667 98.456,30.9493333 98.456,29.968 C98.456,28.9866667 98.6773333,28.2213333 99.12,27.672 C99.5626667,27.1226667 100.178667,26.848 100.968,26.848 C101.757333,26.848 102.365333,27.1146667 102.792,27.648 C103.218667,28.1813333 103.432,28.944 103.432,29.936 C103.432,30.928 103.218667,31.6933333 102.792,32.232 C102.365333,32.7706667 101.757333,33.04 100.968,33.04 Z M108.52,34 L108.52,29.392 C108.52,28.6133333 108.744,27.9946667 109.192,27.536 C109.64,27.0773333 110.237333,26.848 110.984,26.848 C111.624,26.848 112.093333,27.0213333 112.392,27.368 C112.690667,27.7146667 112.84,28.2613333 112.84,29.008 L112.84,29.008 L112.84,34 L114.136,34 L114.136,28.944 C114.136,26.8213333 113.170667,25.76 111.24,25.76 C110.610667,25.76 110.050667,25.9013333 109.56,26.184 C109.069333,26.4666667 108.701333,26.8693333 108.456,27.392 L108.456,27.392 L108.328,25.952 L107.096,25.952 C107.181333,26.624 107.224,27.376 107.224,28.208 L107.224,28.208 L107.224,34 L108.52,34 Z M119.96,34.112 C120.514667,34.112 121.050667,34.0186667 121.568,33.832 C122.085333,33.6453333 122.514667,33.392 122.856,33.072 L122.856,33.072 L122.424,32.112 C122.018667,32.432 121.626667,32.6666667 121.248,32.816 C120.869333,32.9653333 120.482667,33.04 120.088,33.04 C119.256,33.04 118.608,32.7706667 118.144,32.232 C117.68,31.6933333 117.448,30.9386667 117.448,29.968 C117.448,28.9866667 117.682667,28.2213333 118.152,27.672 C118.621333,27.1226667 119.266667,26.848 120.088,26.848 C120.482667,26.848 120.869333,26.9226667 121.248,27.072 C121.626667,27.2213333 122.018667,27.456 122.424,27.776 L122.424,27.776 L122.856,26.816 C122.525333,26.4853333 122.106667,26.2266667 121.6,26.04 C121.093333,25.8533333 120.568,25.76 120.024,25.76 C119.234667,25.76 118.544,25.936 117.952,26.288 C117.36,26.64 116.904,27.1333333 116.584,27.768 C116.264,28.4026667 116.104,29.136 116.104,29.968 C116.104,30.8 116.261333,31.528 116.576,32.152 C116.890667,32.776 117.338667,33.2586667 117.92,33.6 C118.501333,33.9413333 119.181333,34.112 119.96,34.112 Z M124.12,37.632 C124.994667,37.472 125.730667,37.1786667 126.328,36.752 C126.925333,36.3253333 127.421333,35.6533333 127.816,34.736 L127.816,34.736 L131.576,25.952 L130.28,25.952 L127.528,32.592 L124.808,25.952 L123.448,25.952 L126.856,33.92 L126.536,34.64 C126.28,35.2266667 125.957333,35.6613333 125.568,35.944 C125.178667,36.2266667 124.605333,36.4533333 123.848,36.624 L123.848,36.624 L124.12,37.632 Z M140.264,34.112 C140.893333,34.112 141.445333,33.976 141.92,33.704 C142.394667,33.432 142.749333,33.0453333 142.984,32.544 L142.984,32.544 L142.984,34 L144.264,34 L144.264,25.952 L142.984,25.952 L142.984,27.344 C142.738667,26.8426667 142.381333,26.4533333 141.912,26.176 C141.442667,25.8986667 140.893333,25.76 140.264,25.76 C139.56,25.76 138.938667,25.936 138.4,26.288 C137.861333,26.64 137.442667,27.1333333 137.144,27.768 C136.845333,28.4026667 136.696,29.136 136.696,29.968 C136.696,30.8 136.842667,31.528 137.136,32.152 C137.429333,32.776 137.845333,33.2586667 138.384,33.6 C138.922667,33.9413333 139.549333,34.112 140.264,34.112 Z M140.52,33.04 C139.72,33.04 139.101333,32.7733333 138.664,32.24 C138.226667,31.7066667 138.008,30.9493333 138.008,29.968 C138.008,28.9866667 138.229333,28.2213333 138.672,27.672 C139.114667,27.1226667 139.730667,26.848 140.52,26.848 C141.309333,26.848 141.917333,27.1146667 142.344,27.648 C142.770667,28.1813333 142.984,28.944 142.984,29.936 C142.984,30.928 142.770667,31.6933333 142.344,32.232 C141.917333,32.7706667 141.309333,33.04 140.52,33.04 Z M148.072,34 L148.072,29.392 C148.072,28.6133333 148.296,27.9946667 148.744,27.536 C149.192,27.0773333 149.789333,26.848 150.536,26.848 C151.176,26.848 151.645333,27.0213333 151.944,27.368 C152.242667,27.7146667 152.392,28.2613333 152.392,29.008 L152.392,29.008 L152.392,34 L153.688,34 L153.688,28.944 C153.688,26.8213333 152.722667,25.76 150.792,25.76 C150.162667,25.76 149.602667,25.9013333 149.112,26.184 C148.621333,26.4666667 148.253333,26.8693333 148.008,27.392 L148.008,27.392 L147.88,25.952 L146.648,25.952 C146.733333,26.624 146.776,27.376 146.776,28.208 L146.776,28.208 L146.776,34 L148.072,34 Z M159.224,34.112 C159.853333,34.112 160.405333,33.976 160.88,33.704 C161.354667,33.432 161.709333,33.0453333 161.944,32.544 L161.944,32.544 L161.944,34 L163.224,34 L163.224,25.952 L161.944,25.952 L161.944,27.344 C161.698667,26.8426667 161.341333,26.4533333 160.872,26.176 C160.402667,25.8986667 159.853333,25.76 159.224,25.76 C158.52,25.76 157.898667,25.936 157.36,26.288 C156.821333,26.64 156.402667,27.1333333 156.104,27.768 C155.805333,28.4026667 155.656,29.136 155.656,29.968 C155.656,30.8 155.802667,31.528 156.096,32.152 C156.389333,32.776 156.805333,33.2586667 157.344,33.6 C157.882667,33.9413333 158.509333,34.112 159.224,34.112 Z M159.48,33.04 C158.68,33.04 158.061333,32.7733333 157.624,32.24 C157.186667,31.7066667 156.968,30.9493333 156.968,29.968 C156.968,28.9866667 157.189333,28.2213333 157.632,27.672 C158.074667,27.1226667 158.690667,26.848 159.48,26.848 C160.269333,26.848 160.877333,27.1146667 161.304,27.648 C161.730667,28.1813333 161.944,28.944 161.944,29.936 C161.944,30.928 161.730667,31.6933333 161.304,32.232 C160.877333,32.7706667 160.269333,33.04 159.48,33.04 Z M167.032,34 L167.032,22.224 L165.736,22.224 L165.736,34 L167.032,34 Z M169.16,37.632 C170.034667,37.472 170.770667,37.1786667 171.368,36.752 C171.965333,36.3253333 172.461333,35.6533333 172.856,34.736 L172.856,34.736 L176.616,25.952 L175.32,25.952 L172.568,32.592 L169.848,25.952 L168.488,25.952 L171.896,33.92 L171.576,34.64 C171.32,35.2266667 170.997333,35.6613333 170.608,35.944 C170.218667,36.2266667 169.645333,36.4533333 168.888,36.624 L168.888,36.624 L169.16,37.632 Z M180.76,34.112 C181.730667,34.112 182.498667,33.904 183.064,33.488 C183.629333,33.072 183.912,32.5173333 183.912,31.824 C183.912,31.248 183.730667,30.7813333 183.368,30.424 C183.005333,30.0666667 182.450667,29.8026667 181.704,29.632 L181.704,29.632 L180.344,29.296 C179.906667,29.1893333 179.589333,29.04 179.392,28.848 C179.194667,28.656 179.096,28.3946667 179.096,28.064 C179.096,27.6693333 179.253333,27.3626667 179.568,27.144 C179.882667,26.9253333 180.328,26.816 180.904,26.816 C181.768,26.816 182.578667,27.1306667 183.336,27.76 L183.336,27.76 L183.768,26.816 C183.426667,26.4746667 183.005333,26.2133333 182.504,26.032 C182.002667,25.8506667 181.469333,25.76 180.904,25.76 C179.976,25.76 179.229333,25.9813333 178.664,26.424 C178.098667,26.8666667 177.816,27.44 177.816,28.144 C177.816,28.6773333 178,29.136 178.368,29.52 C178.736,29.904 179.256,30.1706667 179.928,30.32 L179.928,30.32 L181.288,30.64 C181.778667,30.7466667 182.130667,30.896 182.344,31.088 C182.557333,31.28 182.664,31.536 182.664,31.856 C182.664,32.2506667 182.506667,32.552 182.192,32.76 C181.877333,32.968 181.416,33.072 180.808,33.072 C180.253333,33.072 179.752,32.9973333 179.304,32.848 C178.856,32.6986667 178.413333,32.4533333 177.976,32.112 L177.976,32.112 L177.544,33.072 C178.333333,33.7653333 179.405333,34.112 180.76,34.112 Z M187.432,24.016 L187.432,22.544 L185.848,22.544 L185.848,24.016 L187.432,24.016 Z M187.272,34 L187.272,25.952 L185.976,25.952 L185.976,34 L187.272,34 Z M192.504,34.112 C193.474667,34.112 194.242667,33.904 194.808,33.488 C195.373333,33.072 195.656,32.5173333 195.656,31.824 C195.656,31.248 195.474667,30.7813333 195.112,30.424 C194.749333,30.0666667 194.194667,29.8026667 193.448,29.632 L193.448,29.632 L192.088,29.296 C191.650667,29.1893333 191.333333,29.04 191.136,28.848 C190.938667,28.656 190.84,28.3946667 190.84,28.064 C190.84,27.6693333 190.997333,27.3626667 191.312,27.144 C191.626667,26.9253333 192.072,26.816 192.648,26.816 C193.512,26.816 194.322667,27.1306667 195.08,27.76 L195.08,27.76 L195.512,26.816 C195.170667,26.4746667 194.749333,26.2133333 194.248,26.032 C193.746667,25.8506667 193.213333,25.76 192.648,25.76 C191.72,25.76 190.973333,25.9813333 190.408,26.424 C189.842667,26.8666667 189.56,27.44 189.56,28.144 C189.56,28.6773333 189.744,29.136 190.112,29.52 C190.48,29.904 191,30.1706667 191.672,30.32 L191.672,30.32 L193.032,30.64 C193.522667,30.7466667 193.874667,30.896 194.088,31.088 C194.301333,31.28 194.408,31.536 194.408,31.856 C194.408,32.2506667 194.250667,32.552 193.936,32.76 C193.621333,32.968 193.16,33.072 192.552,33.072 C191.997333,33.072 191.496,32.9973333 191.048,32.848 C190.6,32.6986667 190.157333,32.4533333 189.72,32.112 L189.72,32.112 L189.288,33.072 C190.077333,33.7653333 191.149333,34.112 192.504,34.112 Z" id="GSPRrevelancyanalysis" fill="#2C2E32" fill-rule="nonzero"></path>
                    </g>
                </g>
                <g id="2" transform="translate(22.000000, 149.000000)">
                    <rect id="Rectangle" stroke="#2C2E32" stroke-width="2" fill="#FFFFFF" x="1" y="1" width="209" height="53" rx="16"></rect>
                    <path d="M23.716,34.128 C24.5053333,34.128 25.228,34.008 25.884,33.768 C26.54,33.528 27.108,33.168 27.588,32.688 L27.588,32.688 L27.092,31.68 C26.548,32.1493333 26.012,32.4853333 25.484,32.688 C24.956,32.8906667 24.372,32.992 23.732,32.992 C22.4733333,32.992 21.5026667,32.584 20.82,31.768 C20.1373333,30.952 19.796,29.792 19.796,28.288 C19.796,26.7946667 20.14,25.6426667 20.828,24.832 C21.516,24.0213333 22.484,23.616 23.732,23.616 C24.372,23.616 24.956,23.7173333 25.484,23.92 C26.012,24.1226667 26.548,24.4586667 27.092,24.928 L27.092,24.928 L27.588,23.92 C27.108,23.44 26.54,23.08 25.884,22.84 C25.228,22.6 24.5053333,22.48 23.716,22.48 C22.6386667,22.48 21.7026667,22.7146667 20.908,23.184 C20.1133333,23.6533333 19.5026667,24.3226667 19.076,25.192 C18.6493333,26.0613333 18.436,27.0933333 18.436,28.288 C18.436,29.4826667 18.6493333,30.52 19.076,31.4 C19.5026667,32.28 20.1133333,32.9546667 20.908,33.424 C21.7026667,33.8933333 22.6386667,34.128 23.716,34.128 Z M30.932,34 L30.932,22.224 L29.636,22.224 L29.636,34 L30.932,34 Z M34.9,24.016 L34.9,22.544 L33.316,22.544 L33.316,24.016 L34.9,24.016 Z M34.74,34 L34.74,25.952 L33.444,25.952 L33.444,34 L34.74,34 Z M38.548,34 L38.548,29.392 C38.548,28.6133333 38.772,27.9946667 39.22,27.536 C39.668,27.0773333 40.2653333,26.848 41.012,26.848 C41.652,26.848 42.1213333,27.0213333 42.42,27.368 C42.7186667,27.7146667 42.868,28.2613333 42.868,29.008 L42.868,29.008 L42.868,34 L44.164,34 L44.164,28.944 C44.164,26.8213333 43.1986667,25.76 41.268,25.76 C40.6386667,25.76 40.0786667,25.9013333 39.588,26.184 C39.0973333,26.4666667 38.7293333,26.8693333 38.484,27.392 L38.484,27.392 L38.356,25.952 L37.124,25.952 C37.2093333,26.624 37.252,27.376 37.252,28.208 L37.252,28.208 L37.252,34 L38.548,34 Z M48.068,24.016 L48.068,22.544 L46.484,22.544 L46.484,24.016 L48.068,24.016 Z M47.908,34 L47.908,25.952 L46.612,25.952 L46.612,34 L47.908,34 Z M53.796,34.112 C54.3506667,34.112 54.8866667,34.0186667 55.404,33.832 C55.9213333,33.6453333 56.3506667,33.392 56.692,33.072 L56.692,33.072 L56.26,32.112 C55.8546667,32.432 55.4626667,32.6666667 55.084,32.816 C54.7053333,32.9653333 54.3186667,33.04 53.924,33.04 C53.092,33.04 52.444,32.7706667 51.98,32.232 C51.516,31.6933333 51.284,30.9386667 51.284,29.968 C51.284,28.9866667 51.5186667,28.2213333 51.988,27.672 C52.4573333,27.1226667 53.1026667,26.848 53.924,26.848 C54.3186667,26.848 54.7053333,26.9226667 55.084,27.072 C55.4626667,27.2213333 55.8546667,27.456 56.26,27.776 L56.26,27.776 L56.692,26.816 C56.3613333,26.4853333 55.9426667,26.2266667 55.436,26.04 C54.9293333,25.8533333 54.404,25.76 53.86,25.76 C53.0706667,25.76 52.38,25.936 51.788,26.288 C51.196,26.64 50.74,27.1333333 50.42,27.768 C50.1,28.4026667 49.94,29.136 49.94,29.968 C49.94,30.8 50.0973333,31.528 50.412,32.152 C50.7266667,32.776 51.1746667,33.2586667 51.756,33.6 C52.3373333,33.9413333 53.0173333,34.112 53.796,34.112 Z M61.428,34.112 C62.0573333,34.112 62.6093333,33.976 63.084,33.704 C63.5586667,33.432 63.9133333,33.0453333 64.148,32.544 L64.148,32.544 L64.148,34 L65.428,34 L65.428,25.952 L64.148,25.952 L64.148,27.344 C63.9026667,26.8426667 63.5453333,26.4533333 63.076,26.176 C62.6066667,25.8986667 62.0573333,25.76 61.428,25.76 C60.724,25.76 60.1026667,25.936 59.564,26.288 C59.0253333,26.64 58.6066667,27.1333333 58.308,27.768 C58.0093333,28.4026667 57.86,29.136 57.86,29.968 C57.86,30.8 58.0066667,31.528 58.3,32.152 C58.5933333,32.776 59.0093333,33.2586667 59.548,33.6 C60.0866667,33.9413333 60.7133333,34.112 61.428,34.112 Z M61.684,33.04 C60.884,33.04 60.2653333,32.7733333 59.828,32.24 C59.3906667,31.7066667 59.172,30.9493333 59.172,29.968 C59.172,28.9866667 59.3933333,28.2213333 59.836,27.672 C60.2786667,27.1226667 60.8946667,26.848 61.684,26.848 C62.4733333,26.848 63.0813333,27.1146667 63.508,27.648 C63.9346667,28.1813333 64.148,28.944 64.148,29.936 C64.148,30.928 63.9346667,31.6933333 63.508,32.232 C63.0813333,32.7706667 62.4733333,33.04 61.684,33.04 Z M69.236,34 L69.236,22.224 L67.94,22.224 L67.94,34 L69.236,34 Z M79.476,34.112 C80.052,34.112 80.6146667,34.016 81.164,33.824 C81.7133333,33.632 82.164,33.3706667 82.516,33.04 L82.516,33.04 L82.084,32.096 C81.2946667,32.7253333 80.4306667,33.04 79.492,33.04 C78.6066667,33.04 77.932,32.7786667 77.468,32.256 C77.004,31.7333333 76.7666667,30.96 76.756,29.936 L76.756,29.936 L82.66,29.936 L82.66,29.696 C82.66,28.4693333 82.356,27.5066667 81.748,26.808 C81.14,26.1093333 80.3026667,25.76 79.236,25.76 C78.5,25.76 77.844,25.936 77.268,26.288 C76.692,26.64 76.244,27.1333333 75.924,27.768 C75.604,28.4026667 75.444,29.1306667 75.444,29.952 C75.444,31.2426667 75.8013333,32.2586667 76.516,33 C77.2306667,33.7413333 78.2173333,34.112 79.476,34.112 Z M81.492,29.088 L76.804,29.088 C76.9213333,28.352 77.1906667,27.7813333 77.612,27.376 C78.0333333,26.9706667 78.58,26.768 79.252,26.768 C79.924,26.768 80.4493333,26.9653333 80.828,27.36 C81.2066667,27.7546667 81.428,28.3306667 81.492,29.088 L81.492,29.088 Z M88.228,34 L91.7,25.968 L90.404,25.968 L87.652,32.592 L84.932,25.968 L83.572,25.968 L86.996,34 L88.228,34 Z M94.58,24.016 L94.58,22.544 L92.996,22.544 L92.996,24.016 L94.58,24.016 Z M94.42,34 L94.42,25.952 L93.124,25.952 L93.124,34 L94.42,34 Z M100.02,34.112 C100.649333,34.112 101.201333,33.976 101.676,33.704 C102.150667,33.432 102.505333,33.0453333 102.74,32.544 L102.74,32.544 L102.74,34 L104.02,34 L104.02,22.224 L102.724,22.224 L102.724,27.312 C102.489333,26.8213333 102.137333,26.44 101.668,26.168 C101.198667,25.896 100.649333,25.76 100.02,25.76 C99.316,25.76 98.692,25.9306667 98.148,26.272 C97.604,26.6133333 97.1853333,27.096 96.892,27.72 C96.5986667,28.344 96.452,29.072 96.452,29.904 C96.452,30.736 96.6013333,31.4693333 96.9,32.104 C97.1986667,32.7386667 97.6173333,33.232 98.156,33.584 C98.6946667,33.936 99.316,34.112 100.02,34.112 Z M100.276,33.04 C99.4866667,33.04 98.8706667,32.7653333 98.428,32.216 C97.9853333,31.6666667 97.764,30.896 97.764,29.904 C97.764,28.9333333 97.9853333,28.1813333 98.428,27.648 C98.8706667,27.1146667 99.4866667,26.848 100.276,26.848 C101.065333,26.848 101.673333,27.1173333 102.1,27.656 C102.526667,28.1946667 102.74,28.9546667 102.74,29.936 C102.74,30.928 102.526667,31.6933333 102.1,32.232 C101.673333,32.7706667 101.065333,33.04 100.276,33.04 Z M110.084,34.112 C110.66,34.112 111.222667,34.016 111.772,33.824 C112.321333,33.632 112.772,33.3706667 113.124,33.04 L113.124,33.04 L112.692,32.096 C111.902667,32.7253333 111.038667,33.04 110.1,33.04 C109.214667,33.04 108.54,32.7786667 108.076,32.256 C107.612,31.7333333 107.374667,30.96 107.364,29.936 L107.364,29.936 L113.268,29.936 L113.268,29.696 C113.268,28.4693333 112.964,27.5066667 112.356,26.808 C111.748,26.1093333 110.910667,25.76 109.844,25.76 C109.108,25.76 108.452,25.936 107.876,26.288 C107.3,26.64 106.852,27.1333333 106.532,27.768 C106.212,28.4026667 106.052,29.1306667 106.052,29.952 C106.052,31.2426667 106.409333,32.2586667 107.124,33 C107.838667,33.7413333 108.825333,34.112 110.084,34.112 Z M112.1,29.088 L107.412,29.088 C107.529333,28.352 107.798667,27.7813333 108.22,27.376 C108.641333,26.9706667 109.188,26.768 109.86,26.768 C110.532,26.768 111.057333,26.9653333 111.436,27.36 C111.814667,27.7546667 112.036,28.3306667 112.1,29.088 L112.1,29.088 Z M116.532,34 L116.532,29.392 C116.532,28.6133333 116.756,27.9946667 117.204,27.536 C117.652,27.0773333 118.249333,26.848 118.996,26.848 C119.636,26.848 120.105333,27.0213333 120.404,27.368 C120.702667,27.7146667 120.852,28.2613333 120.852,29.008 L120.852,29.008 L120.852,34 L122.148,34 L122.148,28.944 C122.148,26.8213333 121.182667,25.76 119.252,25.76 C118.622667,25.76 118.062667,25.9013333 117.572,26.184 C117.081333,26.4666667 116.713333,26.8693333 116.468,27.392 L116.468,27.392 L116.34,25.952 L115.108,25.952 C115.193333,26.624 115.236,27.376 115.236,28.208 L115.236,28.208 L115.236,34 L116.532,34 Z M127.972,34.112 C128.526667,34.112 129.062667,34.0186667 129.58,33.832 C130.097333,33.6453333 130.526667,33.392 130.868,33.072 L130.868,33.072 L130.436,32.112 C130.030667,32.432 129.638667,32.6666667 129.26,32.816 C128.881333,32.9653333 128.494667,33.04 128.1,33.04 C127.268,33.04 126.62,32.7706667 126.156,32.232 C125.692,31.6933333 125.46,30.9386667 125.46,29.968 C125.46,28.9866667 125.694667,28.2213333 126.164,27.672 C126.633333,27.1226667 127.278667,26.848 128.1,26.848 C128.494667,26.848 128.881333,26.9226667 129.26,27.072 C129.638667,27.2213333 130.030667,27.456 130.436,27.776 L130.436,27.776 L130.868,26.816 C130.537333,26.4853333 130.118667,26.2266667 129.612,26.04 C129.105333,25.8533333 128.58,25.76 128.036,25.76 C127.246667,25.76 126.556,25.936 125.964,26.288 C125.372,26.64 124.916,27.1333333 124.596,27.768 C124.276,28.4026667 124.116,29.136 124.116,29.968 C124.116,30.8 124.273333,31.528 124.588,32.152 C124.902667,32.776 125.350667,33.2586667 125.932,33.6 C126.513333,33.9413333 127.193333,34.112 127.972,34.112 Z M136.068,34.112 C136.644,34.112 137.206667,34.016 137.756,33.824 C138.305333,33.632 138.756,33.3706667 139.108,33.04 L139.108,33.04 L138.676,32.096 C137.886667,32.7253333 137.022667,33.04 136.084,33.04 C135.198667,33.04 134.524,32.7786667 134.06,32.256 C133.596,31.7333333 133.358667,30.96 133.348,29.936 L133.348,29.936 L139.252,29.936 L139.252,29.696 C139.252,28.4693333 138.948,27.5066667 138.34,26.808 C137.732,26.1093333 136.894667,25.76 135.828,25.76 C135.092,25.76 134.436,25.936 133.86,26.288 C133.284,26.64 132.836,27.1333333 132.516,27.768 C132.196,28.4026667 132.036,29.1306667 132.036,29.952 C132.036,31.2426667 132.393333,32.2586667 133.108,33 C133.822667,33.7413333 134.809333,34.112 136.068,34.112 Z M138.084,29.088 L133.396,29.088 C133.513333,28.352 133.782667,27.7813333 134.204,27.376 C134.625333,26.9706667 135.172,26.768 135.844,26.768 C136.516,26.768 137.041333,26.9653333 137.42,27.36 C137.798667,27.7546667 138.02,28.3306667 138.084,29.088 L138.084,29.088 Z M146.692,34 L146.692,29.408 C146.692,28.7146667 146.881333,28.1253333 147.26,27.64 C147.638667,27.1546667 148.217333,26.912 148.996,26.912 C149.316,26.912 149.598667,26.9546667 149.844,27.04 L149.844,27.04 L149.876,25.856 C149.652,25.792 149.406667,25.76 149.14,25.76 C148.564,25.76 148.052,25.904 147.604,26.192 C147.156,26.48 146.830667,26.896 146.628,27.44 L146.628,27.44 L146.5,25.952 L145.268,25.952 C145.353333,26.624 145.396,27.376 145.396,28.208 L145.396,28.208 L145.396,34 L146.692,34 Z M154.74,34.112 C155.316,34.112 155.878667,34.016 156.428,33.824 C156.977333,33.632 157.428,33.3706667 157.78,33.04 L157.78,33.04 L157.348,32.096 C156.558667,32.7253333 155.694667,33.04 154.756,33.04 C153.870667,33.04 153.196,32.7786667 152.732,32.256 C152.268,31.7333333 152.030667,30.96 152.02,29.936 L152.02,29.936 L157.924,29.936 L157.924,29.696 C157.924,28.4693333 157.62,27.5066667 157.012,26.808 C156.404,26.1093333 155.566667,25.76 154.5,25.76 C153.764,25.76 153.108,25.936 152.532,26.288 C151.956,26.64 151.508,27.1333333 151.188,27.768 C150.868,28.4026667 150.708,29.1306667 150.708,29.952 C150.708,31.2426667 151.065333,32.2586667 151.78,33 C152.494667,33.7413333 153.481333,34.112 154.74,34.112 Z M156.756,29.088 L152.068,29.088 C152.185333,28.352 152.454667,27.7813333 152.876,27.376 C153.297333,26.9706667 153.844,26.768 154.516,26.768 C155.188,26.768 155.713333,26.9653333 156.092,27.36 C156.470667,27.7546667 156.692,28.3306667 156.756,29.088 L156.756,29.088 Z M163.492,34 L166.964,25.968 L165.668,25.968 L162.916,32.592 L160.196,25.968 L158.836,25.968 L162.26,34 L163.492,34 Z M169.844,24.016 L169.844,22.544 L168.26,22.544 L168.26,24.016 L169.844,24.016 Z M169.684,34 L169.684,25.952 L168.388,25.952 L168.388,34 L169.684,34 Z M175.748,34.112 C176.324,34.112 176.886667,34.016 177.436,33.824 C177.985333,33.632 178.436,33.3706667 178.788,33.04 L178.788,33.04 L178.356,32.096 C177.566667,32.7253333 176.702667,33.04 175.764,33.04 C174.878667,33.04 174.204,32.7786667 173.74,32.256 C173.276,31.7333333 173.038667,30.96 173.028,29.936 L173.028,29.936 L178.932,29.936 L178.932,29.696 C178.932,28.4693333 178.628,27.5066667 178.02,26.808 C177.412,26.1093333 176.574667,25.76 175.508,25.76 C174.772,25.76 174.116,25.936 173.54,26.288 C172.964,26.64 172.516,27.1333333 172.196,27.768 C171.876,28.4026667 171.716,29.1306667 171.716,29.952 C171.716,31.2426667 172.073333,32.2586667 172.788,33 C173.502667,33.7413333 174.489333,34.112 175.748,34.112 Z M177.764,29.088 L173.076,29.088 C173.193333,28.352 173.462667,27.7813333 173.884,27.376 C174.305333,26.9706667 174.852,26.768 175.524,26.768 C176.196,26.768 176.721333,26.9653333 177.1,27.36 C177.478667,27.7546667 177.7,28.3306667 177.764,29.088 L177.764,29.088 Z M184.308,34 L186.596,27.712 L188.9,34 L190.148,34 L193.124,25.952 L191.844,25.952 L189.524,32.464 L187.204,25.952 L186.068,25.952 L183.716,32.448 L181.444,25.952 L180.084,25.952 L183.06,34 L184.308,34 Z" id="Clinicalevidencereview" fill="#2C2E32" fill-rule="nonzero"></path>
                </g>
                <g id="3" transform="translate(4.000000, 223.000000)">
                    <rect id="Rectangle" stroke="#2C2E32" stroke-width="2" fill="#FFFFFF" x="1" y="1" width="245" height="53" rx="16"></rect>
                    <path d="M20.852,34 L20.852,29.024 L23.7,29.024 C24.2546667,29.024 24.684,29.104 24.988,29.264 C25.292,29.424 25.5293333,29.7386667 25.7,30.208 L25.7,30.208 L27.108,34 L28.5,34 L27.06,30.144 C26.9,29.7173333 26.7026667,29.3893333 26.468,29.16 C26.2333333,28.9306667 25.9506667,28.7893333 25.62,28.736 C26.356,28.5226667 26.9186667,28.1626667 27.308,27.656 C27.6973333,27.1493333 27.892,26.5226667 27.892,25.776 C27.892,24.752 27.564,23.968 26.908,23.424 C26.252,22.88 25.3106667,22.608 24.084,22.608 L24.084,22.608 L19.556,22.608 L19.556,34 L20.852,34 Z M23.972,27.936 L20.852,27.936 L20.852,23.696 L23.972,23.696 C24.868,23.696 25.5293333,23.8693333 25.956,24.216 C26.3826667,24.5626667 26.596,25.088 26.596,25.792 C26.596,27.2213333 25.7213333,27.936 23.972,27.936 L23.972,27.936 Z M34.036,34.112 C34.612,34.112 35.1746667,34.016 35.724,33.824 C36.2733333,33.632 36.724,33.3706667 37.076,33.04 L37.076,33.04 L36.644,32.096 C35.8546667,32.7253333 34.9906667,33.04 34.052,33.04 C33.1666667,33.04 32.492,32.7786667 32.028,32.256 C31.564,31.7333333 31.3266667,30.96 31.316,29.936 L31.316,29.936 L37.22,29.936 L37.22,29.696 C37.22,28.4693333 36.916,27.5066667 36.308,26.808 C35.7,26.1093333 34.8626667,25.76 33.796,25.76 C33.06,25.76 32.404,25.936 31.828,26.288 C31.252,26.64 30.804,27.1333333 30.484,27.768 C30.164,28.4026667 30.004,29.1306667 30.004,29.952 C30.004,31.2426667 30.3613333,32.2586667 31.076,33 C31.7906667,33.7413333 32.7773333,34.112 34.036,34.112 Z M36.052,29.088 L31.364,29.088 C31.4813333,28.352 31.7506667,27.7813333 32.172,27.376 C32.5933333,26.9706667 33.14,26.768 33.812,26.768 C34.484,26.768 35.0093333,26.9653333 35.388,27.36 C35.7666667,27.7546667 35.988,28.3306667 36.052,29.088 L36.052,29.088 Z M42.724,37.568 C43.9186667,37.568 44.8226667,37.2613333 45.436,36.648 C46.0493333,36.0346667 46.356,35.1306667 46.356,33.936 L46.356,33.936 L46.356,25.952 L45.06,25.952 L45.06,27.344 C44.8146667,26.8426667 44.4546667,26.4533333 43.98,26.176 C43.5053333,25.8986667 42.948,25.76 42.308,25.76 C41.604,25.76 40.9773333,25.9253333 40.428,26.256 C39.8786667,26.5866667 39.4546667,27.056 39.156,27.664 C38.8573333,28.272 38.708,28.9706667 38.708,29.76 C38.708,30.5493333 38.8573333,31.248 39.156,31.856 C39.4546667,32.464 39.8786667,32.9333333 40.428,33.264 C40.9773333,33.5946667 41.604,33.76 42.308,33.76 C42.9586667,33.76 43.5213333,33.6186667 43.996,33.336 C44.4706667,33.0533333 44.8306667,32.656 45.076,32.144 L45.076,32.144 L45.076,34.048 C45.076,34.8586667 44.8786667,35.4693333 44.484,35.88 C44.0893333,36.2906667 43.5026667,36.496 42.724,36.496 C42.18,36.496 41.6813333,36.432 41.228,36.304 C40.7746667,36.176 40.292,35.968 39.78,35.68 L39.78,35.68 L39.556,36.736 C40.4413333,37.2906667 41.4973333,37.568 42.724,37.568 Z M42.564,32.672 C41.7746667,32.672 41.1533333,32.4133333 40.7,31.896 C40.2466667,31.3786667 40.02,30.6666667 40.02,29.76 C40.02,28.8533333 40.2466667,28.1413333 40.7,27.624 C41.1533333,27.1066667 41.7746667,26.848 42.564,26.848 C43.3426667,26.848 43.9533333,27.1066667 44.396,27.624 C44.8386667,28.1413333 45.06,28.8533333 45.06,29.76 C45.06,30.6666667 44.8386667,31.3786667 44.396,31.896 C43.9533333,32.4133333 43.3426667,32.672 42.564,32.672 Z M51.7,34.112 C52.276,34.112 52.7933333,33.984 53.252,33.728 C53.7106667,33.472 54.068,33.0986667 54.324,32.608 L54.324,32.608 L54.324,34 L55.588,34 L55.588,25.952 L54.292,25.952 L54.292,30.496 C54.292,31.2533333 54.0733333,31.864 53.636,32.328 C53.1986667,32.792 52.6226667,33.024 51.908,33.024 C51.3,33.024 50.8466667,32.8533333 50.548,32.512 C50.2493333,32.1706667 50.1,31.6373333 50.1,30.912 L50.1,30.912 L50.1,25.952 L48.804,25.952 L48.804,30.944 C48.804,31.9893333 49.0493333,32.7786667 49.54,33.312 C50.0306667,33.8453333 50.7506667,34.112 51.7,34.112 Z M59.38,34 L59.38,22.224 L58.084,22.224 L58.084,34 L59.38,34 Z M64.98,34.112 C65.6093333,34.112 66.1613333,33.976 66.636,33.704 C67.1106667,33.432 67.4653333,33.0453333 67.7,32.544 L67.7,32.544 L67.7,34 L68.98,34 L68.98,25.952 L67.7,25.952 L67.7,27.344 C67.4546667,26.8426667 67.0973333,26.4533333 66.628,26.176 C66.1586667,25.8986667 65.6093333,25.76 64.98,25.76 C64.276,25.76 63.6546667,25.936 63.116,26.288 C62.5773333,26.64 62.1586667,27.1333333 61.86,27.768 C61.5613333,28.4026667 61.412,29.136 61.412,29.968 C61.412,30.8 61.5586667,31.528 61.852,32.152 C62.1453333,32.776 62.5613333,33.2586667 63.1,33.6 C63.6386667,33.9413333 64.2653333,34.112 64.98,34.112 Z M65.236,33.04 C64.436,33.04 63.8173333,32.7733333 63.38,32.24 C62.9426667,31.7066667 62.724,30.9493333 62.724,29.968 C62.724,28.9866667 62.9453333,28.2213333 63.388,27.672 C63.8306667,27.1226667 64.4466667,26.848 65.236,26.848 C66.0253333,26.848 66.6333333,27.1146667 67.06,27.648 C67.4866667,28.1813333 67.7,28.944 67.7,29.936 C67.7,30.928 67.4866667,31.6933333 67.06,32.232 C66.6333333,32.7706667 66.0253333,33.04 65.236,33.04 Z M74.372,34.112 C74.788,34.112 75.1613333,34.0586667 75.492,33.952 L75.492,33.952 L75.492,32.848 C75.2146667,32.944 74.9266667,32.992 74.628,32.992 C74.18,32.992 73.8333333,32.872 73.588,32.632 C73.3426667,32.392 73.22,31.9733333 73.22,31.376 L73.22,31.376 L73.22,26.976 L75.524,26.976 L75.524,25.952 L73.22,25.952 L73.22,23.424 L71.924,23.888 L71.924,25.952 L70.356,25.952 L70.356,26.976 L71.924,26.976 L71.924,31.552 C71.924,32.3946667 72.14,33.032 72.572,33.464 C73.004,33.896 73.604,34.112 74.372,34.112 Z M80.42,34.112 C81.1773333,34.112 81.844,33.9413333 82.42,33.6 C82.996,33.2586667 83.4413333,32.7733333 83.756,32.144 C84.0706667,31.5146667 84.228,30.7786667 84.228,29.936 C84.228,29.0933333 84.0706667,28.3573333 83.756,27.728 C83.4413333,27.0986667 82.996,26.6133333 82.42,26.272 C81.844,25.9306667 81.1773333,25.76 80.42,25.76 C79.6626667,25.76 78.996,25.9306667 78.42,26.272 C77.844,26.6133333 77.3986667,27.0986667 77.084,27.728 C76.7693333,28.3573333 76.612,29.0933333 76.612,29.936 C76.612,30.7786667 76.7693333,31.5146667 77.084,32.144 C77.3986667,32.7733333 77.844,33.2586667 78.42,33.6 C78.996,33.9413333 79.6626667,34.112 80.42,34.112 Z M80.42,33.04 C79.62,33.04 79.004,32.776 78.572,32.248 C78.14,31.72 77.924,30.9493333 77.924,29.936 C77.924,28.9546667 78.1426667,28.1946667 78.58,27.656 C79.0173333,27.1173333 79.6306667,26.848 80.42,26.848 C81.1986667,26.848 81.8066667,27.1173333 82.244,27.656 C82.6813333,28.1946667 82.9,28.9546667 82.9,29.936 C82.9,30.9493333 82.6866667,31.72 82.26,32.248 C81.8333333,32.776 81.22,33.04 80.42,33.04 Z M87.54,34 L87.54,29.408 C87.54,28.7146667 87.7293333,28.1253333 88.108,27.64 C88.4866667,27.1546667 89.0653333,26.912 89.844,26.912 C90.164,26.912 90.4466667,26.9546667 90.692,27.04 L90.692,27.04 L90.724,25.856 C90.5,25.792 90.2546667,25.76 89.988,25.76 C89.412,25.76 88.9,25.904 88.452,26.192 C88.004,26.48 87.6786667,26.896 87.476,27.44 L87.476,27.44 L87.348,25.952 L86.116,25.952 C86.2013333,26.624 86.244,27.376 86.244,28.208 L86.244,28.208 L86.244,34 L87.54,34 Z M91.652,37.632 C92.5266667,37.472 93.2626667,37.1786667 93.86,36.752 C94.4573333,36.3253333 94.9533333,35.6533333 95.348,34.736 L95.348,34.736 L99.108,25.952 L97.812,25.952 L95.06,32.592 L92.34,25.952 L90.98,25.952 L94.388,33.92 L94.068,34.64 C93.812,35.2266667 93.4893333,35.6613333 93.1,35.944 C92.7106667,36.2266667 92.1373333,36.4533333 91.38,36.624 L91.38,36.624 L91.652,37.632 Z M107.428,34.112 C108.398667,34.112 109.166667,33.904 109.732,33.488 C110.297333,33.072 110.58,32.5173333 110.58,31.824 C110.58,31.248 110.398667,30.7813333 110.036,30.424 C109.673333,30.0666667 109.118667,29.8026667 108.372,29.632 L108.372,29.632 L107.012,29.296 C106.574667,29.1893333 106.257333,29.04 106.06,28.848 C105.862667,28.656 105.764,28.3946667 105.764,28.064 C105.764,27.6693333 105.921333,27.3626667 106.236,27.144 C106.550667,26.9253333 106.996,26.816 107.572,26.816 C108.436,26.816 109.246667,27.1306667 110.004,27.76 L110.004,27.76 L110.436,26.816 C110.094667,26.4746667 109.673333,26.2133333 109.172,26.032 C108.670667,25.8506667 108.137333,25.76 107.572,25.76 C106.644,25.76 105.897333,25.9813333 105.332,26.424 C104.766667,26.8666667 104.484,27.44 104.484,28.144 C104.484,28.6773333 104.668,29.136 105.036,29.52 C105.404,29.904 105.924,30.1706667 106.596,30.32 L106.596,30.32 L107.956,30.64 C108.446667,30.7466667 108.798667,30.896 109.012,31.088 C109.225333,31.28 109.332,31.536 109.332,31.856 C109.332,32.2506667 109.174667,32.552 108.86,32.76 C108.545333,32.968 108.084,33.072 107.476,33.072 C106.921333,33.072 106.42,32.9973333 105.972,32.848 C105.524,32.6986667 105.081333,32.4533333 104.644,32.112 L104.644,32.112 L104.212,33.072 C105.001333,33.7653333 106.073333,34.112 107.428,34.112 Z M112.26,37.632 C113.134667,37.472 113.870667,37.1786667 114.468,36.752 C115.065333,36.3253333 115.561333,35.6533333 115.956,34.736 L115.956,34.736 L119.716,25.952 L118.42,25.952 L115.668,32.592 L112.948,25.952 L111.588,25.952 L114.996,33.92 L114.676,34.64 C114.42,35.2266667 114.097333,35.6613333 113.708,35.944 C113.318667,36.2266667 112.745333,36.4533333 111.988,36.624 L111.988,36.624 L112.26,37.632 Z M123.86,34.112 C124.830667,34.112 125.598667,33.904 126.164,33.488 C126.729333,33.072 127.012,32.5173333 127.012,31.824 C127.012,31.248 126.830667,30.7813333 126.468,30.424 C126.105333,30.0666667 125.550667,29.8026667 124.804,29.632 L124.804,29.632 L123.444,29.296 C123.006667,29.1893333 122.689333,29.04 122.492,28.848 C122.294667,28.656 122.196,28.3946667 122.196,28.064 C122.196,27.6693333 122.353333,27.3626667 122.668,27.144 C122.982667,26.9253333 123.428,26.816 124.004,26.816 C124.868,26.816 125.678667,27.1306667 126.436,27.76 L126.436,27.76 L126.868,26.816 C126.526667,26.4746667 126.105333,26.2133333 125.604,26.032 C125.102667,25.8506667 124.569333,25.76 124.004,25.76 C123.076,25.76 122.329333,25.9813333 121.764,26.424 C121.198667,26.8666667 120.916,27.44 120.916,28.144 C120.916,28.6773333 121.1,29.136 121.468,29.52 C121.836,29.904 122.356,30.1706667 123.028,30.32 L123.028,30.32 L124.388,30.64 C124.878667,30.7466667 125.230667,30.896 125.444,31.088 C125.657333,31.28 125.764,31.536 125.764,31.856 C125.764,32.2506667 125.606667,32.552 125.292,32.76 C124.977333,32.968 124.516,33.072 123.908,33.072 C123.353333,33.072 122.852,32.9973333 122.404,32.848 C121.956,32.6986667 121.513333,32.4533333 121.076,32.112 L121.076,32.112 L120.644,33.072 C121.433333,33.7653333 122.505333,34.112 123.86,34.112 Z M131.956,34.112 C132.372,34.112 132.745333,34.0586667 133.076,33.952 L133.076,33.952 L133.076,32.848 C132.798667,32.944 132.510667,32.992 132.212,32.992 C131.764,32.992 131.417333,32.872 131.172,32.632 C130.926667,32.392 130.804,31.9733333 130.804,31.376 L130.804,31.376 L130.804,26.976 L133.108,26.976 L133.108,25.952 L130.804,25.952 L130.804,23.424 L129.508,23.888 L129.508,25.952 L127.94,25.952 L127.94,26.976 L129.508,26.976 L129.508,31.552 C129.508,32.3946667 129.724,33.032 130.156,33.464 C130.588,33.896 131.188,34.112 131.956,34.112 Z M138.228,34.112 C138.804,34.112 139.366667,34.016 139.916,33.824 C140.465333,33.632 140.916,33.3706667 141.268,33.04 L141.268,33.04 L140.836,32.096 C140.046667,32.7253333 139.182667,33.04 138.244,33.04 C137.358667,33.04 136.684,32.7786667 136.22,32.256 C135.756,31.7333333 135.518667,30.96 135.508,29.936 L135.508,29.936 L141.412,29.936 L141.412,29.696 C141.412,28.4693333 141.108,27.5066667 140.5,26.808 C139.892,26.1093333 139.054667,25.76 137.988,25.76 C137.252,25.76 136.596,25.936 136.02,26.288 C135.444,26.64 134.996,27.1333333 134.676,27.768 C134.356,28.4026667 134.196,29.1306667 134.196,29.952 C134.196,31.2426667 134.553333,32.2586667 135.268,33 C135.982667,33.7413333 136.969333,34.112 138.228,34.112 Z M140.244,29.088 L135.556,29.088 C135.673333,28.352 135.942667,27.7813333 136.364,27.376 C136.785333,26.9706667 137.332,26.768 138.004,26.768 C138.676,26.768 139.201333,26.9653333 139.58,27.36 C139.958667,27.7546667 140.18,28.3306667 140.244,29.088 L140.244,29.088 Z M144.676,34 L144.676,29.408 C144.676,28.6186667 144.870667,27.9946667 145.26,27.536 C145.649333,27.0773333 146.185333,26.848 146.868,26.848 C147.454667,26.848 147.881333,27.0213333 148.148,27.368 C148.414667,27.7146667 148.548,28.2613333 148.548,29.008 L148.548,29.008 L148.548,34 L149.844,34 L149.844,29.408 C149.844,28.6186667 150.036,27.9946667 150.42,27.536 C150.804,27.0773333 151.337333,26.848 152.02,26.848 C152.606667,26.848 153.030667,27.0186667 153.292,27.36 C153.553333,27.7013333 153.684,28.2506667 153.684,29.008 L153.684,29.008 L153.684,34 L154.98,34 L154.98,28.944 C154.98,26.8213333 154.089333,25.76 152.308,25.76 C151.710667,25.76 151.174667,25.9013333 150.7,26.184 C150.225333,26.4666667 149.865333,26.848 149.62,27.328 C149.428,26.7946667 149.129333,26.4 148.724,26.144 C148.318667,25.888 147.796,25.76 147.156,25.76 C146.569333,25.76 146.054667,25.8986667 145.612,26.176 C145.169333,26.4533333 144.836,26.848 144.612,27.36 L144.612,27.36 L144.484,25.952 L143.252,25.952 C143.337333,26.624 143.38,27.376 143.38,28.208 L143.38,28.208 L143.38,34 L144.676,34 Z M160.164,34.112 C161.134667,34.112 161.902667,33.904 162.468,33.488 C163.033333,33.072 163.316,32.5173333 163.316,31.824 C163.316,31.248 163.134667,30.7813333 162.772,30.424 C162.409333,30.0666667 161.854667,29.8026667 161.108,29.632 L161.108,29.632 L159.748,29.296 C159.310667,29.1893333 158.993333,29.04 158.796,28.848 C158.598667,28.656 158.5,28.3946667 158.5,28.064 C158.5,27.6693333 158.657333,27.3626667 158.972,27.144 C159.286667,26.9253333 159.732,26.816 160.308,26.816 C161.172,26.816 161.982667,27.1306667 162.74,27.76 L162.74,27.76 L163.172,26.816 C162.830667,26.4746667 162.409333,26.2133333 161.908,26.032 C161.406667,25.8506667 160.873333,25.76 160.308,25.76 C159.38,25.76 158.633333,25.9813333 158.068,26.424 C157.502667,26.8666667 157.22,27.44 157.22,28.144 C157.22,28.6773333 157.404,29.136 157.772,29.52 C158.14,29.904 158.66,30.1706667 159.332,30.32 L159.332,30.32 L160.692,30.64 C161.182667,30.7466667 161.534667,30.896 161.748,31.088 C161.961333,31.28 162.068,31.536 162.068,31.856 C162.068,32.2506667 161.910667,32.552 161.596,32.76 C161.281333,32.968 160.82,33.072 160.212,33.072 C159.657333,33.072 159.156,32.9973333 158.708,32.848 C158.26,32.6986667 157.817333,32.4533333 157.38,32.112 L157.38,32.112 L156.948,33.072 C157.737333,33.7653333 158.809333,34.112 160.164,34.112 Z M172.644,34.112 C173.273333,34.112 173.825333,33.976 174.3,33.704 C174.774667,33.432 175.129333,33.0453333 175.364,32.544 L175.364,32.544 L175.364,34 L176.644,34 L176.644,25.952 L175.364,25.952 L175.364,27.344 C175.118667,26.8426667 174.761333,26.4533333 174.292,26.176 C173.822667,25.8986667 173.273333,25.76 172.644,25.76 C171.94,25.76 171.318667,25.936 170.78,26.288 C170.241333,26.64 169.822667,27.1333333 169.524,27.768 C169.225333,28.4026667 169.076,29.136 169.076,29.968 C169.076,30.8 169.222667,31.528 169.516,32.152 C169.809333,32.776 170.225333,33.2586667 170.764,33.6 C171.302667,33.9413333 171.929333,34.112 172.644,34.112 Z M172.9,33.04 C172.1,33.04 171.481333,32.7733333 171.044,32.24 C170.606667,31.7066667 170.388,30.9493333 170.388,29.968 C170.388,28.9866667 170.609333,28.2213333 171.052,27.672 C171.494667,27.1226667 172.110667,26.848 172.9,26.848 C173.689333,26.848 174.297333,27.1146667 174.724,27.648 C175.150667,28.1813333 175.364,28.944 175.364,29.936 C175.364,30.928 175.150667,31.6933333 174.724,32.232 C174.297333,32.7706667 173.689333,33.04 172.9,33.04 Z M180.452,34 L180.452,29.392 C180.452,28.6133333 180.676,27.9946667 181.124,27.536 C181.572,27.0773333 182.169333,26.848 182.916,26.848 C183.556,26.848 184.025333,27.0213333 184.324,27.368 C184.622667,27.7146667 184.772,28.2613333 184.772,29.008 L184.772,29.008 L184.772,34 L186.068,34 L186.068,28.944 C186.068,26.8213333 185.102667,25.76 183.172,25.76 C182.542667,25.76 181.982667,25.9013333 181.492,26.184 C181.001333,26.4666667 180.633333,26.8693333 180.388,27.392 L180.388,27.392 L180.26,25.952 L179.028,25.952 C179.113333,26.624 179.156,27.376 179.156,28.208 L179.156,28.208 L179.156,34 L180.452,34 Z M191.604,34.112 C192.233333,34.112 192.785333,33.976 193.26,33.704 C193.734667,33.432 194.089333,33.0453333 194.324,32.544 L194.324,32.544 L194.324,34 L195.604,34 L195.604,25.952 L194.324,25.952 L194.324,27.344 C194.078667,26.8426667 193.721333,26.4533333 193.252,26.176 C192.782667,25.8986667 192.233333,25.76 191.604,25.76 C190.9,25.76 190.278667,25.936 189.74,26.288 C189.201333,26.64 188.782667,27.1333333 188.484,27.768 C188.185333,28.4026667 188.036,29.136 188.036,29.968 C188.036,30.8 188.182667,31.528 188.476,32.152 C188.769333,32.776 189.185333,33.2586667 189.724,33.6 C190.262667,33.9413333 190.889333,34.112 191.604,34.112 Z M191.86,33.04 C191.06,33.04 190.441333,32.7733333 190.004,32.24 C189.566667,31.7066667 189.348,30.9493333 189.348,29.968 C189.348,28.9866667 189.569333,28.2213333 190.012,27.672 C190.454667,27.1226667 191.070667,26.848 191.86,26.848 C192.649333,26.848 193.257333,27.1146667 193.684,27.648 C194.110667,28.1813333 194.324,28.944 194.324,29.936 C194.324,30.928 194.110667,31.6933333 193.684,32.232 C193.257333,32.7706667 192.649333,33.04 191.86,33.04 Z M199.412,34 L199.412,22.224 L198.116,22.224 L198.116,34 L199.412,34 Z M201.54,37.632 C202.414667,37.472 203.150667,37.1786667 203.748,36.752 C204.345333,36.3253333 204.841333,35.6533333 205.236,34.736 L205.236,34.736 L208.996,25.952 L207.7,25.952 L204.948,32.592 L202.228,25.952 L200.868,25.952 L204.276,33.92 L203.956,34.64 C203.7,35.2266667 203.377333,35.6613333 202.988,35.944 C202.598667,36.2266667 202.025333,36.4533333 201.268,36.624 L201.268,36.624 L201.54,37.632 Z M213.14,34.112 C214.110667,34.112 214.878667,33.904 215.444,33.488 C216.009333,33.072 216.292,32.5173333 216.292,31.824 C216.292,31.248 216.110667,30.7813333 215.748,30.424 C215.385333,30.0666667 214.830667,29.8026667 214.084,29.632 L214.084,29.632 L212.724,29.296 C212.286667,29.1893333 211.969333,29.04 211.772,28.848 C211.574667,28.656 211.476,28.3946667 211.476,28.064 C211.476,27.6693333 211.633333,27.3626667 211.948,27.144 C212.262667,26.9253333 212.708,26.816 213.284,26.816 C214.148,26.816 214.958667,27.1306667 215.716,27.76 L215.716,27.76 L216.148,26.816 C215.806667,26.4746667 215.385333,26.2133333 214.884,26.032 C214.382667,25.8506667 213.849333,25.76 213.284,25.76 C212.356,25.76 211.609333,25.9813333 211.044,26.424 C210.478667,26.8666667 210.196,27.44 210.196,28.144 C210.196,28.6773333 210.38,29.136 210.748,29.52 C211.116,29.904 211.636,30.1706667 212.308,30.32 L212.308,30.32 L213.668,30.64 C214.158667,30.7466667 214.510667,30.896 214.724,31.088 C214.937333,31.28 215.044,31.536 215.044,31.856 C215.044,32.2506667 214.886667,32.552 214.572,32.76 C214.257333,32.968 213.796,33.072 213.188,33.072 C212.633333,33.072 212.132,32.9973333 211.684,32.848 C211.236,32.6986667 210.793333,32.4533333 210.356,32.112 L210.356,32.112 L209.924,33.072 C210.713333,33.7653333 211.785333,34.112 213.14,34.112 Z M219.812,24.016 L219.812,22.544 L218.228,22.544 L218.228,24.016 L219.812,24.016 Z M219.652,34 L219.652,25.952 L218.356,25.952 L218.356,34 L219.652,34 Z M224.884,34.112 C225.854667,34.112 226.622667,33.904 227.188,33.488 C227.753333,33.072 228.036,32.5173333 228.036,31.824 C228.036,31.248 227.854667,30.7813333 227.492,30.424 C227.129333,30.0666667 226.574667,29.8026667 225.828,29.632 L225.828,29.632 L224.468,29.296 C224.030667,29.1893333 223.713333,29.04 223.516,28.848 C223.318667,28.656 223.22,28.3946667 223.22,28.064 C223.22,27.6693333 223.377333,27.3626667 223.692,27.144 C224.006667,26.9253333 224.452,26.816 225.028,26.816 C225.892,26.816 226.702667,27.1306667 227.46,27.76 L227.46,27.76 L227.892,26.816 C227.550667,26.4746667 227.129333,26.2133333 226.628,26.032 C226.126667,25.8506667 225.593333,25.76 225.028,25.76 C224.1,25.76 223.353333,25.9813333 222.788,26.424 C222.222667,26.8666667 221.94,27.44 221.94,28.144 C221.94,28.6773333 222.124,29.136 222.492,29.52 C222.86,29.904 223.38,30.1706667 224.052,30.32 L224.052,30.32 L225.412,30.64 C225.902667,30.7466667 226.254667,30.896 226.468,31.088 C226.681333,31.28 226.788,31.536 226.788,31.856 C226.788,32.2506667 226.630667,32.552 226.316,32.76 C226.001333,32.968 225.54,33.072 224.932,33.072 C224.377333,33.072 223.876,32.9973333 223.428,32.848 C222.98,32.6986667 222.537333,32.4533333 222.1,32.112 L222.1,32.112 L221.668,33.072 C222.457333,33.7653333 223.529333,34.112 224.884,34.112 Z" id="Regulatorysystemsanalysis" fill="#2C2E32" fill-rule="nonzero"></path>
                </g>
                <g id="4" transform="translate(48.000000, 297.000000)">
                    <rect id="Rectangle" fill="#E74B00" x="0" y="0" width="159" height="55" rx="16"></rect>
                    <path d="M56.52,34 L56.52,29.264 L58.584,29.264 C59.0106667,29.264 59.3573333,29.3333333 59.624,29.472 C59.8906667,29.6106667 60.088,29.856 60.216,30.208 L60.216,30.208 L61.672,34 L63.848,34 L62.456,30.352 C62.1573333,29.552 61.672,29.0826667 61,28.944 C61.736,28.72 62.304,28.344 62.704,27.816 C63.104,27.288 63.304,26.6453333 63.304,25.888 C63.304,24.832 62.968,24.0213333 62.296,23.456 C61.624,22.8906667 60.6426667,22.608 59.352,22.608 L59.352,22.608 L54.472,22.608 L54.472,34 L56.52,34 Z M59.064,27.664 L56.488,27.664 L56.488,24.208 L59.064,24.208 C59.8533333,24.208 60.432,24.3493333 60.8,24.632 C61.168,24.9146667 61.352,25.344 61.352,25.92 C61.352,26.5066667 61.1653333,26.944 60.792,27.232 C60.4186667,27.52 59.8426667,27.664 59.064,27.664 L59.064,27.664 Z M69.368,34.128 C69.944,34.128 70.512,34.0346667 71.072,33.848 C71.632,33.6613333 72.104,33.4133333 72.488,33.104 L72.488,33.104 L71.912,31.728 C71.1546667,32.304 70.3333333,32.592 69.448,32.592 C68.68,32.592 68.1013333,32.3866667 67.712,31.976 C67.3226667,31.5653333 67.1066667,30.928 67.064,30.064 L67.064,30.064 L72.632,30.064 L72.632,29.76 C72.632,28.5013333 72.3093333,27.512 71.664,26.792 C71.0186667,26.072 70.1413333,25.712 69.032,25.712 C68.2746667,25.712 67.5973333,25.8906667 67,26.248 C66.4026667,26.6053333 65.9386667,27.104 65.608,27.744 C65.2773333,28.384 65.112,29.1146667 65.112,29.936 C65.112,31.2373333 65.4906667,32.2613333 66.248,33.008 C67.0053333,33.7546667 68.0453333,34.128 69.368,34.128 Z M70.888,28.992 L67.128,28.992 C67.224,28.3946667 67.44,27.9386667 67.776,27.624 C68.112,27.3093333 68.5466667,27.152 69.08,27.152 C69.6133333,27.152 70.032,27.3066667 70.336,27.616 C70.64,27.9253333 70.824,28.384 70.888,28.992 L70.888,28.992 Z M76.312,37.456 L76.312,32.704 C76.5573333,33.152 76.9093333,33.5013333 77.368,33.752 C77.8266667,34.0026667 78.3493333,34.128 78.936,34.128 C79.64,34.128 80.2613333,33.9573333 80.8,33.616 C81.3386667,33.2746667 81.7573333,32.7893333 82.056,32.16 C82.3546667,31.5306667 82.504,30.8 82.504,29.968 C82.504,29.136 82.352,28.3973333 82.048,27.752 C81.744,27.1066667 81.3226667,26.6053333 80.784,26.248 C80.2453333,25.8906667 79.6293333,25.712 78.936,25.712 C78.3066667,25.712 77.752,25.8533333 77.272,26.136 C76.792,26.4186667 76.4453333,26.8106667 76.232,27.312 L76.232,27.312 L76.072,25.92 L74.2,25.92 C74.2853333,26.592 74.328,27.3546667 74.328,28.208 L74.328,28.208 L74.328,37.456 L76.312,37.456 Z M78.392,32.56 C77.72,32.56 77.2026667,32.3333333 76.84,31.88 C76.4773333,31.4266667 76.296,30.7786667 76.296,29.936 C76.296,29.0826667 76.4773333,28.4266667 76.84,27.968 C77.2026667,27.5093333 77.7253333,27.28 78.408,27.28 C79.0693333,27.28 79.5813333,27.5173333 79.944,27.992 C80.3066667,28.4666667 80.488,29.1253333 80.488,29.968 C80.488,30.8 80.3066667,31.44 79.944,31.888 C79.5813333,32.336 79.064,32.56 78.392,32.56 Z M87.912,34.128 C88.7226667,34.128 89.4373333,33.9573333 90.056,33.616 C90.6746667,33.2746667 91.152,32.7866667 91.488,32.152 C91.824,31.5173333 91.992,30.7733333 91.992,29.92 C91.992,29.0666667 91.824,28.3226667 91.488,27.688 C91.152,27.0533333 90.6746667,26.5653333 90.056,26.224 C89.4373333,25.8826667 88.7226667,25.712 87.912,25.712 C87.0906667,25.712 86.368,25.8826667 85.744,26.224 C85.12,26.5653333 84.64,27.0533333 84.304,27.688 C83.968,28.3226667 83.8,29.0666667 83.8,29.92 C83.8,30.7733333 83.968,31.5173333 84.304,32.152 C84.64,32.7866667 85.12,33.2746667 85.744,33.616 C86.368,33.9573333 87.0906667,34.128 87.912,34.128 Z M87.896,32.56 C87.224,32.56 86.7093333,32.3386667 86.352,31.896 C85.9946667,31.4533333 85.816,30.7946667 85.816,29.92 C85.816,29.056 85.9973333,28.3973333 86.36,27.944 C86.7226667,27.4906667 87.24,27.264 87.912,27.264 C88.5733333,27.264 89.0853333,27.4906667 89.448,27.944 C89.8106667,28.3973333 89.992,29.056 89.992,29.92 C89.992,30.7946667 89.8133333,31.4533333 89.456,31.896 C89.0986667,32.3386667 88.5786667,32.56 87.896,32.56 Z M95.704,34 L95.704,29.632 C95.704,28.9813333 95.8826667,28.4586667 96.24,28.064 C96.5973333,27.6693333 97.1173333,27.472 97.8,27.472 C98.1626667,27.472 98.5146667,27.5413333 98.856,27.68 L98.856,27.68 L98.872,25.856 C98.648,25.7706667 98.3813333,25.728 98.072,25.728 C97.5173333,25.728 97.0213333,25.8666667 96.584,26.144 C96.1466667,26.4213333 95.8266667,26.8213333 95.624,27.344 L95.624,27.344 L95.464,25.92 L93.592,25.92 C93.6773333,26.592 93.72,27.3546667 93.72,28.208 L93.72,28.208 L93.72,34 L95.704,34 Z M103.384,34.112 C103.885333,34.112 104.312,34.048 104.664,33.92 L104.664,33.92 L104.664,32.336 C104.376,32.4213333 104.109333,32.464 103.864,32.464 C102.978667,32.464 102.536,31.9893333 102.536,31.04 L102.536,31.04 L102.536,27.424 L104.68,27.424 L104.68,25.92 L102.536,25.92 L102.536,23.28 L100.536,23.952 L100.536,25.92 L98.984,25.92 L98.984,27.424 L100.536,27.424 L100.536,31.136 C100.536,32.096 100.781333,32.832 101.272,33.344 C101.762667,33.856 102.466667,34.112 103.384,34.112 Z M108.152,24.224 L108.152,22.256 L105.928,22.256 L105.928,24.224 L108.152,24.224 Z M108.04,34 L108.04,25.92 L106.056,25.92 L106.056,34 L108.04,34 Z M112.216,34 L112.216,29.424 C112.216,28.784 112.402667,28.2693333 112.776,27.88 C113.149333,27.4906667 113.64,27.296 114.248,27.296 C114.76,27.296 115.138667,27.4426667 115.384,27.736 C115.629333,28.0293333 115.752,28.496 115.752,29.136 L115.752,29.136 L115.752,34 L117.752,34 L117.752,29.04 C117.752,26.8213333 116.786667,25.712 114.856,25.712 C114.258667,25.712 113.722667,25.8453333 113.248,26.112 C112.773333,26.3786667 112.397333,26.7573333 112.12,27.248 L112.12,27.248 L111.976,25.92 L110.104,25.92 C110.189333,26.592 110.232,27.3546667 110.232,28.208 L110.232,28.208 L110.232,34 L112.216,34 Z M123.592,37.584 C124.936,37.584 125.954667,37.2586667 126.648,36.608 C127.341333,35.9573333 127.688,35.0026667 127.688,33.744 L127.688,33.744 L127.688,25.92 L125.704,25.92 L125.704,27.136 C125.458667,26.688 125.104,26.3386667 124.64,26.088 C124.176,25.8373333 123.645333,25.712 123.048,25.712 C122.344,25.712 121.717333,25.88 121.168,26.216 C120.618667,26.552 120.192,27.0266667 119.888,27.64 C119.584,28.2533333 119.432,28.9546667 119.432,29.744 C119.432,30.5333333 119.584,31.2346667 119.888,31.848 C120.192,32.4613333 120.618667,32.936 121.168,33.272 C121.717333,33.608 122.344,33.776 123.048,33.776 C123.634667,33.776 124.162667,33.64 124.632,33.368 C125.101333,33.096 125.458667,32.7413333 125.704,32.304 L125.704,32.304 L125.704,33.904 C125.704,35.3333333 124.984,36.048 123.544,36.048 C122.573333,36.048 121.597333,35.792 120.616,35.28 L120.616,35.28 L120.296,36.8 C121.245333,37.3226667 122.344,37.584 123.592,37.584 Z M123.576,32.208 C122.914667,32.208 122.394667,31.9893333 122.016,31.552 C121.637333,31.1146667 121.448,30.512 121.448,29.744 C121.448,28.976 121.637333,28.3733333 122.016,27.936 C122.394667,27.4986667 122.914667,27.28 123.576,27.28 C124.248,27.28 124.770667,27.4986667 125.144,27.936 C125.517333,28.3733333 125.704,28.976 125.704,29.744 C125.704,30.512 125.514667,31.1146667 125.136,31.552 C124.757333,31.9893333 124.237333,32.208 123.576,32.208 Z" id="Reporting" fill="#FFFFFF" fill-rule="nonzero"></path>
                    <path d="M27,17 L27,26.3076923 L28.1621098,26.3076923 L28.7,24.9707015 L28.7,18.6923077 L37.2,18.6923077 L37.2,23.7692308 L42.3,23.7692308 L42.3,37.3076923 L28.7,37.3076923 L28.7,32.4389992 L28.6551761,32.3943815 L27.6424802,31.3846154 L27,31.3846154 L27,39 L44,39 L44,22.5793269 L43.7609375,22.3149038 L38.6609375,17.2379808 L38.3953125,17 L27,17 Z M39,20 L41,22 L39,22 L39,20 Z M31.6234375,23 L29.6378902,27.7699676 L29.4519527,27.5910539 L24,27.5910539 L24,29.2268368 L28.7480473,29.2268368 L30.2587888,30.683706 L31.6765625,27.2747589 L34.2265625,33 L35.986326,28.7667728 L36.2253885,29.2268368 L37.8291005,29.2268368 C38.1342505,29.7314758 38.6931,30.0447283 39.3,30.0447283 C40.23925,30.0447283 41,29.3127154 41,28.4089453 C41,27.5051752 40.23925,26.7731624 39.3,26.7731624 C38.69225,26.7731624 38.1308505,27.0864148 37.8291005,27.5910539 L37.2746115,27.5910539 L35.813674,24.7795519 L34.1734375,28.7252403 L31.6234375,23 Z" id="Fill-1" fill="#FFFFFF"></path>
                </g>
            </g>
        </g>
    </g>
</svg>