<?xml version="1.0" encoding="UTF-8"?>
<svg width="279px" height="352px" viewBox="0 0 279 352" version="1.1" xmlns="http://www.w3.org/2000/svg" xmlns:xlink="http://www.w3.org/1999/xlink">
    <title>post-market-surveillance</title>
    <g id="Page-1" stroke="none" stroke-width="1" fill="none" fill-rule="evenodd">
        <g id="flattened" transform="translate(-291.000000, -129.000000)">
            <g id="post-market-surveillance" transform="translate(291.000000, 129.000000)">
                <line x1="140" y1="98.5" x2="140" y2="339.363281" id="Line" stroke="#E74B00" stroke-width="3" stroke-linecap="square"></line>
                <g id="loop" transform="translate(39.000000, 28.000000)" stroke="#E74B00" stroke-dasharray="3" stroke-width="3">
                    <path d="M25,0 L176,0 C187.045695,-2.02906125e-15 196,8.954305 196,20 L196,55 C196,66.045695 187.045695,75 176,75 L25,75 C13.954305,75 5,66.045695 5,55 L5,20 C5,8.954305 13.954305,2.02906125e-15 25,0 Z" id="Rectangle"></path>
                </g>
                <g id="1" transform="translate(77.000000, 0.000000)">
                    <g id="consultation">
                        <rect id="Rectangle" stroke="#2C2E32" stroke-width="2" fill="#FFFFFF" x="1" y="1" width="125" height="53" rx="16"></rect>
                        <path d="M23.496,34.128 C24.2853333,34.128 25.008,34.008 25.664,33.768 C26.32,33.528 26.888,33.168 27.368,32.688 L27.368,32.688 L26.872,31.68 C26.328,32.1493333 25.792,32.4853333 25.264,32.688 C24.736,32.8906667 24.152,32.992 23.512,32.992 C22.2533333,32.992 21.2826667,32.584 20.6,31.768 C19.9173333,30.952 19.576,29.792 19.576,28.288 C19.576,26.7946667 19.92,25.6426667 20.608,24.832 C21.296,24.0213333 22.264,23.616 23.512,23.616 C24.152,23.616 24.736,23.7173333 25.264,23.92 C25.792,24.1226667 26.328,24.4586667 26.872,24.928 L26.872,24.928 L27.368,23.92 C26.888,23.44 26.32,23.08 25.664,22.84 C25.008,22.6 24.2853333,22.48 23.496,22.48 C22.4186667,22.48 21.4826667,22.7146667 20.688,23.184 C19.8933333,23.6533333 19.2826667,24.3226667 18.856,25.192 C18.4293333,26.0613333 18.216,27.0933333 18.216,28.288 C18.216,29.4826667 18.4293333,30.52 18.856,31.4 C19.2826667,32.28 19.8933333,32.9546667 20.688,33.424 C21.4826667,33.8933333 22.4186667,34.128 23.496,34.128 Z M32.744,34.112 C33.5013333,34.112 34.168,33.9413333 34.744,33.6 C35.32,33.2586667 35.7653333,32.7733333 36.08,32.144 C36.3946667,31.5146667 36.552,30.7786667 36.552,29.936 C36.552,29.0933333 36.3946667,28.3573333 36.08,27.728 C35.7653333,27.0986667 35.32,26.6133333 34.744,26.272 C34.168,25.9306667 33.5013333,25.76 32.744,25.76 C31.9866667,25.76 31.32,25.9306667 30.744,26.272 C30.168,26.6133333 29.7226667,27.0986667 29.408,27.728 C29.0933333,28.3573333 28.936,29.0933333 28.936,29.936 C28.936,30.7786667 29.0933333,31.5146667 29.408,32.144 C29.7226667,32.7733333 30.168,33.2586667 30.744,33.6 C31.32,33.9413333 31.9866667,34.112 32.744,34.112 Z M32.744,33.04 C31.944,33.04 31.328,32.776 30.896,32.248 C30.464,31.72 30.248,30.9493333 30.248,29.936 C30.248,28.9546667 30.4666667,28.1946667 30.904,27.656 C31.3413333,27.1173333 31.9546667,26.848 32.744,26.848 C33.5226667,26.848 34.1306667,27.1173333 34.568,27.656 C35.0053333,28.1946667 35.224,28.9546667 35.224,29.936 C35.224,30.9493333 35.0106667,31.72 34.584,32.248 C34.1573333,32.776 33.544,33.04 32.744,33.04 Z M39.864,34 L39.864,29.392 C39.864,28.6133333 40.088,27.9946667 40.536,27.536 C40.984,27.0773333 41.5813333,26.848 42.328,26.848 C42.968,26.848 43.4373333,27.0213333 43.736,27.368 C44.0346667,27.7146667 44.184,28.2613333 44.184,29.008 L44.184,29.008 L44.184,34 L45.48,34 L45.48,28.944 C45.48,26.8213333 44.5146667,25.76 42.584,25.76 C41.9546667,25.76 41.3946667,25.9013333 40.904,26.184 C40.4133333,26.4666667 40.0453333,26.8693333 39.8,27.392 L39.8,27.392 L39.672,25.952 L38.44,25.952 C38.5253333,26.624 38.568,27.376 38.568,28.208 L38.568,28.208 L38.568,34 L39.864,34 Z M50.648,34.112 C51.6186667,34.112 52.3866667,33.904 52.952,33.488 C53.5173333,33.072 53.8,32.5173333 53.8,31.824 C53.8,31.248 53.6186667,30.7813333 53.256,30.424 C52.8933333,30.0666667 52.3386667,29.8026667 51.592,29.632 L51.592,29.632 L50.232,29.296 C49.7946667,29.1893333 49.4773333,29.04 49.28,28.848 C49.0826667,28.656 48.984,28.3946667 48.984,28.064 C48.984,27.6693333 49.1413333,27.3626667 49.456,27.144 C49.7706667,26.9253333 50.216,26.816 50.792,26.816 C51.656,26.816 52.4666667,27.1306667 53.224,27.76 L53.224,27.76 L53.656,26.816 C53.3146667,26.4746667 52.8933333,26.2133333 52.392,26.032 C51.8906667,25.8506667 51.3573333,25.76 50.792,25.76 C49.864,25.76 49.1173333,25.9813333 48.552,26.424 C47.9866667,26.8666667 47.704,27.44 47.704,28.144 C47.704,28.6773333 47.888,29.136 48.256,29.52 C48.624,29.904 49.144,30.1706667 49.816,30.32 L49.816,30.32 L51.176,30.64 C51.6666667,30.7466667 52.0186667,30.896 52.232,31.088 C52.4453333,31.28 52.552,31.536 52.552,31.856 C52.552,32.2506667 52.3946667,32.552 52.08,32.76 C51.7653333,32.968 51.304,33.072 50.696,33.072 C50.1413333,33.072 49.64,32.9973333 49.192,32.848 C48.744,32.6986667 48.3013333,32.4533333 47.864,32.112 L47.864,32.112 L47.432,33.072 C48.2213333,33.7653333 49.2933333,34.112 50.648,34.112 Z M58.712,34.112 C59.288,34.112 59.8053333,33.984 60.264,33.728 C60.7226667,33.472 61.08,33.0986667 61.336,32.608 L61.336,32.608 L61.336,34 L62.6,34 L62.6,25.952 L61.304,25.952 L61.304,30.496 C61.304,31.2533333 61.0853333,31.864 60.648,32.328 C60.2106667,32.792 59.6346667,33.024 58.92,33.024 C58.312,33.024 57.8586667,32.8533333 57.56,32.512 C57.2613333,32.1706667 57.112,31.6373333 57.112,30.912 L57.112,30.912 L57.112,25.952 L55.816,25.952 L55.816,30.944 C55.816,31.9893333 56.0613333,32.7786667 56.552,33.312 C57.0426667,33.8453333 57.7626667,34.112 58.712,34.112 Z M66.392,34 L66.392,22.224 L65.096,22.224 L65.096,34 L66.392,34 Z M71.784,34.112 C72.2,34.112 72.5733333,34.0586667 72.904,33.952 L72.904,33.952 L72.904,32.848 C72.6266667,32.944 72.3386667,32.992 72.04,32.992 C71.592,32.992 71.2453333,32.872 71,32.632 C70.7546667,32.392 70.632,31.9733333 70.632,31.376 L70.632,31.376 L70.632,26.976 L72.936,26.976 L72.936,25.952 L70.632,25.952 L70.632,23.424 L69.336,23.888 L69.336,25.952 L67.768,25.952 L67.768,26.976 L69.336,26.976 L69.336,31.552 C69.336,32.3946667 69.552,33.032 69.984,33.464 C70.416,33.896 71.016,34.112 71.784,34.112 Z M77.592,34.112 C78.2213333,34.112 78.7733333,33.976 79.248,33.704 C79.7226667,33.432 80.0773333,33.0453333 80.312,32.544 L80.312,32.544 L80.312,34 L81.592,34 L81.592,25.952 L80.312,25.952 L80.312,27.344 C80.0666667,26.8426667 79.7093333,26.4533333 79.24,26.176 C78.7706667,25.8986667 78.2213333,25.76 77.592,25.76 C76.888,25.76 76.2666667,25.936 75.728,26.288 C75.1893333,26.64 74.7706667,27.1333333 74.472,27.768 C74.1733333,28.4026667 74.024,29.136 74.024,29.968 C74.024,30.8 74.1706667,31.528 74.464,32.152 C74.7573333,32.776 75.1733333,33.2586667 75.712,33.6 C76.2506667,33.9413333 76.8773333,34.112 77.592,34.112 Z M77.848,33.04 C77.048,33.04 76.4293333,32.7733333 75.992,32.24 C75.5546667,31.7066667 75.336,30.9493333 75.336,29.968 C75.336,28.9866667 75.5573333,28.2213333 76,27.672 C76.4426667,27.1226667 77.0586667,26.848 77.848,26.848 C78.6373333,26.848 79.2453333,27.1146667 79.672,27.648 C80.0986667,28.1813333 80.312,28.944 80.312,29.936 C80.312,30.928 80.0986667,31.6933333 79.672,32.232 C79.2453333,32.7706667 78.6373333,33.04 77.848,33.04 Z M86.984,34.112 C87.4,34.112 87.7733333,34.0586667 88.104,33.952 L88.104,33.952 L88.104,32.848 C87.8266667,32.944 87.5386667,32.992 87.24,32.992 C86.792,32.992 86.4453333,32.872 86.2,32.632 C85.9546667,32.392 85.832,31.9733333 85.832,31.376 L85.832,31.376 L85.832,26.976 L88.136,26.976 L88.136,25.952 L85.832,25.952 L85.832,23.424 L84.536,23.888 L84.536,25.952 L82.968,25.952 L82.968,26.976 L84.536,26.976 L84.536,31.552 C84.536,32.3946667 84.752,33.032 85.184,33.464 C85.616,33.896 86.216,34.112 86.984,34.112 Z M91.16,24.016 L91.16,22.544 L89.576,22.544 L89.576,24.016 L91.16,24.016 Z M91,34 L91,25.952 L89.704,25.952 L89.704,34 L91,34 Z M96.84,34.112 C97.5973333,34.112 98.264,33.9413333 98.84,33.6 C99.416,33.2586667 99.8613333,32.7733333 100.176,32.144 C100.490667,31.5146667 100.648,30.7786667 100.648,29.936 C100.648,29.0933333 100.490667,28.3573333 100.176,27.728 C99.8613333,27.0986667 99.416,26.6133333 98.84,26.272 C98.264,25.9306667 97.5973333,25.76 96.84,25.76 C96.0826667,25.76 95.416,25.9306667 94.84,26.272 C94.264,26.6133333 93.8186667,27.0986667 93.504,27.728 C93.1893333,28.3573333 93.032,29.0933333 93.032,29.936 C93.032,30.7786667 93.1893333,31.5146667 93.504,32.144 C93.8186667,32.7733333 94.264,33.2586667 94.84,33.6 C95.416,33.9413333 96.0826667,34.112 96.84,34.112 Z M96.84,33.04 C96.04,33.04 95.424,32.776 94.992,32.248 C94.56,31.72 94.344,30.9493333 94.344,29.936 C94.344,28.9546667 94.5626667,28.1946667 95,27.656 C95.4373333,27.1173333 96.0506667,26.848 96.84,26.848 C97.6186667,26.848 98.2266667,27.1173333 98.664,27.656 C99.1013333,28.1946667 99.32,28.9546667 99.32,29.936 C99.32,30.9493333 99.1066667,31.72 98.68,32.248 C98.2533333,32.776 97.64,33.04 96.84,33.04 Z M103.96,34 L103.96,29.392 C103.96,28.6133333 104.184,27.9946667 104.632,27.536 C105.08,27.0773333 105.677333,26.848 106.424,26.848 C107.064,26.848 107.533333,27.0213333 107.832,27.368 C108.130667,27.7146667 108.28,28.2613333 108.28,29.008 L108.28,29.008 L108.28,34 L109.576,34 L109.576,28.944 C109.576,26.8213333 108.610667,25.76 106.68,25.76 C106.050667,25.76 105.490667,25.9013333 105,26.184 C104.509333,26.4666667 104.141333,26.8693333 103.896,27.392 L103.896,27.392 L103.768,25.952 L102.536,25.952 C102.621333,26.624 102.664,27.376 102.664,28.208 L102.664,28.208 L102.664,34 L103.96,34 Z" id="Consultation" fill="#2C2E32" fill-rule="nonzero"></path>
                    </g>
                    <g id="proposal" transform="translate(0.000000, 75.000000)">
                        <rect id="Rectangle" stroke="#2C2E32" stroke-width="2" fill="#FFFFFF" x="1" y="1" width="125" height="53" rx="16"></rect>
                        <path d="M32.992,34 L32.992,28.992 L36.224,28.992 C37.3866667,28.992 38.2986667,28.7066667 38.96,28.136 C39.6213333,27.5653333 39.952,26.784 39.952,25.792 C39.952,24.8 39.624,24.0213333 38.968,23.456 C38.312,22.8906667 37.3973333,22.608 36.224,22.608 L36.224,22.608 L31.68,22.608 L31.68,34 L32.992,34 Z M36.112,27.904 L32.992,27.904 L32.992,23.696 L36.112,23.696 C36.9546667,23.696 37.5893333,23.8746667 38.016,24.232 C38.4426667,24.5893333 38.656,25.1093333 38.656,25.792 C38.656,26.4746667 38.4426667,26.9973333 38.016,27.36 C37.5893333,27.7226667 36.9546667,27.904 36.112,27.904 L36.112,27.904 Z M43.232,34 L43.232,29.408 C43.232,28.7146667 43.4213333,28.1253333 43.8,27.64 C44.1786667,27.1546667 44.7573333,26.912 45.536,26.912 C45.856,26.912 46.1386667,26.9546667 46.384,27.04 L46.384,27.04 L46.416,25.856 C46.192,25.792 45.9466667,25.76 45.68,25.76 C45.104,25.76 44.592,25.904 44.144,26.192 C43.696,26.48 43.3706667,26.896 43.168,27.44 L43.168,27.44 L43.04,25.952 L41.808,25.952 C41.8933333,26.624 41.936,27.376 41.936,28.208 L41.936,28.208 L41.936,34 L43.232,34 Z M51.056,34.112 C51.8133333,34.112 52.48,33.9413333 53.056,33.6 C53.632,33.2586667 54.0773333,32.7733333 54.392,32.144 C54.7066667,31.5146667 54.864,30.7786667 54.864,29.936 C54.864,29.0933333 54.7066667,28.3573333 54.392,27.728 C54.0773333,27.0986667 53.632,26.6133333 53.056,26.272 C52.48,25.9306667 51.8133333,25.76 51.056,25.76 C50.2986667,25.76 49.632,25.9306667 49.056,26.272 C48.48,26.6133333 48.0346667,27.0986667 47.72,27.728 C47.4053333,28.3573333 47.248,29.0933333 47.248,29.936 C47.248,30.7786667 47.4053333,31.5146667 47.72,32.144 C48.0346667,32.7733333 48.48,33.2586667 49.056,33.6 C49.632,33.9413333 50.2986667,34.112 51.056,34.112 Z M51.056,33.04 C50.256,33.04 49.64,32.776 49.208,32.248 C48.776,31.72 48.56,30.9493333 48.56,29.936 C48.56,28.9546667 48.7786667,28.1946667 49.216,27.656 C49.6533333,27.1173333 50.2666667,26.848 51.056,26.848 C51.8346667,26.848 52.4426667,27.1173333 52.88,27.656 C53.3173333,28.1946667 53.536,28.9546667 53.536,29.936 C53.536,30.9493333 53.3226667,31.72 52.896,32.248 C52.4693333,32.776 51.856,33.04 51.056,33.04 Z M58.176,37.456 L58.176,32.512 C58.4213333,33.024 58.7786667,33.4186667 59.248,33.696 C59.7173333,33.9733333 60.2666667,34.112 60.896,34.112 C61.6106667,34.112 62.2373333,33.9413333 62.776,33.6 C63.3146667,33.2586667 63.7333333,32.776 64.032,32.152 C64.3306667,31.528 64.48,30.8 64.48,29.968 C64.48,29.136 64.3306667,28.4026667 64.032,27.768 C63.7333333,27.1333333 63.312,26.64 62.768,26.288 C62.224,25.936 61.6,25.76 60.896,25.76 C60.2346667,25.76 59.6613333,25.912 59.176,26.216 C58.6906667,26.52 58.336,26.9493333 58.112,27.504 L58.112,27.504 L57.984,25.952 L56.752,25.952 C56.8373333,26.624 56.88,27.376 56.88,28.208 L56.88,28.208 L56.88,37.456 L58.176,37.456 Z M60.656,33.04 C59.856,33.04 59.2426667,32.7706667 58.816,32.232 C58.3893333,31.6933333 58.176,30.928 58.176,29.936 C58.176,28.944 58.3893333,28.1813333 58.816,27.648 C59.2426667,27.1146667 59.856,26.848 60.656,26.848 C61.4346667,26.848 62.0426667,27.1226667 62.48,27.672 C62.9173333,28.2213333 63.136,28.9866667 63.136,29.968 C63.136,30.9493333 62.92,31.7066667 62.488,32.24 C62.056,32.7733333 61.4453333,33.04 60.656,33.04 Z M69.808,34.112 C70.5653333,34.112 71.232,33.9413333 71.808,33.6 C72.384,33.2586667 72.8293333,32.7733333 73.144,32.144 C73.4586667,31.5146667 73.616,30.7786667 73.616,29.936 C73.616,29.0933333 73.4586667,28.3573333 73.144,27.728 C72.8293333,27.0986667 72.384,26.6133333 71.808,26.272 C71.232,25.9306667 70.5653333,25.76 69.808,25.76 C69.0506667,25.76 68.384,25.9306667 67.808,26.272 C67.232,26.6133333 66.7866667,27.0986667 66.472,27.728 C66.1573333,28.3573333 66,29.0933333 66,29.936 C66,30.7786667 66.1573333,31.5146667 66.472,32.144 C66.7866667,32.7733333 67.232,33.2586667 67.808,33.6 C68.384,33.9413333 69.0506667,34.112 69.808,34.112 Z M69.808,33.04 C69.008,33.04 68.392,32.776 67.96,32.248 C67.528,31.72 67.312,30.9493333 67.312,29.936 C67.312,28.9546667 67.5306667,28.1946667 67.968,27.656 C68.4053333,27.1173333 69.0186667,26.848 69.808,26.848 C70.5866667,26.848 71.1946667,27.1173333 71.632,27.656 C72.0693333,28.1946667 72.288,28.9546667 72.288,29.936 C72.288,30.9493333 72.0746667,31.72 71.648,32.248 C71.2213333,32.776 70.608,33.04 69.808,33.04 Z M78.352,34.112 C79.3226667,34.112 80.0906667,33.904 80.656,33.488 C81.2213333,33.072 81.504,32.5173333 81.504,31.824 C81.504,31.248 81.3226667,30.7813333 80.96,30.424 C80.5973333,30.0666667 80.0426667,29.8026667 79.296,29.632 L79.296,29.632 L77.936,29.296 C77.4986667,29.1893333 77.1813333,29.04 76.984,28.848 C76.7866667,28.656 76.688,28.3946667 76.688,28.064 C76.688,27.6693333 76.8453333,27.3626667 77.16,27.144 C77.4746667,26.9253333 77.92,26.816 78.496,26.816 C79.36,26.816 80.1706667,27.1306667 80.928,27.76 L80.928,27.76 L81.36,26.816 C81.0186667,26.4746667 80.5973333,26.2133333 80.096,26.032 C79.5946667,25.8506667 79.0613333,25.76 78.496,25.76 C77.568,25.76 76.8213333,25.9813333 76.256,26.424 C75.6906667,26.8666667 75.408,27.44 75.408,28.144 C75.408,28.6773333 75.592,29.136 75.96,29.52 C76.328,29.904 76.848,30.1706667 77.52,30.32 L77.52,30.32 L78.88,30.64 C79.3706667,30.7466667 79.7226667,30.896 79.936,31.088 C80.1493333,31.28 80.256,31.536 80.256,31.856 C80.256,32.2506667 80.0986667,32.552 79.784,32.76 C79.4693333,32.968 79.008,33.072 78.4,33.072 C77.8453333,33.072 77.344,32.9973333 76.896,32.848 C76.448,32.6986667 76.0053333,32.4533333 75.568,32.112 L75.568,32.112 L75.136,33.072 C75.9253333,33.7653333 76.9973333,34.112 78.352,34.112 Z M86.656,34.112 C87.2853333,34.112 87.8373333,33.976 88.312,33.704 C88.7866667,33.432 89.1413333,33.0453333 89.376,32.544 L89.376,32.544 L89.376,34 L90.656,34 L90.656,25.952 L89.376,25.952 L89.376,27.344 C89.1306667,26.8426667 88.7733333,26.4533333 88.304,26.176 C87.8346667,25.8986667 87.2853333,25.76 86.656,25.76 C85.952,25.76 85.3306667,25.936 84.792,26.288 C84.2533333,26.64 83.8346667,27.1333333 83.536,27.768 C83.2373333,28.4026667 83.088,29.136 83.088,29.968 C83.088,30.8 83.2346667,31.528 83.528,32.152 C83.8213333,32.776 84.2373333,33.2586667 84.776,33.6 C85.3146667,33.9413333 85.9413333,34.112 86.656,34.112 Z M86.912,33.04 C86.112,33.04 85.4933333,32.7733333 85.056,32.24 C84.6186667,31.7066667 84.4,30.9493333 84.4,29.968 C84.4,28.9866667 84.6213333,28.2213333 85.064,27.672 C85.5066667,27.1226667 86.1226667,26.848 86.912,26.848 C87.7013333,26.848 88.3093333,27.1146667 88.736,27.648 C89.1626667,28.1813333 89.376,28.944 89.376,29.936 C89.376,30.928 89.1626667,31.6933333 88.736,32.232 C88.3093333,32.7706667 87.7013333,33.04 86.912,33.04 Z M94.464,34 L94.464,22.224 L93.168,22.224 L93.168,34 L94.464,34 Z" id="Proposal" fill="#2C2E32" fill-rule="nonzero"></path>
                    </g>
                </g>
                <g id="2" transform="translate(0.000000, 149.000000)">
                    <rect id="Rectangle" stroke="#2C2E32" stroke-width="2" fill="#FFFFFF" x="1" y="1" width="277" height="53" rx="16"></rect>
                    <path d="M21.108,34 L21.108,28.992 L24.34,28.992 C25.5026667,28.992 26.4146667,28.7066667 27.076,28.136 C27.7373333,27.5653333 28.068,26.784 28.068,25.792 C28.068,24.8 27.74,24.0213333 27.084,23.456 C26.428,22.8906667 25.5133333,22.608 24.34,22.608 L24.34,22.608 L19.796,22.608 L19.796,34 L21.108,34 Z M24.228,27.904 L21.108,27.904 L21.108,23.696 L24.228,23.696 C25.0706667,23.696 25.7053333,23.8746667 26.132,24.232 C26.5586667,24.5893333 26.772,25.1093333 26.772,25.792 C26.772,26.4746667 26.5586667,26.9973333 26.132,27.36 C25.7053333,27.7226667 25.0706667,27.904 24.228,27.904 L24.228,27.904 Z M31.428,34 L31.412,25.6 L35.14,34 L36.068,34 L39.764,25.536 L39.764,34 L40.98,34 L40.98,22.608 L39.892,22.608 L35.62,32.432 L31.3,22.608 L30.212,22.608 L30.212,34 L31.428,34 Z M47.412,34.128 C48.2653333,34.128 49.0093333,33.9946667 49.644,33.728 C50.2786667,33.4613333 50.7666667,33.0853333 51.108,32.6 C51.4493333,32.1146667 51.62,31.552 51.62,30.912 C51.62,30.2506667 51.4333333,29.72 51.06,29.32 C50.6866667,28.92 50.22,28.6213333 49.66,28.424 C49.1,28.2266667 48.3293333,28.0106667 47.348,27.776 C46.4413333,27.5626667 45.7693333,27.312 45.332,27.024 C44.8946667,26.736 44.676,26.304 44.676,25.728 C44.676,25.0666667 44.9266667,24.5466667 45.428,24.168 C45.9293333,23.7893333 46.6226667,23.6 47.508,23.6 C48.1586667,23.6 48.7586667,23.7066667 49.308,23.92 C49.8573333,24.1333333 50.3986667,24.4693333 50.932,24.928 L50.932,24.928 L51.444,23.92 C50.9746667,23.4506667 50.3986667,23.0933333 49.716,22.848 C49.0333333,22.6026667 48.2973333,22.48 47.508,22.48 C46.676,22.48 45.948,22.6186667 45.324,22.896 C44.7,23.1733333 44.2173333,23.56 43.876,24.056 C43.5346667,24.552 43.364,25.1253333 43.364,25.776 C43.364,26.4586667 43.54,27.0106667 43.892,27.432 C44.244,27.8533333 44.7026667,28.176 45.268,28.4 C45.8333333,28.624 46.5533333,28.832 47.428,29.024 C48.0786667,29.1733333 48.5986667,29.3173333 48.988,29.456 C49.3773333,29.5946667 49.692,29.784 49.932,30.024 C50.172,30.264 50.292,30.576 50.292,30.96 C50.292,31.6106667 50.044,32.1146667 49.548,32.472 C49.052,32.8293333 48.3453333,33.008 47.428,33.008 C46.6493333,33.008 45.9666667,32.9066667 45.38,32.704 C44.7933333,32.5013333 44.2173333,32.16 43.652,31.68 L43.652,31.68 L43.156,32.688 C44.212,33.648 45.6306667,34.128 47.412,34.128 Z M59.252,34 L59.252,28.992 L62.484,28.992 C63.6466667,28.992 64.5586667,28.7066667 65.22,28.136 C65.8813333,27.5653333 66.212,26.784 66.212,25.792 C66.212,24.8 65.884,24.0213333 65.228,23.456 C64.572,22.8906667 63.6573333,22.608 62.484,22.608 L62.484,22.608 L57.94,22.608 L57.94,34 L59.252,34 Z M62.372,27.904 L59.252,27.904 L59.252,23.696 L62.372,23.696 C63.2146667,23.696 63.8493333,23.8746667 64.276,24.232 C64.7026667,24.5893333 64.916,25.1093333 64.916,25.792 C64.916,26.4746667 64.7026667,26.9973333 64.276,27.36 C63.8493333,27.7226667 63.2146667,27.904 62.372,27.904 L62.372,27.904 Z M69.492,34 L69.492,22.224 L68.196,22.224 L68.196,34 L69.492,34 Z M75.092,34.112 C75.7213333,34.112 76.2733333,33.976 76.748,33.704 C77.2226667,33.432 77.5773333,33.0453333 77.812,32.544 L77.812,32.544 L77.812,34 L79.092,34 L79.092,25.952 L77.812,25.952 L77.812,27.344 C77.5666667,26.8426667 77.2093333,26.4533333 76.74,26.176 C76.2706667,25.8986667 75.7213333,25.76 75.092,25.76 C74.388,25.76 73.7666667,25.936 73.228,26.288 C72.6893333,26.64 72.2706667,27.1333333 71.972,27.768 C71.6733333,28.4026667 71.524,29.136 71.524,29.968 C71.524,30.8 71.6706667,31.528 71.964,32.152 C72.2573333,32.776 72.6733333,33.2586667 73.212,33.6 C73.7506667,33.9413333 74.3773333,34.112 75.092,34.112 Z M75.348,33.04 C74.548,33.04 73.9293333,32.7733333 73.492,32.24 C73.0546667,31.7066667 72.836,30.9493333 72.836,29.968 C72.836,28.9866667 73.0573333,28.2213333 73.5,27.672 C73.9426667,27.1226667 74.5586667,26.848 75.348,26.848 C76.1373333,26.848 76.7453333,27.1146667 77.172,27.648 C77.5986667,28.1813333 77.812,28.944 77.812,29.936 C77.812,30.928 77.5986667,31.6933333 77.172,32.232 C76.7453333,32.7706667 76.1373333,33.04 75.348,33.04 Z M82.9,34 L82.9,29.392 C82.9,28.6133333 83.124,27.9946667 83.572,27.536 C84.02,27.0773333 84.6173333,26.848 85.364,26.848 C86.004,26.848 86.4733333,27.0213333 86.772,27.368 C87.0706667,27.7146667 87.22,28.2613333 87.22,29.008 L87.22,29.008 L87.22,34 L88.516,34 L88.516,28.944 C88.516,26.8213333 87.5506667,25.76 85.62,25.76 C84.9906667,25.76 84.4306667,25.9013333 83.94,26.184 C83.4493333,26.4666667 83.0813333,26.8693333 82.836,27.392 L82.836,27.392 L82.708,25.952 L81.476,25.952 C81.5613333,26.624 81.604,27.376 81.604,28.208 L81.604,28.208 L81.604,34 L82.9,34 Z M104.068,34.144 L104.772,33.248 C103.833333,32.8213333 103.086667,32.304 102.532,31.696 C102.894667,31.12 103.177333,30.4613333 103.38,29.72 C103.582667,28.9786667 103.694667,28.176 103.716,27.312 L103.716,27.312 L102.564,27.312 C102.532,28.688 102.265333,29.8613333 101.764,30.832 L101.764,30.832 L99.076,27.808 C99.94,27.2533333 100.542667,26.752 100.884,26.304 C101.225333,25.856 101.396,25.3493333 101.396,24.784 C101.396,24.08 101.166667,23.5226667 100.708,23.112 C100.249333,22.7013333 99.6253333,22.496 98.836,22.496 C97.9933333,22.496 97.316,22.7226667 96.804,23.176 C96.292,23.6293333 96.036,24.2293333 96.036,24.976 C96.036,25.392 96.1346667,25.7946667 96.332,26.184 C96.5293333,26.5733333 96.8786667,27.056 97.38,27.632 C96.452,28.1866667 95.78,28.7386667 95.364,29.288 C94.948,29.8373333 94.74,30.4533333 94.74,31.136 C94.74,31.7226667 94.892,32.24 95.196,32.688 C95.5,33.136 95.9293333,33.4853333 96.484,33.736 C97.0386667,33.9866667 97.6786667,34.112 98.404,34.112 C99.076,34.112 99.7,33.984 100.276,33.728 C100.852,33.472 101.369333,33.104 101.828,32.624 C102.436,33.232 103.182667,33.7386667 104.068,34.144 L104.068,34.144 Z M98.388,27.024 C97.9506667,26.5226667 97.6573333,26.1333333 97.508,25.856 C97.3586667,25.5786667 97.284,25.2853333 97.284,24.976 C97.284,24.528 97.428,24.168 97.716,23.896 C98.004,23.624 98.3826667,23.488 98.852,23.488 C99.268,23.488 99.604,23.6133333 99.86,23.864 C100.116,24.1146667 100.244,24.4426667 100.244,24.848 C100.244,25.2213333 100.110667,25.568 99.844,25.888 C99.5773333,26.208 99.092,26.5866667 98.388,27.024 Z M98.436,33.056 C97.7,33.056 97.1133333,32.88 96.676,32.528 C96.2386667,32.176 96.02,31.7013333 96.02,31.104 C96.02,30.592 96.1746667,30.1306667 96.484,29.72 C96.7933333,29.3093333 97.3213333,28.8746667 98.068,28.416 L98.068,28.416 L101.108,31.824 C100.372,32.6453333 99.4813333,33.056 98.436,33.056 Z M112.916,34.112 C113.332,34.112 113.705333,34.0586667 114.036,33.952 L114.036,33.952 L114.036,32.848 C113.758667,32.944 113.470667,32.992 113.172,32.992 C112.724,32.992 112.377333,32.872 112.132,32.632 C111.886667,32.392 111.764,31.9733333 111.764,31.376 L111.764,31.376 L111.764,26.976 L114.068,26.976 L114.068,25.952 L111.764,25.952 L111.764,23.424 L110.468,23.888 L110.468,25.952 L108.9,25.952 L108.9,26.976 L110.468,26.976 L110.468,31.552 C110.468,32.3946667 110.684,33.032 111.116,33.464 C111.548,33.896 112.148,34.112 112.916,34.112 Z M119.188,34.112 C119.764,34.112 120.326667,34.016 120.876,33.824 C121.425333,33.632 121.876,33.3706667 122.228,33.04 L122.228,33.04 L121.796,32.096 C121.006667,32.7253333 120.142667,33.04 119.204,33.04 C118.318667,33.04 117.644,32.7786667 117.18,32.256 C116.716,31.7333333 116.478667,30.96 116.468,29.936 L116.468,29.936 L122.372,29.936 L122.372,29.696 C122.372,28.4693333 122.068,27.5066667 121.46,26.808 C120.852,26.1093333 120.014667,25.76 118.948,25.76 C118.212,25.76 117.556,25.936 116.98,26.288 C116.404,26.64 115.956,27.1333333 115.636,27.768 C115.316,28.4026667 115.156,29.1306667 115.156,29.952 C115.156,31.2426667 115.513333,32.2586667 116.228,33 C116.942667,33.7413333 117.929333,34.112 119.188,34.112 Z M121.204,29.088 L116.516,29.088 C116.633333,28.352 116.902667,27.7813333 117.324,27.376 C117.745333,26.9706667 118.292,26.768 118.964,26.768 C119.636,26.768 120.161333,26.9653333 120.54,27.36 C120.918667,27.7546667 121.14,28.3306667 121.204,29.088 L121.204,29.088 Z M127.716,34.112 C128.270667,34.112 128.806667,34.0186667 129.324,33.832 C129.841333,33.6453333 130.270667,33.392 130.612,33.072 L130.612,33.072 L130.18,32.112 C129.774667,32.432 129.382667,32.6666667 129.004,32.816 C128.625333,32.9653333 128.238667,33.04 127.844,33.04 C127.012,33.04 126.364,32.7706667 125.9,32.232 C125.436,31.6933333 125.204,30.9386667 125.204,29.968 C125.204,28.9866667 125.438667,28.2213333 125.908,27.672 C126.377333,27.1226667 127.022667,26.848 127.844,26.848 C128.238667,26.848 128.625333,26.9226667 129.004,27.072 C129.382667,27.2213333 129.774667,27.456 130.18,27.776 L130.18,27.776 L130.612,26.816 C130.281333,26.4853333 129.862667,26.2266667 129.356,26.04 C128.849333,25.8533333 128.324,25.76 127.78,25.76 C126.990667,25.76 126.3,25.936 125.708,26.288 C125.116,26.64 124.66,27.1333333 124.34,27.768 C124.02,28.4026667 123.86,29.136 123.86,29.968 C123.86,30.8 124.017333,31.528 124.332,32.152 C124.646667,32.776 125.094667,33.2586667 125.676,33.6 C126.257333,33.9413333 126.937333,34.112 127.716,34.112 Z M133.556,34 L133.556,29.392 C133.556,28.6133333 133.78,27.9946667 134.228,27.536 C134.676,27.0773333 135.273333,26.848 136.02,26.848 C136.66,26.848 137.129333,27.0213333 137.428,27.368 C137.726667,27.7146667 137.876,28.2613333 137.876,29.008 L137.876,29.008 L137.876,34 L139.172,34 L139.172,28.944 C139.172,26.8213333 138.206667,25.76 136.276,25.76 C135.668,25.76 135.126667,25.888 134.652,26.144 C134.177333,26.4 133.812,26.7733333 133.556,27.264 L133.556,27.264 L133.556,22.224 L132.26,22.224 L132.26,34 L133.556,34 Z M142.916,34 L142.916,29.392 C142.916,28.6133333 143.14,27.9946667 143.588,27.536 C144.036,27.0773333 144.633333,26.848 145.38,26.848 C146.02,26.848 146.489333,27.0213333 146.788,27.368 C147.086667,27.7146667 147.236,28.2613333 147.236,29.008 L147.236,29.008 L147.236,34 L148.532,34 L148.532,28.944 C148.532,26.8213333 147.566667,25.76 145.636,25.76 C145.006667,25.76 144.446667,25.9013333 143.956,26.184 C143.465333,26.4666667 143.097333,26.8693333 142.852,27.392 L142.852,27.392 L142.724,25.952 L141.492,25.952 C141.577333,26.624 141.62,27.376 141.62,28.208 L141.62,28.208 L141.62,34 L142.916,34 Z M152.436,24.016 L152.436,22.544 L150.852,22.544 L150.852,24.016 L152.436,24.016 Z M152.276,34 L152.276,25.952 L150.98,25.952 L150.98,34 L152.276,34 Z M158.164,34.112 C158.718667,34.112 159.254667,34.0186667 159.772,33.832 C160.289333,33.6453333 160.718667,33.392 161.06,33.072 L161.06,33.072 L160.628,32.112 C160.222667,32.432 159.830667,32.6666667 159.452,32.816 C159.073333,32.9653333 158.686667,33.04 158.292,33.04 C157.46,33.04 156.812,32.7706667 156.348,32.232 C155.884,31.6933333 155.652,30.9386667 155.652,29.968 C155.652,28.9866667 155.886667,28.2213333 156.356,27.672 C156.825333,27.1226667 157.470667,26.848 158.292,26.848 C158.686667,26.848 159.073333,26.9226667 159.452,27.072 C159.830667,27.2213333 160.222667,27.456 160.628,27.776 L160.628,27.776 L161.06,26.816 C160.729333,26.4853333 160.310667,26.2266667 159.804,26.04 C159.297333,25.8533333 158.772,25.76 158.228,25.76 C157.438667,25.76 156.748,25.936 156.156,26.288 C155.564,26.64 155.108,27.1333333 154.788,27.768 C154.468,28.4026667 154.308,29.136 154.308,29.968 C154.308,30.8 154.465333,31.528 154.78,32.152 C155.094667,32.776 155.542667,33.2586667 156.124,33.6 C156.705333,33.9413333 157.385333,34.112 158.164,34.112 Z M165.796,34.112 C166.425333,34.112 166.977333,33.976 167.452,33.704 C167.926667,33.432 168.281333,33.0453333 168.516,32.544 L168.516,32.544 L168.516,34 L169.796,34 L169.796,25.952 L168.516,25.952 L168.516,27.344 C168.270667,26.8426667 167.913333,26.4533333 167.444,26.176 C166.974667,25.8986667 166.425333,25.76 165.796,25.76 C165.092,25.76 164.470667,25.936 163.932,26.288 C163.393333,26.64 162.974667,27.1333333 162.676,27.768 C162.377333,28.4026667 162.228,29.136 162.228,29.968 C162.228,30.8 162.374667,31.528 162.668,32.152 C162.961333,32.776 163.377333,33.2586667 163.916,33.6 C164.454667,33.9413333 165.081333,34.112 165.796,34.112 Z M166.052,33.04 C165.252,33.04 164.633333,32.7733333 164.196,32.24 C163.758667,31.7066667 163.54,30.9493333 163.54,29.968 C163.54,28.9866667 163.761333,28.2213333 164.204,27.672 C164.646667,27.1226667 165.262667,26.848 166.052,26.848 C166.841333,26.848 167.449333,27.1146667 167.876,27.648 C168.302667,28.1813333 168.516,28.944 168.516,29.936 C168.516,30.928 168.302667,31.6933333 167.876,32.232 C167.449333,32.7706667 166.841333,33.04 166.052,33.04 Z M173.604,34 L173.604,22.224 L172.308,22.224 L172.308,34 L173.604,34 Z M183.38,34.112 C184.009333,34.112 184.561333,33.976 185.036,33.704 C185.510667,33.432 185.865333,33.0453333 186.1,32.544 L186.1,32.544 L186.1,34 L187.38,34 L187.38,22.224 L186.084,22.224 L186.084,27.312 C185.849333,26.8213333 185.497333,26.44 185.028,26.168 C184.558667,25.896 184.009333,25.76 183.38,25.76 C182.676,25.76 182.052,25.9306667 181.508,26.272 C180.964,26.6133333 180.545333,27.096 180.252,27.72 C179.958667,28.344 179.812,29.072 179.812,29.904 C179.812,30.736 179.961333,31.4693333 180.26,32.104 C180.558667,32.7386667 180.977333,33.232 181.516,33.584 C182.054667,33.936 182.676,34.112 183.38,34.112 Z M183.636,33.04 C182.846667,33.04 182.230667,32.7653333 181.788,32.216 C181.345333,31.6666667 181.124,30.896 181.124,29.904 C181.124,28.9333333 181.345333,28.1813333 181.788,27.648 C182.230667,27.1146667 182.846667,26.848 183.636,26.848 C184.425333,26.848 185.033333,27.1173333 185.46,27.656 C185.886667,28.1946667 186.1,28.9546667 186.1,29.936 C186.1,30.928 185.886667,31.6933333 185.46,32.232 C185.033333,32.7706667 184.425333,33.04 183.636,33.04 Z M193.22,34.112 C193.977333,34.112 194.644,33.9413333 195.22,33.6 C195.796,33.2586667 196.241333,32.7733333 196.556,32.144 C196.870667,31.5146667 197.028,30.7786667 197.028,29.936 C197.028,29.0933333 196.870667,28.3573333 196.556,27.728 C196.241333,27.0986667 195.796,26.6133333 195.22,26.272 C194.644,25.9306667 193.977333,25.76 193.22,25.76 C192.462667,25.76 191.796,25.9306667 191.22,26.272 C190.644,26.6133333 190.198667,27.0986667 189.884,27.728 C189.569333,28.3573333 189.412,29.0933333 189.412,29.936 C189.412,30.7786667 189.569333,31.5146667 189.884,32.144 C190.198667,32.7733333 190.644,33.2586667 191.22,33.6 C191.796,33.9413333 192.462667,34.112 193.22,34.112 Z M193.22,33.04 C192.42,33.04 191.804,32.776 191.372,32.248 C190.94,31.72 190.724,30.9493333 190.724,29.936 C190.724,28.9546667 190.942667,28.1946667 191.38,27.656 C191.817333,27.1173333 192.430667,26.848 193.22,26.848 C193.998667,26.848 194.606667,27.1173333 195.044,27.656 C195.481333,28.1946667 195.7,28.9546667 195.7,29.936 C195.7,30.9493333 195.486667,31.72 195.06,32.248 C194.633333,32.776 194.02,33.04 193.22,33.04 Z M202.42,34.112 C202.974667,34.112 203.510667,34.0186667 204.028,33.832 C204.545333,33.6453333 204.974667,33.392 205.316,33.072 L205.316,33.072 L204.884,32.112 C204.478667,32.432 204.086667,32.6666667 203.708,32.816 C203.329333,32.9653333 202.942667,33.04 202.548,33.04 C201.716,33.04 201.068,32.7706667 200.604,32.232 C200.14,31.6933333 199.908,30.9386667 199.908,29.968 C199.908,28.9866667 200.142667,28.2213333 200.612,27.672 C201.081333,27.1226667 201.726667,26.848 202.548,26.848 C202.942667,26.848 203.329333,26.9226667 203.708,27.072 C204.086667,27.2213333 204.478667,27.456 204.884,27.776 L204.884,27.776 L205.316,26.816 C204.985333,26.4853333 204.566667,26.2266667 204.06,26.04 C203.553333,25.8533333 203.028,25.76 202.484,25.76 C201.694667,25.76 201.004,25.936 200.412,26.288 C199.82,26.64 199.364,27.1333333 199.044,27.768 C198.724,28.4026667 198.564,29.136 198.564,29.968 C198.564,30.8 198.721333,31.528 199.036,32.152 C199.350667,32.776 199.798667,33.2586667 200.38,33.6 C200.961333,33.9413333 201.641333,34.112 202.42,34.112 Z M209.812,34.112 C210.388,34.112 210.905333,33.984 211.364,33.728 C211.822667,33.472 212.18,33.0986667 212.436,32.608 L212.436,32.608 L212.436,34 L213.7,34 L213.7,25.952 L212.404,25.952 L212.404,30.496 C212.404,31.2533333 212.185333,31.864 211.748,32.328 C211.310667,32.792 210.734667,33.024 210.02,33.024 C209.412,33.024 208.958667,32.8533333 208.66,32.512 C208.361333,32.1706667 208.212,31.6373333 208.212,30.912 L208.212,30.912 L208.212,25.952 L206.916,25.952 L206.916,30.944 C206.916,31.9893333 207.161333,32.7786667 207.652,33.312 C208.142667,33.8453333 208.862667,34.112 209.812,34.112 Z M217.492,34 L217.492,29.408 C217.492,28.6186667 217.686667,27.9946667 218.076,27.536 C218.465333,27.0773333 219.001333,26.848 219.684,26.848 C220.270667,26.848 220.697333,27.0213333 220.964,27.368 C221.230667,27.7146667 221.364,28.2613333 221.364,29.008 L221.364,29.008 L221.364,34 L222.66,34 L222.66,29.408 C222.66,28.6186667 222.852,27.9946667 223.236,27.536 C223.62,27.0773333 224.153333,26.848 224.836,26.848 C225.422667,26.848 225.846667,27.0186667 226.108,27.36 C226.369333,27.7013333 226.5,28.2506667 226.5,29.008 L226.5,29.008 L226.5,34 L227.796,34 L227.796,28.944 C227.796,26.8213333 226.905333,25.76 225.124,25.76 C224.526667,25.76 223.990667,25.9013333 223.516,26.184 C223.041333,26.4666667 222.681333,26.848 222.436,27.328 C222.244,26.7946667 221.945333,26.4 221.54,26.144 C221.134667,25.888 220.612,25.76 219.972,25.76 C219.385333,25.76 218.870667,25.8986667 218.428,26.176 C217.985333,26.4533333 217.652,26.848 217.428,27.36 L217.428,27.36 L217.3,25.952 L216.068,25.952 C216.153333,26.624 216.196,27.376 216.196,28.208 L216.196,28.208 L216.196,34 L217.492,34 Z M233.812,34.112 C234.388,34.112 234.950667,34.016 235.5,33.824 C236.049333,33.632 236.5,33.3706667 236.852,33.04 L236.852,33.04 L236.42,32.096 C235.630667,32.7253333 234.766667,33.04 233.828,33.04 C232.942667,33.04 232.268,32.7786667 231.804,32.256 C231.34,31.7333333 231.102667,30.96 231.092,29.936 L231.092,29.936 L236.996,29.936 L236.996,29.696 C236.996,28.4693333 236.692,27.5066667 236.084,26.808 C235.476,26.1093333 234.638667,25.76 233.572,25.76 C232.836,25.76 232.18,25.936 231.604,26.288 C231.028,26.64 230.58,27.1333333 230.26,27.768 C229.94,28.4026667 229.78,29.1306667 229.78,29.952 C229.78,31.2426667 230.137333,32.2586667 230.852,33 C231.566667,33.7413333 232.553333,34.112 233.812,34.112 Z M235.828,29.088 L231.14,29.088 C231.257333,28.352 231.526667,27.7813333 231.948,27.376 C232.369333,26.9706667 232.916,26.768 233.588,26.768 C234.26,26.768 234.785333,26.9653333 235.164,27.36 C235.542667,27.7546667 235.764,28.3306667 235.828,29.088 L235.828,29.088 Z M240.26,34 L240.26,29.392 C240.26,28.6133333 240.484,27.9946667 240.932,27.536 C241.38,27.0773333 241.977333,26.848 242.724,26.848 C243.364,26.848 243.833333,27.0213333 244.132,27.368 C244.430667,27.7146667 244.58,28.2613333 244.58,29.008 L244.58,29.008 L244.58,34 L245.876,34 L245.876,28.944 C245.876,26.8213333 244.910667,25.76 242.98,25.76 C242.350667,25.76 241.790667,25.9013333 241.3,26.184 C240.809333,26.4666667 240.441333,26.8693333 240.196,27.392 L240.196,27.392 L240.068,25.952 L238.836,25.952 C238.921333,26.624 238.964,27.376 238.964,28.208 L238.964,28.208 L238.964,34 L240.26,34 Z M251.204,34.112 C251.62,34.112 251.993333,34.0586667 252.324,33.952 L252.324,33.952 L252.324,32.848 C252.046667,32.944 251.758667,32.992 251.46,32.992 C251.012,32.992 250.665333,32.872 250.42,32.632 C250.174667,32.392 250.052,31.9733333 250.052,31.376 L250.052,31.376 L250.052,26.976 L252.356,26.976 L252.356,25.952 L250.052,25.952 L250.052,23.424 L248.756,23.888 L248.756,25.952 L247.188,25.952 L247.188,26.976 L248.756,26.976 L248.756,31.552 C248.756,32.3946667 248.972,33.032 249.404,33.464 C249.836,33.896 250.436,34.112 251.204,34.112 Z M256.644,34.112 C257.614667,34.112 258.382667,33.904 258.948,33.488 C259.513333,33.072 259.796,32.5173333 259.796,31.824 C259.796,31.248 259.614667,30.7813333 259.252,30.424 C258.889333,30.0666667 258.334667,29.8026667 257.588,29.632 L257.588,29.632 L256.228,29.296 C255.790667,29.1893333 255.473333,29.04 255.276,28.848 C255.078667,28.656 254.98,28.3946667 254.98,28.064 C254.98,27.6693333 255.137333,27.3626667 255.452,27.144 C255.766667,26.9253333 256.212,26.816 256.788,26.816 C257.652,26.816 258.462667,27.1306667 259.22,27.76 L259.22,27.76 L259.652,26.816 C259.310667,26.4746667 258.889333,26.2133333 258.388,26.032 C257.886667,25.8506667 257.353333,25.76 256.788,25.76 C255.86,25.76 255.113333,25.9813333 254.548,26.424 C253.982667,26.8666667 253.7,27.44 253.7,28.144 C253.7,28.6773333 253.884,29.136 254.252,29.52 C254.62,29.904 255.14,30.1706667 255.812,30.32 L255.812,30.32 L257.172,30.64 C257.662667,30.7466667 258.014667,30.896 258.228,31.088 C258.441333,31.28 258.548,31.536 258.548,31.856 C258.548,32.2506667 258.390667,32.552 258.076,32.76 C257.761333,32.968 257.3,33.072 256.692,33.072 C256.137333,33.072 255.636,32.9973333 255.188,32.848 C254.74,32.6986667 254.297333,32.4533333 253.86,32.112 L253.86,32.112 L253.428,33.072 C254.217333,33.7653333 255.289333,34.112 256.644,34.112 Z" id="PMSPlan&amp;technicaldocuments" fill="#2C2E32" fill-rule="nonzero"></path>
                </g>
                <g id="3" transform="translate(41.000000, 223.000000)">
                    <rect id="Rectangle" stroke="#2C2E32" stroke-width="2" fill="#FFFFFF" x="1" y="1" width="195" height="53" rx="16"></rect>
                    <path d="M20.068,34 L20.068,22.608 L18.756,22.608 L18.756,34 L20.068,34 Z M24.02,34 L24.02,29.408 C24.02,28.6186667 24.2146667,27.9946667 24.604,27.536 C24.9933333,27.0773333 25.5293333,26.848 26.212,26.848 C26.7986667,26.848 27.2253333,27.0213333 27.492,27.368 C27.7586667,27.7146667 27.892,28.2613333 27.892,29.008 L27.892,29.008 L27.892,34 L29.188,34 L29.188,29.408 C29.188,28.6186667 29.38,27.9946667 29.764,27.536 C30.148,27.0773333 30.6813333,26.848 31.364,26.848 C31.9506667,26.848 32.3746667,27.0186667 32.636,27.36 C32.8973333,27.7013333 33.028,28.2506667 33.028,29.008 L33.028,29.008 L33.028,34 L34.324,34 L34.324,28.944 C34.324,26.8213333 33.4333333,25.76 31.652,25.76 C31.0546667,25.76 30.5186667,25.9013333 30.044,26.184 C29.5693333,26.4666667 29.2093333,26.848 28.964,27.328 C28.772,26.7946667 28.4733333,26.4 28.068,26.144 C27.6626667,25.888 27.14,25.76 26.5,25.76 C25.9133333,25.76 25.3986667,25.8986667 24.956,26.176 C24.5133333,26.4533333 24.18,26.848 23.956,27.36 L23.956,27.36 L23.828,25.952 L22.596,25.952 C22.6813333,26.624 22.724,27.376 22.724,28.208 L22.724,28.208 L22.724,34 L24.02,34 Z M38.084,37.456 L38.084,32.512 C38.3293333,33.024 38.6866667,33.4186667 39.156,33.696 C39.6253333,33.9733333 40.1746667,34.112 40.804,34.112 C41.5186667,34.112 42.1453333,33.9413333 42.684,33.6 C43.2226667,33.2586667 43.6413333,32.776 43.94,32.152 C44.2386667,31.528 44.388,30.8 44.388,29.968 C44.388,29.136 44.2386667,28.4026667 43.94,27.768 C43.6413333,27.1333333 43.22,26.64 42.676,26.288 C42.132,25.936 41.508,25.76 40.804,25.76 C40.1426667,25.76 39.5693333,25.912 39.084,26.216 C38.5986667,26.52 38.244,26.9493333 38.02,27.504 L38.02,27.504 L37.892,25.952 L36.66,25.952 C36.7453333,26.624 36.788,27.376 36.788,28.208 L36.788,28.208 L36.788,37.456 L38.084,37.456 Z M40.564,33.04 C39.764,33.04 39.1506667,32.7706667 38.724,32.232 C38.2973333,31.6933333 38.084,30.928 38.084,29.936 C38.084,28.944 38.2973333,28.1813333 38.724,27.648 C39.1506667,27.1146667 39.764,26.848 40.564,26.848 C41.3426667,26.848 41.9506667,27.1226667 42.388,27.672 C42.8253333,28.2213333 43.044,28.9866667 43.044,29.968 C43.044,30.9493333 42.828,31.7066667 42.396,32.24 C41.964,32.7733333 41.3533333,33.04 40.564,33.04 Z M47.684,34 L47.684,22.224 L46.388,22.224 L46.388,34 L47.684,34 Z M53.748,34.112 C54.324,34.112 54.8866667,34.016 55.436,33.824 C55.9853333,33.632 56.436,33.3706667 56.788,33.04 L56.788,33.04 L56.356,32.096 C55.5666667,32.7253333 54.7026667,33.04 53.764,33.04 C52.8786667,33.04 52.204,32.7786667 51.74,32.256 C51.276,31.7333333 51.0386667,30.96 51.028,29.936 L51.028,29.936 L56.932,29.936 L56.932,29.696 C56.932,28.4693333 56.628,27.5066667 56.02,26.808 C55.412,26.1093333 54.5746667,25.76 53.508,25.76 C52.772,25.76 52.116,25.936 51.54,26.288 C50.964,26.64 50.516,27.1333333 50.196,27.768 C49.876,28.4026667 49.716,29.1306667 49.716,29.952 C49.716,31.2426667 50.0733333,32.2586667 50.788,33 C51.5026667,33.7413333 52.4893333,34.112 53.748,34.112 Z M55.764,29.088 L51.076,29.088 C51.1933333,28.352 51.4626667,27.7813333 51.884,27.376 C52.3053333,26.9706667 52.852,26.768 53.524,26.768 C54.196,26.768 54.7213333,26.9653333 55.1,27.36 C55.4786667,27.7546667 55.7,28.3306667 55.764,29.088 L55.764,29.088 Z M60.196,34 L60.196,29.408 C60.196,28.6186667 60.3906667,27.9946667 60.78,27.536 C61.1693333,27.0773333 61.7053333,26.848 62.388,26.848 C62.9746667,26.848 63.4013333,27.0213333 63.668,27.368 C63.9346667,27.7146667 64.068,28.2613333 64.068,29.008 L64.068,29.008 L64.068,34 L65.364,34 L65.364,29.408 C65.364,28.6186667 65.556,27.9946667 65.94,27.536 C66.324,27.0773333 66.8573333,26.848 67.54,26.848 C68.1266667,26.848 68.5506667,27.0186667 68.812,27.36 C69.0733333,27.7013333 69.204,28.2506667 69.204,29.008 L69.204,29.008 L69.204,34 L70.5,34 L70.5,28.944 C70.5,26.8213333 69.6093333,25.76 67.828,25.76 C67.2306667,25.76 66.6946667,25.9013333 66.22,26.184 C65.7453333,26.4666667 65.3853333,26.848 65.14,27.328 C64.948,26.7946667 64.6493333,26.4 64.244,26.144 C63.8386667,25.888 63.316,25.76 62.676,25.76 C62.0893333,25.76 61.5746667,25.8986667 61.132,26.176 C60.6893333,26.4533333 60.356,26.848 60.132,27.36 L60.132,27.36 L60.004,25.952 L58.772,25.952 C58.8573333,26.624 58.9,27.376 58.9,28.208 L58.9,28.208 L58.9,34 L60.196,34 Z M76.516,34.112 C77.092,34.112 77.6546667,34.016 78.204,33.824 C78.7533333,33.632 79.204,33.3706667 79.556,33.04 L79.556,33.04 L79.124,32.096 C78.3346667,32.7253333 77.4706667,33.04 76.532,33.04 C75.6466667,33.04 74.972,32.7786667 74.508,32.256 C74.044,31.7333333 73.8066667,30.96 73.796,29.936 L73.796,29.936 L79.7,29.936 L79.7,29.696 C79.7,28.4693333 79.396,27.5066667 78.788,26.808 C78.18,26.1093333 77.3426667,25.76 76.276,25.76 C75.54,25.76 74.884,25.936 74.308,26.288 C73.732,26.64 73.284,27.1333333 72.964,27.768 C72.644,28.4026667 72.484,29.1306667 72.484,29.952 C72.484,31.2426667 72.8413333,32.2586667 73.556,33 C74.2706667,33.7413333 75.2573333,34.112 76.516,34.112 Z M78.532,29.088 L73.844,29.088 C73.9613333,28.352 74.2306667,27.7813333 74.652,27.376 C75.0733333,26.9706667 75.62,26.768 76.292,26.768 C76.964,26.768 77.4893333,26.9653333 77.868,27.36 C78.2466667,27.7546667 78.468,28.3306667 78.532,29.088 L78.532,29.088 Z M82.964,34 L82.964,29.392 C82.964,28.6133333 83.188,27.9946667 83.636,27.536 C84.084,27.0773333 84.6813333,26.848 85.428,26.848 C86.068,26.848 86.5373333,27.0213333 86.836,27.368 C87.1346667,27.7146667 87.284,28.2613333 87.284,29.008 L87.284,29.008 L87.284,34 L88.58,34 L88.58,28.944 C88.58,26.8213333 87.6146667,25.76 85.684,25.76 C85.0546667,25.76 84.4946667,25.9013333 84.004,26.184 C83.5133333,26.4666667 83.1453333,26.8693333 82.9,27.392 L82.9,27.392 L82.772,25.952 L81.54,25.952 C81.6253333,26.624 81.668,27.376 81.668,28.208 L81.668,28.208 L81.668,34 L82.964,34 Z M93.908,34.112 C94.324,34.112 94.6973333,34.0586667 95.028,33.952 L95.028,33.952 L95.028,32.848 C94.7506667,32.944 94.4626667,32.992 94.164,32.992 C93.716,32.992 93.3693333,32.872 93.124,32.632 C92.8786667,32.392 92.756,31.9733333 92.756,31.376 L92.756,31.376 L92.756,26.976 L95.06,26.976 L95.06,25.952 L92.756,25.952 L92.756,23.424 L91.46,23.888 L91.46,25.952 L89.892,25.952 L89.892,26.976 L91.46,26.976 L91.46,31.552 C91.46,32.3946667 91.676,33.032 92.108,33.464 C92.54,33.896 93.14,34.112 93.908,34.112 Z M109.732,34.144 L110.436,33.248 C109.497333,32.8213333 108.750667,32.304 108.196,31.696 C108.558667,31.12 108.841333,30.4613333 109.044,29.72 C109.246667,28.9786667 109.358667,28.176 109.38,27.312 L109.38,27.312 L108.228,27.312 C108.196,28.688 107.929333,29.8613333 107.428,30.832 L107.428,30.832 L104.74,27.808 C105.604,27.2533333 106.206667,26.752 106.548,26.304 C106.889333,25.856 107.06,25.3493333 107.06,24.784 C107.06,24.08 106.830667,23.5226667 106.372,23.112 C105.913333,22.7013333 105.289333,22.496 104.5,22.496 C103.657333,22.496 102.98,22.7226667 102.468,23.176 C101.956,23.6293333 101.7,24.2293333 101.7,24.976 C101.7,25.392 101.798667,25.7946667 101.996,26.184 C102.193333,26.5733333 102.542667,27.056 103.044,27.632 C102.116,28.1866667 101.444,28.7386667 101.028,29.288 C100.612,29.8373333 100.404,30.4533333 100.404,31.136 C100.404,31.7226667 100.556,32.24 100.86,32.688 C101.164,33.136 101.593333,33.4853333 102.148,33.736 C102.702667,33.9866667 103.342667,34.112 104.068,34.112 C104.74,34.112 105.364,33.984 105.94,33.728 C106.516,33.472 107.033333,33.104 107.492,32.624 C108.1,33.232 108.846667,33.7386667 109.732,34.144 L109.732,34.144 Z M104.052,27.024 C103.614667,26.5226667 103.321333,26.1333333 103.172,25.856 C103.022667,25.5786667 102.948,25.2853333 102.948,24.976 C102.948,24.528 103.092,24.168 103.38,23.896 C103.668,23.624 104.046667,23.488 104.516,23.488 C104.932,23.488 105.268,23.6133333 105.524,23.864 C105.78,24.1146667 105.908,24.4426667 105.908,24.848 C105.908,25.2213333 105.774667,25.568 105.508,25.888 C105.241333,26.208 104.756,26.5866667 104.052,27.024 Z M104.1,33.056 C103.364,33.056 102.777333,32.88 102.34,32.528 C101.902667,32.176 101.684,31.7013333 101.684,31.104 C101.684,30.592 101.838667,30.1306667 102.148,29.72 C102.457333,29.3093333 102.985333,28.8746667 103.732,28.416 L103.732,28.416 L106.772,31.824 C106.036,32.6453333 105.145333,33.056 104.1,33.056 Z M116.996,34 L116.996,29.408 C116.996,28.6186667 117.190667,27.9946667 117.58,27.536 C117.969333,27.0773333 118.505333,26.848 119.188,26.848 C119.774667,26.848 120.201333,27.0213333 120.468,27.368 C120.734667,27.7146667 120.868,28.2613333 120.868,29.008 L120.868,29.008 L120.868,34 L122.164,34 L122.164,29.408 C122.164,28.6186667 122.356,27.9946667 122.74,27.536 C123.124,27.0773333 123.657333,26.848 124.34,26.848 C124.926667,26.848 125.350667,27.0186667 125.612,27.36 C125.873333,27.7013333 126.004,28.2506667 126.004,29.008 L126.004,29.008 L126.004,34 L127.3,34 L127.3,28.944 C127.3,26.8213333 126.409333,25.76 124.628,25.76 C124.030667,25.76 123.494667,25.9013333 123.02,26.184 C122.545333,26.4666667 122.185333,26.848 121.94,27.328 C121.748,26.7946667 121.449333,26.4 121.044,26.144 C120.638667,25.888 120.116,25.76 119.476,25.76 C118.889333,25.76 118.374667,25.8986667 117.932,26.176 C117.489333,26.4533333 117.156,26.848 116.932,27.36 L116.932,27.36 L116.804,25.952 L115.572,25.952 C115.657333,26.624 115.7,27.376 115.7,28.208 L115.7,28.208 L115.7,34 L116.996,34 Z M132.852,34.112 C133.481333,34.112 134.033333,33.976 134.508,33.704 C134.982667,33.432 135.337333,33.0453333 135.572,32.544 L135.572,32.544 L135.572,34 L136.852,34 L136.852,25.952 L135.572,25.952 L135.572,27.344 C135.326667,26.8426667 134.969333,26.4533333 134.5,26.176 C134.030667,25.8986667 133.481333,25.76 132.852,25.76 C132.148,25.76 131.526667,25.936 130.988,26.288 C130.449333,26.64 130.030667,27.1333333 129.732,27.768 C129.433333,28.4026667 129.284,29.136 129.284,29.968 C129.284,30.8 129.430667,31.528 129.724,32.152 C130.017333,32.776 130.433333,33.2586667 130.972,33.6 C131.510667,33.9413333 132.137333,34.112 132.852,34.112 Z M133.108,33.04 C132.308,33.04 131.689333,32.7733333 131.252,32.24 C130.814667,31.7066667 130.596,30.9493333 130.596,29.968 C130.596,28.9866667 130.817333,28.2213333 131.26,27.672 C131.702667,27.1226667 132.318667,26.848 133.108,26.848 C133.897333,26.848 134.505333,27.1146667 134.932,27.648 C135.358667,28.1813333 135.572,28.944 135.572,29.936 C135.572,30.928 135.358667,31.6933333 134.932,32.232 C134.505333,32.7706667 133.897333,33.04 133.108,33.04 Z M140.82,24.016 L140.82,22.544 L139.236,22.544 L139.236,24.016 L140.82,24.016 Z M140.66,34 L140.66,25.952 L139.364,25.952 L139.364,34 L140.66,34 Z M144.468,34 L144.468,29.392 C144.468,28.6133333 144.692,27.9946667 145.14,27.536 C145.588,27.0773333 146.185333,26.848 146.932,26.848 C147.572,26.848 148.041333,27.0213333 148.34,27.368 C148.638667,27.7146667 148.788,28.2613333 148.788,29.008 L148.788,29.008 L148.788,34 L150.084,34 L150.084,28.944 C150.084,26.8213333 149.118667,25.76 147.188,25.76 C146.558667,25.76 145.998667,25.9013333 145.508,26.184 C145.017333,26.4666667 144.649333,26.8693333 144.404,27.392 L144.404,27.392 L144.276,25.952 L143.044,25.952 C143.129333,26.624 143.172,27.376 143.172,28.208 L143.172,28.208 L143.172,34 L144.468,34 Z M155.412,34.112 C155.828,34.112 156.201333,34.0586667 156.532,33.952 L156.532,33.952 L156.532,32.848 C156.254667,32.944 155.966667,32.992 155.668,32.992 C155.22,32.992 154.873333,32.872 154.628,32.632 C154.382667,32.392 154.26,31.9733333 154.26,31.376 L154.26,31.376 L154.26,26.976 L156.564,26.976 L156.564,25.952 L154.26,25.952 L154.26,23.424 L152.964,23.888 L152.964,25.952 L151.396,25.952 L151.396,26.976 L152.964,26.976 L152.964,31.552 C152.964,32.3946667 153.18,33.032 153.612,33.464 C154.044,33.896 154.644,34.112 155.412,34.112 Z M161.22,34.112 C161.849333,34.112 162.401333,33.976 162.876,33.704 C163.350667,33.432 163.705333,33.0453333 163.94,32.544 L163.94,32.544 L163.94,34 L165.22,34 L165.22,25.952 L163.94,25.952 L163.94,27.344 C163.694667,26.8426667 163.337333,26.4533333 162.868,26.176 C162.398667,25.8986667 161.849333,25.76 161.22,25.76 C160.516,25.76 159.894667,25.936 159.356,26.288 C158.817333,26.64 158.398667,27.1333333 158.1,27.768 C157.801333,28.4026667 157.652,29.136 157.652,29.968 C157.652,30.8 157.798667,31.528 158.092,32.152 C158.385333,32.776 158.801333,33.2586667 159.34,33.6 C159.878667,33.9413333 160.505333,34.112 161.22,34.112 Z M161.476,33.04 C160.676,33.04 160.057333,32.7733333 159.62,32.24 C159.182667,31.7066667 158.964,30.9493333 158.964,29.968 C158.964,28.9866667 159.185333,28.2213333 159.628,27.672 C160.070667,27.1226667 160.686667,26.848 161.476,26.848 C162.265333,26.848 162.873333,27.1146667 163.3,27.648 C163.726667,28.1813333 163.94,28.944 163.94,29.936 C163.94,30.928 163.726667,31.6933333 163.3,32.232 C162.873333,32.7706667 162.265333,33.04 161.476,33.04 Z M169.188,24.016 L169.188,22.544 L167.604,22.544 L167.604,24.016 L169.188,24.016 Z M169.028,34 L169.028,25.952 L167.732,25.952 L167.732,34 L169.028,34 Z M172.836,34 L172.836,29.392 C172.836,28.6133333 173.06,27.9946667 173.508,27.536 C173.956,27.0773333 174.553333,26.848 175.3,26.848 C175.94,26.848 176.409333,27.0213333 176.708,27.368 C177.006667,27.7146667 177.156,28.2613333 177.156,29.008 L177.156,29.008 L177.156,34 L178.452,34 L178.452,28.944 C178.452,26.8213333 177.486667,25.76 175.556,25.76 C174.926667,25.76 174.366667,25.9013333 173.876,26.184 C173.385333,26.4666667 173.017333,26.8693333 172.772,27.392 L172.772,27.392 L172.644,25.952 L171.412,25.952 C171.497333,26.624 171.54,27.376 171.54,28.208 L171.54,28.208 L171.54,34 L172.836,34 Z" id="Implement&amp;maintain" fill="#2C2E32" fill-rule="nonzero"></path>
                </g>
                <g id="4" transform="translate(60.000000, 297.000000)">
                    <rect id="Rectangle" fill="#E74B00" x="0" y="0" width="159" height="55" rx="16"></rect>
                    <path d="M56.52,34 L56.52,29.264 L58.584,29.264 C59.0106667,29.264 59.3573333,29.3333333 59.624,29.472 C59.8906667,29.6106667 60.088,29.856 60.216,30.208 L60.216,30.208 L61.672,34 L63.848,34 L62.456,30.352 C62.1573333,29.552 61.672,29.0826667 61,28.944 C61.736,28.72 62.304,28.344 62.704,27.816 C63.104,27.288 63.304,26.6453333 63.304,25.888 C63.304,24.832 62.968,24.0213333 62.296,23.456 C61.624,22.8906667 60.6426667,22.608 59.352,22.608 L59.352,22.608 L54.472,22.608 L54.472,34 L56.52,34 Z M59.064,27.664 L56.488,27.664 L56.488,24.208 L59.064,24.208 C59.8533333,24.208 60.432,24.3493333 60.8,24.632 C61.168,24.9146667 61.352,25.344 61.352,25.92 C61.352,26.5066667 61.1653333,26.944 60.792,27.232 C60.4186667,27.52 59.8426667,27.664 59.064,27.664 L59.064,27.664 Z M69.368,34.128 C69.944,34.128 70.512,34.0346667 71.072,33.848 C71.632,33.6613333 72.104,33.4133333 72.488,33.104 L72.488,33.104 L71.912,31.728 C71.1546667,32.304 70.3333333,32.592 69.448,32.592 C68.68,32.592 68.1013333,32.3866667 67.712,31.976 C67.3226667,31.5653333 67.1066667,30.928 67.064,30.064 L67.064,30.064 L72.632,30.064 L72.632,29.76 C72.632,28.5013333 72.3093333,27.512 71.664,26.792 C71.0186667,26.072 70.1413333,25.712 69.032,25.712 C68.2746667,25.712 67.5973333,25.8906667 67,26.248 C66.4026667,26.6053333 65.9386667,27.104 65.608,27.744 C65.2773333,28.384 65.112,29.1146667 65.112,29.936 C65.112,31.2373333 65.4906667,32.2613333 66.248,33.008 C67.0053333,33.7546667 68.0453333,34.128 69.368,34.128 Z M70.888,28.992 L67.128,28.992 C67.224,28.3946667 67.44,27.9386667 67.776,27.624 C68.112,27.3093333 68.5466667,27.152 69.08,27.152 C69.6133333,27.152 70.032,27.3066667 70.336,27.616 C70.64,27.9253333 70.824,28.384 70.888,28.992 L70.888,28.992 Z M76.312,37.456 L76.312,32.704 C76.5573333,33.152 76.9093333,33.5013333 77.368,33.752 C77.8266667,34.0026667 78.3493333,34.128 78.936,34.128 C79.64,34.128 80.2613333,33.9573333 80.8,33.616 C81.3386667,33.2746667 81.7573333,32.7893333 82.056,32.16 C82.3546667,31.5306667 82.504,30.8 82.504,29.968 C82.504,29.136 82.352,28.3973333 82.048,27.752 C81.744,27.1066667 81.3226667,26.6053333 80.784,26.248 C80.2453333,25.8906667 79.6293333,25.712 78.936,25.712 C78.3066667,25.712 77.752,25.8533333 77.272,26.136 C76.792,26.4186667 76.4453333,26.8106667 76.232,27.312 L76.232,27.312 L76.072,25.92 L74.2,25.92 C74.2853333,26.592 74.328,27.3546667 74.328,28.208 L74.328,28.208 L74.328,37.456 L76.312,37.456 Z M78.392,32.56 C77.72,32.56 77.2026667,32.3333333 76.84,31.88 C76.4773333,31.4266667 76.296,30.7786667 76.296,29.936 C76.296,29.0826667 76.4773333,28.4266667 76.84,27.968 C77.2026667,27.5093333 77.7253333,27.28 78.408,27.28 C79.0693333,27.28 79.5813333,27.5173333 79.944,27.992 C80.3066667,28.4666667 80.488,29.1253333 80.488,29.968 C80.488,30.8 80.3066667,31.44 79.944,31.888 C79.5813333,32.336 79.064,32.56 78.392,32.56 Z M87.912,34.128 C88.7226667,34.128 89.4373333,33.9573333 90.056,33.616 C90.6746667,33.2746667 91.152,32.7866667 91.488,32.152 C91.824,31.5173333 91.992,30.7733333 91.992,29.92 C91.992,29.0666667 91.824,28.3226667 91.488,27.688 C91.152,27.0533333 90.6746667,26.5653333 90.056,26.224 C89.4373333,25.8826667 88.7226667,25.712 87.912,25.712 C87.0906667,25.712 86.368,25.8826667 85.744,26.224 C85.12,26.5653333 84.64,27.0533333 84.304,27.688 C83.968,28.3226667 83.8,29.0666667 83.8,29.92 C83.8,30.7733333 83.968,31.5173333 84.304,32.152 C84.64,32.7866667 85.12,33.2746667 85.744,33.616 C86.368,33.9573333 87.0906667,34.128 87.912,34.128 Z M87.896,32.56 C87.224,32.56 86.7093333,32.3386667 86.352,31.896 C85.9946667,31.4533333 85.816,30.7946667 85.816,29.92 C85.816,29.056 85.9973333,28.3973333 86.36,27.944 C86.7226667,27.4906667 87.24,27.264 87.912,27.264 C88.5733333,27.264 89.0853333,27.4906667 89.448,27.944 C89.8106667,28.3973333 89.992,29.056 89.992,29.92 C89.992,30.7946667 89.8133333,31.4533333 89.456,31.896 C89.0986667,32.3386667 88.5786667,32.56 87.896,32.56 Z M95.704,34 L95.704,29.632 C95.704,28.9813333 95.8826667,28.4586667 96.24,28.064 C96.5973333,27.6693333 97.1173333,27.472 97.8,27.472 C98.1626667,27.472 98.5146667,27.5413333 98.856,27.68 L98.856,27.68 L98.872,25.856 C98.648,25.7706667 98.3813333,25.728 98.072,25.728 C97.5173333,25.728 97.0213333,25.8666667 96.584,26.144 C96.1466667,26.4213333 95.8266667,26.8213333 95.624,27.344 L95.624,27.344 L95.464,25.92 L93.592,25.92 C93.6773333,26.592 93.72,27.3546667 93.72,28.208 L93.72,28.208 L93.72,34 L95.704,34 Z M103.384,34.112 C103.885333,34.112 104.312,34.048 104.664,33.92 L104.664,33.92 L104.664,32.336 C104.376,32.4213333 104.109333,32.464 103.864,32.464 C102.978667,32.464 102.536,31.9893333 102.536,31.04 L102.536,31.04 L102.536,27.424 L104.68,27.424 L104.68,25.92 L102.536,25.92 L102.536,23.28 L100.536,23.952 L100.536,25.92 L98.984,25.92 L98.984,27.424 L100.536,27.424 L100.536,31.136 C100.536,32.096 100.781333,32.832 101.272,33.344 C101.762667,33.856 102.466667,34.112 103.384,34.112 Z M108.152,24.224 L108.152,22.256 L105.928,22.256 L105.928,24.224 L108.152,24.224 Z M108.04,34 L108.04,25.92 L106.056,25.92 L106.056,34 L108.04,34 Z M112.216,34 L112.216,29.424 C112.216,28.784 112.402667,28.2693333 112.776,27.88 C113.149333,27.4906667 113.64,27.296 114.248,27.296 C114.76,27.296 115.138667,27.4426667 115.384,27.736 C115.629333,28.0293333 115.752,28.496 115.752,29.136 L115.752,29.136 L115.752,34 L117.752,34 L117.752,29.04 C117.752,26.8213333 116.786667,25.712 114.856,25.712 C114.258667,25.712 113.722667,25.8453333 113.248,26.112 C112.773333,26.3786667 112.397333,26.7573333 112.12,27.248 L112.12,27.248 L111.976,25.92 L110.104,25.92 C110.189333,26.592 110.232,27.3546667 110.232,28.208 L110.232,28.208 L110.232,34 L112.216,34 Z M123.592,37.584 C124.936,37.584 125.954667,37.2586667 126.648,36.608 C127.341333,35.9573333 127.688,35.0026667 127.688,33.744 L127.688,33.744 L127.688,25.92 L125.704,25.92 L125.704,27.136 C125.458667,26.688 125.104,26.3386667 124.64,26.088 C124.176,25.8373333 123.645333,25.712 123.048,25.712 C122.344,25.712 121.717333,25.88 121.168,26.216 C120.618667,26.552 120.192,27.0266667 119.888,27.64 C119.584,28.2533333 119.432,28.9546667 119.432,29.744 C119.432,30.5333333 119.584,31.2346667 119.888,31.848 C120.192,32.4613333 120.618667,32.936 121.168,33.272 C121.717333,33.608 122.344,33.776 123.048,33.776 C123.634667,33.776 124.162667,33.64 124.632,33.368 C125.101333,33.096 125.458667,32.7413333 125.704,32.304 L125.704,32.304 L125.704,33.904 C125.704,35.3333333 124.984,36.048 123.544,36.048 C122.573333,36.048 121.597333,35.792 120.616,35.28 L120.616,35.28 L120.296,36.8 C121.245333,37.3226667 122.344,37.584 123.592,37.584 Z M123.576,32.208 C122.914667,32.208 122.394667,31.9893333 122.016,31.552 C121.637333,31.1146667 121.448,30.512 121.448,29.744 C121.448,28.976 121.637333,28.3733333 122.016,27.936 C122.394667,27.4986667 122.914667,27.28 123.576,27.28 C124.248,27.28 124.770667,27.4986667 125.144,27.936 C125.517333,28.3733333 125.704,28.976 125.704,29.744 C125.704,30.512 125.514667,31.1146667 125.136,31.552 C124.757333,31.9893333 124.237333,32.208 123.576,32.208 Z" id="Reporting" fill="#FFFFFF" fill-rule="nonzero"></path>
                    <path d="M27,17 L27,26.3076923 L28.1621098,26.3076923 L28.7,24.9707015 L28.7,18.6923077 L37.2,18.6923077 L37.2,23.7692308 L42.3,23.7692308 L42.3,37.3076923 L28.7,37.3076923 L28.7,32.4389992 L28.6551761,32.3943815 L27.6424802,31.3846154 L27,31.3846154 L27,39 L44,39 L44,22.5793269 L43.7609375,22.3149038 L38.6609375,17.2379808 L38.3953125,17 L27,17 Z M39,20 L41,22 L39,22 L39,20 Z M31.6234375,23 L29.6378902,27.7699676 L29.4519527,27.5910539 L24,27.5910539 L24,29.2268368 L28.7480473,29.2268368 L30.2587888,30.683706 L31.6765625,27.2747589 L34.2265625,33 L35.986326,28.7667728 L36.2253885,29.2268368 L37.8291005,29.2268368 C38.1342505,29.7314758 38.6931,30.0447283 39.3,30.0447283 C40.23925,30.0447283 41,29.3127154 41,28.4089453 C41,27.5051752 40.23925,26.7731624 39.3,26.7731624 C38.69225,26.7731624 38.1308505,27.0864148 37.8291005,27.5910539 L37.2746115,27.5910539 L35.813674,24.7795519 L34.1734375,28.7252403 L31.6234375,23 Z" id="Fill-1" fill="#FFFFFF"></path>
                </g>
            </g>
        </g>
    </g>
</svg>