<?xml version="1.0" encoding="UTF-8"?>
<svg width="184px" height="184px" viewBox="0 0 184 184" version="1.1" xmlns="http://www.w3.org/2000/svg" xmlns:xlink="http://www.w3.org/1999/xlink">
    <title>diamonds</title>
    <g id="diamonds" stroke="none" stroke-width="1" fill="none" fill-rule="evenodd" opacity="0.049999997">
        <g id="all" transform="translate(-21.213203, -21.213203)">
            <rect id="Rectangle" fill="#E1E1E1" transform="translate(44.213203, 44.213203) rotate(-315.000000) translate(-44.213203, -44.213203) " x="29.2132034" y="29.2132034" width="30" height="30"></rect>
            <rect id="Rectangle" fill="#595959" transform="translate(21.213203, 21.213203) rotate(-315.000000) translate(-21.213203, -21.213203) " x="6.21320344" y="6.21320344" width="30" height="30"></rect>
            <rect id="Rectangle" fill="#868686" transform="translate(67.213203, 21.213203) rotate(-315.000000) translate(-67.213203, -21.213203) " x="52.2132034" y="6.21320344" width="30" height="30"></rect>
            <rect id="Rectangle" fill="#595959" transform="translate(90.213203, 44.213203) rotate(-315.000000) translate(-90.213203, -44.213203) " x="75.2132034" y="29.2132034" width="30" height="30"></rect>
            <rect id="Rectangle" fill="#E1E1E1" transform="translate(67.213203, 67.213203) rotate(-315.000000) translate(-67.213203, -67.213203) " x="52.2132034" y="52.2132034" width="30" height="30"></rect>
            <rect id="Rectangle" fill="#E1E1E1" transform="translate(136.213203, 44.213203) rotate(-315.000000) translate(-136.213203, -44.213203) " x="121.213203" y="29.2132034" width="30" height="30"></rect>
            <rect id="Rectangle" fill="#BABABA" transform="translate(159.213203, 21.213203) rotate(-315.000000) translate(-159.213203, -21.213203) " x="144.213203" y="6.21320344" width="30" height="30"></rect>
            <rect id="Rectangle" fill="#E1E1E1" transform="translate(182.213203, 44.213203) rotate(-315.000000) translate(-182.213203, -44.213203) " x="167.213203" y="29.2132034" width="30" height="30"></rect>
            <rect id="Rectangle" fill="#868686" transform="translate(159.213203, 67.213203) rotate(-315.000000) translate(-159.213203, -67.213203) " x="144.213203" y="52.2132034" width="30" height="30"></rect>
            <rect id="Rectangle" fill="#BABABA" transform="translate(90.213203, 90.213203) rotate(-315.000000) translate(-90.213203, -90.213203) " x="75.2132034" y="75.2132034" width="30" height="30"></rect>
            <rect id="Rectangle" fill="#595959" transform="translate(113.213203, 67.213203) rotate(-315.000000) translate(-113.213203, -67.213203) " x="98.2132034" y="52.2132034" width="30" height="30"></rect>
            <rect id="Rectangle" fill="#BABABA" transform="translate(113.213203, 21.213203) rotate(-315.000000) translate(-113.213203, -21.213203) " x="98.2132034" y="6.21320344" width="30" height="30"></rect>
            <rect id="Rectangle" fill="#BABABA" transform="translate(136.213203, 90.213203) rotate(-315.000000) translate(-136.213203, -90.213203) " x="121.213203" y="75.2132034" width="30" height="30"></rect>
            <rect id="Rectangle" fill="#868686" transform="translate(113.213203, 113.213203) rotate(-315.000000) translate(-113.213203, -113.213203) " x="98.2132034" y="98.2132034" width="30" height="30"></rect>
            <rect id="Rectangle" fill="#868686" transform="translate(44.213203, 136.213203) rotate(-315.000000) translate(-44.213203, -136.213203) " x="29.2132034" y="121.213203" width="30" height="30"></rect>
            <rect id="Rectangle" fill="#E1E1E1" transform="translate(67.213203, 113.213203) rotate(-315.000000) translate(-67.213203, -113.213203) " x="52.2132034" y="98.2132034" width="30" height="30"></rect>
            <rect id="Rectangle" fill="#595959" transform="translate(90.213203, 136.213203) rotate(-315.000000) translate(-90.213203, -136.213203) " x="75.2132034" y="121.213203" width="30" height="30"></rect>
            <rect id="Rectangle" fill="#BABABA" transform="translate(67.213203, 159.213203) rotate(-315.000000) translate(-67.213203, -159.213203) " x="52.2132034" y="144.213203" width="30" height="30"></rect>
            <rect id="Rectangle" fill="#E1E1E1" transform="translate(182.213203, 90.426407) rotate(-315.000000) translate(-182.213203, -90.426407) " x="167.213203" y="75.4264069" width="30" height="30"></rect>
            <rect id="Rectangle" fill="#868686" transform="translate(159.213203, 113.426407) rotate(-315.000000) translate(-159.213203, -113.426407) " x="144.213203" y="98.4264069" width="30" height="30"></rect>
            <rect id="Rectangle" fill="#BABABA" transform="translate(136.213203, 136.426407) rotate(-315.000000) translate(-136.213203, -136.426407) " x="121.213203" y="121.426407" width="30" height="30"></rect>
            <rect id="Rectangle" fill="#BABABA" transform="translate(113.213203, 159.426407) rotate(-315.000000) translate(-113.213203, -159.426407) " x="98.2132034" y="144.426407" width="30" height="30"></rect>
            <rect id="Rectangle" fill="#E1E1E1" transform="translate(182.213203, 136.426407) rotate(-315.000000) translate(-182.213203, -136.426407) " x="167.213203" y="121.426407" width="30" height="30"></rect>
            <rect id="Rectangle" fill="#868686" transform="translate(159.213203, 159.426407) rotate(-315.000000) translate(-159.213203, -159.426407) " x="144.213203" y="144.426407" width="30" height="30"></rect>
            <rect id="Rectangle" fill="#E1E1E1" transform="translate(21.213203, 159.213203) rotate(-315.000000) translate(-21.213203, -159.213203) " x="6.21320344" y="144.213203" width="30" height="30"></rect>
            <rect id="Rectangle" fill="#868686" transform="translate(21.213203, 67.213203) rotate(-315.000000) translate(-21.213203, -67.213203) " x="6.21320344" y="52.2132034" width="30" height="30"></rect>
            <rect id="Rectangle" fill="#595959" transform="translate(44.213203, 90.213203) rotate(-315.000000) translate(-44.213203, -90.213203) " x="29.2132034" y="75.2132034" width="30" height="30"></rect>
            <rect id="Rectangle" fill="#BABABA" transform="translate(21.213203, 113.213203) rotate(-315.000000) translate(-21.213203, -113.213203) " x="6.21320344" y="98.2132034" width="30" height="30"></rect>
            <rect id="Rectangle" fill="#595959" transform="translate(205.213203, 21.213203) rotate(-315.000000) translate(-205.213203, -21.213203) " x="190.213203" y="6.21320344" width="30" height="30"></rect>
            <rect id="Rectangle" fill="#BABABA" transform="translate(44.213203, 182.213203) rotate(-315.000000) translate(-44.213203, -182.213203) " x="29.2132034" y="167.213203" width="30" height="30"></rect>
            <rect id="Rectangle" fill="#868686" transform="translate(205.213203, 67.426407) rotate(-315.000000) translate(-205.213203, -67.426407) " x="190.213203" y="52.4264069" width="30" height="30"></rect>
            <rect id="Rectangle" fill="#595959" transform="translate(90.213203, 182.426407) rotate(-315.000000) translate(-90.213203, -182.426407) " x="75.2132034" y="167.426407" width="30" height="30"></rect>
            <rect id="Rectangle" fill="#BABABA" transform="translate(205.213203, 113.426407) rotate(-315.000000) translate(-205.213203, -113.426407) " x="190.213203" y="98.4264069" width="30" height="30"></rect>
            <rect id="Rectangle" fill="#595959" transform="translate(136.213203, 182.426407) rotate(-315.000000) translate(-136.213203, -182.426407) " x="121.213203" y="167.426407" width="30" height="30"></rect>
            <rect id="Rectangle" fill="#E1E1E1" transform="translate(205.213203, 159.426407) rotate(-315.000000) translate(-205.213203, -159.426407) " x="190.213203" y="144.426407" width="30" height="30"></rect>
            <rect id="Rectangle" fill="#868686" transform="translate(67.426407, 205.213203) rotate(-315.000000) translate(-67.426407, -205.213203) " x="52.4264069" y="190.213203" width="30" height="30"></rect>
            <rect id="Rectangle" fill="#BABABA" transform="translate(113.426407, 205.426407) rotate(-315.000000) translate(-113.426407, -205.426407) " x="98.4264069" y="190.426407" width="30" height="30"></rect>
            <rect id="Rectangle" fill="#BABABA" transform="translate(159.426407, 205.426407) rotate(-315.000000) translate(-159.426407, -205.426407) " x="144.426407" y="190.426407" width="30" height="30"></rect>
            <rect id="Rectangle" fill="#595959" transform="translate(21.426407, 205.213203) rotate(-315.000000) translate(-21.426407, -205.213203) " x="6.42640687" y="190.213203" width="30" height="30"></rect>
            <rect id="Rectangle" fill="#595959" transform="translate(205.426407, 205.426407) rotate(-315.000000) translate(-205.426407, -205.426407) " x="190.426407" y="190.426407" width="30" height="30"></rect>
            <rect id="Rectangle" fill="#BABABA" transform="translate(182.213203, 182.426407) rotate(-315.000000) translate(-182.213203, -182.426407) " x="167.213203" y="167.426407" width="30" height="30"></rect>
        </g>
    </g>
</svg>