<?xml version="1.0" encoding="UTF-8"?>
<svg width="1440px" height="1440px" viewBox="0 0 1440 1440" version="1.1" xmlns="http://www.w3.org/2000/svg" xmlns:xlink="http://www.w3.org/1999/xlink">
    <title>waves</title>
    <defs>
        <linearGradient x1="52.3653135%" y1="38.1384867%" x2="65.2131057%" y2="58.0598804%" id="linearGradient-1">
            <stop stop-color="#CCCCCC" offset="0%"></stop>
            <stop stop-color="#585858" offset="100%"></stop>
        </linearGradient>
    </defs>
    <g id="waves" stroke="none" stroke-width="1" fill="none" fill-rule="evenodd">
        <g id="Group-3" transform="translate(-802.950945, -703.921763)" fill="url(#linearGradient-1)">
            <path d="M2221.39448,2871.87653 C2898.21945,2871.87653 3104.09928,3001.61632 3104.09928,2650.08707 C3104.09928,2298.55783 2915.19766,2012.38308 2448.79954,1702.97454 C2156.60982,1509.13586 1188.01417,1712.79986 936.995058,1503.32763 C482.110422,1123.73223 164.857234,1615.25558 510.691901,1778.8812 C1172.40464,2091.95898 1544.56952,2871.87653 2221.39448,2871.87653 Z" id="bottom" opacity="0.298010538" transform="translate(1734.176637, 2129.013911) rotate(-18.000000) translate(-1734.176637, -2129.013911) "></path>
            <path d="M2221.39448,2811.87653 C2898.21945,2811.87653 3104.09928,2941.61632 3104.09928,2590.08707 C3104.09928,2238.55783 2915.19766,1952.38308 2448.79954,1642.97454 C2156.60982,1449.13586 1188.01417,1652.79986 936.995058,1443.32763 C482.110422,1063.73223 164.857234,1555.25558 510.691901,1718.8812 C1172.40464,2031.95898 1544.56952,2811.87653 2221.39448,2811.87653 Z" id="bottom" opacity="0.197447311" transform="translate(1734.176637, 2069.013911) rotate(-18.000000) translate(-1734.176637, -2069.013911) "></path>
            <path d="M2221.39448,2751.87653 C2898.21945,2751.87653 3104.09928,2881.61632 3104.09928,2530.08707 C3104.09928,2178.55783 2915.19766,1892.38308 2448.79954,1582.97454 C2156.60982,1389.13586 1188.01417,1592.79986 936.995058,1383.32763 C482.110422,1003.73223 164.857234,1495.25558 510.691901,1658.8812 C1172.40464,1971.95898 1544.56952,2751.87653 2221.39448,2751.87653 Z" id="bottom" opacity="0.0977243823" transform="translate(1734.176637, 2009.013911) rotate(-18.000000) translate(-1734.176637, -2009.013911) "></path>
        </g>
    </g>
</svg>