<svg xmlns="http://www.w3.org/2000/svg" width="840" height="290" fill="none"><path fill="#F5F5F5" d="M0 0h840v290H0z"/><path fill="#fff" fill-rule="evenodd" d="M0 0h841v290H0V0Z" clip-rule="evenodd"/><path fill="#666" fill-rule="evenodd" d="M265 145a120 120 0 1 1-240 0 120 120 0 0 1 240 0Z" clip-rule="evenodd"/><path fill="#3CC583" fill-rule="evenodd" d="M817 145H265c0 12.5-2 24.6-5.5 36L397 241h420v-96Z" clip-rule="evenodd"/><path fill="#1EABDA" fill-rule="evenodd" d="M817 49H397l-137.5 60a120 120 0 0 1 5.5 36h552V49Z" clip-rule="evenodd"/><path fill="#fff" d="M504.8 92.8h1.9v9.6c0 1-.3 2-.8 2.7-.4.7-1 1.2-1.8 1.6-.8.3-1.7.5-2.6.5-1 0-1.8-.2-2.6-.5a4.3 4.3 0 0 1-2.5-4.3v-9.6h1.8v9.6c0 .7.2 1.4.4 1.8.3.5.7.9 1.2 1.1.5.2 1 .4 1.7.4a4 4 0 0 0 1.7-.4c.5-.2.9-.6 1.2-1 .2-.5.4-1.2.4-1.9v-9.6Zm8.7 14.2h-3v-1.5h3c1 0 1.8-.2 2.5-.7a4 4 0 0 0 1.5-1.8c.4-.7.5-1.6.5-2.7v-.8c0-.9 0-1.6-.2-2.2-.2-.7-.5-1.2-.9-1.6-.4-.5-.8-.8-1.4-1-.5-.3-1.2-.4-1.9-.4h-3.2v-1.5h3.2c1 0 1.8.1 2.6.5.8.3 1.4.7 2 1.3.5.6 1 1.3 1.3 2.1.3.8.4 1.7.4 2.8v.8c0 1-.1 2-.4 2.8a5.8 5.8 0 0 1-3.4 3.4c-.8.3-1.6.5-2.6.5Zm-2-14.2V107h-1.9V92.8h1.9Zm13.3 0V107h-2V92.8h2Zm6.9 7.4v1.5h-4.8v-1.5h4.8Zm5.9 6.8h-3v-1.5h3c1 0 1.8-.2 2.5-.7a4 4 0 0 0 1.5-1.8c.4-.7.5-1.6.5-2.7v-.8c0-.9 0-1.6-.2-2.2-.2-.7-.5-1.2-.9-1.6-.4-.5-.8-.8-1.4-1-.5-.3-1.2-.4-1.9-.4h-3.2v-1.5h3.2c1 0 1.8.1 2.6.5.8.3 1.4.7 2 1.3.5.6 1 1.3 1.3 2.1.3.8.4 1.7.4 2.8v.8c0 1-.1 2-.4 2.8a5.8 5.8 0 0 1-3.4 3.4c-.8.3-1.6.5-2.6.5Zm-2-14.2V107h-1.9V92.8h1.9Zm13.3 0V107h-2V92.8h2ZM85.8 145.2c-2 0-3.5-.5-4.5-1.5s-1.4-2.5-1.4-4.5V131h2.5v8.3c0 1.3.3 2.2.8 2.8.6.7 1.4 1 2.6 1 1.1 0 2-.3 2.5-1 .6-.6.9-1.5.9-2.8v-8.3h2.5v8.3c0 2-.5 3.5-1.5 4.5s-2.4 1.5-4.4 1.5Zm8.7-.2v-7.6a20.2 20.2 0 0 0-.1-2.5h2.4l.2 2h-.2c.3-.7.8-1.2 1.4-1.6a4 4 0 0 1 2.2-.6c1.1 0 2 .3 2.6 1 .6.7 1 1.7 1 3.1v6.2h-2.6v-6c0-.9-.1-1.5-.4-1.8-.3-.4-.8-.5-1.4-.5-.8 0-1.4.2-1.9.7-.4.5-.7 1.1-.7 1.9v5.7h-2.5Zm12 0v-10.1h2.6V145h-2.5Zm0-12v-2.4h2.7v2.4h-2.7Zm12.5 16.3V143h.2a3 3 0 0 1-1.3 1.7 4 4 0 0 1-2.2.6c-.9 0-1.6-.2-2.3-.6-.7-.4-1.2-1-1.6-1.8-.3-.8-.5-1.8-.5-2.9 0-1 .2-2 .5-2.8a4.1 4.1 0 0 1 4-2.4 4 4 0 0 1 2.1.6c.7.5 1.1 1 1.3 1.7h-.2l.2-2.1h2.4a402.3 402.3 0 0 0-.1 2.5v12H119Zm-2.6-6c.8 0 1.4-.3 2-.8.4-.6.6-1.4.6-2.6 0-1-.2-2-.7-2.5-.5-.5-1.1-.8-1.9-.8-.8 0-1.4.3-1.9.8-.5.6-.7 1.4-.7 2.5 0 1.2.2 2 .7 2.6.5.5 1.1.8 2 .8Zm11.5 1.9c-1.3 0-2.2-.3-2.8-1-.6-.7-1-1.7-1-3.1v-6.2h2.6v6.1c0 .8.1 1.3.4 1.7.3.3.8.5 1.4.5.7 0 1.3-.2 1.7-.7.5-.5.7-1.1.7-1.9v-5.7h2.5V145H131v-2h.3c-.3.7-.8 1.2-1.4 1.6-.6.4-1.3.6-2 .6Zm13.1 0c-1.7 0-3-.5-4-1.4-1-1-1.4-2.2-1.4-3.8 0-1 .2-2 .6-2.8a4.6 4.6 0 0 1 4.3-2.5c1 0 1.8.2 2.5.6.6.4 1.1 1 1.4 1.8.4.7.6 1.6.6 2.6v.6h-7.4V139h5.6l-.4.3c0-1-.2-1.6-.6-2.1-.3-.5-1-.8-1.7-.8-.8 0-1.4.3-1.9.9a4 4 0 0 0-.6 2.5v.2c0 1.1.2 2 .8 2.5.5.5 1.3.8 2.3.8.5 0 1 0 1.6-.2l1.4-.8.7 1.7c-.4.4-1 .7-1.7.9a7 7 0 0 1-2 .3Zm11.8-.2v-14.1h5a9 9 0 0 1 4.2.8c1 .6 2 1.4 2.5 2.4.6 1 .9 2.3.9 3.8s-.3 2.8-.9 3.8c-.6 1-1.4 1.9-2.5 2.5a9 9 0 0 1-4.1.8h-5.1Zm2.6-2.1h2.3c1.7 0 3-.4 3.8-1.3.9-.8 1.3-2 1.3-3.7 0-1.6-.4-2.9-1.3-3.7-.8-.8-2-1.2-3.8-1.2h-2.3v9.9Zm17.3 2.3c-1.7 0-3-.5-4-1.4-1-1-1.4-2.2-1.4-3.8 0-1 .2-2 .6-2.8a4.6 4.6 0 0 1 4.3-2.5c1 0 1.8.2 2.4.6.7.4 1.2 1 1.5 1.8.4.7.5 1.6.5 2.6v.6h-7.3V139h5.6l-.4.3c0-1-.2-1.6-.6-2.1-.4-.5-1-.8-1.7-.8-.8 0-1.4.3-1.9.9a4 4 0 0 0-.7 2.5v.2c0 1.1.3 2 .8 2.5.6.5 1.4.8 2.3.8.6 0 1.2 0 1.6-.2.6-.2 1-.5 1.5-.8l.7 1.7c-.5.4-1 .7-1.7.9a7 7 0 0 1-2.1.3Zm8.9-.2-4.4-10.1h2.7l3.1 7.9h-.6l3.2-7.9h2.5l-4.3 10.1h-2.2Zm7.9 0v-10.1h2.5V145h-2.5Zm-.2-12v-2.4h2.8v2.4h-2.8Zm10 12.2c-1 0-2-.2-2.7-.6-.8-.5-1.4-1-1.8-1.9a6 6 0 0 1-.6-2.8c0-1 .2-2 .6-2.8.4-.8 1-1.4 1.8-1.8.8-.4 1.7-.6 2.7-.6a6 6 0 0 1 2 .3c.6.2 1.1.5 1.5.9l-.7 1.7-1.2-.7-1.3-.3c-1 0-1.6.3-2.1.9-.5.5-.8 1.4-.8 2.4s.3 2 .8 2.5c.5.6 1.2.8 2 .8.5 0 .9 0 1.3-.2.5-.2 1-.4 1.3-.7l.7 1.7c-.4.4-.9.7-1.5.9a6 6 0 0 1-2 .3Zm10.2 0c-1.7 0-3-.5-4-1.4-1-1-1.5-2.2-1.5-3.8 0-1 .2-2 .7-2.8a4.6 4.6 0 0 1 4.3-2.5c1 0 1.8.2 2.4.6.7.4 1.2 1 1.5 1.8.3.7.5 1.6.5 2.6v.6h-7.3V139h5.5l-.3.3c0-1-.2-1.6-.6-2.1-.4-.5-1-.8-1.7-.8-.8 0-1.5.3-2 .9a4 4 0 0 0-.6 2.5v.2c0 1.1.3 2 .8 2.5.6.5 1.3.8 2.3.8.6 0 1.1 0 1.6-.2l1.5-.8.7 1.7c-.5.4-1 .7-1.7.9a7 7 0 0 1-2.1.3ZM103.3 169v-14.1h2.6V169h-2.6Zm9.4.2c-.9 0-1.6-.2-2.3-.6-.7-.4-1.2-1-1.6-1.8-.4-.8-.5-1.8-.5-2.9 0-1 .1-2 .5-2.8a4.1 4.1 0 0 1 4-2.4 4 4 0 0 1 2.1.6c.7.4 1.1 1 1.3 1.7h-.2v-6.7h2.5V169H116v-2.1h.3a3 3 0 0 1-1.3 1.7 4 4 0 0 1-2.3.6Zm.7-2c.8 0 1.4-.2 2-.7.4-.6.6-1.4.6-2.6 0-1-.2-2-.7-2.5-.5-.5-1-.8-1.9-.8-.8 0-1.4.3-1.9.8-.5.6-.7 1.4-.7 2.5 0 1.2.2 2 .7 2.6.5.5 1.1.8 2 .8Zm12.7 2c-1.7 0-3-.5-4-1.4-1-1-1.4-2.2-1.4-3.8 0-1 .2-2 .6-2.8a4.6 4.6 0 0 1 4.3-2.5c1 0 1.8.2 2.4.6.7.4 1.2 1 1.5 1.8.4.7.5 1.6.5 2.6v.6h-7.3V163h5.6l-.4.3c0-1-.2-1.6-.6-2.1-.4-.5-1-.8-1.7-.8-.8 0-1.4.3-1.9.9a4 4 0 0 0-.7 2.5v.2c0 1.1.3 2 .8 2.5.6.5 1.4.8 2.3.8.6 0 1.2 0 1.6-.2l1.5-.8.7 1.7c-.5.4-1 .7-1.7.9a7 7 0 0 1-2.1.3Zm6-.2v-7.6a20.7 20.7 0 0 0-.1-2.5h2.4l.2 2h-.2c.3-.7.8-1.2 1.4-1.6a4 4 0 0 1 2.2-.6c1.2 0 2 .3 2.7 1 .6.7.9 1.7.9 3.1v6.2H139v-6c0-.9-.2-1.5-.5-1.8-.3-.4-.8-.5-1.4-.5-.8 0-1.4.2-1.9.7-.4.5-.6 1.1-.6 1.9v5.7h-2.5Zm16.4.2c-1.2 0-2-.3-2.7-1-.6-.6-1-1.5-1-2.8v-4.6H143v-1.9h1.9v-2.6l2.5-.6v3.2h2.7v1.9h-2.7v4.5c0 .7.1 1.2.4 1.4.3.3.6.5 1 .5a2.9 2.9 0 0 0 1.3-.3v2l-.8.2a4 4 0 0 1-.8.1Zm3.3-.2v-10.1h2.5V169h-2.5Zm-.2-12v-2.4h2.8v2.4h-2.8Zm6 12v-8.2h-1.9v-1.9h2.7l-.7.6V158c0-1.3.3-2.2 1-2.8.6-.7 1.5-1 2.7-1h1l.8.3v2l-.6-.2h-.7c-.6 0-1 0-1.3.4-.3.3-.4.8-.4 1.4v1.2l-.4-.4h7V169h-2.5v-8.2h-4.1v8.2h-2.5Zm6.6-12v-2.4h2.8v2.4h-2.8Zm10.2 12.2c-1.7 0-3-.5-4-1.4-1-1-1.4-2.2-1.4-3.8 0-1 .2-2 .6-2.8a4.6 4.6 0 0 1 4.3-2.5c1 0 1.8.2 2.5.6.6.4 1.1 1 1.5 1.8.3.7.5 1.6.5 2.6v.6H171V163h5.6l-.3.3c0-1-.2-1.6-.6-2.1-.4-.5-1-.8-1.7-.8-.9 0-1.5.3-2 .9a4 4 0 0 0-.6 2.5v.2c0 1.1.3 2 .8 2.5s1.3.8 2.3.8c.6 0 1 0 1.6-.2l1.4-.8.8 1.7a7 7 0 0 1-3.8 1.2Zm6-.2v-7.5a22 22 0 0 0 0-2.6h2.4l.2 2.8h-.4c.2-.7.4-1.3.7-1.7a3 3 0 0 1 1.2-1 3.4 3.4 0 0 1 2-.3l.5.1v2.2a2.8 2.8 0 0 0-1.4-.2c-.6 0-1 .1-1.4.4-.4.2-.7.5-1 1l-.2 1.4v5.4h-2.5ZM504.8 188.8h1.9v9.6c0 1-.3 2-.8 2.7-.4.7-1 1.2-1.8 1.6-.8.3-1.7.5-2.6.5-1 0-1.8-.2-2.6-.5a4.3 4.3 0 0 1-2.5-4.3v-9.6h1.8v9.6c0 .7.2 1.4.4 1.8.3.5.7.9 1.2 1.1.5.2 1 .4 1.7.4a4 4 0 0 0 1.7-.4c.5-.2.9-.6 1.2-1 .2-.5.4-1.2.4-1.9v-9.6Zm8.7 14.2h-3v-1.5h3c1 0 1.8-.2 2.5-.7a4 4 0 0 0 1.5-1.8c.4-.7.5-1.6.5-2.7v-.8c0-.9 0-1.6-.2-2.2-.2-.7-.5-1.2-.9-1.6-.4-.5-.8-.8-1.4-1-.5-.3-1.2-.4-1.9-.4h-3.2v-1.5h3.2c1 0 1.8.1 2.6.4a5.9 5.9 0 0 1 3.3 3.4c.3 1 .4 1.8.4 2.9v.8c0 1-.1 2-.4 2.8a5.8 5.8 0 0 1-3.4 3.4c-.8.3-1.6.5-2.6.5Zm-2-14.2V203h-1.9v-14.2h1.9Zm13.3 0V203h-2v-14.2h2Zm6.9 7.4v1.5h-4.8v-1.5h4.8Zm7.3 1.2h-3.8V196h3.8a4 4 0 0 0 1.8-.4c.4-.2.7-.5 1-1 .2-.4.3-.8.3-1.4 0-.5-.1-1-.4-1.3-.2-.5-.5-.8-1-1-.4-.3-1-.5-1.7-.5h-3.4V203h-1.9v-14.2h5.3c1 0 2 .2 2.7.5a4 4 0 0 1 1.7 1.6c.4.6.6 1.4.6 2.2 0 1-.2 1.7-.6 2.4-.4.6-1 1-1.7 1.4-.8.4-1.7.5-2.7.5Zm9.4-8.6V203h-2v-14.2h2Z"/><path stroke="#fff" stroke-linecap="round" stroke-linejoin="round" stroke-width="2" d="M265 145a120 120 0 1 1-240 0 120 120 0 0 1 240 0Z" clip-rule="evenodd"/><path stroke="#fff" stroke-linecap="round" stroke-linejoin="round" stroke-width="2" d="M817 145H265c0 12.5-2 24.6-5.5 36L397 241h420v-96ZM817 49H397l-137.5 60a120 120 0 0 1 5.5 36h552V49Z" clip-rule="evenodd"/></svg>