<svg xmlns="http://www.w3.org/2000/svg" width="520" height="416" fill="none"><g clip-path="url(#a)"><path fill="#fff" d="M553-83H-1v518h554V-83Z"/><path fill="#fff" fill-rule="evenodd" d="M0-82h552v516H0V-82Z" clip-rule="evenodd"/><path fill="url(#b)" fill-rule="evenodd" d="m171.9 209.43-6.94-.9.45-3.48a99.52 99.52 0 0 1 31.93-60.99l-2.96-3.68 15.98-2.46L204.5 153l-2.77-3.46a92.53 92.53 0 0 0-29.38 56.43l-.45 3.47Z" clip-rule="evenodd"/><path fill="url(#c)" fill-rule="evenodd" d="m210.62 293.54-4.26 5.56-2.78-2.13a99.52 99.52 0 0 1-36.85-58.14l-4.67.71 5.86-15.06 10.12 12.6-4.38.68a92.53 92.53 0 0 0 34.18 53.66l2.78 2.12Z" clip-rule="evenodd"/><path fill="url(#d)" fill-rule="evenodd" d="m302.74 302.06 2.68 6.46-3.23 1.35a99.52 99.52 0 0 1-68.78 2.84l-1.72 4.4-10.11-12.6 15.98-2.46-1.61 4.13a92.52 92.52 0 0 0 63.56-2.78l3.23-1.34Z" clip-rule="evenodd"/><path fill="url(#e)" fill-rule="evenodd" d="m356.22 226.47 6.94.9-.45 3.48a99.52 99.52 0 0 1-31.93 61l2.96 3.67-15.98 2.46 5.86-15.06 2.77 3.45a92.53 92.53 0 0 0 29.38-56.43l.45-3.47Z" clip-rule="evenodd"/><path fill="url(#f)" fill-rule="evenodd" d="m317.5 142.36 4.26-5.56 2.78 2.13a99.52 99.52 0 0 1 36.85 58.14l4.67-.71-5.86 15.06-10.12-12.6 4.38-.68a92.53 92.53 0 0 0-34.18-53.65l-2.78-2.13Z" clip-rule="evenodd"/><path fill="url(#g)" fill-rule="evenodd" d="m225.38 133.84-2.69-6.46 3.23-1.35a99.52 99.52 0 0 1 68.79-2.84l1.71-4.4 10.12 12.6-15.98 2.46 1.6-4.13a92.52 92.52 0 0 0-63.55 2.78l-3.23 1.34Z" clip-rule="evenodd"/><path fill="#484848" d="M244.46 49.75v-14.1h5.76c1.48 0 2.63.35 3.44 1.06.82.7 1.22 1.67 1.22 2.92 0 .83-.18 1.53-.56 2.12a3.48 3.48 0 0 1-1.54 1.32c-.65.3-1.42.46-2.3.46l.36-.26h.4c.55 0 1.04.13 1.46.4.44.27.79.71 1.04 1.34l2 4.74h-1.82L252 45.09c-.22-.6-.56-.99-1.02-1.16a4.49 4.49 0 0 0-1.7-.28h-3.16v6.1h-1.66Zm1.66-7.4h3.86c1.07 0 1.88-.23 2.42-.68.56-.47.84-1.13.84-2 0-.87-.28-1.53-.84-1.98-.54-.45-1.35-.68-2.42-.68h-3.86v5.34Zm12.01 7.4V39.71h1.62v10.04h-1.62Zm-.2-12.32v-1.82h2v1.82h-2Zm8.3 12.5c-.8 0-1.54-.1-2.23-.32a4.84 4.84 0 0 1-1.72-.94l.56-1.14a5.19 5.19 0 0 0 3.42 1.14c.8 0 1.4-.14 1.8-.42.41-.3.62-.7.62-1.2 0-.39-.14-.7-.4-.92a2.7 2.7 0 0 0-1.26-.56l-1.86-.38c-.86-.19-1.5-.5-1.92-.94a2.41 2.41 0 0 1-.64-1.72c0-.59.15-1.1.46-1.54a3 3 0 0 1 1.34-1.06 5.78 5.78 0 0 1 4.08-.06c.62.21 1.14.53 1.56.94l-.58 1.12c-.4-.39-.86-.67-1.38-.86-.51-.2-1.04-.3-1.58-.3-.79 0-1.38.16-1.78.48-.39.3-.58.71-.58 1.22 0 .39.12.7.36.96.25.24.64.42 1.16.54l1.86.38c.9.2 1.58.51 2.02.94.45.41.68.97.68 1.68 0 .6-.17 1.13-.5 1.58-.34.44-.8.78-1.4 1.02-.59.24-1.28.36-2.08.36Zm6.59-.18V35.03h1.62v9.14h.04l4.66-4.46h2.04l-5.5 5.24.04-.82 5.98 5.62h-2.1l-5.12-4.72h-.04v4.72h-1.62ZM204.38 73.75v-14.1h1.44l5.66 12.78h-.58l5.66-12.78H218v14.1h-1.52V61.79h.6l-5.34 11.96h-1.1l-5.36-11.96h.6v11.96h-1.5Zm20.79.18c-.9 0-1.67-.2-2.34-.62a4.3 4.3 0 0 1-1.56-1.8 6.54 6.54 0 0 1-.54-2.78c0-1.1.18-2.03.54-2.8.37-.77.9-1.37 1.56-1.78a4.35 4.35 0 0 1 2.34-.62c.9 0 1.69.23 2.34.7a3.2 3.2 0 0 1 1.32 1.86h-.24l.22-2.38h1.56l-.12 1.18c-.03.39-.04.77-.04 1.14v7.72h-1.62v-2.36h.22a3.2 3.2 0 0 1-1.32 1.86c-.67.45-1.44.68-2.32.68Zm.32-1.32c.96 0 1.72-.33 2.28-.98.56-.67.84-1.63.84-2.9 0-1.28-.28-2.25-.84-2.9-.56-.67-1.32-1-2.28-1-.95 0-1.7.33-2.28 1-.56.65-.84 1.62-.84 2.9 0 1.27.28 2.23.84 2.9.57.65 1.33.98 2.28.98Zm7.85 1.14v-7.72a33.2 33.2 0 0 0-.16-2.32h1.56l.2 2.2h-.24c.3-.77.76-1.36 1.4-1.76.66-.41 1.4-.62 2.26-.62 1.19 0 2.08.32 2.68.96.62.63.92 1.62.92 2.98v6.28h-1.62v-6.18c0-.95-.2-1.63-.58-2.06-.37-.44-.96-.66-1.76-.66-.93 0-1.67.29-2.22.86a3.2 3.2 0 0 0-.82 2.3v5.74h-1.62Zm15.54.18c-.9 0-1.67-.2-2.34-.62a4.3 4.3 0 0 1-1.56-1.8 6.54 6.54 0 0 1-.54-2.78c0-1.1.18-2.03.54-2.8.37-.77.9-1.37 1.56-1.78a4.35 4.35 0 0 1 2.34-.62c.9 0 1.69.23 2.34.7.67.45 1.1 1.07 1.32 1.86h-.24l.22-2.38h1.56l-.12 1.18a17 17 0 0 0-.04 1.14v7.72h-1.62v-2.36h.22c-.21.79-.65 1.4-1.32 1.86-.67.45-1.44.68-2.32.68Zm.32-1.32c.96 0 1.72-.33 2.28-.98.56-.67.84-1.63.84-2.9 0-1.28-.28-2.25-.84-2.9-.56-.67-1.32-1-2.28-1-.95 0-1.7.33-2.28 1-.56.65-.84 1.62-.84 2.9 0 1.27.28 2.23.84 2.9.57.65 1.33.98 2.28.98Zm12.27 5.6c-.86 0-1.66-.1-2.4-.32a6.1 6.1 0 0 1-1.98-.98l.48-1.22a5.8 5.8 0 0 0 2.46 1.08c.43.1.88.14 1.36.14.99 0 1.74-.26 2.24-.78.5-.52.76-1.26.76-2.22v-2.94h.2a3.28 3.28 0 0 1-1.32 1.88c-.66.45-1.44.68-2.34.68-.92 0-1.72-.2-2.4-.6a4.2 4.2 0 0 1-1.56-1.74 6.2 6.2 0 0 1-.54-2.68c0-1.01.18-1.9.54-2.64.38-.75.9-1.32 1.56-1.72a4.53 4.53 0 0 1 2.4-.62 4 4 0 0 1 2.34.68 3.2 3.2 0 0 1 1.32 1.88l-.2-.2.18-2.18h1.58a16.06 16.06 0 0 0-.16 2.32v7.66c0 1.5-.38 2.62-1.16 3.38-.76.76-1.88 1.14-3.36 1.14Zm-.24-6a2.9 2.9 0 0 0 2.3-.96c.56-.65.84-1.57.84-2.74a4 4 0 0 0-.84-2.72 2.9 2.9 0 0 0-2.3-.96c-.96 0-1.72.32-2.3.96a3.94 3.94 0 0 0-.86 2.72c0 1.17.29 2.09.86 2.74.58.64 1.34.96 2.3.96Zm12.33 1.72a5.03 5.03 0 0 1-3.72-1.36 5.2 5.2 0 0 1-1.36-3.82c0-1.05.2-1.97.6-2.74.4-.79.96-1.4 1.68-1.82a4.66 4.66 0 0 1 2.48-.66c.92 0 1.7.2 2.32.58.63.39 1.11.94 1.44 1.66.34.7.5 1.55.5 2.52v.6h-7.78v-1.02h6.72l-.34.26a3.9 3.9 0 0 0-.72-2.5c-.48-.6-1.19-.9-2.14-.9-1 0-1.78.35-2.34 1.06-.56.7-.84 1.63-.84 2.82v.18c0 1.25.31 2.2.92 2.86.63.64 1.5.96 2.62.96a4.71 4.71 0 0 0 3.2-1.16l.56 1.14c-.44.43-1 .76-1.68 1-.66.23-1.37.34-2.12.34Zm6.42-.18v-7.72a31.01 31.01 0 0 0-.16-2.32h1.56l.2 2.2h-.24c.27-.76.69-1.35 1.26-1.76.59-.41 1.3-.62 2.12-.62.84 0 1.52.2 2.04.6.54.4.9 1.02 1.08 1.86h-.3c.26-.76.7-1.36 1.34-1.8a3.86 3.86 0 0 1 2.24-.66c1.1 0 1.94.32 2.5.96.56.63.84 1.62.84 2.98v6.28h-1.62v-6.18c0-.95-.16-1.63-.5-2.06-.33-.44-.86-.66-1.6-.66-.84 0-1.5.3-2 .88a3.5 3.5 0 0 0-.72 2.32v5.7h-1.62v-6.18c0-.95-.16-1.63-.5-2.06-.33-.44-.86-.66-1.6-.66-.84 0-1.5.3-1.98.88a3.5 3.5 0 0 0-.72 2.32v5.7h-1.62Zm22.02.18a5.03 5.03 0 0 1-3.72-1.36 5.2 5.2 0 0 1-1.36-3.82c0-1.05.2-1.97.6-2.74.4-.79.96-1.4 1.68-1.82a4.66 4.66 0 0 1 2.48-.66c.92 0 1.7.2 2.32.58.63.39 1.1.94 1.44 1.66.33.7.5 1.55.5 2.52v.6h-7.78v-1.02h6.72l-.34.26a3.9 3.9 0 0 0-.72-2.5c-.48-.6-1.2-.9-2.14-.9-1 0-1.78.35-2.34 1.06-.56.7-.84 1.63-.84 2.82v.18c0 1.25.3 2.2.92 2.86.63.64 1.5.96 2.62.96a4.72 4.72 0 0 0 3.2-1.16l.56 1.14c-.44.43-1 .76-1.68 1-.67.23-1.37.34-2.12.34Zm6.42-.18v-7.72a33.2 33.2 0 0 0-.16-2.32h1.56l.2 2.2h-.24c.3-.77.76-1.36 1.4-1.76.65-.41 1.4-.62 2.26-.62 1.19 0 2.08.32 2.68.96.61.63.92 1.62.92 2.98v6.28h-1.62v-6.18c0-.95-.2-1.63-.58-2.06-.37-.44-.96-.66-1.76-.66-.93 0-1.67.29-2.22.86a3.2 3.2 0 0 0-.82 2.3v5.74h-1.62Zm15.28.18c-.99 0-1.74-.28-2.26-.84-.52-.57-.78-1.43-.78-2.58v-5.54h-1.96v-1.26h1.96v-2.74l1.62-.46v3.2h2.88v1.26h-2.88v5.36c0 .8.13 1.37.4 1.72.28.33.7.5 1.24.5.25 0 .48-.02.68-.06.2-.05.38-.11.54-.18v1.36a2.8 2.8 0 0 1-.68.18c-.25.05-.5.08-.76.08ZM243.58 97.75v-14.1h5.74c1.48 0 2.62.36 3.42 1.08.8.7 1.2 1.7 1.2 2.96 0 1.24-.4 2.23-1.2 2.96-.8.72-1.94 1.08-3.42 1.08h-4.08v6.02h-1.66Zm1.66-7.4h3.92c1.03 0 1.8-.23 2.32-.7.53-.47.8-1.12.8-1.96 0-.85-.27-1.51-.8-1.98-.52-.47-1.3-.7-2.32-.7h-3.92v5.34Zm11.19 7.4V83.03h1.62v14.72h-1.62Zm8.58.18c-.89 0-1.67-.2-2.34-.62a4.3 4.3 0 0 1-1.56-1.8 6.54 6.54 0 0 1-.54-2.78c0-1.1.18-2.03.54-2.8.38-.77.9-1.37 1.56-1.78a4.35 4.35 0 0 1 2.34-.62c.91 0 1.69.23 2.34.7.67.45 1.11 1.07 1.32 1.86h-.24l.22-2.38h1.56l-.12 1.18a17 17 0 0 0-.04 1.14v7.72h-1.62v-2.36h.22c-.21.79-.65 1.4-1.32 1.86-.66.45-1.44.68-2.32.68Zm.32-1.32c.96 0 1.72-.33 2.28-.98.56-.67.84-1.63.84-2.9 0-1.28-.28-2.25-.84-2.9-.56-.67-1.32-1-2.28-1-.94 0-1.7.33-2.28 1-.56.65-.84 1.62-.84 2.9 0 1.27.28 2.23.84 2.9.58.65 1.34.98 2.28.98Zm7.86 1.14v-7.72a31.01 31.01 0 0 0-.16-2.32h1.56l.2 2.2h-.25c.3-.77.76-1.36 1.4-1.76.66-.41 1.41-.62 2.26-.62 1.2 0 2.09.32 2.69.96.6.63.92 1.62.92 2.98v6.28h-1.63v-6.18c0-.95-.19-1.63-.57-2.06-.38-.44-.97-.66-1.76-.66-.94 0-1.68.29-2.23.86a3.2 3.2 0 0 0-.81 2.3v5.74h-1.63ZM31.96 109.74v-14.1h5.74c1.48 0 2.62.36 3.42 1.08.8.7 1.2 1.7 1.2 2.96 0 1.24-.4 2.23-1.2 2.96-.8.72-1.94 1.08-3.42 1.08h-4.08v6.02h-1.66Zm1.66-7.4h3.92c1.03 0 1.8-.23 2.32-.7.53-.47.8-1.12.8-1.96a2.5 2.5 0 0 0-.8-1.98c-.52-.47-1.3-.7-2.32-.7h-3.92v5.34Zm10.95 7.4v-7.62c0-.4-.01-.8-.04-1.22-.01-.41-.04-.81-.08-1.2h1.56l.2 2.44-.28.02a3.11 3.11 0 0 1 1.88-2.34c.45-.2.93-.3 1.42-.3.2 0 .37 0 .52.02.16.01.3.05.44.1l-.02 1.44a3.52 3.52 0 0 0-1.12-.16c-.59 0-1.1.14-1.54.42a2.82 2.82 0 0 0-1.3 2.48v5.92h-1.64Zm11.31.18a4.28 4.28 0 0 1-4.16-2.42 6.23 6.23 0 0 1-.58-2.78c0-1.08.2-2 .58-2.78.39-.77.93-1.37 1.64-1.78a4.85 4.85 0 0 1 2.52-.64c.97 0 1.81.21 2.52.64.72.41 1.27 1 1.66 1.78.4.77.6 1.7.6 2.78 0 1.07-.2 2-.6 2.78a4.25 4.25 0 0 1-1.66 1.8 4.9 4.9 0 0 1-2.52.62Zm0-1.32c.96 0 1.72-.33 2.28-.98.56-.67.84-1.63.84-2.9 0-1.28-.29-2.25-.86-2.9a2.8 2.8 0 0 0-2.26-1c-.95 0-1.7.33-2.26 1-.56.65-.84 1.62-.84 2.9 0 1.27.28 2.23.84 2.9.56.65 1.31.98 2.26.98Zm11.1 1.32a4.3 4.3 0 0 1-2.31-.62 4.29 4.29 0 0 1-1.56-1.8 6.54 6.54 0 0 1-.54-2.78c0-1.1.18-2.03.54-2.8.37-.77.89-1.37 1.56-1.78a4.31 4.31 0 0 1 2.32-.62 4 4 0 0 1 2.34.68 3.28 3.28 0 0 1 1.34 1.84h-.24v-7.02h1.62v14.72h-1.6v-2.4h.22c-.22.8-.66 1.43-1.32 1.9-.67.45-1.46.68-2.36.68Zm.35-1.32c.94 0 1.7-.33 2.28-.98.57-.67.86-1.63.86-2.9 0-1.28-.3-2.25-.86-2.9-.58-.67-1.34-1-2.28-1-.95 0-1.71.33-2.28 1-.56.65-.84 1.62-.84 2.9 0 1.27.28 2.23.84 2.9.57.65 1.33.98 2.28.98Zm11.39 1.32c-1.19 0-2.09-.33-2.7-.98-.6-.65-.9-1.65-.9-3V99.7h1.62v6.2c0 .92.18 1.6.56 2.04.37.43.95.64 1.74.64.88 0 1.58-.29 2.12-.86.53-.57.8-1.34.8-2.3V99.7h1.62v10.04H82v-2.26h.26a3.58 3.58 0 0 1-3.54 2.44Zm12.22 0c-.99 0-1.85-.21-2.58-.64a4.35 4.35 0 0 1-1.68-1.82 6.28 6.28 0 0 1-.58-2.8c0-1.1.2-2.02.6-2.78.4-.77.96-1.36 1.68-1.76.73-.4 1.59-.6 2.56-.6.64 0 1.26.11 1.86.34.61.23 1.12.55 1.52.96l-.58 1.16a3.97 3.97 0 0 0-2.7-1.14c-1.04 0-1.85.33-2.42.98-.57.65-.86 1.6-.86 2.86 0 1.24.29 2.2.86 2.88a3 3 0 0 0 2.42 1.02 3.88 3.88 0 0 0 2.7-1.12l.58 1.14c-.41.43-.93.75-1.54.98-.61.23-1.23.34-1.84.34Zm9.24 0c-.98 0-1.74-.28-2.26-.84-.52-.57-.78-1.43-.78-2.58v-5.54h-1.96V99.7h1.96v-2.74l1.62-.46v3.2h2.88v1.26h-2.88v5.36c0 .8.14 1.37.4 1.72.28.33.7.5 1.24.5.26 0 .48-.02.68-.06.2-.05.38-.11.54-.18v1.36c-.18.08-.41.14-.68.18-.25.05-.5.08-.76.08Zm3.43-.18V99.7h1.63v10.04h-1.63Zm-.2-12.32V95.6h2v1.82h-2Zm9.1 12.5a4.28 4.28 0 0 1-4.16-2.42 6.23 6.23 0 0 1-.59-2.78c0-1.08.2-2 .58-2.78.39-.77.93-1.37 1.64-1.78a4.85 4.85 0 0 1 2.52-.64c.97 0 1.81.21 2.52.64.72.41 1.27 1 1.66 1.78.4.77.6 1.7.6 2.78 0 1.07-.2 2-.6 2.78a4.25 4.25 0 0 1-1.66 1.8 4.9 4.9 0 0 1-2.52.62Zm0-1.32c.95 0 1.71-.33 2.27-.98.56-.67.84-1.63.84-2.9 0-1.28-.29-2.25-.86-2.9a2.8 2.8 0 0 0-2.26-1c-.95 0-1.7.33-2.26 1-.56.65-.84 1.62-.84 2.9 0 1.27.28 2.23.84 2.9.56.65 1.31.98 2.26.98Zm7.3 1.14v-7.72a33.22 33.22 0 0 0-.16-2.32h1.56l.2 2.2h-.24c.29-.77.76-1.36 1.4-1.76.65-.41 1.4-.62 2.26-.62 1.18 0 2.08.32 2.68.96.61.63.92 1.62.92 2.98v6.28h-1.62v-6.18c0-.95-.2-1.63-.58-2.06-.38-.44-.96-.66-1.76-.66-.94 0-1.68.29-2.22.86a3.2 3.2 0 0 0-.82 2.3v5.74h-1.62Zm28.39.18a9.28 9.28 0 0 1-1.72-1.02c-.53-.41-.99-.81-1.36-1.2l.4.02a6 6 0 0 1-4.74 2.2c-.96 0-1.79-.15-2.48-.44-.68-.3-1.2-.73-1.58-1.26a3.24 3.24 0 0 1-.54-1.86c0-.92.27-1.7.8-2.34a10.1 10.1 0 0 1 2.28-1.92l.66-.42-.24.3a9.61 9.61 0 0 1-1.38-1.78 3.49 3.49 0 0 1-.42-1.64 2.91 2.91 0 0 1 1.66-2.7c.53-.27 1.16-.4 1.88-.4.9 0 1.66.26 2.26.78.61.5.92 1.2.92 2.08 0 .48-.1.93-.3 1.36-.19.41-.5.83-.96 1.24-.45.4-1.07.84-1.84 1.32l.04-.38 3.88 4.2h-.36c.35-.55.61-1.22.8-2.02.2-.81.31-1.67.34-2.56h1.42c-.03 1.1-.18 2.14-.46 3.1a9.87 9.87 0 0 1-1.12 2.52l-.04-.48a8.7 8.7 0 0 0 2.86 2.1l-.66 1.2Zm-7.36-1.32a4.52 4.52 0 0 0 3.76-1.88l-.04.46-4.34-4.64.62.02-.62.38c-.56.37-1.02.73-1.38 1.06-.36.33-.63.68-.8 1.04-.17.36-.26.77-.26 1.22 0 .73.26 1.3.78 1.72.53.41 1.3.62 2.28.62Zm.58-11.92c-.6 0-1.09.17-1.46.52a1.7 1.7 0 0 0-.56 1.34c0 .3.05.57.14.82.1.25.28.53.52.84.24.3.56.67.96 1.12l-.44.06a9.85 9.85 0 0 0 2-1.5c.43-.45.64-.95.64-1.48 0-.52-.17-.93-.5-1.24a1.76 1.76 0 0 0-1.3-.48ZM66.14 133.75v-14.1h5.74c1.48 0 2.62.36 3.42 1.08.8.7 1.2 1.7 1.2 2.96 0 1.24-.4 2.23-1.2 2.96-.8.72-1.94 1.08-3.42 1.08H67.8v6.02h-1.66Zm1.66-7.4h3.92c1.03 0 1.8-.23 2.32-.7.53-.47.8-1.12.8-1.96a2.5 2.5 0 0 0-.8-1.98c-.52-.47-1.3-.7-2.32-.7H67.8v5.34Zm14.88 7.58c-.96 0-1.8-.2-2.52-.62a4.3 4.3 0 0 1-1.64-1.8 6.24 6.24 0 0 1-.58-2.78c0-1.08.19-2 .58-2.78.38-.77.93-1.37 1.64-1.78a4.85 4.85 0 0 1 2.52-.64c.97 0 1.81.21 2.52.64.72.41 1.27 1 1.66 1.78.4.77.6 1.7.6 2.78 0 1.07-.2 2-.6 2.78a4.26 4.26 0 0 1-1.66 1.8 4.9 4.9 0 0 1-2.52.62Zm0-1.32c.96 0 1.72-.33 2.28-.98.56-.67.84-1.63.84-2.9 0-1.28-.29-2.25-.86-2.9a2.8 2.8 0 0 0-2.26-1c-.95 0-1.7.33-2.26 1-.56.65-.84 1.62-.84 2.9 0 1.27.28 2.23.84 2.9.56.65 1.31.98 2.26.98Zm10.64 1.32c-.8 0-1.54-.1-2.24-.32a4.84 4.84 0 0 1-1.72-.94l.56-1.14c.5.39 1.03.67 1.6.86.59.19 1.2.28 1.82.28.8 0 1.4-.14 1.8-.42.42-.3.62-.7.62-1.2 0-.39-.13-.7-.4-.92a2.7 2.7 0 0 0-1.26-.56l-1.86-.38c-.85-.19-1.5-.5-1.92-.94a2.41 2.41 0 0 1-.64-1.72c0-.59.16-1.1.46-1.54a3 3 0 0 1 1.34-1.06 5.78 5.78 0 0 1 4.08-.06c.63.21 1.15.53 1.56.94l-.58 1.12c-.4-.39-.86-.67-1.38-.86-.5-.2-1.03-.3-1.58-.3-.78 0-1.38.16-1.78.48-.38.3-.58.71-.58 1.22 0 .39.12.7.36.96.26.24.64.42 1.16.54l1.86.38c.9.2 1.58.51 2.02.94.46.41.68.97.68 1.68 0 .6-.16 1.13-.5 1.58-.33.44-.8.78-1.4 1.02-.58.24-1.28.36-2.08.36Zm10.05 0c-.99 0-1.74-.28-2.26-.84-.52-.57-.78-1.43-.78-2.58v-5.54h-1.96v-1.26h1.96v-2.74l1.62-.46v3.2h2.88v1.26h-2.88v5.36c0 .8.13 1.37.4 1.72.28.33.69.5 1.24.5.25 0 .48-.02.68-.06.2-.05.38-.11.54-.18v1.36a2.8 2.8 0 0 1-.68.18c-.26.05-.51.08-.76.08Zm3.1-5v-1.34h5.7v1.34h-5.7ZM40.65 157.75v-14.1h5.74c1.48 0 2.62.36 3.42 1.08.8.7 1.2 1.7 1.2 2.96 0 1.24-.4 2.23-1.2 2.96-.8.72-1.94 1.08-3.42 1.08h-4.08v6.02h-1.66Zm1.66-7.4h3.92c1.03 0 1.8-.23 2.32-.7.53-.47.8-1.12.8-1.96a2.5 2.5 0 0 0-.8-1.98c-.52-.47-1.3-.7-2.32-.7h-3.92v5.34Zm10.95 7.4v-7.62c0-.4-.01-.8-.04-1.22-.01-.41-.04-.81-.08-1.2h1.56l.2 2.44-.28.02a3.1 3.1 0 0 1 1.88-2.34c.46-.2.93-.3 1.42-.3.2 0 .38 0 .52.02.16.01.3.05.44.1l-.02 1.44a3.4 3.4 0 0 0-1.12-.16c-.58 0-1.1.14-1.54.42a2.82 2.82 0 0 0-1.3 2.48v5.92h-1.64Zm11.31.18c-.96 0-1.8-.2-2.52-.62a4.3 4.3 0 0 1-1.64-1.8 6.24 6.24 0 0 1-.58-2.78c0-1.08.2-2 .58-2.78.39-.77.93-1.37 1.64-1.78a4.85 4.85 0 0 1 2.52-.64c.97 0 1.81.21 2.52.64.72.41 1.27 1 1.66 1.78.4.77.6 1.7.6 2.78 0 1.07-.2 2-.6 2.78a4.26 4.26 0 0 1-1.66 1.8 4.9 4.9 0 0 1-2.52.62Zm0-1.32c.96 0 1.72-.33 2.28-.98.56-.67.84-1.63.84-2.9 0-1.28-.29-2.25-.86-2.9a2.8 2.8 0 0 0-2.26-1c-.95 0-1.7.33-2.26 1-.56.65-.84 1.62-.84 2.9 0 1.27.28 2.23.84 2.9.56.65 1.31.98 2.26.98Zm11.1 1.32c-.87 0-1.65-.2-2.31-.62a4.3 4.3 0 0 1-1.56-1.8 6.54 6.54 0 0 1-.54-2.78c0-1.1.18-2.03.54-2.8.37-.77.89-1.37 1.56-1.78a4.31 4.31 0 0 1 2.32-.62 4 4 0 0 1 2.34.68 3.28 3.28 0 0 1 1.34 1.84h-.24v-7.02h1.62v14.72h-1.6v-2.4h.22c-.22.8-.66 1.43-1.32 1.9a4.1 4.1 0 0 1-2.36.68Zm.35-1.32c.94 0 1.7-.33 2.28-.98.57-.67.86-1.63.86-2.9 0-1.28-.29-2.25-.86-2.9-.58-.67-1.34-1-2.28-1-.95 0-1.71.33-2.28 1-.56.65-.84 1.62-.84 2.9 0 1.27.28 2.23.84 2.9.57.65 1.33.98 2.28.98Zm11.39 1.32c-1.19 0-2.09-.33-2.7-.98-.6-.65-.9-1.65-.9-3v-6.24h1.62v6.2c0 .92.19 1.6.56 2.04.37.43.95.64 1.74.64.88 0 1.59-.29 2.12-.86.53-.57.8-1.34.8-2.3v-5.72h1.62v10.04h-1.58v-2.26h.26a3.59 3.59 0 0 1-3.54 2.44Zm12.22 0c-.98 0-1.84-.21-2.58-.64a4.36 4.36 0 0 1-1.68-1.82 6.29 6.29 0 0 1-.58-2.8c0-1.1.2-2.02.6-2.78.4-.77.96-1.36 1.68-1.76.74-.4 1.59-.6 2.56-.6.64 0 1.26.11 1.86.34.62.23 1.12.55 1.52.96l-.58 1.16a3.95 3.95 0 0 0-2.7-1.14c-1.04 0-1.84.33-2.42.98-.57.65-.86 1.6-.86 2.86 0 1.24.29 2.2.86 2.88a3 3 0 0 0 2.42 1.02 3.9 3.9 0 0 0 2.7-1.12l.58 1.14c-.41.43-.93.75-1.54.98-.61.23-1.22.34-1.84.34Zm9.24 0c-.98 0-1.74-.28-2.26-.84-.52-.57-.78-1.43-.78-2.58v-5.54h-1.96v-1.26h1.96v-2.74l1.62-.46v3.2h2.88v1.26h-2.88v5.36c0 .8.14 1.37.4 1.72.28.33.7.5 1.24.5.26 0 .48-.02.68-.06.2-.05.38-.11.54-.18v1.36c-.18.08-.4.14-.68.18-.25.05-.5.08-.76.08Zm3.44-.18v-10.04h1.62v10.04h-1.62Zm-.2-12.32v-1.82h2v1.82h-2Zm9.08 12.5c-.96 0-1.8-.2-2.52-.62a4.3 4.3 0 0 1-1.64-1.8 6.24 6.24 0 0 1-.58-2.78c0-1.08.2-2 .58-2.78.39-.77.94-1.37 1.64-1.78a4.85 4.85 0 0 1 2.52-.64c.98 0 1.82.21 2.52.64.72.41 1.28 1 1.66 1.78.4.77.6 1.7.6 2.78 0 1.07-.2 2-.6 2.78a4.25 4.25 0 0 1-1.66 1.8 4.9 4.9 0 0 1-2.52.62Zm0-1.32c.96 0 1.72-.33 2.28-.98.56-.67.84-1.63.84-2.9 0-1.28-.28-2.25-.86-2.9a2.8 2.8 0 0 0-2.26-1c-.94 0-1.7.33-2.26 1-.56.65-.84 1.62-.84 2.9 0 1.27.28 2.23.84 2.9.56.65 1.32.98 2.26.98Zm7.3 1.14v-7.72a33.27 33.27 0 0 0-.16-2.32h1.57l.2 2.2h-.24c.3-.77.76-1.36 1.4-1.76.65-.41 1.4-.62 2.26-.62 1.19 0 2.08.32 2.68.96.61.63.92 1.62.92 2.98v6.28h-1.62v-6.18c0-.95-.2-1.63-.58-2.06-.38-.44-.96-.66-1.76-.66-.94 0-1.67.29-2.22.86a3.2 3.2 0 0 0-.82 2.3v5.74h-1.62ZM44.48 181.76l6.22-14.1h1.44l6.32 14.1h-1.72l-1.76-4.02.74.42H47.1l.8-.42-1.72 4.02h-1.7Zm6.92-12.2-3.24 7.6-.48-.36h7.44l-.36.36-3.32-7.6h-.04Zm13.13 12.38c-.99 0-1.85-.21-2.58-.64a4.35 4.35 0 0 1-1.68-1.82 6.28 6.28 0 0 1-.58-2.8c0-1.1.2-2.02.6-2.78.4-.77.96-1.36 1.68-1.76.73-.4 1.59-.6 2.56-.6.64 0 1.26.11 1.86.34.61.23 1.12.55 1.52.96l-.58 1.16a3.97 3.97 0 0 0-2.7-1.14c-1.04 0-1.85.33-2.42.98-.57.65-.86 1.6-.86 2.86 0 1.24.29 2.2.86 2.88a3 3 0 0 0 2.42 1.02 3.88 3.88 0 0 0 2.7-1.12l.58 1.14c-.41.43-.93.75-1.54.98-.61.23-1.23.34-1.84.34Zm9.24 0c-.98 0-1.74-.28-2.26-.84-.52-.57-.78-1.43-.78-2.58v-5.54h-1.96v-1.26h1.96v-2.74l1.62-.46v3.2h2.88v1.26h-2.88v5.36c0 .8.14 1.37.4 1.72.28.33.7.5 1.24.5.26 0 .48-.02.68-.06.2-.05.38-.11.54-.18v1.36c-.18.08-.41.14-.68.18-.25.05-.5.08-.76.08Zm3.44-.18v-10.04h1.62v10.04H77.2Zm-.2-12.32v-1.82h2v1.82h-2Zm7.92 12.32-4.3-10.04h1.76l3.6 8.84h-.54l3.64-8.84h1.68l-4.3 10.04h-1.54Zm7.67 0v-10.04h1.62v10.04H92.6Zm-.2-12.32v-1.82h2v1.82h-2Zm8.52 12.5c-.99 0-1.74-.28-2.26-.84-.52-.57-.78-1.43-.78-2.58v-5.54h-1.96v-1.26h1.96v-2.74l1.62-.46v3.2h2.88v1.26H99.5v5.36c0 .8.13 1.37.4 1.72.28.33.7.5 1.24.5.25 0 .48-.02.68-.06.2-.05.38-.11.54-.18v1.36c-.19.08-.41.14-.68.18-.25.05-.5.08-.76.08Zm3.43-.18v-10.04h1.62v10.04h-1.62Zm-.2-12.32v-1.82h2v1.82h-2Zm9.43 12.5a5.03 5.03 0 0 1-3.72-1.36 5.2 5.2 0 0 1-1.36-3.82c0-1.05.2-1.97.6-2.74.4-.79.96-1.4 1.68-1.82a4.66 4.66 0 0 1 2.48-.66c.92 0 1.7.2 2.32.58.63.39 1.1.94 1.44 1.66.33.7.5 1.55.5 2.52v.6h-7.78v-1.02h6.72l-.34.26a3.9 3.9 0 0 0-.72-2.5c-.48-.6-1.2-.9-2.14-.9-1 0-1.78.35-2.34 1.06-.56.7-.84 1.63-.84 2.82v.18c0 1.25.3 2.2.92 2.86.63.64 1.5.96 2.62.96a4.7 4.7 0 0 0 3.2-1.16l.56 1.14c-.44.43-1 .76-1.68 1-.67.23-1.37.34-2.12.34Zm9.76 0c-.8 0-1.55-.1-2.24-.32a4.82 4.82 0 0 1-1.72-.94l.56-1.14c.5.39 1.03.67 1.6.86.58.19 1.2.28 1.82.28.8 0 1.4-.14 1.8-.42.41-.3.62-.7.62-1.2 0-.39-.14-.7-.4-.92a2.72 2.72 0 0 0-1.26-.56l-1.86-.38c-.86-.19-1.5-.5-1.92-.94a2.4 2.4 0 0 1-.64-1.72c0-.59.15-1.1.46-1.54a3 3 0 0 1 1.34-1.06 5.8 5.8 0 0 1 4.08-.06c.63.21 1.14.53 1.56.94l-.58 1.12c-.4-.39-.86-.67-1.38-.86-.5-.2-1.04-.3-1.58-.3-.79 0-1.38.16-1.78.48-.39.3-.58.71-.58 1.22 0 .39.12.7.36.96.25.24.64.42 1.16.54l1.86.38c.9.2 1.58.51 2.02.94.45.41.68.97.68 1.68 0 .6-.17 1.13-.5 1.58-.33.44-.8.78-1.4 1.02-.59.24-1.28.36-2.08.36ZM414.94 157.75v-14.1h5.76c1.48 0 2.63.35 3.44 1.06.81.7 1.22 1.67 1.22 2.92 0 .83-.19 1.53-.56 2.12a3.5 3.5 0 0 1-1.54 1.32c-.65.3-1.42.46-2.3.46l.36-.26h.4c.55 0 1.03.13 1.46.4.44.27.79.71 1.04 1.34l2 4.74h-1.82l-1.92-4.66c-.23-.6-.57-.99-1.02-1.16a4.48 4.48 0 0 0-1.7-.28h-3.16v6.1h-1.66Zm1.66-7.4h3.86c1.07 0 1.87-.23 2.42-.68.56-.47.84-1.13.84-2 0-.87-.28-1.53-.84-1.98-.55-.45-1.35-.68-2.42-.68h-3.86v5.34Zm12 7.4v-10.04h1.63v10.04h-1.62Zm-.2-12.32v-1.82h2v1.82h-2Zm8.31 12.5c-.8 0-1.54-.1-2.24-.32a4.84 4.84 0 0 1-1.72-.94l.56-1.14c.5.39 1.03.67 1.6.86.59.19 1.2.28 1.82.28.8 0 1.4-.14 1.8-.42.42-.3.62-.7.62-1.2 0-.39-.13-.7-.4-.92a2.7 2.7 0 0 0-1.26-.56l-1.86-.38c-.85-.19-1.49-.5-1.92-.94a2.4 2.4 0 0 1-.64-1.72c0-.59.16-1.1.46-1.54a3 3 0 0 1 1.34-1.06 5.78 5.78 0 0 1 4.08-.06c.63.21 1.15.53 1.56.94l-.58 1.12c-.4-.39-.86-.67-1.38-.86-.5-.2-1.03-.3-1.58-.3-.78 0-1.38.16-1.78.48-.38.3-.58.71-.58 1.22 0 .39.12.7.36.96.26.24.64.42 1.16.54l1.86.38c.91.2 1.58.51 2.02.94.46.41.68.97.68 1.68 0 .6-.16 1.13-.5 1.58-.33.44-.8.78-1.4 1.02-.58.24-1.28.36-2.08.36Zm6.59-.18v-14.72h1.62v9.14h.03l4.67-4.46h2.03l-5.5 5.24.05-.82 5.98 5.62h-2.1l-5.13-4.72h-.03v4.72h-1.63ZM377.02 181.75l6.22-14.1h1.44l6.32 14.1h-1.72l-1.76-4.02.74.42h-8.62l.8-.42-1.72 4.02h-1.7Zm6.92-12.2-3.24 7.6-.48-.36h7.44l-.36.36-3.32-7.6h-.04Zm12.23 12.38c-.8 0-1.55-.1-2.24-.32a4.84 4.84 0 0 1-1.72-.94l.56-1.14c.5.39 1.03.67 1.6.86.59.19 1.2.28 1.82.28.8 0 1.4-.14 1.8-.42.41-.3.62-.7.62-1.2 0-.39-.13-.7-.4-.92a2.7 2.7 0 0 0-1.26-.56l-1.86-.38c-.85-.19-1.5-.5-1.92-.94a2.4 2.4 0 0 1-.64-1.72c0-.59.15-1.1.46-1.54a3 3 0 0 1 1.34-1.06 5.78 5.78 0 0 1 4.08-.06c.63.21 1.15.53 1.56.94l-.58 1.12c-.4-.39-.86-.67-1.38-.86-.5-.2-1.03-.3-1.58-.3-.79 0-1.38.16-1.78.48-.39.3-.58.71-.58 1.22 0 .39.12.7.36.96.25.24.64.42 1.16.54l1.86.38c.9.2 1.58.51 2.02.94.45.41.68.97.68 1.68 0 .6-.17 1.13-.5 1.58-.33.44-.8.78-1.4 1.02-.59.24-1.28.36-2.08.36Zm9.92 0c-.8 0-1.54-.1-2.24-.32a4.84 4.84 0 0 1-1.72-.94l.56-1.14c.5.39 1.03.67 1.6.86.59.19 1.2.28 1.82.28.8 0 1.4-.14 1.8-.42.41-.3.62-.7.62-1.2 0-.39-.13-.7-.4-.92a2.7 2.7 0 0 0-1.26-.56l-1.86-.38c-.85-.19-1.5-.5-1.92-.94a2.4 2.4 0 0 1-.64-1.72c0-.59.16-1.1.46-1.54a3 3 0 0 1 1.34-1.06 5.78 5.78 0 0 1 4.08-.06c.63.21 1.15.53 1.56.94l-.58 1.12c-.4-.39-.86-.67-1.38-.86-.5-.2-1.03-.3-1.58-.3-.79 0-1.38.16-1.78.48-.38.3-.58.71-.58 1.22 0 .39.12.7.36.96.25.24.64.42 1.16.54l1.86.38c.9.2 1.58.51 2.02.94.46.41.68.97.68 1.68 0 .6-.17 1.13-.5 1.58-.33.44-.8.78-1.4 1.02-.59.24-1.28.36-2.08.36Zm11.04 0a5.02 5.02 0 0 1-3.72-1.36 5.2 5.2 0 0 1-1.36-3.82c0-1.05.2-1.97.6-2.74.4-.79.96-1.4 1.68-1.82a4.66 4.66 0 0 1 2.48-.66c.92 0 1.7.2 2.32.58.63.39 1.11.94 1.44 1.66.34.7.5 1.55.5 2.52v.6h-7.78v-1.02h6.72l-.34.26a3.9 3.9 0 0 0-.72-2.5c-.48-.6-1.19-.9-2.14-.9-1 0-1.78.35-2.34 1.06-.56.7-.84 1.63-.84 2.82v.18c0 1.25.31 2.2.92 2.86.63.64 1.5.96 2.62.96.6 0 1.16-.09 1.68-.26a4.73 4.73 0 0 0 1.52-.9l.56 1.14c-.44.43-1 .76-1.68 1-.66.23-1.37.34-2.12.34Zm9.76 0c-.8 0-1.54-.1-2.24-.32a4.83 4.83 0 0 1-1.72-.94l.56-1.14c.5.39 1.03.67 1.6.86.59.19 1.2.28 1.82.28.8 0 1.4-.14 1.8-.42.42-.3.62-.7.62-1.2 0-.39-.13-.7-.4-.92a2.72 2.72 0 0 0-1.26-.56l-1.86-.38c-.85-.19-1.5-.5-1.92-.94a2.4 2.4 0 0 1-.64-1.72c0-.59.16-1.1.46-1.54a3 3 0 0 1 1.34-1.06 5.78 5.78 0 0 1 4.08-.06c.63.21 1.15.53 1.56.94l-.58 1.12a4.27 4.27 0 0 0-2.96-1.16c-.78 0-1.38.16-1.78.48-.38.3-.58.71-.58 1.22 0 .39.12.7.36.96.26.24.64.42 1.16.54l1.86.38c.9.2 1.58.51 2.02.94.46.41.68.97.68 1.68 0 .6-.16 1.13-.5 1.58-.33.44-.8.78-1.4 1.02-.58.24-1.28.36-2.08.36Zm9.93 0c-.8 0-1.55-.1-2.25-.32a4.83 4.83 0 0 1-1.71-.94l.56-1.14c.49.39 1.02.67 1.6.86.58.19 1.19.28 1.81.28.8 0 1.4-.14 1.8-.42.42-.3.63-.7.63-1.2 0-.39-.14-.7-.4-.92a2.72 2.72 0 0 0-1.26-.56l-1.87-.38c-.85-.19-1.49-.5-1.92-.94a2.4 2.4 0 0 1-.63-1.72c0-.59.15-1.1.45-1.54a3 3 0 0 1 1.35-1.06 5.78 5.78 0 0 1 4.08-.06c.62.21 1.14.53 1.56.94l-.58 1.12c-.4-.39-.87-.67-1.39-.86-.5-.2-1.03-.3-1.57-.3-.8 0-1.38.16-1.78.48-.4.3-.59.71-.59 1.22 0 .39.13.7.37.96.25.24.63.42 1.16.54l1.86.38c.9.2 1.57.51 2.01.94.46.41.69.97.69 1.68 0 .6-.17 1.13-.5 1.58-.34.44-.8.78-1.4 1.02-.6.24-1.28.36-2.08.36Zm6.58-.18v-7.72a31.07 31.07 0 0 0-.16-2.32h1.56l.2 2.2h-.24c.26-.76.68-1.35 1.26-1.76a3.6 3.6 0 0 1 2.12-.62c.84 0 1.52.2 2.04.6.53.4.89 1.02 1.08 1.86h-.3c.25-.76.7-1.36 1.34-1.8a3.86 3.86 0 0 1 2.24-.66c1.1 0 1.94.32 2.5.96.56.63.84 1.62.84 2.98v6.28h-1.62v-6.18c0-.95-.17-1.63-.5-2.06-.34-.44-.87-.66-1.6-.66-.84 0-1.51.3-2 .88a3.5 3.5 0 0 0-.72 2.32v5.7h-1.62v-6.18c0-.95-.17-1.63-.5-2.06-.34-.44-.87-.66-1.6-.66-.84 0-1.5.3-1.98.88a3.5 3.5 0 0 0-.72 2.32v5.7h-1.62Zm22.02.18a5.03 5.03 0 0 1-3.73-1.36 5.2 5.2 0 0 1-1.36-3.82c0-1.05.2-1.97.6-2.74.4-.79.96-1.4 1.69-1.82a4.66 4.66 0 0 1 2.48-.66c.91 0 1.69.2 2.31.58.63.39 1.11.94 1.44 1.66.34.7.5 1.55.5 2.52v.6h-7.78v-1.02h6.73l-.35.26a3.9 3.9 0 0 0-.71-2.5c-.49-.6-1.2-.9-2.14-.9-1 0-1.79.35-2.35 1.06-.56.7-.83 1.63-.83 2.82v.18c0 1.25.3 2.2.91 2.86.63.64 1.5.96 2.63.96.6 0 1.16-.09 1.68-.26a4.73 4.73 0 0 0 1.51-.9l.56 1.14c-.44.43-1 .76-1.67 1-.67.23-1.38.34-2.13.34Zm6.41-.18v-7.72a33.27 33.27 0 0 0-.16-2.32h1.56l.2 2.2h-.24c.3-.77.76-1.36 1.4-1.76.66-.41 1.41-.62 2.26-.62 1.2 0 2.08.32 2.68.96.62.63.92 1.62.92 2.98v6.28h-1.62v-6.18c0-.95-.19-1.63-.58-2.06-.37-.44-.96-.66-1.76-.66-.93 0-1.67.29-2.22.86a3.2 3.2 0 0 0-.82 2.3v5.74h-1.62Zm15.28.18c-.98 0-1.74-.28-2.26-.84-.52-.57-.78-1.43-.78-2.58v-5.54h-1.96v-1.26h1.96v-2.74l1.62-.46v3.2h2.88v1.26h-2.88v5.36c0 .8.14 1.37.4 1.72.28.33.7.5 1.24.5.26 0 .48-.02.68-.06.2-.05.38-.11.54-.18v1.36a2.8 2.8 0 0 1-.68.18c-.25.05-.5.08-.76.08ZM70.46 277.75v-14.1h5.76c1.48 0 2.63.35 3.44 1.06.82.7 1.22 1.67 1.22 2.92 0 .83-.18 1.53-.56 2.12a3.49 3.49 0 0 1-1.54 1.32c-.65.3-1.42.46-2.3.46l.36-.26h.4c.55 0 1.04.13 1.46.4.44.27.79.71 1.04 1.34l2 4.74h-1.82L78 273.09c-.22-.6-.56-.99-1.02-1.16a4.48 4.48 0 0 0-1.7-.28h-3.16v6.1h-1.66Zm1.66-7.4h3.86c1.07 0 1.88-.23 2.42-.68.56-.47.84-1.13.84-2 0-.87-.28-1.53-.84-1.98-.54-.45-1.35-.68-2.42-.68h-3.86v5.34Zm12.01 7.4v-10.04h1.62v10.04h-1.62Zm-.2-12.32v-1.82h2v1.82h-2Zm8.3 12.5c-.8 0-1.54-.1-2.23-.32a4.84 4.84 0 0 1-1.72-.94l.56-1.14c.49.39 1.02.67 1.6.86.58.19 1.19.28 1.82.28.8 0 1.4-.14 1.8-.42.41-.3.62-.7.62-1.2 0-.39-.14-.7-.4-.92a2.7 2.7 0 0 0-1.26-.56l-1.86-.38c-.86-.19-1.5-.5-1.92-.94a2.41 2.41 0 0 1-.64-1.72c0-.59.15-1.1.46-1.54a3 3 0 0 1 1.34-1.06 5.78 5.78 0 0 1 4.08-.06c.62.21 1.14.53 1.56.94l-.58 1.12c-.4-.39-.86-.67-1.38-.86-.51-.2-1.04-.3-1.58-.3-.79 0-1.38.16-1.78.48-.39.3-.58.71-.58 1.22 0 .39.12.7.36.96.25.24.64.42 1.16.54l1.86.38c.9.2 1.58.51 2.02.94.45.41.68.97.68 1.68 0 .6-.17 1.13-.5 1.58-.34.44-.8.78-1.4 1.02-.59.24-1.28.36-2.08.36Zm6.59-.18v-14.72h1.62v9.14h.04l4.66-4.46h2.04l-5.5 5.24.04-.82 5.98 5.62h-2.1l-5.12-4.72h-.04v4.72h-1.62ZM30.38 301.75v-14.1h1.44l5.66 12.78h-.58l5.66-12.78H44v14.1h-1.52v-11.96h.6l-5.34 11.96h-1.1l-5.36-11.96h.6v11.96h-1.5Zm20.79.18c-.9 0-1.67-.2-2.34-.62a4.3 4.3 0 0 1-1.56-1.8 6.54 6.54 0 0 1-.54-2.78c0-1.1.18-2.03.54-2.8.37-.77.9-1.37 1.56-1.78a4.35 4.35 0 0 1 2.34-.62c.9 0 1.69.23 2.34.7.67.45 1.1 1.07 1.32 1.86h-.24l.22-2.38h1.56l-.12 1.18c-.03.39-.04.77-.04 1.14v7.72h-1.62v-2.36h.22c-.21.79-.65 1.4-1.32 1.86-.67.45-1.44.68-2.32.68Zm.32-1.32c.96 0 1.72-.33 2.28-.98.56-.67.84-1.63.84-2.9 0-1.28-.28-2.25-.84-2.9-.56-.67-1.32-1-2.28-1-.95 0-1.7.33-2.28 1-.56.65-.84 1.62-.84 2.9 0 1.27.28 2.23.84 2.9.57.65 1.33.98 2.28.98Zm7.85 1.14v-7.72a32.35 32.35 0 0 0-.16-2.32h1.56l.2 2.2h-.24c.3-.77.76-1.36 1.4-1.76.66-.41 1.4-.62 2.26-.62 1.19 0 2.08.32 2.68.96.62.63.92 1.62.92 2.98v6.28h-1.62v-6.18c0-.95-.2-1.63-.58-2.06-.37-.44-.96-.66-1.76-.66-.93 0-1.67.29-2.22.86a3.2 3.2 0 0 0-.82 2.3v5.74h-1.62Zm15.54.18c-.9 0-1.67-.2-2.34-.62a4.3 4.3 0 0 1-1.56-1.8 6.54 6.54 0 0 1-.54-2.78c0-1.1.18-2.03.54-2.8.37-.77.9-1.37 1.56-1.78a4.35 4.35 0 0 1 2.34-.62c.9 0 1.69.23 2.34.7.67.45 1.1 1.07 1.32 1.86h-.24l.22-2.38h1.56l-.12 1.18c-.03.39-.04.77-.04 1.14v7.72H78.3v-2.36h.22c-.21.79-.65 1.4-1.32 1.86-.67.45-1.44.68-2.32.68Zm.32-1.32c.96 0 1.72-.33 2.28-.98.56-.67.84-1.63.84-2.9 0-1.28-.28-2.25-.84-2.9-.56-.67-1.32-1-2.28-1-.95 0-1.7.33-2.28 1-.56.65-.84 1.62-.84 2.9 0 1.27.28 2.23.84 2.9.57.65 1.33.98 2.28.98Zm12.27 5.6c-.86 0-1.66-.1-2.4-.32a6.1 6.1 0 0 1-1.98-.98l.48-1.22a5.81 5.81 0 0 0 2.46 1.08c.43.1.88.14 1.36.14.99 0 1.74-.26 2.24-.78.5-.52.76-1.26.76-2.22v-2.94h.2a3.27 3.27 0 0 1-1.32 1.88c-.66.45-1.44.68-2.34.68-.92 0-1.72-.2-2.4-.6a4.2 4.2 0 0 1-1.56-1.74 6.2 6.2 0 0 1-.54-2.68c0-1.01.18-1.9.54-2.64.38-.75.9-1.32 1.56-1.72a4.53 4.53 0 0 1 2.4-.62 4 4 0 0 1 2.34.68 3.2 3.2 0 0 1 1.32 1.88l-.2-.2.18-2.18h1.58a16.77 16.77 0 0 0-.16 2.32v7.66c0 1.5-.38 2.62-1.16 3.38-.76.76-1.88 1.14-3.36 1.14Zm-.24-6a2.9 2.9 0 0 0 2.3-.96c.56-.65.84-1.57.84-2.74a4 4 0 0 0-.84-2.72 2.9 2.9 0 0 0-2.3-.96c-.96 0-1.72.32-2.3.96a3.94 3.94 0 0 0-.86 2.72c0 1.17.29 2.09.86 2.74.58.64 1.34.96 2.3.96Zm12.33 1.72a5.03 5.03 0 0 1-3.72-1.36 5.2 5.2 0 0 1-1.36-3.82c0-1.05.2-1.97.6-2.74.4-.79.96-1.4 1.68-1.82a4.66 4.66 0 0 1 2.48-.66c.92 0 1.7.2 2.32.58.63.39 1.11.94 1.44 1.66.34.7.5 1.55.5 2.52v.6h-7.78v-1.02h6.72l-.34.26a3.9 3.9 0 0 0-.72-2.5c-.48-.6-1.19-.9-2.14-.9-1 0-1.78.35-2.34 1.06-.56.7-.84 1.63-.84 2.82v.18c0 1.25.31 2.2.92 2.86.63.64 1.5.96 2.62.96a4.72 4.72 0 0 0 3.2-1.16l.56 1.14c-.44.43-1 .76-1.68 1-.66.23-1.37.34-2.12.34Zm6.42-.18v-7.72a31.07 31.07 0 0 0-.16-2.32h1.56l.2 2.2h-.24c.27-.76.69-1.35 1.26-1.76a3.6 3.6 0 0 1 2.12-.62c.84 0 1.52.2 2.04.6.54.4.9 1.02 1.08 1.86h-.3c.26-.76.7-1.36 1.34-1.8a3.86 3.86 0 0 1 2.24-.66c1.1 0 1.94.32 2.5.96.56.63.84 1.62.84 2.98v6.28h-1.62v-6.18c0-.95-.16-1.63-.5-2.06-.33-.44-.86-.66-1.6-.66-.84 0-1.5.3-2 .88a3.5 3.5 0 0 0-.72 2.32v5.7h-1.62v-6.18c0-.95-.16-1.63-.5-2.06-.33-.44-.86-.66-1.6-.66-.84 0-1.5.3-1.98.88a3.5 3.5 0 0 0-.72 2.32v5.7h-1.62Zm22.02.18a5.03 5.03 0 0 1-3.72-1.36 5.2 5.2 0 0 1-1.36-3.82c0-1.05.2-1.97.6-2.74.4-.79.96-1.4 1.68-1.82a4.66 4.66 0 0 1 2.48-.66c.92 0 1.7.2 2.32.58.63.39 1.1.94 1.44 1.66.33.7.5 1.55.5 2.52v.6h-7.78v-1.02h6.72l-.34.26a3.9 3.9 0 0 0-.72-2.5c-.48-.6-1.2-.9-2.14-.9-1 0-1.78.35-2.34 1.06-.56.7-.84 1.63-.84 2.82v.18c0 1.25.3 2.2.92 2.86.63.64 1.5.96 2.62.96.6 0 1.16-.09 1.68-.26a4.73 4.73 0 0 0 1.52-.9l.56 1.14c-.44.43-1 .76-1.68 1-.67.23-1.37.34-2.12.34Zm6.42-.18v-7.72a33.27 33.27 0 0 0-.16-2.32h1.56l.2 2.2h-.24c.3-.77.76-1.36 1.4-1.76.65-.41 1.4-.62 2.26-.62 1.19 0 2.08.32 2.68.96.61.63.92 1.62.92 2.98v6.28h-1.62v-6.18c0-.95-.2-1.63-.58-2.06-.37-.44-.96-.66-1.76-.66-.93 0-1.67.29-2.22.86a3.2 3.2 0 0 0-.82 2.3v5.74h-1.62Zm15.28.18c-.99 0-1.74-.28-2.26-.84-.52-.57-.78-1.43-.78-2.58v-5.54h-1.96v-1.26h1.96v-2.74l1.62-.46v3.2h2.88v1.26h-2.88v5.36c0 .8.13 1.37.4 1.72.28.33.7.5 1.24.5.25 0 .48-.02.68-.06.2-.05.38-.11.54-.18v1.36a2.8 2.8 0 0 1-.68.18c-.25.05-.5.08-.76.08ZM57.8 325.75v-14.1h5.75c1.48 0 2.63.35 3.44 1.06.81.7 1.22 1.67 1.22 2.92 0 .83-.19 1.53-.56 2.12a3.49 3.49 0 0 1-1.54 1.32c-.65.3-1.42.46-2.3.46l.36-.26h.4c.55 0 1.03.13 1.46.4.44.27.79.71 1.04 1.34l2 4.74h-1.82l-1.92-4.66c-.23-.6-.57-.99-1.02-1.16a4.48 4.48 0 0 0-1.7-.28h-3.16v6.1H57.8Zm1.65-7.4h3.86c1.07 0 1.87-.23 2.42-.68.56-.47.84-1.13.84-2 0-.87-.28-1.53-.84-1.98-.55-.45-1.35-.68-2.42-.68h-3.86v5.34Zm16.25 7.58a5.03 5.03 0 0 1-3.72-1.36 5.2 5.2 0 0 1-1.36-3.82c0-1.05.2-1.97.6-2.74.4-.79.96-1.4 1.68-1.82a4.66 4.66 0 0 1 2.48-.66c.92 0 1.7.2 2.32.58.63.39 1.11.94 1.44 1.66.34.7.5 1.55.5 2.52v.6h-7.78v-1.02h6.72l-.34.26a3.9 3.9 0 0 0-.72-2.5c-.48-.6-1.19-.9-2.14-.9-1 0-1.78.35-2.34 1.06-.56.7-.84 1.63-.84 2.82v.18c0 1.25.31 2.2.92 2.86.63.64 1.5.96 2.62.96.6 0 1.16-.09 1.68-.26a4.73 4.73 0 0 0 1.52-.9l.56 1.14c-.44.43-1 .76-1.68 1-.66.23-1.37.34-2.12.34Zm9.27-.18-4.3-10.04h1.76l3.6 8.84h-.54l3.64-8.84h1.68l-4.3 10.04h-1.54Zm7.66 0v-10.04h1.62v10.04h-1.62Zm-.2-12.32v-1.82h2v1.82h-2Zm9.43 12.5a5.03 5.03 0 0 1-3.72-1.36 5.2 5.2 0 0 1-1.36-3.82c0-1.05.2-1.97.6-2.74.4-.79.96-1.4 1.68-1.82a4.66 4.66 0 0 1 2.48-.66c.92 0 1.69.2 2.32.58.62.39 1.1.94 1.44 1.66.33.7.5 1.55.5 2.52v.6h-7.78v-1.02h6.72l-.34.26a3.9 3.9 0 0 0-.72-2.5c-.48-.6-1.2-.9-2.14-.9-1 0-1.78.35-2.34 1.06-.56.7-.84 1.63-.84 2.82v.18c0 1.25.3 2.2.92 2.86.62.64 1.5.96 2.62.96a4.72 4.72 0 0 0 3.2-1.16l.56 1.14c-.44.43-1 .76-1.68 1-.67.23-1.38.34-2.12.34Zm8.98-.18-3.72-10.04h1.72l3.1 8.84h-.52l3.2-8.84h1.4l3.14 8.84h-.5l3.12-8.84h1.64l-3.74 10.04h-1.56l-3.24-8.98h.8l-3.26 8.98h-1.58ZM380.02 277.75v-14.1h5.76c1.48 0 2.63.35 3.44 1.06.81.7 1.22 1.67 1.22 2.92 0 .83-.19 1.53-.56 2.12a3.5 3.5 0 0 1-1.54 1.32c-.65.3-1.42.46-2.3.46l.36-.26h.4c.55 0 1.03.13 1.46.4.44.27.79.71 1.04 1.34l2 4.74h-1.82l-1.92-4.66c-.23-.6-.56-.99-1.02-1.16a4.48 4.48 0 0 0-1.7-.28h-3.16v6.1h-1.66Zm1.66-7.4h3.86c1.07 0 1.88-.23 2.42-.68.56-.47.84-1.13.84-2 0-.87-.28-1.53-.84-1.98-.54-.45-1.35-.68-2.42-.68h-3.86v5.34Zm12 7.4v-10.04h1.63v10.04h-1.62Zm-.2-12.32v-1.82h2v1.82h-2Zm8.31 12.5c-.8 0-1.54-.1-2.24-.32a4.84 4.84 0 0 1-1.72-.94l.56-1.14c.5.39 1.03.67 1.6.86.6.19 1.2.28 1.82.28.8 0 1.4-.14 1.8-.42.42-.3.63-.7.63-1.2 0-.39-.14-.7-.4-.92a2.7 2.7 0 0 0-1.26-.56l-1.87-.38c-.85-.19-1.49-.5-1.91-.94a2.4 2.4 0 0 1-.65-1.72c0-.59.16-1.1.47-1.54a3 3 0 0 1 1.33-1.06 5.78 5.78 0 0 1 4.08-.06c.63.21 1.15.53 1.57.94l-.59 1.12c-.4-.39-.86-.67-1.38-.86-.5-.2-1.03-.3-1.57-.3-.8 0-1.38.16-1.79.48-.38.3-.57.71-.57 1.22 0 .39.12.7.36.96.25.24.63.42 1.15.54l1.87.38c.9.2 1.57.51 2.02.94.45.41.67.97.67 1.68 0 .6-.16 1.13-.5 1.58-.33.44-.8.78-1.4 1.02-.58.24-1.27.36-2.07.36Zm6.59-.18v-14.72H410v9.14h.04l4.66-4.46h2.04l-5.5 5.24.04-.82 5.98 5.62h-2.1l-5.12-4.72H410v4.72h-1.62Zm21.82.18c-1.4 0-2.6-.3-3.6-.88a5.84 5.84 0 0 1-2.28-2.5 8.82 8.82 0 0 1-.77-3.86c0-1.5.25-2.77.77-3.84a5.84 5.84 0 0 1 2.29-2.5 6.92 6.92 0 0 1 3.6-.88c1 0 1.89.15 2.68.46.78.3 1.47.75 2.06 1.34l-.63 1.32a6.8 6.8 0 0 0-1.9-1.22 5.58 5.58 0 0 0-2.2-.4c-1.6 0-2.84.5-3.68 1.5-.84 1-1.25 2.4-1.25 4.22 0 1.81.41 3.23 1.25 4.24.84 1 2.07 1.5 3.69 1.5.83 0 1.57-.13 2.2-.38a7.03 7.03 0 0 0 1.9-1.26l.62 1.34a6.34 6.34 0 0 1-4.75 1.8Zm10.77 0c-.96 0-1.8-.2-2.52-.62a4.3 4.3 0 0 1-1.64-1.8 6.24 6.24 0 0 1-.58-2.78c0-1.08.2-2 .58-2.78.39-.77.94-1.37 1.64-1.78a4.85 4.85 0 0 1 2.52-.64c.98 0 1.82.21 2.52.64.72.41 1.28 1 1.66 1.78.4.77.6 1.7.6 2.78 0 1.07-.2 2-.6 2.78a4.25 4.25 0 0 1-1.66 1.8 4.9 4.9 0 0 1-2.52.62Zm0-1.32c.96 0 1.72-.33 2.28-.98.56-.67.84-1.63.84-2.9 0-1.28-.28-2.25-.86-2.9a2.8 2.8 0 0 0-2.26-1c-.94 0-1.7.33-2.26 1-.56.65-.84 1.62-.84 2.9 0 1.27.28 2.23.84 2.9.56.65 1.32.98 2.26.98Zm7.3 1.14v-7.72a31.07 31.07 0 0 0-.16-2.32h1.57l.2 2.2h-.24c.3-.77.76-1.36 1.4-1.76.65-.41 1.4-.62 2.26-.62 1.19 0 2.08.32 2.68.96.61.63.92 1.62.92 2.98v6.28h-1.62v-6.18c0-.95-.2-1.63-.58-2.06-.37-.44-.96-.66-1.76-.66-.93 0-1.67.29-2.22.86a3.2 3.2 0 0 0-.82 2.3v5.74h-1.62Zm15.29.18c-.99 0-1.74-.28-2.26-.84-.52-.57-.78-1.43-.78-2.58v-5.54h-1.96v-1.26h1.96v-2.74l1.62-.46v3.2h2.88v1.26h-2.88v5.36c0 .8.13 1.37.4 1.72.28.33.7.5 1.24.5.25 0 .48-.02.68-.06.2-.05.38-.11.54-.18v1.36c-.19.08-.42.14-.68.18-.25.05-.5.08-.76.08Zm3.39-.18v-7.62c0-.4-.01-.8-.04-1.22-.01-.41-.04-.81-.08-1.2h1.56l.2 2.44-.28.02a3.1 3.1 0 0 1 1.88-2.34c.45-.2.93-.3 1.42-.3.2 0 .37 0 .52.02.16.01.3.05.44.1l-.02 1.44a3.41 3.41 0 0 0-1.12-.16c-.59 0-1.1.14-1.54.42a2.82 2.82 0 0 0-1.3 2.48v5.92h-1.64Zm11.3.18a4.29 4.29 0 0 1-4.16-2.42 6.23 6.23 0 0 1-.57-2.78c0-1.08.2-2 .58-2.78.38-.77.93-1.37 1.64-1.78a4.85 4.85 0 0 1 2.52-.64c.97 0 1.81.21 2.52.64.72.41 1.27 1 1.66 1.78.4.77.6 1.7.6 2.78 0 1.07-.2 2-.6 2.78a4.26 4.26 0 0 1-1.66 1.8 4.9 4.9 0 0 1-2.52.62Zm0-1.32c.97 0 1.73-.33 2.29-.98.56-.67.84-1.63.84-2.9 0-1.28-.29-2.25-.86-2.9a2.8 2.8 0 0 0-2.26-1c-.95 0-1.7.33-2.26 1-.56.65-.84 1.62-.84 2.9 0 1.27.28 2.23.84 2.9.56.65 1.31.98 2.26.98Zm7.31 1.14v-14.72h1.62v14.72h-1.62ZM206.36 361.75v-14.1h9v1.36h-7.38v4.9h6.94v1.38h-6.94v5.08h7.38v1.38h-9Zm14.36 0-4.3-10.04h1.76l3.6 8.84h-.54l3.64-8.84h1.68l-4.3 10.04h-1.54Zm11.3.18c-.9 0-1.68-.2-2.35-.62a4.31 4.31 0 0 1-1.56-1.8 6.54 6.54 0 0 1-.54-2.78c0-1.1.18-2.03.54-2.8.38-.77.9-1.37 1.56-1.78a4.35 4.35 0 0 1 2.34-.62c.91 0 1.69.23 2.34.7.67.45 1.11 1.07 1.32 1.86h-.24l.22-2.38h1.56l-.12 1.18c-.02.39-.04.77-.04 1.14v7.72h-1.62v-2.36h.22c-.21.79-.65 1.4-1.32 1.86-.66.45-1.44.68-2.32.68Zm.31-1.32c.96 0 1.72-.33 2.28-.98.56-.67.84-1.63.84-2.9 0-1.28-.28-2.25-.84-2.9-.56-.67-1.32-1-2.28-1-.94 0-1.7.33-2.28 1-.56.65-.84 1.62-.84 2.9 0 1.27.28 2.23.84 2.9.58.65 1.34.98 2.28.98Zm7.85 1.14v-14.72h1.63v14.72h-1.63Zm8.31.18c-1.19 0-2.09-.33-2.7-.98-.6-.65-.9-1.65-.9-3v-6.24h1.62v6.2c0 .92.19 1.6.56 2.04.37.43.95.64 1.74.64.88 0 1.59-.29 2.12-.86.53-.57.8-1.34.8-2.3v-5.72h1.62v10.04h-1.58v-2.26h.26a3.58 3.58 0 0 1-3.54 2.44Zm11.82 0c-.89 0-1.67-.2-2.34-.62a4.3 4.3 0 0 1-1.56-1.8 6.54 6.54 0 0 1-.54-2.78c0-1.1.18-2.03.54-2.8.38-.77.9-1.37 1.56-1.78a4.35 4.35 0 0 1 2.34-.62c.91 0 1.7.23 2.34.7.67.45 1.11 1.07 1.32 1.86h-.24l.22-2.38h1.56l-.12 1.18c-.02.39-.04.77-.04 1.14v7.72h-1.62v-2.36h.22c-.2.79-.65 1.4-1.32 1.86-.66.45-1.44.68-2.32.68Zm.32-1.32c.96 0 1.72-.33 2.28-.98.56-.67.84-1.63.84-2.9 0-1.28-.28-2.25-.84-2.9-.56-.67-1.32-1-2.28-1-.94 0-1.7.33-2.28 1-.56.65-.84 1.62-.84 2.9 0 1.27.28 2.23.84 2.9.58.65 1.34.98 2.28.98Zm11.42 1.32c-.99 0-1.74-.28-2.26-.84-.52-.57-.78-1.43-.78-2.58v-5.54h-1.96v-1.26H269v-2.74l1.62-.46v3.2h2.88v1.26h-2.88v5.36c0 .8.13 1.37.4 1.72.28.33.69.5 1.24.5.25 0 .48-.02.68-.06.2-.05.38-.11.54-.18v1.36c-.19.08-.42.14-.68.18-.26.05-.51.08-.76.08Zm3.43-.18v-10.04h1.62v10.04h-1.62Zm-.2-12.32v-1.82h2v1.82h-2Zm9.08 12.5c-.96 0-1.8-.2-2.52-.62a4.3 4.3 0 0 1-1.64-1.8 6.23 6.23 0 0 1-.58-2.78c0-1.08.2-2 .58-2.78.4-.77.94-1.37 1.64-1.78a4.85 4.85 0 0 1 2.52-.64c.98 0 1.82.21 2.52.64.72.41 1.28 1 1.66 1.78.4.77.6 1.7.6 2.78 0 1.07-.2 2-.6 2.78a4.26 4.26 0 0 1-1.66 1.8 4.9 4.9 0 0 1-2.52.62Zm0-1.32c.96 0 1.72-.33 2.28-.98.56-.67.84-1.63.84-2.9 0-1.28-.28-2.25-.86-2.9a2.8 2.8 0 0 0-2.26-1c-.94 0-1.7.33-2.26 1-.56.65-.84 1.62-.84 2.9 0 1.27.28 2.23.84 2.9.56.65 1.32.98 2.26.98Zm7.31 1.14v-7.72a33.27 33.27 0 0 0-.16-2.32h1.56l.2 2.2h-.24c.3-.77.76-1.36 1.4-1.76.65-.41 1.4-.62 2.26-.62 1.19 0 2.08.32 2.68.96.61.63.92 1.62.92 2.98v6.28h-1.62v-6.18c0-.95-.2-1.63-.58-2.06-.37-.44-.96-.66-1.76-.66-.93 0-1.67.29-2.22.86a3.2 3.2 0 0 0-.82 2.3v5.74h-1.62Zm21.05.18c-.96 0-1.8-.2-2.52-.62a4.3 4.3 0 0 1-1.64-1.8 6.24 6.24 0 0 1-.58-2.78c0-1.08.2-2 .58-2.78.39-.77.94-1.37 1.64-1.78a4.85 4.85 0 0 1 2.52-.64c.98 0 1.82.21 2.52.64.72.41 1.28 1 1.66 1.78.4.77.6 1.7.6 2.78 0 1.07-.2 2-.6 2.78a4.25 4.25 0 0 1-1.66 1.8 4.9 4.9 0 0 1-2.52.62Zm0-1.32c.96 0 1.72-.33 2.28-.98.56-.67.84-1.63.84-2.9 0-1.28-.28-2.25-.86-2.9a2.8 2.8 0 0 0-2.26-1c-.94 0-1.7.33-2.26 1-.56.65-.84 1.62-.84 2.9 0 1.27.28 2.23.84 2.9.56.65 1.32.98 2.26.98Zm7.73 1.14v-8.78h-1.96v-1.26h2.4l-.44.42v-1.68c0-1.13.29-2 .86-2.6.57-.6 1.4-.9 2.46-.9.27 0 .54.03.82.08.3.04.54.1.72.18v1.34a2.74 2.74 0 0 0-.6-.16 3.07 3.07 0 0 0-.7-.08c-.41 0-.76.09-1.06.26-.3.16-.51.4-.66.74a3.2 3.2 0 0 0-.22 1.28v1.46l-.26-.34h3.06v1.26h-2.8v8.78h-1.62ZM204.72 385.75v-14.1h5.76c1.48 0 2.63.35 3.44 1.06.81.7 1.22 1.67 1.22 2.92 0 .83-.19 1.53-.56 2.12a3.49 3.49 0 0 1-1.54 1.32c-.65.3-1.42.46-2.3.46l.36-.26h.4c.55 0 1.03.13 1.46.4.44.27.79.71 1.04 1.34l2 4.74h-1.82l-1.92-4.66c-.23-.6-.57-.99-1.02-1.16a4.48 4.48 0 0 0-1.7-.28h-3.16v6.1h-1.66Zm1.66-7.4h3.86c1.07 0 1.87-.23 2.42-.68.56-.47.84-1.13.84-2 0-.87-.28-1.53-.84-1.98-.55-.45-1.35-.68-2.42-.68h-3.86v5.34Zm16.25 7.58a5.02 5.02 0 0 1-3.72-1.36 5.2 5.2 0 0 1-1.36-3.82c0-1.05.2-1.97.6-2.74.4-.79.96-1.4 1.68-1.82a4.66 4.66 0 0 1 2.48-.66c.92 0 1.7.2 2.32.58.63.39 1.11.94 1.44 1.66.34.7.5 1.55.5 2.52v.6h-7.78v-1.02h6.72l-.34.26a3.9 3.9 0 0 0-.72-2.5c-.48-.6-1.19-.9-2.14-.9-1 0-1.78.35-2.34 1.06-.56.7-.84 1.63-.84 2.82v.18c0 1.25.31 2.2.92 2.86.63.64 1.5.96 2.62.96.6 0 1.16-.09 1.68-.26a4.73 4.73 0 0 0 1.52-.9l.56 1.14c-.44.43-1 .76-1.68 1-.66.23-1.37.34-2.12.34Zm9.76 0c-.8 0-1.54-.1-2.24-.32a4.83 4.83 0 0 1-1.72-.94l.56-1.14c.5.39 1.03.67 1.6.86.59.19 1.2.28 1.82.28.8 0 1.4-.14 1.8-.42.42-.3.62-.7.62-1.2 0-.39-.13-.7-.4-.92a2.72 2.72 0 0 0-1.26-.56l-1.86-.38c-.85-.19-1.5-.5-1.92-.94a2.4 2.4 0 0 1-.64-1.72c0-.59.16-1.1.46-1.54a3 3 0 0 1 1.34-1.06 5.78 5.78 0 0 1 4.08-.06c.63.21 1.15.53 1.56.94l-.58 1.12a4.27 4.27 0 0 0-2.96-1.16c-.78 0-1.38.16-1.78.48-.38.3-.58.71-.58 1.22 0 .39.12.7.36.96.26.24.64.42 1.16.54l1.86.38c.9.2 1.58.51 2.02.94.46.41.68.97.68 1.68 0 .6-.16 1.13-.5 1.58-.33.44-.8.78-1.4 1.02-.58.24-1.28.36-2.08.36Zm6.59-.18v-10.04h1.62v10.04h-1.63Zm-.2-12.32v-1.82h2v1.82h-2Zm8.76 12.5c-.88 0-1.65-.2-2.32-.62a4.3 4.3 0 0 1-1.56-1.8 6.54 6.54 0 0 1-.54-2.78c0-1.1.18-2.03.54-2.8.37-.77.9-1.37 1.56-1.78a4.32 4.32 0 0 1 2.32-.62 4 4 0 0 1 2.34.68 3.28 3.28 0 0 1 1.34 1.84h-.24v-7.02h1.62v14.72H251v-2.4h.22c-.21.8-.65 1.43-1.32 1.9a4.1 4.1 0 0 1-2.36.68Zm.34-1.32c.95 0 1.7-.33 2.28-.98.57-.67.86-1.63.86-2.9 0-1.28-.29-2.25-.86-2.9-.57-.67-1.33-1-2.28-1-.95 0-1.7.33-2.28 1-.56.65-.84 1.62-.84 2.9 0 1.27.28 2.23.84 2.9.57.65 1.33.98 2.28.98Zm11.4 1.32c-1.2 0-2.1-.33-2.7-.98-.6-.65-.9-1.65-.9-3v-6.24h1.61v6.2c0 .92.19 1.6.56 2.04.38.43.96.64 1.74.64.88 0 1.59-.29 2.12-.86.54-.57.8-1.34.8-2.3v-5.72h1.62v10.04h-1.58v-2.26h.26a3.58 3.58 0 0 1-3.54 2.44Zm11.82 0c-.9 0-1.68-.2-2.35-.62a4.31 4.31 0 0 1-1.56-1.8 6.54 6.54 0 0 1-.54-2.78c0-1.1.19-2.03.55-2.8.37-.77.89-1.37 1.56-1.78a4.35 4.35 0 0 1 2.34-.62c.9 0 1.68.23 2.33.7.67.45 1.11 1.07 1.32 1.86h-.24l.23-2.38h1.56l-.13 1.18c-.02.39-.04.77-.04 1.14v7.72h-1.62v-2.36h.23c-.22.79-.66 1.4-1.32 1.86-.67.45-1.44.68-2.32.68Zm.31-1.32c.96 0 1.72-.33 2.28-.98.56-.67.85-1.63.85-2.9 0-1.28-.29-2.25-.85-2.9-.56-.67-1.31-1-2.27-1-.95 0-1.71.33-2.29 1-.56.65-.83 1.62-.83 2.9 0 1.27.27 2.23.83 2.9.58.65 1.34.98 2.29.98Zm7.86 1.14v-14.72h1.62v14.72h-1.62Zm10.16 0v-14.1h5.76c1.48 0 2.63.35 3.44 1.06.81.7 1.22 1.67 1.22 2.92 0 .83-.19 1.53-.56 2.12a3.49 3.49 0 0 1-1.54 1.32c-.65.3-1.42.46-2.3.46l.36-.26h.4c.55 0 1.03.13 1.46.4.44.27.78.71 1.04 1.34l2 4.74h-1.82l-1.92-4.66c-.23-.6-.57-.99-1.02-1.16a4.48 4.48 0 0 0-1.7-.28h-3.16v6.1h-1.66Zm1.66-7.4h3.86c1.06 0 1.87-.23 2.42-.68.56-.47.84-1.13.84-2 0-.87-.28-1.53-.84-1.98-.55-.45-1.36-.68-2.42-.68h-3.86v5.34Zm12 7.4v-10.04h1.63v10.04h-1.62Zm-.2-12.32v-1.82h2v1.82h-2Zm8.31 12.5c-.8 0-1.55-.1-2.24-.32a4.85 4.85 0 0 1-1.72-.94l.56-1.14a5.19 5.19 0 0 0 3.42 1.14c.8 0 1.4-.14 1.8-.42.42-.3.62-.7.62-1.2 0-.39-.13-.7-.4-.92a2.7 2.7 0 0 0-1.26-.56l-1.86-.38c-.85-.19-1.5-.5-1.92-.94a2.41 2.41 0 0 1-.64-1.72c0-.59.15-1.1.46-1.54a3 3 0 0 1 1.34-1.06 5.77 5.77 0 0 1 4.08-.06c.63.21 1.15.53 1.56.94l-.58 1.12c-.4-.39-.86-.67-1.38-.86-.5-.2-1.03-.3-1.58-.3-.78 0-1.38.16-1.78.48-.38.3-.58.71-.58 1.22 0 .39.12.7.36.96.25.24.64.42 1.16.54l1.86.38c.9.2 1.58.51 2.02.94.45.41.68.97.68 1.68 0 .6-.17 1.13-.5 1.58-.33.44-.8.78-1.4 1.02-.58.24-1.28.36-2.08.36Zm6.58-.18v-14.72h1.62v9.14h.04l4.66-4.46h2.04l-5.5 5.24.04-.82 5.98 5.62h-2.1l-5.12-4.72h-.04v4.72h-1.62Z"/><path stroke="#484848" stroke-linecap="round" stroke-linejoin="round" stroke-width="2" d="m171.9 209.43-6.94-.9.45-3.48a99.52 99.52 0 0 1 31.93-60.99l-2.96-3.68 15.98-2.46L204.5 153l-2.77-3.46a92.53 92.53 0 0 0-29.38 56.43l-.45 3.47ZM210.62 293.54l-4.26 5.56-2.78-2.13a99.52 99.52 0 0 1-36.85-58.14l-4.67.71 5.86-15.06 10.12 12.6-4.38.68a92.53 92.53 0 0 0 34.18 53.66l2.78 2.12ZM302.74 302.06l2.68 6.46-3.23 1.35a99.52 99.52 0 0 1-68.78 2.84l-1.72 4.4-10.11-12.6 15.98-2.46-1.61 4.13a92.52 92.52 0 0 0 63.56-2.78l3.23-1.34ZM356.22 226.47l6.94.9-.45 3.48a99.52 99.52 0 0 1-31.93 61l2.96 3.67-15.98 2.46 5.86-15.06 2.77 3.45a92.53 92.53 0 0 0 29.38-56.43l.45-3.47ZM317.5 142.36l4.26-5.56 2.78 2.13a99.52 99.52 0 0 1 36.85 58.14l4.67-.71-5.86 15.06-10.12-12.6 4.38-.68a92.53 92.53 0 0 0-34.18-53.65l-2.78-2.13ZM225.38 133.84l-2.69-6.46 3.23-1.35a99.52 99.52 0 0 1 68.79-2.84l1.71-4.4 10.12 12.6-15.98 2.46 1.6-4.13a92.52 92.52 0 0 0-63.55 2.78l-3.23 1.34Z" clip-rule="evenodd"/></g><defs><linearGradient id="b" x1="164.96" x2="164.96" y1="137.92" y2="209.43" gradientUnits="userSpaceOnUse"><stop stop-color="#FFA6A3"/><stop offset="1" stop-color="#FD6A65"/></linearGradient><linearGradient id="c" x1="162.06" x2="162.06" y1="224.48" y2="299.1" gradientUnits="userSpaceOnUse"><stop stop-color="#FFC188"/><stop offset="1" stop-color="#FA963A"/></linearGradient><linearGradient id="d" x1="221.58" x2="221.58" y1="302.05" y2="317.51" gradientUnits="userSpaceOnUse"><stop stop-color="#FFF282"/><stop offset="1" stop-color="#FFE714"/></linearGradient><linearGradient id="e" x1="317.76" x2="317.76" y1="226.47" y2="297.98" gradientUnits="userSpaceOnUse"><stop stop-color="#CFF976"/><stop offset="1" stop-color="#A8DD38"/></linearGradient><linearGradient id="f" x1="317.5" x2="317.5" y1="136.8" y2="211.42" gradientUnits="userSpaceOnUse"><stop stop-color="#83FAC1"/><stop offset="1" stop-color="#44E095"/></linearGradient><linearGradient id="g" x1="222.69" x2="222.69" y1="118.39" y2="133.85" gradientUnits="userSpaceOnUse"><stop stop-color="#7FDFFF"/><stop offset="1" stop-color="#1AC6FF"/></linearGradient><clipPath id="a"><path fill="#fff" d="M-1-83h554v518H-1z"/></clipPath></defs></svg>