<svg xmlns="http://www.w3.org/2000/svg" width="614" height="434" fill="none"><path fill="#F5F5F5" d="M0 0h614v434H0z"/><g clip-path="url(#a)"><path fill="#fff" d="M614-76H0v530h614V-76Z"/><path fill="#fff" fill-rule="evenodd" d="M1-75h612v528H1V-75Z" clip-rule="evenodd"/><path fill="#666" fill-rule="evenodd" d="M241 225a60 60 0 1 0 120 0 60 60 0 0 0-120 0Z" clip-rule="evenodd"/><path fill="#E55753" fill-rule="evenodd" d="m176.46 152.71-.17.29 72.75 42A59.97 59.97 0 0 1 301 164.99V81l-.04-.02c-49.6.06-97.83 25.77-124.5 71.73Z" clip-rule="evenodd"/><path fill="#DE8431" fill-rule="evenodd" d="m176.13 296.71.16.29 72.75-42a59.98 59.98 0 0 1 0-60l-72.75-42-.04.02c-24.75 42.99-26.59 97.61-.12 143.7Z" clip-rule="evenodd"/><path fill="#E0CB15" fill-rule="evenodd" d="M300.67 369h.33v-84a59.97 59.97 0 0 1-51.97-30l-72.74 42v.05c24.86 42.92 71.24 71.83 124.38 71.95Z" clip-rule="evenodd"/><path fill="#92BD39" fill-rule="evenodd" d="M301.04 369.02c49.68-.06 97.98-25.85 124.63-71.96l.04-.06-72.75-42A59.98 59.98 0 0 1 301 285.01V369l.04.02Z" clip-rule="evenodd"/><path fill="#3CC583" fill-rule="evenodd" d="M425.75 296.98c24.79-43.06 26.6-97.79 0-143.92l-.04-.06-72.75 42a59.98 59.98 0 0 1 .01 60l72.74 42 .04-.02Z" clip-rule="evenodd"/><path fill="#1EABDA" fill-rule="evenodd" d="M425.7 152.95c-24.89-43-71.38-71.92-124.63-71.95H301v84c22.2 0 41.6 12.06 51.97 30l72.74-42v-.05Z" clip-rule="evenodd"/><path fill="#543A3A" d="M122.39 45V30.9h1.44l5.66 12.78h-.58l5.66-12.78H136V45h-1.52V33.04h.6L129.75 45h-1.1l-5.36-11.96h.6V45h-1.5Zm16.97 0V34.96h1.62V45h-1.62Zm-.2-12.32v-1.82h2v1.82h-2ZM144.12 45v-7.72a33.2 33.2 0 0 0-.16-2.32h1.56l.2 2.2h-.24c.3-.77.76-1.36 1.4-1.76.66-.41 1.41-.62 2.26-.62 1.19 0 2.08.32 2.68.96.62.63.92 1.62.92 2.98V45h-1.62v-6.18c0-.95-.19-1.63-.58-2.06-.37-.44-.96-.66-1.76-.66-.93 0-1.67.29-2.22.86a3.2 3.2 0 0 0-.82 2.3V45h-1.62Zm11.72 0V34.96h1.62V45h-1.62Zm-.2-12.32v-1.82h2v1.82h-2ZM160.61 45v-7.72a31.01 31.01 0 0 0-.16-2.32H162l.2 2.2h-.24c.26-.76.68-1.35 1.26-1.76.58-.41 1.3-.62 2.12-.62.84 0 1.52.2 2.04.6.53.4.9 1.02 1.08 1.86h-.3c.25-.76.7-1.36 1.34-1.8a3.86 3.86 0 0 1 2.24-.66c1.1 0 1.94.32 2.5.96.56.63.84 1.62.84 2.98V45h-1.62v-6.18c0-.95-.17-1.63-.5-2.06-.34-.44-.87-.66-1.6-.66-.84 0-1.5.3-2 .88a3.5 3.5 0 0 0-.72 2.32V45h-1.62v-6.18c0-.95-.17-1.63-.5-2.06-.34-.44-.87-.66-1.6-.66-.84 0-1.5.3-1.98.88a3.5 3.5 0 0 0-.72 2.32V45h-1.62Zm21.1.18c-1.2 0-2.1-.33-2.7-.98-.6-.65-.9-1.65-.9-3v-6.24h1.62v6.2c0 .92.18 1.6.56 2.04.37.43.95.64 1.74.64.88 0 1.58-.29 2.12-.86.53-.57.8-1.34.8-2.3v-5.72h1.62V45h-1.58v-2.26h.26a3.58 3.58 0 0 1-3.54 2.44Zm8-.18v-7.72a33.2 33.2 0 0 0-.16-2.32h1.56l.2 2.2h-.24c.27-.76.69-1.35 1.26-1.76.59-.41 1.3-.62 2.12-.62.84 0 1.52.2 2.04.6.53.4.9 1.02 1.08 1.86h-.3c.25-.76.7-1.36 1.34-1.8a3.86 3.86 0 0 1 2.24-.66c1.1 0 1.94.32 2.5.96.56.63.84 1.62.84 2.98V45h-1.62v-6.18c0-.95-.17-1.63-.5-2.06-.33-.44-.87-.66-1.6-.66-.84 0-1.5.3-2 .88a3.5 3.5 0 0 0-.72 2.32V45h-1.62v-6.18c0-.95-.17-1.63-.5-2.06-.33-.44-.87-.66-1.6-.66-.84 0-1.5.3-1.98.88a3.5 3.5 0 0 0-.72 2.32V45h-1.62Zm22.95 0V30.9h1.66V45h-1.66Zm8.6 0V32.3h-4.98v-1.4h11.6v1.4h-4.96V45h-1.66ZM161.74 69.18a9.73 9.73 0 0 1-3.04-.44c-.9-.3-1.67-.71-2.34-1.26l.6-1.32a7.2 7.2 0 0 0 4.78 1.56c1.19 0 2.07-.22 2.64-.66a2.1 2.1 0 0 0 .86-1.76c0-.63-.2-1.1-.6-1.44a4.9 4.9 0 0 0-2.1-.8l-2.1-.42a5.93 5.93 0 0 1-2.9-1.3 3.22 3.22 0 0 1-.94-2.44c0-.84.21-1.57.64-2.2a4.3 4.3 0 0 1 1.84-1.46c.79-.35 1.7-.52 2.74-.52 1 0 1.91.15 2.74.46.83.3 1.53.73 2.12 1.3l-.58 1.28a5.85 5.85 0 0 0-1.98-1.2 6.61 6.61 0 0 0-2.32-.38c-1.1 0-1.96.24-2.6.72-.63.47-.94 1.1-.94 1.92a2 2 0 0 0 .6 1.54c.4.36 1.06.63 1.98.82l2.12.42c1.36.28 2.36.7 3 1.26.64.56.96 1.35.96 2.36 0 .77-.21 1.46-.64 2.06-.41.6-1 1.07-1.78 1.4-.77.33-1.7.5-2.76.5Zm12.14 0a5.03 5.03 0 0 1-3.72-1.36A5.2 5.2 0 0 1 168.8 64c0-1.05.2-1.97.6-2.74.4-.79.96-1.4 1.68-1.82a4.66 4.66 0 0 1 2.48-.66c.92 0 1.7.2 2.32.58.63.39 1.1.94 1.44 1.66.33.7.5 1.55.5 2.52v.6h-7.78v-1.02h6.72l-.34.26a3.9 3.9 0 0 0-.72-2.5c-.48-.6-1.2-.9-2.14-.9-1 0-1.78.35-2.34 1.06-.56.7-.84 1.63-.84 2.82v.18c0 1.25.3 2.2.92 2.86.63.64 1.5.96 2.62.96a4.72 4.72 0 0 0 3.2-1.16l.56 1.14c-.44.43-1 .76-1.68 1-.67.23-1.37.34-2.12.34Zm10.64 0c-.99 0-1.85-.21-2.58-.64a4.36 4.36 0 0 1-1.68-1.82 6.28 6.28 0 0 1-.58-2.8c0-1.1.2-2.02.6-2.78.4-.77.96-1.36 1.68-1.76.73-.4 1.58-.6 2.56-.6.64 0 1.26.11 1.86.34.61.23 1.12.55 1.52.96l-.58 1.16a3.95 3.95 0 0 0-2.7-1.14c-1.04 0-1.85.33-2.42.98-.57.65-.86 1.6-.86 2.86 0 1.24.28 2.2.86 2.88a3 3 0 0 0 2.42 1.02 3.9 3.9 0 0 0 2.7-1.12l.58 1.14c-.41.43-.93.75-1.54.98-.62.23-1.23.34-1.84.34Zm9.22 0c-1.19 0-2.09-.33-2.7-.98-.6-.65-.9-1.65-.9-3v-6.24h1.62v6.2c0 .92.19 1.6.56 2.04.37.43.95.64 1.74.64.88 0 1.59-.29 2.12-.86.53-.57.8-1.34.8-2.3v-5.72h1.62V69h-1.58v-2.26h.26a3.58 3.58 0 0 1-3.54 2.44Zm7.96-.18v-7.62c0-.4 0-.8-.04-1.22a16.8 16.8 0 0 0-.08-1.2h1.56l.2 2.44-.28.02a3.1 3.1 0 0 1 1.88-2.34c.46-.2.93-.3 1.42-.3.2 0 .38 0 .52.02.16.01.31.05.44.1l-.02 1.44a3.44 3.44 0 0 0-1.12-.16c-.58 0-1.1.14-1.54.42a2.82 2.82 0 0 0-1.3 2.48V69h-1.64Zm7.31 0V58.96h1.62V69h-1.62Zm-.2-12.32v-1.82h2v1.82h-2Zm8.53 12.5c-1 0-1.75-.28-2.27-.84-.51-.57-.78-1.43-.78-2.58v-5.54h-1.95v-1.26h1.95v-2.74l1.63-.46v3.2h2.88v1.26h-2.89v5.36c0 .8.14 1.37.4 1.72.28.33.7.5 1.25.5.25 0 .47-.02.68-.06.2-.05.38-.11.53-.18v1.36c-.18.08-.4.14-.68.18-.25.05-.5.08-.75.08Zm3.15 4.36-.39-1.34a7.63 7.63 0 0 0 1.56-.52c.43-.19.78-.44 1.06-.76s.53-.72.72-1.2l.53-1.18-.04.68-4.39-10.26h1.77l3.62 8.82h-.53l3.59-8.82h1.7l-4.65 10.88a7.44 7.44 0 0 1-.88 1.6 4.64 4.64 0 0 1-2.23 1.72c-.44.16-.93.29-1.44.38ZM105.32 93V78.9h5.76c1.48 0 2.63.35 3.44 1.06.81.7 1.22 1.67 1.22 2.92 0 .83-.19 1.53-.56 2.12a3.49 3.49 0 0 1-1.54 1.32c-.66.3-1.42.46-2.3.46l.36-.26h.4c.55 0 1.03.13 1.46.4.44.27.78.71 1.04 1.34l2 4.74h-1.82l-1.92-4.66c-.23-.6-.57-.99-1.02-1.16a4.49 4.49 0 0 0-1.7-.28h-3.16V93h-1.66Zm1.66-7.4h3.86c1.06 0 1.87-.23 2.42-.68.56-.47.84-1.13.84-2 0-.87-.28-1.53-.84-1.98-.55-.45-1.36-.68-2.42-.68h-3.86v5.34Zm16.25 7.58a5.03 5.03 0 0 1-3.72-1.36 5.2 5.2 0 0 1-1.36-3.82c0-1.05.2-1.97.6-2.74.4-.79.96-1.4 1.68-1.82a4.66 4.66 0 0 1 2.48-.66c.92 0 1.7.2 2.32.58.63.39 1.1.94 1.44 1.66.33.7.5 1.55.5 2.52v.6h-7.78v-1.02h6.72l-.34.26a3.9 3.9 0 0 0-.72-2.5c-.48-.6-1.2-.9-2.14-.9-1 0-1.78.35-2.34 1.06-.56.7-.84 1.63-.84 2.82v.18c0 1.25.3 2.2.92 2.86.63.64 1.5.96 2.62.96a4.71 4.71 0 0 0 3.2-1.16l.56 1.14c-.44.43-1 .76-1.68 1-.66.23-1.37.34-2.12.34Zm13.66 4.14v-6.68h.22c-.21.79-.65 1.4-1.32 1.86-.67.45-1.44.68-2.32.68-.9 0-1.67-.2-2.34-.62a4.3 4.3 0 0 1-1.56-1.8 6.54 6.54 0 0 1-.54-2.78c0-1.1.18-2.03.54-2.8.37-.77.9-1.37 1.56-1.78a4.35 4.35 0 0 1 2.34-.62c.9 0 1.69.23 2.34.7.67.45 1.1 1.07 1.32 1.86h-.24l.22-2.38h1.56l-.12 1.18a17 17 0 0 0-.04 1.14v12.04h-1.62Zm-3.1-5.46c.96 0 1.72-.33 2.28-.98.56-.67.84-1.63.84-2.9 0-1.28-.28-2.25-.84-2.9-.56-.67-1.32-1-2.28-1-.95 0-1.7.33-2.28 1-.56.65-.84 1.62-.84 2.9 0 1.27.28 2.23.84 2.9.57.65 1.33.98 2.28.98Zm11.4 1.32c-1.2 0-2.1-.33-2.7-.98-.6-.65-.9-1.65-.9-3v-6.24h1.61v6.2c0 .92.19 1.6.56 2.04.38.43.96.64 1.74.64.88 0 1.59-.29 2.12-.86.54-.57.8-1.34.8-2.3v-5.72h1.62V93h-1.58v-2.26h.26a3.59 3.59 0 0 1-3.54 2.44Zm8-.18V82.96h1.62V93h-1.63Zm-.2-12.32v-1.82h2v1.82h-2ZM157.9 93v-7.62c0-.4-.01-.8-.04-1.22a16.8 16.8 0 0 0-.08-1.2h1.56l.2 2.44-.28.02a3.1 3.1 0 0 1 1.88-2.34c.45-.2.93-.3 1.42-.3.2 0 .37 0 .52.02.16.01.3.05.44.1l-.02 1.44a3.44 3.44 0 0 0-1.12-.16c-.59 0-1.1.14-1.54.42a2.82 2.82 0 0 0-1.3 2.48V93h-1.64Zm11.65.18a5.02 5.02 0 0 1-3.72-1.36 5.2 5.2 0 0 1-1.36-3.82c0-1.05.2-1.97.6-2.74.4-.79.96-1.4 1.68-1.82a4.66 4.66 0 0 1 2.48-.66c.92 0 1.7.2 2.32.58.63.39 1.1.94 1.44 1.66.33.7.5 1.55.5 2.52v.6h-7.78v-1.02h6.72l-.34.26a3.9 3.9 0 0 0-.72-2.5c-.48-.6-1.2-.9-2.14-.9-1 0-1.78.35-2.34 1.06-.56.7-.84 1.63-.84 2.82v.18c0 1.25.3 2.2.92 2.86.63.64 1.5.96 2.62.96a4.72 4.72 0 0 0 3.2-1.16l.56 1.14c-.44.43-1 .76-1.68 1-.67.23-1.37.34-2.12.34Zm6.42-.18v-7.72a31.01 31.01 0 0 0-.16-2.32h1.56l.2 2.2h-.24c.26-.76.69-1.35 1.26-1.76.59-.41 1.3-.62 2.12-.62.84 0 1.52.2 2.04.6.53.4.9 1.02 1.08 1.86h-.3c.25-.76.7-1.36 1.34-1.8a3.86 3.86 0 0 1 2.24-.66c1.1 0 1.94.32 2.5.96.56.63.84 1.62.84 2.98V93h-1.62v-6.18c0-.95-.17-1.63-.5-2.06-.34-.44-.87-.66-1.6-.66-.84 0-1.5.3-2 .88a3.5 3.5 0 0 0-.72 2.32V93h-1.62v-6.18c0-.95-.17-1.63-.5-2.06-.34-.44-.87-.66-1.6-.66-.84 0-1.5.3-1.98.88a3.5 3.5 0 0 0-.72 2.32V93h-1.62Zm22.02.18a5.03 5.03 0 0 1-3.72-1.36 5.2 5.2 0 0 1-1.36-3.82c0-1.05.2-1.97.6-2.74.4-.79.96-1.4 1.68-1.82a4.66 4.66 0 0 1 2.48-.66c.92 0 1.69.2 2.32.58.62.39 1.1.94 1.44 1.66.33.7.5 1.55.5 2.52v.6h-7.78v-1.02h6.72l-.34.26a3.9 3.9 0 0 0-.72-2.5c-.48-.6-1.2-.9-2.14-.9-1 0-1.78.35-2.34 1.06-.56.7-.84 1.63-.84 2.82v.18c0 1.25.3 2.2.92 2.86.62.64 1.5.96 2.62.96a4.72 4.72 0 0 0 3.2-1.16l.56 1.14c-.44.43-1 .76-1.68 1-.67.23-1.38.34-2.12.34Zm6.42-.18v-7.72a33.2 33.2 0 0 0-.16-2.32h1.56l.2 2.2h-.24c.29-.77.76-1.36 1.4-1.76.65-.41 1.4-.62 2.26-.62 1.18 0 2.08.32 2.68.96.6.63.92 1.62.92 2.98V93h-1.62v-6.18c0-.95-.2-1.63-.58-2.06-.38-.44-.96-.66-1.76-.66-.94 0-1.68.29-2.22.86a3.2 3.2 0 0 0-.82 2.3V93h-1.62Zm15.28.18c-1 0-1.74-.28-2.26-.84-.53-.57-.78-1.43-.78-2.58v-5.54h-1.97v-1.26h1.97v-2.74l1.62-.46v3.2h2.88v1.26h-2.88v5.36c0 .8.13 1.37.4 1.72.28.33.69.5 1.23.5.26 0 .49-.02.69-.06.2-.05.38-.11.53-.18v1.36a2.8 2.8 0 0 1-.67.18c-.26.05-.51.08-.77.08Zm6.77 0c-.8 0-1.55-.1-2.24-.32a4.83 4.83 0 0 1-1.72-.94l.56-1.14c.49.39 1.02.67 1.6.86.58.19 1.19.28 1.82.28.8 0 1.4-.14 1.8-.42.41-.3.62-.7.62-1.2 0-.39-.14-.7-.4-.92a2.7 2.7 0 0 0-1.26-.56l-1.86-.38c-.86-.19-1.5-.5-1.92-.94a2.4 2.4 0 0 1-.64-1.72c0-.59.15-1.1.46-1.54a3 3 0 0 1 1.34-1.06 5.79 5.79 0 0 1 4.08-.06c.62.21 1.14.53 1.56.94l-.58 1.12c-.4-.39-.86-.67-1.38-.86-.51-.2-1.04-.3-1.58-.3-.79 0-1.38.16-1.78.48-.39.3-.58.71-.58 1.22 0 .39.12.7.36.96.25.24.64.42 1.16.54l1.86.38c.9.2 1.58.51 2.02.94.45.41.68.97.68 1.68 0 .6-.17 1.13-.5 1.58-.34.44-.8.78-1.4 1.02-.59.24-1.28.36-2.08.36Z"/><path fill="#32444A" d="M376.76 93V78.9h5.76c1.48 0 2.63.35 3.44 1.06.81.7 1.22 1.67 1.22 2.92 0 .83-.19 1.53-.56 2.12a3.48 3.48 0 0 1-1.54 1.32c-.65.3-1.42.46-2.3.46l.36-.26h.4c.55 0 1.03.13 1.46.4.44.27.79.71 1.04 1.34l2 4.74h-1.82l-1.92-4.66c-.23-.6-.57-.99-1.02-1.16a4.49 4.49 0 0 0-1.7-.28h-3.16V93h-1.66Zm1.66-7.4h3.86c1.07 0 1.87-.23 2.42-.68.56-.47.84-1.13.84-2 0-.87-.28-1.53-.84-1.98-.55-.45-1.35-.68-2.42-.68h-3.86v5.34Zm12 7.4V82.96h1.63V93h-1.62Zm-.2-12.32v-1.82h2v1.82h-2Zm8.31 12.5c-.8 0-1.54-.1-2.24-.32a4.84 4.84 0 0 1-1.72-.94l.56-1.14a5.19 5.19 0 0 0 3.42 1.14c.8 0 1.4-.14 1.8-.42.42-.3.62-.7.62-1.2 0-.39-.13-.7-.4-.92a2.7 2.7 0 0 0-1.26-.56l-1.86-.38c-.85-.19-1.49-.5-1.92-.94a2.41 2.41 0 0 1-.64-1.72c0-.59.16-1.1.46-1.54a3 3 0 0 1 1.34-1.06 5.78 5.78 0 0 1 4.08-.06c.63.21 1.15.53 1.56.94l-.58 1.12c-.4-.39-.86-.67-1.38-.86-.5-.2-1.03-.3-1.58-.3-.78 0-1.38.16-1.78.48-.38.3-.58.71-.58 1.22 0 .39.12.7.36.96.26.24.64.42 1.16.54l1.86.38c.91.2 1.58.51 2.02.94.46.41.68.97.68 1.68 0 .6-.16 1.13-.5 1.58-.33.44-.8.78-1.4 1.02-.58.24-1.28.36-2.08.36Zm6.59-.18V78.28h1.62v9.14h.03l4.67-4.46h2.04l-5.5 5.24.03-.82L414 93h-2.1l-5.13-4.72h-.03V93h-1.63Zm15.7 0V78.9h1.44l5.66 12.78h-.58L433 78.9h1.44V93h-1.52V81.04h.6L428.18 93h-1.1l-5.36-11.96h.6V93h-1.5Zm20.8.18c-.9 0-1.68-.2-2.35-.62a4.3 4.3 0 0 1-1.56-1.8 6.54 6.54 0 0 1-.54-2.78c0-1.1.18-2.03.54-2.8.37-.77.9-1.37 1.56-1.78a4.35 4.35 0 0 1 2.34-.62c.9 0 1.69.23 2.34.7.67.45 1.1 1.07 1.32 1.86h-.24l.22-2.38h1.56l-.12 1.18c-.03.39-.04.77-.04 1.14V93h-1.62v-2.36h.22c-.21.79-.65 1.4-1.32 1.86-.67.45-1.44.68-2.32.68Zm.31-1.32c.96 0 1.72-.33 2.28-.98.56-.67.84-1.63.84-2.9 0-1.28-.28-2.25-.84-2.9-.56-.67-1.32-1-2.28-1-.95 0-1.7.33-2.28 1-.56.65-.84 1.62-.84 2.9 0 1.27.28 2.23.84 2.9.57.65 1.33.98 2.28.98Zm7.85 1.14v-7.72a33.2 33.2 0 0 0-.16-2.32h1.56l.2 2.2h-.24c.3-.77.76-1.36 1.4-1.76.66-.41 1.41-.62 2.26-.62 1.19 0 2.08.32 2.68.96.62.63.92 1.62.92 2.98V93h-1.62v-6.18c0-.95-.19-1.63-.58-2.06-.37-.44-.96-.66-1.76-.66-.93 0-1.67.29-2.22.86a3.2 3.2 0 0 0-.82 2.3V93h-1.62Zm15.54.18c-.9 0-1.67-.2-2.34-.62a4.3 4.3 0 0 1-1.56-1.8 6.54 6.54 0 0 1-.54-2.78c0-1.1.18-2.03.54-2.8.38-.77.9-1.37 1.56-1.78a4.35 4.35 0 0 1 2.34-.62c.9 0 1.69.23 2.34.7.67.45 1.1 1.07 1.32 1.86h-.24l.22-2.38h1.56l-.12 1.18c-.02.39-.04.77-.04 1.14V93h-1.62v-2.36h.22c-.21.79-.65 1.4-1.32 1.86-.66.45-1.44.68-2.32.68Zm.32-1.32c.96 0 1.72-.33 2.28-.98.56-.67.84-1.63.84-2.9 0-1.28-.28-2.25-.84-2.9-.56-.67-1.32-1-2.28-1-.94 0-1.7.33-2.28 1-.56.65-.84 1.62-.84 2.9 0 1.27.28 2.23.84 2.9.57.65 1.33.98 2.28.98Zm12.27 5.6c-.86 0-1.66-.1-2.4-.32a6.12 6.12 0 0 1-1.98-.98l.48-1.22a5.8 5.8 0 0 0 2.46 1.08c.43.1.88.14 1.36.14 1 0 1.74-.26 2.24-.78.51-.52.76-1.26.76-2.22v-2.94h.2a3.27 3.27 0 0 1-1.32 1.88c-.66.45-1.44.68-2.34.68-.92 0-1.72-.2-2.4-.6a4.2 4.2 0 0 1-1.56-1.74 6.2 6.2 0 0 1-.54-2.68c0-1.01.18-1.9.54-2.64.38-.75.9-1.32 1.56-1.72a4.53 4.53 0 0 1 2.4-.62 4 4 0 0 1 2.34.68c.67.45 1.11 1.08 1.32 1.88l-.2-.2.18-2.18h1.58a17.24 17.24 0 0 0-.16 2.32v7.66c0 1.5-.38 2.62-1.16 3.38-.76.76-1.88 1.14-3.36 1.14Zm-.24-6a2.9 2.9 0 0 0 2.3-.96c.56-.65.84-1.57.84-2.74a4 4 0 0 0-.84-2.72 2.9 2.9 0 0 0-2.3-.96c-.96 0-1.72.32-2.3.96a3.94 3.94 0 0 0-.86 2.72c0 1.17.3 2.09.86 2.74.58.64 1.34.96 2.3.96ZM490 93.18a5.03 5.03 0 0 1-3.71-1.36 5.2 5.2 0 0 1-1.37-3.82c0-1.05.2-1.97.6-2.74.4-.79.97-1.4 1.69-1.82a4.66 4.66 0 0 1 2.48-.66c.92 0 1.69.2 2.31.58.63.39 1.11.94 1.44 1.66.34.7.5 1.55.5 2.52v.6h-7.77v-1.02h6.71l-.33.26a3.9 3.9 0 0 0-.73-2.5c-.47-.6-1.19-.9-2.13-.9-1 0-1.79.35-2.34 1.06-.56.7-.85 1.63-.85 2.82v.18c0 1.25.31 2.2.93 2.86.62.64 1.5.96 2.62.96a4.72 4.72 0 0 0 3.2-1.16l.56 1.14c-.44.43-1 .76-1.69 1-.66.23-1.37.34-2.12.34Zm6.42-.18v-7.72a33.2 33.2 0 0 0-.16-2.32h1.56l.2 2.2h-.24c.27-.76.69-1.35 1.26-1.76.59-.41 1.3-.62 2.12-.62.84 0 1.52.2 2.04.6.54.4.9 1.02 1.08 1.86h-.3c.26-.76.7-1.36 1.34-1.8a3.86 3.86 0 0 1 2.24-.66c1.11 0 1.94.32 2.5.96.56.63.84 1.62.84 2.98V93h-1.62v-6.18c0-.95-.16-1.63-.5-2.06-.33-.44-.86-.66-1.6-.66-.84 0-1.5.3-2 .88a3.5 3.5 0 0 0-.72 2.32V93h-1.62v-6.18c0-.95-.16-1.63-.5-2.06-.33-.44-.86-.66-1.6-.66-.84 0-1.5.3-1.98.88a3.5 3.5 0 0 0-.72 2.32V93h-1.62Zm22.02.18a5.03 5.03 0 0 1-3.72-1.36 5.2 5.2 0 0 1-1.36-3.82c0-1.05.2-1.97.6-2.74.4-.79.96-1.4 1.68-1.82a4.66 4.66 0 0 1 2.48-.66c.92 0 1.7.2 2.32.58.63.39 1.1.94 1.44 1.66.34.7.5 1.55.5 2.52v.6h-7.78v-1.02h6.72l-.34.26a3.9 3.9 0 0 0-.72-2.5c-.48-.6-1.2-.9-2.14-.9-1 0-1.78.35-2.34 1.06-.56.7-.84 1.63-.84 2.82v.18c0 1.25.3 2.2.92 2.86.63.64 1.5.96 2.62.96a4.71 4.71 0 0 0 3.2-1.16l.56 1.14c-.44.43-1 .76-1.68 1-.66.23-1.37.34-2.12.34Zm6.42-.18v-7.72a31.01 31.01 0 0 0-.16-2.32h1.56l.2 2.2h-.24c.3-.77.76-1.36 1.4-1.76.65-.41 1.4-.62 2.26-.62 1.19 0 2.08.32 2.68.96.62.63.92 1.62.92 2.98V93h-1.62v-6.18c0-.95-.2-1.63-.58-2.06-.37-.44-.96-.66-1.76-.66-.93 0-1.67.29-2.22.86a3.2 3.2 0 0 0-.82 2.3V93h-1.62Zm15.28.18c-.99 0-1.74-.28-2.26-.84-.52-.57-.78-1.43-.78-2.58v-5.54h-1.96v-1.26h1.96v-2.74l1.62-.46v3.2h2.88v1.26h-2.88v5.36c0 .8.13 1.37.4 1.72.28.33.7.5 1.24.5.25 0 .48-.02.68-.06.2-.05.38-.11.54-.18v1.36c-.19.08-.41.14-.68.18-.25.05-.5.08-.76.08Z"/><path fill="#424736" d="M382.32 381.18c-1.9 0-3.33-.49-4.26-1.46-.92-.97-1.38-2.4-1.38-4.3v-8.52h1.64v8.44c0 1.45.32 2.55.96 3.28.64.73 1.65 1.1 3.04 1.1 1.3 0 2.3-.37 2.98-1.1.68-.73 1.02-1.83 1.02-3.28v-8.44h1.64v8.52c0 1.9-.48 3.33-1.44 4.3-.95.97-2.35 1.46-4.2 1.46Zm8.87-.18v-7.72a31.07 31.07 0 0 0-.16-2.32h1.56l.2 2.2h-.24c.3-.77.76-1.36 1.4-1.76.65-.41 1.4-.62 2.26-.62 1.19 0 2.08.32 2.68.96.61.63.92 1.62.92 2.98V381h-1.62v-6.18c0-.95-.2-1.63-.58-2.06-.37-.44-.96-.66-1.76-.66-.93 0-1.67.29-2.22.86a3.2 3.2 0 0 0-.82 2.3V381h-1.62Zm15.54.18c-.9 0-1.68-.2-2.34-.62a4.3 4.3 0 0 1-1.56-1.8 6.54 6.54 0 0 1-.54-2.78c0-1.1.18-2.03.54-2.8.37-.77.9-1.37 1.56-1.78a4.35 4.35 0 0 1 2.34-.62c.9 0 1.69.23 2.34.7.67.45 1.1 1.07 1.32 1.86h-.24l.22-2.38h1.56l-.12 1.18c-.03.39-.04.77-.04 1.14V381h-1.62v-2.36h.22c-.22.79-.66 1.4-1.32 1.86-.67.45-1.44.68-2.32.68Zm.32-1.32c.96 0 1.72-.33 2.28-.98.56-.67.84-1.63.84-2.9 0-1.28-.28-2.25-.84-2.9-.56-.67-1.32-1-2.28-1-.95 0-1.7.33-2.28 1-.56.65-.84 1.62-.84 2.9 0 1.27.28 2.23.84 2.9.57.65 1.33.98 2.28.98Zm11.39 1.32c-1.19 0-2.09-.33-2.7-.98-.6-.65-.9-1.65-.9-3v-6.24h1.62v6.2c0 .92.19 1.6.56 2.04.37.43.95.64 1.74.64.88 0 1.59-.29 2.12-.86.53-.57.8-1.34.8-2.3v-5.72h1.62V381h-1.58v-2.26h.26a3.58 3.58 0 0 1-3.54 2.44Zm11.56 0c-.98 0-1.74-.28-2.26-.84-.52-.57-.78-1.43-.78-2.58v-5.54H425v-1.26h1.96v-2.74l1.62-.46v3.2h2.88v1.26h-2.88v5.36c0 .8.14 1.37.4 1.72.28.33.7.5 1.24.5.26 0 .48-.02.68-.06.2-.05.38-.11.54-.18v1.36c-.18.08-.41.14-.68.18-.25.05-.5.08-.76.08Zm3.44-.18v-14.72h1.62v6.9h-.26a3.3 3.3 0 0 1 1.4-1.78 4.28 4.28 0 0 1 2.3-.62c1.2 0 2.09.33 2.68.98.58.64.88 1.61.88 2.92V381h-1.63v-6.22c0-.93-.18-1.61-.56-2.04-.36-.43-.94-.64-1.75-.64-.94 0-1.69.29-2.25.86a3.14 3.14 0 0 0-.81 2.26V381h-1.63Zm15.83.18c-.96 0-1.8-.2-2.52-.62a4.3 4.3 0 0 1-1.64-1.8 6.24 6.24 0 0 1-.58-2.78c0-1.08.2-2 .58-2.78.4-.77.94-1.37 1.64-1.78a4.85 4.85 0 0 1 2.52-.64c.98 0 1.82.21 2.52.64.72.41 1.28 1 1.66 1.78.4.77.6 1.7.6 2.78 0 1.07-.2 2-.6 2.78a4.25 4.25 0 0 1-1.66 1.8 4.9 4.9 0 0 1-2.52.62Zm0-1.32c.96 0 1.72-.33 2.28-.98.56-.67.84-1.63.84-2.9 0-1.28-.28-2.25-.86-2.9a2.8 2.8 0 0 0-2.26-1c-.94 0-1.7.33-2.26 1-.56.65-.84 1.62-.84 2.9 0 1.27.28 2.23.84 2.9.56.65 1.32.98 2.26.98Zm7.27 1.14v-7.62c0-.4-.01-.8-.04-1.22-.01-.41-.04-.81-.08-1.2h1.56l.2 2.44-.28.02a3.1 3.1 0 0 1 1.88-2.34c.45-.2.93-.3 1.42-.3.2 0 .37 0 .52.02.16.01.3.05.44.1l-.02 1.44a3.41 3.41 0 0 0-1.12-.16c-.59 0-1.1.14-1.54.42a2.82 2.82 0 0 0-1.3 2.48V381h-1.64Zm7.3 0v-10.04h1.63V381h-1.62Zm-.2-12.32v-1.82h2v1.82h-2Zm4.4 12.32v-1.08l6.75-8.12.02.42h-6.78v-1.26h8.28v1.08l-6.84 8.16-.02-.46h7.08V381h-8.5Zm15.2.18a5.03 5.03 0 0 1-3.71-1.36 5.2 5.2 0 0 1-1.36-3.82c0-1.05.2-1.97.6-2.74.4-.79.96-1.4 1.68-1.82a4.66 4.66 0 0 1 2.48-.66c.92 0 1.69.2 2.32.58.62.39 1.1.94 1.44 1.66.33.7.5 1.55.5 2.52v.6h-7.78v-1.02h6.72l-.34.26a3.9 3.9 0 0 0-.72-2.5c-.48-.6-1.2-.9-2.14-.9-1 0-1.78.35-2.34 1.06-.56.7-.84 1.63-.84 2.82v.18c0 1.25.3 2.2.92 2.86.62.64 1.5.96 2.62.96.6 0 1.16-.09 1.68-.26a4.73 4.73 0 0 0 1.52-.9l.56 1.14c-.44.43-1 .76-1.68 1-.67.23-1.38.34-2.12.34Zm10.23 0c-.88 0-1.66-.2-2.32-.62a4.3 4.3 0 0 1-1.56-1.8 6.54 6.54 0 0 1-.54-2.78c0-1.1.18-2.03.54-2.8.37-.77.89-1.37 1.56-1.78a4.32 4.32 0 0 1 2.32-.62 4 4 0 0 1 2.34.68 3.28 3.28 0 0 1 1.34 1.84h-.24v-7.02h1.62V381h-1.6v-2.4h.22c-.22.8-.66 1.43-1.32 1.9a4.1 4.1 0 0 1-2.36.68Zm.34-1.32c.94 0 1.7-.33 2.28-.98.57-.67.86-1.63.86-2.9 0-1.28-.3-2.25-.86-2.9-.58-.67-1.34-1-2.28-1-.95 0-1.71.33-2.28 1-.56.65-.84 1.62-.84 2.9 0 1.27.28 2.23.84 2.9.57.65 1.33.98 2.28.98ZM375.36 405l6.22-14.1h1.44l6.32 14.1h-1.72l-1.76-4.02.74.42h-8.62l.8-.42-1.72 4.02h-1.7Zm6.92-12.2-3.24 7.6-.48-.36H386l-.36.36-3.32-7.6h-.04Zm13.13 12.38c-.99 0-1.85-.21-2.58-.64a4.36 4.36 0 0 1-1.68-1.82 6.3 6.3 0 0 1-.58-2.8c0-1.1.2-2.02.6-2.78.4-.77.96-1.36 1.68-1.76.73-.4 1.59-.6 2.56-.6.64 0 1.26.11 1.86.34.61.23 1.12.55 1.52.96l-.58 1.16a3.95 3.95 0 0 0-2.7-1.14c-1.04 0-1.85.33-2.42.98-.57.65-.86 1.6-.86 2.86 0 1.24.29 2.2.86 2.88a3 3 0 0 0 2.42 1.02 3.9 3.9 0 0 0 2.7-1.12l.58 1.14c-.41.43-.93.75-1.54.98-.61.23-1.23.34-1.84.34Zm9.7 0c-.98 0-1.84-.21-2.57-.64a4.36 4.36 0 0 1-1.68-1.82 6.3 6.3 0 0 1-.58-2.8c0-1.1.2-2.02.6-2.78.4-.77.96-1.36 1.68-1.76.73-.4 1.58-.6 2.56-.6.64 0 1.26.11 1.86.34.61.23 1.12.55 1.52.96l-.58 1.16a3.95 3.95 0 0 0-2.7-1.14c-1.04 0-1.85.33-2.42.98-.58.65-.86 1.6-.86 2.86 0 1.24.28 2.2.86 2.88a3 3 0 0 0 2.42 1.02 3.9 3.9 0 0 0 2.7-1.12l.58 1.14c-.42.43-.93.75-1.54.98-.62.23-1.23.34-1.84.34Zm9.95 0a5.03 5.03 0 0 1-3.72-1.36 5.2 5.2 0 0 1-1.36-3.82c0-1.05.2-1.97.6-2.74.4-.79.96-1.4 1.68-1.82a4.66 4.66 0 0 1 2.48-.66c.92 0 1.7.2 2.32.58.63.39 1.11.94 1.44 1.66.34.7.5 1.55.5 2.52v.6h-7.78v-1.02h6.72l-.34.26a3.9 3.9 0 0 0-.72-2.5c-.48-.6-1.19-.9-2.14-.9-1 0-1.78.35-2.34 1.06-.56.7-.84 1.63-.84 2.82v.18c0 1.25.31 2.2.92 2.86.63.64 1.5.96 2.62.96a4.72 4.72 0 0 0 3.2-1.16l.56 1.14c-.44.43-1 .76-1.68 1-.66.23-1.37.34-2.12.34Zm9.76 0c-.8 0-1.54-.1-2.24-.32a4.85 4.85 0 0 1-1.72-.94l.56-1.14a5.19 5.19 0 0 0 3.42 1.14c.8 0 1.4-.14 1.8-.42.42-.3.62-.7.62-1.2 0-.39-.13-.7-.4-.92a2.7 2.7 0 0 0-1.26-.56l-1.86-.38c-.85-.19-1.5-.5-1.92-.94a2.41 2.41 0 0 1-.64-1.72c0-.59.16-1.1.46-1.54a3 3 0 0 1 1.34-1.06 5.77 5.77 0 0 1 4.08-.06c.63.21 1.15.53 1.56.94l-.58 1.12c-.4-.39-.86-.67-1.38-.86-.5-.2-1.03-.3-1.58-.3-.78 0-1.38.16-1.78.48-.38.3-.58.71-.58 1.22 0 .39.12.7.36.96.26.24.64.42 1.16.54l1.86.38c.9.2 1.58.51 2.02.94.46.41.68.97.68 1.68 0 .6-.16 1.13-.5 1.58-.33.44-.8.78-1.4 1.02-.58.24-1.28.36-2.08.36Zm9.92 0c-.8 0-1.54-.1-2.24-.32a4.85 4.85 0 0 1-1.72-.94l.56-1.14a5.19 5.19 0 0 0 3.42 1.14c.8 0 1.4-.14 1.8-.42.42-.3.62-.7.62-1.2 0-.39-.13-.7-.4-.92a2.7 2.7 0 0 0-1.26-.56l-1.86-.38c-.85-.19-1.49-.5-1.92-.94a2.41 2.41 0 0 1-.64-1.72c0-.59.16-1.1.46-1.54a3 3 0 0 1 1.34-1.06 5.77 5.77 0 0 1 4.08-.06c.63.21 1.15.53 1.56.94l-.58 1.12c-.4-.39-.86-.67-1.38-.86-.5-.2-1.03-.3-1.58-.3-.78 0-1.38.16-1.78.48-.38.3-.58.71-.58 1.22 0 .39.12.7.36.96.26.24.64.42 1.16.54l1.86.38c.91.2 1.58.51 2.02.94.46.41.68.97.68 1.68 0 .6-.16 1.13-.5 1.58-.33.44-.8.78-1.4 1.02-.58.24-1.28.36-2.08.36Z"/><path fill="#4C4034" d="M37.28 225v-14.1h5.76c1.48 0 2.63.35 3.44 1.06.81.7 1.22 1.67 1.22 2.92 0 .83-.19 1.53-.56 2.12a3.49 3.49 0 0 1-1.54 1.32c-.65.3-1.42.46-2.3.46l.36-.26h.4c.55 0 1.03.13 1.46.4.44.27.79.71 1.04 1.34l2 4.74h-1.82l-1.92-4.66c-.23-.6-.57-.99-1.02-1.16a4.48 4.48 0 0 0-1.7-.28h-3.16v6.1h-1.66Zm1.66-7.4h3.86c1.07 0 1.87-.23 2.42-.68.56-.47.84-1.13.84-2 0-.87-.28-1.53-.84-1.98-.55-.45-1.35-.68-2.42-.68h-3.86v5.34Zm12 7.4v-10.04h1.63V225h-1.62Zm-.2-12.32v-1.82h2v1.82h-2Zm8.31 12.5c-.8 0-1.54-.1-2.24-.32a4.84 4.84 0 0 1-1.72-.94l.56-1.14c.5.39 1.03.67 1.6.86.59.19 1.2.28 1.82.28.8 0 1.4-.14 1.8-.42.42-.3.62-.7.62-1.2 0-.39-.13-.7-.4-.92a2.7 2.7 0 0 0-1.26-.56l-1.86-.38c-.85-.19-1.49-.5-1.92-.94a2.41 2.41 0 0 1-.64-1.72c0-.59.16-1.1.46-1.54a3 3 0 0 1 1.34-1.06 5.78 5.78 0 0 1 4.08-.06c.63.21 1.15.53 1.56.94l-.58 1.12c-.4-.39-.86-.67-1.38-.86-.5-.2-1.03-.3-1.58-.3-.78 0-1.38.16-1.78.48-.38.3-.58.71-.58 1.22 0 .39.12.7.36.96.26.24.64.42 1.16.54l1.86.38c.91.2 1.58.51 2.02.94.46.41.68.97.68 1.68 0 .6-.16 1.13-.5 1.58-.33.44-.8.78-1.4 1.02-.58.24-1.28.36-2.08.36Zm6.58-.18v-14.72h1.62v9.14h.04l4.66-4.46H74l-5.5 5.24.04-.82 5.98 5.62h-2.1l-5.12-4.72h-.04V225h-1.62Zm21.83.18c-1.41 0-2.61-.3-3.6-.88a5.84 5.84 0 0 1-2.28-2.5 8.82 8.82 0 0 1-.78-3.86c0-1.5.26-2.77.78-3.84a5.84 5.84 0 0 1 2.28-2.5 6.92 6.92 0 0 1 3.6-.88c1 0 1.9.15 2.68.46.79.3 1.48.75 2.06 1.34l-.62 1.32a6.8 6.8 0 0 0-1.9-1.22 5.58 5.58 0 0 0-2.2-.4c-1.61 0-2.84.5-3.68 1.5-.84 1-1.26 2.4-1.26 4.22 0 1.81.42 3.23 1.26 4.24.84 1 2.07 1.5 3.68 1.5.84 0 1.58-.13 2.2-.38a7.02 7.02 0 0 0 1.9-1.26l.62 1.34a6.33 6.33 0 0 1-4.74 1.8Zm10.77 0c-.96 0-1.8-.2-2.52-.62a4.3 4.3 0 0 1-1.64-1.8 6.24 6.24 0 0 1-.58-2.78c0-1.08.2-2 .58-2.78.39-.77.93-1.37 1.64-1.78a4.85 4.85 0 0 1 2.52-.64c.97 0 1.81.21 2.52.64.72.41 1.28 1 1.66 1.78.4.77.6 1.7.6 2.78 0 1.07-.2 2-.6 2.78a4.25 4.25 0 0 1-1.66 1.8 4.9 4.9 0 0 1-2.52.62Zm0-1.32c.96 0 1.72-.33 2.28-.98.56-.67.84-1.63.84-2.9 0-1.28-.28-2.25-.86-2.9a2.8 2.8 0 0 0-2.26-1c-.95 0-1.7.33-2.26 1-.56.65-.84 1.62-.84 2.9 0 1.27.28 2.23.84 2.9.56.65 1.31.98 2.26.98Zm7.3 1.14v-7.72a33.27 33.27 0 0 0-.16-2.32h1.57l.2 2.2h-.24c.29-.77.76-1.36 1.4-1.76.65-.41 1.4-.62 2.26-.62 1.18 0 2.08.32 2.68.96.61.63.92 1.62.92 2.98V225h-1.62v-6.18c0-.95-.2-1.63-.58-2.06-.38-.44-.96-.66-1.76-.66-.94 0-1.68.29-2.22.86a3.2 3.2 0 0 0-.82 2.3V225h-1.62Zm15.29.18c-1 0-1.74-.28-2.26-.84-.52-.57-.78-1.43-.78-2.58v-5.54h-1.96v-1.26h1.96v-2.74l1.62-.46v3.2h2.88v1.26h-2.88v5.36c0 .8.13 1.37.4 1.72.28.33.69.5 1.24.5.25 0 .48-.02.68-.06.2-.05.38-.11.54-.18v1.36a2.8 2.8 0 0 1-.68.18c-.26.05-.51.08-.76.08Zm3.39-.18v-7.62c0-.4-.02-.8-.04-1.22-.02-.41-.04-.81-.08-1.2h1.56l.2 2.44-.28.02a3.1 3.1 0 0 1 1.88-2.34c.45-.2.92-.3 1.42-.3.2 0 .37 0 .52.02.16.01.3.05.44.1l-.02 1.44a3.41 3.41 0 0 0-1.12-.16c-.59 0-1.1.14-1.54.42a2.82 2.82 0 0 0-1.3 2.48V225h-1.64Zm11.3.18a4.3 4.3 0 0 1-4.16-2.42 6.24 6.24 0 0 1-.57-2.78c0-1.08.19-2 .58-2.78.38-.77.93-1.37 1.64-1.78a4.85 4.85 0 0 1 2.52-.64c.97 0 1.81.21 2.52.64.72.41 1.27 1 1.66 1.78.4.77.6 1.7.6 2.78 0 1.07-.2 2-.6 2.78a4.25 4.25 0 0 1-1.66 1.8 4.9 4.9 0 0 1-2.52.62Zm0-1.32c.97 0 1.73-.33 2.29-.98.56-.67.84-1.63.84-2.9 0-1.28-.29-2.25-.86-2.9a2.8 2.8 0 0 0-2.26-1c-.95 0-1.7.33-2.26 1-.56.65-.84 1.62-.84 2.9 0 1.27.28 2.23.84 2.9.56.65 1.31.98 2.26.98Zm7.31 1.14v-14.72h1.62V225h-1.62ZM56.97 249v-14.1h1.44l5.66 12.78h-.58l5.66-12.78h1.44V249h-1.52v-11.96h.6L64.33 249h-1.1l-5.36-11.96h.6V249h-1.5Zm21.43.18a5.03 5.03 0 0 1-3.72-1.36 5.2 5.2 0 0 1-1.36-3.82c0-1.05.2-1.97.6-2.74.4-.79.96-1.4 1.68-1.82a4.66 4.66 0 0 1 2.48-.66c.92 0 1.7.2 2.32.58.63.39 1.1.94 1.44 1.66.33.7.5 1.55.5 2.52v.6h-7.78v-1.02h6.72l-.34.26a3.9 3.9 0 0 0-.72-2.5c-.48-.6-1.2-.9-2.14-.9-1 0-1.78.35-2.34 1.06-.56.7-.84 1.63-.84 2.82v.18c0 1.25.3 2.2.92 2.86.63.64 1.5.96 2.62.96.6 0 1.16-.09 1.68-.26a4.73 4.73 0 0 0 1.52-.9l.56 1.14c-.44.43-1 .76-1.68 1-.67.23-1.37.34-2.12.34Zm10.24 0c-.9 0-1.68-.2-2.34-.62a4.3 4.3 0 0 1-1.56-1.8 6.54 6.54 0 0 1-.54-2.78c0-1.1.18-2.03.54-2.8.37-.77.9-1.37 1.56-1.78a4.35 4.35 0 0 1 2.34-.62c.9 0 1.68.23 2.34.7.66.45 1.1 1.07 1.32 1.86h-.24l.22-2.38h1.56l-.12 1.18c-.03.39-.04.77-.04 1.14V249h-1.62v-2.36h.22c-.22.79-.66 1.4-1.32 1.86-.67.45-1.44.68-2.32.68Zm.32-1.32c.96 0 1.72-.33 2.28-.98.56-.67.84-1.63.84-2.9 0-1.28-.28-2.25-.84-2.9-.56-.67-1.32-1-2.28-1-.95 0-1.7.33-2.28 1-.56.65-.84 1.62-.84 2.9 0 1.27.28 2.23.84 2.9.57.65 1.33.98 2.28.98Zm11.19 1.32c-.8 0-1.55-.1-2.24-.32a4.84 4.84 0 0 1-1.72-.94l.56-1.14c.5.39 1.03.67 1.6.86.59.19 1.2.28 1.82.28.8 0 1.4-.14 1.8-.42.41-.3.62-.7.62-1.2 0-.39-.13-.7-.4-.92a2.7 2.7 0 0 0-1.26-.56l-1.86-.38c-.85-.19-1.5-.5-1.92-.94a2.41 2.41 0 0 1-.64-1.72c0-.59.15-1.1.46-1.54a3 3 0 0 1 1.34-1.06 5.77 5.77 0 0 1 4.08-.06c.63.21 1.15.53 1.56.94l-.58 1.12c-.4-.39-.86-.67-1.38-.86-.5-.2-1.03-.3-1.58-.3-.79 0-1.38.16-1.78.48-.39.3-.58.71-.58 1.22 0 .39.12.7.36.96.25.24.64.42 1.16.54l1.86.38c.9.2 1.58.51 2.02.94.45.41.68.97.68 1.68 0 .6-.17 1.13-.5 1.58-.33.44-.8.78-1.4 1.02-.59.24-1.28.36-2.08.36Zm10.12 0c-1.18 0-2.08-.33-2.7-.98-.6-.65-.9-1.65-.9-3v-6.24h1.62v6.2c0 .92.19 1.6.56 2.04.38.43.96.64 1.74.64.88 0 1.59-.29 2.12-.86.54-.57.8-1.34.8-2.3v-5.72h1.62V249h-1.58v-2.26h.26a3.58 3.58 0 0 1-3.54 2.44Zm7.97-.18v-7.62c0-.4-.02-.8-.05-1.22 0-.41-.03-.81-.08-1.2h1.56l.2 2.44-.28.02a3.11 3.11 0 0 1 1.88-2.34c.46-.2.93-.3 1.42-.3.2 0 .38 0 .53.02.16.01.3.05.44.1l-.03 1.44a3.4 3.4 0 0 0-1.12-.16c-.58 0-1.1.14-1.54.42a2.83 2.83 0 0 0-1.3 2.48V249h-1.64Zm11.64.18a5.02 5.02 0 0 1-3.72-1.36 5.2 5.2 0 0 1-1.36-3.82c0-1.05.2-1.97.6-2.74.4-.79.96-1.4 1.68-1.82a4.66 4.66 0 0 1 2.48-.66c.92 0 1.7.2 2.32.58.63.39 1.11.94 1.44 1.66.34.7.5 1.55.5 2.52v.6h-7.78v-1.02h6.72l-.34.26a3.9 3.9 0 0 0-.72-2.5c-.48-.6-1.19-.9-2.14-.9-1 0-1.78.35-2.34 1.06-.56.7-.84 1.63-.84 2.82v.18c0 1.25.31 2.2.92 2.86.63.64 1.5.96 2.62.96.6 0 1.16-.09 1.68-.26a4.73 4.73 0 0 0 1.52-.9l.56 1.14c-.44.43-1 .76-1.68 1-.66.23-1.37.34-2.12.34Zm9.76 0c-.8 0-1.54-.1-2.24-.32a4.83 4.83 0 0 1-1.72-.94l.56-1.14c.5.39 1.03.67 1.6.86.59.19 1.2.28 1.82.28.8 0 1.4-.14 1.8-.42.42-.3.62-.7.62-1.2 0-.39-.13-.7-.4-.92a2.72 2.72 0 0 0-1.26-.56l-1.86-.38c-.85-.19-1.5-.5-1.92-.94a2.4 2.4 0 0 1-.64-1.72c0-.59.16-1.1.46-1.54a3 3 0 0 1 1.34-1.06 5.78 5.78 0 0 1 4.08-.06c.63.21 1.15.53 1.56.94l-.58 1.12a4.27 4.27 0 0 0-2.96-1.16c-.78 0-1.38.16-1.78.48-.38.3-.58.71-.58 1.22 0 .39.12.7.36.96.26.24.64.42 1.16.54l1.86.38c.9.2 1.58.51 2.02.94.46.41.68.97.68 1.68 0 .6-.16 1.13-.5 1.58-.33.44-.8.78-1.4 1.02-.58.24-1.28.36-2.08.36Z"/><path fill="#374840" d="M460.76 225v-14.1h5.74c1.48 0 2.62.36 3.42 1.08.8.7 1.2 1.7 1.2 2.96 0 1.24-.4 2.23-1.2 2.96-.8.72-1.94 1.08-3.42 1.08h-4.08V225h-1.66Zm1.66-7.4h3.92c1.03 0 1.8-.23 2.32-.7.53-.47.8-1.12.8-1.96a2.5 2.5 0 0 0-.8-1.98c-.52-.47-1.3-.7-2.32-.7h-3.92v5.34Zm10.95 7.4v-7.62c0-.4-.01-.8-.04-1.22-.01-.41-.04-.81-.08-1.2h1.56l.2 2.44-.28.02a3.1 3.1 0 0 1 1.88-2.34c.45-.2.93-.3 1.42-.3.2 0 .38 0 .52.02.16.01.3.05.44.1l-.02 1.44a3.41 3.41 0 0 0-1.12-.16c-.59 0-1.1.14-1.54.42a2.82 2.82 0 0 0-1.3 2.48V225h-1.64Zm11.31.18c-.96 0-1.8-.2-2.52-.62a4.3 4.3 0 0 1-1.64-1.8 6.24 6.24 0 0 1-.58-2.78c0-1.08.2-2 .58-2.78.39-.77.93-1.37 1.64-1.78a4.85 4.85 0 0 1 2.52-.64c.97 0 1.81.21 2.52.64.72.41 1.27 1 1.66 1.78.4.77.6 1.7.6 2.78 0 1.07-.2 2-.6 2.78a4.25 4.25 0 0 1-1.66 1.8 4.9 4.9 0 0 1-2.52.62Zm0-1.32c.96 0 1.72-.33 2.28-.98.56-.67.84-1.63.84-2.9 0-1.28-.29-2.25-.86-2.9a2.8 2.8 0 0 0-2.26-1c-.95 0-1.7.33-2.26 1-.56.65-.84 1.62-.84 2.9 0 1.27.28 2.23.84 2.9.56.65 1.31.98 2.26.98Zm10.77 1.32c-.99 0-1.74-.28-2.26-.84-.52-.57-.78-1.43-.78-2.58v-5.54h-1.96v-1.26h1.96v-2.74l1.62-.46v3.2h2.88v1.26h-2.88v5.36c0 .8.13 1.37.4 1.72.28.33.7.5 1.24.5.25 0 .48-.02.68-.06.2-.05.38-.11.54-.18v1.36a2.8 2.8 0 0 1-.68.18c-.25.05-.5.08-.76.08Zm7.8 0a5.03 5.03 0 0 1-3.73-1.36 5.2 5.2 0 0 1-1.36-3.82c0-1.05.2-1.97.6-2.74.4-.79.96-1.4 1.68-1.82a4.66 4.66 0 0 1 2.48-.66c.92 0 1.7.2 2.32.58.63.39 1.11.94 1.44 1.66.34.7.5 1.55.5 2.52v.6h-7.78v-1.02h6.72l-.34.26a3.9 3.9 0 0 0-.72-2.5c-.48-.6-1.19-.9-2.14-.9-1 0-1.78.35-2.34 1.06-.56.7-.84 1.63-.84 2.82v.18c0 1.25.31 2.2.92 2.86.63.64 1.5.96 2.62.96.6 0 1.16-.09 1.68-.26a4.73 4.73 0 0 0 1.52-.9l.56 1.14c-.44.43-1 .76-1.68 1-.66.23-1.37.34-2.12.34Zm10.63 0c-.99 0-1.85-.21-2.58-.64a4.36 4.36 0 0 1-1.68-1.82 6.28 6.28 0 0 1-.58-2.8c0-1.1.2-2.02.6-2.78.4-.77.96-1.36 1.68-1.76.73-.4 1.59-.6 2.56-.6.64 0 1.26.11 1.86.34.62.23 1.12.55 1.52.96l-.58 1.16a3.95 3.95 0 0 0-2.7-1.14c-1.04 0-1.85.33-2.42.98-.57.65-.86 1.6-.86 2.86 0 1.24.29 2.2.86 2.88a3 3 0 0 0 2.42 1.02 3.9 3.9 0 0 0 2.7-1.12l.58 1.14c-.41.43-.92.75-1.54.98-.61.23-1.23.34-1.84.34Zm9.24 0c-.98 0-1.74-.28-2.26-.84-.52-.57-.78-1.43-.78-2.58v-5.54h-1.96v-1.26h1.96v-2.74l1.62-.46v3.2h2.88v1.26h-2.88v5.36c0 .8.14 1.37.4 1.72.28.33.7.5 1.24.5.26 0 .48-.02.68-.06.2-.05.38-.11.54-.18v1.36c-.18.08-.4.14-.68.18-.25.05-.5.08-.76.08Zm3.44-.18v-10.04h1.62V225h-1.62Zm-.2-12.32v-1.82h2v1.82h-2Zm9.08 12.5c-.96 0-1.8-.2-2.52-.62a4.3 4.3 0 0 1-1.64-1.8 6.24 6.24 0 0 1-.58-2.78c0-1.08.2-2 .58-2.78.39-.77.94-1.37 1.64-1.78a4.85 4.85 0 0 1 2.52-.64c.98 0 1.82.21 2.52.64.72.41 1.28 1 1.66 1.78.4.77.6 1.7.6 2.78 0 1.07-.2 2-.6 2.78a4.25 4.25 0 0 1-1.66 1.8 4.9 4.9 0 0 1-2.52.62Zm0-1.32c.96 0 1.72-.33 2.28-.98.56-.67.84-1.63.84-2.9 0-1.28-.28-2.25-.86-2.9a2.8 2.8 0 0 0-2.26-1c-.94 0-1.7.33-2.26 1-.56.65-.84 1.62-.84 2.9 0 1.27.28 2.23.84 2.9.56.65 1.32.98 2.26.98Zm7.3 1.14v-7.72a33.27 33.27 0 0 0-.16-2.32h1.57l.2 2.2h-.24c.3-.77.76-1.36 1.4-1.76.65-.41 1.4-.62 2.26-.62 1.19 0 2.08.32 2.68.96.61.63.92 1.62.92 2.98V225h-1.62v-6.18c0-.95-.2-1.63-.58-2.06-.38-.44-.96-.66-1.76-.66-.93 0-1.67.29-2.22.86a3.2 3.2 0 0 0-.82 2.3V225h-1.62ZM459.36 249l6.22-14.1h1.44l6.32 14.1h-1.72l-1.76-4.02.74.42h-8.62l.8-.42-1.72 4.02h-1.7Zm6.92-12.2-3.24 7.6-.48-.36H470l-.36.36-3.32-7.6h-.04Zm13.33 16.66c-.87 0-1.67-.1-2.4-.32a6.12 6.12 0 0 1-1.98-.98l.48-1.22a5.83 5.83 0 0 0 2.46 1.08c.43.1.88.14 1.36.14.99 0 1.73-.26 2.24-.78.5-.52.76-1.26.76-2.22v-2.94h.2a3.27 3.27 0 0 1-1.32 1.88c-.67.45-1.45.68-2.34.68-.92 0-1.72-.2-2.4-.6-.67-.41-1.19-1-1.56-1.74a6.2 6.2 0 0 1-.54-2.68c0-1.01.18-1.9.54-2.64.37-.75.9-1.32 1.56-1.72a4.53 4.53 0 0 1 2.4-.62 4 4 0 0 1 2.34.68c.67.45 1.1 1.08 1.32 1.88l-.2-.2.18-2.18h1.58a17.26 17.26 0 0 0-.16 2.32v7.66c0 1.5-.39 2.62-1.16 3.38-.76.76-1.88 1.14-3.36 1.14Zm-.24-6a2.9 2.9 0 0 0 2.3-.96c.56-.65.84-1.57.84-2.74a4 4 0 0 0-.84-2.72 2.9 2.9 0 0 0-2.3-.96c-.96 0-1.73.32-2.3.96a3.94 3.94 0 0 0-.86 2.72c0 1.17.29 2.09.86 2.74.57.64 1.34.96 2.3.96Zm11.69 1.72c-.9 0-1.67-.2-2.34-.62a4.3 4.3 0 0 1-1.56-1.8 6.54 6.54 0 0 1-.54-2.78c0-1.1.18-2.03.54-2.8.37-.77.9-1.37 1.56-1.78a4.35 4.35 0 0 1 2.34-.62c.9 0 1.69.23 2.34.7.67.45 1.1 1.07 1.32 1.86h-.24l.22-2.38h1.56l-.12 1.18c-.03.39-.04.77-.04 1.14V249h-1.62v-2.36h.22c-.21.79-.65 1.4-1.32 1.86-.67.45-1.44.68-2.32.68Zm.32-1.32c.96 0 1.72-.33 2.28-.98.56-.67.84-1.63.84-2.9 0-1.28-.28-2.25-.84-2.9-.56-.67-1.32-1-2.28-1-.95 0-1.7.33-2.28 1-.56.65-.84 1.62-.84 2.9 0 1.27.28 2.23.84 2.9.57.65 1.33.98 2.28.98Zm7.85 1.14v-10.04h1.62V249h-1.62Zm-.2-12.32v-1.82h2v1.82h-2ZM504 249v-7.72a33.27 33.27 0 0 0-.16-2.32h1.56l.2 2.2h-.24c.3-.77.76-1.36 1.4-1.76.65-.41 1.4-.62 2.26-.62 1.19 0 2.08.32 2.68.96.61.63.92 1.62.92 2.98V249H511v-6.18c0-.95-.2-1.63-.58-2.06-.38-.44-.96-.66-1.76-.66-.94 0-1.68.29-2.22.86a3.2 3.2 0 0 0-.82 2.3V249H504Zm15.06.18c-.8 0-1.55-.1-2.24-.32a4.83 4.83 0 0 1-1.72-.94l.56-1.14c.49.39 1.02.67 1.6.86.58.19 1.19.28 1.82.28.8 0 1.4-.14 1.8-.42.41-.3.62-.7.62-1.2 0-.39-.14-.7-.4-.92a2.72 2.72 0 0 0-1.26-.56l-1.86-.38c-.86-.19-1.5-.5-1.92-.94a2.4 2.4 0 0 1-.64-1.72c0-.59.15-1.1.46-1.54a3 3 0 0 1 1.34-1.06 5.78 5.78 0 0 1 4.08-.06c.62.21 1.14.53 1.56.94l-.58 1.12a4.27 4.27 0 0 0-2.96-1.16c-.79 0-1.38.16-1.78.48-.39.3-.58.71-.58 1.22 0 .39.12.7.36.96.25.24.64.42 1.16.54l1.86.38c.9.2 1.58.51 2.02.94.45.41.68.97.68 1.68 0 .6-.17 1.13-.5 1.58-.34.44-.8.78-1.4 1.02-.59.24-1.28.36-2.08.36Zm10.04 0c-.99 0-1.74-.28-2.26-.84-.52-.57-.78-1.43-.78-2.58v-5.54h-1.96v-1.26h1.96v-2.74l1.62-.46v3.2h2.88v1.26h-2.88v5.36c0 .8.13 1.37.4 1.72.28.33.7.5 1.24.5.25 0 .48-.02.68-.06.2-.05.38-.11.54-.18v1.36c-.19.08-.41.14-.68.18-.25.05-.5.08-.76.08Zm8.83-.18v-14.1h5.76c1.48 0 2.63.35 3.44 1.06.81.7 1.22 1.67 1.22 2.92 0 .83-.19 1.53-.56 2.12a3.49 3.49 0 0 1-1.54 1.32c-.65.3-1.42.46-2.3.46l.36-.26h.4c.54 0 1.03.13 1.46.4.44.27.79.71 1.04 1.34l2 4.74h-1.82l-1.92-4.66c-.23-.6-.57-.99-1.02-1.16a4.48 4.48 0 0 0-1.7-.28h-3.16v6.1h-1.66Zm1.66-7.4h3.86c1.06 0 1.87-.23 2.42-.68.56-.47.84-1.13.84-2 0-.87-.28-1.53-.84-1.98-.55-.45-1.36-.68-2.42-.68h-3.86v5.34Zm12 7.4v-10.04h1.63V249h-1.62Zm-.2-12.32v-1.82h2v1.82h-2Zm8.31 12.5c-.8 0-1.55-.1-2.24-.32a4.85 4.85 0 0 1-1.72-.94l.56-1.14a5.19 5.19 0 0 0 3.42 1.14c.8 0 1.4-.14 1.8-.42.41-.3.62-.7.62-1.2 0-.39-.13-.7-.4-.92a2.7 2.7 0 0 0-1.26-.56l-1.86-.38c-.85-.19-1.5-.5-1.92-.94a2.41 2.41 0 0 1-.64-1.72c0-.59.16-1.1.46-1.54a3 3 0 0 1 1.34-1.06 5.77 5.77 0 0 1 4.08-.06c.63.21 1.15.53 1.56.94l-.58 1.12c-.4-.39-.86-.67-1.38-.86-.5-.2-1.03-.3-1.58-.3-.79 0-1.38.16-1.78.48-.38.3-.58.71-.58 1.22 0 .39.12.7.36.96.25.24.64.42 1.16.54l1.86.38c.9.2 1.58.51 2.02.94.46.41.68.97.68 1.68 0 .6-.16 1.13-.5 1.58-.33.44-.8.78-1.4 1.02-.58.24-1.28.36-2.08.36Zm6.58-.18v-14.72h1.62v9.14h.04l4.66-4.46h2.04l-5.5 5.24.04-.82 5.98 5.62h-2.1l-5.12-4.72h-.04V249h-1.62Zm13.46.18c-.8 0-1.55-.1-2.24-.32a4.85 4.85 0 0 1-1.72-.94l.56-1.14a5.19 5.19 0 0 0 3.42 1.14c.8 0 1.4-.14 1.8-.42.41-.3.62-.7.62-1.2 0-.39-.13-.7-.4-.92a2.7 2.7 0 0 0-1.26-.56l-1.86-.38c-.85-.19-1.5-.5-1.92-.94a2.41 2.41 0 0 1-.64-1.72c0-.59.15-1.1.46-1.54a3 3 0 0 1 1.34-1.06 5.77 5.77 0 0 1 4.08-.06c.63.21 1.15.53 1.56.94l-.58 1.12c-.4-.39-.86-.67-1.38-.86-.5-.2-1.03-.3-1.58-.3-.79 0-1.38.16-1.78.48-.39.3-.58.71-.58 1.22 0 .39.12.7.36.96.25.24.64.42 1.16.54l1.86.38c.9.2 1.58.51 2.02.94.45.41.68.97.68 1.68 0 .6-.17 1.13-.5 1.58-.33.44-.8.78-1.4 1.02-.59.24-1.28.36-2.08.36Z"/><path fill="#46432D" d="M126.12 381v-12.7h-4.98v-1.4h11.6v1.4h-4.96V381h-1.66Zm8.47 0v-14.72h1.62v6.9h-.26a3.3 3.3 0 0 1 1.4-1.78 4.27 4.27 0 0 1 2.3-.62c1.2 0 2.1.33 2.68.98.58.64.88 1.61.88 2.92V381h-1.62v-6.22c0-.93-.19-1.61-.56-2.04-.36-.43-.95-.64-1.76-.64-.94 0-1.68.29-2.24.86a3.14 3.14 0 0 0-.82 2.26V381h-1.62Zm11.68 0v-7.62c0-.4-.02-.8-.04-1.22-.02-.41-.04-.81-.08-1.2h1.56l.2 2.44-.28.02a3.1 3.1 0 0 1 1.88-2.34c.45-.2.92-.3 1.42-.3.2 0 .37 0 .52.02.16.01.3.05.44.1l-.02 1.44a3.41 3.41 0 0 0-1.12-.16c-.59 0-1.1.14-1.54.42a2.81 2.81 0 0 0-1.3 2.48V381h-1.64Zm11.64.18a5.03 5.03 0 0 1-3.72-1.36 5.2 5.2 0 0 1-1.35-3.82c0-1.05.2-1.97.6-2.74.4-.79.96-1.4 1.68-1.82a4.66 4.66 0 0 1 2.47-.66c.92 0 1.7.2 2.32.58.63.39 1.11.94 1.44 1.66.34.7.5 1.55.5 2.52v.6h-7.78v-1.02h6.72l-.33.26a3.9 3.9 0 0 0-.72-2.5c-.49-.6-1.2-.9-2.15-.9-1 0-1.78.35-2.34 1.06-.56.7-.84 1.63-.84 2.82v.18c0 1.25.31 2.2.93 2.86.62.64 1.5.96 2.62.96a4.73 4.73 0 0 0 3.2-1.16l.56 1.14c-.44.43-1 .76-1.69 1-.66.23-1.37.34-2.12.34Zm10.24 0c-.89 0-1.67-.2-2.34-.62a4.3 4.3 0 0 1-1.56-1.8 6.54 6.54 0 0 1-.54-2.78c0-1.1.18-2.03.54-2.8.38-.77.9-1.37 1.56-1.78a4.35 4.35 0 0 1 2.34-.62c.91 0 1.7.23 2.34.7.67.45 1.11 1.07 1.32 1.86h-.24l.22-2.38h1.56l-.12 1.18c-.02.39-.04.77-.04 1.14V381h-1.62v-2.36h.22c-.2.79-.65 1.4-1.32 1.86-.66.45-1.44.68-2.32.68Zm.32-1.32c.96 0 1.72-.33 2.28-.98.56-.67.84-1.63.84-2.9 0-1.28-.28-2.25-.84-2.9-.56-.67-1.32-1-2.28-1-.94 0-1.7.33-2.28 1-.56.65-.84 1.62-.84 2.9 0 1.27.28 2.23.84 2.9.58.65 1.34.98 2.28.98Zm11.42 1.32c-1 0-1.74-.28-2.26-.84-.52-.57-.78-1.43-.78-2.58v-5.54h-1.96v-1.26h1.96v-2.74l1.62-.46v3.2h2.88v1.26h-2.88v5.36c0 .8.13 1.37.4 1.72.28.33.69.5 1.24.5.25 0 .48-.02.68-.06.2-.05.38-.11.54-.18v1.36c-.2.08-.42.14-.68.18-.26.05-.51.08-.76.08Zm6.77 0c-.8 0-1.55-.1-2.24-.32a4.85 4.85 0 0 1-1.72-.94l.56-1.14a5.19 5.19 0 0 0 3.42 1.14c.8 0 1.4-.14 1.8-.42.41-.3.62-.7.62-1.2 0-.39-.13-.7-.4-.92a2.7 2.7 0 0 0-1.26-.56l-1.86-.38c-.86-.19-1.5-.5-1.92-.94a2.41 2.41 0 0 1-.64-1.72c0-.59.15-1.1.46-1.54a3 3 0 0 1 1.34-1.06 5.77 5.77 0 0 1 4.08-.06c.63.21 1.14.53 1.56.94l-.58 1.12c-.4-.39-.86-.67-1.38-.86-.5-.2-1.03-.3-1.58-.3-.79 0-1.38.16-1.78.48-.39.3-.58.71-.58 1.22 0 .39.12.7.36.96.25.24.64.42 1.16.54l1.86.38c.9.2 1.58.51 2.02.94.45.41.68.97.68 1.68 0 .6-.17 1.13-.5 1.58-.33.44-.8.78-1.4 1.02-.59.24-1.28.36-2.08.36Zm15.62 0c-.9 0-1.68-.2-2.34-.62a4.3 4.3 0 0 1-1.56-1.8 6.54 6.54 0 0 1-.54-2.78c0-1.1.17-2.03.53-2.8.38-.77.9-1.37 1.56-1.78a4.35 4.35 0 0 1 2.34-.62c.91 0 1.7.23 2.34.7.67.45 1.11 1.07 1.32 1.86h-.24l.22-2.38h1.56l-.12 1.18-.03 1.14V381h-1.63v-2.36h.22c-.2.79-.65 1.4-1.31 1.86-.67.45-1.44.68-2.32.68Zm.31-1.32c.97 0 1.72-.33 2.28-.98.56-.67.84-1.63.84-2.9 0-1.28-.28-2.25-.84-2.9-.56-.67-1.31-1-2.28-1-.94 0-1.7.33-2.28 1-.56.65-.84 1.62-.84 2.9 0 1.27.28 2.23.84 2.9.58.65 1.34.98 2.28.98Zm7.86 1.14v-7.72a31.07 31.07 0 0 0-.16-2.32h1.56l.2 2.2h-.24c.3-.77.76-1.36 1.4-1.76.65-.41 1.4-.62 2.26-.62 1.18 0 2.08.32 2.68.96.61.63.92 1.62.92 2.98V381h-1.62v-6.18c0-.95-.2-1.63-.58-2.06-.38-.44-.96-.66-1.76-.66-.94 0-1.68.29-2.22.86a3.2 3.2 0 0 0-.82 2.3V381h-1.62Zm15.52.18c-.88 0-1.66-.2-2.32-.62a4.3 4.3 0 0 1-1.56-1.8 6.54 6.54 0 0 1-.54-2.78c0-1.1.18-2.03.54-2.8.37-.77.89-1.37 1.56-1.78a4.32 4.32 0 0 1 2.32-.62 4 4 0 0 1 2.34.68 3.28 3.28 0 0 1 1.34 1.84h-.24v-7.02h1.62V381h-1.6v-2.4h.22c-.22.8-.66 1.43-1.32 1.9a4.1 4.1 0 0 1-2.36.68Zm.34-1.32c.94 0 1.7-.33 2.28-.98.57-.67.86-1.63.86-2.9 0-1.28-.3-2.25-.86-2.9-.58-.67-1.34-1-2.28-1-.95 0-1.71.33-2.28 1-.56.65-.84 1.62-.84 2.9 0 1.27.28 2.23.84 2.9.57.65 1.33.98 2.28.98ZM107.78 405l-6.14-14.1h1.78l5.46 12.78h-.62l5.5-12.78h1.72L109.3 405h-1.52Zm11.89.18c-1.19 0-2.09-.33-2.7-.98-.6-.65-.9-1.65-.9-3v-6.24h1.62v6.2c0 .92.18 1.6.56 2.04.37.43.95.64 1.74.64.88 0 1.58-.29 2.12-.86.53-.57.8-1.34.8-2.3v-5.72h1.62V405h-1.58v-2.26h.26a3.58 3.58 0 0 1-3.54 2.44Zm8-.18v-14.72h1.62V405h-1.62Zm4.77 0v-7.72c0-.37-.03-.75-.06-1.14l-.1-1.18h1.56l.2 2.2h-.25c.3-.77.77-1.36 1.4-1.76.66-.41 1.41-.62 2.27-.62 1.18 0 2.07.32 2.67.96.62.63.93 1.62.93 2.98V405h-1.63v-6.18c0-.95-.19-1.63-.58-2.06-.37-.44-.95-.66-1.75-.66-.94 0-1.68.29-2.22.86a3.2 3.2 0 0 0-.82 2.3V405h-1.63Zm16.17.18a5.03 5.03 0 0 1-3.72-1.36 5.2 5.2 0 0 1-1.36-3.82c0-1.05.2-1.97.6-2.74.4-.79.96-1.4 1.68-1.82a4.66 4.66 0 0 1 2.48-.66c.92 0 1.7.2 2.32.58.63.39 1.11.94 1.44 1.66.34.7.5 1.55.5 2.52v.6h-7.78v-1.02h6.72l-.34.26a3.9 3.9 0 0 0-.72-2.5c-.48-.6-1.19-.9-2.14-.9-1 0-1.78.35-2.34 1.06-.56.7-.84 1.63-.84 2.82v.18c0 1.25.31 2.2.92 2.86.63.64 1.5.96 2.62.96a4.72 4.72 0 0 0 3.2-1.16l.56 1.14c-.44.43-1 .76-1.68 1-.66.23-1.37.34-2.12.34ZM155 405v-7.62c0-.4-.01-.8-.04-1.22-.01-.41-.04-.81-.08-1.2h1.56l.2 2.44-.28.02a3.1 3.1 0 0 1 1.88-2.34c.46-.2.93-.3 1.42-.3.2 0 .38 0 .52.02.16.01.31.05.44.1l-.02 1.44a3.41 3.41 0 0 0-1.12-.16c-.58 0-1.1.14-1.54.42a2.82 2.82 0 0 0-1.3 2.48V405H155Zm11.03.18c-.9 0-1.67-.2-2.34-.62a4.3 4.3 0 0 1-1.56-1.8 6.54 6.54 0 0 1-.54-2.78c0-1.1.18-2.03.54-2.8.37-.77.9-1.37 1.56-1.78a4.35 4.35 0 0 1 2.34-.62c.9 0 1.69.23 2.34.7.67.45 1.1 1.07 1.32 1.86h-.24l.22-2.38h1.56l-.12 1.18c-.03.39-.04.77-.04 1.14V405h-1.62v-2.36h.22c-.21.79-.65 1.4-1.32 1.86-.67.45-1.44.68-2.32.68Zm.32-1.32c.96 0 1.72-.33 2.28-.98.56-.67.84-1.63.84-2.9 0-1.28-.28-2.25-.84-2.9-.56-.67-1.32-1-2.28-1-.95 0-1.7.33-2.28 1-.56.65-.84 1.62-.84 2.9 0 1.27.28 2.23.84 2.9.57.65 1.33.98 2.28.98Zm12.9 1.32a4 4 0 0 1-2.35-.68 3.4 3.4 0 0 1-1.32-1.9h.22v2.4h-1.6v-14.72h1.62v7.02h-.24a3.3 3.3 0 0 1 1.32-1.84 4 4 0 0 1 2.34-.68c.91 0 1.69.21 2.34.64.67.41 1.18 1 1.54 1.78.38.77.56 1.7.56 2.78 0 1.08-.18 2-.56 2.78a4.3 4.3 0 0 1-1.56 1.8c-.65.41-1.42.62-2.32.62Zm-.35-1.32c.95 0 1.71-.33 2.28-.98.58-.65.86-1.62.86-2.9 0-1.28-.28-2.25-.86-2.9-.57-.67-1.33-1-2.28-1-.94 0-1.7.33-2.28 1-.56.65-.84 1.62-.84 2.9 0 1.27.28 2.23.84 2.9.58.65 1.34.98 2.28.98Zm7.3 1.14v-10.04h1.62V405h-1.63Zm-.2-12.32v-1.82h2v1.82h-2Zm4.96 12.32v-14.72h1.62V405h-1.62Zm4.77 0v-10.04h1.62V405h-1.62Zm-.2-12.32v-1.82h2v1.82h-2Zm8.52 12.5c-.98 0-1.74-.28-2.26-.84-.52-.57-.78-1.43-.78-2.58v-5.54h-1.96v-1.26H201v-2.74l1.62-.46v3.2h2.88v1.26h-2.88v5.36c0 .8.14 1.37.4 1.72.28.33.7.5 1.24.5.26 0 .48-.02.68-.06.2-.05.38-.11.54-.18v1.36c-.18.08-.41.14-.68.18-.25.05-.5.08-.76.08Zm3.44-.18v-10.04h1.62V405h-1.63Zm-.2-12.32v-1.82h2v1.82h-2Zm9.42 12.5a5.03 5.03 0 0 1-3.72-1.36 5.2 5.2 0 0 1-1.36-3.82c0-1.05.2-1.97.6-2.74.4-.79.96-1.4 1.68-1.82a4.66 4.66 0 0 1 2.48-.66c.92 0 1.7.2 2.32.58.63.39 1.1.94 1.44 1.66.33.7.5 1.55.5 2.52v.6h-7.78v-1.02h6.72l-.34.26a3.9 3.9 0 0 0-.72-2.5c-.48-.6-1.2-.9-2.14-.9-1 0-1.78.35-2.34 1.06-.56.7-.84 1.63-.84 2.82v.18c0 1.25.3 2.2.92 2.86.63.64 1.5.96 2.62.96.6 0 1.16-.09 1.68-.26a4.73 4.73 0 0 0 1.52-.9l.56 1.14c-.44.43-1 .76-1.68 1-.67.23-1.37.34-2.12.34Zm9.76 0c-.8 0-1.55-.1-2.24-.32a4.84 4.84 0 0 1-1.72-.94l.56-1.14c.5.39 1.03.67 1.6.86.59.19 1.2.28 1.82.28.8 0 1.4-.14 1.8-.42.41-.3.62-.7.62-1.2 0-.39-.13-.7-.4-.92a2.7 2.7 0 0 0-1.26-.56l-1.86-.38c-.85-.19-1.5-.5-1.92-.94a2.4 2.4 0 0 1-.64-1.72c0-.59.15-1.1.46-1.54a3 3 0 0 1 1.34-1.06 5.78 5.78 0 0 1 4.08-.06c.63.21 1.15.53 1.56.94l-.58 1.12c-.4-.39-.86-.67-1.38-.86-.5-.2-1.03-.3-1.58-.3-.79 0-1.38.16-1.78.48-.39.3-.58.71-.58 1.22 0 .39.12.7.36.96.25.24.64.42 1.16.54l1.86.38c.9.2 1.58.51 2.02.94.45.41.68.97.68 1.68 0 .6-.17 1.13-.5 1.58-.33.44-.8.78-1.4 1.02-.59.24-1.28.36-2.08.36Z"/><path stroke="#fff" stroke-linecap="round" stroke-linejoin="round" stroke-width="2" d="M241 225a60 60 0 1 0 120 0 60 60 0 0 0-120 0Z" clip-rule="evenodd"/><path stroke="#fff" stroke-linecap="round" stroke-linejoin="round" stroke-width="2" d="m176.46 152.71-.17.29 72.75 42A59.97 59.97 0 0 1 301 164.99V81l-.04-.02c-49.6.06-97.83 25.77-124.5 71.73ZM176.13 296.71l.16.29 72.75-42a59.98 59.98 0 0 1 0-60l-72.75-42-.04.02c-24.75 42.99-26.59 97.61-.12 143.7Z" clip-rule="evenodd"/><path stroke="#fff" stroke-linecap="round" stroke-linejoin="round" stroke-width="2" d="M300.67 369h.33v-84a59.97 59.97 0 0 1-51.97-30l-72.74 42v.05c24.86 42.92 71.24 71.83 124.38 71.95ZM301.04 369.02c49.68-.06 97.98-25.85 124.63-71.96l.04-.06-72.75-42A59.98 59.98 0 0 1 301 285.01V369l.04.02Z" clip-rule="evenodd"/><path stroke="#fff" stroke-linecap="round" stroke-linejoin="round" stroke-width="2" d="M425.75 296.98c24.79-43.06 26.6-97.79 0-143.92l-.04-.06-72.75 42a59.98 59.98 0 0 1 .01 60l72.74 42 .04-.02Z" clip-rule="evenodd"/><path stroke="#fff" stroke-linecap="round" stroke-linejoin="round" stroke-width="2" d="M425.7 152.95c-24.89-43-71.38-71.92-124.63-71.95H301v84c22.2 0 41.6 12.06 51.97 30l72.74-42v-.05ZM7-51h588v72H7v-72Z" clip-rule="evenodd"/><path stroke="#fff" stroke-linecap="round" stroke-linejoin="round" stroke-width="2" d="M243 147.66h14m-7 0v-6m-11-18h22s2 0 2 2v14s0 2-2 2h-22s-2 0-2-2v-14s0-2 2-2Zm-10-3.44v15.27a24.62 24.62 0 0 0 16.44 22.94l2.24.82c1.5.55 3.14.55 4.64 0l2.24-.82A24.62 24.62 0 0 0 271 135.49V120.2c0-1.22-.74-2.33-1.87-2.8a48.5 48.5 0 0 0-19.13-3.74 48.5 48.5 0 0 0-19.13 3.73 3.07 3.07 0 0 0-1.87 2.81ZM357 132.65v-9h-22v26h12m16-19v-11a2 2 0 0 0-2-2h-8.9a6.66 6.66 0 0 0-12.2 0H331a2 2 0 0 0-2 2v34c0 1.1.9 2 2 2h18m-8-26h10m-10 6h10m-10 6h6m28 18-6.5-6.5m-15.5-6.44a9.06 9.06 0 1 0 18.11 0 9.06 9.06 0 0 0-18.11 0ZM289.38 243l-4.56 6.43h-17.05m45.8-6.95 4.88 6.95h15.85m-45.02-44.64-4.46-6.36h-8.2m36.1 6.41 4.46-6.41h8.19m2.33 44.4 6.6 6.6-6.6 6.6m-53.4 0-6.6-6.6 6.6-6.6m27.29-6.68c-.38.15-.8.15-1.18 0a15.66 15.66 0 0 1-10.02-14.6v-4.76c0-.9.74-1.63 1.64-1.63h17.95c.9 0 1.63.73 1.63 1.63v4.77c0 6.46-3.99 12.26-10.02 14.59v0Zm-22.93-12.26a22.34 22.34 0 1 0 44.69 0 22.34 22.34 0 0 0-44.7 0Zm46.7-25.46a4.46 4.46 0 1 0 8.94 0 4.46 4.46 0 0 0-8.93 0Zm-48.73 0a4.46 4.46 0 1 1-8.93 0 4.46 4.46 0 0 1 8.93 0ZM180 230l5-7m15 7-5-7m-12 12v8m7-8v8m7-8v8m-3-26a4 4 0 0 1-8 0 4.14 4.14 0 0 1 2.7-3.76 2 2 0 0 0 1.3-1.87V202m22 11v-5m-34 22h24s2 0 2 2v14s0 2-2 2h-24s-2 0-2-2v-14s0-2 2-2Zm43.75-10.96-8-16a2 2 0 0 0-3.51 0l-8 16A2 2 0 0 0 204 222h16a2 2 0 0 0 1.75-2.96ZM212 216.5a.5.5 0 1 1 0 1 .5.5 0 0 1 0-1ZM404.52 236.5h-20.14a4.18 4.18 0 0 1-4.18-4.19v-26.13c0-2.3 1.87-4.18 4.18-4.18h31.36c2.3 0 4.18 1.87 4.18 4.18v12.67h-39.73m0-8.68h39.73m-39.73 17.35h24.33m-8.1-17.35v26.33m11.63-26.33v14.04m.62 11.9a2.97 2.97 0 0 1 2.97-2.98h11.19a2.97 2.97 0 0 1 2.97 2.97v8.93a2.97 2.97 0 0 1-2.97 2.97h-11.19a2.97 2.97 0 0 1-2.97-2.97v-8.93Zm8.57-11.91a5.83 5.83 0 0 0-5.71 5.95v2.97h11.42v-2.97a5.83 5.83 0 0 0-5.71-5.95Zm0 14.28a2.16 2.16 0 1 0 2.06 2.15 2.1 2.1 0 0 0-2.06-2.15ZM255.45 320.63c1.4 2 2.2 4.4 2.2 7.2v2m-10.2-10.2v10.2m-6 0v-16c0-1.2.8-2 2-2m-2 3.4c-5.8 1.4-10 6.6-10 12.6v2m29.1-27.4v-3m.9 34.4c0 1.2-.8 2-2 2h-30c-1.2 0-2-.8-2-2v-2c0-1.2.8-2 2-2h30c1.2 0 2 .8 2 2v2Zm-.9-24.6a.8.8 0 1 1 0-1.6.8.8 0 0 1 0 1.6Zm1.6-17.4c-.4-.6-1-1-1.6-1-.8 0-1.4.4-1.6 1l-10.2 19.2c-.4.6-.2 1.2 0 1.8.4.6 1 .8 1.6.8h20.2c.6 0 1.2-.4 1.6-.8.4-.6.4-1.2 0-1.8l-10-19.2ZM364.26 316.72h3.5m-3.5 6a3 3 0 1 1 0 6 3 3 0 0 1 0-6Zm0 0v-9m-33.76-21.9 13.53 7.51c.58.22.97.78.97 1.4v32.77a1.5 1.5 0 0 1-2.05 1.4l-11.9-7.13a1 1 0 0 1-.55-.88v-35.06Zm0 0a1 1 0 0 1 1-1h22a3 3 0 0 1 3 3v7.45m-15.98 11.42v4m4.48 10.1h4.72m8.78-18.96h12s3 0 3 3v22s0 3-3 3h-12s-3 0-3-3v-22s0-3 3-3Z"/></g><defs><clipPath id="a"><path fill="#fff" d="M0-76h614v530H0z"/></clipPath></defs></svg>