<svg xmlns="http://www.w3.org/2000/svg" width="744" height="309" fill="none"><path fill="#fff" d="M745-20H-1v350h746V-20Z"/><path fill="#fff" fill-rule="evenodd" d="M0-19h744v348H0V-19Z" clip-rule="evenodd"/><path fill="#4E88E7" d="M471.6 65V50.9h6.1c1.6 0 2.8.3 3.6 1 .8.6 1.2 1.5 1.2 2.7 0 .8-.2 1.5-.7 2.1-.5.6-1.2 1-2.1 1.2v-.3c1 .1 1.8.5 2.3 1.1.6.6.9 1.4.9 2.4 0 1.2-.4 2.2-1.3 2.9-.9.7-2 1-3.6 1h-6.4Zm2.4-2h3.7c.8 0 1.5-.1 2-.4.5-.4.7-1 .7-1.7s-.2-1.3-.7-1.6c-.5-.3-1.2-.5-2-.5H474V63Zm0-6.1h3.3c1 0 1.6-.2 2-.5.5-.4.7-.9.7-1.5 0-.7-.2-1.2-.7-1.5-.4-.4-1-.6-2-.6H474v4Zm15 8.3c-.8 0-1.6-.2-2.3-.6-.6-.4-1.1-1-1.5-1.8-.4-.8-.6-1.8-.6-2.9 0-1 .2-2 .6-2.8a4.1 4.1 0 0 1 3.9-2.4 4 4 0 0 1 2.2.6c.7.5 1 1 1.3 1.7h-.2l.2-2.1h2.4a420.3 420.3 0 0 0-.2 2.5V65h-2.4v-2h.2a3 3 0 0 1-1.3 1.6 4 4 0 0 1-2.2.6Zm.8-2c.8 0 1.4-.2 1.9-.7.4-.6.7-1.4.7-2.6 0-1-.3-2-.7-2.5-.5-.5-1.1-.8-2-.8-.7 0-1.4.3-1.8.8-.5.6-.8 1.4-.8 2.5 0 1.2.3 2 .7 2.6.5.5 1.2.8 2 .8Zm7.8 1.8v-7.5a21.2 21.2 0 0 0-.2-2.6h2.4l.3 2.8h-.4c.1-.7.4-1.3.7-1.7a3 3 0 0 1 1.1-1 3.4 3.4 0 0 1 2-.3l.5.1V57a2.7 2.7 0 0 0-1.3-.2c-.6 0-1 .1-1.5.4-.4.2-.6.5-.8 1-.2.4-.3.9-.3 1.4V65h-2.5Zm12.3.2c-1 0-2-.2-2.7-.6-.8-.5-1.4-1-1.8-1.9a6 6 0 0 1-.7-2.8c0-1 .2-2 .7-2.8.4-.8 1-1.4 1.8-1.8.8-.4 1.7-.6 2.7-.6a6 6 0 0 1 2 .3c.6.2 1.1.5 1.5.9l-.8 1.7c-.3-.3-.7-.5-1.2-.7-.4-.2-.8-.3-1.3-.3-.9 0-1.6.3-2 .9-.6.5-.8 1.4-.8 2.4s.2 2 .7 2.5c.5.6 1.2.8 2.1.8.4 0 .9 0 1.3-.2.5-.2.9-.4 1.2-.7l.8 1.7c-.4.4-1 .7-1.6.9a6 6 0 0 1-1.9.3Zm9.8 0c-1 0-2-.2-2.7-.6-.8-.5-1.3-1-1.8-1.9a6 6 0 0 1-.6-2.8c0-1 .2-2 .6-2.7.5-.8 1-1.4 1.8-1.9.8-.4 1.7-.6 2.7-.6 1 0 2 .2 2.7.6.8.5 1.4 1 1.8 1.9.4.7.6 1.7.6 2.7 0 1.1-.2 2-.6 2.8-.4.8-1 1.4-1.8 1.9-.8.4-1.7.6-2.7.6Zm0-2c.8 0 1.4-.2 1.9-.7.5-.6.7-1.4.7-2.6 0-1-.2-2-.7-2.5-.5-.5-1.1-.8-1.9-.8-.8 0-1.4.3-1.9.8-.4.6-.7 1.4-.7 2.5 0 1.2.3 2 .7 2.6.5.5 1.1.8 2 .8Zm11.2 2c-.9 0-1.7-.2-2.3-.6-.7-.4-1.2-1-1.6-1.8-.4-.8-.6-1.8-.6-2.9 0-1 .2-2 .6-2.8a4.1 4.1 0 0 1 3.9-2.4 4 4 0 0 1 2.2.6c.7.4 1.1 1 1.3 1.7h-.2v-6.7h2.5V65h-2.5v-2.1h.2a3 3 0 0 1-1.3 1.7 4 4 0 0 1-2.2.6Zm.7-2c.8 0 1.4-.2 1.9-.7.5-.6.7-1.4.7-2.6 0-1-.2-2-.7-2.5-.5-.5-1.1-.8-1.9-.8-.8 0-1.4.3-2 .8-.4.6-.6 1.4-.6 2.5 0 1.2.2 2 .7 2.6.5.5 1.1.8 1.9.8Zm12.7 2c-1.7 0-3-.5-4-1.4-1-1-1.5-2.2-1.5-3.8 0-1 .3-2 .7-2.8a4.6 4.6 0 0 1 4.3-2.5c1 0 1.8.2 2.4.6.7.4 1.2 1 1.5 1.8.4.7.5 1.6.5 2.6v.6H541V59h5.5l-.3.3c0-1-.2-1.6-.6-2.1-.4-.5-1-.8-1.7-.8-.8 0-1.5.3-2 .9a4 4 0 0 0-.6 2.5v.2c0 1.1.3 2 .8 2.5.6.5 1.3.8 2.3.8.6 0 1.1 0 1.6-.2l1.5-.8.7 1.7c-.5.4-1 .7-1.7.9a7 7 0 0 1-2.1.3Zm9.6 0-2.4-.3c-.7-.2-1.3-.5-1.8-.9l.7-1.7a6.1 6.1 0 0 0 3.6 1.1c.6 0 1.1 0 1.4-.3.4-.2.5-.6.5-1 0-.2 0-.5-.3-.7a2 2 0 0 0-1-.4l-2-.4c-.8-.1-1.5-.5-2-1-.4-.4-.6-1-.6-1.7 0-.6.2-1.2.5-1.7.4-.4.9-.8 1.5-1 .6-.4 1.4-.5 2.2-.5.8 0 1.5.1 2.1.3.7.2 1.3.5 1.7.9l-.7 1.6-1.4-.8-1.6-.2c-.7 0-1.2 0-1.5.3-.3.3-.5.6-.5 1 0 .3.1.5.3.7.2.2.5.3.9.4l2 .4c.9.2 1.6.5 2 1 .5.4.7 1 .7 1.7s-.2 1.2-.5 1.7c-.4.5-.9.9-1.5 1.1a6 6 0 0 1-2.3.4Z"/><path fill="#3A4455" d="m470.4 101 6.2-14.1h1.4l6.3 14.1h-1.7l-1.7-4 .7.4H473l.8-.4-1.7 4h-1.7Zm6.9-12.2-3.3 7.6-.4-.4h7.4l-.4.4-3.3-7.6Zm9 12.2V86.3h1.6V101h-1.6Zm4.8 0V86.3h1.6V101H491Zm8.8.2a5 5 0 0 1-2.5-.6c-.7-.5-1.2-1-1.6-1.8-.4-.8-.6-1.8-.6-2.8 0-1.1.2-2 .6-2.8.4-.8 1-1.4 1.6-1.8.7-.4 1.6-.6 2.5-.6 1 0 1.9.2 2.6.6.7.4 1.2 1 1.6 1.8.4.8.6 1.7.6 2.8 0 1-.2 2-.6 2.8-.4.7-1 1.3-1.6 1.8-.7.4-1.6.6-2.6.6Zm0-1.3c1 0 1.8-.4 2.3-1 .6-.7.9-1.7.9-3 0-1.2-.3-2.2-.9-2.8-.6-.7-1.3-1-2.3-1-1 0-1.7.3-2.2 1-.6.6-.9 1.6-.9 2.9 0 1.2.3 2.2.9 2.9.5.6 1.3 1 2.2 1Zm9.9 1.1L506 91h1.7l3 8.8h-.4l3.2-8.8h1.4l3.1 8.8h-.5l3.1-8.8h1.7l-3.8 10h-1.5l-3.3-9h.8l-3.2 9h-1.6Zm17.8.2c-.8 0-1.5-.1-2.2-.3-.7-.3-1.3-.6-1.7-1l.5-1.1c.5.4 1 .7 1.6.8a6 6 0 0 0 1.9.3c.8 0 1.4-.1 1.8-.4.4-.3.6-.7.6-1.2 0-.4-.2-.7-.4-1l-1.3-.5-1.8-.4c-.9-.1-1.5-.5-2-.9-.4-.5-.6-1-.6-1.7 0-.6.1-1.1.5-1.6a3 3 0 0 1 1.3-1 5.8 5.8 0 0 1 4 0 4 4 0 0 1 1.6.9l-.5 1-1.4-.8c-.5-.2-1-.3-1.6-.3-.8 0-1.4.2-1.8.5-.4.3-.6.7-.6 1.2 0 .4.2.7.4 1 .2.2.6.4 1.2.5l1.8.4c1 .2 1.6.5 2 1 .5.4.7 1 .7 1.6 0 .6-.2 1.1-.5 1.6-.3.4-.8.8-1.4 1-.6.3-1.3.4-2 .4Zm19 4.1v-6.7h.3c-.2.8-.7 1.4-1.3 1.9a4 4 0 0 1-2.3.7c-1 0-1.7-.2-2.4-.6-.7-.5-1.2-1-1.5-1.8-.4-.8-.6-1.7-.6-2.8 0-1.1.2-2 .6-2.8.3-.8.8-1.4 1.5-1.8.7-.4 1.5-.6 2.4-.6.9 0 1.6.2 2.3.7.7.4 1.1 1 1.3 1.8h-.2l.2-2.3h1.6a348.5 348.5 0 0 0-.2 2.3v12h-1.6Zm-3-5.4c1 0 1.7-.4 2.3-1 .5-.7.8-1.7.8-3 0-1.2-.3-2.2-.8-2.8-.6-.7-1.4-1-2.3-1-1 0-1.7.3-2.3 1-.6.6-.8 1.6-.8 2.9 0 1.2.2 2.2.8 2.9.6.6 1.3 1 2.3 1Zm11.4 1.3c-1.2 0-2.1-.3-2.7-1-.6-.7-1-1.7-1-3V91h1.7v6.2c0 .9.2 1.6.5 2 .4.4 1 .6 1.8.6.9 0 1.6-.2 2.1-.8.5-.6.8-1.4.8-2.3V91h1.6v10h-1.6v-2.3h.3a3.6 3.6 0 0 1-3.5 2.5Zm8-.2V91h1.6v10H563Zm-.2-12.3v-1.8h2v1.8h-2Zm9.2 12.5a5 5 0 0 1-2.6-.7c-.7-.4-1.3-1-1.7-1.8-.4-.8-.6-1.7-.6-2.8 0-1 .2-2 .6-2.8.4-.7 1-1.3 1.7-1.7.7-.4 1.6-.6 2.6-.6.6 0 1.2 0 1.8.3a4 4 0 0 1 1.5 1l-.5 1.1a4 4 0 0 0-2.7-1.1 3 3 0 0 0-2.5 1c-.5.6-.8 1.6-.8 2.8 0 1.3.3 2.2.8 3a3 3 0 0 0 2.5 1 3.9 3.9 0 0 0 2.7-1.2l.5 1.2a4 4 0 0 1-1.5 1l-1.8.3Zm5.6-.2V86.3h1.7v9.1L584 91h2l-5.5 5.2v-.8l6 5.6h-2l-5.2-4.7v4.7h-1.7Zm18.9.2c-.8 0-1.6-.1-2.3-.3l-1.7-1 .6-1.1c.5.4 1 .7 1.6.8a6 6 0 0 0 1.8.3c.8 0 1.4-.1 1.8-.4.4-.3.6-.7.6-1.2 0-.4-.1-.7-.4-1-.2-.2-.7-.3-1.2-.5l-1.9-.4c-.9-.1-1.5-.5-2-.9-.3-.5-.6-1-.6-1.7 0-.6.2-1.1.5-1.6a3 3 0 0 1 1.3-1 5.8 5.8 0 0 1 4 0 4 4 0 0 1 1.7.9l-.6 1-1.4-.8c-.5-.2-1-.3-1.6-.3-.7 0-1.3.2-1.7.5-.4.3-.6.7-.6 1.2 0 .4.1.7.3 1l1.2.5 1.9.4c.9.2 1.5.5 2 1 .4.4.7 1 .7 1.6 0 .6-.2 1.1-.5 1.6-.4.4-.8.8-1.4 1-.6.3-1.3.4-2.1.4Zm10.8 0a5 5 0 0 1-2.6-.7c-.7-.4-1.3-1-1.7-1.8-.4-.8-.6-1.7-.6-2.8 0-1 .2-2 .6-2.8.4-.7 1-1.3 1.7-1.7.8-.4 1.6-.6 2.6-.6.6 0 1.2 0 1.8.3a4 4 0 0 1 1.6 1l-.6 1.1a4 4 0 0 0-2.7-1.1 3 3 0 0 0-2.4 1c-.6.6-.9 1.6-.9 2.8 0 1.3.3 2.2.9 3a3 3 0 0 0 2.4 1 3.9 3.9 0 0 0 2.7-1.2l.6 1.2a4 4 0 0 1-1.6 1l-1.8.3Zm9.4 0c-.9 0-1.7-.2-2.3-.6-.7-.5-1.2-1-1.6-1.8-.4-.8-.5-1.7-.5-2.8 0-1.1.1-2 .5-2.8.4-.8.9-1.4 1.6-1.8.6-.4 1.4-.6 2.3-.6 1 0 1.7.2 2.3.7.7.4 1.2 1 1.4 1.8h-.3l.2-2.3h1.6a348.5 348.5 0 0 0-.2 2.3v7.7h-1.6v-2.4h.2c-.2.8-.6 1.4-1.3 1.9a4 4 0 0 1-2.3.7Zm.3-1.3c1 0 1.7-.4 2.3-1 .6-.7.8-1.7.8-3 0-1.2-.2-2.2-.8-2.8-.6-.7-1.3-1-2.3-1-1 0-1.7.3-2.3 1-.5.6-.8 1.6-.8 2.9 0 1.2.3 2.2.8 2.9.6.6 1.4 1 2.3 1Zm7.9 1.1v-8.9l-.2-1.1h1.6l.2 2.2h-.3c.3-.8.8-1.4 1.4-1.8.7-.4 1.4-.6 2.3-.6 1.2 0 2 .3 2.7 1 .6.6.9 1.6.9 3v6.2h-1.6v-6.2c0-1-.2-1.6-.6-2-.4-.5-1-.7-1.8-.7a3 3 0 0 0-2.2.9c-.5.5-.8 1.3-.8 2.3v5.7h-1.6Zm11.7 0v-8.9l-.2-1.1h1.6l.2 2.2h-.2c.3-.8.7-1.4 1.4-1.8.6-.4 1.4-.6 2.2-.6 1.2 0 2.1.3 2.7 1 .6.6 1 1.6 1 3v6.2h-1.7v-6.2c0-1-.2-1.6-.6-2-.4-.5-1-.7-1.7-.7a3 3 0 0 0-2.3.9c-.5.5-.8 1.3-.8 2.3v5.7h-1.6Zm11.7 0V91h1.6v10h-1.6Zm-.2-12.3v-1.8h2v1.8h-2Zm5 12.3v-8.9l-.2-1.1h1.6l.2 2.2h-.3c.3-.8.8-1.4 1.4-1.8.7-.4 1.5-.6 2.3-.6 1.2 0 2 .3 2.7 1 .6.6.9 1.6.9 3v6.2h-1.6v-6.2c0-1-.2-1.6-.6-2-.4-.5-1-.7-1.8-.7a3 3 0 0 0-2.2.9c-.5.5-.8 1.3-.8 2.3v5.7h-1.6Zm16.1 4.5c-.8 0-1.6-.1-2.4-.4-.7-.2-1.4-.5-2-1l.5-1.2a6.8 6.8 0 0 0 2.5 1.1l1.3.2c1 0 1.8-.3 2.3-.8.5-.5.7-1.3.7-2.2v-3h.2c-.2.8-.6 1.4-1.3 1.9a4 4 0 0 1-2.3.7c-1 0-1.7-.2-2.4-.6-.7-.4-1.2-1-1.6-1.8-.3-.7-.5-1.6-.5-2.6s.2-2 .5-2.7a4 4 0 0 1 1.6-1.7c.7-.4 1.5-.6 2.4-.6.9 0 1.7.2 2.3.7.7.4 1.1 1 1.3 1.8l-.2-.2.2-2.1h1.6a16 16 0 0 0-.2 2.3v7.6c0 1.5-.3 2.7-1.1 3.4-.8.8-1.9 1.2-3.4 1.2Zm-.2-6c1 0 1.7-.4 2.3-1a4 4 0 0 0 .8-2.7 4 4 0 0 0-.8-2.8c-.6-.6-1.3-1-2.3-1a3 3 0 0 0-2.3 1 4 4 0 0 0-.9 2.8c0 1.1.3 2 .9 2.7a3 3 0 0 0 2.3 1Zm16.9 1.7c-.9 0-1.7-.2-2.4-.6-.6-.5-1.1-1-1.5-1.8-.4-.8-.6-1.7-.6-2.8 0-1.1.2-2 .6-2.8.4-.8.9-1.4 1.5-1.8.7-.4 1.5-.6 2.4-.6.9 0 1.7.2 2.3.7.7.4 1.1 1 1.3 1.8h-.2l.2-2.3h1.6a348.5 348.5 0 0 0-.2 2.3v7.7h-1.6v-2.4h.2c-.2.8-.6 1.4-1.3 1.9a4 4 0 0 1-2.3.7Zm.3-1.3c1 0 1.7-.4 2.3-1 .5-.7.8-1.7.8-3 0-1.2-.3-2.2-.8-2.8-.6-.7-1.3-1-2.3-1-1 0-1.7.3-2.3 1-.5.6-.8 1.6-.8 2.9 0 1.2.3 2.2.8 2.9.6.6 1.4 1 2.3 1Zm7.9 1.1v-7.7L694 92l-.1-1.1h1.6l.2 2.2h-.3c.3-.8.8-1.4 1.4-1.8.7-.4 1.4-.6 2.3-.6 1.2 0 2 .3 2.7 1 .6.6.9 1.6.9 3v6.2H701v-6.2c0-1-.2-1.6-.6-2-.4-.5-1-.7-1.8-.7a3 3 0 0 0-2.2.9c-.5.5-.8 1.3-.8 2.3v5.7H694Zm15.5.2c-.9 0-1.7-.2-2.3-.6-.7-.5-1.2-1-1.6-1.8-.4-.8-.5-1.7-.5-2.8 0-1.1.1-2 .5-2.8.4-.8.9-1.4 1.6-1.8.6-.4 1.4-.6 2.3-.6.9 0 1.7.2 2.3.7.7.4 1.1 1 1.4 1.8h-.3v-7h1.6V101H713v-2.4h.3c-.3.8-.7 1.4-1.4 1.9-.6.5-1.4.7-2.3.7Zm.3-1.3c1 0 1.7-.4 2.3-1 .6-.7.9-1.7.9-3 0-1.2-.3-2.2-.9-2.8-.6-.7-1.3-1-2.3-1-1 0-1.7.3-2.3 1-.5.6-.8 1.6-.8 2.9 0 1.2.3 2.2.8 2.9.6.6 1.4 1 2.3 1ZM476 125.2a5 5 0 0 1-3.7-1.4c-.9-.9-1.3-2.2-1.3-3.8 0-1 .2-2 .6-2.7.4-.8 1-1.4 1.6-1.9.8-.4 1.6-.6 2.5-.6 1 0 1.7.2 2.3.6.7.3 1.1.9 1.5 1.6.3.7.5 1.6.5 2.5v.6h-7.8v-1h6.7l-.3.3c0-1-.3-2-.7-2.5-.5-.6-1.2-1-2.2-1-1 0-1.8.4-2.3 1.1-.6.7-.9 1.7-.9 2.9v.1c0 1.3.3 2.2 1 2.9.6.6 1.5 1 2.6 1a4.7 4.7 0 0 0 3.2-1.2l.5 1.1c-.4.5-1 .8-1.6 1-.7.3-1.4.4-2.2.4Zm10.3 0c-1 0-1.7-.2-2.4-.6-.6-.5-1.1-1-1.5-1.8-.4-.8-.6-1.7-.6-2.8 0-1.1.2-2 .6-2.8.4-.8.9-1.4 1.5-1.8.7-.4 1.5-.6 2.4-.6.9 0 1.7.2 2.3.7.7.4 1.1 1 1.3 1.8h-.2l.2-2.3h1.6a356.5 356.5 0 0 0-.2 2.3v7.7h-1.6v-2.4h.2c-.2.8-.6 1.4-1.3 1.9a4 4 0 0 1-2.3.7Zm.3-1.3c1 0 1.7-.4 2.3-1 .5-.7.8-1.7.8-3 0-1.2-.3-2.2-.8-2.8-.6-.7-1.3-1-2.3-1-1 0-1.7.3-2.3 1-.5.6-.8 1.6-.8 2.9 0 1.2.3 2.2.8 2.9.6.6 1.4 1 2.3 1Zm11.2 1.3c-.8 0-1.6-.1-2.2-.3-.7-.3-1.3-.6-1.8-1l.6-1.1c.5.4 1 .7 1.6.8a6 6 0 0 0 1.8.3c.8 0 1.4-.1 1.8-.4.4-.3.6-.7.6-1.2 0-.4-.1-.7-.4-1-.2-.2-.6-.3-1.2-.5l-1.9-.4c-.8-.1-1.5-.5-2-.9-.3-.5-.5-1-.5-1.7 0-.6.1-1.1.4-1.6a3 3 0 0 1 1.4-1 5.8 5.8 0 0 1 4 0 4 4 0 0 1 1.6.9l-.6 1c-.4-.3-.8-.6-1.4-.8l-1.5-.3c-.8 0-1.4.2-1.8.5-.4.3-.6.7-.6 1.2 0 .4.1.7.4 1 .2.2.6.4 1.1.5l1.9.4c.9.2 1.6.5 2 1 .4.4.7 1 .7 1.6 0 .6-.2 1.1-.5 1.6-.4.4-.8.8-1.4 1-.6.3-1.3.4-2.1.4Zm6 4.3-.4-1.3 1.6-.5a3 3 0 0 0 1-.8c.3-.3.5-.7.7-1.2l.6-1.2v.7l-4.5-10.2h1.8l3.6 8.8h-.5l3.6-8.8h1.7l-4.7 10.8c-.2.7-.5 1.2-.8 1.6a4.6 4.6 0 0 1-2.3 1.8l-1.4.3Zm20-4.3c-.9 0-1.6-.2-2.3-.6-.7-.5-1.2-1-1.6-1.8-.3-.8-.5-1.7-.5-2.8 0-1.1.2-2 .5-2.8.4-.8 1-1.4 1.6-1.8.7-.4 1.4-.6 2.3-.6 1 0 1.7.2 2.4.7.6.4 1 1 1.3 1.8h-.2l.2-2.3h1.5a356.5 356.5 0 0 0-.1 2.3v7.7h-1.6v-2.4h.2c-.2.8-.7 1.4-1.3 1.9a4 4 0 0 1-2.4.7Zm.4-1.3c1 0 1.7-.4 2.2-1 .6-.7.9-1.7.9-3 0-1.2-.3-2.2-.9-2.8-.5-.7-1.3-1-2.2-1-1 0-1.7.3-2.3 1-.6.6-.9 1.6-.9 2.9 0 1.2.3 2.2.9 2.9.6.6 1.3 1 2.3 1Zm12 1.3a5 5 0 0 1-2.6-.7c-.7-.4-1.2-1-1.6-1.8-.4-.8-.6-1.7-.6-2.8 0-1 .2-2 .6-2.8.4-.7 1-1.3 1.7-1.7.7-.4 1.6-.6 2.5-.6.7 0 1.3 0 1.9.3a4 4 0 0 1 1.5 1l-.6 1.1a4 4 0 0 0-2.7-1.1 3 3 0 0 0-2.4 1c-.6.6-.9 1.6-.9 2.8 0 1.3.3 2.2 1 3a3 3 0 0 0 2.3 1 3.9 3.9 0 0 0 2.7-1.2l.6 1.2a4 4 0 0 1-1.5 1c-.6.2-1.3.3-1.9.3Zm9.7 0a5 5 0 0 1-2.5-.7c-.8-.4-1.3-1-1.7-1.8-.4-.8-.6-1.7-.6-2.8 0-1 .2-2 .6-2.8.4-.7 1-1.3 1.7-1.7.7-.4 1.6-.6 2.5-.6.7 0 1.3 0 1.9.3a4 4 0 0 1 1.5 1l-.6 1.1a4 4 0 0 0-2.7-1.1 3 3 0 0 0-2.4 1c-.6.6-.8 1.6-.8 2.8 0 1.3.2 2.2.8 3a3 3 0 0 0 2.4 1 3.9 3.9 0 0 0 2.7-1.2l.6 1.2a4 4 0 0 1-1.5 1c-.6.2-1.3.3-1.9.3Zm10 0a5 5 0 0 1-3.7-1.4c-1-.9-1.4-2.2-1.4-3.8 0-1 .2-2 .6-2.7.4-.8 1-1.4 1.7-1.9.7-.4 1.5-.6 2.5-.6.9 0 1.7.2 2.3.6.6.3 1 .9 1.4 1.6.4.7.5 1.6.5 2.5v.6H552v-1h6.8l-.4.3c0-1-.2-2-.7-2.5-.5-.6-1.2-1-2.1-1-1 0-1.8.4-2.4 1.1-.5.7-.8 1.7-.8 2.9v.1c0 1.3.3 2.2.9 2.9.6.6 1.5 1 2.6 1a4.7 4.7 0 0 0 3.2-1.2l.6 1.1c-.5.5-1 .8-1.7 1-.7.3-1.4.4-2.1.4Zm9.7 0c-.8 0-1.5-.1-2.2-.3-.7-.3-1.3-.6-1.7-1l.5-1.1c.5.4 1 .7 1.6.8a6 6 0 0 0 1.9.3c.8 0 1.4-.1 1.8-.4.4-.3.6-.7.6-1.2 0-.4-.2-.7-.4-1l-1.3-.5-1.8-.4c-.9-.1-1.5-.5-2-.9-.4-.5-.6-1-.6-1.7 0-.6.2-1.1.5-1.6a3 3 0 0 1 1.3-1 5.8 5.8 0 0 1 4 0 4 4 0 0 1 1.6.9l-.5 1-1.4-.8c-.5-.2-1-.3-1.6-.3-.8 0-1.4.2-1.8.5-.4.3-.6.7-.6 1.2 0 .4.2.7.4 1 .3.2.6.4 1.2.5l1.8.4c1 .2 1.6.5 2 1 .5.4.7 1 .7 1.6 0 .6-.1 1.1-.5 1.6-.3.4-.8.8-1.4 1-.6.3-1.3.4-2 .4Zm10 0c-.8 0-1.6-.1-2.3-.3l-1.7-1 .6-1.1c.5.4 1 .7 1.6.8a6 6 0 0 0 1.8.3c.8 0 1.4-.1 1.8-.4.4-.3.6-.7.6-1.2 0-.4-.1-.7-.4-1-.2-.2-.7-.3-1.3-.5l-1.8-.4c-.9-.1-1.5-.5-2-.9-.4-.5-.6-1-.6-1.7 0-.6.2-1.1.5-1.6a3 3 0 0 1 1.3-1 5.8 5.8 0 0 1 4 0 4 4 0 0 1 1.7.9l-.6 1-1.4-.8c-.5-.2-1-.3-1.6-.3-.8 0-1.4.2-1.8.5-.3.3-.5.7-.5 1.2 0 .4 0 .7.3 1l1.2.5 1.8.4c1 .2 1.6.5 2 1 .5.4.7 1 .7 1.6 0 .6-.1 1.1-.5 1.6-.3.4-.8.8-1.4 1-.5.3-1.2.4-2 .4Zm15.3 0c-1 0-1.7-.3-2.2-.9-.6-.5-.8-1.4-.8-2.5v-5.6h-2V115h2v-2.8l1.6-.4v3.2h2.9v1.2h-2.9v5.4c0 .8.1 1.4.4 1.7.3.3.7.5 1.2.5h.7l.6-.2v1.3l-.7.2h-.8Zm7.5 0a5 5 0 0 1-2.5-.6c-.8-.5-1.3-1-1.7-1.8-.4-.8-.6-1.8-.6-2.8 0-1.1.2-2 .6-2.8.4-.8 1-1.4 1.7-1.8.7-.4 1.5-.6 2.5-.6s1.8.2 2.5.6c.7.4 1.3 1 1.7 1.8.4.8.6 1.7.6 2.8 0 1-.2 2-.6 2.8-.4.7-1 1.3-1.7 1.8a5 5 0 0 1-2.5.6Zm0-1.3c1 0 1.7-.4 2.3-1 .5-.7.8-1.7.8-3 0-1.2-.3-2.2-.9-2.8-.5-.7-1.3-1-2.2-1-1 0-1.7.3-2.3 1-.5.6-.8 1.6-.8 2.9 0 1.2.3 2.2.8 2.9.6.6 1.3 1 2.3 1Zm18.2 1.3c-1.9 0-3.3-.5-4.2-1.5-1-1-1.4-2.4-1.4-4.3V111h1.6v8.4c0 1.5.4 2.6 1 3.3.6.8 1.6 1.1 3 1.1 1.3 0 2.3-.3 3-1 .7-.8 1-2 1-3.4V111h1.7v8.5c0 2-.5 3.3-1.5 4.3s-2.3 1.5-4.2 1.5Zm9-.2v-14.1h4.8c1.5 0 2.8.3 4 .8 1 .6 1.8 1.3 2.4 2.4a8 8 0 0 1 .8 3.8 8 8 0 0 1-.8 3.9c-.6 1-1.4 1.8-2.5 2.4-1 .5-2.4.8-4 .8h-4.6Zm1.7-1.4h3c1.9 0 3.3-.5 4.2-1.4 1-1 1.4-2.4 1.4-4.3s-.4-3.3-1.4-4.2c-1-1-2.3-1.4-4.3-1.4h-2.9v11.3Zm13.3 1.4v-14.1h1.7V125h-1.7Zm14 .2c-.8 0-1.6-.2-2.3-.6-.6-.5-1.2-1-1.5-1.8-.4-.8-.6-1.7-.6-2.8 0-1.1.2-2 .6-2.8.3-.8.9-1.4 1.5-1.8.7-.4 1.5-.6 2.3-.6 1 0 1.7.2 2.4.7.6.4 1 1 1.3 1.8h-.2v-7h1.6V125h-1.6v-2.4h.2c-.2.8-.6 1.4-1.3 1.9-.7.5-1.5.7-2.4.7Zm.4-1.3c1 0 1.7-.4 2.3-1 .5-.7.8-1.7.8-3 0-1.2-.3-2.2-.8-2.8-.6-.7-1.4-1-2.3-1-1 0-1.7.3-2.3 1-.6.6-.8 1.6-.8 2.9 0 1.2.2 2.2.8 2.9.6.6 1.3 1 2.3 1Zm12.3 1.3a5 5 0 0 1-3.7-1.4c-1-.9-1.4-2.2-1.4-3.8 0-1 .2-2 .6-2.7.4-.8 1-1.4 1.7-1.9.7-.4 1.5-.6 2.5-.6.9 0 1.7.2 2.3.6.6.3 1.1.9 1.4 1.6.4.7.5 1.6.5 2.5v.6h-7.8v-1h6.8l-.4.3c0-1-.2-2-.7-2.5-.5-.6-1.2-1-2.1-1-1 0-1.8.4-2.4 1.1-.5.7-.8 1.7-.8 2.9v.1c0 1.3.3 2.2 1 2.9.5.6 1.4 1 2.5 1a4.7 4.7 0 0 0 3.2-1.2l.6 1.1c-.5.5-1 .8-1.7 1-.7.3-1.4.4-2.1.4Zm10 0c-1 0-1.8-.3-2.3-.9-.5-.5-.8-1.4-.8-2.5v-5.6h-2V115h2v-2.8l1.6-.4v3.2h3v1.2h-3v5.4c0 .8.2 1.4.4 1.7.3.3.7.5 1.3.5h.7l.5-.2v1.3l-.7.2h-.7Zm7.2 0c-.9 0-1.7-.2-2.3-.6-.7-.5-1.2-1-1.6-1.8-.3-.8-.5-1.7-.5-2.8 0-1.1.2-2 .5-2.8.4-.8 1-1.4 1.6-1.8.6-.4 1.4-.6 2.3-.6 1 0 1.7.2 2.4.7.6.4 1 1 1.3 1.8h-.3l.3-2.3h1.5a356.5 356.5 0 0 0-.1 2.3v7.7h-1.7v-2.4h.3c-.3.8-.7 1.4-1.4 1.9a4 4 0 0 1-2.3.7Zm.3-1.3c1 0 1.8-.4 2.3-1 .6-.7.9-1.7.9-3 0-1.2-.3-2.2-.9-2.8-.5-.7-1.3-1-2.3-1-1 0-1.7.3-2.2 1-.6.6-.9 1.6-.9 2.9 0 1.2.3 2.2.9 2.9.5.6 1.3 1 2.2 1Zm7.9 1.1v-10h1.6v10h-1.6Zm-.2-12.3v-1.8h2v1.8h-2Zm5 12.3v-14.7h1.6V125h-1.6Zm8 .2c-.7 0-1.5-.1-2.2-.3l-1.7-1 .6-1.1c.5.4 1 .7 1.6.8a6 6 0 0 0 1.8.3c.8 0 1.4-.1 1.8-.4.4-.3.6-.7.6-1.2 0-.4-.1-.7-.4-1-.2-.2-.7-.3-1.3-.5l-1.8-.4c-.9-.1-1.5-.5-2-.9-.4-.5-.6-1-.6-1.7 0-.6.2-1.1.5-1.6a3 3 0 0 1 1.3-1 5.8 5.8 0 0 1 4 0 4 4 0 0 1 1.7.9l-.6 1-1.4-.8c-.5-.2-1-.3-1.6-.3-.8 0-1.4.2-1.8.5-.3.3-.5.7-.5 1.2 0 .4 0 .7.3 1l1.2.5 1.8.4c1 .2 1.6.5 2 1 .5.4.7 1 .7 1.6 0 .6-.1 1.1-.5 1.6-.3.4-.8.8-1.4 1-.5.3-1.2.4-2 .4Z"/><path fill="#484848" d="m38.6 125-5-14.1h2.7l3.8 11.6h-.8l4.2-11.6h1.9l3.8 11.6h-.7l4-11.6H55L50 125H48L44 114.2h.5L40.7 125h-2.1Zm18.3 0v-14.7h2.5v6.6H59c.3-.7.8-1.2 1.4-1.6.7-.4 1.4-.6 2.2-.6 1.2 0 2.1.3 2.7 1 .6.7.9 1.7.9 3v6.3h-2.5v-6.1c0-.8-.2-1.4-.5-1.7-.3-.4-.7-.5-1.4-.5s-1.4.2-1.8.7c-.5.4-.7 1-.7 1.9v5.7h-2.5Zm12 0v-10.1h2.5V125H69Zm-.1-12v-2.4h2.8v2.4h-2.8Zm10 12.2c-1 0-2-.2-2.7-.6-.8-.5-1.4-1-1.8-1.9a6 6 0 0 1-.7-2.8c0-1 .2-2 .7-2.8.4-.8 1-1.4 1.8-1.8.8-.4 1.7-.6 2.7-.6a6 6 0 0 1 2 .3c.6.2 1.1.5 1.5.9l-.8 1.7c-.3-.3-.7-.5-1.2-.7-.4-.2-.9-.3-1.3-.3-.9 0-1.6.3-2 .9-.6.5-.8 1.4-.8 2.4s.2 2 .7 2.5c.5.6 1.2.8 2.1.8.4 0 .9 0 1.3-.2.5-.2.9-.4 1.2-.7l.8 1.7c-.4.4-1 .7-1.6.9a6 6 0 0 1-1.9.3Zm5.4-.2v-14.7h2.5v6.6h-.2c.3-.7.7-1.2 1.4-1.6.6-.4 1.3-.6 2.2-.6 1.2 0 2 .3 2.7 1 .5.7.8 1.7.8 3v6.3h-2.5v-6.1c0-.8-.1-1.4-.4-1.7-.3-.4-.8-.5-1.4-.5-.8 0-1.4.2-1.9.7-.4.4-.7 1-.7 1.9v5.7h-2.5Zm23.7.2c-2 0-3.6-.5-4.5-1.5-1-1-1.5-2.5-1.5-4.5V111h2.6v8.3c0 1.3.2 2.2.8 2.8.5.7 1.4 1 2.6 1 1 0 2-.3 2.5-1 .5-.6.8-1.5.8-2.8v-8.3h2.6v8.3c0 2-.5 3.5-1.5 4.5s-2.5 1.5-4.4 1.5Zm8.9-.2v-14.1h5.1a9 9 0 0 1 4 .8c1.2.6 2 1.4 2.6 2.4.6 1 .9 2.3.9 3.8s-.3 2.8-.9 3.8c-.6 1-1.4 1.9-2.5 2.5a9 9 0 0 1-4.1.8h-5.1Zm2.6-2.1h2.3c1.7 0 3-.4 3.8-1.3.9-.8 1.3-2 1.3-3.7 0-1.6-.4-2.9-1.3-3.7-.8-.8-2-1.2-3.8-1.2h-2.3v9.9ZM132 125v-14.1h2.6V125H132Zm15.6.2c-1 0-2-.2-2.7-.6-.8-.5-1.4-1-1.8-1.9a6 6 0 0 1-.7-2.8c0-1 .3-2 .7-2.8.4-.8 1-1.4 1.8-1.8.8-.4 1.7-.6 2.7-.6a6 6 0 0 1 2 .3c.6.2 1.1.5 1.5.9l-.7 1.7-1.3-.7c-.4-.2-.8-.3-1.3-.3-.8 0-1.5.3-2 .9-.5.5-.8 1.4-.8 2.4s.3 2 .7 2.5c.6.6 1.3.8 2.1.8.5 0 .9 0 1.3-.2l1.3-.7.7 1.7c-.4.4-1 .7-1.6.9a6 6 0 0 1-1.9.3Zm9.3 0c-.9 0-1.6-.2-2.3-.6-.7-.4-1.2-1-1.6-1.8-.3-.8-.5-1.8-.5-2.9 0-1 .2-2 .5-2.8a4.1 4.1 0 0 1 4-2.4 4 4 0 0 1 2.1.6c.7.5 1.1 1 1.3 1.7h-.2l.2-2.1h2.4a402.3 402.3 0 0 0-.1 2.5v7.6h-2.5v-2h.2a3 3 0 0 1-1.3 1.6 4 4 0 0 1-2.2.6Zm.7-2c.8 0 1.4-.2 2-.7.4-.6.6-1.4.6-2.6 0-1-.2-2-.7-2.5-.5-.5-1.1-.8-1.9-.8-.8 0-1.4.3-1.9.8-.5.6-.7 1.4-.7 2.5 0 1.2.2 2 .7 2.6.5.5 1.1.8 2 .8Zm7.8 1.8v-7.5a21.2 21.2 0 0 0-.2-2.6h2.5l.2 2.8h-.4c.2-.7.4-1.3.7-1.7a3 3 0 0 1 1.2-1 3.4 3.4 0 0 1 2-.3l.5.1v2.2a2.7 2.7 0 0 0-1.4-.2c-.5 0-1 .1-1.4.4-.4.2-.7.5-1 1l-.2 1.4v5.4h-2.5Zm7.8 0v-7.5a21.2 21.2 0 0 0-.1-2.6h2.4l.3 2.8h-.4c.1-.7.4-1.3.7-1.7a3 3 0 0 1 1.1-1 3.4 3.4 0 0 1 2-.3l.5.1v2.2a2.7 2.7 0 0 0-1.3-.2c-.6 0-1 .1-1.5.4-.4.2-.7.5-.9 1l-.2 1.4v5.4h-2.6Zm8 0v-10.1h2.4V125h-2.5Zm-.2-12v-2.4h2.8v2.4H181Zm10.2 12.2c-1.7 0-3-.5-4-1.4-1-1-1.4-2.2-1.4-3.8 0-1 .2-2 .6-2.8a4.6 4.6 0 0 1 4.3-2.5c1 0 1.8.2 2.5.6.6.4 1.1 1 1.4 1.8.4.7.6 1.6.6 2.6v.6h-7.4V119h5.6l-.4.3c0-1-.2-1.6-.6-2.1-.3-.5-1-.8-1.7-.8-.8 0-1.4.3-1.9.9a4 4 0 0 0-.6 2.5v.2c0 1.1.2 2 .8 2.5.5.5 1.3.8 2.3.8.5 0 1 0 1.6-.2l1.4-.8.7 1.7c-.4.4-1 .7-1.7.9a7 7 0 0 1-2 .3Zm6-.2v-7.5a21.2 21.2 0 0 0 0-2.6h2.3l.3 2.8h-.4c.2-.7.4-1.3.7-1.7a3 3 0 0 1 1.1-1 3.4 3.4 0 0 1 2.1-.3l.4.1v2.2a2.7 2.7 0 0 0-1.3-.2c-.6 0-1 .1-1.5.4-.3.2-.6.5-.8 1-.2.4-.3.9-.3 1.4v5.4h-2.5ZM33 149.2c-.8 0-1.6-.1-2.3-.3-.8-.2-1.4-.5-1.9-.9l.7-1.7a6.1 6.1 0 0 0 3.6 1.1c.7 0 1.1 0 1.5-.3.3-.2.5-.6.5-1 0-.2-.1-.5-.4-.7a2 2 0 0 0-1-.4l-2-.4c-.8-.1-1.4-.5-1.9-1-.4-.4-.7-1-.7-1.7 0-.6.2-1.2.5-1.7.4-.4.9-.8 1.5-1 .6-.4 1.4-.5 2.2-.5.8 0 1.5.1 2.1.3.7.2 1.3.5 1.7.9l-.7 1.6a4.7 4.7 0 0 0-3-1c-.7 0-1.2 0-1.5.3-.3.3-.5.6-.5 1 0 .3.1.5.3.7.2.2.5.3 1 .4l2 .4a4 4 0 0 1 2 1c.4.4.6 1 .6 1.7s-.1 1.2-.5 1.7-.9.9-1.5 1.1a6 6 0 0 1-2.2.4Zm6.5-.2v-14.7H42v6.6h-.3c.3-.7.8-1.2 1.4-1.6.7-.4 1.4-.6 2.2-.6 1.2 0 2.1.3 2.7 1 .6.7.9 1.7.9 3v6.3h-2.5v-6.1c0-.8-.2-1.4-.5-1.7-.3-.4-.7-.5-1.4-.5-.8 0-1.4.2-1.8.7-.5.4-.7 1-.7 1.9v5.7h-2.5Zm16.6.2c-1 0-2-.2-2.7-.6-.8-.5-1.4-1-1.8-1.9a6 6 0 0 1-.6-2.8c0-1 .2-2 .6-2.7.4-.8 1-1.4 1.8-1.9.8-.4 1.7-.6 2.7-.6 1 0 2 .2 2.7.6.8.5 1.4 1 1.8 1.9.4.7.6 1.7.6 2.7 0 1.1-.2 2-.6 2.8-.4.8-1 1.4-1.8 1.9-.8.4-1.7.6-2.7.6Zm0-2c.8 0 1.4-.2 1.9-.7.4-.6.7-1.4.7-2.6 0-1-.3-2-.7-2.5-.5-.5-1.1-.8-1.9-.8-.8 0-1.4.3-1.9.8-.4.6-.7 1.4-.7 2.5 0 1.2.3 2 .7 2.6.5.5 1.1.8 1.9.8Zm11 2c-1.3 0-2.3-.3-2.9-1-.6-.7-.9-1.7-.9-3.1v-6.2h2.5v6.1c0 .8.2 1.3.5 1.7.3.3.7.5 1.4.5s1.3-.2 1.7-.7c.4-.5.7-1.1.7-1.9v-5.7h2.5V149H70v-2h.3c-.3.7-.7 1.2-1.3 1.6-.6.4-1.3.6-2 .6Zm8.2-.2v-14.7h2.5V149h-2.5Zm9.1.2c-.9 0-1.6-.2-2.3-.6-.7-.4-1.2-1-1.6-1.8-.3-.8-.5-1.8-.5-2.9 0-1 .2-2 .5-2.8a4.1 4.1 0 0 1 4-2.4 4 4 0 0 1 2.1.6c.7.4 1.1 1 1.3 1.7h-.2v-6.7h2.5V149h-2.5v-2.1h.3a3 3 0 0 1-1.3 1.7 4 4 0 0 1-2.3.6Zm.7-2c.8 0 1.4-.2 2-.7.4-.6.6-1.4.6-2.6 0-1-.2-2-.7-2.5-.5-.5-1-.8-1.9-.8-.8 0-1.4.3-1.9.8-.5.6-.7 1.4-.7 2.5 0 1.2.2 2 .7 2.6.5.5 1.1.8 2 .8Zm19 2a4 4 0 0 1-2.2-.6 3 3 0 0 1-1.2-1.7h.2v2.1h-2.5v-14.7h2.5v6.7h-.2a3 3 0 0 1 1.3-1.7 4 4 0 0 1 2.2-.6c.9 0 1.6.2 2.3.6.7.5 1.2 1 1.6 1.9.3.7.5 1.7.5 2.8 0 1-.2 2-.5 2.8-.4.8-1 1.4-1.6 1.8-.7.4-1.4.6-2.3.6Zm-.6-2c.8 0 1.4-.2 1.9-.7.5-.6.7-1.4.7-2.5 0-1.2-.2-2-.7-2.5-.5-.6-1.1-.9-2-.9-.7 0-1.3.3-1.8.8-.5.6-.7 1.4-.7 2.5 0 1.2.2 2 .7 2.6.5.5 1 .8 1.9.8Zm12.2 2c-1.7 0-3-.5-4-1.4-1-1-1.4-2.2-1.4-3.8 0-1 .2-2 .6-2.8a4.6 4.6 0 0 1 4.3-2.5c1 0 1.8.2 2.4.6.7.4 1.2 1 1.5 1.8.4.7.5 1.6.5 2.6v.6h-7.3V143h5.6l-.4.3c0-1-.2-1.6-.6-2.1-.4-.5-1-.8-1.7-.8-.8 0-1.4.3-1.9.9a4 4 0 0 0-.7 2.5v.2c0 1.1.3 2 .8 2.5.6.5 1.4.8 2.3.8.6 0 1.1 0 1.6-.2l1.5-.8.7 1.7c-.5.4-1 .7-1.7.9a7 7 0 0 1-2.1.3Zm15.2 0c-1.3 0-2.2-.3-2.8-1-.6-.7-1-1.7-1-3.1v-6.2h2.6v6.1c0 .8.1 1.3.4 1.7.3.3.8.5 1.4.5.7 0 1.3-.2 1.8-.7.4-.5.6-1.1.6-1.9v-5.7h2.5V149H134v-2h.3c-.3.7-.8 1.2-1.4 1.6-.5.4-1.2.6-2 .6Zm11.9 0c-1 0-1.7-.1-2.4-.3-.8-.2-1.4-.5-1.9-.9l.7-1.7a6.1 6.1 0 0 0 3.6 1.1c.6 0 1.1 0 1.5-.3.3-.2.5-.6.5-1l-.4-.7a2 2 0 0 0-1-.4l-2-.4c-.8-.1-1.5-.5-1.9-1-.4-.4-.7-1-.7-1.7 0-.6.2-1.2.5-1.7.4-.4.9-.8 1.5-1 .6-.4 1.4-.5 2.2-.5.8 0 1.5.1 2.1.3.7.2 1.3.5 1.7.9l-.7 1.6a4.7 4.7 0 0 0-3-1c-.7 0-1.2 0-1.5.3-.3.3-.5.6-.5 1 0 .3.1.5.3.7.2.2.5.3 1 .4l2 .4a4 4 0 0 1 2 1c.4.4.6 1 .6 1.7s-.1 1.2-.5 1.7-.9.9-1.5 1.1a6 6 0 0 1-2.2.4Zm11.3 0c-1.7 0-3-.5-4-1.4-1-1-1.5-2.2-1.5-3.8 0-1 .2-2 .7-2.8a4.6 4.6 0 0 1 4.3-2.5c1 0 1.8.2 2.4.6.7.4 1.2 1 1.5 1.8.3.7.5 1.6.5 2.6v.6h-7.3V143h5.5l-.3.3c0-1-.2-1.6-.6-2.1-.4-.5-1-.8-1.7-.8-.8 0-1.5.3-2 .9a4 4 0 0 0-.6 2.5v.2c0 1.1.3 2 .8 2.5.6.5 1.3.8 2.3.8.6 0 1.1 0 1.6-.2l1.5-.8.7 1.7c-.5.4-1 .7-1.7.9a7 7 0 0 1-2.1.3Zm10 0c-1 0-1.7-.2-2.4-.6-.7-.4-1.2-1-1.5-1.8-.4-.8-.6-1.8-.6-2.9 0-1 .2-2 .6-2.8a4.1 4.1 0 0 1 3.9-2.4 4 4 0 0 1 2.2.6c.6.4 1 1 1.3 1.7h-.3v-6.7h2.5V149h-2.4v-2.1h.2a3 3 0 0 1-1.3 1.7 4 4 0 0 1-2.2.6Zm.7-2c.7 0 1.4-.2 1.9-.7.4-.6.7-1.4.7-2.6 0-1-.3-2-.7-2.5-.5-.5-1.2-.8-2-.8-.7 0-1.4.3-1.9.8-.4.6-.7 1.4-.7 2.5 0 1.2.3 2 .7 2.6.5.5 1.2.8 2 .8Zm13.9 1.8v-8.2h-2v-1.9h2.7l-.7.6V138c0-1.3.3-2.2 1-2.8.6-.7 1.6-1 2.8-1h1l.8.3v2l-.6-.2h-.7l-1 .1-.6.6-.2 1.1v1.2l-.4-.4h3v1.9h-2.6v8.2h-2.5Zm11 .2c-1 0-2-.2-2.7-.6-.8-.5-1.4-1-1.8-1.9a6 6 0 0 1-.6-2.8c0-1 .2-2 .6-2.7.4-.8 1-1.4 1.8-1.9.8-.4 1.7-.6 2.7-.6 1 0 2 .2 2.7.6.8.5 1.4 1 1.8 1.9.4.7.6 1.7.6 2.7 0 1.1-.2 2-.6 2.8-.4.8-1 1.4-1.8 1.9-.8.4-1.7.6-2.7.6Zm0-2c.8 0 1.4-.2 1.9-.7.4-.6.7-1.4.7-2.6 0-1-.3-2-.7-2.5-.5-.5-1.1-.8-2-.8-.7 0-1.3.3-1.8.8-.5.6-.7 1.4-.7 2.5 0 1.2.2 2 .7 2.6.5.5 1.1.8 1.9.8Zm7.2 1.8v-7.5a21.2 21.2 0 0 0 0-2.6h2.3l.3 2.8h-.4c.1-.7.4-1.3.7-1.7a3 3 0 0 1 1.1-1 3.4 3.4 0 0 1 2-.3l.5.1v2.2a2.7 2.7 0 0 0-1.3-.2c-.6 0-1 .1-1.5.4-.4.2-.7.5-.9 1l-.2 1.4v5.4h-2.6ZM35.4 173v-7.6a20.2 20.2 0 0 0-.1-2.5h2.4l.2 2h-.2c.2-.7.7-1.2 1.2-1.6.6-.4 1.3-.6 2.1-.6s1.5.2 2 .6c.5.4.9 1 1.1 1.7h-.3c.3-.7.7-1.2 1.4-1.7.6-.4 1.3-.6 2.2-.6 1.1 0 2 .3 2.5 1 .6.7.9 1.7.9 3.1v6.2h-2.5v-6c0-.9-.2-1.5-.4-1.8-.3-.4-.7-.5-1.3-.5a2 2 0 0 0-1.7.7 3 3 0 0 0-.6 2v5.6h-2.5v-6c0-.9-.1-1.5-.4-1.8-.2-.4-.7-.5-1.2-.5a2 2 0 0 0-1.7.7 3 3 0 0 0-.6 2v5.6h-2.5Zm22.9.2c-1.7 0-3-.5-4-1.4-1-1-1.4-2.2-1.4-3.8 0-1 .2-2 .6-2.8a4.6 4.6 0 0 1 4.3-2.5c1 0 1.8.2 2.5.6.6.4 1.1 1 1.4 1.8.4.7.6 1.6.6 2.6v.6h-7.4V167h5.6l-.4.3c0-1-.2-1.6-.6-2.1-.3-.5-1-.8-1.7-.8-.8 0-1.4.3-1.9.9a4 4 0 0 0-.6 2.5v.2c0 1.1.2 2 .8 2.5.5.5 1.3.8 2.3.8.5 0 1 0 1.6-.2l1.4-.8.7 1.7c-.4.4-1 .7-1.7.9a7 7 0 0 1-2.1.3Zm10 0c-.9 0-1.7-.2-2.3-.6-.7-.4-1.2-1-1.6-1.8-.4-.8-.6-1.8-.6-2.9 0-1 .2-2 .6-2.8a4.1 4.1 0 0 1 3.9-2.4 4 4 0 0 1 2.2.6c.7.4 1.1 1 1.3 1.7h-.2v-6.7H74V173h-2.5v-2.1h.2a3 3 0 0 1-1.3 1.7 4 4 0 0 1-2.2.6Zm.7-2c.8 0 1.4-.2 1.9-.7.5-.6.7-1.4.7-2.6 0-1-.2-2-.7-2.5-.5-.5-1.1-.8-1.9-.8-.8 0-1.4.3-2 .8-.4.6-.6 1.4-.6 2.5 0 1.2.2 2 .7 2.6.5.5 1.1.8 1.9.8Zm7.8 1.8v-10.1h2.5V173h-2.5Zm-.2-12v-2.4h2.8v2.4h-2.8Zm10 12.2c-1 0-2-.2-2.7-.6-.8-.5-1.4-1-1.8-1.9a6 6 0 0 1-.6-2.8c0-1 .2-2 .6-2.8.4-.8 1-1.4 1.8-1.8.8-.4 1.7-.6 2.7-.6a6 6 0 0 1 2 .3c.6.2 1.1.5 1.5.9l-.7 1.7-1.2-.7-1.3-.3c-1 0-1.6.3-2.1.9-.5.5-.8 1.4-.8 2.4s.3 2 .8 2.5c.5.6 1.2.8 2 .8.5 0 .9 0 1.3-.2l1.3-.7.7 1.7c-.4.4-1 .7-1.5.9a6 6 0 0 1-2 .3Zm9.3 0c-.9 0-1.6-.2-2.3-.6-.7-.4-1.2-1-1.6-1.8-.3-.8-.5-1.8-.5-2.9 0-1 .2-2 .5-2.8a4.1 4.1 0 0 1 4-2.4 4 4 0 0 1 2.2.6c.6.5 1 1 1.3 1.7h-.3l.3-2.1h2.4a402.3 402.3 0 0 0-.2 2.5v7.6h-2.5v-2h.2a3 3 0 0 1-1.3 1.6 4 4 0 0 1-2.2.6Zm.7-2c.8 0 1.4-.2 2-.7.4-.6.6-1.4.6-2.6 0-1-.2-2-.7-2.5-.5-.5-1.1-.8-1.9-.8-.8 0-1.4.3-1.9.8-.5.6-.7 1.4-.7 2.5 0 1.2.2 2 .7 2.6.5.5 1.1.8 2 .8Zm7.8 1.8v-14.7h2.5V173h-2.5Zm14.6.2c-.8 0-1.6-.2-2.3-.6-.7-.4-1.2-1-1.6-1.8-.3-.8-.5-1.8-.5-2.9 0-1 .2-2 .5-2.8a4.1 4.1 0 0 1 4-2.4 4 4 0 0 1 2.2.6c.6.4 1 1 1.3 1.7h-.3v-6.7h2.5V173h-2.5v-2.1h.3a3 3 0 0 1-1.3 1.7 4 4 0 0 1-2.3.6Zm.7-2c.8 0 1.5-.2 2-.7.4-.6.7-1.4.7-2.6 0-1-.3-2-.8-2.5-.4-.5-1-.8-1.9-.8-.7 0-1.4.3-1.9.8-.5.6-.7 1.4-.7 2.5 0 1.2.2 2 .7 2.6.5.5 1.2.8 2 .8Zm12.7 2c-1.7 0-3-.5-4-1.4-1-1-1.4-2.2-1.4-3.8 0-1 .2-2 .6-2.8a4.6 4.6 0 0 1 4.3-2.5c1 0 1.8.2 2.5.6.6.4 1.1 1 1.4 1.8.4.7.6 1.6.6 2.6v.6H129V167h5.6l-.4.3c0-1-.2-1.6-.6-2.1-.3-.5-1-.8-1.7-.8-.8 0-1.4.3-1.9.9a4 4 0 0 0-.6 2.5v.2c0 1.1.2 2 .8 2.5.5.5 1.3.8 2.3.8.5 0 1 0 1.6-.2l1.4-.8.7 1.7c-.4.4-1 .7-1.7.9a7 7 0 0 1-2.1.3Zm8.9-.2-4.4-10.1h2.7l3.1 7.9h-.6l3.3-7.9h2.5l-4.4 10.1h-2.2Zm7.9 0v-10.1h2.5V173h-2.5Zm-.1-12v-2.4h2.7v2.4h-2.7Zm10 12.2c-1 0-2-.2-2.8-.6-.8-.5-1.4-1-1.8-1.9a6 6 0 0 1-.6-2.8c0-1 .2-2 .6-2.8.5-.8 1-1.4 1.8-1.8.8-.4 1.7-.6 2.8-.6a6 6 0 0 1 1.9.3c.6.2 1.2.5 1.6.9l-.8 1.7-1.2-.7-1.3-.3c-1 0-1.6.3-2.1.9-.5.5-.8 1.4-.8 2.4s.3 2 .8 2.5c.5.6 1.2.8 2 .8.5 0 1 0 1.4-.2l1.2-.7.8 1.7c-.5.4-1 .7-1.6.9a6 6 0 0 1-2 .3Zm10 0c-1.6 0-3-.5-3.9-1.4-1-1-1.4-2.2-1.4-3.8 0-1 .2-2 .6-2.8a4.6 4.6 0 0 1 4.3-2.5c1 0 1.8.2 2.4.6.7.4 1.2 1 1.5 1.8.4.7.5 1.6.5 2.6v.6h-7.3V167h5.6l-.4.3c0-1-.2-1.6-.6-2.1-.4-.5-1-.8-1.7-.8-.8 0-1.4.3-1.9.9a4 4 0 0 0-.7 2.5v.2c0 1.1.3 2 .8 2.5.6.5 1.4.8 2.3.8.6 0 1.1 0 1.6-.2l1.5-.8.7 1.7c-.5.4-1 .7-1.7.9a7 7 0 0 1-2.1.3Zm9.8 0c-1 0-1.7-.1-2.4-.3-.8-.2-1.4-.5-1.9-.9l.7-1.7a6 6 0 0 0 3.6 1.1c.6 0 1.1 0 1.5-.3.3-.2.5-.6.5-1l-.4-.7a2 2 0 0 0-1-.4l-2-.4c-.8-.1-1.5-.5-2-1a2.8 2.8 0 0 1-.2-3.4 5.5 5.5 0 0 1 3.7-1.5c.9 0 1.6.1 2.2.3.7.2 1.3.5 1.7.9l-.7 1.6a4.8 4.8 0 0 0-3-1c-.7 0-1.2 0-1.5.3-.3.3-.5.6-.5 1 0 .3.1.5.3.7.2.2.5.3 1 .4l2 .4a4 4 0 0 1 2 1c.4.4.6 1 .6 1.7s-.1 1.2-.5 1.7-.9.9-1.5 1.1a6 6 0 0 1-2.2.4Zm8.2-4.4v-.8c0-.6.2-1.2.4-1.7.2-.6.7-1.1 1.2-1.8.5-.4.8-.8 1-1.2l.2-1c0-.5-.1-.9-.5-1.1-.3-.3-.8-.4-1.4-.4-.5 0-1 0-1.5.2a7 7 0 0 0-1.5.7v-2.2l1.6-.6 1.8-.2c.8 0 1.5.1 2 .4a2.9 2.9 0 0 1 2 2.9c0 .4 0 .8-.2 1.2l-.6 1.2a8 8 0 0 1-1 1l-1.4 1.6c-.3.4-.4.8-.5 1.3v.5H187Zm-.6 4.2v-2.8h2.8v2.8h-2.8Z"/><path fill="#3CC583" d="M471.6 173v-14.1h6.1c1.6 0 2.8.4 3.6 1.1.9.7 1.3 1.8 1.3 3a4 4 0 0 1-.6 2.3c-.4.6-1 1-1.6 1.4a6 6 0 0 1-2.5.5l.3-.4h.6c.6 0 1.1.1 1.5.4.5.3.8.8 1.1 1.4l2 4.4h-2.8l-2-4.6c-.2-.4-.5-.8-.9-.9l-1.4-.2h-2.2v5.7h-2.5Zm2.5-7.6h3.2c1 0 1.6-.2 2-.6.5-.4.8-1 .8-1.7s-.3-1.2-.7-1.6c-.5-.4-1.2-.6-2.1-.6h-3.2v4.5Zm11.5 7.6v-14.1h9.3v2h-6.7v4h6.2v2h-6.2v6.1h-2.6Zm11.4 0v-14.1h2.6V173H497Zm5.7 0v-14.1h5.2a9 9 0 0 1 4 .8c1.2.6 2 1.4 2.6 2.4.5 1 .8 2.3.8 3.8s-.3 2.8-.8 3.8c-.6 1-1.4 1.9-2.6 2.5a9 9 0 0 1-4 .8h-5.2Zm2.6-2.1h2.4c1.7 0 3-.4 3.8-1.3.8-.8 1.2-2 1.2-3.7 0-1.6-.4-2.9-1.2-3.7-.8-.8-2.1-1.2-3.8-1.2h-2.4v9.9Z"/><path fill="#374840" d="M471.8 209v-14.1h9v1.4h-7.4v4.9h7v1.3h-7v5.1h7.4v1.4h-9Zm11.5 0v-8.9l-.1-1.1h1.5l.2 2.2h-.2c.3-.8.8-1.4 1.4-1.8.7-.4 1.4-.6 2.3-.6 1.1 0 2 .3 2.6 1 .7.6 1 1.6 1 3v6.2h-1.7v-6.2c0-1-.2-1.6-.5-2-.4-.5-1-.7-1.8-.7a3 3 0 0 0-2.2.9c-.6.5-.8 1.3-.8 2.3v5.7h-1.7Zm15.6.2c-1 0-1.7-.2-2.4-.6-.6-.5-1.1-1-1.5-1.8-.4-.8-.6-1.7-.6-2.8 0-1.1.2-2 .6-2.8.4-.8.9-1.4 1.5-1.8.7-.4 1.5-.6 2.4-.6.9 0 1.7.2 2.3.7.7.4 1.1 1 1.3 1.8h-.2l.2-2.3h1.6a356.5 356.5 0 0 0-.2 2.3v7.7h-1.6v-2.4h.2c-.2.8-.6 1.4-1.3 1.9a4 4 0 0 1-2.3.7Zm.3-1.3c1 0 1.7-.4 2.3-1 .5-.7.8-1.7.8-3 0-1.2-.3-2.2-.8-2.8-.6-.7-1.3-1-2.3-1-1 0-1.7.3-2.3 1-.5.6-.8 1.6-.8 2.9 0 1.2.3 2.2.8 2.9.6.6 1.4 1 2.3 1Zm12.9 1.3a4 4 0 0 1-2.4-.7c-.6-.5-1-1.1-1.3-1.9h.2v2.4H507v-14.7h1.7v7h-.3c.3-.8.7-1.4 1.3-1.8a4 4 0 0 1 2.4-.7c.9 0 1.7.2 2.3.6a4 4 0 0 1 1.6 1.8c.3.8.5 1.7.5 2.8 0 1-.2 2-.5 2.8-.4.7-1 1.3-1.6 1.8-.6.4-1.4.6-2.3.6Zm-.4-1.3c1 0 1.8-.4 2.3-1 .6-.7.9-1.6.9-3 0-1.2-.3-2.2-.9-2.8-.5-.7-1.3-1-2.3-1-.9 0-1.7.3-2.2 1-.6.6-.9 1.6-.9 2.9 0 1.2.3 2.2.9 2.9.5.6 1.3 1 2.2 1Zm7.3 1.1v-14.7h1.7V209H519Zm9.3.2a5 5 0 0 1-3.8-1.4c-.9-.9-1.3-2.2-1.3-3.8 0-1 .2-2 .6-2.7.4-.8 1-1.4 1.7-1.9.7-.4 1.5-.6 2.4-.6 1 0 1.7.2 2.4.6.6.3 1 .9 1.4 1.6.3.7.5 1.6.5 2.5v.6h-7.8v-1h6.7l-.3.3c0-1-.2-2-.7-2.5-.5-.6-1.2-1-2.2-1-1 0-1.7.4-2.3 1.1-.6.7-.8 1.7-.8 2.9v.1c0 1.3.3 2.2.9 2.9.6.6 1.5 1 2.6 1a4.7 4.7 0 0 0 3.2-1.2l.6 1.1c-.5.5-1 .8-1.7 1-.7.3-1.4.4-2.1.4Zm9.7 0c-.8 0-1.5-.1-2.2-.3-.7-.3-1.3-.6-1.7-1l.5-1.1a5.2 5.2 0 0 0 3.4 1.1c.8 0 1.4-.1 1.8-.4.5-.3.7-.7.7-1.2 0-.4-.2-.7-.4-1l-1.3-.5-1.9-.4c-.8-.1-1.4-.5-1.9-.9-.4-.5-.6-1-.6-1.7 0-.6.1-1.1.4-1.6a3 3 0 0 1 1.4-1 5.8 5.8 0 0 1 4 0 4 4 0 0 1 1.6.9l-.6 1-1.3-.8c-.5-.2-1-.3-1.6-.3-.8 0-1.4.2-1.8.5-.4.3-.6.7-.6 1.2 0 .4.1.7.4 1 .2.2.6.4 1.1.5l1.9.4c1 .2 1.6.5 2 1 .5.4.7 1 .7 1.6 0 .6-.2 1.1-.5 1.6-.3.4-.8.8-1.4 1-.6.3-1.3.4-2 .4Zm15.2 0c-.8 0-1.6-.1-2.3-.3l-1.7-1 .6-1.1a5.2 5.2 0 0 0 3.4 1.1c.8 0 1.4-.1 1.8-.4.4-.3.6-.7.6-1.2 0-.4-.1-.7-.4-1l-1.3-.5-1.8-.4c-.9-.1-1.5-.5-2-.9-.4-.5-.6-1-.6-1.7 0-.6.2-1.1.5-1.6a3 3 0 0 1 1.3-1 5.8 5.8 0 0 1 4 0 4 4 0 0 1 1.7.9l-.6 1-1.4-.8c-.5-.2-1-.3-1.6-.3-.8 0-1.4.2-1.8.5-.3.3-.5.7-.5 1.2 0 .4 0 .7.3 1l1.2.5 1.8.4c1 .2 1.6.5 2 1 .5.4.7 1 .7 1.6 0 .6-.1 1.1-.5 1.6-.3.4-.8.8-1.4 1-.5.3-1.2.4-2 .4Zm10.8 0a5 5 0 0 1-2.6-.7c-.7-.4-1.3-1-1.7-1.8-.4-.8-.6-1.7-.6-2.8 0-1 .2-2 .6-2.8.4-.7 1-1.3 1.7-1.7.7-.4 1.6-.6 2.6-.6.6 0 1.2 0 1.8.3a4 4 0 0 1 1.5 1l-.5 1.1a4 4 0 0 0-2.7-1.1 3 3 0 0 0-2.5 1c-.5.6-.8 1.6-.8 2.8 0 1.3.3 2.2.8 3a3 3 0 0 0 2.5 1 3.9 3.9 0 0 0 2.7-1.2l.5 1.2a4 4 0 0 1-1.5 1l-1.8.3Zm9.4 0c-.9 0-1.7-.2-2.4-.6-.6-.5-1.1-1-1.5-1.8-.4-.8-.6-1.7-.6-2.8 0-1.1.2-2 .6-2.8.4-.8.9-1.4 1.5-1.8.7-.4 1.5-.6 2.4-.6.9 0 1.7.2 2.3.7.7.4 1.1 1 1.3 1.8h-.2l.2-2.3h1.6a356.5 356.5 0 0 0-.2 2.3v7.7h-1.6v-2.4h.2c-.2.8-.6 1.4-1.3 1.9a4 4 0 0 1-2.3.7Zm.3-1.3c1 0 1.7-.4 2.3-1 .5-.7.8-1.7.8-3 0-1.2-.3-2.2-.8-2.8-.6-.7-1.3-1-2.3-1-1 0-1.7.3-2.3 1-.5.6-.8 1.6-.8 2.9 0 1.2.3 2.2.8 2.9.6.6 1.4 1 2.3 1Zm7.9 1.1v-7.7l-.1-1.2-.1-1.1h1.6l.2 2.2h-.3c.3-.8.8-1.4 1.4-1.8.7-.4 1.4-.6 2.3-.6 1.2 0 2 .3 2.7 1 .6.6.9 1.6.9 3v6.2h-1.6v-6.2c0-1-.2-1.6-.6-2-.4-.5-1-.7-1.8-.7a3 3 0 0 0-2.2.9c-.5.5-.8 1.3-.8 2.3v5.7h-1.6Zm11.7 0v-8.9l-.2-1.1h1.6l.2 2.2h-.3c.3-.8.8-1.4 1.4-1.8.7-.4 1.4-.6 2.3-.6 1.2 0 2 .3 2.7 1 .6.6.9 1.6.9 3v6.2h-1.6v-6.2c0-1-.2-1.6-.6-2-.4-.5-1-.7-1.8-.7a3 3 0 0 0-2.2.9c-.5.5-.8 1.3-.8 2.3v5.7h-1.6Zm11.7 0v-10h1.6v10H605Zm-.2-12.3v-1.8h2v1.8h-2Zm5 12.3v-7.7l-.1-1.2-.1-1.1h1.6l.2 2.2h-.3c.3-.8.8-1.4 1.4-1.8.7-.4 1.4-.6 2.3-.6 1.2 0 2 .3 2.7 1 .6.6.9 1.6.9 3v6.2h-1.6v-6.2c0-1-.2-1.6-.6-2-.4-.5-1-.7-1.8-.7a3 3 0 0 0-2.2.9c-.5.5-.8 1.3-.8 2.3v5.7h-1.6Zm16.1 4.5c-.9 0-1.7-.1-2.4-.4-.7-.2-1.4-.5-2-1l.5-1.2a6.8 6.8 0 0 0 2.5 1.1l1.3.2c1 0 1.8-.3 2.3-.8.5-.5.7-1.3.7-2.2v-3h.2c-.2.8-.6 1.4-1.3 1.9a4 4 0 0 1-2.3.7c-1 0-1.8-.2-2.4-.6-.7-.4-1.2-1-1.6-1.8-.4-.7-.5-1.6-.5-2.6s.1-2 .5-2.7a4 4 0 0 1 1.6-1.7c.6-.4 1.4-.6 2.4-.6.9 0 1.6.2 2.3.7.7.4 1.1 1 1.3 1.8l-.2-.2.2-2.1h1.6a17.3 17.3 0 0 0-.2 2.3v7.6c0 1.5-.4 2.7-1.1 3.4-.8.8-2 1.2-3.4 1.2Zm-.2-6c1 0 1.7-.4 2.3-1a4 4 0 0 0 .8-2.7 4 4 0 0 0-.8-2.8c-.6-.6-1.4-1-2.3-1a3 3 0 0 0-2.3 1 4 4 0 0 0-.9 2.8c0 1.1.3 2 .9 2.7a3 3 0 0 0 2.3 1Zm15.7 1.5-3.7-10h1.7l3.1 8.8h-.5l3.2-8.8h1.4l3.1 8.8h-.5l3.2-8.8h1.6l-3.7 10h-1.6l-3.2-9h.8l-3.3 9h-1.6Zm14.7 0v-10h1.7v10H656Zm-.2-12.3v-1.8h2v1.8h-2Zm8.6 12.5c-1 0-1.8-.3-2.3-.9-.5-.5-.8-1.4-.8-2.5v-5.6h-2V199h2v-2.8l1.6-.4v3.2h3v1.2h-3v5.4c0 .8.2 1.4.4 1.7.3.3.7.5 1.3.5h.7l.5-.2v1.3l-.7.2h-.7Zm3.4-.2v-14.7h1.6v6.9h-.3c.3-.8.8-1.4 1.4-1.8.7-.4 1.5-.6 2.3-.6 1.2 0 2.1.3 2.7 1 .6.6 1 1.6 1 2.9v6.3h-1.7v-6.2c0-1-.2-1.6-.6-2-.3-.5-1-.7-1.7-.7a3 3 0 0 0-2.3.9c-.5.5-.8 1.3-.8 2.2v5.8H668Zm15.8.2a5 5 0 0 1-2.5-.6c-.7-.5-1.2-1-1.6-1.8-.4-.8-.6-1.8-.6-2.8 0-1.1.2-2 .6-2.8.4-.8.9-1.4 1.6-1.8.7-.4 1.6-.6 2.5-.6 1 0 1.8.2 2.5.6.8.4 1.3 1 1.7 1.8.4.8.6 1.7.6 2.8 0 1-.2 2-.6 2.8-.4.7-1 1.3-1.7 1.8-.7.4-1.5.6-2.5.6Zm0-1.3c1 0 1.7-.4 2.3-1 .6-.7.8-1.7.8-3 0-1.2-.2-2.2-.8-2.8-.6-.7-1.3-1-2.3-1-1 0-1.7.3-2.2 1-.6.6-.9 1.6-.9 2.9 0 1.2.3 2.2.9 2.9.5.6 1.3 1 2.2 1Zm10.9 1.3c-1.2 0-2.1-.3-2.7-1-.6-.7-1-1.7-1-3V199h1.7v6.2c0 .9.2 1.6.6 2 .3.4 1 .6 1.7.6.9 0 1.6-.2 2.1-.8.5-.6.8-1.4.8-2.3V199h1.6v10H698v-2.3h.2a3.6 3.6 0 0 1-3.5 2.5Zm11.5 0c-1 0-1.7-.3-2.2-.9-.5-.5-.8-1.4-.8-2.5v-5.6h-2V199h2v-2.8l1.6-.4v3.2h2.9v1.2h-2.9v5.4c0 .8.1 1.4.4 1.7.3.3.7.5 1.3.5h.6l.6-.2v1.3l-.7.2h-.8Zm12.5 0c-.9 0-1.7-.2-2.3-.6-.7-.5-1.2-1-1.6-1.8-.4-.8-.5-1.7-.5-2.8 0-1.1.1-2 .5-2.8.4-.8.9-1.4 1.6-1.8.6-.4 1.4-.6 2.3-.6 1 0 1.7.2 2.3.7.7.4 1.1 1 1.4 1.8h-.3l.2-2.3h1.6a356.5 356.5 0 0 0-.2 2.3v7.7H722v-2.4h.2c-.2.8-.6 1.4-1.3 1.9a4 4 0 0 1-2.3.7Zm.3-1.3c1 0 1.7-.4 2.3-1 .6-.7.8-1.7.8-3 0-1.2-.2-2.2-.8-2.8-.6-.7-1.3-1-2.3-1-1 0-1.7.3-2.3 1-.5.6-.8 1.6-.8 2.9 0 1.2.3 2.2.8 2.9.6.6 1.4 1 2.3 1ZM475.4 233.2c-.9 0-1.7-.2-2.3-.6-.7-.5-1.2-1-1.6-1.8-.4-.8-.5-1.7-.5-2.8 0-1.1.1-2 .5-2.8.4-.8.9-1.4 1.6-1.8.6-.4 1.4-.6 2.3-.6.9 0 1.7.2 2.3.7.7.4 1.1 1 1.4 1.8h-.3v-7h1.6V233h-1.6v-2.4h.3c-.3.8-.7 1.4-1.4 1.9-.6.5-1.4.7-2.3.7Zm.3-1.3c1 0 1.7-.4 2.3-1 .6-.7.9-1.7.9-3 0-1.2-.3-2.2-.9-2.8-.6-.7-1.3-1-2.3-1-1 0-1.7.3-2.3 1-.5.6-.8 1.6-.8 2.9 0 1.2.3 2.2.8 2.9.6.6 1.4 1 2.3 1Zm7.9 1.1v-10h1.6v10h-1.6Zm-.2-12.3v-1.8h2v1.8h-2Zm4.9 12.3v-7.6a19.4 19.4 0 0 0-.1-2.4h1.5l.2 2.4h-.2c0-.6.3-1 .7-1.5a3.5 3.5 0 0 1 2.6-1.2l.5.1.4.1v1.4h-.6l-.5-.1c-.6 0-1.1.1-1.6.4a2.8 2.8 0 0 0-1.3 2.5v5.9h-1.6Zm11.6.2a5 5 0 0 1-3.7-1.4c-.9-.9-1.3-2.2-1.3-3.8 0-1 .2-2 .6-2.7.4-.8 1-1.4 1.6-1.9.8-.4 1.6-.6 2.5-.6 1 0 1.7.2 2.3.6.7.3 1.2.9 1.5 1.6.3.7.5 1.6.5 2.5v.6H496v-1h6.7l-.3.3c0-1-.3-2-.7-2.5-.5-.6-1.2-1-2.2-1-1 0-1.8.4-2.3 1.1-.6.7-.9 1.7-.9 2.9v.1c0 1.3.4 2.2 1 2.9.6.6 1.5 1 2.6 1a4.7 4.7 0 0 0 3.2-1.2l.5 1.1c-.4.5-1 .8-1.6 1-.7.3-1.4.4-2.2.4Zm10.7 0a5 5 0 0 1-2.6-.7c-.7-.4-1.3-1-1.7-1.8-.4-.8-.6-1.7-.6-2.8 0-1 .2-2 .6-2.8.4-.7 1-1.3 1.7-1.7.8-.4 1.6-.6 2.6-.6.6 0 1.2 0 1.8.3a4 4 0 0 1 1.6 1l-.6 1.1a4 4 0 0 0-2.7-1.1 3 3 0 0 0-2.4 1c-.6.6-.9 1.6-.9 2.8 0 1.3.3 2.2.9 3a3 3 0 0 0 2.4 1 3.9 3.9 0 0 0 2.7-1.2l.6 1.2a4 4 0 0 1-1.6 1l-1.8.3Zm9.2 0c-1 0-1.7-.3-2.2-.9-.6-.5-.8-1.4-.8-2.5v-5.6h-2V223h2v-2.8l1.6-.4v3.2h2.9v1.2h-2.9v5.4c0 .8.1 1.4.4 1.7.3.3.7.5 1.2.5h.7l.6-.2v1.3l-.7.2h-.8Zm8.7-.2v-14.7h1.6V233h-1.6Zm4.7 0v-10h1.7v10h-1.7Zm-.2-12.3v-1.8h2v1.8h-2Zm5 12.3v-8.9l-.2-1.1h1.6l.2 2.2h-.2c.3-.8.7-1.4 1.4-1.8.6-.4 1.4-.6 2.2-.6 1.2 0 2.1.3 2.7 1 .6.6 1 1.6 1 3v6.2H545v-6.2c0-1-.2-1.6-.6-2-.3-.5-1-.7-1.7-.7a3 3 0 0 0-2.3.9c-.5.5-.8 1.3-.8 2.3v5.7H538Zm16.2.2a5 5 0 0 1-3.7-1.4c-1-.9-1.4-2.2-1.4-3.8 0-1 .2-2 .6-2.7.4-.8 1-1.4 1.7-1.9.7-.4 1.5-.6 2.5-.6.9 0 1.7.2 2.3.6.6.3 1 .9 1.4 1.6.4.7.5 1.6.5 2.5v.6h-7.8v-1h6.8l-.4.3c0-1-.2-2-.7-2.5-.5-.6-1.2-1-2.1-1-1 0-1.8.4-2.4 1.1-.5.7-.8 1.7-.8 2.9v.1c0 1.3.3 2.2.9 2.9.6.6 1.5 1 2.6 1a4.7 4.7 0 0 0 3.2-1.2l.6 1.1c-.5.5-1 .8-1.7 1-.7.3-1.4.4-2.1.4Zm15.7 0a5 5 0 0 1-2.5-.6c-.7-.5-1.2-1-1.6-1.8-.4-.8-.6-1.8-.6-2.8 0-1.1.2-2 .6-2.8.4-.8 1-1.4 1.6-1.8.7-.4 1.6-.6 2.5-.6 1 0 1.9.2 2.6.6.7.4 1.2 1 1.6 1.8.4.8.6 1.7.6 2.8 0 1-.2 2-.6 2.8-.4.7-1 1.3-1.6 1.8-.7.4-1.6.6-2.6.6Zm0-1.3c1 0 1.8-.4 2.3-1 .6-.7.9-1.7.9-3 0-1.2-.3-2.2-.9-2.8-.6-.7-1.3-1-2.3-1-1 0-1.7.3-2.2 1-.6.6-.9 1.6-.9 2.9 0 1.2.3 2.2.9 2.9.5.6 1.3 1 2.2 1Zm7.8 1.1v-8.8h-2V223h2.4l-.4.4v-1.7c0-1.1.3-2 .8-2.6.6-.6 1.4-.9 2.5-.9h.8l.7.3v1.3l-.6-.2a3 3 0 0 0-.7 0 2 2 0 0 0-1 .2c-.3.2-.5.4-.7.8l-.2 1.2v1.5l-.3-.3h3v1.2h-2.7v8.8h-1.6Zm14.8.2c-.8 0-1.6-.1-2.3-.3l-1.7-1 .6-1.1c.5.4 1 .7 1.6.8a6 6 0 0 0 1.8.3c.8 0 1.4-.1 1.8-.4.4-.3.6-.7.6-1.2 0-.4-.1-.7-.4-1l-1.3-.5-1.8-.4c-.9-.1-1.5-.5-2-.9-.4-.5-.6-1-.6-1.7 0-.6.2-1.1.5-1.6a3 3 0 0 1 1.3-1 5.8 5.8 0 0 1 4 0 4 4 0 0 1 1.7.9l-.6 1-1.4-.8c-.5-.2-1-.3-1.6-.3-.8 0-1.4.2-1.8.5-.3.3-.5.7-.5 1.2 0 .4 0 .7.3 1l1.2.5 1.8.4c1 .2 1.6.5 2 1 .5.4.7 1 .7 1.6 0 .6-.1 1.1-.5 1.6-.3.4-.8.8-1.4 1-.5.3-1.2.4-2 .4Zm6.5-.2v-10h1.7v10H599Zm-.2-12.3v-1.8h2v1.8h-2Zm9.4 16.8c-.8 0-1.6-.1-2.4-.4-.7-.2-1.4-.5-2-1l.5-1.2a6.8 6.8 0 0 0 2.5 1.1l1.3.2c1 0 1.8-.3 2.3-.8.5-.5.7-1.3.7-2.2v-3h.2c-.2.8-.6 1.4-1.3 1.9a4 4 0 0 1-2.3.7c-1 0-1.7-.2-2.4-.6-.7-.4-1.2-1-1.6-1.8-.3-.7-.5-1.6-.5-2.6s.2-2 .5-2.7a4 4 0 0 1 1.6-1.7c.7-.4 1.5-.6 2.4-.6.9 0 1.7.2 2.3.7.7.4 1.1 1 1.3 1.8l-.2-.2.2-2.1h1.6a16 16 0 0 0-.2 2.3v7.6c0 1.5-.3 2.7-1.1 3.4-.8.8-1.9 1.2-3.4 1.2Zm-.2-6c1 0 1.7-.4 2.3-1a4 4 0 0 0 .8-2.7 4 4 0 0 0-.8-2.8c-.6-.6-1.3-1-2.3-1a3 3 0 0 0-2.3 1 4 4 0 0 0-.9 2.8c0 1.1.3 2 .9 2.7a3 3 0 0 0 2.3 1Zm7.9 1.5v-14.7h1.6v6.9h-.3c.3-.8.8-1.4 1.4-1.8.7-.4 1.5-.6 2.3-.6 1.2 0 2.1.3 2.7 1 .6.6.9 1.6.9 2.9v6.3h-1.6v-6.2c0-1-.2-1.6-.6-2-.4-.5-1-.7-1.8-.7a3 3 0 0 0-2.2.9c-.5.5-.8 1.3-.8 2.2v5.8h-1.6Zm15.2.2c-1 0-1.7-.3-2.2-.9-.5-.5-.8-1.4-.8-2.5v-5.6h-2V223h2v-2.8l1.6-.4v3.2h2.9v1.2h-2.9v5.4c0 .8.1 1.4.4 1.7.3.3.7.5 1.3.5h.6l.6-.2v1.3l-.7.2h-.8Zm4.3 2-.8-.5a2.9 2.9 0 0 0 .9-2l.3.3h-1.3v-2h2v1.4c0 .5 0 1-.2 1.5s-.5 1-1 1.4Zm12.5-2c-.8 0-1.5-.1-2.2-.3-.7-.3-1.3-.6-1.7-1l.5-1.1a5.2 5.2 0 0 0 3.5 1.1c.8 0 1.4-.1 1.8-.4.4-.3.6-.7.6-1.2 0-.4-.1-.7-.4-1l-1.3-.5-1.8-.4c-.9-.1-1.5-.5-2-.9-.4-.5-.6-1-.6-1.7 0-.6.2-1.1.5-1.6a3 3 0 0 1 1.3-1 5.8 5.8 0 0 1 4 0 4 4 0 0 1 1.6.9l-.5 1-1.4-.8c-.5-.2-1-.3-1.6-.3-.8 0-1.4.2-1.8.5-.4.3-.6.7-.6 1.2 0 .4.2.7.4 1 .3.2.6.4 1.2.5l1.8.4c1 .2 1.6.5 2 1 .5.4.7 1 .7 1.6 0 .6-.1 1.1-.5 1.6-.3.4-.8.8-1.4 1-.6.3-1.3.4-2 .4Zm10.2 0c-1.2 0-2.1-.3-2.7-1-.6-.7-1-1.7-1-3V223h1.7v6.2c0 .9.2 1.6.5 2 .4.4 1 .6 1.8.6.9 0 1.6-.2 2.1-.8.5-.6.8-1.4.8-2.3V223h1.6v10h-1.6v-2.3h.3a3.6 3.6 0 0 1-3.5 2.5Zm8-.2v-10h1.6v10H666Zm-.2-12.3v-1.8h2v1.8h-2Zm8.5 12.5c-1 0-1.7-.3-2.3-.9-.5-.5-.7-1.4-.7-2.5v-5.6h-2V223h2v-2.8l1.6-.4v3.2h2.9v1.2h-3v5.4c0 .8.2 1.4.5 1.7.3.3.7.5 1.2.5h.7l.5-.2v1.3l-.6.2h-.8Zm7.3 0c-1 0-1.7-.2-2.4-.6-.7-.5-1.2-1-1.5-1.8-.4-.8-.6-1.7-.6-2.8 0-1.1.2-2 .5-2.8.4-.8 1-1.4 1.6-1.8.7-.4 1.5-.6 2.4-.6.9 0 1.6.2 2.3.7.7.4 1.1 1 1.3 1.8h-.2l.2-2.3h1.6a356.5 356.5 0 0 0-.2 2.3v7.7H685v-2.4h.2c-.2.8-.7 1.4-1.3 1.9a4 4 0 0 1-2.4.7Zm.3-1.3c1 0 1.7-.4 2.3-1 .5-.7.8-1.7.8-3 0-1.2-.3-2.2-.9-2.8-.5-.7-1.3-1-2.2-1-1 0-1.7.3-2.3 1-.6.6-.9 1.6-.9 2.9 0 1.2.3 2.2.9 2.9.6.6 1.3 1 2.3 1Zm12.9 1.3a4 4 0 0 1-2.4-.7c-.6-.5-1-1.1-1.3-1.9h.2v2.4h-1.6v-14.7h1.6v7h-.2c.2-.8.7-1.4 1.3-1.8a4 4 0 0 1 2.4-.7c.9 0 1.6.2 2.3.6a4 4 0 0 1 1.5 1.8c.4.8.6 1.7.6 2.8 0 1-.2 2-.6 2.8-.3.7-.9 1.3-1.5 1.8-.7.4-1.4.6-2.3.6Zm-.4-1.3c1 0 1.7-.4 2.3-1 .6-.7.9-1.6.9-3 0-1.2-.3-2.2-.9-2.8-.6-.7-1.3-1-2.3-1-1 0-1.7.3-2.3 1-.5.6-.8 1.6-.8 2.9 0 1.2.3 2.2.8 2.9.6.6 1.4 1 2.3 1Zm7.3 1.1v-14.7h1.6V233h-1.6Zm9.2.2a5 5 0 0 1-3.7-1.4c-.9-.9-1.3-2.2-1.3-3.8 0-1 .2-2 .6-2.7.4-.8 1-1.4 1.6-1.9.8-.4 1.6-.6 2.5-.6 1 0 1.7.2 2.3.6.7.3 1.1.9 1.5 1.6.3.7.5 1.6.5 2.5v.6h-7.8v-1h6.7l-.3.3c0-1-.3-2-.7-2.5-.5-.6-1.2-1-2.2-1-1 0-1.8.4-2.3 1.1-.6.7-.9 1.7-.9 2.9v.1c0 1.3.3 2.2 1 2.9.6.6 1.5 1 2.6 1a4.7 4.7 0 0 0 3.2-1.2l.5 1.1c-.4.5-1 .8-1.6 1-.7.3-1.4.4-2.2.4ZM472.1 257v-8.8h-2V247h2.4l-.4.4v-1.7c0-1.1.3-2 .9-2.6.5-.6 1.4-.9 2.4-.9h.8l.8.3v1.3l-.6-.2a3 3 0 0 0-.7 0 2 2 0 0 0-1.1.2c-.3.2-.5.4-.7.8l-.2 1.2v1.5l-.2-.3h3v1.2h-2.8v8.8h-1.6Zm10 .2a5 5 0 0 1-2.4-.6c-.7-.5-1.3-1-1.7-1.8-.4-.8-.6-1.8-.6-2.8 0-1.1.2-2 .6-2.8.4-.8 1-1.4 1.7-1.8.7-.4 1.5-.6 2.5-.6s1.8.2 2.5.6c.7.4 1.3 1 1.7 1.8.4.8.6 1.7.6 2.8 0 1-.2 2-.6 2.8-.4.7-1 1.3-1.7 1.8-.7.4-1.5.6-2.5.6Zm0-1.3c1 0 1.8-.4 2.4-1 .5-.7.8-1.7.8-3 0-1.2-.3-2.2-.9-2.8-.5-.7-1.3-1-2.2-1-1 0-1.7.3-2.3 1-.5.6-.8 1.6-.8 2.9 0 1.2.3 2.2.8 2.9.6.6 1.3 1 2.3 1Zm7.3 1.1v-7.6a18.7 18.7 0 0 0 0-2.4h1.5l.2 2.4h-.3c.1-.6.4-1 .7-1.5.3-.3.7-.6 1.2-.8.4-.2 1-.3 1.4-.3h.5l.5.1v1.4h-.6l-.6-.1c-.6 0-1 .1-1.5.4a2.8 2.8 0 0 0-1.3 2.5v5.9h-1.7Zm12.6 0v-14.7h1.6v6.9h-.3c.3-.8.8-1.4 1.4-1.8.7-.4 1.5-.6 2.3-.6 1.2 0 2.1.3 2.7 1 .6.6.9 1.6.9 2.9v6.3H509v-6.2c0-1-.2-1.6-.6-2-.3-.5-1-.7-1.7-.7a3 3 0 0 0-2.3.9c-.5.5-.8 1.3-.8 2.2v5.8H502Zm11.7 0v-10h1.6v10h-1.6Zm-.2-12.3v-1.8h2v1.8h-2Zm9.4 16.8c-.9 0-1.7-.1-2.4-.4-.8-.2-1.4-.5-2-1l.5-1.2a6.8 6.8 0 0 0 2.4 1.1l1.4.2c1 0 1.7-.3 2.2-.8.5-.5.8-1.3.8-2.2v-3h.2c-.2.8-.7 1.4-1.3 1.9a4 4 0 0 1-2.4.7c-.9 0-1.7-.2-2.4-.6-.6-.4-1.2-1-1.5-1.8-.4-.7-.6-1.6-.6-2.6s.2-2 .6-2.7a4 4 0 0 1 1.5-1.7c.7-.4 1.5-.6 2.4-.6 1 0 1.7.2 2.4.7.6.4 1 1 1.3 1.8l-.2-.2.2-2.1h1.6a17.3 17.3 0 0 0-.2 2.3v7.6c0 1.5-.4 2.7-1.2 3.4-.7.8-1.8 1.2-3.3 1.2Zm-.3-6c1 0 1.8-.4 2.3-1a4 4 0 0 0 .9-2.7 4 4 0 0 0-.9-2.8c-.5-.6-1.3-1-2.3-1a3 3 0 0 0-2.3 1 4 4 0 0 0-.8 2.8c0 1.1.3 2 .8 2.7a3 3 0 0 0 2.3 1Zm8 1.5v-14.7h1.5v6.9h-.2c.2-.8.7-1.4 1.4-1.8.6-.4 1.4-.6 2.3-.6 1.2 0 2 .3 2.6 1 .6.6 1 1.6 1 2.9v6.3h-1.7v-6.2c0-1-.2-1.6-.6-2-.3-.5-.9-.7-1.7-.7a3 3 0 0 0-2.3.9c-.5.5-.8 1.3-.8 2.2v5.8h-1.6Zm11.5-4.8v-1.4h5.7v1.4H542Zm11.3 4.8-4.3-10h1.7l3.6 8.8h-.5l3.6-8.8h1.7l-4.3 10h-1.5Zm11.3.2c-1 0-1.7-.2-2.4-.6-.6-.5-1.2-1-1.5-1.8-.4-.8-.6-1.7-.6-2.8 0-1.1.2-2 .6-2.8.3-.8.9-1.4 1.5-1.8.7-.4 1.5-.6 2.4-.6.9 0 1.6.2 2.3.7.7.4 1.1 1 1.3 1.8h-.2l.2-2.3h1.6a356.5 356.5 0 0 0-.2 2.3v7.7h-1.6v-2.4h.2c-.2.8-.7 1.4-1.3 1.9a4 4 0 0 1-2.3.7Zm.3-1.3c1 0 1.7-.4 2.3-1 .5-.7.8-1.7.8-3 0-1.2-.3-2.2-.8-2.8-.6-.7-1.4-1-2.3-1-1 0-1.7.3-2.3 1-.6.6-.8 1.6-.8 2.9 0 1.2.2 2.2.8 2.9.6.6 1.3 1 2.3 1Zm7.8 1.1v-14.7h1.7V257h-1.7Zm8.3.2c-1.2 0-2-.3-2.7-1-.6-.7-.9-1.7-.9-3V247h1.7v6.2c0 .9.1 1.6.5 2 .4.4 1 .6 1.8.6s1.5-.2 2-.8c.6-.6.9-1.4.9-2.3V247h1.6v10h-1.6v-2.3h.3a3.6 3.6 0 0 1-3.6 2.5Zm12.5 0a5 5 0 0 1-3.7-1.4c-1-.9-1.4-2.2-1.4-3.8 0-1 .2-2 .6-2.7.4-.8 1-1.4 1.7-1.9.7-.4 1.5-.6 2.5-.6.9 0 1.7.2 2.3.6.6.3 1.1.9 1.4 1.6.4.7.5 1.6.5 2.5v.6h-7.7v-1h6.7l-.4.3c0-1-.2-2-.7-2.5-.5-.6-1.2-1-2.1-1-1 0-1.8.4-2.4 1.1-.5.7-.8 1.7-.8 2.9v.1c0 1.3.3 2.2 1 2.9.5.6 1.4 1 2.5 1a4.7 4.7 0 0 0 3.2-1.2l.6 1.1c-.4.5-1 .8-1.7 1-.6.3-1.4.4-2.1.4Zm15.8 0a5 5 0 0 1-2.6-.6c-.7-.5-1.2-1-1.6-1.8-.4-.8-.6-1.8-.6-2.8 0-1.1.2-2 .6-2.8.4-.8 1-1.4 1.6-1.8.8-.4 1.6-.6 2.6-.6s1.8.2 2.5.6c.7.4 1.2 1 1.6 1.8.4.8.6 1.7.6 2.8 0 1-.2 2-.6 2.8-.4.7-1 1.3-1.6 1.8-.7.4-1.6.6-2.5.6Zm0-1.3c1 0 1.7-.4 2.2-1 .6-.7.9-1.7.9-3 0-1.2-.3-2.2-.9-2.8-.5-.7-1.3-1-2.2-1-1 0-1.7.3-2.3 1-.6.6-.8 1.6-.8 2.9 0 1.2.2 2.2.8 2.9.6.6 1.3 1 2.3 1Zm7.2 1.1v-7.6a18.7 18.7 0 0 0-.1-2.4h1.6l.2 2.4h-.3a3.1 3.1 0 0 1 1.9-2.3c.4-.2.9-.3 1.4-.3h.5l.4.1v1.4h-.5l-.6-.1c-.6 0-1.1.1-1.5.4a2.8 2.8 0 0 0-1.3 2.5v5.9h-1.7Zm12.5 0v-14.7h1.7v6.9h-.3c.3-.8.7-1.4 1.4-1.8.7-.4 1.4-.6 2.3-.6 1.2 0 2 .3 2.7 1 .6.6.9 1.6.9 2.9v6.3H636v-6.2c0-1-.1-1.6-.5-2-.4-.5-1-.7-1.8-.7a3 3 0 0 0-2.2.9c-.6.5-.8 1.3-.8 2.2v5.8H629Zm11.8 0v-10h1.6v10h-1.6Zm-.2-12.3v-1.8h2v1.8h-2Zm9.3 16.8c-.8 0-1.6-.1-2.4-.4-.7-.2-1.4-.5-2-1l.5-1.2a6.8 6.8 0 0 0 2.5 1.1l1.4.2c1 0 1.7-.3 2.2-.8.5-.5.8-1.3.8-2.2v-3h.2c-.3.8-.7 1.4-1.4 1.9a4 4 0 0 1-2.3.7c-1 0-1.7-.2-2.4-.6-.7-.4-1.2-1-1.6-1.8-.3-.7-.5-1.6-.5-2.6s.2-2 .5-2.7a4 4 0 0 1 1.6-1.7c.7-.4 1.5-.6 2.4-.6 1 0 1.7.2 2.3.7.7.4 1.2 1 1.4 1.8l-.2-.2.1-2.1h1.6a17.3 17.3 0 0 0-.1 2.3v7.6c0 1.5-.4 2.7-1.2 3.4-.8.8-1.9 1.2-3.4 1.2Zm-.2-6c1 0 1.7-.4 2.3-1a4 4 0 0 0 .8-2.7 4 4 0 0 0-.8-2.8c-.6-.6-1.3-1-2.3-1a3 3 0 0 0-2.3 1 4 4 0 0 0-.9 2.8c0 1.1.3 2 .9 2.7a3 3 0 0 0 2.3 1Zm7.9 1.5v-14.7h1.6v6.9h-.3c.3-.8.8-1.4 1.4-1.8.7-.4 1.5-.6 2.3-.6 1.2 0 2.1.3 2.7 1 .6.6.9 1.6.9 2.9v6.3h-1.6v-6.2c0-1-.2-1.6-.6-2-.3-.5-1-.7-1.7-.7a3 3 0 0 0-2.3.9c-.5.5-.8 1.3-.8 2.2v5.8h-1.6Zm11.6-4.8v-1.4h5.7v1.4h-5.7Zm8.6 4.8v-7.6a18.7 18.7 0 0 0-.1-2.4h1.5l.2 2.4h-.2a3.1 3.1 0 0 1 1.9-2.3c.4-.2.9-.3 1.4-.3h.5l.4.1v1.4h-.6l-.5-.1c-.6 0-1.1.1-1.6.4a2.8 2.8 0 0 0-1.3 2.5v5.9H678Zm7.3 0v-10h1.6v10h-1.6Zm-.2-12.3v-1.8h2v1.8h-2Zm8.3 12.5c-.8 0-1.5-.1-2.2-.3-.7-.3-1.3-.6-1.7-1l.5-1.1a5.2 5.2 0 0 0 3.4 1.1c.8 0 1.4-.1 1.8-.4.5-.3.7-.7.7-1.2 0-.4-.2-.7-.4-1l-1.3-.5-1.9-.4c-.8-.1-1.5-.5-1.9-.9-.4-.5-.6-1-.6-1.7 0-.6.1-1.1.4-1.6a3 3 0 0 1 1.4-1 5.8 5.8 0 0 1 4 0 4 4 0 0 1 1.6.9l-.6 1-1.3-.8c-.5-.2-1-.3-1.6-.3-.8 0-1.4.2-1.8.5-.4.3-.6.7-.6 1.2 0 .4.1.7.4 1 .2.2.6.4 1.1.5l1.9.4c.9.2 1.6.5 2 1 .5.4.7 1 .7 1.6 0 .6-.2 1.1-.5 1.6-.3.4-.8.8-1.4 1-.6.3-1.3.4-2 .4Zm6.6-.2v-14.7h1.6v9.1l4.7-4.4h2l-5.4 5.2v-.8l6 5.6h-2.1l-5.1-4.7v4.7h-1.7ZM475.4 281.2c-.9 0-1.7-.2-2.3-.6-.7-.5-1.2-1-1.6-1.8-.4-.8-.5-1.7-.5-2.8 0-1.1.1-2 .5-2.8.4-.8.9-1.4 1.6-1.8.6-.4 1.4-.6 2.3-.6.9 0 1.7.2 2.3.7.7.4 1.1 1 1.4 1.8h-.3v-7h1.6V281h-1.6v-2.4h.3c-.3.8-.7 1.4-1.4 1.9-.6.5-1.4.7-2.3.7Zm.3-1.3c1 0 1.7-.4 2.3-1 .6-.7.9-1.7.9-3 0-1.2-.3-2.2-.9-2.8-.6-.7-1.3-1-2.3-1-1 0-1.7.3-2.3 1-.5.6-.8 1.6-.8 2.9 0 1.2.3 2.2.8 2.9.6.6 1.4 1 2.3 1Zm12.3 1.3a5 5 0 0 1-3.7-1.4c-.9-.9-1.3-2.2-1.3-3.8 0-1 .2-2 .6-2.7.4-.8 1-1.4 1.6-1.9.8-.4 1.6-.6 2.5-.6 1 0 1.7.2 2.3.6.7.3 1.1.9 1.5 1.6.3.7.5 1.6.5 2.5v.6h-7.8v-1h6.7l-.3.3c0-1-.3-2-.7-2.5-.5-.6-1.2-1-2.2-1-1 0-1.8.4-2.3 1.1-.6.7-.9 1.7-.9 2.9v.1c0 1.3.3 2.2 1 2.9.6.6 1.5 1 2.6 1a4.7 4.7 0 0 0 3.2-1.2l.5 1.1c-.4.5-1 .8-1.6 1-.7.3-1.4.4-2.2.4Zm9.3-.2-4.3-10h1.8l3.6 8.8h-.6l3.7-8.8h1.6l-4.3 10h-1.5Zm7.7 0v-10h1.6v10H505Zm-.2-12.3v-1.8h2v1.8h-2Zm9.1 12.5a5 5 0 0 1-2.5-.7c-.8-.4-1.3-1-1.7-1.8-.4-.8-.6-1.7-.6-2.8 0-1 .2-2 .6-2.8.4-.7 1-1.3 1.7-1.7.7-.4 1.6-.6 2.5-.6.7 0 1.3 0 1.9.3a4 4 0 0 1 1.5 1l-.6 1.1a4 4 0 0 0-2.7-1.1 3 3 0 0 0-2.4 1c-.5.6-.8 1.6-.8 2.8 0 1.3.3 2.2.8 3a3 3 0 0 0 2.4 1 3.9 3.9 0 0 0 2.7-1.2l.6 1.2a4 4 0 0 1-1.5 1c-.6.2-1.2.3-1.9.3Zm10 0a5 5 0 0 1-3.7-1.4c-1-.9-1.4-2.2-1.4-3.8 0-1 .2-2 .6-2.7.4-.8 1-1.4 1.7-1.9.7-.4 1.5-.6 2.5-.6.9 0 1.7.2 2.3.6.6.3 1.1.9 1.4 1.6.4.7.5 1.6.5 2.5v.6h-7.7v-1h6.7l-.4.3c0-1-.2-2-.7-2.5-.5-.6-1.2-1-2.1-1-1 0-1.8.4-2.4 1.1-.5.7-.8 1.7-.8 2.9v.1c0 1.3.3 2.2 1 2.9.5.6 1.4 1 2.5 1a4.7 4.7 0 0 0 3.2-1.2l.6 1.1c-.4.5-1 .8-1.7 1-.7.3-1.4.4-2.1.4Zm9.8 0c-.9 0-1.6-.1-2.3-.3-.7-.3-1.3-.6-1.7-1l.5-1.1a5.2 5.2 0 0 0 3.5 1.1c.8 0 1.4-.1 1.8-.4.4-.3.6-.7.6-1.2 0-.4-.1-.7-.4-1l-1.3-.5-1.8-.4c-.9-.1-1.5-.5-2-.9-.4-.5-.6-1-.6-1.7 0-.6.2-1.1.5-1.6a3 3 0 0 1 1.3-1 5.8 5.8 0 0 1 4 0 4 4 0 0 1 1.7.9l-.6 1-1.4-.8c-.5-.2-1-.3-1.6-.3-.8 0-1.4.2-1.8.5-.4.3-.6.7-.6 1.2 0 .4.2.7.4 1 .3.2.6.4 1.2.5l1.8.4c1 .2 1.6.5 2 1 .5.4.7 1 .7 1.6 0 .6-.1 1.1-.5 1.6-.3.4-.8.8-1.4 1-.6.3-1.3.4-2 .4Z"/><path stroke="#4E88E7" stroke-linecap="round" stroke-linejoin="round" stroke-width="2" d="M406 53h-58c-13.2 0-24 10.6-24 23.8v6.5a23 23 0 0 1-23 23.7h-1"/><path stroke="#4E88E7" stroke-linecap="round" stroke-linejoin="round" stroke-width="2" d="m400 59.5 6.5-6.5-6.5-6.5"/><path stroke="#3CC583" stroke-linecap="round" stroke-linejoin="round" stroke-width="2" d="M406 161h-58c-13.3 0-24-10.6-24-23.8v-6.5a23 23 0 0 0-23-23.7h-1"/><path stroke="#3CC583" stroke-linecap="round" stroke-linejoin="round" stroke-width="2" d="m400 167.5 6.5-6.5-6.5-6.5"/><path stroke="#484848" stroke-linecap="round" stroke-linejoin="round" stroke-width="2" d="M300 107h-72M105 77.7H85m21.3 10H90a5 5 0 0 1-5-5V35.2a5 5 0 0 1 5-5h22.5a5 5 0 0 1 5 5v22.5m-16.2-10.1v7.7m3.9-3.9h-7.8M143 72.8h-30m21.2 8.8h3.8m-36.7.5a.6.6 0 1 1 0 1.2.6.6 0 0 1 0-1.2Zm-10-30.7a10 10 0 1 0 20 0 10 10 0 0 0-20 0ZM143 67.8v17.5s0 2.5-2.5 2.5h-25s-2.5 0-2.5-2.5V67.8s0-2.5 2.5-2.5h25s2.5 0 2.5 2.5Z"/><path stroke="#3A4455" stroke-linecap="round" stroke-linejoin="round" stroke-width="2" d="M420.8 44.8v-3c0-.9.6-1.5 1.4-1.5h3m0 25.5h-3c-.8 0-1.4-.7-1.4-1.5v-3m34.4 0v3c0 .8-.6 1.5-1.4 1.5h-3m0-25.5h3c.8 0 1.4.6 1.4 1.5v3m-30 1.5v13.5m25.6-13.5v13.5m-19.6-13.5v9m7.6-9v9m3-9v9m-7.6-9v9m10.6-9v9m-13.6 4.5v-1.5m-3-12v9m0 4.5v-1.5m6 1.5v-1.5m4.6 1.5v-1.5m3 1.5v-1.5m3 1.5v-1.5m3-12v9m0 4.5v-1.5"/><path stroke="#374840" stroke-linecap="round" stroke-linejoin="round" stroke-width="2" d="M438.8 161.8v10.4c0 .9-.7 1.6-1.6 1.6h-6M423 147l7.5 3.8c.5.3.9.8.9 1.4V177a.8.8 0 0 1-1.1.7l-7.1-3.5c-.5-.3-.9-.8-.9-1.4v-24.6c0-.8.7-1.4 1.6-1.4h13.4c.9 0 1.6.6 1.6 1.4v1.6m8.8-.2a3 3 0 0 1-4.2 0m7.4 3.2c-3 3-7.7 3-10.6 0M454 156a12 12 0 0 1-17 0m4.8-12.3h7.4v1.6c0 .8-.6 1.4-1.4 1.4h-4.6c-.8 0-1.4-.6-1.4-1.4v-1.6Z"/></svg>