<?xml version="1.0" encoding="UTF-8"?>
<svg width="472px" height="271px" viewBox="0 0 472 271" version="1.1" xmlns="http://www.w3.org/2000/svg" xmlns:xlink="http://www.w3.org/1999/xlink">
    <title>logo skewed 1</title>
    <g id="Welcome" stroke="none" stroke-width="1" fill="none" fill-rule="evenodd">
        <g id="Artboard" transform="translate(-76.000000, -361.000000)">
            <g id="text" transform="translate(76.000000, 361.114645)">
                <g id="the-ward" transform="translate(0.000000, 169.496484)">
                    <polygon id="Path-2" fill="#FFFFFF" points="33.4981403 8.7789395 406 20.6027377 406 80.4725959 33.4981403 93.0019369"></polygon>
                    <path d="M22,0 L22,0.0379734911 L421,11.8103407 L421,89.042116 L22,100.743672 L22,101.085433 C7.33333333,69.8833457 0,52.9013966 0,50.5427167 C0,48.1840368 7.33333333,31.2020877 22,0 Z M79.192,21.2451356 L42.913,20.6027377 L42.913,32.141878 L54.223,32.2649608 L54.223,80.4725959 L67.882,80.2291873 L67.882,32.4136071 L79.192,32.5366899 L79.192,21.2451356 Z M98.419,21.5855911 L84.586,21.340648 L84.586,79.9315156 L98.419,79.6850063 L98.419,55.3948553 L112.774,55.3522631 L112.774,79.4291947 L126.607,79.1826853 L126.607,22.0847204 L112.774,21.8397773 L112.774,43.7205023 L98.419,43.6600864 L98.419,21.5855911 Z M167.323,22.805685 L137.569,22.2788263 L137.569,78.9873383 L168.367,78.4385061 L168.367,67.2056673 L150.88,67.3918098 L150.88,55.2392003 L166.018,55.1942849 L166.018,44.8099514 L150.88,44.754596 L150.88,33.7139899 L167.323,33.8888079 L167.323,22.805685 Z M203.428,23.4450018 L189.247,23.1938967 L200.818,77.8602169 L215.608,77.5966534 L223.09,41.4557978 L223.264,41.4568444 L230.833,77.3253381 L245.623,77.0617746 L257.281,24.3985853 L243.796,24.1598043 L237.532,61.063628 L237.271,61.0654632 L230.311,23.9210233 L216.826,23.6822423 L210.127,61.2563304 L209.779,61.2587774 L203.428,23.4450018 Z M290.428,24.9855244 L272.941,24.6758794 L257.977,76.8416216 L271.897,76.5935619 L274.42,67.101987 L288.253,66.945022 L290.776,76.2571309 L305.305,75.9982185 L290.428,24.9855244 Z M330.448,25.6941648 L310.699,25.3444662 L310.699,75.9020954 L324.097,75.6633379 L324.097,55.7155695 L328.186,55.7005646 L336.451,75.4431849 L351.154,75.1811718 L340.627,53.2780635 C341.613,52.9966962 342.628,52.5295279 343.672,51.8769949 C344.716,51.2254399 345.6585,50.3891189 346.4995,49.3682271 C347.3405,48.3485731 348.022,47.1211787 348.544,45.6859273 C349.066,44.2517586 349.327,42.6319608 349.327,40.8257221 C349.327,35.9164577 347.674,32.2010572 344.368,29.6706452 C341.159235,27.2033401 336.693787,25.8793826 330.971656,25.706695 L330.448,25.6941648 Z M375.079,26.4844529 L357.766,26.1778889 L357.766,75.0633434 L375.079,74.7548192 C379.487,74.6762669 383.3005,74.0435928 386.5195,72.8608351 C389.7385,71.6834618 392.392,70.0487268 394.48,67.9574118 C396.568,65.872523 398.1195,63.3749109 399.1345,60.4630663 C400.1495,57.5556359 400.657,54.3197099 400.657,50.7519779 C400.657,47.0950526 400.1495,43.803485 399.1345,40.8739391 C398.1195,37.939945 396.568,35.4202326 394.48,33.313266 C392.392,31.1998032 389.7385,29.5541504 386.5195,28.3771415 C383.446818,27.2486103 379.832454,26.6212624 375.676406,26.4985513 L375.079,26.4844529 Z M375.253,36.0312992 C378.617,36.0672332 381.3575,37.3293593 383.4745,39.8118879 C385.5915,42.286697 386.65,45.9321967 386.65,50.7541766 C386.65,55.3958956 385.5915,58.9513847 383.4745,61.4264335 C381.3575,63.9092018 378.617,65.1716382 375.253,65.2079531 L371.86,65.2445811 L371.86,35.9950554 L375.253,36.0312992 Z M281.554,36.0506146 L286.513,57.9595465 L275.986,58.0134954 L281.206,36.0471417 L281.554,36.0506146 Z M328.447,35.1082096 C329.259,35.1171278 330.0855,35.2083809 330.9265,35.3818212 C331.7675,35.5550645 332.536,35.8796899 333.232,36.3554956 C333.928,36.8308357 334.4935,37.4683107 334.9285,38.2678986 C335.3635,39.0669918 335.581,40.0977973 335.581,41.3606863 C335.581,43.6058223 334.8415,45.2283979 333.3625,46.2300088 C331.8835,47.2337472 330.158,47.7344415 328.186,47.7305191 L324.097,47.7223148 L324.097,35.0604335 L328.447,35.1082096 Z" id="Combined-Shape" fill="#005EB8"></path>
                </g>
                <g id="beyond" transform="translate(22.000000, 0.000000)">
                    <polygon id="Path-3" fill="#FFFFFF" points="11.4981403 21.0973379 11.4981403 153.758103 399 153.758103 399 21.0973379"></polygon>
                    <path d="M399,0 C433,53.2257813 450,82.3351633 450,86.3853549 C450,90.4355466 433,119.544929 399,172.77071 L0,160.885355 L0,11.8853549 L399,0 Z M223.149573,27.0226765 C217.465812,27.146532 212.455128,28.7164515 208.117521,31.7254299 C203.779915,34.7250681 200.115385,38.8611205 197.123932,44.1319141 C194.132479,49.3911369 191.86396,55.7040759 190.318376,63.0730767 C188.772792,70.433634 188,78.5070587 188,87.2996836 C188,96.1995356 188.797721,104.327312 190.393162,111.68955 C191.988604,119.060503 194.30698,125.403002 197.348291,130.719424 C200.389601,136.04773 204.07906,140.214552 208.416667,143.217981 C212.754274,146.23075 217.665242,147.802585 223.149573,147.92648 C228.633903,148.050376 233.519943,146.688684 237.807692,143.834482 C242.095442,140.971046 245.735043,136.881355 248.726496,131.563566 C251.717949,126.234086 254.011396,119.813046 255.606838,112.302677 C257.202279,104.783593 258,96.4550164 258,87.3234852 C258,78.3019725 257.202279,70.0278152 255.606838,62.5075502 C254.011396,54.996001 251.717949,48.6007066 248.726496,43.323808 C245.735043,38.0584802 242.095442,33.993261 237.807692,31.1263968 C233.519943,28.2687654 228.633903,26.9031668 223.149573,27.0226765 Z M44.6712329,33.9655025 L21,34.4529312 L21,141.342968 L47.7780822,141.926493 C50.7369863,141.990971 53.8191781,141.573827 57.0246575,140.67324 C60.230137,139.770222 63.1643836,138.194062 65.8273973,135.942996 C68.490411,133.687147 70.6849315,130.674226 72.4109589,126.903996 C74.1369863,123.128669 75,118.411962 75,112.757697 C75,108.234286 74.4082192,104.297886 73.2246575,100.950801 C72.0410959,97.6067854 70.5369863,94.8293051 68.7123288,92.6184053 C66.8876712,90.4106368 64.890411,88.6922834 62.7205479,87.4625555 C60.7175975,86.3292667 58.8407068,85.5458803 57.089876,85.1115147 L56.6547945,85.0102626 L56.6547945,84.7040446 C58.5287671,83.9877805 60.3534247,82.9894235 62.1287671,81.7084305 C63.9041096,80.4256662 65.4821918,78.7832 66.8630137,76.7807486 C68.2438356,74.7761479 69.3534247,72.4118066 70.1917808,69.6880067 C71.030137,66.9624335 71.4493151,63.751046 71.4493151,60.0551743 C71.4493151,54.819356 70.6109589,50.4935406 68.9342466,47.0810907 C67.2575342,43.6731241 65.1123288,40.9949299 62.4986301,39.0461968 C59.8849315,37.1015316 57,35.7533625 53.8438356,35.0001499 C50.9304531,34.3066654 48.1011105,33.9598876 45.3558077,33.9586218 L44.6712329,33.9655025 Z M126.508475,32.2803423 L84,33.15566 L84,142.715809 L128,143.674618 L128,133.759682 L94.1423729,133.149576 L94.1423729,90.4274673 L124.420339,90.4746269 L124.420339,81.2018542 L94.1423729,81.2616331 L94.1423729,42.5787058 L126.508475,42.032362 L126.508475,32.2803423 Z M141.345972,31.9748144 L130,32.2084462 L156.274882,98.0006514 L156.274882,144.290759 L166.42654,144.511975 L166.42654,98.0450253 L193,30.911175 L181.803318,31.1417327 L161.350711,86.5477384 L141.345972,31.9748144 Z M277.082707,29.1797771 L264,29.449171 L264,146.63821 L273.774436,146.851206 L273.774436,49.014557 L274.225564,49.0084813 L311.368421,147.670421 L324,147.945677 L324,28.2136746 L314.37594,28.4118495 L314.37594,127.68007 L313.924812,127.673453 L277.082707,29.1797771 Z M355.819071,27.5584689 L333,28.0283502 L333,148.141797 L355.669927,148.6358 C361.436838,148.761467 366.681744,147.588249 371.404645,145.109785 C376.127547,142.622838 380.179299,138.85007 383.559902,133.788836 C386.940505,128.715594 389.525672,122.380011 391.315403,114.78402 C393.105134,107.178601 394,98.346558 394,88.294962 C394,78.243366 393.105134,69.3812674 391.315403,61.7157909 C389.525672,54.059814 386.965363,47.6629889 383.634474,42.5271636 C380.303586,37.403302 376.276691,33.5963042 371.55379,31.1035588 C367.012538,28.7146869 361.988664,27.5322057 356.482167,27.5502989 L355.819071,27.5584689 Z M223.149068,37.9149201 C227.024845,37.8459594 230.453416,39.0941052 233.434783,41.6636444 C236.416149,44.2388993 238.925466,47.7568757 240.962733,52.218291 C243,56.6863786 244.515528,61.9883618 245.509317,68.1225705 C246.503106,74.2612247 247,80.8444324 247,87.8688595 C247,94.8932866 246.503106,101.475958 245.509317,107.613539 C244.515528,113.746675 243.024845,119.102116 241.037267,123.678197 C239.049689,128.247609 236.565217,131.817868 233.583851,134.38969 C230.602484,136.955796 227.124224,138.198957 223.149068,138.12346 C219.074534,138.046075 215.521739,136.676606 212.490683,134.019412 C209.459627,131.368028 206.950311,127.7572 204.962733,123.187571 C202.975155,118.624611 201.484472,113.317838 200.490683,107.265586 C199.496894,101.217779 199,94.7446775 199,87.842947 C199,80.9412164 199.496894,74.4686514 200.490683,68.4219177 C201.484472,62.3707385 202.975155,57.1195742 204.962733,52.6668769 C206.950311,48.2076701 209.459627,44.6539308 212.490683,42.006183 C215.521739,39.3526243 219.074534,37.9874172 223.149068,37.9149201 Z M46.0652174,89.94982 C48.2971014,89.9529433 50.6050725,90.3599406 52.9891304,91.1719435 C55.3731884,91.9854555 57.5289855,93.2553751 59.4565217,94.9825151 C61.384058,96.7122478 62.9565217,98.9754132 64.173913,101.772054 C65.3913043,104.571343 66,108.002998 66,112.065033 C66,115.720865 65.4927536,118.862524 64.4782609,121.488444 C63.4637681,124.112277 62.0434783,126.271361 60.2173913,127.96542 C58.3913043,129.657023 56.2608696,130.885574 53.826087,131.651759 C51.3913043,132.416404 48.8043478,132.773232 46.0652174,132.7234 L31,132.449325 L31,89.9287372 L46.0652174,89.94982 Z M355.405904,37.8459165 C359.440344,37.777359 363.197417,38.7453852 366.677122,40.7537559 C370.156827,42.767141 373.182657,45.8275763 375.754613,49.9368606 C378.326568,54.0535575 380.343788,59.3076482 381.806273,65.6984468 C383.268758,72.0957437 384,79.6275155 384,88.2888885 C384,96.8347766 383.268758,104.279021 381.806273,110.616792 C380.343788,116.948123 378.326568,122.170959 375.754613,126.284571 C373.182657,130.39077 370.156827,133.447576 366.677122,135.456787 C363.197417,137.460984 359.440344,138.424504 355.405904,138.351107 L343,138.125411 L343,38.056731 L355.405904,37.8459165 Z M44.8428571,42.1054072 C47.1063492,42.0660384 49.3206349,42.3362855 51.4857143,42.9169346 C53.6507937,43.4986322 55.5944444,44.5235278 57.3166667,45.9923467 C59.0388889,47.4631811 60.4166667,49.4320632 61.45,51.8989824 C62.4833333,54.3679032 63,57.4138743 63,61.0353945 C63,64.5534427 62.4587302,67.5581061 61.3761905,70.0478121 C60.2936508,72.5354212 58.915873,74.5831883 57.2428571,76.1911164 C55.5698413,77.7969516 53.6753968,78.9631423 51.5595238,79.6903618 C49.4436508,80.416386 47.3031746,80.7813304 45.1380952,80.7860916 L32,80.8149836 L32,42.3287818 L44.8428571,42.1054072 Z" id="Combined-Shape" fill="#018369"></path>
                </g>
            </g>
        </g>
    </g>
</svg>