<?xml version="1.0" encoding="UTF-8"?>
<svg width="72px" height="60px" viewBox="0 0 72 60" version="1.1" xmlns="http://www.w3.org/2000/svg" xmlns:xlink="http://www.w3.org/1999/xlink">
    <title>emblem</title>
    <g id="Material-Design-Stickersheet" stroke="none" stroke-width="1" fill="none" fill-rule="evenodd">
        <g id="Digital-Print-v0.1" transform="translate(-1386.000000, -2102.000000)" fill="#E74B00" fill-rule="nonzero">
            <g id="logos" transform="translate(1386.235718, 1799.000000)">
                <g id="emblem" transform="translate(0.000000, 303.071250)">
                    <path d="M70.1375257,27.1099792 C65.2632608,30.5659069 60.3217607,33.9487971 55.1475282,36.8007877 C46.5934674,41.5156786 47.3732883,33.702465 51.9197128,28.239904 C54.7586599,24.8291065 60.2187462,20.569118 59.9955787,15.7017969 C59.7110736,9.49694017 54.3627943,9.85285988 50.794198,12.6399022 C42.7628465,18.9122402 34.8307964,25.2923694 26.6501206,31.3712209 C29.5173545,27.1113818 41.5222494,13.4219103 34.2373702,8.9651508 C29.4712024,6.04852028 19.8901839,15.2404747 16.818541,18.0955956 C12.5957133,22.020684 5.62897199,28.9061703 0,34.348281 L0.208939035,24.1543369 C0.280752158,20.6506404 2.00743653,17.3844469 4.8706606,15.3362317 L23.3707199,2.1021633 C25.595643,0.510558373 28.3302537,-0.217144064 31.0584015,0.0564078091 L53.7427337,2.33096988 C57.2535509,2.68300015 60.393298,4.65419602 62.2194575,7.65282634 L69.8804113,20.2324326 C70.9704094,22.022255 71.5108957,24.0417709 71.5003992,26.0599013 C70.7174851,26.6653433 70.1832683,27.077547 70.1375257,27.1099792 Z M68.0550201,34.8664732 L60.6546149,47.4106689 C59.1623116,49.9402258 56.7266602,51.7840896 53.8752207,52.5428812 L30.0355627,58.8868108 C27.1841233,59.6456024 24.1464774,59.2582281 21.5805767,57.8085929 L5.5796252,48.7686711 C3.36005726,47.5147006 1.6797418,45.5746381 0.743508458,43.3065745 C1.79177881,42.2471059 2.71794894,41.3107697 2.83475475,41.1906395 C5.40646216,38.5465477 21.3091731,23.0923866 21.3091731,23.0923866 C21.3091731,23.0923866 13.8877102,37.1361478 13.2665592,38.4539651 C9.80155775,45.8034455 14.4370415,52.9042586 21.5516387,46.5673997 C28.876798,40.0431502 35.7765298,32.8904079 43.3164061,26.6198701 C36.2458801,32.4998995 31.01551,56.8946547 46.7113686,48.8884912 C54.2086112,45.0642887 61.1155508,39.9289596 68.0550201,34.8664738 L68.0550201,34.8664732 Z" id="Shape"></path>
                </g>
            </g>
        </g>
    </g>
</svg>