<?xml version="1.0" encoding="UTF-8"?>
<svg width="66px" height="55px" viewBox="0 0 66 55" version="1.1" xmlns="http://www.w3.org/2000/svg" xmlns:xlink="http://www.w3.org/1999/xlink">
    <title>Shape</title>
    <g id="Page-1" stroke="none" stroke-width="1" fill="none" fill-rule="evenodd">
        <g id="inverted---social-media" transform="translate(-46.000000, -84.000000)" fill="#FFFFFF">
            <g id="main-horizontal" transform="translate(46.000000, 84.000000)">
                <g id="emblem" transform="translate(0.001944, 0.000000)">
                    <path d="M63.9553904,24.8010638 C59.5256455,27.9543679 55.0347973,31.0410303 50.332441,33.643282 C42.558488,37.9453062 43.2671913,30.8162686 47.3989938,25.8320451 C49.9790365,22.7199192 54.9411774,18.8329632 54.7383621,14.3918563 C54.4798031,8.7303374 49.6192728,9.05509044 46.3761231,11.5980811 C39.0772096,17.3211724 31.8685414,23.1426158 24.4339216,28.6891635 C27.0396714,24.8023436 37.9497516,12.3116115 31.3292342,8.24511494 C26.9977283,5.58388365 18.2904733,13.9709306 15.4989561,16.5760385 C11.6612391,20.1574206 5.32984613,26.4399688 0.214221494,31.4055328 L0.404105842,22.1042368 C0.469369798,18.9073469 2.03858512,15.9271627 4.64069074,14.0583025 L21.4535935,1.98309542 C23.4756096,0.530861796 25.9608309,-0.13311827 28.4401789,0.116479617 L49.0557601,2.1918662 C52.2464001,2.5130704 55.0998105,4.31165551 56.7594291,7.04770618 L63.7217242,18.52576 C64.7123174,20.158854 65.2035127,22.001528 65.1939735,23.8429376 C64.4824591,24.3953632 63.9969614,24.7714717 63.9553904,24.8010638 Z M62.0628038,31.8783487 L55.337296,43.3240928 C53.9810868,45.6321451 51.7675603,47.3145482 49.1761646,48.0068951 L27.5106203,53.7953089 C24.9192247,54.4876557 22.1586041,54.1342024 19.8267066,52.8115067 L5.28499964,44.5631794 C3.26785042,43.4190148 1.74077529,41.6488368 0.889923947,39.5793796 C1.84259482,38.612685 2.68430068,37.7583405 2.79045411,37.6487297 C5.12762861,35.2361718 19.5800544,21.1352779 19.5800544,21.1352779 C19.5800544,21.1352779 12.8354092,33.9492757 12.2709056,35.1516964 C9.12190313,41.8576083 13.334643,48.3366279 19.8004077,42.5546658 C26.4575319,36.6017221 32.7280264,30.0753205 39.580286,24.3538719 C33.1545732,29.7190076 28.4011991,51.9775989 42.6656368,44.6725074 C49.4791508,41.1831769 55.7561958,36.4975307 62.0628038,31.8783491 L62.0628038,31.8783487 Z" id="Shape"></path>
                </g>
            </g>
        </g>
    </g>
</svg>