<?xml version="1.0" encoding="UTF-8"?>
<svg width="686px" height="82px" viewBox="0 0 686 82" version="1.1" xmlns="http://www.w3.org/2000/svg" xmlns:xlink="http://www.w3.org/1999/xlink">
    <!-- Generator: Sketch 52.6 (67491) - http://www.bohemiancoding.com/sketch -->
    <title>main horizontal</title>
    <desc>Created with Sketch.</desc>
    <g id="Page-1" stroke="none" stroke-width="1" fill="none" fill-rule="evenodd">
        <g id="mantra-systems" transform="translate(-2057.000000, -599.000000)" fill="#FFFFFF">
            <g id="dark" transform="translate(2056.000000, 160.000000)">
                <g id="main-horizontal" transform="translate(0.000000, 439.000000)">
                    <g id="emblem" transform="translate(1.000000, 0.000000)">
                        <path d="M95.5159853,37.1476804 C88.9002576,41.8707816 82.1932733,46.4940649 75.1704065,50.3917854 C63.5601766,56.8354696 64.6186096,46.1574111 70.7893669,38.691911 C74.6426045,34.0304877 82.0534541,28.2085035 81.7505539,21.5564979 C81.3644017,13.0765271 74.1053053,13.5629507 69.2617316,17.3719085 C58.360963,25.9441038 47.5949738,34.6636137 36.4915308,42.9713774 C40.3831614,37.1495973 56.6771291,18.4406529 46.7895301,12.3497483 C40.3205202,8.36368659 27.3164242,20.9260243 23.147354,24.8280229 C17.4158071,30.1923104 7.96000933,39.602475 0.319935144,47.0400263 L0.60352329,33.1083026 C0.70099359,28.3199174 3.04458256,23.8561197 6.93077073,21.0568922 L32.0404756,2.97033205 C35.0603126,0.795138646 38.7719367,-0.199388018 42.474789,0.174466209 L73.2637113,3.28303437 C78.0288627,3.76414241 82.2903692,6.4581101 84.7689735,10.5562382 L95.1670098,27.7483667 C96.6464392,30.1944574 97.3800288,32.9544625 97.3655726,35.712574 C96.3031508,36.5400114 95.5780706,37.1033565 95.5159853,37.1476804 Z M92.6894483,47.7482223 L82.6450486,64.8919564 C80.6195796,68.3490174 77.313726,70.8689646 73.4435328,71.9059798 L41.0865134,80.576017 C37.2163203,81.6130321 33.0933935,81.0836206 29.6107554,79.1024525 L7.89303207,66.7478927 C4.88046356,65.034133 2.59981005,62.3827143 1.32908207,59.2830273 C2.75187531,57.8350869 4.00894471,56.5554274 4.16748255,56.3912495 C7.65800186,52.7776574 29.2423856,31.6569706 29.2423856,31.6569706 C29.2423856,31.6569706 19.1694047,50.8501108 18.3263308,52.6511279 C13.623364,62.6954177 19.9149994,72.3998623 29.5714785,63.7394885 C39.5137487,54.8230142 48.878596,45.0475996 59.1122967,36.4778647 C49.5156344,44.5139048 42.4165734,77.8534036 63.7202011,66.9116469 C73.8960361,61.6852368 83.2706663,54.6669536 92.6894475,47.748223 L92.6894483,47.7482223 Z" id="Shape"></path>
                    </g>
                    <g id="text" transform="translate(118.000000, 8.000000)">
                        <g id="mantra">
                            <path d="M49.455,12 C54.0225228,12 57.4218638,13.3797939 59.653125,16.1394231 C61.8843862,18.8990523 63,23.1172793 63,28.7942308 L63,53 L51.10875,53 L51.10875,29.1884615 C51.10875,26.4025502 50.6625045,24.3919934 49.77,23.1567308 C48.8774955,21.9214682 47.4075102,21.3038462 45.36,21.3038462 C42.9449879,21.3038462 41.0812566,22.1448634 39.76875,23.8269231 C38.4562434,25.5089828 37.8,27.8743437 37.8,30.9230769 L37.8,53 L25.90875,53 L25.90875,29.1884615 C25.90875,26.4551145 25.4493796,24.4576986 24.530625,23.1961538 C23.6118704,21.9346091 22.15501,21.3038462 20.16,21.3038462 C17.7449879,21.3038462 15.8681317,22.1448634 14.529375,23.8269231 C13.1906183,25.5089828 12.52125,27.8743437 12.52125,30.9230769 L12.52125,53 L0.63,53 L0.63,24.4576923 C0.63,20.1999787 0.4200021,16.3891194 0,13.025 L11.1825,13.025 L11.89125,19.0173077 C13.098756,16.75704 14.7918641,15.0224419 16.970625,13.8134615 C19.1493859,12.6044811 21.6562358,12 24.49125,12 C30.4237797,12 34.3612403,14.4704881 36.30375,19.4115385 C37.6162566,17.1512708 39.4406133,15.3509682 41.776875,14.0105769 C44.1131367,12.6701856 46.6724861,12 49.455,12 Z" id="Path"></path>
                            <path d="M112,13.0094697 L112,52.3787879 L100.258912,52.3787879 L100.258912,46.5549242 C99.0506506,48.5738737 97.3433506,50.1527721 95.1369606,51.2916667 C92.9305706,52.4305613 90.435286,53 87.6510319,53 C84.1838476,53 81.1238407,52.1717255 78.4709193,50.5151515 C75.817998,48.8585776 73.7429718,46.49023 72.2457786,43.4100379 C70.7485854,40.3298457 70,36.7708535 70,32.7329545 C70,28.6950556 70.7485854,25.097238 72.2457786,21.9393939 C73.7429718,18.7815499 75.8311311,16.3355516 78.5103189,14.6013258 C81.1895068,12.8670999 84.2363807,12 87.6510319,12 C90.435286,12 92.9305706,12.5953223 95.1369606,13.7859848 C97.3433506,14.9766474 99.0506506,16.5814293 100.258912,18.6003788 L100.258912,13.0094697 L112,13.0094697 Z M91.0769231,44 C93.9487323,44 96.1538385,43.0190895 97.6923077,41.0572391 C99.2307769,39.0953886 100,36.2559108 100,32.5387205 C100,28.8215302 99.2307769,25.9691457 97.6923077,23.9814815 C96.1538385,21.9938172 93.9487323,21 91.0769231,21 C88.2051138,21 85.9743669,22.0325374 84.3846154,24.0976431 C82.7948638,26.1627488 82,29.02804 82,32.6936027 C82,36.3591654 82.7820435,39.159923 84.3461538,41.0959596 C85.9102642,43.0319962 88.1538315,44 91.0769231,44 Z" id="Combined-Shape"></path>
                            <path d="M145.988024,12 C155.329388,12 160,17.5980209 160,28.7942308 L160,53 L148.245509,53 L148.245509,29.3461538 C148.245509,26.5602425 147.739526,24.5234039 146.727545,23.2355769 C145.715564,21.94775 144.119771,21.3038462 141.94012,21.3038462 C139.345296,21.3038462 137.269469,22.1448634 135.712575,23.8269231 C134.155681,25.5089828 133.377246,27.7692166 133.377246,30.6076923 L133.377246,53 L121.622754,53 L121.622754,24.4576923 C121.622754,20.1999787 121.415172,16.3891194 121,13.025 L132.053892,13.025 L132.832335,19.3326923 C134.23354,16.9672959 136.062863,15.1538525 138.320359,13.8923077 C140.577856,12.6307629 143.133718,12 145.988024,12 Z" id="Path"></path>
                            <path d="M184.050532,21.8052709 L184.050532,37.0922401 C184.050532,39.2650182 184.616129,40.8557783 185.74734,41.8645681 C186.878552,42.8733579 188.343963,43.3777452 190.143617,43.3777452 C191.274828,43.3777452 192.560276,43.1966831 194,42.8345534 L194,51.9136164 C192.148927,52.6378758 189.912247,53 187.289894,53 C182.456536,53 178.7673,51.6291011 176.222074,48.8872621 C173.676849,46.1454231 172.404255,42.2913865 172.404255,37.3250366 L172.404255,21.8052709 L165,21.8052709 L165,13.0366032 L172.404255,13.0366032 L172.404255,3.80234261 L184.050532,0 L184.050532,13.0366032 L194,13.0366032 L194,21.8052709 L184.050532,21.8052709 Z" id="Path"></path>
                            <path d="M223.764706,12 C225.437917,12 226.849667,12.2633243 228,12.7899807 L227.921569,23.6917148 C225.986918,22.7963989 224.052297,22.3487476 222.117647,22.3487476 C218.980376,22.3487476 216.588244,23.2045515 214.941176,24.916185 C213.294109,26.6278184 212.470588,29.0109032 212.470588,32.0655106 L212.470588,53 L200.627451,53 L200.627451,24.4026975 C200.627451,20.1367802 200.418303,16.3185782 200,12.9479769 L211.137255,12.9479769 L211.921569,19.8208092 C212.915038,17.2928583 214.470578,15.3574248 216.588235,14.0144509 C218.705893,12.6714769 221.098026,12 223.764706,12 Z" id="Path"></path>
                            <path d="M272,13.0094697 L272,52.3787879 L260.258912,52.3787879 L260.258912,46.5549242 C259.050651,48.5738737 257.343351,50.1527721 255.136961,51.2916667 C252.930571,52.4305613 250.435286,53 247.651032,53 C244.183848,53 241.123841,52.1717255 238.470919,50.5151515 C235.817998,48.8585776 233.742972,46.49023 232.245779,43.4100379 C230.748585,40.3298457 230,36.7708535 230,32.7329545 C230,28.6950556 230.748585,25.097238 232.245779,21.9393939 C233.742972,18.7815499 235.831131,16.3355516 238.510319,14.6013258 C241.189507,12.8670999 244.236381,12 247.651032,12 C250.435286,12 252.930571,12.5953223 255.136961,13.7859848 C257.343351,14.9766474 259.050651,16.5814293 260.258912,18.6003788 L260.258912,13.0094697 L272,13.0094697 Z M251.076923,44 C253.948732,44 256.153838,43.0190895 257.692308,41.0572391 C259.230777,39.0953886 260,36.2559108 260,32.5387205 C260,28.8215302 259.230777,25.9691457 257.692308,23.9814815 C256.153838,21.9938172 253.948732,21 251.076923,21 C248.205114,21 245.974367,22.0325374 244.384615,24.0976431 C242.794864,26.1627488 242,29.02804 242,32.6936027 C242,36.3591654 242.782043,39.159923 244.346154,41.0959596 C245.910264,43.0319962 248.153832,44 251.076923,44 Z" id="Combined-Shape"></path>
                        </g>
                        <g id="systems" transform="translate(283.000000, 1.000000)">
                            <path d="M15.038961,53 C8.70126701,53 3.68833013,51.2391202 0,47.7173077 L1.71428571,44.0115385 C3.79221818,45.7461625 5.88310636,46.9814066 7.98701299,47.7173077 C10.0909196,48.4532088 12.5194668,48.8211538 15.2727273,48.8211538 C18.4935226,48.8211538 20.9480435,48.2560954 22.6363636,47.1259615 C24.3246838,45.9958277 25.1688312,44.3532159 25.1688312,42.1980769 C25.1688312,40.4108885 24.6103952,39.0048128 23.4935065,37.9798077 C22.3766178,36.9548026 20.5454673,36.1269262 18,35.4961538 L11.3766234,33.9980769 C8.25972468,33.2621758 5.80520377,31.9480864 4.01298701,30.0557692 C2.22077026,28.1634521 1.32467532,25.9557818 1.32467532,23.4326923 C1.32467532,19.9634442 2.63635052,17.1907155 5.25974026,15.1144231 C7.88313,13.0381306 11.3766016,12 15.7402597,12 C18.4935203,12 21.0519362,12.4467904 23.4155844,13.3403846 C25.7792326,14.2339788 27.7402519,15.5217865 29.2987013,17.2038462 L27.5064935,20.9096154 C23.92206,17.7557535 20.0000213,16.1788462 15.7402597,16.1788462 C12.7272577,16.1788462 10.3896187,16.7833273 8.72727273,17.9923077 C7.06492675,19.2012881 6.23376623,20.8833226 6.23376623,23.0384615 C6.23376623,24.82565 6.76622844,26.2711483 7.83116883,27.375 C8.89610922,28.4788517 10.5454434,29.2935871 12.7792208,29.8192308 L19.4805195,31.475 C26.4935416,33.051931 30,36.5474088 30,41.9615385 C30,45.2730935 28.6493642,47.940695 25.9480519,49.9644231 C23.2467397,51.9881511 19.6104125,53 15.038961,53 Z" id="Path"></path>
                            <path d="M74,12 L55.6979592,56.0576923 C53.8884263,60.4130254 51.6265442,63.613085 48.9122449,65.657967 C46.1979456,67.7028491 42.7986599,69.1501789 38.7142857,70 L37.7836735,66.1758242 C41.5061411,65.2728893 44.3108749,64.1044028 46.1979592,62.6703297 C48.0850434,61.2362566 49.6748235,58.9789531 50.9673469,55.8983516 L52.5959184,51.9945055 L36,12 L41.0408163,12 L55.077551,47.0549451 L69.1918367,12 L74,12 Z" id="Path"></path>
                            <path d="M94.038961,53 C87.701267,53 82.6883301,51.2391202 79,47.7173077 L80.7142857,44.0115385 C82.7922182,45.7461625 84.8831064,46.9814066 86.987013,47.7173077 C89.0909196,48.4532088 91.5194668,48.8211538 94.2727273,48.8211538 C97.4935226,48.8211538 99.9480435,48.2560954 101.636364,47.1259615 C103.324684,45.9958277 104.168831,44.3532159 104.168831,42.1980769 C104.168831,40.4108885 103.610395,39.0048128 102.493506,37.9798077 C101.376618,36.9548026 99.5454673,36.1269262 97,35.4961538 L90.3766234,33.9980769 C87.2597247,33.2621758 84.8052038,31.9480864 83.012987,30.0557692 C81.2207703,28.1634521 80.3246753,25.9557818 80.3246753,23.4326923 C80.3246753,19.9634442 81.6363505,17.1907155 84.2597403,15.1144231 C86.88313,13.0381306 90.3766016,12 94.7402597,12 C97.4935203,12 100.051936,12.4467904 102.415584,13.3403846 C104.779233,14.2339788 106.740252,15.5217865 108.298701,17.2038462 L106.506494,20.9096154 C102.92206,17.7557535 99.0000213,16.1788462 94.7402597,16.1788462 C91.7272577,16.1788462 89.3896187,16.7833273 87.7272727,17.9923077 C86.0649268,19.2012881 85.2337662,20.8833226 85.2337662,23.0384615 C85.2337662,24.82565 85.7662284,26.2711483 86.8311688,27.375 C87.8961092,28.4788517 89.5454434,29.2935871 91.7792208,29.8192308 L98.4805195,31.475 C105.493542,33.051931 109,36.5474088 109,41.9615385 C109,45.2730935 107.649364,47.940695 104.948052,49.9644231 C102.24674,51.9881511 98.6104125,53 94.038961,53 Z" id="Path"></path>
                            <path d="M127.467532,16.387632 L127.467532,40.2096531 C127.467532,43.4072558 128.064929,45.6188978 129.25974,46.8446456 C130.454551,48.0703933 132.220768,48.6832579 134.558442,48.6832579 C136.012994,48.6832579 137.415578,48.4434413 138.766234,47.9638009 L138.766234,52.3604827 C137.103888,52.7868297 135.415593,53 133.701299,53 C130.27271,53 127.584425,52.0140873 125.636364,50.0422323 C123.688302,48.0703773 122.714286,45.1126391 122.714286,41.1689291 L122.714286,16.387632 L115,16.387632 L115,12.4705882 L122.714286,12.4705882 L122.714286,1.83861237 L127.467532,0 L127.467532,12.4705882 L139,12.4705882 L139,16.387632 L127.467532,16.387632 Z" id="Path"></path>
                            <path d="M150.045045,32.1057692 L150.045045,32.3423077 C150.045045,37.6513086 151.26688,41.7118449 153.710586,44.5240385 C156.154291,47.336232 159.714691,48.7423077 164.391892,48.7423077 C169.121645,48.7423077 173.457188,47.1128368 177.398649,43.8538462 L179.290541,47.6384615 C177.556298,49.2679569 175.349113,50.5689054 172.668919,51.5413462 C169.988725,52.5137869 167.229744,53 164.391892,53 C158.400871,53 153.671189,51.1865566 150.202703,47.5596154 C146.734217,43.9326742 145,38.9391344 145,32.5788462 C145,28.53139 145.775142,24.9439259 147.32545,21.8163462 C148.875759,18.6887664 151.04353,16.2708419 153.828829,14.5625 C156.614128,12.8541581 159.819802,12 163.445946,12 C168.648675,12 172.708319,13.6820345 175.625,17.0461538 C178.541681,20.4102732 180,25.0884316 180,31.0807692 L180,32.1057692 L150.045045,32.1057692 Z M163.050314,16 C159.433944,16 156.498963,17.0506224 154.245283,19.1518987 C151.991603,21.2531751 150.576523,24.2025127 150,28 L175,28 C174.685533,24.1012463 173.5063,21.1265925 171.462264,19.0759494 C169.418229,17.0253062 166.614274,16 163.050314,16 Z" id="Combined-Shape"></path>
                            <path d="M231.980392,11 C240.660174,11 245,16.1682394 245,26.5048733 L245,52 L240.215686,52 L240.215686,26.8245614 C240.215686,22.7751584 239.509811,19.8313932 238.098039,17.9931774 C236.686267,16.1549616 234.437924,15.2358674 231.352941,15.2358674 C227.74508,15.2358674 224.908507,16.4613263 222.843137,18.9122807 C220.777767,21.3632351 219.745098,24.6932863 219.745098,28.9025341 L219.745098,52 L214.960784,52 L214.960784,26.8245614 C214.960784,22.7751584 214.241837,19.8313932 212.803922,17.9931774 C211.366006,16.1549616 209.104591,15.2358674 206.019608,15.2358674 C202.464035,15.2358674 199.627462,16.4613263 197.509804,18.9122807 C195.392146,21.3632351 194.333333,24.6932863 194.333333,28.9025341 L194.333333,52 L189.627451,52 L189.627451,23.0682261 C189.627451,18.9122599 189.418303,15.209243 189,11.9590643 L193.54902,11.9590643 L194.176471,19.1520468 C195.274515,16.4879659 196.908486,14.4632948 199.078431,13.0779727 C201.248377,11.6926506 203.771227,11 206.647059,11 C212.973888,11 217.026135,13.6107601 218.803922,18.8323587 C219.901966,16.3814042 221.614367,14.4632948 223.941176,13.0779727 C226.267985,11.6926506 228.947697,11 231.980392,11 Z" id="Path"></path>
                            <path d="M271.038961,53 C264.701267,53 259.68833,51.2391202 256,47.7173077 L257.714286,44.0115385 C259.792218,45.7461625 261.883106,46.9814066 263.987013,47.7173077 C266.09092,48.4532088 268.519467,48.8211538 271.272727,48.8211538 C274.493523,48.8211538 276.948044,48.2560954 278.636364,47.1259615 C280.324684,45.9958277 281.168831,44.3532159 281.168831,42.1980769 C281.168831,40.4108885 280.610395,39.0048128 279.493506,37.9798077 C278.376618,36.9548026 276.545467,36.1269262 274,35.4961538 L267.376623,33.9980769 C264.259725,33.2621758 261.805204,31.9480864 260.012987,30.0557692 C258.22077,28.1634521 257.324675,25.9557818 257.324675,23.4326923 C257.324675,19.9634442 258.636351,17.1907155 261.25974,15.1144231 C263.88313,13.0381306 267.376602,12 271.74026,12 C274.49352,12 277.051936,12.4467904 279.415584,13.3403846 C281.779233,14.2339788 283.740252,15.5217865 285.298701,17.2038462 L283.506494,20.9096154 C279.92206,17.7557535 276.000021,16.1788462 271.74026,16.1788462 C268.727258,16.1788462 266.389619,16.7833273 264.727273,17.9923077 C263.064927,19.2012881 262.233766,20.8833226 262.233766,23.0384615 C262.233766,24.82565 262.766228,26.2711483 263.831169,27.375 C264.896109,28.4788517 266.545443,29.2935871 268.779221,29.8192308 L275.480519,31.475 C282.493542,33.051931 286,36.5474088 286,41.9615385 C286,45.2730935 284.649364,47.940695 281.948052,49.9644231 C279.24674,51.9881511 275.610412,53 271.038961,53 Z" id="Path"></path>
                        </g>
                    </g>
                </g>
            </g>
        </g>
    </g>
</svg>