<?xml version="1.0" encoding="UTF-8"?>
<svg width="310px" height="62px" viewBox="0 0 310 62" version="1.1" xmlns="http://www.w3.org/2000/svg" xmlns:xlink="http://www.w3.org/1999/xlink">
    <title>normal</title>
    <g id="Welcome" stroke="none" stroke-width="1" fill="none" fill-rule="evenodd">
        <g id="Artboard" transform="translate(-52, -230)">
            <g id="normal" transform="translate(52, 230)">
                <g id="strap" transform="translate(54, 41)">
                    <rect id="Rectangle" fill="#E74B00" x="0" y="0" width="256" height="21" rx="3"></rect>
                    <g id="MDR-&amp;-IVDR-Consultin-Copy" transform="translate(9.9638, 6.4538)" fill="#FFFFFF" fill-rule="nonzero">
                        <polygon id="Path" points="7.198 0.1098 8.4424 0.1098 8.4424 8.7962 7.0516 8.7962 7.0516 3.4038 4.7458 8.7962 3.7088 8.7962 1.3908 3.4648 1.3908 8.7962 0 8.7962 0 0.1098 1.2444 0.1098 4.2334 6.9052"></polygon>
                        <path d="M10.3456,0.1098 L13.542,0.1098 C14.9653333,0.1098 16.0694333,0.488 16.8543,1.2444 C17.6391667,2.0008 18.0316,3.06626667 18.0316,4.4408 C18.0316,5.82346667 17.6391667,6.89503333 16.8543,7.6555 C16.0694333,8.41596667 14.9653333,8.7962 13.542,8.7962 L10.3456,8.7962 L10.3456,0.1098 Z M13.4444,7.5152 C15.4452,7.5152 16.4456,6.4904 16.4456,4.4408 C16.4456,2.40746667 15.4452,1.3908 13.4444,1.3908 L11.9194,1.3908 L11.9194,7.5152 L13.4444,7.5152 Z" id="Shape"></path>
                        <path d="M26.7912,8.7962 L25.132,8.7962 L24.0218,5.9048 C23.9242,5.6364 23.7737333,5.44933333 23.5704,5.3436 C23.3670667,5.23786667 23.1027333,5.185 22.7774,5.185 L21.2036,5.185 L21.2036,8.7962 L19.642,8.7962 L19.642,0.1098 L23.363,0.1098 C24.3471333,0.1098 25.0954,0.325333333 25.6078,0.7564 C26.1202,1.18746667 26.3764,1.8056 26.3764,2.6108 C26.3764,3.18826667 26.2239,3.6783 25.9189,4.0809 C25.6139,4.4835 25.1808,4.7702 24.6196,4.941 C25.132,5.04673333 25.5020667,5.4046 25.7298,6.0146 L26.7912,8.7962 Z M23.1434,3.965 C23.7371333,3.965 24.1763333,3.8552 24.461,3.6356 C24.7456667,3.416 24.888,3.08253333 24.888,2.6352 C24.888,2.196 24.7477,1.86863333 24.4671,1.6531 C24.1865,1.43756667 23.7452667,1.3298 23.1434,1.3298 L21.1792,1.3298 L21.1792,3.965 L23.1434,3.965 Z" id="Shape"></path>
                        <path d="M38.491,8.906 C37.7915333,8.662 37.1896667,8.31226667 36.6854,7.8568 C35.929,8.54813333 35.0587333,8.8938 34.0746,8.8938 C33.489,8.8938 32.9705,8.79416667 32.5191,8.5949 C32.0677,8.39563333 31.7179667,8.11706667 31.4699,7.7592 C31.2218333,7.40133333 31.0978,6.9906 31.0978,6.527 C31.0978,5.99833333 31.2442,5.53066667 31.537,5.124 C31.8298,4.71733333 32.2974667,4.33506667 32.94,3.9772 C32.6146667,3.61933333 32.3788,3.28993333 32.2324,2.989 C32.086,2.68806667 32.0128,2.379 32.0128,2.0618 C32.0128,1.4518 32.2324,0.959733333 32.6716,0.5856 C33.1108,0.211466667 33.6842,0.0244 34.3918,0.0244 C35.0424667,0.0244 35.563,0.1952 35.9534,0.5368 C36.3438,0.8784 36.539,1.33386667 36.539,1.9032 C36.539,2.3424 36.4109,2.74093333 36.1547,3.0988 C35.8985,3.45666667 35.4776,3.8064 34.892,4.148 L36.6122,5.9292 C36.9538,5.23786667 37.1408667,4.453 37.1734,3.5746 L38.4666,3.5746 C38.4096667,4.8434 38.0924667,5.93733333 37.515,6.8564 C37.9948667,7.30373333 38.5723333,7.6372 39.2474,7.8568 L38.491,8.906 Z M34.404,1.0736 C34.1030667,1.0736 33.8611,1.16306667 33.6781,1.342 C33.4951,1.52093333 33.4036,1.76086667 33.4036,2.0618 C33.4036,2.24886667 33.4544333,2.43186667 33.5561,2.6108 C33.6577667,2.78973333 33.8468667,3.03373333 34.1234,3.3428 C34.5544667,3.09066667 34.8574333,2.8609 35.0323,2.6535 C35.2071667,2.4461 35.2946,2.21633333 35.2946,1.9642 C35.2946,1.6958 35.2132667,1.48026667 35.0506,1.3176 C34.8879333,1.15493333 34.6724,1.0736 34.404,1.0736 Z M32.5862,6.4416 C32.5862,6.832 32.7244667,7.14106667 33.001,7.3688 C33.2775333,7.59653333 33.6516667,7.7104 34.1234,7.7104 C34.7578,7.7104 35.3312,7.47453333 35.8436,7.0028 L33.7086,4.7946 C33.3182,5.0386 33.0335333,5.29073333 32.8546,5.551 C32.6756667,5.81126667 32.5862,6.10813333 32.5862,6.4416 Z" id="Shape"></path>
                        <polygon id="Path" points="43.2856 8.7962 43.2856 0.1098 44.8594 0.1098 44.8594 8.7962"></polygon>
                        <polygon id="Path" points="53.1066 0.1098 54.7048 0.1098 50.8374 8.7962 49.5564 8.7962 45.689 0.1098 47.3238 0.1098 50.2152 6.8198"></polygon>
                        <path d="M55.5344,0.1098 L58.7308,0.1098 C60.1541333,0.1098 61.2582333,0.488 62.0431,1.2444 C62.8279667,2.0008 63.2204,3.06626667 63.2204,4.4408 C63.2204,5.82346667 62.8279667,6.89503333 62.0431,7.6555 C61.2582333,8.41596667 60.1541333,8.7962 58.7308,8.7962 L55.5344,8.7962 L55.5344,0.1098 Z M58.6332,7.5152 C60.634,7.5152 61.6344,6.4904 61.6344,4.4408 C61.6344,2.40746667 60.634,1.3908 58.6332,1.3908 L57.1082,1.3908 L57.1082,7.5152 L58.6332,7.5152 Z" id="Shape"></path>
                        <path d="M71.98,8.7962 L70.3208,8.7962 L69.2106,5.9048 C69.113,5.6364 68.9625333,5.44933333 68.7592,5.3436 C68.5558667,5.23786667 68.2915333,5.185 67.9662,5.185 L66.3924,5.185 L66.3924,8.7962 L64.8308,8.7962 L64.8308,0.1098 L68.5518,0.1098 C69.5359333,0.1098 70.2842,0.325333333 70.7966,0.7564 C71.309,1.18746667 71.5652,1.8056 71.5652,2.6108 C71.5652,3.18826667 71.4127,3.6783 71.1077,4.0809 C70.8027,4.4835 70.3696,4.7702 69.8084,4.941 C70.3208,5.04673333 70.6908667,5.4046 70.9186,6.0146 L71.98,8.7962 Z M68.3322,3.965 C68.9259333,3.965 69.3651333,3.8552 69.6498,3.6356 C69.9344667,3.416 70.0768,3.08253333 70.0768,2.6352 C70.0768,2.196 69.9365,1.86863333 69.6559,1.6531 C69.3753,1.43756667 68.9340667,1.3298 68.3322,1.3298 L66.368,1.3298 L66.368,3.965 L68.3322,3.965 Z" id="Shape"></path>
                        <path d="M80.6786,8.906 C79.8246,8.906 79.0783667,8.723 78.4399,8.357 C77.8014333,7.991 77.3114,7.4725 76.9698,6.8015 C76.6282,6.1305 76.4574,5.3436 76.4574,4.4408 C76.4574,3.54613333 76.6282,2.7633 76.9698,2.0923 C77.3114,1.4213 77.8014333,0.904833333 78.4399,0.5429 C79.0783667,0.180966667 79.8246,0 80.6786,0 C81.2642,0 81.8152333,0.0915 82.3317,0.2745 C82.8481667,0.4575 83.2772,0.711666667 83.6188,1.037 L83.1064,2.1838 C82.716,1.8666 82.3276333,1.63683333 81.9413,1.4945 C81.5549667,1.35216667 81.1422,1.281 80.703,1.281 C79.8652667,1.281 79.2166333,1.55346667 78.7571,2.0984 C78.2975667,2.64333333 78.0678,3.42413333 78.0678,4.4408 C78.0678,5.4656 78.2955333,6.2525 78.751,6.8015 C79.2064667,7.3505 79.8571333,7.625 80.703,7.625 C81.1422,7.625 81.5549667,7.55383333 81.9413,7.4115 C82.3276333,7.26916667 82.716,7.0394 83.1064,6.7222 L83.6188,7.869 C83.2772,8.19433333 82.8481667,8.4485 82.3317,8.6315 C81.8152333,8.8145 81.2642,8.906 80.6786,8.906 Z" id="Path"></path>
                        <path d="M88.9502,8.906 C88.1124667,8.906 87.3825,8.72503333 86.7603,8.3631 C86.1381,8.00116667 85.6582333,7.4847 85.3207,6.8137 C84.9831667,6.1427 84.8144,5.35173333 84.8144,4.4408 C84.8144,3.538 84.9811333,2.7511 85.3146,2.0801 C85.6480667,1.4091 86.1259,0.894666667 86.7481,0.5368 C87.3703,0.178933333 88.1043333,0 88.9502,0 C89.7960667,0 90.5301,0.178933333 91.1523,0.5368 C91.7745,0.894666667 92.2503,1.4091 92.5797,2.0801 C92.9091,2.7511 93.0738,3.538 93.0738,4.4408 C93.0738,5.35173333 92.9070667,6.1427 92.5736,6.8137 C92.2401333,7.4847 91.7643333,8.00116667 91.1462,8.3631 C90.5280667,8.72503333 89.7960667,8.906 88.9502,8.906 Z M88.9502,7.6494 C89.7554,7.6494 90.3816667,7.37286667 90.829,6.8198 C91.2763333,6.26673333 91.5,5.47373333 91.5,4.4408 C91.5,3.416 91.2763333,2.6291 90.829,2.0801 C90.3816667,1.5311 89.7554,1.2566 88.9502,1.2566 C88.145,1.2566 87.5187333,1.52906667 87.0714,2.074 C86.6240667,2.61893333 86.4004,3.40786667 86.4004,4.4408 C86.4004,5.47373333 86.6240667,6.26673333 87.0714,6.8198 C87.5187333,7.37286667 88.145,7.6494 88.9502,7.6494 Z" id="Shape"></path>
                        <polygon id="Path" points="100.528 0.1098 102.0042 0.1098 102.0042 8.7962 100.833 8.7962 96.1482 2.7084 96.1482 8.7962 94.6842 8.7962 94.6842 0.1098 95.8554 0.1098 100.528 6.1854"></polygon>
                        <path d="M106.8354,8.906 C106.168467,8.906 105.544233,8.81653333 104.9627,8.6376 C104.381167,8.45866667 103.887067,8.20246667 103.4804,7.869 L104.0172,6.7222 C104.440133,7.0394 104.881367,7.27323333 105.3409,7.4237 C105.800433,7.57416667 106.302667,7.6494 106.8476,7.6494 C107.449467,7.6494 107.9151,7.54366667 108.2445,7.3322 C108.5739,7.12073333 108.7386,6.82386667 108.7386,6.4416 C108.7386,6.11626667 108.5861,5.86616667 108.2811,5.6913 C107.9761,5.51643333 107.473867,5.35173333 106.7744,5.1972 C105.684533,4.96133333 104.891533,4.65633333 104.3954,4.2822 C103.899267,3.90806667 103.6512,3.36313333 103.6512,2.6474 C103.6512,2.135 103.789467,1.67953333 104.066,1.281 C104.342533,0.882466667 104.734967,0.569333333 105.2433,0.3416 C105.751633,0.113866667 106.339267,0 107.0062,0 C107.6162,0 108.1957,0.0915 108.7447,0.2745 C109.2937,0.4575 109.743067,0.711666667 110.0928,1.037 L109.5682,2.1838 C108.795533,1.56566667 107.941533,1.2566 107.0062,1.2566 C106.445,1.2566 106.001733,1.3725 105.6764,1.6043 C105.351067,1.8361 105.1884,2.15126667 105.1884,2.5498 C105.1884,2.8914 105.332767,3.15166667 105.6215,3.3306 C105.910233,3.50953333 106.404333,3.67626667 107.1038,3.8308 C107.827667,4.0016 108.417333,4.18663333 108.8728,4.3859 C109.328267,4.58516667 109.678,4.84136667 109.922,5.1545 C110.166,5.46763333 110.288,5.86006667 110.288,6.3318 C110.288,6.85233333 110.149733,7.30576667 109.8732,7.6921 C109.596667,8.07843333 109.198133,8.37733333 108.6776,8.5888 C108.157067,8.80026667 107.543,8.906 106.8354,8.906 Z" id="Path"></path>
                        <path d="M115.3388,8.906 C114.1432,8.906 113.238367,8.59896667 112.6243,7.9849 C112.010233,7.37083333 111.7032,6.47006667 111.7032,5.2826 L111.7032,0.1098 L113.2526,0.1098 L113.2526,5.368 C113.2526,6.11626667 113.427467,6.68356667 113.7772,7.0699 C114.126933,7.45623333 114.647467,7.6494 115.3388,7.6494 C116.013867,7.6494 116.5283,7.4542 116.8821,7.0638 C117.2359,6.6734 117.4128,6.10813333 117.4128,5.368 L117.4128,0.1098 L118.9622,0.1098 L118.9622,5.2826 C118.9622,6.46193333 118.653133,7.36066667 118.035,7.9788 C117.416867,8.59693333 116.518133,8.906 115.3388,8.906 Z" id="Path"></path>
                        <polygon id="Path" points="120.78 8.7962 120.78 0.1098 122.3538 0.1098 122.3538 7.503 126.4164 7.503 126.4164 8.7962"></polygon>
                        <polygon id="Path" points="129.6494 8.7962 129.6494 1.403 126.819 1.403 126.819 0.1098 134.078 0.1098 134.078 1.403 131.2354 1.403 131.2354 8.7962"></polygon>
                        <polygon id="Path" points="135.1638 8.7962 135.1638 0.1098 136.7376 0.1098 136.7376 8.7962"></polygon>
                        <polygon id="Path" points="144.4602 0.1098 145.9364 0.1098 145.9364 8.7962 144.7652 8.7962 140.0804 2.7084 140.0804 8.7962 138.6164 8.7962 138.6164 0.1098 139.7876 0.1098 144.4602 6.1854"></polygon>
                        <path d="M155.0742,4.0992 L155.0742,8.2716 C154.675667,8.4668 154.1958,8.62133333 153.6346,8.7352 C153.0734,8.84906667 152.5,8.906 151.9144,8.906 C151.019733,8.906 150.243,8.72706667 149.5842,8.3692 C148.9254,8.01133333 148.421133,7.49893333 148.0714,6.832 C147.721667,6.16506667 147.5468,5.368 147.5468,4.4408 C147.5468,3.52986667 147.721667,2.74093333 148.0714,2.074 C148.421133,1.40706667 148.9193,0.894666667 149.5659,0.5368 C150.2125,0.178933333 150.970933,0 151.8412,0 C152.4512,0 153.022567,0.0894666667 153.5553,0.2684 C154.088033,0.447333333 154.533333,0.699466667 154.8912,1.0248 L154.3544,2.1716 C153.947733,1.8544 153.5492,1.62666667 153.1588,1.4884 C152.7684,1.35013333 152.3414,1.281 151.8778,1.281 C150.983133,1.281 150.306033,1.5494 149.8465,2.0862 C149.386967,2.623 149.1572,3.40786667 149.1572,4.4408 C149.1572,5.50626667 149.393067,6.30943333 149.8648,6.8503 C150.336533,7.39116667 151.040067,7.6616 151.9754,7.6616 C152.544733,7.6616 153.105933,7.58433333 153.659,7.4298 L153.659,5.2338 L151.7802,5.2338 L151.7802,4.0992 L155.0742,4.0992 Z" id="Path"></path>
                        <path d="M163.1262,8.906 C162.459267,8.906 161.835033,8.81653333 161.2535,8.6376 C160.671967,8.45866667 160.177867,8.20246667 159.7712,7.869 L160.308,6.7222 C160.730933,7.0394 161.172167,7.27323333 161.6317,7.4237 C162.091233,7.57416667 162.593467,7.6494 163.1384,7.6494 C163.740267,7.6494 164.2059,7.54366667 164.5353,7.3322 C164.8647,7.12073333 165.0294,6.82386667 165.0294,6.4416 C165.0294,6.11626667 164.8769,5.86616667 164.5719,5.6913 C164.2669,5.51643333 163.764667,5.35173333 163.0652,5.1972 C161.975333,4.96133333 161.182333,4.65633333 160.6862,4.2822 C160.190067,3.90806667 159.942,3.36313333 159.942,2.6474 C159.942,2.135 160.080267,1.67953333 160.3568,1.281 C160.633333,0.882466667 161.025767,0.569333333 161.5341,0.3416 C162.042433,0.113866667 162.630067,0 163.297,0 C163.907,0 164.4865,0.0915 165.0355,0.2745 C165.5845,0.4575 166.033867,0.711666667 166.3836,1.037 L165.859,2.1838 C165.086333,1.56566667 164.232333,1.2566 163.297,1.2566 C162.7358,1.2566 162.292533,1.3725 161.9672,1.6043 C161.641867,1.8361 161.4792,2.15126667 161.4792,2.5498 C161.4792,2.8914 161.623567,3.15166667 161.9123,3.3306 C162.201033,3.50953333 162.695133,3.67626667 163.3946,3.8308 C164.118467,4.0016 164.708133,4.18663333 165.1636,4.3859 C165.619067,4.58516667 165.9688,4.84136667 166.2128,5.1545 C166.4568,5.46763333 166.5788,5.86006667 166.5788,6.3318 C166.5788,6.85233333 166.440533,7.30576667 166.164,7.6921 C165.887467,8.07843333 165.488933,8.37733333 164.9684,8.5888 C164.447867,8.80026667 163.8338,8.906 163.1262,8.906 Z" id="Path"></path>
                        <path d="M168.0428,0.1098 L171.8126,0.1098 C172.747933,0.1098 173.475867,0.3355 173.9964,0.7869 C174.516933,1.2383 174.7772,1.8544 174.7772,2.6352 C174.7772,3.416 174.5149,4.03413333 173.9903,4.4896 C173.4657,4.94506667 172.7398,5.1728 171.8126,5.1728 L169.6166,5.1728 L169.6166,8.7962 L168.0428,8.7962 L168.0428,0.1098 Z M171.6296,3.9528 C172.174533,3.9528 172.5873,3.84096667 172.8679,3.6173 C173.1485,3.39363333 173.2888,3.07033333 173.2888,2.6474 C173.2888,2.21633333 173.150533,1.88896667 172.874,1.6653 C172.597467,1.44163333 172.182667,1.3298 171.6296,1.3298 L169.6166,1.3298 L169.6166,3.9528 L171.6296,3.9528 Z" id="Shape"></path>
                        <polygon id="Path" points="176.168 8.7962 176.168 0.1098 181.9752 0.1098 181.9752 1.3542 177.7052 1.3542 177.7052 3.7576 181.719 3.7576 181.719 5.002 177.7052 5.002 177.7052 7.5518 181.9752 7.5518 181.9752 8.7962"></polygon>
                        <path d="M187.3676,8.906 C186.5136,8.906 185.767367,8.723 185.1289,8.357 C184.490433,7.991 184.0004,7.4725 183.6588,6.8015 C183.3172,6.1305 183.1464,5.3436 183.1464,4.4408 C183.1464,3.54613333 183.3172,2.7633 183.6588,2.0923 C184.0004,1.4213 184.490433,0.904833333 185.1289,0.5429 C185.767367,0.180966667 186.5136,0 187.3676,0 C187.9532,0 188.504233,0.0915 189.0207,0.2745 C189.537167,0.4575 189.9662,0.711666667 190.3078,1.037 L189.7954,2.1838 C189.405,1.8666 189.016633,1.63683333 188.6303,1.4945 C188.243967,1.35216667 187.8312,1.281 187.392,1.281 C186.554267,1.281 185.905633,1.55346667 185.4461,2.0984 C184.986567,2.64333333 184.7568,3.42413333 184.7568,4.4408 C184.7568,5.4656 184.984533,6.2525 185.44,6.8015 C185.895467,7.3505 186.546133,7.625 187.392,7.625 C187.8312,7.625 188.243967,7.55383333 188.6303,7.4115 C189.016633,7.26916667 189.405,7.0394 189.7954,6.7222 L190.3078,7.869 C189.9662,8.19433333 189.537167,8.4485 189.0207,8.6315 C188.504233,8.8145 187.9532,8.906 187.3676,8.906 Z" id="Path"></path>
                        <polygon id="Path" points="191.784 8.7962 191.784 0.1098 193.3578 0.1098 193.3578 8.7962"></polygon>
                        <path d="M201.8734,8.7962 L201.0072,6.7588 L196.7616,6.7588 L195.8832,8.7962 L194.2972,8.7962 L198.2256,0.1098 L199.5066,0.1098 L203.4472,8.7962 L201.8734,8.7962 Z M197.2862,5.5388 L200.4826,5.5388 L198.8844,1.8178 L197.2862,5.5388 Z" id="Shape"></path>
                        <polygon id="Path" points="204.3866 8.7962 204.3866 0.1098 205.9604 0.1098 205.9604 7.503 210.023 7.503 210.023 8.7962"></polygon>
                        <polygon id="Path" points="211.2186 8.7962 211.2186 0.1098 212.7924 0.1098 212.7924 8.7962"></polygon>
                        <path d="M217.6114,8.906 C216.944467,8.906 216.320233,8.81653333 215.7387,8.6376 C215.157167,8.45866667 214.663067,8.20246667 214.2564,7.869 L214.7932,6.7222 C215.216133,7.0394 215.657367,7.27323333 216.1169,7.4237 C216.576433,7.57416667 217.078667,7.6494 217.6236,7.6494 C218.225467,7.6494 218.6911,7.54366667 219.0205,7.3322 C219.3499,7.12073333 219.5146,6.82386667 219.5146,6.4416 C219.5146,6.11626667 219.3621,5.86616667 219.0571,5.6913 C218.7521,5.51643333 218.249867,5.35173333 217.5504,5.1972 C216.460533,4.96133333 215.667533,4.65633333 215.1714,4.2822 C214.675267,3.90806667 214.4272,3.36313333 214.4272,2.6474 C214.4272,2.135 214.565467,1.67953333 214.842,1.281 C215.118533,0.882466667 215.510967,0.569333333 216.0193,0.3416 C216.527633,0.113866667 217.115267,0 217.7822,0 C218.3922,0 218.9717,0.0915 219.5207,0.2745 C220.0697,0.4575 220.519067,0.711666667 220.8688,1.037 L220.3442,2.1838 C219.571533,1.56566667 218.717533,1.2566 217.7822,1.2566 C217.221,1.2566 216.777733,1.3725 216.4524,1.6043 C216.127067,1.8361 215.9644,2.15126667 215.9644,2.5498 C215.9644,2.8914 216.108767,3.15166667 216.3975,3.3306 C216.686233,3.50953333 217.180333,3.67626667 217.8798,3.8308 C218.603667,4.0016 219.193333,4.18663333 219.6488,4.3859 C220.104267,4.58516667 220.454,4.84136667 220.698,5.1545 C220.942,5.46763333 221.064,5.86006667 221.064,6.3318 C221.064,6.85233333 220.925733,7.30576667 220.6492,7.6921 C220.372667,8.07843333 219.974133,8.37733333 219.4536,8.5888 C218.933067,8.80026667 218.319,8.906 217.6114,8.906 Z" id="Path"></path>
                        <polygon id="Path" points="224.5654 8.7962 224.5654 1.403 221.735 1.403 221.735 0.1098 228.994 0.1098 228.994 1.403 226.1514 1.403 226.1514 8.7962"></polygon>
                        <path d="M233.02,8.906 C232.353067,8.906 231.728833,8.81653333 231.1473,8.6376 C230.565767,8.45866667 230.071667,8.20246667 229.665,7.869 L230.2018,6.7222 C230.624733,7.0394 231.065967,7.27323333 231.5255,7.4237 C231.985033,7.57416667 232.487267,7.6494 233.0322,7.6494 C233.634067,7.6494 234.0997,7.54366667 234.4291,7.3322 C234.7585,7.12073333 234.9232,6.82386667 234.9232,6.4416 C234.9232,6.11626667 234.7707,5.86616667 234.4657,5.6913 C234.1607,5.51643333 233.658467,5.35173333 232.959,5.1972 C231.869133,4.96133333 231.076133,4.65633333 230.58,4.2822 C230.083867,3.90806667 229.8358,3.36313333 229.8358,2.6474 C229.8358,2.135 229.974067,1.67953333 230.2506,1.281 C230.527133,0.882466667 230.919567,0.569333333 231.4279,0.3416 C231.936233,0.113866667 232.523867,0 233.1908,0 C233.8008,0 234.3803,0.0915 234.9293,0.2745 C235.4783,0.4575 235.927667,0.711666667 236.2774,1.037 L235.7528,2.1838 C234.980133,1.56566667 234.126133,1.2566 233.1908,1.2566 C232.6296,1.2566 232.186333,1.3725 231.861,1.6043 C231.535667,1.8361 231.373,2.15126667 231.373,2.5498 C231.373,2.8914 231.517367,3.15166667 231.8061,3.3306 C232.094833,3.50953333 232.588933,3.67626667 233.2884,3.8308 C234.012267,4.0016 234.601933,4.18663333 235.0574,4.3859 C235.512867,4.58516667 235.8626,4.84136667 236.1066,5.1545 C236.3506,5.46763333 236.4726,5.86006667 236.4726,6.3318 C236.4726,6.85233333 236.334333,7.30576667 236.0578,7.6921 C235.781267,8.07843333 235.382733,8.37733333 234.8622,8.5888 C234.341667,8.80026667 233.7276,8.906 233.02,8.906 Z" id="Path"></path>
                    </g>
                </g>
                <g id="main-horizontal">
                    <g id="emblem" transform="translate(1.1439, 1.1439)" fill="#E74B00">
                        <path d="M42.6399869,16.7440716 C39.676686,18.8785734 36.6725097,20.9679648 33.526844,22.729454 C28.3264176,25.6415355 28.8005084,20.8158215 31.5644992,17.4419527 C33.2904322,15.3353248 36.6098822,12.7042069 36.4742079,9.69797905 C36.3012435,5.86564251 33.0497664,6.08547096 30.8802445,7.80684577 C25.9975983,11.6808612 21.1753222,15.6214522 16.2018946,19.3759636 C17.9450244,16.7449379 25.2433794,8.28984134 20.8145498,5.53719076 C17.9169663,3.73577774 12.0922028,9.4130504 10.2248028,11.1764729 C7.65754205,13.6007449 3.42212374,17.8534621 0,21.2147001 L0.127024124,14.9185635 C0.170682787,12.754558 1.22041755,10.7372427 2.96110966,9.47219326 L14.2081885,1.2983696 C15.5608267,0.315338713 17.2233285,-0.134115771 18.8819012,0.0348394364 L32.6728016,1.43968855 C34.8071969,1.65711476 36.7160006,2.8745943 37.8262111,4.72665327 L42.4836747,12.4962582 C43.1463372,13.6017152 43.4749248,14.8490389 43.4685435,16.0955068 C42.9925722,16.4694489 42.667796,16.7240404 42.6399869,16.7440716 Z M41.3739313,21.5347537 L36.8748678,29.2824878 C35.9676245,30.8448306 34.4868745,31.9836654 32.7533469,32.4523216 L18.2600682,36.3705546 C16.5265405,36.8392108 14.679809,36.5999548 13.1198741,35.7046094 L3.39212345,30.1212375 C2.04274097,29.3467414 1.02119611,28.148491 0.452014675,26.7476555 C1.08930882,26.0932907 1.65237234,25.5149766 1.72338423,25.44078 C3.28684928,23.8076964 12.9548748,14.2626659 12.9548748,14.2626659 C12.9548748,14.2626659 8.44300927,22.9365841 8.06538163,23.7505142 C5.95884002,28.2898104 8.77697428,32.675521 13.1022813,28.7616553 C17.5555992,24.7320505 21.7502791,20.3142666 26.3341339,16.4413631 C22.0356199,20.0730749 18.8558255,35.1401292 28.3980954,30.1952426 C32.9560311,27.8332813 37.155093,24.6615224 41.3739313,21.534754 L41.3739313,21.5347537 Z" id="Shape"></path>
                    </g>
                    <g id="text" transform="translate(52.6199, 4.5756)">
                        <g id="mantra" fill="#000000">
                            <path d="M22.3703542,5.41344005 C24.4364164,5.41344005 25.974066,6.03589268 26.9833492,7.28081661 C27.9926325,8.52574053 28.4972665,10.4286671 28.4972665,12.9896535 L28.4972665,23.9093602 L23.1184075,23.9093602 L23.1184075,13.1674989 C23.1184075,11.9107185 22.9165538,11.0037161 22.5128406,10.4464645 C22.1091273,9.88921282 21.4441977,9.61059117 20.5180319,9.61059117 C19.4256312,9.61059117 18.5825955,9.98999086 17.9888995,10.7488016 C17.3952035,11.5076124 17.0983599,12.5746741 17.0983599,13.9500186 L17.0983599,23.9093602 L11.7195009,23.9093602 L11.7195009,13.1674989 C11.7195009,11.9344314 11.5117104,11.0333571 11.0961232,10.464249 C10.6805359,9.89514094 10.0215432,9.61059117 9.11912529,9.61059117 C8.02672461,9.61059117 7.17775203,9.98999086 6.57218209,10.7488016 C5.96661215,11.5076124 5.66383172,12.5746741 5.66383172,13.9500186 L5.66383172,23.9093602 L0.284972665,23.9093602 L0.284972665,11.0333543 C0.284972665,9.11261448 0.189982727,7.3934596 0,5.87583805 L5.05826481,5.87583805 L5.37885906,8.57908793 C5.92505939,7.55943595 6.69091577,6.77692407 7.67645117,6.23152883 C8.66198656,5.68613358 9.79592895,5.41344005 11.0783124,5.41344005 C13.7618184,5.41344005 15.5428797,6.52792666 16.4215498,8.75693331 C17.0152459,7.73728133 17.8404709,6.92512886 18.8972499,6.32045152 C19.9540288,5.71577418 21.1117187,5.41344005 22.3703542,5.41344005 Z" id="Path"></path>
                            <path d="M39.6478542,5.41344005 C40.9072769,5.41344005 42.0359879,5.68200186 43.034021,6.21913354 C44.0320541,6.75626522 44.80433,7.48021445 45.3508719,8.39100296 L45.3508719,5.86883202 L50.6618071,5.86883202 L50.6618071,23.629119 L45.3508719,23.629119 L45.3508719,21.0018576 C44.80433,21.9126461 44.0320541,22.6249188 43.034021,23.1386969 C42.0359879,23.652475 40.9072769,23.9093602 39.6478542,23.9093602 C38.0795165,23.9093602 36.6953604,23.535709 35.4953445,22.7883954 C34.2953285,22.0410817 33.3567162,20.9726728 32.6794795,19.5831365 C32.0022428,18.1936002 31.6636295,16.5880676 31.6636295,14.7664906 C31.6636295,12.9449136 32.0022428,11.3218661 32.6794795,9.89729949 C33.3567162,8.47273285 34.3012691,7.36929411 35.5131664,6.58695014 C36.7250637,5.80460617 38.1032792,5.41344005 39.6478542,5.41344005 Z M41.1975135,9.47352009 C39.8984863,9.47352009 38.8894357,9.93931835 38.1703313,10.8709289 C37.451227,11.8025394 37.0916802,13.0951295 37.0916802,14.7487382 C37.0916802,16.4023468 37.4454279,17.6658246 38.1529337,18.5392095 C38.8604396,19.4125943 39.8752894,19.8492802 41.1975135,19.8492802 C42.4965407,19.8492802 43.493993,19.4067718 44.1899005,18.5217419 C44.8858079,17.6367119 45.2337564,16.3557666 45.2337564,14.6788677 C45.2337564,13.0019688 44.8858079,11.7152011 44.1899005,10.818526 C43.493993,9.92185092 42.4965407,9.47352009 41.1975135,9.47352009 Z" id="Combined-Shape"></path>
                            <path d="M66.0358671,5.41344005 C70.261317,5.41344005 72.3740102,7.93881928 72.3740102,12.9896535 L72.3740102,23.9093602 L67.0570124,23.9093602 L67.0570124,13.238637 C67.0570124,11.9818567 66.8281373,11.0629981 66.3703802,10.4820336 C65.9126231,9.90106906 65.1907863,9.61059117 64.204848,9.61059117 C63.0311119,9.61059117 62.0921371,9.98999086 61.3878955,10.7488016 C60.6836538,11.5076124 60.3315383,12.5272491 60.3315383,13.8077423 L60.3315383,23.9093602 L55.0145405,23.9093602 L55.0145405,11.0333543 C55.0145405,9.11261448 54.920643,7.3934596 54.7328452,5.87583805 L59.7329359,5.87583805 L60.085055,8.72136423 C60.7188724,7.65428658 61.546344,6.83620599 62.5674943,6.2670979 C63.5886447,5.69798982 64.7447574,5.41344005 66.0358671,5.41344005 Z" id="Path"></path>
                            <path d="M83.2529692,9.83679388 L83.2529692,16.7330515 C83.2529692,17.7132352 83.5088101,18.4308589 84.0204994,18.8859441 C84.5321888,19.3410294 85.1950492,19.5685686 86.0091005,19.5685686 C86.5207899,19.5685686 87.1022464,19.4868879 87.7534874,19.3235239 L87.7534874,23.4192708 C86.9161775,23.7459987 85.9044432,23.9093602 84.7182542,23.9093602 C82.531945,23.9093602 80.863165,23.2909203 79.7118639,22.0540219 C78.5605628,20.8171235 77.9849208,19.0784904 77.9849208,16.8380707 L77.9849208,9.83679388 L74.635698,9.83679388 L74.635698,5.8810725 L77.9849208,5.8810725 L77.9849208,1.71531281 L83.2529692,0 L83.2529692,5.8810725 L87.7534874,5.8810725 L87.7534874,9.83679388 L83.2529692,9.83679388 Z" id="Path"></path>
                            <path d="M101.217182,5.41344005 C101.974038,5.41344005 102.612626,5.5322309 103.132965,5.76981616 L103.097487,10.6878065 C102.222372,10.2839115 101.34727,10.0819671 100.472155,10.0819671 C99.05305,10.0819671 97.9709984,10.4680374 97.2259681,11.2401895 C96.4809378,12.0123416 96.1084283,13.0873988 96.1084283,14.4653933 L96.1084283,23.9093602 L90.7513324,23.9093602 L90.7513324,11.008545 C90.7513324,9.08410437 90.6567268,7.36163706 90.4675128,5.84109138 L95.5053115,5.84109138 L95.8600861,8.94156355 C96.3094694,7.80115429 97.0130986,6.92804155 97.9709947,6.32219913 C98.9288908,5.71635672 100.010942,5.41344005 101.217182,5.41344005 Z" id="Path"></path>
                            <path d="M112.021864,5.41344005 C113.281287,5.41344005 114.409998,5.68200186 115.408031,6.21913354 C116.406064,6.75626522 117.17834,7.48021445 117.724882,8.39100296 L117.724882,5.86883202 L123.035817,5.86883202 L123.035817,23.629119 L117.724882,23.629119 L117.724882,21.0018576 C117.17834,21.9126461 116.406064,22.6249188 115.408031,23.1386969 C114.409998,23.652475 113.281287,23.9093602 112.021864,23.9093602 C110.453527,23.9093602 109.069371,23.535709 107.869355,22.7883954 C106.669339,22.0410817 105.730726,20.9726728 105.05349,19.5831365 C104.376253,18.1936002 104.03764,16.5880676 104.03764,14.7664906 C104.03764,12.9449136 104.376253,11.3218661 105.05349,9.89729949 C105.730726,8.47273285 106.675279,7.36929411 107.887177,6.58695014 C109.099074,5.80460617 110.477289,5.41344005 112.021864,5.41344005 Z M113.571524,9.47352009 C112.272497,9.47352009 111.263446,9.93931835 110.544342,10.8709289 C109.825237,11.8025394 109.46569,13.0951295 109.46569,14.7487382 C109.46569,16.4023468 109.819438,17.6658246 110.526944,18.5392095 C111.23445,19.4125943 112.2493,19.8492802 113.571524,19.8492802 C114.870551,19.8492802 115.868003,19.4067718 116.563911,18.5217419 C117.259818,17.6367119 117.607767,16.3557666 117.607767,14.6788677 C117.607767,13.0019688 117.259818,11.7152011 116.563911,10.818526 C115.868003,9.92185092 114.870551,9.47352009 113.571524,9.47352009 Z" id="Combined-Shape"></path>
                        </g>
                        <g id="systems" transform="translate(128.0115, 0.4511)" fill="#E74B00">
                            <path d="M6.802687,23.9093602 C3.93590992,23.9093602 1.66837027,23.1149921 0,21.526232 L0.775435824,19.8544854 C1.71536273,20.637009 2.66115,21.1942523 3.612826,21.526232 C4.56450199,21.8582118 5.66302509,22.0241991 6.90842825,22.0241991 C8.36531496,22.0241991 9.47558697,21.76929 10.2392776,21.259464 C11.0029682,20.749638 11.3848078,20.0086229 11.3848078,19.0363966 C11.3848078,18.2301602 11.1322062,17.5958513 10.6269955,17.133451 C10.1217848,16.6710507 9.29348661,16.2975791 8.14207615,16.0130251 L5.1460741,15.3372126 C3.73618374,15.0052329 2.62591173,14.4124209 1.81522477,13.5587587 C1.00453781,12.7050966 0.599200409,11.7091724 0.599200409,10.5709563 C0.599200409,9.00590903 1.19252037,7.75507565 2.3791781,6.8184186 C3.56583582,5.88176155 5.14606423,5.41344005 7.11991074,5.41344005 C8.3653139,5.41344005 9.52258155,5.61499614 10.5917484,6.01811436 C11.6609153,6.42123259 12.547958,7.00218837 13.2529032,7.76099915 L12.4422203,9.43274578 C10.8208463,8.00997558 9.04676091,7.29860114 7.11991074,7.29860114 C5.75701672,7.29860114 4.69961481,7.57129468 3.94767328,8.11668992 C3.19573176,8.66208517 2.81976663,9.42088456 2.81976663,10.3931109 C2.81976663,11.1993473 3.06061929,11.8514405 3.54233183,12.3494101 C4.02404437,12.8473797 4.77010017,13.2149231 5.78052159,13.4520515 L8.81177072,14.1990021 C11.984024,14.9103872 13.5701269,16.4872672 13.5701269,18.9296894 C13.5701269,20.4235981 12.9591836,21.6270065 11.7372786,22.5399507 C10.5153736,23.452895 8.8705262,23.9093602 6.802687,23.9093602 Z" id="Path"></path>
                            <path d="M33.4729797,5.41344005 L25.1942792,25.2887464 C24.3757595,27.2535243 23.3526252,28.6971352 22.1248457,29.6196224 C20.8970662,30.5421095 19.3594415,31.195029 17.5119257,31.5784003 L17.0909748,29.8532381 C18.7747867,29.4459061 20.0434732,28.9187784 20.8970723,28.2718394 C21.7506714,27.6249003 22.4697886,26.6065856 23.0544455,25.2168646 L23.7911096,23.4557615 L16.2841523,5.41344005 L18.5643029,5.41344005 L24.9136452,21.227427 L31.2980669,5.41344005 L33.4729797,5.41344005 Z" id="Path"></path>
                            <path d="M42.5373545,23.9093602 C39.6705775,23.9093602 37.4030378,23.1149921 35.7346675,21.526232 L36.5101034,19.8544854 C37.4500303,20.637009 38.3958175,21.1942523 39.3474935,21.526232 C40.2991695,21.8582118 41.3976926,22.0241991 42.6430958,22.0241991 C44.0999825,22.0241991 45.2102545,21.76929 45.9739451,21.259464 C46.7376357,20.749638 47.1194753,20.0086229 47.1194753,19.0363966 C47.1194753,18.2301602 46.8668737,17.5958513 46.361663,17.133451 C45.8564523,16.6710507 45.0281542,16.2975791 43.8767437,16.0130251 L40.8807416,15.3372126 C39.4708513,15.0052329 38.3605793,14.4124209 37.5498923,13.5587587 C36.7392053,12.7050966 36.3338679,11.7091724 36.3338679,10.5709563 C36.3338679,9.00590903 36.9271879,7.75507565 38.1138456,6.8184186 C39.3005034,5.88176155 40.8807318,5.41344005 42.8545783,5.41344005 C44.0999814,5.41344005 45.2572491,5.61499614 46.3264159,6.01811436 C47.3955828,6.42123259 48.2826255,7.00218837 48.9875707,7.76099915 L48.1768878,9.43274578 C46.5555139,8.00997558 44.7814285,7.29860114 42.8545783,7.29860114 C41.4916843,7.29860114 40.4342824,7.57129468 39.6823408,8.11668992 C38.9303993,8.66208517 38.5544342,9.42088456 38.5544342,10.3931109 C38.5544342,11.1993473 38.7952868,11.8514405 39.2769994,12.3494101 C39.7587119,12.8473797 40.5047677,13.2149231 41.5151891,13.4520515 L44.5464383,14.1990021 C47.7186916,14.9103872 49.3047945,16.4872672 49.3047945,18.9296894 C49.3047945,20.4235981 48.6938511,21.6270065 47.4719461,22.5399507 C46.2500412,23.452895 44.6051937,23.9093602 42.5373545,23.9093602 Z" id="Path"></path>
                            <path d="M57.6583531,7.39278861 L57.6583531,18.1393789 C57.6583531,19.5818814 57.928578,20.5795974 58.469036,21.1325567 C59.009494,21.685516 59.8084199,21.9619915 60.8658376,21.9619915 C61.5237865,21.9619915 62.1582276,21.8538054 62.7691801,21.6374301 L62.7691801,23.6208612 C62.0172386,23.8131948 61.2535594,23.9093602 60.4781197,23.9093602 C58.9272403,23.9093602 57.7112281,23.4645953 56.8300467,22.575052 C55.9488652,21.6855088 55.508281,20.3512139 55.508281,18.5721275 L55.508281,7.39278861 L52.0188198,7.39278861 L52.0188198,5.62573182 L55.508281,5.62573182 L55.508281,0.829434819 L57.6583531,0 L57.6583531,5.62573182 L62.8749214,5.62573182 L62.8749214,7.39278861 L57.6583531,7.39278861 Z" id="Path"></path>
                            <path d="M73.932741,5.41344005 C76.2861306,5.41344005 78.1224602,6.17223944 79.4417846,7.68986099 C80.7611091,9.20748254 81.4207615,11.3178934 81.4207615,14.0211567 L81.4207615,14.4835547 L67.8710101,14.4835547 L67.8710101,14.590262 C67.8710101,16.9852585 68.4236918,18.8170477 69.5290718,20.0856844 C70.6344518,21.3543212 72.2449544,21.98863 74.3606279,21.98863 C76.500073,21.98863 78.4612016,21.2535431 80.2440726,19.7833473 L81.0998463,21.490663 C80.3153831,22.2257609 79.3169904,22.8126448 78.1046381,23.2513323 C76.8922859,23.6900198 75.644295,23.9093602 74.3606279,23.9093602 C71.6506641,23.9093602 69.511251,23.0912796 67.9423246,21.4550939 C66.3733982,19.8189082 65.5889468,17.5662225 65.5889468,14.6969692 C65.5889468,12.8710808 65.9395728,11.252704 66.6408353,9.84179017 C67.3420979,8.43087638 68.3226622,7.34010225 69.5825577,6.56943506 C70.8424531,5.79876787 72.2924997,5.41344005 73.932741,5.41344005 Z M73.753782,7.21792007 C72.1179619,7.21792007 70.7903597,7.69187685 69.7709355,8.63980464 C68.7515114,9.58773242 68.1114175,10.9182376 67.8506346,12.6313601 L79.1590737,12.6313601 C79.0168284,10.8725543 78.4834168,9.53062851 77.5588228,8.60554236 C76.6342289,7.6804562 75.3658946,7.21792007 73.753782,7.21792007 Z" id="Combined-Shape"></path>
                            <path d="M104.933445,4.96232005 C108.859637,4.96232005 110.822703,7.29381623 110.822703,11.9568786 L110.822703,23.4582402 L108.658578,23.4582402 L108.658578,12.1010963 C108.658578,10.2743296 108.339284,8.94633819 107.700687,8.11708226 C107.06209,7.28782633 106.045079,6.87320459 104.649626,6.87320459 C103.017655,6.87320459 101.734566,7.42603358 100.800322,8.53170815 C99.8660775,9.63738272 99.3989623,11.1396354 99.3989623,13.0385113 L99.3989623,23.4582402 L97.2348375,23.4582402 L97.2348375,12.1010963 C97.2348375,10.2743296 96.9096307,8.94633819 96.2592074,8.11708226 C95.6087842,7.28782633 94.5858611,6.87320459 93.1904075,6.87320459 C91.5820881,6.87320459 90.2989996,7.42603358 89.3411035,8.53170815 C88.3832074,9.63738272 87.9042666,11.1396354 87.9042666,13.0385113 L87.9042666,23.4582402 L85.7756192,23.4582402 L85.7756192,10.4065383 C85.7756192,8.53169877 85.6810136,6.86119378 85.4917996,5.39497315 L87.549492,5.39497315 L87.8333117,8.63987142 C88.3299985,7.43805124 89.0691048,6.5246816 90.0506527,5.8997351 C91.0322005,5.27478861 92.1733806,4.96232005 93.4742272,4.96232005 C96.3360896,4.96232005 98.1690731,6.14008616 98.9732328,8.49565372 C99.4699197,7.38997915 100.244503,6.5246816 101.297006,5.8997351 C102.349509,5.27478861 103.561644,4.96232005 104.933445,4.96232005 Z" id="Path"></path>
                            <path d="M122.601103,23.9093602 C119.734326,23.9093602 117.466787,23.1149921 115.798416,21.526232 L116.573852,19.8544854 C117.513779,20.637009 118.459566,21.1942523 119.411242,21.526232 C120.362918,21.8582118 121.461441,22.0241991 122.706845,22.0241991 C124.163731,22.0241991 125.274003,21.76929 126.037694,21.259464 C126.801385,20.749638 127.183224,20.0086229 127.183224,19.0363966 C127.183224,18.2301602 126.930623,17.5958513 126.425412,17.133451 C125.920201,16.6710507 125.091903,16.2975791 123.940492,16.0130251 L120.94449,15.3372126 C119.5346,15.0052329 118.424328,14.4124209 117.613641,13.5587587 C116.802954,12.7050966 116.397617,11.7091724 116.397617,10.5709563 C116.397617,9.00590903 116.990937,7.75507565 118.177594,6.8184186 C119.364252,5.88176155 120.944481,5.41344005 122.918327,5.41344005 C124.16373,5.41344005 125.320998,5.61499614 126.390165,6.01811436 C127.459332,6.42123259 128.346374,7.00218837 129.05132,7.76099915 L128.240637,9.43274578 C126.619263,8.00997558 124.845177,7.29860114 122.918327,7.29860114 C121.555433,7.29860114 120.498031,7.57129468 119.74609,8.11668992 C118.994148,8.66208517 118.618183,9.42088456 118.618183,10.3931109 C118.618183,11.1993473 118.859036,11.8514405 119.340748,12.3494101 C119.822461,12.8473797 120.568516,13.2149231 121.578938,13.4520515 L124.610187,14.1990021 C127.78244,14.9103872 129.368543,16.4872672 129.368543,18.9296894 C129.368543,20.4235981 128.7576,21.6270065 127.535695,22.5399507 C126.31379,23.452895 124.668943,23.9093602 122.601103,23.9093602 Z" id="Path"></path>
                        </g>
                    </g>
                </g>
            </g>
        </g>
    </g>
</svg>