<?xml version="1.0" encoding="UTF-8"?>
<svg width="310px" height="62px" viewBox="0 0 310 62" version="1.1" xmlns="http://www.w3.org/2000/svg" xmlns:xlink="http://www.w3.org/1999/xlink">
    <title>white</title>
    <g id="Welcome" stroke="none" stroke-width="1" fill="none" fill-rule="evenodd">
        <g id="Artboard" transform="translate(-52, -61)">
            <g id="white" transform="translate(52, 61)">
                <g id="strap" transform="translate(53, 41)">
                    <rect id="Rectangle" fill="#E74B00" x="0" y="0" width="256" height="21" rx="3"></rect>
                    <g id="MDR-&amp;-IVDR-Consultin-Copy" transform="translate(9.9638, 6.4538)" fill="#FFFFFF" fill-rule="nonzero">
                        <polygon id="Path" points="7.198 0.1098 8.4424 0.1098 8.4424 8.7962 7.0516 8.7962 7.0516 3.4038 4.7458 8.7962 3.7088 8.7962 1.3908 3.4648 1.3908 8.7962 0 8.7962 0 0.1098 1.2444 0.1098 4.2334 6.9052"></polygon>
                        <path d="M10.3456,0.1098 L13.542,0.1098 C14.9653333,0.1098 16.0694333,0.488 16.8543,1.2444 C17.6391667,2.0008 18.0316,3.06626667 18.0316,4.4408 C18.0316,5.82346667 17.6391667,6.89503333 16.8543,7.6555 C16.0694333,8.41596667 14.9653333,8.7962 13.542,8.7962 L10.3456,8.7962 L10.3456,0.1098 Z M13.4444,7.5152 C15.4452,7.5152 16.4456,6.4904 16.4456,4.4408 C16.4456,2.40746667 15.4452,1.3908 13.4444,1.3908 L11.9194,1.3908 L11.9194,7.5152 L13.4444,7.5152 Z" id="Shape"></path>
                        <path d="M26.7912,8.7962 L25.132,8.7962 L24.0218,5.9048 C23.9242,5.6364 23.7737333,5.44933333 23.5704,5.3436 C23.3670667,5.23786667 23.1027333,5.185 22.7774,5.185 L21.2036,5.185 L21.2036,8.7962 L19.642,8.7962 L19.642,0.1098 L23.363,0.1098 C24.3471333,0.1098 25.0954,0.325333333 25.6078,0.7564 C26.1202,1.18746667 26.3764,1.8056 26.3764,2.6108 C26.3764,3.18826667 26.2239,3.6783 25.9189,4.0809 C25.6139,4.4835 25.1808,4.7702 24.6196,4.941 C25.132,5.04673333 25.5020667,5.4046 25.7298,6.0146 L26.7912,8.7962 Z M23.1434,3.965 C23.7371333,3.965 24.1763333,3.8552 24.461,3.6356 C24.7456667,3.416 24.888,3.08253333 24.888,2.6352 C24.888,2.196 24.7477,1.86863333 24.4671,1.6531 C24.1865,1.43756667 23.7452667,1.3298 23.1434,1.3298 L21.1792,1.3298 L21.1792,3.965 L23.1434,3.965 Z" id="Shape"></path>
                        <path d="M38.491,8.906 C37.7915333,8.662 37.1896667,8.31226667 36.6854,7.8568 C35.929,8.54813333 35.0587333,8.8938 34.0746,8.8938 C33.489,8.8938 32.9705,8.79416667 32.5191,8.5949 C32.0677,8.39563333 31.7179667,8.11706667 31.4699,7.7592 C31.2218333,7.40133333 31.0978,6.9906 31.0978,6.527 C31.0978,5.99833333 31.2442,5.53066667 31.537,5.124 C31.8298,4.71733333 32.2974667,4.33506667 32.94,3.9772 C32.6146667,3.61933333 32.3788,3.28993333 32.2324,2.989 C32.086,2.68806667 32.0128,2.379 32.0128,2.0618 C32.0128,1.4518 32.2324,0.959733333 32.6716,0.5856 C33.1108,0.211466667 33.6842,0.0244 34.3918,0.0244 C35.0424667,0.0244 35.563,0.1952 35.9534,0.5368 C36.3438,0.8784 36.539,1.33386667 36.539,1.9032 C36.539,2.3424 36.4109,2.74093333 36.1547,3.0988 C35.8985,3.45666667 35.4776,3.8064 34.892,4.148 L36.6122,5.9292 C36.9538,5.23786667 37.1408667,4.453 37.1734,3.5746 L38.4666,3.5746 C38.4096667,4.8434 38.0924667,5.93733333 37.515,6.8564 C37.9948667,7.30373333 38.5723333,7.6372 39.2474,7.8568 L38.491,8.906 Z M34.404,1.0736 C34.1030667,1.0736 33.8611,1.16306667 33.6781,1.342 C33.4951,1.52093333 33.4036,1.76086667 33.4036,2.0618 C33.4036,2.24886667 33.4544333,2.43186667 33.5561,2.6108 C33.6577667,2.78973333 33.8468667,3.03373333 34.1234,3.3428 C34.5544667,3.09066667 34.8574333,2.8609 35.0323,2.6535 C35.2071667,2.4461 35.2946,2.21633333 35.2946,1.9642 C35.2946,1.6958 35.2132667,1.48026667 35.0506,1.3176 C34.8879333,1.15493333 34.6724,1.0736 34.404,1.0736 Z M32.5862,6.4416 C32.5862,6.832 32.7244667,7.14106667 33.001,7.3688 C33.2775333,7.59653333 33.6516667,7.7104 34.1234,7.7104 C34.7578,7.7104 35.3312,7.47453333 35.8436,7.0028 L33.7086,4.7946 C33.3182,5.0386 33.0335333,5.29073333 32.8546,5.551 C32.6756667,5.81126667 32.5862,6.10813333 32.5862,6.4416 Z" id="Shape"></path>
                        <polygon id="Path" points="43.2856 8.7962 43.2856 0.1098 44.8594 0.1098 44.8594 8.7962"></polygon>
                        <polygon id="Path" points="53.1066 0.1098 54.7048 0.1098 50.8374 8.7962 49.5564 8.7962 45.689 0.1098 47.3238 0.1098 50.2152 6.8198"></polygon>
                        <path d="M55.5344,0.1098 L58.7308,0.1098 C60.1541333,0.1098 61.2582333,0.488 62.0431,1.2444 C62.8279667,2.0008 63.2204,3.06626667 63.2204,4.4408 C63.2204,5.82346667 62.8279667,6.89503333 62.0431,7.6555 C61.2582333,8.41596667 60.1541333,8.7962 58.7308,8.7962 L55.5344,8.7962 L55.5344,0.1098 Z M58.6332,7.5152 C60.634,7.5152 61.6344,6.4904 61.6344,4.4408 C61.6344,2.40746667 60.634,1.3908 58.6332,1.3908 L57.1082,1.3908 L57.1082,7.5152 L58.6332,7.5152 Z" id="Shape"></path>
                        <path d="M71.98,8.7962 L70.3208,8.7962 L69.2106,5.9048 C69.113,5.6364 68.9625333,5.44933333 68.7592,5.3436 C68.5558667,5.23786667 68.2915333,5.185 67.9662,5.185 L66.3924,5.185 L66.3924,8.7962 L64.8308,8.7962 L64.8308,0.1098 L68.5518,0.1098 C69.5359333,0.1098 70.2842,0.325333333 70.7966,0.7564 C71.309,1.18746667 71.5652,1.8056 71.5652,2.6108 C71.5652,3.18826667 71.4127,3.6783 71.1077,4.0809 C70.8027,4.4835 70.3696,4.7702 69.8084,4.941 C70.3208,5.04673333 70.6908667,5.4046 70.9186,6.0146 L71.98,8.7962 Z M68.3322,3.965 C68.9259333,3.965 69.3651333,3.8552 69.6498,3.6356 C69.9344667,3.416 70.0768,3.08253333 70.0768,2.6352 C70.0768,2.196 69.9365,1.86863333 69.6559,1.6531 C69.3753,1.43756667 68.9340667,1.3298 68.3322,1.3298 L66.368,1.3298 L66.368,3.965 L68.3322,3.965 Z" id="Shape"></path>
                        <path d="M80.6786,8.906 C79.8246,8.906 79.0783667,8.723 78.4399,8.357 C77.8014333,7.991 77.3114,7.4725 76.9698,6.8015 C76.6282,6.1305 76.4574,5.3436 76.4574,4.4408 C76.4574,3.54613333 76.6282,2.7633 76.9698,2.0923 C77.3114,1.4213 77.8014333,0.904833333 78.4399,0.5429 C79.0783667,0.180966667 79.8246,0 80.6786,0 C81.2642,0 81.8152333,0.0915 82.3317,0.2745 C82.8481667,0.4575 83.2772,0.711666667 83.6188,1.037 L83.1064,2.1838 C82.716,1.8666 82.3276333,1.63683333 81.9413,1.4945 C81.5549667,1.35216667 81.1422,1.281 80.703,1.281 C79.8652667,1.281 79.2166333,1.55346667 78.7571,2.0984 C78.2975667,2.64333333 78.0678,3.42413333 78.0678,4.4408 C78.0678,5.4656 78.2955333,6.2525 78.751,6.8015 C79.2064667,7.3505 79.8571333,7.625 80.703,7.625 C81.1422,7.625 81.5549667,7.55383333 81.9413,7.4115 C82.3276333,7.26916667 82.716,7.0394 83.1064,6.7222 L83.6188,7.869 C83.2772,8.19433333 82.8481667,8.4485 82.3317,8.6315 C81.8152333,8.8145 81.2642,8.906 80.6786,8.906 Z" id="Path"></path>
                        <path d="M88.9502,8.906 C88.1124667,8.906 87.3825,8.72503333 86.7603,8.3631 C86.1381,8.00116667 85.6582333,7.4847 85.3207,6.8137 C84.9831667,6.1427 84.8144,5.35173333 84.8144,4.4408 C84.8144,3.538 84.9811333,2.7511 85.3146,2.0801 C85.6480667,1.4091 86.1259,0.894666667 86.7481,0.5368 C87.3703,0.178933333 88.1043333,0 88.9502,0 C89.7960667,0 90.5301,0.178933333 91.1523,0.5368 C91.7745,0.894666667 92.2503,1.4091 92.5797,2.0801 C92.9091,2.7511 93.0738,3.538 93.0738,4.4408 C93.0738,5.35173333 92.9070667,6.1427 92.5736,6.8137 C92.2401333,7.4847 91.7643333,8.00116667 91.1462,8.3631 C90.5280667,8.72503333 89.7960667,8.906 88.9502,8.906 Z M88.9502,7.6494 C89.7554,7.6494 90.3816667,7.37286667 90.829,6.8198 C91.2763333,6.26673333 91.5,5.47373333 91.5,4.4408 C91.5,3.416 91.2763333,2.6291 90.829,2.0801 C90.3816667,1.5311 89.7554,1.2566 88.9502,1.2566 C88.145,1.2566 87.5187333,1.52906667 87.0714,2.074 C86.6240667,2.61893333 86.4004,3.40786667 86.4004,4.4408 C86.4004,5.47373333 86.6240667,6.26673333 87.0714,6.8198 C87.5187333,7.37286667 88.145,7.6494 88.9502,7.6494 Z" id="Shape"></path>
                        <polygon id="Path" points="100.528 0.1098 102.0042 0.1098 102.0042 8.7962 100.833 8.7962 96.1482 2.7084 96.1482 8.7962 94.6842 8.7962 94.6842 0.1098 95.8554 0.1098 100.528 6.1854"></polygon>
                        <path d="M106.8354,8.906 C106.168467,8.906 105.544233,8.81653333 104.9627,8.6376 C104.381167,8.45866667 103.887067,8.20246667 103.4804,7.869 L104.0172,6.7222 C104.440133,7.0394 104.881367,7.27323333 105.3409,7.4237 C105.800433,7.57416667 106.302667,7.6494 106.8476,7.6494 C107.449467,7.6494 107.9151,7.54366667 108.2445,7.3322 C108.5739,7.12073333 108.7386,6.82386667 108.7386,6.4416 C108.7386,6.11626667 108.5861,5.86616667 108.2811,5.6913 C107.9761,5.51643333 107.473867,5.35173333 106.7744,5.1972 C105.684533,4.96133333 104.891533,4.65633333 104.3954,4.2822 C103.899267,3.90806667 103.6512,3.36313333 103.6512,2.6474 C103.6512,2.135 103.789467,1.67953333 104.066,1.281 C104.342533,0.882466667 104.734967,0.569333333 105.2433,0.3416 C105.751633,0.113866667 106.339267,0 107.0062,0 C107.6162,0 108.1957,0.0915 108.7447,0.2745 C109.2937,0.4575 109.743067,0.711666667 110.0928,1.037 L109.5682,2.1838 C108.795533,1.56566667 107.941533,1.2566 107.0062,1.2566 C106.445,1.2566 106.001733,1.3725 105.6764,1.6043 C105.351067,1.8361 105.1884,2.15126667 105.1884,2.5498 C105.1884,2.8914 105.332767,3.15166667 105.6215,3.3306 C105.910233,3.50953333 106.404333,3.67626667 107.1038,3.8308 C107.827667,4.0016 108.417333,4.18663333 108.8728,4.3859 C109.328267,4.58516667 109.678,4.84136667 109.922,5.1545 C110.166,5.46763333 110.288,5.86006667 110.288,6.3318 C110.288,6.85233333 110.149733,7.30576667 109.8732,7.6921 C109.596667,8.07843333 109.198133,8.37733333 108.6776,8.5888 C108.157067,8.80026667 107.543,8.906 106.8354,8.906 Z" id="Path"></path>
                        <path d="M115.3388,8.906 C114.1432,8.906 113.238367,8.59896667 112.6243,7.9849 C112.010233,7.37083333 111.7032,6.47006667 111.7032,5.2826 L111.7032,0.1098 L113.2526,0.1098 L113.2526,5.368 C113.2526,6.11626667 113.427467,6.68356667 113.7772,7.0699 C114.126933,7.45623333 114.647467,7.6494 115.3388,7.6494 C116.013867,7.6494 116.5283,7.4542 116.8821,7.0638 C117.2359,6.6734 117.4128,6.10813333 117.4128,5.368 L117.4128,0.1098 L118.9622,0.1098 L118.9622,5.2826 C118.9622,6.46193333 118.653133,7.36066667 118.035,7.9788 C117.416867,8.59693333 116.518133,8.906 115.3388,8.906 Z" id="Path"></path>
                        <polygon id="Path" points="120.78 8.7962 120.78 0.1098 122.3538 0.1098 122.3538 7.503 126.4164 7.503 126.4164 8.7962"></polygon>
                        <polygon id="Path" points="129.6494 8.7962 129.6494 1.403 126.819 1.403 126.819 0.1098 134.078 0.1098 134.078 1.403 131.2354 1.403 131.2354 8.7962"></polygon>
                        <polygon id="Path" points="135.1638 8.7962 135.1638 0.1098 136.7376 0.1098 136.7376 8.7962"></polygon>
                        <polygon id="Path" points="144.4602 0.1098 145.9364 0.1098 145.9364 8.7962 144.7652 8.7962 140.0804 2.7084 140.0804 8.7962 138.6164 8.7962 138.6164 0.1098 139.7876 0.1098 144.4602 6.1854"></polygon>
                        <path d="M155.0742,4.0992 L155.0742,8.2716 C154.675667,8.4668 154.1958,8.62133333 153.6346,8.7352 C153.0734,8.84906667 152.5,8.906 151.9144,8.906 C151.019733,8.906 150.243,8.72706667 149.5842,8.3692 C148.9254,8.01133333 148.421133,7.49893333 148.0714,6.832 C147.721667,6.16506667 147.5468,5.368 147.5468,4.4408 C147.5468,3.52986667 147.721667,2.74093333 148.0714,2.074 C148.421133,1.40706667 148.9193,0.894666667 149.5659,0.5368 C150.2125,0.178933333 150.970933,0 151.8412,0 C152.4512,0 153.022567,0.0894666667 153.5553,0.2684 C154.088033,0.447333333 154.533333,0.699466667 154.8912,1.0248 L154.3544,2.1716 C153.947733,1.8544 153.5492,1.62666667 153.1588,1.4884 C152.7684,1.35013333 152.3414,1.281 151.8778,1.281 C150.983133,1.281 150.306033,1.5494 149.8465,2.0862 C149.386967,2.623 149.1572,3.40786667 149.1572,4.4408 C149.1572,5.50626667 149.393067,6.30943333 149.8648,6.8503 C150.336533,7.39116667 151.040067,7.6616 151.9754,7.6616 C152.544733,7.6616 153.105933,7.58433333 153.659,7.4298 L153.659,5.2338 L151.7802,5.2338 L151.7802,4.0992 L155.0742,4.0992 Z" id="Path"></path>
                        <path d="M163.1262,8.906 C162.459267,8.906 161.835033,8.81653333 161.2535,8.6376 C160.671967,8.45866667 160.177867,8.20246667 159.7712,7.869 L160.308,6.7222 C160.730933,7.0394 161.172167,7.27323333 161.6317,7.4237 C162.091233,7.57416667 162.593467,7.6494 163.1384,7.6494 C163.740267,7.6494 164.2059,7.54366667 164.5353,7.3322 C164.8647,7.12073333 165.0294,6.82386667 165.0294,6.4416 C165.0294,6.11626667 164.8769,5.86616667 164.5719,5.6913 C164.2669,5.51643333 163.764667,5.35173333 163.0652,5.1972 C161.975333,4.96133333 161.182333,4.65633333 160.6862,4.2822 C160.190067,3.90806667 159.942,3.36313333 159.942,2.6474 C159.942,2.135 160.080267,1.67953333 160.3568,1.281 C160.633333,0.882466667 161.025767,0.569333333 161.5341,0.3416 C162.042433,0.113866667 162.630067,0 163.297,0 C163.907,0 164.4865,0.0915 165.0355,0.2745 C165.5845,0.4575 166.033867,0.711666667 166.3836,1.037 L165.859,2.1838 C165.086333,1.56566667 164.232333,1.2566 163.297,1.2566 C162.7358,1.2566 162.292533,1.3725 161.9672,1.6043 C161.641867,1.8361 161.4792,2.15126667 161.4792,2.5498 C161.4792,2.8914 161.623567,3.15166667 161.9123,3.3306 C162.201033,3.50953333 162.695133,3.67626667 163.3946,3.8308 C164.118467,4.0016 164.708133,4.18663333 165.1636,4.3859 C165.619067,4.58516667 165.9688,4.84136667 166.2128,5.1545 C166.4568,5.46763333 166.5788,5.86006667 166.5788,6.3318 C166.5788,6.85233333 166.440533,7.30576667 166.164,7.6921 C165.887467,8.07843333 165.488933,8.37733333 164.9684,8.5888 C164.447867,8.80026667 163.8338,8.906 163.1262,8.906 Z" id="Path"></path>
                        <path d="M168.0428,0.1098 L171.8126,0.1098 C172.747933,0.1098 173.475867,0.3355 173.9964,0.7869 C174.516933,1.2383 174.7772,1.8544 174.7772,2.6352 C174.7772,3.416 174.5149,4.03413333 173.9903,4.4896 C173.4657,4.94506667 172.7398,5.1728 171.8126,5.1728 L169.6166,5.1728 L169.6166,8.7962 L168.0428,8.7962 L168.0428,0.1098 Z M171.6296,3.9528 C172.174533,3.9528 172.5873,3.84096667 172.8679,3.6173 C173.1485,3.39363333 173.2888,3.07033333 173.2888,2.6474 C173.2888,2.21633333 173.150533,1.88896667 172.874,1.6653 C172.597467,1.44163333 172.182667,1.3298 171.6296,1.3298 L169.6166,1.3298 L169.6166,3.9528 L171.6296,3.9528 Z" id="Shape"></path>
                        <polygon id="Path" points="176.168 8.7962 176.168 0.1098 181.9752 0.1098 181.9752 1.3542 177.7052 1.3542 177.7052 3.7576 181.719 3.7576 181.719 5.002 177.7052 5.002 177.7052 7.5518 181.9752 7.5518 181.9752 8.7962"></polygon>
                        <path d="M187.3676,8.906 C186.5136,8.906 185.767367,8.723 185.1289,8.357 C184.490433,7.991 184.0004,7.4725 183.6588,6.8015 C183.3172,6.1305 183.1464,5.3436 183.1464,4.4408 C183.1464,3.54613333 183.3172,2.7633 183.6588,2.0923 C184.0004,1.4213 184.490433,0.904833333 185.1289,0.5429 C185.767367,0.180966667 186.5136,0 187.3676,0 C187.9532,0 188.504233,0.0915 189.0207,0.2745 C189.537167,0.4575 189.9662,0.711666667 190.3078,1.037 L189.7954,2.1838 C189.405,1.8666 189.016633,1.63683333 188.6303,1.4945 C188.243967,1.35216667 187.8312,1.281 187.392,1.281 C186.554267,1.281 185.905633,1.55346667 185.4461,2.0984 C184.986567,2.64333333 184.7568,3.42413333 184.7568,4.4408 C184.7568,5.4656 184.984533,6.2525 185.44,6.8015 C185.895467,7.3505 186.546133,7.625 187.392,7.625 C187.8312,7.625 188.243967,7.55383333 188.6303,7.4115 C189.016633,7.26916667 189.405,7.0394 189.7954,6.7222 L190.3078,7.869 C189.9662,8.19433333 189.537167,8.4485 189.0207,8.6315 C188.504233,8.8145 187.9532,8.906 187.3676,8.906 Z" id="Path"></path>
                        <polygon id="Path" points="191.784 8.7962 191.784 0.1098 193.3578 0.1098 193.3578 8.7962"></polygon>
                        <path d="M201.8734,8.7962 L201.0072,6.7588 L196.7616,6.7588 L195.8832,8.7962 L194.2972,8.7962 L198.2256,0.1098 L199.5066,0.1098 L203.4472,8.7962 L201.8734,8.7962 Z M197.2862,5.5388 L200.4826,5.5388 L198.8844,1.8178 L197.2862,5.5388 Z" id="Shape"></path>
                        <polygon id="Path" points="204.3866 8.7962 204.3866 0.1098 205.9604 0.1098 205.9604 7.503 210.023 7.503 210.023 8.7962"></polygon>
                        <polygon id="Path" points="211.2186 8.7962 211.2186 0.1098 212.7924 0.1098 212.7924 8.7962"></polygon>
                        <path d="M217.6114,8.906 C216.944467,8.906 216.320233,8.81653333 215.7387,8.6376 C215.157167,8.45866667 214.663067,8.20246667 214.2564,7.869 L214.7932,6.7222 C215.216133,7.0394 215.657367,7.27323333 216.1169,7.4237 C216.576433,7.57416667 217.078667,7.6494 217.6236,7.6494 C218.225467,7.6494 218.6911,7.54366667 219.0205,7.3322 C219.3499,7.12073333 219.5146,6.82386667 219.5146,6.4416 C219.5146,6.11626667 219.3621,5.86616667 219.0571,5.6913 C218.7521,5.51643333 218.249867,5.35173333 217.5504,5.1972 C216.460533,4.96133333 215.667533,4.65633333 215.1714,4.2822 C214.675267,3.90806667 214.4272,3.36313333 214.4272,2.6474 C214.4272,2.135 214.565467,1.67953333 214.842,1.281 C215.118533,0.882466667 215.510967,0.569333333 216.0193,0.3416 C216.527633,0.113866667 217.115267,0 217.7822,0 C218.3922,0 218.9717,0.0915 219.5207,0.2745 C220.0697,0.4575 220.519067,0.711666667 220.8688,1.037 L220.3442,2.1838 C219.571533,1.56566667 218.717533,1.2566 217.7822,1.2566 C217.221,1.2566 216.777733,1.3725 216.4524,1.6043 C216.127067,1.8361 215.9644,2.15126667 215.9644,2.5498 C215.9644,2.8914 216.108767,3.15166667 216.3975,3.3306 C216.686233,3.50953333 217.180333,3.67626667 217.8798,3.8308 C218.603667,4.0016 219.193333,4.18663333 219.6488,4.3859 C220.104267,4.58516667 220.454,4.84136667 220.698,5.1545 C220.942,5.46763333 221.064,5.86006667 221.064,6.3318 C221.064,6.85233333 220.925733,7.30576667 220.6492,7.6921 C220.372667,8.07843333 219.974133,8.37733333 219.4536,8.5888 C218.933067,8.80026667 218.319,8.906 217.6114,8.906 Z" id="Path"></path>
                        <polygon id="Path" points="224.5654 8.7962 224.5654 1.403 221.735 1.403 221.735 0.1098 228.994 0.1098 228.994 1.403 226.1514 1.403 226.1514 8.7962"></polygon>
                        <path d="M233.02,8.906 C232.353067,8.906 231.728833,8.81653333 231.1473,8.6376 C230.565767,8.45866667 230.071667,8.20246667 229.665,7.869 L230.2018,6.7222 C230.624733,7.0394 231.065967,7.27323333 231.5255,7.4237 C231.985033,7.57416667 232.487267,7.6494 233.0322,7.6494 C233.634067,7.6494 234.0997,7.54366667 234.4291,7.3322 C234.7585,7.12073333 234.9232,6.82386667 234.9232,6.4416 C234.9232,6.11626667 234.7707,5.86616667 234.4657,5.6913 C234.1607,5.51643333 233.658467,5.35173333 232.959,5.1972 C231.869133,4.96133333 231.076133,4.65633333 230.58,4.2822 C230.083867,3.90806667 229.8358,3.36313333 229.8358,2.6474 C229.8358,2.135 229.974067,1.67953333 230.2506,1.281 C230.527133,0.882466667 230.919567,0.569333333 231.4279,0.3416 C231.936233,0.113866667 232.523867,0 233.1908,0 C233.8008,0 234.3803,0.0915 234.9293,0.2745 C235.4783,0.4575 235.927667,0.711666667 236.2774,1.037 L235.7528,2.1838 C234.980133,1.56566667 234.126133,1.2566 233.1908,1.2566 C232.6296,1.2566 232.186333,1.3725 231.861,1.6043 C231.535667,1.8361 231.373,2.15126667 231.373,2.5498 C231.373,2.8914 231.517367,3.15166667 231.8061,3.3306 C232.094833,3.50953333 232.588933,3.67626667 233.2884,3.8308 C234.012267,4.0016 234.601933,4.18663333 235.0574,4.3859 C235.512867,4.58516667 235.8626,4.84136667 236.1066,5.1545 C236.3506,5.46763333 236.4726,5.86006667 236.4726,6.3318 C236.4726,6.85233333 236.334333,7.30576667 236.0578,7.6921 C235.781267,8.07843333 235.382733,8.37733333 234.8622,8.5888 C234.341667,8.80026667 233.7276,8.906 233.02,8.906 Z" id="Path"></path>
                    </g>
                </g>
                <g id="main-horizontal" fill="#FFFFFF">
                    <g id="emblem" transform="translate(0.5956, 0.0439)">
                        <path d="M42.9560052,16.7184782 C39.9707423,18.8497174 36.9443011,20.9359151 33.7753219,22.6947119 C28.5363535,25.6023423 29.0139579,20.7840044 31.7984335,17.4152925 C33.5371579,15.3118847 36.8812094,12.6847885 36.7445296,9.68315563 C36.5702833,5.85667683 33.2947085,6.07616928 31.1091076,7.79491296 C26.1902746,11.6630069 21.3322591,15.5975747 16.3219718,19.3463473 C18.0780206,16.7193431 25.430466,8.27717027 20.9688129,5.52872713 C18.0497546,3.73006758 12.1818218,9.39866249 10.300582,11.1593896 C7.71429448,13.5799561 3.44748617,17.826173 0,21.1822733 L0.127965539,14.8957604 C0.17194777,12.7350626 1.22946245,10.7208307 2.98305536,9.45771496 L14.3134899,1.29638504 C15.6761529,0.314856716 17.3509759,-0.133910774 19.0218409,0.0347861841 L32.9149499,1.43748798 C35.0651638,1.65458185 36.9881143,2.87020046 38.106553,4.71942855 L42.7985344,12.4771576 C43.4661081,13.5809249 43.797131,14.826342 43.7907024,16.0709047 C43.3112036,16.4442753 42.9840204,16.6984776 42.9560052,16.7184782 Z M41.6805664,21.5018377 L37.1481589,29.2377294 C36.2341918,30.7976841 34.7424675,31.9347782 32.9960921,32.4027181 L18.3953992,36.3149619 C16.6490239,36.7829018 14.7886057,36.5440116 13.2171096,35.6500347 L3.41726353,30.075197 C2.05788036,29.3018847 1.02876451,28.1054658 0.455364697,26.7067715 C1.09738203,26.0534069 1.66461858,25.4759768 1.73615676,25.4018937 C3.31120915,23.7713062 13.0508874,14.2408653 13.0508874,14.2408653 C13.0508874,14.2408653 8.50558304,22.9015254 8.12515668,23.7142114 C6.00300284,28.2465692 8.84202317,32.6255762 13.1993864,28.7176929 C17.6857092,24.6942474 21.9114772,20.2832161 26.5293043,16.4162324 C22.1989327,20.0423931 18.9955719,35.0864173 28.6085625,30.149089 C33.2002785,27.790738 37.4304609,24.6238271 41.6805664,21.501838 L41.6805664,21.5018377 Z" id="Shape"></path>
                    </g>
                    <g id="text" transform="translate(53.246, 3.6099)">
                        <g id="mantra">
                            <path d="M22.3159389,5.41484716 C24.3769754,5.41484716 25.9108847,6.03746158 26.9177129,7.2827091 C27.9245411,8.52795662 28.4279476,10.4313779 28.4279476,12.9930299 L28.4279476,23.915575 L23.0621725,23.915575 L23.0621725,13.1709215 C23.0621725,11.9138145 22.8608099,11.0065763 22.4580786,10.4491798 C22.0553473,9.89178331 21.3920352,9.61308924 20.4681223,9.61308924 C19.3783788,9.61308924 18.5373938,9.99258755 17.9451419,10.7515956 C17.3528901,11.5106036 17.0567686,12.5779426 17.0567686,13.9536446 L17.0567686,23.915575 L11.6909934,23.915575 L11.6909934,13.1709215 C11.6909934,11.9375335 11.4837084,11.036225 11.0691321,10.466969 C10.6545558,9.89771298 9.99716607,9.61308924 9.09694323,9.61308924 C8.00719979,9.61308924 7.16029232,9.99258755 6.55619541,10.7515956 C5.95209851,11.5106036 5.65005459,12.5779426 5.65005459,13.9536446 L5.65005459,23.915575 L0.284279476,23.915575 L0.284279476,11.0362221 C0.284279476,9.11498312 0.189520598,7.39538138 0,5.87736536 L5.0459607,5.87736536 L5.36577511,8.58131788 C5.91064683,7.56140086 6.67464028,6.77868559 7.65777838,6.23314858 C8.64091649,5.68761157 9.77210059,5.41484716 11.0513646,5.41484716 C13.7283431,5.41484716 15.505072,6.52962346 16.3816048,8.7592095 C16.9738567,7.73929248 17.7970744,6.9269289 18.8512828,6.32209439 C19.9054911,5.71725988 21.0603649,5.41484716 22.3159389,5.41484716 Z" id="Path"></path>
                            <path d="M39.5514118,5.41484716 C40.807771,5.41484716 41.9337364,5.68347878 42.9293418,6.22075008 C43.9249471,6.75802137 44.6953445,7.48215878 45.240557,8.39318402 L45.240557,5.87035751 L50.5385735,5.87035751 L50.5385735,23.6352609 L45.240557,23.6352609 L45.240557,21.0073166 C44.6953445,21.9183419 43.9249471,22.6307996 42.9293418,23.1447113 C41.9337364,23.658623 40.807771,23.915575 39.5514118,23.915575 C37.986889,23.915575 36.6060999,23.5418266 35.4090029,22.7943187 C34.2119059,22.0468108 33.2755768,20.9781242 32.5999874,19.5882267 C31.9243981,18.1983292 31.5866084,16.5923793 31.5866084,14.7703288 C31.5866084,12.9482783 31.9243981,11.324809 32.5999874,9.89987208 C33.2755768,8.47493517 34.2178321,7.3712096 35.4267815,6.58866228 C36.6357309,5.80611495 38.0105939,5.41484716 39.5514118,5.41484716 Z M41.0973015,9.47598253 C39.8014342,9.47598253 38.7948381,9.94190187 38.0774829,10.8737545 C37.3601278,11.8056072 37.0014556,13.0985333 37.0014556,14.7525718 C37.0014556,16.4066103 37.3543428,17.6704165 38.0601276,18.5440283 C38.7659125,19.4176402 39.7782937,19.8544396 41.0973015,19.8544396 C42.3931689,19.8544396 43.3881949,19.4118162 44.0824096,18.5265562 C44.7766242,17.6412962 45.1237263,16.360018 45.1237263,14.6826832 C45.1237263,13.0053484 44.7766242,11.7182463 44.0824096,10.8213381 C43.3881949,9.9244299 42.3931689,9.47598253 41.0973015,9.47598253 Z" id="Combined-Shape"></path>
                            <path d="M65.8752364,5.41484716 C70.090408,5.41484716 72.1979622,7.94088281 72.1979622,12.9930299 L72.1979622,23.915575 L66.8938978,23.915575 L66.8938978,13.2420782 C66.8938978,11.9849711 66.6655794,11.0658737 66.2089358,10.4847581 C65.7522923,9.90364264 65.0322112,9.61308924 64.0486712,9.61308924 C62.8777902,9.61308924 61.9410995,9.99258755 61.2385709,10.7515956 C60.5360423,11.5106036 60.1847833,12.5305053 60.1847833,13.8113313 L60.1847833,23.915575 L54.8807189,23.915575 L54.8807189,11.0362221 C54.8807189,9.11498312 54.7870498,7.39538138 54.5997089,5.87736536 L59.587637,5.87736536 L59.9388995,8.72363117 C60.5711752,7.65627615 61.3966339,6.83798292 62.4153004,6.26872691 C63.4339669,5.6994709 64.5872673,5.41484716 65.8752364,5.41484716 Z" id="Path"></path>
                            <path d="M83.0504584,9.83935075 L83.0504584,16.7374009 C83.0504584,17.7178394 83.3056769,18.4356496 83.8161216,18.8908531 C84.3265663,19.3460567 84.9878143,19.5736551 85.7998854,19.5736551 C86.3103301,19.5736551 86.8903722,19.4919531 87.5400291,19.3285467 L87.5400291,23.4253582 C86.704756,23.752171 85.6954827,23.915575 84.5121791,23.915575 C82.3311881,23.915575 80.6664672,23.2969743 79.5179666,22.0597544 C78.3694661,20.8225344 77.7952244,19.0834495 77.7952244,16.8424474 L77.7952244,9.83935075 L74.4541485,9.83935075 L74.4541485,5.88260116 L77.7952244,5.88260116 L77.7952244,1.71575867 L83.0504584,0 L83.0504584,5.88260116 L87.5400291,5.88260116 L87.5400291,9.83935075 L83.0504584,9.83935075 Z" id="Path"></path>
                            <path d="M100.970974,5.41484716 C101.725989,5.41484716 102.363023,5.53366889 102.882096,5.77131591 L102.846705,10.6905846 C101.973719,10.2865846 101.100745,10.0845877 100.227759,10.0845877 C98.8121058,10.0845877 97.7326863,10.4707583 96.9894683,11.2431111 C96.2462502,12.0154639 95.8746468,13.0908006 95.8746468,14.4691533 L95.8746468,23.915575 L90.530582,23.915575 L90.530582,11.0114064 C90.530582,9.0864656 90.4362065,7.36355057 90.2474527,5.84260965 L95.2729971,5.84260965 L95.6269087,8.94388772 C96.0751989,7.80318204 96.7771166,6.92984235 97.7326826,6.32384246 C98.6882486,5.71784256 99.7676682,5.41484716 100.970974,5.41484716 Z" id="Path"></path>
                            <path d="M111.749374,5.41484716 C113.005733,5.41484716 114.131699,5.68347878 115.127304,6.22075008 C116.122909,6.75802137 116.893307,7.48215878 117.438519,8.39318402 L117.438519,5.87035751 L122.736536,5.87035751 L122.736536,23.6352609 L117.438519,23.6352609 L117.438519,21.0073166 C116.893307,21.9183419 116.122909,22.6307996 115.127304,23.1447113 C114.131699,23.658623 113.005733,23.915575 111.749374,23.915575 C110.184851,23.915575 108.804062,23.5418266 107.606965,22.7943187 C106.409868,22.0468108 105.473539,20.9781242 104.79795,19.5882267 C104.12236,18.1983292 103.784571,16.5923793 103.784571,14.7703288 C103.784571,12.9482783 104.12236,11.324809 104.79795,9.89987208 C105.473539,8.47493517 106.415794,7.3712096 107.624744,6.58866228 C108.833693,5.80611495 110.208556,5.41484716 111.749374,5.41484716 Z M113.295264,9.47598253 C111.999396,9.47598253 110.9928,9.94190187 110.275445,10.8737545 C109.55809,11.8056072 109.199418,13.0985333 109.199418,14.7525718 C109.199418,16.4066103 109.552305,17.6704165 110.25809,18.5440283 C110.963875,19.4176402 111.976256,19.8544396 113.295264,19.8544396 C114.591131,19.8544396 115.586157,19.4118162 116.280372,18.5265562 C116.974586,17.6412962 117.321689,16.360018 117.321689,14.6826832 C117.321689,13.0053484 116.974586,11.7182463 116.280372,10.8213381 C115.586157,9.9244299 114.591131,9.47598253 113.295264,9.47598253 Z" id="Combined-Shape"></path>
                        </g>
                        <g id="systems" transform="translate(127.7001, 0.4512)">
                            <path d="M6.78613962,23.915575 C3.92633592,23.915575 1.66431199,23.1210004 0,21.5318273 L0.773549595,19.8596462 C1.71119015,20.6423732 2.65467682,21.1997613 3.60403788,21.5318273 C4.55339895,21.8638933 5.64924992,22.0299239 6.89162366,22.0299239 C8.34496653,22.0299239 9.45253783,21.7749484 10.2143708,21.2649899 C10.9762037,20.7550314 11.3571145,20.0138238 11.3571145,19.0413448 C11.3571145,18.2348987 11.1051274,17.600425 10.6011456,17.1379045 C10.0971638,16.675384 9.27088043,16.3018153 8.12227074,16.0171873 L5.1335564,15.3411992 C3.72709556,15.0091332 2.61952426,14.4161671 1.81080928,13.5622831 C1.00209429,12.708399 0.597742868,11.712216 0.597742868,10.573704 C0.597742868,9.00824993 1.18961959,7.75709142 2.3733908,6.82019091 C3.55716201,5.88329039 5.13354655,5.41484716 7.10259173,5.41484716 C8.34496547,5.41484716 9.4994181,5.61645564 10.5659842,6.01967865 C11.6325504,6.42290165 12.5174354,7.00400845 13.2206658,7.76301646 L12.4119549,9.43519763 C10.7945249,8.0120576 9.02475488,7.30049826 7.10259173,7.30049826 C5.74301292,7.30049826 4.68818311,7.57326268 3.93807066,8.11879969 C3.18795821,8.6643367 2.81290762,9.42333332 2.81290762,10.3958123 C2.81290762,11.2022584 3.05317441,11.8545211 3.53371519,12.3526201 C4.01425598,12.8507191 4.75849701,13.2183581 5.76646061,13.4555481 L8.7903363,14.2026929 C11.9548732,14.9142629 13.5371179,16.4915527 13.5371179,18.9346098 C13.5371179,20.4289068 12.9276607,21.632628 11.708728,22.5458095 C10.4897952,23.4589911 8.84894886,23.915575 6.78613962,23.915575 Z" id="Path"></path>
                            <path d="M33.3915575,5.41484716 L25.1329947,25.2953197 C24.316466,27.2606083 23.2958205,28.7045944 22.0710275,29.6273214 C20.8462346,30.5500483 19.3123502,31.2031375 17.4693283,31.5866084 L17.0494014,29.8609978 C18.7291175,29.4535599 19.9947179,28.9262953 20.8462407,28.2791881 C21.6977634,27.6320808 22.4151314,26.6135014 22.9983662,25.2234192 L23.7332383,23.4618584 L16.2445415,5.41484716 L18.5191456,5.41484716 L24.8530434,21.2329446 L31.2219351,5.41484716 L33.3915575,5.41484716 Z" id="Path"></path>
                            <path d="M42.4338834,23.915575 C39.5740797,23.915575 37.3120558,23.1210004 35.6477438,21.5318273 L36.4212934,19.8596462 C37.358934,20.6423732 38.3024206,21.1997613 39.2517817,21.5318273 C40.2011428,21.8638933 41.2969937,22.0299239 42.5393675,22.0299239 C43.9927103,22.0299239 45.1002816,21.7749484 45.8621146,21.2649899 C46.6239476,20.7550314 47.0048583,20.0138238 47.0048583,19.0413448 C47.0048583,18.2348987 46.7528712,17.600425 46.2488894,17.1379045 C45.7449076,16.675384 44.9186242,16.3018153 43.7700146,16.0171873 L40.7813002,15.3411992 C39.3748394,15.0091332 38.2672681,14.4161671 37.4585531,13.5622831 C36.6498381,12.708399 36.2454867,11.712216 36.2454867,10.573704 C36.2454867,9.00824993 36.8373634,7.75709142 38.0211346,6.82019091 C39.2049058,5.88329039 40.7812904,5.41484716 42.7503355,5.41484716 C43.9927093,5.41484716 45.1471619,5.61645564 46.213728,6.01967865 C47.2802942,6.42290165 48.1651792,7.00400845 48.8684096,7.76301646 L48.0596987,9.43519763 C46.4422687,8.0120576 44.6724987,7.30049826 42.7503355,7.30049826 C41.3907567,7.30049826 40.3359269,7.57326268 39.5858145,8.11879969 C38.835702,8.6643367 38.4606514,9.42333332 38.4606514,10.3958123 C38.4606514,11.2022584 38.7009182,11.8545211 39.181459,12.3526201 C39.6619998,12.8507191 40.4062408,13.2183581 41.4142044,13.4555481 L44.4380801,14.2026929 C47.602617,14.9142629 49.1848617,16.4915527 49.1848617,18.9346098 C49.1848617,20.4289068 48.5754045,21.632628 47.3564718,22.5458095 C46.137539,23.4589911 44.4966927,23.915575 42.4338834,23.915575 Z" id="Path"></path>
                            <path d="M57.5181005,7.39471021 L57.5181005,18.1440938 C57.5181005,19.5869713 57.7876681,20.5849466 58.3268115,21.1380497 C58.8659548,21.6911527 59.6629373,21.9677001 60.7177829,21.9677001 C61.3741313,21.9677001 62.0070292,21.8594859 62.6164956,21.6430543 L62.6164956,23.6270009 C61.8663831,23.8193846 61.1045616,23.915575 60.3310081,23.915575 C58.7839012,23.915575 57.5708469,23.4706944 56.6918089,22.58092 C55.8127709,21.6911455 55.3732585,20.3565038 55.3732585,18.5769549 L55.3732585,7.39471021 L51.8922853,7.39471021 L51.8922853,5.62719411 L55.3732585,5.62719411 L55.3732585,0.829650414 L57.5181005,0 L57.5181005,5.62719411 L62.7219796,5.62719411 L62.7219796,7.39471021 L57.5181005,7.39471021 Z" id="Path"></path>
                            <path d="M73.7529014,5.41484716 C76.1005664,5.41484716 77.9324291,6.17384379 79.2485444,7.69185981 C80.5646597,9.20987584 81.2227074,11.3208352 81.2227074,14.0248013 L81.2227074,14.4873194 L67.7059155,14.4873194 L67.7059155,14.5940544 C67.7059155,16.9896735 68.2572528,18.8219388 69.359944,20.0909053 C70.4626352,21.3598718 72.0692203,21.9943455 74.1797474,21.9943455 C76.3139884,21.9943455 78.2703466,21.2590676 80.0488808,19.7884895 L80.9025729,21.496249 C80.1200179,22.231538 79.1240537,22.8185745 77.9146505,23.257376 C76.7052472,23.6961775 75.460292,23.915575 74.1797474,23.915575 C71.4763755,23.915575 69.3421666,23.0972817 67.7770565,21.4606707 C66.2119465,19.8240597 65.4294032,17.5707884 65.4294032,14.7007894 C65.4294032,12.8744264 65.7791763,11.2556289 66.4787331,9.84434834 C67.1782899,8.43306781 68.156469,7.34201016 69.4132998,6.57114265 C70.6701306,5.80027514 72.11665,5.41484716 73.7529014,5.41484716 Z M73.5743777,7.21979622 C71.9425367,7.21979622 70.6181638,7.69387619 69.6012194,8.64205037 C68.584275,9.59022456 67.9457381,10.9210756 67.6855895,12.6346434 L78.9665211,12.6346434 C78.8246219,10.8753804 78.2925078,9.5331058 77.3701629,8.60777919 C76.4478179,7.68245258 75.1825689,7.21979622 73.5743777,7.21979622 Z" id="Combined-Shape"></path>
                            <path d="M104.678197,4.9636099 C108.594838,4.9636099 110.55313,7.29571211 110.55313,11.9599865 L110.55313,23.4643377 L108.394269,23.4643377 L108.394269,12.1042417 C108.394269,10.2770002 108.075752,8.9486636 107.438708,8.11919213 C106.801664,7.28972065 105.787127,6.87499113 104.395068,6.87499113 C102.767067,6.87499113 101.487099,7.42796382 100.555127,8.53392579 C99.6231556,9.63988776 99.1571767,11.1425309 99.1571767,13.0419004 L99.1571767,23.4643377 L96.9983161,23.4643377 L96.9983161,12.1042417 C96.9983161,10.2770002 96.6739004,8.9486636 96.0250592,8.11919213 C95.3762181,7.28972065 94.3557832,6.87499113 92.9637241,6.87499113 C91.3593169,6.87499113 90.0793495,7.42796382 89.1237834,8.53392579 C88.1682174,9.63988776 87.6904415,11.1425309 87.6904415,13.0419004 L87.6904415,23.4643377 L85.5669721,23.4643377 L85.5669721,10.4092432 C85.5669721,8.53391641 85.4725966,6.8629772 85.2838428,5.39637546 L87.33653,5.39637546 L87.6196592,8.64211718 C88.1151379,7.43998461 88.8524463,6.52637756 89.8316066,5.90126862 C90.8107669,5.27615968 91.949171,4.9636099 93.2468533,4.9636099 C96.1017543,4.9636099 97.9302792,6.14168215 98.7324828,8.49786199 C99.2279615,7.39190003 100.000661,6.52637756 101.050604,5.90126862 C102.100547,5.27615968 103.309732,4.9636099 104.678197,4.9636099 Z" id="Path"></path>
                            <path d="M122.302879,23.915575 C119.443075,23.915575 117.181051,23.1210004 115.516739,21.5318273 L116.290289,19.8596462 C117.22793,20.6423732 118.171416,21.1997613 119.120777,21.5318273 C120.070138,21.8638933 121.165989,22.0299239 122.408363,22.0299239 C123.861706,22.0299239 124.969277,21.7749484 125.73111,21.2649899 C126.492943,20.7550314 126.873854,20.0138238 126.873854,19.0413448 C126.873854,18.2348987 126.621867,17.600425 126.117885,17.1379045 C125.613903,16.675384 124.78762,16.3018153 123.63901,16.0171873 L120.650296,15.3411992 C119.243835,15.0091332 118.136264,14.4161671 117.327549,13.5622831 C116.518834,12.708399 116.114482,11.712216 116.114482,10.573704 C116.114482,9.00824993 116.706359,7.75709142 117.89013,6.82019091 C119.073901,5.88329039 120.650286,5.41484716 122.619331,5.41484716 C123.861705,5.41484716 125.016158,5.61645564 126.082724,6.01967865 C127.14929,6.42290165 128.034175,7.00400845 128.737405,7.76301646 L127.928694,9.43519763 C126.311264,8.0120576 124.541494,7.30049826 122.619331,7.30049826 C121.259752,7.30049826 120.204923,7.57326268 119.45481,8.11879969 C118.704698,8.6643367 118.329647,9.42333332 118.329647,10.3958123 C118.329647,11.2022584 118.569914,11.8545211 119.050455,12.3526201 C119.530995,12.8507191 120.275236,13.2183581 121.2832,13.4555481 L124.307076,14.2026929 C127.471613,14.9142629 129.053857,16.4915527 129.053857,18.9346098 C129.053857,20.4289068 128.4444,21.632628 127.225467,22.5458095 C126.006535,23.4589911 124.365688,23.915575 122.302879,23.915575 Z" id="Path"></path>
                        </g>
                    </g>
                </g>
            </g>
        </g>
    </g>
</svg>